<svg xmlns="http://www.w3.org/2000/svg" width="530" height="350.49" viewBox="0 0 530 350.49">
  <g id="Grupo_53689" data-name="Grupo 53689" transform="translate(-758.801 -1760.998)">
    <path id="Trazado_99953" data-name="Trazado 99953" d="M889.328,2119.713c-64.827-30.514-116.993-205.244-7.6-277.668s232.467-25.83,258.8,14.181,41.387,75.228,88.125,69.385c52.672-6.584,130.92,123.324,3.672,194.1Z" transform="translate(-25.684 -18.608)" fill="#f7f1d7"/>
    <g id="Grupo_53556" data-name="Grupo 53556" transform="translate(824.923 1787.838)">
      <g id="Grupo_53555" data-name="Grupo 53555" transform="translate(0 0)">
        <path id="Trazado_99954" data-name="Trazado 99954" d="M912.356,1900.07a.5.5,0,1,1,.1-.99,46.068,46.068,0,0,0,5.9.237.51.51,0,0,1,.51.486.5.5,0,0,1-.485.51q-.57.014-1.142.014A46.752,46.752,0,0,1,912.356,1900.07Zm11.465-.71a.5.5,0,0,1,.415-.568,44.905,44.905,0,0,0,5.758-1.29.5.5,0,1,1,.281.955,45.951,45.951,0,0,1-5.885,1.318.521.521,0,0,1-.077.006A.5.5,0,0,1,923.821,1899.36Zm-17.41-.314a45.852,45.852,0,0,1-5.756-1.8.5.5,0,1,1,.359-.929,44.812,44.812,0,0,0,5.631,1.757.5.5,0,0,1-.117.982A.487.487,0,0,1,906.412,1899.046Zm28.872-2.925a.5.5,0,0,1,.253-.657,45.121,45.121,0,0,0,5.225-2.748.5.5,0,1,1,.52.849,46.054,46.054,0,0,1-5.341,2.809.5.5,0,0,1-.657-.252Zm-40.1-1.408a46.451,46.451,0,0,1-5.093-3.232.5.5,0,0,1,.587-.8,45.2,45.2,0,0,0,4.983,3.163.5.5,0,0,1-.477.874Zm50.323-4.7a.5.5,0,0,1,.074-.7,45.433,45.433,0,0,0,4.336-4,.5.5,0,0,1,.722.686,46.38,46.38,0,0,1-4.431,4.092.5.5,0,0,1-.7-.073Zm-60.044-2.4a46.548,46.548,0,0,1-4.087-4.437.5.5,0,0,1,.775-.625,45.436,45.436,0,0,0,4,4.342.5.5,0,1,1-.686.72Zm68.341-6.145a.5.5,0,0,1-.109-.7,45.285,45.285,0,0,0,3.155-4.985.5.5,0,0,1,.874.477,46.3,46.3,0,0,1-3.224,5.094.5.5,0,0,1-.7.109Zm-75.9-3.224a45.988,45.988,0,0,1-2.8-5.343.5.5,0,1,1,.91-.4,45.049,45.049,0,0,0,2.74,5.228.5.5,0,1,1-.849.519Zm81.709-7.165a.5.5,0,0,1-.286-.643,44.844,44.844,0,0,0,1.75-5.635.5.5,0,0,1,.968.232,45.835,45.835,0,0,1-1.789,5.76.5.5,0,0,1-.465.32A.5.5,0,0,1,959.61,1871.078Zm2.9-11.547a.5.5,0,0,1-.444-.547,45.747,45.747,0,0,0,.245-4.727q0-.587-.015-1.17a.5.5,0,1,1,.995-.026q.015.6.015,1.2a46.771,46.771,0,0,1-.25,4.83.5.5,0,0,1-.494.446Zm-.746-12.321a45.01,45.01,0,0,0-1.3-5.756.5.5,0,1,1,.954-.283,45.911,45.911,0,0,1,1.325,5.884.5.5,0,1,1-.983.155Zm-3.341-11.3a45.289,45.289,0,0,0-2.755-5.222.5.5,0,0,1,.848-.521,46.165,46.165,0,0,1,2.815,5.337.5.5,0,1,1-.909.406Zm-81.522-2.888a.5.5,0,0,1-.2-.675,46.3,46.3,0,0,1,3.213-5.105.5.5,0,0,1,.806.584,45.351,45.351,0,0,0-3.144,4.995.5.5,0,0,1-.675.2Zm75.355-7.15a45.543,45.543,0,0,0-4.009-4.331.5.5,0,0,1,.685-.722,46.6,46.6,0,0,1,4.1,4.426.5.5,0,0,1-.773.627Zm-68.47-2.569a.5.5,0,0,1-.02-.7,46.49,46.49,0,0,1,4.422-4.1.5.5,0,0,1,.628.772,45.474,45.474,0,0,0-4.327,4.015.5.5,0,0,1-.7.02Zm59.924-5.535a45.227,45.227,0,0,0-4.988-3.149.5.5,0,0,1,.476-.875,46.264,46.264,0,0,1,5.1,3.219.5.5,0,0,1-.585.805Zm-50.766-2.08a.5.5,0,0,1,.163-.685,46.066,46.066,0,0,1,5.333-2.821.5.5,0,1,1,.407.908,45.138,45.138,0,0,0-5.218,2.76.5.5,0,0,1-.685-.163Zm40.423-3.537a44.825,44.825,0,0,0-5.636-1.744.5.5,0,1,1,.23-.969,45.9,45.9,0,0,1,5.763,1.783.5.5,0,0,1-.178.962A.492.492,0,0,1,933.369,1812.155Zm-29.6-1.446a.5.5,0,0,1,.335-.619,45.889,45.889,0,0,1,5.885-1.333.5.5,0,0,1,.156.983,44.892,44.892,0,0,0-5.758,1.3.49.49,0,0,1-.142.021A.5.5,0,0,1,903.765,1810.709Zm18.15-1.285a46.066,46.066,0,0,0-5.9-.223.5.5,0,1,1-.026-1,46.7,46.7,0,0,1,6.026.228.5.5,0,0,1-.051.993Z" transform="translate(-875.058 -1808.188)" fill="#b5ac84"/>
      </g>
    </g>
    <g id="Grupo_53563" data-name="Grupo 53563" transform="translate(805.756 1816.035)">
      <g id="Grupo_53562" data-name="Grupo 53562">
        <g id="Grupo_53557" data-name="Grupo 53557">
          <path id="Trazado_99955" data-name="Trazado 99955" d="M841.359,1871.722a13.957,13.957,0,1,1,13.957,13.957A13.972,13.972,0,0,1,841.359,1871.722Zm1.469,0a12.488,12.488,0,1,0,12.488-12.488A12.5,12.5,0,0,0,842.828,1871.722Z" transform="translate(-841.359 -1857.765)" fill="#b5ac84"/>
        </g>
        <g id="Grupo_53558" data-name="Grupo 53558" transform="translate(17.8 12.03)">
          <path id="Trazado_99956" data-name="Trazado 99956" d="M872.655,1880.843a1.927,1.927,0,1,1,1.927,1.927A1.929,1.929,0,0,1,872.655,1880.843Zm.979,0a.948.948,0,1,0,.948-.948A.949.949,0,0,0,873.634,1880.843Z" transform="translate(-872.655 -1878.916)" fill="#b5ac84"/>
        </g>
        <g id="Grupo_53559" data-name="Grupo 53559" transform="translate(6.537 12.03)">
          <path id="Trazado_99957" data-name="Trazado 99957" d="M852.852,1880.843a1.927,1.927,0,1,1,1.927,1.927A1.929,1.929,0,0,1,852.852,1880.843Zm.979,0a.947.947,0,1,0,.948-.948A.948.948,0,0,0,853.831,1880.843Z" transform="translate(-852.852 -1878.916)" fill="#b5ac84"/>
        </g>
        <g id="Grupo_53560" data-name="Grupo 53560" transform="translate(12.168 6.399)">
          <path id="Trazado_99958" data-name="Trazado 99958" d="M864.68,1872.868a1.927,1.927,0,1,1,1.927-1.927A1.929,1.929,0,0,1,864.68,1872.868Zm0-.979a.947.947,0,1,0-.948-.948A.948.948,0,0,0,864.68,1871.889Z" transform="translate(-862.753 -1869.015)" fill="#b5ac84"/>
        </g>
        <g id="Grupo_53561" data-name="Grupo 53561" transform="translate(12.168 17.662)">
          <path id="Trazado_99959" data-name="Trazado 99959" d="M864.68,1892.672a1.927,1.927,0,1,1,1.927-1.927A1.929,1.929,0,0,1,864.68,1892.672Zm0-.979a.948.948,0,1,0-.948-.948A.948.948,0,0,0,864.68,1891.693Z" transform="translate(-862.753 -1888.818)" fill="#b5ac84"/>
        </g>
      </g>
    </g>
    <path id="Trazado_99960" data-name="Trazado 99960" d="M1467.622,1841.358c-61.124-2.469-37.985,95.215,32.92,90.657S1517.761,1843.384,1467.622,1841.358Z" transform="translate(-290.477 -34.635)" fill="#f7f1d7"/>
    <g id="Grupo_53582" data-name="Grupo 53582" transform="translate(1173.633 1816.531)">
      <g id="Grupo_53581" data-name="Grupo 53581" transform="translate(0 0)">
        <g id="Grupo_53567" data-name="Grupo 53567" transform="translate(55.355 9.741)">
          <g id="Grupo_53564" data-name="Grupo 53564" transform="translate(33.158 19.43)">
            <path id="Trazado_99961" data-name="Trazado 99961" d="M1645.5,1912.565a.377.377,0,0,0,.213-.065.382.382,0,0,0,.1-.531c-.429-.636-.878-1.272-1.336-1.888a.383.383,0,0,0-.614.457c.451.606.894,1.231,1.316,1.858A.382.382,0,0,0,1645.5,1912.565Z" transform="translate(-1643.791 -1909.927)" fill="#b5ac84"/>
          </g>
          <g id="Grupo_53565" data-name="Grupo 53565" transform="translate(6.312 1.23)">
            <path id="Trazado_99962" data-name="Trazado 99962" d="M1620.93,1893.555c-.9-1.02-1.856-2.015-2.839-2.956a.383.383,0,1,1,.529-.553c1,.957,1.969,1.967,2.883,3a.382.382,0,1,1-.573.506Zm-5.914-5.665c-1.06-.857-2.167-1.679-3.292-2.442a.382.382,0,1,1,.429-.633c1.143.775,2.267,1.61,3.343,2.48a.383.383,0,0,1-.481.595Zm-6.776-4.6c-1.186-.668-2.416-1.292-3.653-1.856a.383.383,0,0,1,.317-.7c1.257.573,2.505,1.207,3.711,1.885a.383.383,0,0,1-.375.667Zm-7.451-3.4c-1.283-.458-2.6-.867-3.914-1.214a.382.382,0,1,1,.2-.74c1.335.352,2.673.767,3.976,1.233a.382.382,0,0,1-.128.743A.392.392,0,0,1,1600.788,1879.893Z" transform="translate(-1596.59 -1877.927)" fill="#b5ac84"/>
          </g>
          <g id="Grupo_53566" data-name="Grupo 53566">
            <path id="Trazado_99963" data-name="Trazado 99963" d="M1588.145,1876.874a.383.383,0,0,0,.066-.759c-.755-.133-1.525-.249-2.288-.346a.382.382,0,0,0-.1.759c.751.1,1.508.21,2.252.341A.377.377,0,0,0,1588.145,1876.874Z" transform="translate(-1585.493 -1875.765)" fill="#b5ac84"/>
          </g>
        </g>
        <g id="Grupo_53571" data-name="Grupo 53571" transform="translate(0 10.625)">
          <g id="Grupo_53568" data-name="Grupo 53568" transform="translate(35.691)">
            <path id="Trazado_99964" data-name="Trazado 99964" d="M1551.3,1878.656a.386.386,0,0,0,.1-.014c.729-.207,1.471-.4,2.205-.569a.383.383,0,1,0-.173-.745c-.746.173-1.5.368-2.24.577a.383.383,0,0,0,.1.751Z" transform="translate(-1550.919 -1877.318)" fill="#b5ac84"/>
          </g>
          <g id="Grupo_53569" data-name="Grupo 53569" transform="translate(0 2.058)">
            <path id="Trazado_99965" data-name="Trazado 99965" d="M1536.957,1976.547c-1.565-.021-3.143-.117-4.691-.284a.383.383,0,0,1,.083-.761c1.524.165,3.079.259,4.619.28a.382.382,0,0,1-.005.765Zm4.286-.506a.382.382,0,0,1,.35-.412c1.536-.123,3.08-.321,4.59-.589a.383.383,0,1,1,.133.754c-1.533.271-3.1.472-4.662.6l-.031,0A.382.382,0,0,1,1541.243,1976.041Zm-13.621-.5c-1.531-.315-3.063-.708-4.554-1.167a.382.382,0,0,1,.225-.731c1.469.452,2.977.838,4.484,1.148a.382.382,0,0,1-.077.757A.355.355,0,0,1,1527.623,1975.537Zm22.808-1.048a.383.383,0,0,1,.266-.471c1.482-.411,2.961-.9,4.4-1.45a.383.383,0,1,1,.274.714c-1.457.56-2.96,1.055-4.465,1.473a.4.4,0,0,1-.1.014A.383.383,0,0,1,1550.431,1974.489Zm-31.784-1.715c-1.44-.6-2.87-1.276-4.249-2.011a.383.383,0,0,1,.36-.675c1.358.725,2.765,1.391,4.183,1.98a.382.382,0,0,1-.147.735A.371.371,0,0,1,1518.647,1972.774Zm40.511-1.556a.382.382,0,0,1,.172-.513c1.375-.685,2.734-1.445,4.041-2.259a.382.382,0,0,1,.4.649c-1.326.827-2.707,1.6-4.1,2.294a.383.383,0,0,1-.512-.172Zm-48.8-2.862c-1.3-.862-2.577-1.8-3.792-2.779a.382.382,0,1,1,.481-.595c1.2.967,2.452,1.887,3.734,2.736a.383.383,0,0,1-.423.638Zm56.747-2.005a.382.382,0,0,1,.072-.536c1.22-.933,2.413-1.935,3.542-2.98a.382.382,0,1,1,.519.561c-1.147,1.061-2.358,2.08-3.6,3.027a.382.382,0,0,1-.536-.072Zm-64.052-3.9c-1.117-1.092-2.194-2.25-3.2-3.442a.382.382,0,0,1,.584-.494c.992,1.173,2.054,2.314,3.153,3.389a.382.382,0,1,1-.535.547Zm70.942-2.379a.383.383,0,0,1-.031-.54c1.026-1.148,2.008-2.356,2.919-3.593a.382.382,0,0,1,.616.453c-.925,1.256-1.923,2.484-2.965,3.649a.383.383,0,0,1-.54.03Zm-77.007-4.792c-.891-1.283-1.731-2.623-2.5-3.984a.383.383,0,0,1,.667-.375c.754,1.34,1.581,2.66,2.459,3.922a.383.383,0,0,1-.628.437Zm82.594-2.669a.383.383,0,0,1-.131-.525c.791-1.319,1.527-2.691,2.188-4.078a.383.383,0,0,1,.691.329c-.672,1.409-1.42,2.8-2.223,4.143a.384.384,0,0,1-.329.186A.378.378,0,0,1,1579.582,1952.613Zm-87.2-5.518c-.633-1.429-1.2-2.9-1.7-4.385a.383.383,0,1,1,.726-.242c.485,1.458,1.047,2.91,1.67,4.317a.383.383,0,0,1-.195.5.378.378,0,0,1-.155.033A.382.382,0,0,1,1492.384,1947.095Zm91.272-2.863a.383.383,0,0,1-.228-.49c.526-1.444.988-2.931,1.373-4.419a.382.382,0,1,1,.741.192c-.391,1.512-.861,3.022-1.4,4.49a.382.382,0,0,1-.49.228Zm-94.238-6.049c-.349-1.52-.629-3.077-.832-4.627a.383.383,0,0,1,.759-.1c.2,1.527.475,3.059.818,4.555a.382.382,0,0,1-.287.458.373.373,0,0,1-.086.01A.382.382,0,0,1,1489.419,1938.183Zm96.645-2.954a.383.383,0,0,1-.318-.438c.242-1.516.413-3.063.51-4.6a.383.383,0,0,1,.764.048c-.1,1.561-.273,3.132-.518,4.672a.383.383,0,0,1-.377.323A.372.372,0,0,1,1586.064,1935.229Zm-97.865-6.357c-.021-.6-.032-1.2-.032-1.8,0-.966.028-1.943.084-2.9a.383.383,0,1,1,.764.044c-.054.947-.082,1.909-.082,2.86,0,.588.011,1.183.032,1.769a.383.383,0,0,1-.369.4h-.014A.382.382,0,0,1,1488.2,1928.872Zm.865-8.94a.382.382,0,0,1-.32-.436c.237-1.544.552-3.095.935-4.608a.382.382,0,1,1,.742.188c-.377,1.49-.687,3.016-.921,4.536a.382.382,0,0,1-.378.324A.4.4,0,0,1,1489.064,1919.933Zm2.218-9.052a.383.383,0,0,1-.232-.489c.527-1.469,1.13-2.93,1.794-4.343a.383.383,0,0,1,.692.326c-.654,1.391-1.248,2.829-1.766,4.275a.383.383,0,0,1-.361.254A.377.377,0,0,1,1491.282,1910.88Zm3.9-8.461a.382.382,0,0,1-.134-.524c.8-1.342,1.665-2.663,2.585-3.926a.382.382,0,1,1,.618.45c-.906,1.243-1.762,2.544-2.545,3.865a.383.383,0,0,1-.524.134Zm5.429-7.574a.382.382,0,0,1-.034-.54c1.035-1.169,2.137-2.3,3.278-3.37a.383.383,0,0,1,.523.559c-1.123,1.051-2.209,2.168-3.228,3.319a.382.382,0,0,1-.54.033Zm6.757-6.42a.383.383,0,0,1,.069-.537c1.236-.955,2.533-1.861,3.854-2.694a.382.382,0,1,1,.408.647c-1.3.82-2.577,1.713-3.795,2.653a.383.383,0,0,1-.536-.069Zm7.847-5.033a.382.382,0,0,1,.169-.514c1.4-.7,2.84-1.349,4.3-1.916a.382.382,0,0,1,.277.713c-1.433.559-2.855,1.193-4.229,1.887a.383.383,0,0,1-.514-.169Z" transform="translate(-1488.167 -1880.937)" fill="#b5ac84"/>
          </g>
          <g id="Grupo_53570" data-name="Grupo 53570" transform="translate(98.035 43.927)">
            <path id="Trazado_99966" data-name="Trazado 99966" d="M1661.043,1957.609h.012a.382.382,0,0,0,.37-.394c-.024-.767-.067-1.544-.127-2.31a.383.383,0,1,0-.763.06c.059.754.1,1.519.125,2.273A.382.382,0,0,0,1661.043,1957.609Z" transform="translate(-1660.535 -1954.552)" fill="#b5ac84"/>
          </g>
        </g>
        <g id="Grupo_53575" data-name="Grupo 53575" transform="translate(55.355 9.741)">
          <g id="Grupo_53572" data-name="Grupo 53572" transform="translate(33.158 19.43)">
            <path id="Trazado_99967" data-name="Trazado 99967" d="M1645.5,1912.565a.377.377,0,0,0,.213-.065.382.382,0,0,0,.1-.531c-.429-.636-.878-1.272-1.336-1.888a.383.383,0,0,0-.614.457c.451.606.894,1.231,1.316,1.858A.382.382,0,0,0,1645.5,1912.565Z" transform="translate(-1643.791 -1909.927)" fill="#b5ac84"/>
          </g>
          <g id="Grupo_53573" data-name="Grupo 53573" transform="translate(6.312 1.23)">
            <path id="Trazado_99968" data-name="Trazado 99968" d="M1620.93,1893.555c-.9-1.02-1.856-2.015-2.839-2.956a.383.383,0,1,1,.529-.553c1,.957,1.969,1.967,2.883,3a.382.382,0,1,1-.573.506Zm-5.914-5.665c-1.06-.857-2.167-1.679-3.292-2.442a.382.382,0,1,1,.429-.633c1.143.775,2.267,1.61,3.343,2.48a.383.383,0,0,1-.481.595Zm-6.776-4.6c-1.186-.668-2.416-1.292-3.653-1.856a.383.383,0,0,1,.317-.7c1.257.573,2.505,1.207,3.711,1.885a.383.383,0,0,1-.375.667Zm-7.451-3.4c-1.283-.458-2.6-.867-3.914-1.214a.382.382,0,1,1,.2-.74c1.335.352,2.673.767,3.976,1.233a.382.382,0,0,1-.128.743A.392.392,0,0,1,1600.788,1879.893Z" transform="translate(-1596.59 -1877.927)" fill="#b5ac84"/>
          </g>
          <g id="Grupo_53574" data-name="Grupo 53574">
            <path id="Trazado_99969" data-name="Trazado 99969" d="M1588.145,1876.874a.383.383,0,0,0,.066-.759c-.755-.133-1.525-.249-2.288-.346a.382.382,0,0,0-.1.759c.751.1,1.508.21,2.252.341A.377.377,0,0,0,1588.145,1876.874Z" transform="translate(-1585.493 -1875.765)" fill="#b5ac84"/>
          </g>
        </g>
        <g id="Grupo_53576" data-name="Grupo 53576" transform="translate(38.456)">
          <path id="Trazado_99970" data-name="Trazado 99970" d="M1561.852,1870.184l-6.07-4.411h7.5l2.319-7.136,2.319,7.136h7.5l-6.07,4.411,2.318,7.136-6.07-4.411-6.07,4.411Zm8.367,5.133-1.763-5.425,4.615-3.354h-5.7l-1.763-5.425-1.763,5.425h-5.7l4.615,3.354-1.763,5.425,4.615-3.353Z" transform="translate(-1555.782 -1858.638)" fill="#b5ac84"/>
        </g>
        <g id="Grupo_53580" data-name="Grupo 53580" transform="translate(85.034 32.08)">
          <g id="Grupo_53577" data-name="Grupo 53577">
            <path id="Trazado_99971" data-name="Trazado 99971" d="M1637.675,1925.768a10.726,10.726,0,1,1,10.726,10.727A10.739,10.739,0,0,1,1637.675,1925.768Zm1.129,0a9.6,9.6,0,1,0,9.6-9.6A9.608,9.608,0,0,0,1638.8,1925.768Z" transform="translate(-1637.675 -1915.041)" fill="#b5ac84"/>
          </g>
          <g id="Grupo_53578" data-name="Grupo 53578" transform="translate(12.927 9.246)">
            <path id="Trazado_99972" data-name="Trazado 99972" d="M1660.4,1932.778a1.481,1.481,0,1,1,1.481,1.481A1.483,1.483,0,0,1,1660.4,1932.778Zm.753,0a.728.728,0,1,0,.728-.728A.729.729,0,0,0,1661.157,1932.778Z" transform="translate(-1660.404 -1931.297)" fill="#b5ac84"/>
          </g>
          <g id="Grupo_53579" data-name="Grupo 53579" transform="translate(5.776 9.246)">
            <path id="Trazado_99973" data-name="Trazado 99973" d="M1647.831,1932.778a1.481,1.481,0,1,1,1.481,1.481A1.483,1.483,0,0,1,1647.831,1932.778Zm.753,0a.728.728,0,1,0,.728-.728A.729.729,0,0,0,1648.584,1932.778Z" transform="translate(-1647.831 -1931.297)" fill="#b5ac84"/>
          </g>
        </g>
      </g>
    </g>
    <g id="Grupo_53586" data-name="Grupo 53586" transform="translate(858.015 1814.817)">
      <g id="Grupo_53583" data-name="Grupo 53583" transform="translate(0 20.286)">
        <rect id="Rectángulo_5066" data-name="Rectángulo 5066" width="13.295" height="145.846" transform="translate(25.713 157.777) rotate(175.096)" fill="#ff9696"/>
        <rect id="Rectángulo_5067" data-name="Rectángulo 5067" width="6.147" height="145.846" transform="translate(25.713 157.777) rotate(175.097)" fill="#c4c4c4" style="mix-blend-mode: multiply;isolation: isolate"/>
        <path id="Trazado_99974" data-name="Trazado 99974" d="M933.241,1904.89l13.246-1.136-7.741-12.464Z" transform="translate(-933.241 -1891.29)" fill="#ffbb96"/>
        <path id="Trazado_99975" data-name="Trazado 99975" d="M939.886,1895.553l1.726-4.263,2.384,3.839c-.9,1.419-1.926.561-1.926.561A1.323,1.323,0,0,1,939.886,1895.553Z" transform="translate(-936.107 -1891.29)" fill="#ff9696"/>
      </g>
      <g id="Grupo_53584" data-name="Grupo 53584" transform="translate(47.369 28.552)">
        <path id="Trazado_99976" data-name="Trazado 99976" d="M1025.563,1928.052l13.269.824-12.69,215.38-9.615-70.637Z" transform="translate(-1016.527 -1915.409)" fill="#ff9696"/>
        <path id="Trazado_99977" data-name="Trazado 99977" d="M1035.336,1928.831l6.135.381-12.69,215.38-6.135-.381Z" transform="translate(-1019.166 -1915.745)" fill="#c4c4c4" style="mix-blend-mode: multiply;isolation: isolate"/>
        <path id="Trazado_99978" data-name="Trazado 99978" d="M1032.414,1918.466l13.269.824-5.824-13.467Z" transform="translate(-1023.378 -1905.823)" fill="#ffbb96"/>
        <path id="Trazado_99979" data-name="Trazado 99979" d="M1041.4,1909.787l2.334-3.964,1.794,4.148c-1.1,1.271-1.988.271-1.988.271A1.323,1.323,0,0,1,1041.4,1909.787Z" transform="translate(-1027.253 -1905.823)" fill="#ff9696"/>
      </g>
      <g id="Grupo_53585" data-name="Grupo 53585" transform="translate(23.817 0)">
        <rect id="Rectángulo_5068" data-name="Rectángulo 5068" width="13.295" height="145.846" transform="translate(15.664 158.798) rotate(179.069)" fill="#c46588"/>
        <rect id="Rectángulo_5069" data-name="Rectángulo 5069" width="6.147" height="145.846" transform="matrix(-1, 0.016, -0.016, -1, 15.664, 158.798)" fill="#c4c4c4" style="mix-blend-mode: multiply;isolation: isolate"/>
        <path id="Trazado_99980" data-name="Trazado 99980" d="M975.118,1868.809l13.293-.216-6.859-12.97Z" transform="translate(-975.118 -1855.623)" fill="#ffbb96"/>
        <path id="Trazado_99981" data-name="Trazado 99981" d="M982.884,1859.757l2.017-4.134,2.113,3.995c-1,1.353-1.961.426-1.961.426A1.322,1.322,0,0,1,982.884,1859.757Z" transform="translate(-978.467 -1855.623)" fill="#c46588"/>
      </g>
      <path id="Trazado_99982" data-name="Trazado 99982" d="M942.359,2085.426h73.859l-13.361,154.9H948.413Z" transform="translate(-937.174 -1954.724)" fill="#78646c"/>
      <path id="Trazado_99983" data-name="Trazado 99983" d="M983.409,2085.426h35.648l-13.361,154.9H951.251l-2.31-20.244C958.6,2204.2,974.772,2111.147,983.409,2085.426Z" transform="translate(-940.012 -1954.724)" fill="#c4c4c4" style="mix-blend-mode: multiply;isolation: isolate"/>
      <ellipse id="Elipse_3970" data-name="Elipse 3970" cx="8.262" cy="10.826" rx="8.262" ry="10.826" transform="translate(10.752 141.158)" fill="#1f1f1f" style="mix-blend-mode: screen;isolation: isolate"/>
    </g>
    <g id="Grupo_53589" data-name="Grupo 53589" transform="translate(878.298 2051.058)">
      <path id="Trazado_99984" data-name="Trazado 99984" d="M973.545,2271.539c1.314.945,3.7,6.2,3.7,6.2s-5.807-.5-7.12-1.441a2.93,2.93,0,0,1,3.422-4.757Z" transform="translate(-968.903 -2270.987)" fill="#b3ae7f"/>
      <path id="Trazado_99985" data-name="Trazado 99985" d="M1008.006,2313.8a.269.269,0,0,1-.245-.156c-.087-.187-8.892-18.881-29.688-34.824a.27.27,0,0,1,.328-.428c20.906,16.029,29.762,34.838,29.849,35.026a.27.27,0,0,1-.245.383Z" transform="translate(-972.812 -2274.155)" fill="#8f8b66"/>
      <g id="Grupo_53587" data-name="Grupo 53587" transform="translate(5.601 11.566)">
        <path id="Trazado_99986" data-name="Trazado 99986" d="M981.155,2291.352c1.592-.291,7.03,1.634,7.03,1.634s-4.385,3.839-5.976,4.13a2.93,2.93,0,0,1-1.054-5.764Z" transform="translate(-978.751 -2291.322)" fill="#b3ae7f"/>
        <path id="Trazado_99987" data-name="Trazado 99987" d="M983.8,2295.476a.269.269,0,0,1-.052-.534c4.862-.955,6.918-1.4,6.939-1.406a.27.27,0,0,1,.114.527c-.02,0-2.081.451-6.949,1.407A.276.276,0,0,1,983.8,2295.476Z" transform="translate(-980.812 -2292.274)" fill="#8f8b66"/>
      </g>
      <g id="Grupo_53588" data-name="Grupo 53588" transform="translate(19.464 9.581)">
        <path id="Trazado_99988" data-name="Trazado 99988" d="M1008.959,2291.092c-.181,1.608-3.595,6.259-3.595,6.259s-2.41-5.306-2.228-6.915a2.93,2.93,0,0,1,5.823.656Z" transform="translate(-1003.126 -2287.833)" fill="#b3ae7f"/>
        <path id="Trazado_99989" data-name="Trazado 99989" d="M1006.836,2300.192h-.022a.269.269,0,0,1-.247-.29c0-.02.169-2.122.659-7.059a.27.27,0,0,1,.537.053c-.49,4.931-.657,7.029-.659,7.049A.269.269,0,0,1,1006.836,2300.192Z" transform="translate(-1004.61 -2289.888)" fill="#8f8b66"/>
      </g>
    </g>
    <g id="Grupo_53590" data-name="Grupo 53590" transform="translate(856.748 2071.775)">
      <path id="Trazado_99990" data-name="Trazado 99990" d="M959.564,2307.977c-14.467-2.914-28.55,6.417-28.55,6.417s9.373,14.054,23.841,16.968,28.55-6.417,28.55-6.417S974.031,2310.89,959.564,2307.977Z" transform="translate(-931.014 -2307.413)" fill="#8f8b66"/>
      <path id="Trazado_99991" data-name="Trazado 99991" d="M1011.4,2344.23a.449.449,0,0,1-.564-.034,94.745,94.745,0,0,0-22.712-14.152,122.41,122.41,0,0,0-43.44-10.013.449.449,0,0,1,.034-.9,123.365,123.365,0,0,1,43.775,10.092,95.652,95.652,0,0,1,22.948,14.307.45.45,0,0,1,.029.635A.439.439,0,0,1,1011.4,2344.23Z" transform="translate(-936.725 -2312.467)" fill="#b3ae7f"/>
      <path id="Trazado_99992" data-name="Trazado 99992" d="M972.008,2318.994a.45.45,0,0,1-.526,0l-8.69-6.324a.449.449,0,0,1,.529-.727l8.69,6.324a.449.449,0,0,1,.1.628A.458.458,0,0,1,972.008,2318.994Z" transform="translate(-944.638 -2309.328)" fill="#b3ae7f"/>
      <path id="Trazado_99993" data-name="Trazado 99993" d="M985.006,2327.788l-.032.021-10.819,6.427a.449.449,0,1,1-.458-.772l10.819-6.428a.449.449,0,0,1,.491.752Z" transform="translate(-949.325 -2315.848)" fill="#b3ae7f"/>
      <path id="Trazado_99994" data-name="Trazado 99994" d="M1005.431,2327.184a.449.449,0,0,1-.606-.079l-6.088-7.318a.449.449,0,0,1,.691-.574l6.088,7.318a.448.448,0,0,1-.058.632A.256.256,0,0,1,1005.431,2327.184Z" transform="translate(-960.174 -2312.432)" fill="#b3ae7f"/>
    </g>
    <g id="Grupo_53591" data-name="Grupo 53591" transform="translate(1107.522 1948.542)">
      <path id="Trazado_99995" data-name="Trazado 99995" d="M1468.115,2091.543c21.791-4.269,42.906,9.882,42.906,9.882s-14.215,21.072-36.007,25.34-42.906-9.882-42.906-9.882S1446.324,2095.812,1468.115,2091.543Z" transform="translate(-1397.882 -2090.741)" fill="#8f8b66"/>
      <path id="Trazado_99996" data-name="Trazado 99996" d="M1372.713,2145.994a.971.971,0,0,1-.462-1.673c.13-.117,13.24-11.841,34.72-21.4,19.612-8.723,43.69-14.141,66.058-14.862a.971.971,0,1,1,.062,1.94c-21.8.7-46.224,6.2-65.331,14.7-21.18,9.42-34.08,20.947-34.208,21.062A.97.97,0,0,1,1372.713,2145.994Z" transform="translate(-1371.93 -2098.211)" fill="#b3ae7f"/>
      <path id="Trazado_99997" data-name="Trazado 99997" d="M1498.183,2108.337a.971.971,0,0,1-.38-1.741l13.126-9.446a.971.971,0,1,1,1.134,1.576l-13.127,9.446A.97.97,0,0,1,1498.183,2108.337Z" transform="translate(-1426.038 -2093.426)" fill="#b3ae7f"/>
      <path id="Trazado_99998" data-name="Trazado 99998" d="M1492.251,2131.057a.974.974,0,0,1-.313-.121l-16.228-9.757a.971.971,0,1,1,1-1.664l16.227,9.757a.971.971,0,0,1-.687,1.785Z" transform="translate(-1416.482 -2103.09)" fill="#b3ae7f"/>
      <path id="Trazado_99999" data-name="Trazado 99999" d="M1450.79,2120.394a.972.972,0,0,1-.555-1.577l9.219-10.962a.971.971,0,0,1,1.486,1.25l-9.219,10.962A.97.97,0,0,1,1450.79,2120.394Z" transform="translate(-1405.6 -2097.972)" fill="#b3ae7f"/>
    </g>
    <g id="Grupo_53613" data-name="Grupo 53613" transform="translate(1133.424 1870.924)">
      <path id="Trazado_100000" data-name="Trazado 100000" d="M1575.979,1976.182c-3.213,1.38-15.595-.053-15.595-.053s7.385-10.2,10.6-11.581,12.678,1.19,12.678,1.19S1579.191,1974.8,1575.979,1976.182Z" transform="translate(-1479.101 -1958.529)" fill="#7d6871"/>
      <g id="Grupo_53593" data-name="Grupo 53593" transform="translate(0 15.247)">
        <g id="Grupo_53592" data-name="Grupo 53592">
          <path id="Trazado_100001" data-name="Trazado 100001" d="M1418.409,2071.324l-.938-.249c18.2-68.631,85.812-89.863,86.473-90l.191.952C1503.479,1982.163,1436.468,2003.216,1418.409,2071.324Z" transform="translate(-1417.471 -1981.08)" fill="#54464c"/>
        </g>
      </g>
      <g id="Grupo_53596" data-name="Grupo 53596" transform="translate(63.884 25.508)">
        <path id="Trazado_100002" data-name="Trazado 100002" d="M1552.658,2013.476c-3.264-1.256-11.125-10.929-11.125-10.929s12.409-2.143,15.673-.887,8.243,9.706,8.243,9.706S1555.921,2014.732,1552.658,2013.476Z" transform="translate(-1534.856 -2000.046)" fill="#7d6871"/>
        <g id="Grupo_53595" data-name="Grupo 53595">
          <g id="Grupo_53594" data-name="Grupo 53594">
            <path id="Trazado_100003" data-name="Trazado 100003" d="M1552.629,2007.271c-5.7-2.7-22.665-7.165-22.836-7.209l.246-.939c.7.184,17.222,4.534,23,7.271Z" transform="translate(-1529.793 -1999.122)" fill="#54464c"/>
          </g>
        </g>
      </g>
      <g id="Grupo_53599" data-name="Grupo 53599" transform="translate(43.752 39.183)">
        <path id="Trazado_100004" data-name="Trazado 100004" d="M1517.261,2037.519c-3.263-1.256-11.124-10.929-11.124-10.929s12.409-2.143,15.672-.887,8.242,9.707,8.242,9.707S1520.524,2038.775,1517.261,2037.519Z" transform="translate(-1499.459 -2024.089)" fill="#7d6871"/>
        <g id="Grupo_53598" data-name="Grupo 53598">
          <g id="Grupo_53597" data-name="Grupo 53597">
            <path id="Trazado_100005" data-name="Trazado 100005" d="M1517.233,2031.313c-5.7-2.7-22.666-7.165-22.837-7.209l.246-.939c.7.184,17.222,4.534,23.006,7.271Z" transform="translate(-1494.396 -2023.165)" fill="#54464c"/>
          </g>
        </g>
      </g>
      <g id="Grupo_53602" data-name="Grupo 53602" transform="translate(27.228 55.516)">
        <path id="Trazado_100006" data-name="Trazado 100006" d="M1488.209,2066.237c-3.263-1.256-11.124-10.929-11.124-10.929s12.409-2.144,15.673-.887,8.242,9.706,8.242,9.706S1491.473,2067.493,1488.209,2066.237Z" transform="translate(-1470.407 -2052.807)" fill="#7d6871"/>
        <g id="Grupo_53601" data-name="Grupo 53601">
          <g id="Grupo_53600" data-name="Grupo 53600">
            <path id="Trazado_100007" data-name="Trazado 100007" d="M1488.181,2060.031c-5.7-2.7-22.666-7.164-22.837-7.209l.246-.939c.7.184,17.222,4.533,23.006,7.271Z" transform="translate(-1465.344 -2051.883)" fill="#54464c"/>
          </g>
        </g>
      </g>
      <g id="Grupo_53605" data-name="Grupo 53605" transform="translate(14.756 71.913)">
        <path id="Trazado_100008" data-name="Trazado 100008" d="M1466.282,2095.066c-3.264-1.256-11.125-10.929-11.125-10.929s12.409-2.143,15.673-.887,8.242,9.706,8.242,9.706S1469.545,2096.322,1466.282,2095.066Z" transform="translate(-1448.479 -2081.636)" fill="#7d6871"/>
        <g id="Grupo_53604" data-name="Grupo 53604">
          <g id="Grupo_53603" data-name="Grupo 53603">
            <path id="Trazado_100009" data-name="Trazado 100009" d="M1466.253,2088.86c-5.7-2.7-22.666-7.164-22.837-7.209l.247-.939c.7.184,17.221,4.534,23.005,7.271Z" transform="translate(-1443.416 -2080.712)" fill="#54464c"/>
          </g>
        </g>
      </g>
      <g id="Grupo_53609" data-name="Grupo 53609" transform="translate(53.43 0)">
        <g id="Grupo_53607" data-name="Grupo 53607">
          <g id="Grupo_53606" data-name="Grupo 53606">
            <path id="Trazado_100010" data-name="Trazado 100010" d="M1523.8,1966.763c-.9,3.379-9.673,12.232-9.673,12.232s-3.461-12.108-2.563-15.487,8.767-9.236,8.767-9.236S1524.7,1963.384,1523.8,1966.763Z" transform="translate(-1511.413 -1954.273)" fill="#7d6871"/>
          </g>
        </g>
        <g id="Grupo_53608" data-name="Grupo 53608" transform="translate(0.915 7.733)">
          <path id="Trazado_100011" data-name="Trazado 100011" d="M1513.982,1991.665l-.96-.144c.108-.717,2.661-17.609,4.762-23.652l.917.318C1516.63,1974.146,1514.008,1991.491,1513.982,1991.665Z" transform="translate(-1513.022 -1967.869)" fill="#54464c"/>
        </g>
      </g>
      <g id="Grupo_53612" data-name="Grupo 53612" transform="translate(28.303 16.65)">
        <path id="Trazado_100012" data-name="Trazado 100012" d="M1479.868,1995.193c-.266,3.486-7.276,13.794-7.276,13.794s-5.615-11.272-5.349-14.758,6.932-10.682,6.932-10.682S1480.134,1991.707,1479.868,1995.193Z" transform="translate(-1467.234 -1983.547)" fill="#7d6871"/>
        <g id="Grupo_53611" data-name="Grupo 53611" transform="translate(4.616 8.194)">
          <g id="Grupo_53610" data-name="Grupo 53610">
            <path id="Trazado_100013" data-name="Trazado 100013" d="M1475.543,2022.078c-.025-.724-.6-17.8.36-24.124l.96.146c-.948,6.236-.355,23.768-.35,23.945Z" transform="translate(-1475.349 -1997.954)" fill="#54464c"/>
          </g>
        </g>
      </g>
    </g>
    <path id="Trazado_100014" data-name="Trazado 100014" d="M882.831,2344.147a12.871,12.871,0,0,0-1.029,5.193h29.5c-1.254-2.149-5.506-4.432-10.788-6.535s-6.491-4.79-6.491-4.79Z" transform="translate(-53.041 -248.834)" fill="#2b1710"/>
    <path id="Trazado_100015" data-name="Trazado 100015" d="M888.356,2220.974c2.149-13.966-5.439-58.552-4.029-60.164l-24.442,4.3c-.6,9.669,11.7,50.427,11.094,52.643-2.216,15.914,1.41,53.18,1.41,53.784,4.029.6,12.087-7.252,15.914-7.05C889.311,2257.434,887.115,2229.036,888.356,2220.974Z" transform="translate(-43.583 -172.416)" fill="#2e3b4a"/>
    <path id="Trazado_100016" data-name="Trazado 100016" d="M846.324,2344.147a12.865,12.865,0,0,0-1.03,5.193h29.5c-1.254-2.149-5.506-4.432-10.789-6.535s-6.491-4.79-6.491-4.79Z" transform="translate(-37.298 -248.834)" fill="#2b1710"/>
    <path id="Trazado_100017" data-name="Trazado 100017" d="M840,2171.089c-.6,9.669,2.216,46.533,1.612,48.749-2.216,15.914,1.41,53.18,1.41,53.784,4.029.6,12.086-7.252,15.914-7.05,1.007-7.051-1.007-36.26,1.813-43.914s1.007-43.108,2.418-44.72,2.014-12.288,2.014-12.288Z" transform="translate(-34.981 -174.503)" fill="#3b4b5e"/>
    <path id="Trazado_100018" data-name="Trazado 100018" d="M851.163,2063.175c-2.149.067-2.82,1.678-3.962,2.753s-13.228,6.111-15.645,10.341-7.521,30.417-6.984,32.365,8.8,8.8,8.8,9.065c-.738,3.089-.537,10.609-.537,10.609,6.11.94,33.484-1.276,37.781-8.527-2.6-9.58-1.343-22.472-1.343-22.472l20.9,22,10.844-8.133s-19.662-22.192-25.929-30.249-11.728-9.4-13.25-10.385-.9-3.223-4.566-4.118A14.673,14.673,0,0,1,851.163,2063.175Z" transform="translate(-28.347 -130.312)" fill="#86bec4"/>
    <path id="Trazado_100019" data-name="Trazado 100019" d="M869.021,2040.737c-1.041-2.787-2.249-7.688,2.216-10.005s10.676-.806,12.322,1.947c2.585,1.477,1.309,6.883,1.041,7.487a28.42,28.42,0,0,0-.47,6.547c0,3.29.94,6.244-6.311,5.573s-7.252-5.506-7.252-5.607-1.141-4.566-1.141-4.566Z" transform="translate(-47.111 -115.83)" fill="#2b1710"/>
    <path id="Trazado_100020" data-name="Trazado 100020" d="M871.364,2052.845c.3-4.1-1.578-4.566-2.417-4.3s-2.551,3.794,1.041,4.835a9.117,9.117,0,0,1-.806,4.4c0,2.753,4.432,5.573,6.346,5.438a2.687,2.687,0,0,0,2.417-1.712,5.77,5.77,0,0,1-.235-1.074c-.94.134-5.07-1.444-5.842-4.432S871.364,2052.845,871.364,2052.845Z" transform="translate(-47.003 -123.977)" fill="#ff8762"/>
    <path id="Trazado_100021" data-name="Trazado 100021" d="M887.009,2038.854c-.974,1.78-2.082,1.746-3.727,1.478a2.571,2.571,0,0,0-2.887,2.082c-.3,1.108-2.249,2.417-3.122,2.249-1.443,2.753,1.074,6.748,1.074,6.748,3.827-1.88,8.9-.538,8.9-.538a13,13,0,0,1,.772-4.365C888.822,2044.494,888.486,2039.895,887.009,2038.854Z" transform="translate(-50.898 -119.824)" fill="#ff8762"/>
    <path id="Trazado_100022" data-name="Trazado 100022" d="M884.222,2062.02c1.242-2.35,5.473-1.713,5.708.1C888.285,2063.8,884.927,2062.557,884.222,2062.02Z" transform="translate(-54.087 -129.157)" fill="#ff8762"/>
    <path id="Trazado_100023" data-name="Trazado 100023" d="M886.679,2051.2c0,.593-.286,1.074-.638,1.074s-.638-.481-.638-1.074.286-1.074.638-1.074S886.679,2050.61,886.679,2051.2Z" transform="translate(-54.596 -124.686)" fill="#2b1710"/>
    <path id="Trazado_100024" data-name="Trazado 100024" d="M894.117,2051.734c0,.594-.286,1.074-.638,1.074s-.638-.48-.638-1.074.286-1.074.638-1.074S894.117,2051.141,894.117,2051.734Z" transform="translate(-57.804 -124.915)" fill="#2b1710"/>
    <path id="Trazado_100025" data-name="Trazado 100025" d="M882.156,2046.927a6.994,6.994,0,0,1,3.794-.134A2.167,2.167,0,0,0,882.156,2046.927Z" transform="translate(-53.196 -122.792)" fill="#2b1710"/>
    <path id="Trazado_100026" data-name="Trazado 100026" d="M891.622,2055.011a11.87,11.87,0,0,1-1.7-.2l.032-.169a7.442,7.442,0,0,0,1.971.171c.012,0,.04-.014.044-.028.022-.069-.135-.288-.275-.481a4.467,4.467,0,0,1-.629-1.093,4.706,4.706,0,0,1,.269-3.248l.161.058a4.557,4.557,0,0,0-.268,3.132,4.315,4.315,0,0,0,.607,1.051c.209.29.348.482.3.633a.22.22,0,0,1-.153.139A1.234,1.234,0,0,1,891.622,2055.011Z" transform="translate(-56.544 -124.613)" fill="#2b1710"/>
    <path id="Trazado_100027" data-name="Trazado 100027" d="M888.84,2062.4a8.109,8.109,0,0,1-2.361-.326l.051-.164a8.669,8.669,0,0,0,3.287.266l.023.17A8.381,8.381,0,0,1,888.84,2062.4Z" transform="translate(-55.06 -129.766)" fill="#2b1710"/>
    <path id="Trazado_100028" data-name="Trazado 100028" d="M871.43,2052.841a1.058,1.058,0,0,1-.935-.6.916.916,0,0,1,.108-.938,1.058,1.058,0,0,1,.983-.363c-.145-.257-.482-.776-.876-.844a.578.578,0,0,0-.522.206l-.121-.121a.745.745,0,0,1,.672-.254c.613.107,1.058,1.044,1.077,1.083l.07.149-.162-.028a.978.978,0,0,0-.987.278.745.745,0,0,0-.085.763.891.891,0,0,0,.791.5Z" transform="translate(-47.983 -124.593)" fill="#e0b3a8" style="mix-blend-mode: multiply;isolation: isolate"/>
    <path id="Trazado_100029" data-name="Trazado 100029" d="M892.959,2047.732c1.947-.2,2.283.806,2.283.806A1.311,1.311,0,0,0,892.959,2047.732Z" transform="translate(-57.855 -123.464)" fill="#2b1710"/>
    <path id="Trazado_100030" data-name="Trazado 100030" d="M852.773,2090.452a12.122,12.122,0,0,0-7.336-9.2l.07-.156a12.3,12.3,0,0,1,7.437,9.337Z" transform="translate(-37.361 -138.042)" fill="#c4c4c4" style="mix-blend-mode: multiply;isolation: isolate"/>
    <path id="Trazado_100031" data-name="Trazado 100031" d="M864.356,2135.732c-.476-.272-3.414-2.641-6.343-5.231-2.6-2.3-5.759-5.27-6.053-6.371l0-.018,0-.018c.023-.138,2.3-13.876,3.5-16.938l.16.063c-1.172,2.993-3.387,16.3-3.484,16.885.579,1.99,11.236,10.867,12.31,11.48Z" transform="translate(-40.173 -149.278)" fill="#c4c4c4" style="mix-blend-mode: multiply;isolation: isolate"/>
    <path id="Trazado_100032" data-name="Trazado 100032" d="M851.5,2167.327a34.133,34.133,0,0,1-9.158-4.848l.1-.137a33.955,33.955,0,0,0,9.106,4.821Z" transform="translate(-36.025 -173.077)" fill="#c4c4c4" style="mix-blend-mode: multiply;isolation: isolate"/>
    <path id="Trazado_100033" data-name="Trazado 100033" d="M845.478,2141.2a.168.168,0,0,1-.042-.006.137.137,0,0,1-.095-.106c-.088-.389,1.25-2.345,1.944-2.952.282-.247.28-.323.28-.325a5.818,5.818,0,0,0-1.707.26c-.4.088-.811.179-1.231.259-.558.106-.69.038-.743-.034a.153.153,0,0,1-.005-.172,5.752,5.752,0,0,1,3.779-1.083l-.006.172a5.8,5.8,0,0,0-3.621.986,1.251,1.251,0,0,0,.564-.037c.417-.079.828-.17,1.226-.258,1.236-.273,1.788-.385,1.9-.166.061.122-.031.275-.321.528a8.615,8.615,0,0,0-1.892,2.756,3,3,0,0,0,.745-.642l2.059-2.1.122.12-2.059,2.1C845.8,2141.084,845.592,2141.2,845.478,2141.2Z" transform="translate(-36.679 -162.166)" fill="#c4c4c4" style="mix-blend-mode: multiply;isolation: isolate"/>
    <path id="Trazado_100034" data-name="Trazado 100034" d="M874.087,2076.794a14.066,14.066,0,0,1-3.443-.43,8.977,8.977,0,0,1-6.4-5.272l.159-.064c2.514,6.218,10.485,5.71,11.31,5.456l.051.164A7.376,7.376,0,0,1,874.087,2076.794Z" transform="translate(-45.474 -133.698)" fill="#c4c4c4" style="mix-blend-mode: multiply;isolation: isolate"/>
    <path id="Trazado_100035" data-name="Trazado 100035" d="M901.884,2109.417l-.172-.007.017-.415c.392-9.463.486-11.712-1.82-16.06l.152-.08c2.327,4.389,2.234,6.646,1.84,16.147Z" transform="translate(-60.852 -143.111)" fill="#c4c4c4" style="mix-blend-mode: multiply;isolation: isolate"/>
    <g id="Grupo_53614" data-name="Grupo 53614" transform="translate(807.878 2043.023)">
      <path id="Trazado_100036" data-name="Trazado 100036" d="M846.036,2260.385l-.006-.011c-.212-.426,1.709-1.859,1.79-1.92.252-.187.268-.249.268-.26a1.971,1.971,0,0,0-.582-.11,7.008,7.008,0,0,1-1.875-.422c-.155-.063-.625-.253-.53-.5.161-.425,2.253-.417,3.848.151l-.057.162c-1.649-.588-3.538-.5-3.63-.252-.007.02.044.126.434.283a6.882,6.882,0,0,0,1.83.411c.443.052.686.081.728.239.031.115-.062.238-.332.439-1.043.775-1.8,1.567-1.739,1.706,0,0,.061.057.437-.052a7.979,7.979,0,0,0,2.757-1.764l.121.121a7.975,7.975,0,0,1-2.83,1.807C846.422,2260.483,846.128,2260.543,846.036,2260.385Z" transform="translate(-845.09 -2256.861)" fill="#c4c4c4" style="mix-blend-mode: multiply;isolation: isolate"/>
    </g>
    <path id="Rectángulo_5070" data-name="Rectángulo 5070" d="M11.015,0H485.9a11.016,11.016,0,0,1,11.016,11.016v0a0,0,0,0,1,0,0H0a0,0,0,0,1,0,0v0A11.015,11.015,0,0,1,11.015,0Z" transform="translate(779.94 2100.472)" fill="#d4c99b"/>
    <g id="Grupo_53644" data-name="Grupo 53644" transform="translate(821.162 1760.998)">
      <path id="Trazado_100037" data-name="Trazado 100037" d="M1022.071,2086.609c-.887-12.86-26.606-56.316-26.606-56.316l-2.218-.444c-29.267,68.289-124.8,79.695-124.8,79.695l4.88,58.558c23.945.887,98.193-10.544,98.193-10.544s47.891-10.2,49.221-19.51S1022.957,2099.468,1022.071,2086.609Z" transform="translate(-868.446 -1876.938)" fill="#ff9696"/>
      <path id="Trazado_100038" data-name="Trazado 100038" d="M875.039,2170.674l1.13,13.56c23.945.887,98.193-10.544,98.193-10.544s30.725-6.544,43.637-13.935c.159-23.253.17-53.694.148-76.208-2.494-5.352-5.392-11.028-8.192-16.29C993.212,2094.8,950.035,2152.8,875.039,2170.674Z" transform="translate(-871.289 -1893.07)" fill="#dedede" style="mix-blend-mode: multiply;isolation: isolate"/>
      <path id="Trazado_100039" data-name="Trazado 100039" d="M1153.828,1807.647H1116.92a3.857,3.857,0,0,0-3.845,3.864,63.138,63.138,0,0,1-21.006,46.245c-25.276,23.059-41.239,38.136-30.6,80.262s8.426,49.664-9.312,79.818-23.059,78.931-16.851,102.433h165.844l-21.285-268.721c-16.262-7.115-19.841-28.983-20.624-38.909A5.424,5.424,0,0,0,1153.828,1807.647Z" transform="translate(-939.331 -1781.115)" fill="#8c757e"/>
      <ellipse id="Elipse_3971" data-name="Elipse 3971" cx="23.022" cy="5.986" rx="23.022" ry="5.986" transform="translate(173.727 22.985)" fill="#ba9ca8"/>
      <rect id="Rectángulo_5071" data-name="Rectángulo 5071" width="5.986" height="16.407" transform="translate(193.755 12.934)" fill="#a68592"/>
      <circle id="Elipse_3972" data-name="Elipse 3972" cx="8.351" cy="8.351" r="8.351" transform="translate(188.286)" fill="#ba9ca8"/>
      <path id="Trazado_100040" data-name="Trazado 100040" d="M1212.4,1761.744a8.344,8.344,0,0,1-8.413,13.932,8.348,8.348,0,1,0,8.413-13.932Z" transform="translate(-1013.147 -1761.32)" fill="#cfadbb"/>
      <g id="Grupo_53631" data-name="Grupo 53631" transform="translate(102.235 36.041)">
        <g id="Grupo_53618" data-name="Grupo 53618" transform="translate(34.072)">
          <g id="Grupo_53615" data-name="Grupo 53615" transform="translate(49.589)">
            <path id="Trazado_100041" data-name="Trazado 100041" d="M1197.015,1833.4a1.134,1.134,0,0,1-1.13-1.061c-.26-4.092-.58-6.675-.582-6.7a1.133,1.133,0,1,1,2.249-.281c.014.107.331,2.67.6,6.838a1.134,1.134,0,0,1-1.06,1.2Z" transform="translate(-1195.293 -1824.367)" fill="#cfadbb"/>
          </g>
          <g id="Grupo_53616" data-name="Grupo 53616" transform="translate(0 19.93)">
            <path id="Trazado_100042" data-name="Trazado 100042" d="M1110.5,2122.545a1.132,1.132,0,0,1-1.116-.948,100.567,100.567,0,0,1-1.279-13.246,1.133,1.133,0,0,1,2.265-.071,98.381,98.381,0,0,0,1.249,12.946,1.133,1.133,0,0,1-.933,1.3A1.155,1.155,0,0,1,1110.5,2122.545Zm-.9-26.251c-.031,0-.063,0-.094,0a1.133,1.133,0,0,1-1.036-1.222c.348-4.224.924-8.65,1.716-13.154a1.133,1.133,0,0,1,2.232.393c-.779,4.436-1.347,8.792-1.689,12.948A1.133,1.133,0,0,1,1109.6,2096.294Zm4.46-25.925a1.116,1.116,0,0,1-.275-.034,1.133,1.133,0,0,1-.825-1.374c.989-3.962,2.146-8.13,3.537-12.741a1.133,1.133,0,1,1,2.17.655c-1.38,4.576-2.528,8.709-3.508,12.635A1.134,1.134,0,0,1,1114.056,2070.369Zm7.486-25.248a1.122,1.122,0,0,1-.349-.055,1.133,1.133,0,0,1-.73-1.426q.784-2.431,1.514-4.714c.577-1.817,1.185-3.6,1.795-5.383q.411-1.206.822-2.419a1.133,1.133,0,0,1,2.148.723q-.41,1.219-.825,2.429c-.6,1.77-1.208,3.535-1.78,5.337q-.727,2.286-1.517,4.724A1.133,1.133,0,0,1,1121.542,2045.121Zm7.639-25.178a1.134,1.134,0,0,1-1.114-1.35,69.511,69.511,0,0,0,1.264-12.872,1.133,1.133,0,0,1,2.267.017,71.754,71.754,0,0,1-1.305,13.287A1.134,1.134,0,0,1,1129.181,2019.943Zm.417-26.206a1.133,1.133,0,0,1-1.122-.986c-.525-4.007-1.309-8.329-2.328-12.848a1.133,1.133,0,1,1,2.21-.5c1.036,4.585,1.831,8.977,2.365,13.052a1.132,1.132,0,0,1-.976,1.271A1.1,1.1,0,0,1,1129.6,1993.737Zm-5.668-25.687a1.133,1.133,0,0,1-1.087-.816l-.282-.958a70.881,70.881,0,0,1-2.535-12.083,1.133,1.133,0,1,1,2.252-.255,68.608,68.608,0,0,0,2.456,11.694l.284.966a1.135,1.135,0,0,1-1.088,1.451Zm-2.485-25.96a1.116,1.116,0,0,1-.2-.018,1.133,1.133,0,0,1-.919-1.313,39.352,39.352,0,0,1,4.568-12.668,1.133,1.133,0,0,1,1.975,1.113,37.115,37.115,0,0,0-4.31,11.95A1.134,1.134,0,0,1,1121.446,1942.091Zm12.3-22.829a1.133,1.133,0,0,1-.835-1.9c2.087-2.278,4.279-4.448,6.4-6.545.969-.959,1.93-1.911,2.873-2.865a1.133,1.133,0,0,1,1.611,1.594c-.948.959-1.916,1.917-2.889,2.881-2.1,2.079-4.271,4.229-6.322,6.466A1.129,1.129,0,0,1,1133.746,1919.262Zm17.717-19.42a1.134,1.134,0,0,1-.952-1.748,29.955,29.955,0,0,0,2.254-4.139,53.949,53.949,0,0,0,2.667-7.636,1.133,1.133,0,0,1,2.187.6,56.186,56.186,0,0,1-2.782,7.959,32.133,32.133,0,0,1-2.421,4.45A1.132,1.132,0,0,1,1151.463,1899.842Zm7.465-25.029a1.132,1.132,0,0,1-1.127-1.262c.465-4.063.737-8.447.807-13.028a1.133,1.133,0,1,1,2.266.035c-.071,4.656-.348,9.114-.822,13.251A1.132,1.132,0,0,1,1158.928,1874.813Z" transform="translate(-1108.105 -1859.407)" fill="#cfadbb"/>
          </g>
          <g id="Grupo_53617" data-name="Grupo 53617" transform="translate(4.379 293.674)">
            <path id="Trazado_100043" data-name="Trazado 100043" d="M1119.283,2349.36a1.134,1.134,0,0,1-1.048-.7c-.871-2.111-1.67-4.287-2.375-6.466a1.133,1.133,0,1,1,2.157-.7c.686,2.123,1.465,4.242,2.313,6.3a1.133,1.133,0,0,1-1.047,1.566Z" transform="translate(-1115.805 -2340.71)" fill="#cfadbb"/>
          </g>
        </g>
        <g id="Grupo_53622" data-name="Grupo 53622" transform="translate(59.42 28.38)">
          <g id="Grupo_53619" data-name="Grupo 53619" transform="translate(0 2.069)">
            <path id="Trazado_100044" data-name="Trazado 100044" d="M1159.581,1883.742a1.128,1.128,0,0,1-.5-.119,37.9,37.9,0,0,1-5.955-3.683,1.133,1.133,0,1,1,1.367-1.807,35.587,35.587,0,0,0,5.6,3.462,1.134,1.134,0,0,1-.506,2.148Z" transform="translate(-1152.672 -1877.902)" fill="#cfadbb"/>
          </g>
          <g id="Grupo_53620" data-name="Grupo 53620" transform="translate(16.284 7.12)">
            <path id="Trazado_100045" data-name="Trazado 100045" d="M1193.488,1892.213h0a57.678,57.678,0,0,1-11.274-1.106,1.133,1.133,0,1,1,.453-2.221,55.356,55.356,0,0,0,10.829,1.061,1.133,1.133,0,0,1,0,2.266Zm11.081-.828a1.133,1.133,0,0,1-.164-2.255,86.507,86.507,0,0,0,10.728-2.3,1.133,1.133,0,1,1,.614,2.181,88.811,88.811,0,0,1-11.01,2.364A1.121,1.121,0,0,1,1204.569,1891.385Z" transform="translate(-1181.302 -1886.784)" fill="#cfadbb"/>
          </g>
          <g id="Grupo_53621" data-name="Grupo 53621" transform="translate(59.766)">
            <path id="Trazado_100046" data-name="Trazado 100046" d="M1258.887,1879.924a1.133,1.133,0,0,1-.462-2.168,21.681,21.681,0,0,0,5.523-3.159,1.133,1.133,0,0,1,1.6,1.6,23.205,23.205,0,0,1-6.2,3.626A1.128,1.128,0,0,1,1258.887,1879.924Z" transform="translate(-1257.754 -1874.265)" fill="#cfadbb"/>
          </g>
        </g>
        <g id="Grupo_53626" data-name="Grupo 53626" transform="translate(19.215 104.059)">
          <g id="Grupo_53623" data-name="Grupo 53623">
            <path id="Trazado_100047" data-name="Trazado 100047" d="M1089.015,2012.974a1.129,1.129,0,0,1-.51-.122,63.415,63.415,0,0,1-6.007-3.445,1.133,1.133,0,0,1,1.237-1.9,61.079,61.079,0,0,0,5.791,3.32,1.133,1.133,0,0,1-.511,2.146Z" transform="translate(-1081.983 -2007.325)" fill="#cfadbb"/>
          </g>
          <g id="Grupo_53624" data-name="Grupo 53624" transform="translate(19.748 8.769)">
            <path id="Trazado_100048" data-name="Trazado 100048" d="M1162.085,2030.528h0c-5.17-.018-10.209-.2-14.978-.548a1.133,1.133,0,0,1,.164-2.261c4.717.342,9.7.525,14.822.543a1.133,1.133,0,0,1,0,2.266Zm14.9-.378a1.133,1.133,0,0,1-.059-2.265c4.849-.255,9.832-.642,14.81-1.149a1.133,1.133,0,1,1,.23,2.255c-5.015.511-10.036.9-14.921,1.158Zm-44.611-1.879a1.142,1.142,0,0,1-.184-.015,121.756,121.756,0,0,1-14.676-3.293,1.133,1.133,0,1,1,.64-2.174,119.751,119.751,0,0,0,14.4,3.231,1.133,1.133,0,0,1-.182,2.252Z" transform="translate(-1116.704 -2022.742)" fill="#cfadbb"/>
          </g>
          <g id="Grupo_53625" data-name="Grupo 53625" transform="translate(108.591 9.756)">
            <path id="Trazado_100049" data-name="Trazado 100049" d="M1274.042,2027.871a1.133,1.133,0,0,1-.169-2.254c4.171-.635,6.631-1.114,6.656-1.118a1.133,1.133,0,0,1,.434,2.224c-.024,0-2.525.491-6.748,1.135A1.182,1.182,0,0,1,1274.042,2027.871Z" transform="translate(-1272.91 -2024.477)" fill="#cfadbb"/>
          </g>
        </g>
        <g id="Grupo_53630" data-name="Grupo 53630" transform="translate(0 245.958)">
          <g id="Grupo_53627" data-name="Grupo 53627">
            <path id="Trazado_100050" data-name="Trazado 100050" d="M1055.831,2261.093a1.123,1.123,0,0,1-.312-.044c-2.259-.646-4.461-1.327-6.547-2.026a1.133,1.133,0,1,1,.72-2.149c2.054.688,4.224,1.359,6.45,2a1.133,1.133,0,0,1-.311,2.223Z" transform="translate(-1048.198 -2256.815)" fill="#cfadbb"/>
          </g>
          <g id="Grupo_53628" data-name="Grupo 53628" transform="translate(18.625 5.047)">
            <path id="Trazado_100051" data-name="Trazado 100051" d="M1190.841,2277.154c-2.825,0-5.855-.015-9.059-.05a1.133,1.133,0,1,1,.025-2.267c3.21.035,6.235.04,9.074.05q1.777,0,3.443-.007h0a1.133,1.133,0,0,1,0,2.266C1193.208,2277.151,1192.021,2277.153,1190.841,2277.154Zm-21.582-.284h-.03c-4.222-.111-8.444-.258-12.548-.434a1.133,1.133,0,1,1,.1-2.264c4.092.175,8.3.321,12.51.432a1.133,1.133,0,0,1-.03,2.266Zm-25.047-1.081-.071,0c-4.254-.26-8.469-.56-12.527-.892a1.133,1.133,0,0,1,.185-2.259c4.043.331,8.242.63,12.481.889a1.133,1.133,0,0,1-.068,2.264Zm-24.992-2.059a1,1,0,0,1-.121-.006c-4.282-.454-8.48-.958-12.477-1.5a1.133,1.133,0,1,1,.3-2.246c3.976.537,8.152,1.039,12.413,1.49a1.133,1.133,0,0,1-.118,2.26Zm-24.837-3.385a1.08,1.08,0,0,1-.193-.017c-4.309-.739-8.466-1.546-12.356-2.4a1.133,1.133,0,1,1,.485-2.214c3.856.846,7.979,1.646,12.254,2.38a1.133,1.133,0,0,1-.191,2.25Z" transform="translate(-1080.945 -2265.689)" fill="#cfadbb"/>
          </g>
          <g id="Grupo_53629" data-name="Grupo 53629" transform="translate(143.383 13.894)">
            <path id="Trazado_100052" data-name="Trazado 100052" d="M1301.43,2283.7a1.133,1.133,0,0,1-.023-2.266c4.321-.091,6.766-.188,6.772-.188a1.133,1.133,0,1,1,.09,2.265s-2.461.1-6.814.189Z" transform="translate(-1300.297 -2281.245)" fill="#cfadbb"/>
          </g>
        </g>
      </g>
      <path id="Trazado_100053" data-name="Trazado 100053" d="M1083.643,2064.389c6.652-34.145-27.05-62.081-23.945-92.234l-.267.633c-2.149,9.7-1.735,21.229,2.04,36.172,10.643,42.126,8.426,49.664-9.312,79.818s-23.059,78.931-16.851,102.433h99.481C1079.892,2169.674,1077.713,2094.829,1083.643,2064.389Z" transform="translate(-939.331 -1852.058)" fill="#dedede" style="mix-blend-mode: multiply;isolation: isolate"/>
      <g id="Grupo_53632" data-name="Grupo 53632" transform="translate(8.599 233.98)">
        <path id="Trazado_100054" data-name="Trazado 100054" d="M888.356,2226.077c.022-.267,2.11-27.03-4.791-53.4l1.1-.287c6.951,26.566,4.846,53.514,4.824,53.783Z" transform="translate(-883.565 -2172.386)" fill="#8c757e"/>
      </g>
      <g id="Grupo_53636" data-name="Grupo 53636" transform="translate(16.593 232.41)">
        <g id="Grupo_53633" data-name="Grupo 53633">
          <path id="Trazado_100055" data-name="Trazado 100055" d="M898.952,2174.056a.567.567,0,0,1-.5-.435q-.385-1.64-.814-3.286a.567.567,0,0,1,1.1-.286q.433,1.657.821,3.314a.566.566,0,0,1-.6.693Z" transform="translate(-897.619 -2169.625)" fill="#8c757e"/>
        </g>
        <g id="Grupo_53634" data-name="Grupo 53634" transform="translate(2.202 9.902)">
          <path id="Trazado_100056" data-name="Trazado 100056" d="M904.937,2221.722a.566.566,0,0,1-.513-.564c0-2.215-.033-4.478-.108-6.726a.567.567,0,0,1,1.133-.037c.075,2.261.111,4.537.108,6.765a.567.567,0,0,1-.568.566Zm-.446-13.483a.566.566,0,0,1-.512-.526c-.152-2.249-.344-4.5-.572-6.7a.567.567,0,0,1,1.127-.117c.229,2.211.423,4.479.576,6.742a.565.565,0,0,1-.619.6Zm-1.4-13.416a.567.567,0,0,1-.508-.484c-.32-2.244-.686-4.476-1.086-6.633a.567.567,0,1,1,1.114-.207c.4,2.172.772,4.42,1.094,6.68a.567.567,0,0,1-.481.641A.553.553,0,0,1,903.095,2194.823Z" transform="translate(-901.491 -2187.035)" fill="#8c757e"/>
        </g>
        <g id="Grupo_53635" data-name="Grupo 53635" transform="translate(4.807 50.202)">
          <path id="Trazado_100057" data-name="Trazado 100057" d="M906.586,2262.414a.568.568,0,0,1-.512-.611c0-.006.1-1.214.188-3.368a.566.566,0,1,1,1.132.047c-.09,2.19-.191,3.414-.191,3.414a.567.567,0,0,1-.611.518Z" transform="translate(-906.072 -2257.892)" fill="#8c757e"/>
        </g>
      </g>
      <path id="Trazado_100058" data-name="Trazado 100058" d="M1266.828,1870.02c4.139,27.788-1.773,59.716-8.869,118.249s4.287,149.751,11.548,158.9h77.656l-17.663-55.429h24.241s-11.825-159.636-34.293-182.695S1266.828,1870.02,1266.828,1870.02Z" transform="translate(-1035.455 -1808.013)" fill="#ff9696"/>
      <path id="Trazado_100059" data-name="Trazado 100059" d="M1347.982,2201.154c-5.412-.332-19.541,1.083-19.541,1.083l-21.838.483-.452-1.626s1.175-24.49.813-27.924-1.265-21.959-1.627-25.936-2.169-18.344-2.711-19.519a25.463,25.463,0,0,1-1.095-3.969c-2.881,20.506-7.67,81.324,8.6,112.772,4.877,9.429,8.193,15.785,10.674,20.066h44.843Z" transform="translate(-1053.937 -1917.431)" fill="#dedede" style="mix-blend-mode: multiply;isolation: isolate"/>
      <g id="Grupo_53637" data-name="Grupo 53637" transform="translate(250.909 107.641)">
        <path id="Trazado_100060" data-name="Trazado 100060" d="M1310.732,2014.614l-1.132-.044c.018-.464,2.12-46.625,31.016-64.316l.592.966C1312.832,1968.593,1310.75,2014.156,1310.732,2014.614Z" transform="translate(-1309.6 -1950.254)" fill="#8c757e"/>
      </g>
      <g id="Grupo_53638" data-name="Grupo 53638" transform="translate(247.596 206.078)">
        <path id="Trazado_100061" data-name="Trazado 100061" d="M1311.254,2203.168c-2.919,0-3.116-.252-3.224-.39l-.129-.441c3.208-43.746-4.054-78.426-4.128-78.771l1.109-.237c.074.346,7.324,34.961,4.179,78.684,2.25.267,14.132-.5,21.533-1.086l.089,1.13C1319.771,2202.918,1314.162,2203.168,1311.254,2203.168Z" transform="translate(-1303.774 -2123.329)" fill="#8c757e"/>
      </g>
      <g id="Grupo_53639" data-name="Grupo 53639" transform="translate(260.947 272.25)">
        <path id="Trazado_100062" data-name="Trazado 100062" d="M1380.906,2241.041c-.267-.02-27.047-1.885-53.362,5.234l-.3-1.094c26.507-7.172,53.472-5.291,53.741-5.271Z" transform="translate(-1327.248 -2239.674)" fill="#8c757e"/>
      </g>
      <g id="Grupo_53643" data-name="Grupo 53643" transform="translate(259.315 264.241)">
        <g id="Grupo_53640" data-name="Grupo 53640" transform="translate(0 4.65)">
          <path id="Trazado_100063" data-name="Trazado 100063" d="M1328.8,2234.382a.566.566,0,0,1-.43.5q-1.638.4-3.279.842a.567.567,0,0,1-.3-1.094q1.654-.447,3.307-.849a.566.566,0,0,1,.7.6Z" transform="translate(-1324.378 -2233.768)" fill="#8c757e"/>
        </g>
        <g id="Grupo_53641" data-name="Grupo 53641" transform="translate(9.883)">
          <path id="Trazado_100064" data-name="Trazado 100064" d="M1376.417,2226.207a.567.567,0,0,1-.561.518c-2.215.015-4.477.07-6.725.163a.567.567,0,0,1-.047-1.132c2.261-.094,4.536-.149,6.764-.164a.566.566,0,0,1,.571.563C1376.419,2226.172,1376.418,2226.19,1376.417,2226.207Zm-13.479.558a.567.567,0,0,1-.521.516c-2.248.17-4.5.382-6.7.628a.567.567,0,0,1-.126-1.127c2.208-.248,4.475-.46,6.736-.631a.566.566,0,0,1,.608.522A.536.536,0,0,1,1362.938,2226.765Zm-13.4,1.508a.567.567,0,0,1-.48.512c-2.242.339-4.47.723-6.624,1.142a.566.566,0,1,1-.216-1.112c2.169-.422,4.413-.809,6.67-1.15a.567.567,0,0,1,.645.475A.582.582,0,0,1,1349.534,2228.272Z" transform="translate(-1341.755 -2225.592)" fill="#8c757e"/>
        </g>
        <g id="Grupo_53642" data-name="Grupo 53642" transform="translate(50.159 0.082)">
          <path id="Trazado_100065" data-name="Trazado 100065" d="M1417.093,2226.511a.568.568,0,0,1-.606.518c-.007,0-1.215-.089-3.37-.16a.567.567,0,0,1,.037-1.133c2.19.072,3.416.162,3.416.162a.566.566,0,0,1,.523.607Z" transform="translate(-1412.568 -2225.737)" fill="#8c757e"/>
        </g>
      </g>
    </g>
    <path id="Trazado_100066" data-name="Trazado 100066" d="M866.356,2165.758c0-2.511,4.879-5.462,4.879-5.462s2.641-.582,3.85-.761,2.149.94,3.492,1.03a8.848,8.848,0,0,0,2.193-.09c.224.537.224,1.7-1.7,2.1s-2.6.716-2.418,1.611,2.686,5.819,2.507,6.4-4.3-5.461-4.118-4.387,3.178,5.6,2.372,5.64-2.1-1.791-1.746-.9-.09,1.3-.985.672-3.492-2.776-3.178-2.149,1.746,1.7,1.209,1.97S869,2171.04,866.356,2165.758Z" transform="translate(-46.382 -171.858)" fill="#ff8762"/>
    <g id="Grupo_53652" data-name="Grupo 53652" transform="translate(1074.94 1823.106)">
      <path id="Trazado_100067" data-name="Trazado 100067" d="M1419.464,2167.286a11.153,11.153,0,0,1,.892,4.5h-25.571c1.086-1.862,4.773-3.842,9.351-5.665s5.627-4.152,5.627-4.152Z" transform="translate(-1349.204 -1996.023)" fill="#2b1710"/>
      <path id="Trazado_100068" data-name="Trazado 100068" d="M1401.4,1982.409c0,2.62,2.619,49.242,4.191,51.861s5.762,43.479,5.762,43.479c6.636,2.794,11.35,6.111,12.049,5.413s-.757-42.431-4.365-51.336c.524-3.318,1.4-34.923,1.4-34.923s-12.676-33.177-13.025-32.653S1401.4,1982.409,1401.4,1982.409Z" transform="translate(-1352.058 -1910.754)" fill="#6aa5ab"/>
      <path id="Trazado_100069" data-name="Trazado 100069" d="M1408.741,2167.286a11.152,11.152,0,0,1,.892,4.5h-25.571c1.087-1.862,4.773-3.842,9.352-5.665s5.627-4.152,5.627-4.152Z" transform="translate(-1344.579 -1996.023)" fill="#2b1710"/>
      <path id="Trazado_100070" data-name="Trazado 100070" d="M1390.68,1986.645c0,2.62,2.619,49.242,4.19,51.861s5.763,43.479,5.763,43.479c6.635,2.794,11.35,6.111,12.048,5.413s-.756-42.432-4.365-51.337c.524-3.318,1.4-34.923,1.4-34.923s-3.318-27.589-3.667-27.065S1390.68,1986.645,1390.68,1986.645Z" transform="translate(-1347.434 -1914.99)" fill="#86bec4"/>
      <path id="Trazado_100071" data-name="Trazado 100071" d="M1388.255,1964.755c-.233,4.579-1.785,18.858.776,19.635a14.191,14.191,0,0,0,5.976.077s-1.707-17.384-1.863-17.772-1.32-3.259-1.32-3.259Z" transform="translate(-1346.095 -1910.406)" fill="#3b4b5e"/>
      <path id="Trazado_100072" data-name="Trazado 100072" d="M1375.612,1921.715l-17.316,16.627-20.721.369-1.475,10.554s21.187,1.8,22.661,1.339,9.468-4.967,9.468-4.967c-.465,7.605,4.734,38.726,8.382,45.866,4.113-3.492,1.4-1.863,8.381-5.122s9.857-9.468,9.934-10.632c-2.1-9.313-5.2-12.185-6.364-15.987s1.863-24.136.776-31.741-2.93-9.1-2.93-9.1l-2.425-2.62s-2.406-.077-2.639-.077-3.725,1.4-3.725,1.4l-1.32,2.173Z" transform="translate(-1323.896 -1890.046)" fill="#ffad54"/>
      <path id="Trazado_100073" data-name="Trazado 100073" d="M1405.058,1906.8c1.222,3.551.291,9.721.291,9.721,4.482-3.754,8.585-4.511,10.8-2.794-3.23-3.725-3.376-9.546-3.376-9.546l-7.6.961Z" transform="translate(-1353.634 -1884.853)" fill="#ff8762"/>
      <path id="Trazado_100074" data-name="Trazado 100074" d="M1400.057,1892.03a15.477,15.477,0,0,1-.466,4.656c.931-.543,11.1-6.985,12.106-10.865s2.1-12.417-6.752-15.055-18.936,4.423-13.116,10.865A78.476,78.476,0,0,1,1400.057,1892.03Z" transform="translate(-1347.187 -1870.198)" fill="#2b1710"/>
      <path id="Trazado_100075" data-name="Trazado 100075" d="M1393.911,1876.858c-3.454,1.669-3.531,5.743-3.027,7.1s-.388,4.618-2.25,5.627c.427.737,2.018.815,2.25,1.2s0,1.086,0,1.2c.078.466.97.97.97.97s-.078,1.008.543,1.2,1.086,1.629,1.164,2.6,1.513.427,2.755,0a11.726,11.726,0,0,0,3.1-1.863c.814-5.587,0-7.567-2.6-11.68S1393.911,1876.858,1393.911,1876.858Z" transform="translate(-1346.551 -1873.07)" fill="#ff8762"/>
      <path id="Trazado_100076" data-name="Trazado 100076" d="M1392.59,1903.314c.078.466.97.97.97.97s-.073.974.515,1.191c.284-.155,2.061-1.156,2.448-2.132A9.537,9.537,0,0,0,1392.59,1903.314Z" transform="translate(-1348.257 -1884.393)" fill="#eb6a63"/>
      <path id="Trazado_100077" data-name="Trazado 100077" d="M1396.859,1892.365c0,.595-.26,1.077-.582,1.077s-.582-.482-.582-1.077.26-1.077.582-1.077S1396.859,1891.77,1396.859,1892.365Z" transform="translate(-1349.596 -1879.293)" fill="#2b1710"/>
      <path id="Trazado_100078" data-name="Trazado 100078" d="M1397.232,1887.429a13.324,13.324,0,0,0-4.249-1.368C1394.409,1885.1,1395.573,1885.3,1397.232,1887.429Z" transform="translate(-1348.427 -1876.802)" fill="#2b1710"/>
      <g id="Grupo_53645" data-name="Grupo 53645" transform="translate(45.571 18.604)">
        <path id="Trazado_100079" data-name="Trazado 100079" d="M1394.775,1904.056l-.008-.148a5.3,5.3,0,0,0,3.04-1l.1.112A5.339,5.339,0,0,1,1394.775,1904.056Z" transform="translate(-1394.766 -1902.907)" fill="#2b1710"/>
      </g>
      <g id="Grupo_53646" data-name="Grupo 53646" transform="translate(45.54 50.52)">
        <rect id="Rectángulo_5072" data-name="Rectángulo 5072" width="9.998" height="0.149" transform="matrix(0.885, -0.466, 0.466, 0.885, 0, 4.655)" fill="#c4c4c4" style="mix-blend-mode: multiply;isolation: isolate"/>
      </g>
      <g id="Grupo_53647" data-name="Grupo 53647" transform="translate(52.044 30.926)">
        <path id="Trazado_100080" data-name="Trazado 100080" d="M1406.248,1927.174l-.1-.109c3.311-3.057,6.788-3.316,9.3-.7l-.107.1C1412.891,1923.917,1409.492,1924.179,1406.248,1927.174Z" transform="translate(-1406.147 -1924.573)" fill="#c4c4c4" style="mix-blend-mode: multiply;isolation: isolate"/>
      </g>
      <g id="Grupo_53648" data-name="Grupo 53648" transform="translate(49.678 74.273)">
        <path id="Trazado_100081" data-name="Trazado 100081" d="M1408.775,2012.528a7.4,7.4,0,0,1-1.124-.084c-3.025-.465-5.036-5.93-5.65-9.49l-.015-.084.085,0c.07,0,6.989-.253,9.387-2.08l.09.118c-2.318,1.766-8.544,2.074-9.387,2.107.623,3.519,2.587,8.835,5.511,9.284a10.49,10.49,0,0,0,5.889-1.155l.072.13A11.258,11.258,0,0,1,1408.775,2012.528Z" transform="translate(-1401.987 -2000.787)" fill="#c4c4c4" style="mix-blend-mode: multiply;isolation: isolate"/>
      </g>
      <g id="Grupo_53649" data-name="Grupo 53649" transform="translate(31.546 49.092)">
        <path id="Trazado_100082" data-name="Trazado 100082" d="M1372.971,1960.039h-.011c-.411-.027-.645-2.092-.655-2.179-.03-.27-.07-.309-.078-.315a1.709,1.709,0,0,0-.336.388,6.093,6.093,0,0,1-1.135,1.219c-.114.089-.462.358-.608.177-.247-.307.672-1.87,1.8-2.815l.1.114c-1.161.978-1.917,2.432-1.775,2.608.011.014.114.022.4-.2a5.961,5.961,0,0,0,1.107-1.191c.233-.308.36-.478.5-.44.1.027.151.151.183.44a4.621,4.621,0,0,0,.518,2.048s.069-.021.151-.35a6.913,6.913,0,0,0-.116-2.835l.144-.037a6.915,6.915,0,0,1,.117,2.908C1373.212,1959.792,1373.13,1960.039,1372.971,1960.039Z" transform="translate(-1370.108 -1956.513)" fill="#c4c4c4" style="mix-blend-mode: multiply;isolation: isolate"/>
      </g>
      <g id="Grupo_53650" data-name="Grupo 53650" transform="translate(56.778 120.175)">
        <path id="Trazado_100083" data-name="Trazado 100083" d="M1415.292,2084.547l-.005-.009c-.184-.369,1.482-1.612,1.552-1.665.218-.162.232-.216.233-.225a1.678,1.678,0,0,0-.5-.095,6.1,6.1,0,0,1-1.626-.366c-.134-.054-.541-.219-.459-.436.14-.368,1.953-.362,3.336.131l-.05.14c-1.43-.51-3.067-.429-3.147-.218-.006.017.039.108.376.245a5.97,5.97,0,0,0,1.587.356c.383.045.594.071.631.207.026.1-.054.207-.288.381-.9.672-1.564,1.359-1.508,1.479,0,0,.053.05.379-.045a6.9,6.9,0,0,0,2.39-1.529l.1.106a6.917,6.917,0,0,1-2.452,1.566C1415.626,2084.632,1415.372,2084.685,1415.292,2084.547Z" transform="translate(-1414.472 -2081.492)" fill="#c4c4c4" style="mix-blend-mode: multiply;isolation: isolate"/>
      </g>
      <path id="Trazado_100084" data-name="Trazado 100084" d="M1328.322,1952.249s-6.577-4.54-7.276-4.6a11.451,11.451,0,0,0-3.318.175c-.175.233-3.085,3.2-3.085,3.2.815.466,3.609-1.222,3.609-1.222s-3.084,3.609-3.084,3.783a1.7,1.7,0,0,0,.931.349c.175.99,2.328-.7,3.26-.291a7.249,7.249,0,0,1,3.492,1.979,6.832,6.832,0,0,0,4.714,2.037Z" transform="translate(-1314.643 -1903.585)" fill="#ff8762"/>
      <g id="Grupo_53651" data-name="Grupo 53651" transform="translate(1.777 46.939)">
        <path id="Trazado_100085" data-name="Trazado 100085" d="M1317.823,1955.641l-.056-.049c.257-.293,2.526-2.865,2.938-2.865a4.345,4.345,0,0,1,1.089.235l-.024.071a4.341,4.341,0,0,0-1.065-.231A16.545,16.545,0,0,0,1317.823,1955.641Z" transform="translate(-1317.767 -1952.727)" fill="#e0b3a8" style="mix-blend-mode: multiply;isolation: isolate"/>
      </g>
    </g>
    <g id="Grupo_53653" data-name="Grupo 53653" transform="translate(1083.574 1978.015)">
      <path id="Trazado_100086" data-name="Trazado 100086" d="M1331.822,2145.688a3.036,3.036,0,0,1,5.552-1.78c12.308,18.277,34.426,20.273,48.43,17.311,16.729-3.539,41.823-17.695,73.673-16.086s39.249,17.052,39.249,17.052v102.627h-168.9v-8.365a8.043,8.043,0,0,1,8.043-8.043h101.984a6.434,6.434,0,0,0,6.434-6.434v-35.711a6.434,6.434,0,0,0-6.434-6.434h-70.456c-10.666.736-21.713,9.355-28.354,16.605a4.847,4.847,0,0,1-8.406-3.165Z" transform="translate(-1329.824 -2142.562)" fill="#8c757e"/>
      <rect id="Rectángulo_5073" data-name="Rectángulo 5073" width="16.635" height="49.311" rx="8.317" transform="translate(170.089 22.66)" fill="#78646c"/>
      <path id="Trazado_100087" data-name="Trazado 100087" d="M1637.2,2227.764h0a8.317,8.317,0,0,1-8.317-8.318h0a8.317,8.317,0,0,1,8.317-8.317h0a8.317,8.317,0,0,1,8.317,8.317h0A8.317,8.317,0,0,1,1637.2,2227.764Z" transform="translate(-1458.789 -2172.131)" fill="#ab8f9a"/>
      <path id="Trazado_100088" data-name="Trazado 100088" d="M1534.361,2208.7h-42.577a12.278,12.278,0,0,1-12.278-12.278h0a12.278,12.278,0,0,1,12.278-12.278h42.577a12.278,12.278,0,0,1,12.278,12.278h0A12.278,12.278,0,0,1,1534.361,2208.7Z" transform="translate(-1394.373 -2160.495)" fill="#ab8f9a"/>
      <path id="Trazado_100089" data-name="Trazado 100089" d="M1343.35,2220.776h0a3.234,3.234,0,0,1-3.235-3.235v-48.848a3.235,3.235,0,0,1,3.235-3.235h0a3.235,3.235,0,0,1,3.234,3.235v48.848A3.235,3.235,0,0,1,1343.35,2220.776Z" transform="translate(-1334.262 -2152.436)" fill="#ab8f9a"/>
    </g>
    <g id="Grupo_53658" data-name="Grupo 53658" transform="translate(778.74 2064.411)">
      <g id="Grupo_53657" data-name="Grupo 53657" transform="translate(0)">
        <g id="Grupo_53654" data-name="Grupo 53654">
          <path id="Trazado_100090" data-name="Trazado 100090" d="M793.859,2300.651a6.186,6.186,0,1,1,6.186,6.185A6.193,6.193,0,0,1,793.859,2300.651Zm.651,0a5.535,5.535,0,1,0,5.535-5.534A5.541,5.541,0,0,0,794.51,2300.651Z" transform="translate(-793.859 -2294.465)" fill="#b5ac84"/>
        </g>
        <g id="Grupo_53655" data-name="Grupo 53655" transform="translate(7.889 5.332)">
          <path id="Trazado_100091" data-name="Trazado 100091" d="M807.73,2304.693a.854.854,0,1,1,.854.854A.855.855,0,0,1,807.73,2304.693Zm.434,0a.42.42,0,1,0,.42-.42A.42.42,0,0,0,808.164,2304.693Z" transform="translate(-807.73 -2303.839)" fill="#b5ac84"/>
        </g>
        <g id="Grupo_53656" data-name="Grupo 53656" transform="translate(2.897 5.332)">
          <path id="Trazado_100092" data-name="Trazado 100092" d="M798.953,2304.693a.854.854,0,1,1,.854.854A.855.855,0,0,1,798.953,2304.693Zm.434,0a.42.42,0,1,0,.42-.42A.42.42,0,0,0,799.387,2304.693Z" transform="translate(-798.953 -2303.839)" fill="#b5ac84"/>
        </g>
      </g>
    </g>
    <g id="Grupo_53663" data-name="Grupo 53663" transform="translate(1156.083 2049.117)">
      <g id="Grupo_53662" data-name="Grupo 53662" transform="translate(0)">
        <g id="Grupo_53659" data-name="Grupo 53659">
          <path id="Trazado_100093" data-name="Trazado 100093" d="M1457.311,2273.76a6.186,6.186,0,1,1,6.186,6.186A6.192,6.192,0,0,1,1457.311,2273.76Zm.651,0a5.534,5.534,0,1,0,5.535-5.535A5.541,5.541,0,0,0,1457.962,2273.76Z" transform="translate(-1457.311 -2267.575)" fill="#b5ac84"/>
        </g>
        <g id="Grupo_53660" data-name="Grupo 53660" transform="translate(7.889 5.332)">
          <path id="Trazado_100094" data-name="Trazado 100094" d="M1471.181,2277.8a.854.854,0,1,1,.854.854A.855.855,0,0,1,1471.181,2277.8Zm.434,0a.42.42,0,1,0,.42-.42A.421.421,0,0,0,1471.615,2277.8Z" transform="translate(-1471.181 -2276.949)" fill="#b5ac84"/>
        </g>
        <g id="Grupo_53661" data-name="Grupo 53661" transform="translate(2.897 5.332)">
          <path id="Trazado_100095" data-name="Trazado 100095" d="M1462.405,2277.8a.854.854,0,1,1,.854.854A.854.854,0,0,1,1462.405,2277.8Zm.434,0a.42.42,0,1,0,.42-.42A.421.421,0,0,0,1462.839,2277.8Z" transform="translate(-1462.405 -2276.949)" fill="#b5ac84"/>
        </g>
      </g>
    </g>
    <g id="Grupo_53668" data-name="Grupo 53668" transform="translate(1156.083 1818.363)">
      <g id="Grupo_53667" data-name="Grupo 53667" transform="translate(0 0)">
        <g id="Grupo_53664" data-name="Grupo 53664">
          <path id="Trazado_100096" data-name="Trazado 100096" d="M1457.311,1868.043a6.186,6.186,0,1,1,6.186,6.186A6.193,6.193,0,0,1,1457.311,1868.043Zm.651,0a5.534,5.534,0,1,0,5.535-5.534A5.541,5.541,0,0,0,1457.962,1868.043Z" transform="translate(-1457.311 -1861.858)" fill="#b5ac84"/>
        </g>
        <g id="Grupo_53665" data-name="Grupo 53665" transform="translate(7.889 5.332)">
          <path id="Trazado_100097" data-name="Trazado 100097" d="M1471.181,1872.086a.854.854,0,1,1,.854.854A.855.855,0,0,1,1471.181,1872.086Zm.434,0a.42.42,0,1,0,.42-.42A.42.42,0,0,0,1471.615,1872.086Z" transform="translate(-1471.181 -1871.232)" fill="#b5ac84"/>
        </g>
        <g id="Grupo_53666" data-name="Grupo 53666" transform="translate(2.897 5.332)">
          <path id="Trazado_100098" data-name="Trazado 100098" d="M1462.405,1872.086a.854.854,0,1,1,.854.854A.855.855,0,0,1,1462.405,1872.086Zm.434,0a.42.42,0,1,0,.42-.42A.42.42,0,0,0,1462.839,1872.086Z" transform="translate(-1462.405 -1871.232)" fill="#b5ac84"/>
        </g>
      </g>
    </g>
    <g id="Grupo_53677" data-name="Grupo 53677" transform="translate(1249.947 1955.566)">
      <g id="Grupo_53676" data-name="Grupo 53676" transform="translate(0 0)">
        <g id="Grupo_53669" data-name="Grupo 53669" transform="translate(0 2.897)">
          <path id="Trazado_100099" data-name="Trazado 100099" d="M1622.344,2108.185h12.96v20.169h-12.96Zm11.973.987h-10.986v18.2h10.986Z" transform="translate(-1622.344 -2108.185)" fill="#b5ac84"/>
        </g>
        <g id="Grupo_53670" data-name="Grupo 53670" transform="translate(3.605)">
          <path id="Trazado_100100" data-name="Trazado 100100" d="M1628.682,2103.092h5.751v3.819h-5.751Zm4.763.987h-3.776v1.846h3.776Z" transform="translate(-1628.682 -2103.092)" fill="#b5ac84"/>
        </g>
        <g id="Grupo_53671" data-name="Grupo 53671" transform="translate(3.605 22.108)">
          <path id="Trazado_100101" data-name="Trazado 100101" d="M1628.682,2141.962h5.751v3.819h-5.751Zm4.763.987h-3.776v1.846h3.776Z" transform="translate(-1628.682 -2141.962)" fill="#b5ac84"/>
        </g>
        <g id="Grupo_53672" data-name="Grupo 53672" transform="translate(1.481 4.485)">
          <path id="Trazado_100102" data-name="Trazado 100102" d="M1625.441,2117.91a.512.512,0,0,0,.129-.017c1.789-.483,7.367-2.838,9.512-6.154a.494.494,0,0,0-.829-.536c-1.964,3.036-7.316,5.3-8.94,5.737a.494.494,0,0,0,.128.97Z" transform="translate(-1624.947 -2110.977)" fill="#b5ac84"/>
        </g>
        <g id="Grupo_53673" data-name="Grupo 53673" transform="translate(1.481 7.638)">
          <path id="Trazado_100103" data-name="Trazado 100103" d="M1625.441,2123.454a.491.491,0,0,0,.129-.017c1.789-.482,7.367-2.837,9.512-6.154a.494.494,0,1,0-.829-.536c-1.964,3.037-7.316,5.3-8.94,5.737a.493.493,0,0,0,.128.97Z" transform="translate(-1624.947 -2116.521)" fill="#b5ac84"/>
        </g>
        <g id="Grupo_53674" data-name="Grupo 53674" transform="translate(1.481 10.792)">
          <path id="Trazado_100104" data-name="Trazado 100104" d="M1625.441,2129a.512.512,0,0,0,.129-.017c1.789-.483,7.367-2.838,9.512-6.155a.494.494,0,0,0-.829-.536c-1.964,3.037-7.316,5.3-8.94,5.737a.494.494,0,0,0,.128.97Z" transform="translate(-1624.947 -2122.066)" fill="#b5ac84"/>
        </g>
        <g id="Grupo_53675" data-name="Grupo 53675" transform="translate(1.481 13.945)">
          <path id="Trazado_100105" data-name="Trazado 100105" d="M1625.441,2134.542a.5.5,0,0,0,.129-.017c1.789-.482,7.367-2.837,9.512-6.154a.494.494,0,0,0-.829-.536c-1.964,3.037-7.316,5.3-8.94,5.737a.493.493,0,0,0,.128.97Z" transform="translate(-1624.947 -2127.61)" fill="#b5ac84"/>
        </g>
      </g>
    </g>
    <path id="Trazado_100106" data-name="Trazado 100106" d="M758.8,2138.5a2.928,2.928,0,0,0,1.579,2.025c.993.563,3.2,1.26,6.83-.4,2.714-1.241,5.146-1.39,6.672-.409a2.978,2.978,0,0,1,1.012,1.083,1.611,1.611,0,0,0-.809,1.394c0,.895.726,21.493,1.62,21.493s1.62-20.6,1.62-21.493a1.62,1.62,0,0,0-1.62-1.62c-.026,0-.049.006-.075.007a3.717,3.717,0,0,0-1.342-1.5c-1.746-1.122-4.441-.991-7.392.358-3.325,1.52-5.278.921-6.147.429a2.224,2.224,0,0,1-1.2-1.454.376.376,0,1,0-.748.083Zm16.429,3.266a3.75,3.75,0,0,1,.064.668.377.377,0,0,0,.753,0,4.571,4.571,0,0,0-.07-.764.881.881,0,1,1-.747.1Z" transform="translate(0 -162.615)" fill="#b5ac84"/>
    <g id="Grupo_53682" data-name="Grupo 53682" transform="translate(939.758 1808.084)">
      <g id="Grupo_53681" data-name="Grupo 53681" transform="translate(0 0)">
        <g id="Grupo_53678" data-name="Grupo 53678" transform="translate(0.005)">
          <path id="Trazado_100107" data-name="Trazado 100107" d="M1091.315,1847.659c8.1-3.62,17.345-5.426,18.8-2.181s-6.061,8.929-14.161,12.549-17.345,5.426-18.8,2.181S1083.215,1851.28,1091.315,1847.659Zm.307.687c-9.447,4.222-14.752,9.383-13.781,11.555s8.355,1.661,17.8-2.561,14.752-9.383,13.781-11.555S1101.068,1844.125,1091.622,1848.346Z" transform="translate(-1076.972 -1843.786)" fill="#b5ac84"/>
        </g>
        <g id="Grupo_53679" data-name="Grupo 53679" transform="translate(0 10.336)">
          <path id="Trazado_100108" data-name="Trazado 100108" d="M1080.889,1862.736c2.857-1.277,5.69-.945,6.45.756s-.882,4.033-3.739,5.31-5.69.945-6.45-.756S1078.032,1864.013,1080.889,1862.736Zm.307.687c-2.389,1.068-3.927,3.044-3.359,4.316s3.066,1.444,5.455.375,3.927-3.043,3.359-4.315S1083.585,1862.355,1081.2,1863.423Z" transform="translate(-1076.964 -1861.96)" fill="#b5ac84"/>
        </g>
        <g id="Grupo_53680" data-name="Grupo 53680" transform="translate(22.252 0.372)">
          <path id="Trazado_100109" data-name="Trazado 100109" d="M1120.9,1848.478a2.256,2.256,0,0,0-2.926-1.163,10.655,10.655,0,0,0-1.884-1.829c5.494-1.483,9.715-1.433,10.547.427s-1.924,5.012-6.655,8.1a10.273,10.273,0,0,0-.134-2.6A2.257,2.257,0,0,0,1120.9,1848.478Z" transform="translate(-1116.088 -1844.44)" fill="#b5ac84"/>
        </g>
      </g>
    </g>
    <g id="Grupo_53684" data-name="Grupo 53684" transform="translate(1269.157 2064.864)">
      <g id="Grupo_53683" data-name="Grupo 53683" transform="translate(0 0)">
        <path id="Trazado_100110" data-name="Trazado 100110" d="M1662.19,2306.808l-6.07-4.41h7.5l2.319-7.136,2.319,7.136h7.5l-6.07,4.41,2.319,7.136-6.07-4.41-6.07,4.41Zm8.368,5.133-1.763-5.425,4.615-3.354h-5.7l-1.763-5.425-1.763,5.425h-5.7l4.615,3.354-1.763,5.425,4.615-3.353Z" transform="translate(-1656.12 -2295.262)" fill="#b5ac84"/>
      </g>
    </g>
    <g id="Grupo_53686" data-name="Grupo 53686" transform="translate(806.922 1881.499)">
      <g id="Grupo_53685" data-name="Grupo 53685" transform="translate(0 0)">
        <path id="Trazado_100111" data-name="Trazado 100111" d="M849.478,1984.412l-6.07-4.41h7.5l2.319-7.136,2.319,7.136h7.5l-6.07,4.41,2.319,7.136-6.07-4.411-6.07,4.411Zm8.367,5.133-1.763-5.425,4.615-3.353h-5.7l-1.763-5.425-1.763,5.425h-5.7l4.615,3.353-1.763,5.425,4.615-3.353Z" transform="translate(-843.408 -1972.866)" fill="#b5ac84"/>
      </g>
    </g>
    <g id="Grupo_53688" data-name="Grupo 53688" transform="translate(1089.551 1788.337)">
      <g id="Grupo_53687" data-name="Grupo 53687" transform="translate(0)">
        <path id="Trazado_100112" data-name="Trazado 100112" d="M1346.4,1820.612l-6.07-4.411h7.5l2.319-7.135,2.319,7.135h7.5l-6.07,4.411,2.318,7.136-6.07-4.41-6.07,4.41Zm8.367,5.133-1.763-5.425,4.616-3.354h-5.7l-1.763-5.425-1.763,5.425h-5.7l4.615,3.354-1.763,5.425,4.615-3.353Z" transform="translate(-1340.333 -1809.066)" fill="#b5ac84"/>
      </g>
    </g>
  </g>
</svg>
