<svg xmlns="http://www.w3.org/2000/svg" xmlns:xlink="http://www.w3.org/1999/xlink" width="288.185" height="280.042" viewBox="0 0 288.185 280.042">
  <defs>
    <linearGradient id="linear-gradient" y1="0.5" x2="1" y2="0.5" gradientUnits="objectBoundingBox">
      <stop offset="0" stop-color="#f08e73"/>
      <stop offset="1" stop-color="#f9b99d"/>
    </linearGradient>
    <linearGradient id="linear-gradient-3" y1="0.5" x2="1" y2="0.5" gradientUnits="objectBoundingBox">
      <stop offset="0" stop-color="#5f3759"/>
      <stop offset="1" stop-color="#3c3257"/>
    </linearGradient>
    <linearGradient id="linear-gradient-5" y1="0.5" x2="1" y2="0.5" gradientUnits="objectBoundingBox">
      <stop offset="0" stop-color="#fac383"/>
      <stop offset="1" stop-color="#f19b6c"/>
    </linearGradient>
  </defs>
  <g id="Grupo_55167" data-name="Grupo 55167" transform="translate(1824.83 -525.787)">
    <g id="Grupo_55150" data-name="Grupo 55150" transform="translate(-1824.83 532.656)">
      <path id="Trazado_104322" data-name="Trazado 104322" d="M-1746.434,743.695c-1.863-1.988-4.289-4.642-6.3-7.189-2.111-2.569-4.064-5.276-5.951-8.015-1.933-2.691-3.541-5.63-5.312-8.382l-4.552-8.7a103.663,103.663,0,0,1-9.995-36.22c-.9-12.145-.261-24.054,3.294-35.512,1.063-5.731,3.968-11.307,5.923-16.809a21.635,21.635,0,0,1,1.925-4.079l2.179-4.022,4.231-7.964,1.016-1.912a30.151,30.151,0,0,0-12.482-40.772,30.151,30.151,0,0,0-40.773,12.482,31.685,31.685,0,0,0-2.493,6.328l-3.328,12.4-1.6,6.159a40.088,40.088,0,0,0-1.3,6.272c-1.124,8.63-2.908,16.9-2.7,25.7-.977,17.2,2.032,34.7,7.262,50.727a139.013,139.013,0,0,0,23.628,43.4c2.583,3.105,5.229,6.13,7.866,9.117,2.855,2.814,5.524,5.74,8.506,8.369,2.93,2.669,5.913,5.257,9.059,7.674a122.408,122.408,0,0,0,10.04,7.1,10,10,0,0,0,13.812-3.034,10,10,0,0,0-1.118-12.221Z" transform="translate(1824.83 -560.59)" fill="#8f8b66"/>
      <g id="Grupo_55149" data-name="Grupo 55149" transform="translate(1.384 7.326)">
        <path id="Trazado_104323" data-name="Trazado 104323" d="M-1663.867,781.786a.225.225,0,0,1-.129-.039c-.231-.156-23.31-15.969-38.113-46.415a124.121,124.121,0,0,1-12.433-57.54c.554-25.365,8.376-52.267,23.249-79.969a.229.229,0,0,1,.312-.093.231.231,0,0,1,.093.312c-33.59,62.563-24.422,109.068-10.816,137.068,14.746,30.344,37.735,46.1,37.966,46.253a.231.231,0,0,1,.061.321A.229.229,0,0,1-1663.867,781.786Z" transform="translate(1734.953 -597.702)" fill="#fff"/>
        <path id="Trazado_104324" data-name="Trazado 104324" d="M-1710.816,817.991a.227.227,0,0,1-.063-.009.232.232,0,0,1-.159-.285c6.1-21.549,38.183-32.02,38.505-32.122a.223.223,0,0,1,.289.15.228.228,0,0,1-.148.288c-.321.1-32.173,10.5-38.2,31.81A.23.23,0,0,1-1710.816,817.991Z" transform="translate(1732.122 -748.481)" fill="#fff"/>
        <path id="Trazado_104325" data-name="Trazado 104325" d="M-1714.831,648.581a.23.23,0,0,1-.205-.129c-.094-.186-9.437-19.078-7.665-38.805a.219.219,0,0,1,.25-.209.231.231,0,0,1,.209.25c-1.76,19.592,7.524,38.371,7.617,38.56a.23.23,0,0,1-.1.309A.253.253,0,0,1-1714.831,648.581Z" transform="translate(1741.656 -607.122)" fill="#fff"/>
        <path id="Trazado_104326" data-name="Trazado 104326" d="M-1794.837,1032.552a.239.239,0,0,1-.1-.024c-.173-.084-17.41-8.586-22.872-27.034a.231.231,0,0,1,.154-.288.232.232,0,0,1,.286.156c5.4,18.251,22.46,26.669,22.632,26.753a.228.228,0,0,1,.106.306A.227.227,0,0,1-1794.837,1032.552Z" transform="translate(1817.819 -924.763)" fill="#fff"/>
        <path id="Trazado_104327" data-name="Trazado 104327" d="M-1672.277,1161.454a.234.234,0,0,1-.219-.159.231.231,0,0,1,.146-.291c.132-.045,13.27-4.6,12.982-20.469a.232.232,0,0,1,.227-.234h0a.232.232,0,0,1,.231.228c.292,16.209-13.163,20.868-13.3,20.913A.2.2,0,0,1-1672.277,1161.454Z" transform="translate(1701.19 -1033.198)" fill="#fff"/>
      </g>
    </g>
    <g id="Grupo_55151" data-name="Grupo 55151" transform="translate(-1633.03 541.019)">
      <path id="Trazado_104328" data-name="Trazado 104328" d="M-850.962,750.605c-5.04-20.308,2.346-105.5,5.68-140.476a5.812,5.812,0,0,1,10.482-2.876c21.012,28.76,71.942,99.868,77,120.231a47.992,47.992,0,0,1-35.019,58.14A47.993,47.993,0,0,1-850.962,750.605Z" transform="translate(852.764 -604.483)" fill="#8f8b66"/>
      <path id="Trazado_104329" data-name="Trazado 104329" d="M-743.161,784.727a.382.382,0,0,1-.372-.291l-44.921-181a.381.381,0,0,1,.279-.464.367.367,0,0,1,.464.279l44.921,181a.381.381,0,0,1-.279.465A.33.33,0,0,1-743.161,784.727Z" transform="translate(801.232 -602.957)" fill="#fff"/>
      <path id="Trazado_104330" data-name="Trazado 104330" d="M-615.1,1093.666a.362.362,0,0,1-.189-.051.382.382,0,0,1-.145-.522l28.8-50.915a.376.376,0,0,1,.523-.144.382.382,0,0,1,.145.521l-28.8,50.915A.381.381,0,0,1-615.1,1093.666Z" transform="translate(662.398 -955.323)" fill="#fff"/>
      <path id="Trazado_104331" data-name="Trazado 104331" d="M-628.029,1043.531a.385.385,0,0,1-.171-.039.385.385,0,0,1-.172-.516l25.09-50.447a.387.387,0,0,1,.514-.174.385.385,0,0,1,.172.516l-25.09,50.447A.383.383,0,0,1-628.029,1043.531Z" transform="translate(672.772 -915.462)" fill="#fff"/>
      <path id="Trazado_104332" data-name="Trazado 104332" d="M-807.968,1061.482a.371.371,0,0,1-.226-.075l-40.133-29.43a.383.383,0,0,1-.083-.536.382.382,0,0,1,.535-.081l40.133,29.43a.383.383,0,0,1,.083.537A.381.381,0,0,1-807.968,1061.482Z" transform="translate(849.404 -946.738)" fill="#fff"/>
      <path id="Trazado_104333" data-name="Trazado 104333" d="M-708.014,824.689a.4.4,0,0,1-.2-.054.387.387,0,0,1-.132-.528l15-25.008a.381.381,0,0,1,.528-.132.387.387,0,0,1,.132.527l-15,25.008A.384.384,0,0,1-708.014,824.689Z" transform="translate(736.969 -760.233)" fill="#fff"/>
      <path id="Trazado_104334" data-name="Trazado 104334" d="M-810.234,761.37a.362.362,0,0,1-.189-.051l-17.54-9.953a.384.384,0,0,1-.146-.522.371.371,0,0,1,.523-.144l17.54,9.953a.384.384,0,0,1,.145.522A.382.382,0,0,1-810.234,761.37Z" transform="translate(833.089 -721.494)" fill="#fff"/>
      <path id="Trazado_104335" data-name="Trazado 104335" d="M-811.47,793.823a.394.394,0,0,1-.141-.027l-19.243-7.618a.382.382,0,0,1-.216-.5.387.387,0,0,1,.5-.216l19.243,7.617a.383.383,0,0,1,.216.5A.386.386,0,0,1-811.47,793.823Z" transform="translate(835.449 -749.419)" fill="#fff"/>
      <path id="Trazado_104336" data-name="Trazado 104336" d="M-799.033,1313.372a.4.4,0,0,1-.192-.051l-53.726-31.1a.385.385,0,0,1-.141-.525.386.386,0,0,1,.524-.141l53.726,31.1a.385.385,0,0,1,.141.525A.386.386,0,0,1-799.033,1313.372Z" transform="translate(853.142 -1147.566)" fill="#fff"/>
    </g>
    <path id="Trazado_104337" data-name="Trazado 104337" d="M-1529.96,888.172h-237.661a16.556,16.556,0,0,1-13.8-25.708l118.831-179.135a16.556,16.556,0,0,1,27.593,0l118.831,179.135A16.556,16.556,0,0,1-1529.96,888.172Z" transform="translate(-32.606 -120.503)" fill="#f7f1d7"/>
    <g id="Grupo_55152" data-name="Grupo 55152" transform="translate(-1725.886 543.667)">
      <path id="Trazado_104338" data-name="Trazado 104338" d="M-1323.564,616.373h0Z" transform="translate(1323.564 -616.373)" fill="#fff"/>
    </g>
    <g id="Grupo_55166" data-name="Grupo 55166" transform="translate(-1757.089 525.787)">
      <g id="Grupo_55165" data-name="Grupo 55165" transform="translate(0 0)">
        <g id="Grupo_55162" data-name="Grupo 55162">
          <path id="Trazado_104339" data-name="Trazado 104339" d="M-1452.58,1304.979l-.636,5.376.636,4.241h3.6s2.333-3.6,2.333-3.817.424-4.17.424-4.453a20.05,20.05,0,0,0-1.555-2.544Z" transform="translate(1458.828 -1150.214)" fill="#feb396"/>
          <path id="Trazado_104340" data-name="Trazado 104340" d="M-1471.54,1072.319l-.833,4.37,3.55,43.559,7.061-.488,2.961-47.441Z" transform="translate(1474.203 -964.44)" fill="#271f37"/>
          <path id="Trazado_104341" data-name="Trazado 104341" d="M-1471.727,808.369l.706,52.1h12.739l3.077-50.693Z" transform="translate(1473.685 -752.59)" fill="#271f37"/>
          <path id="Trazado_104342" data-name="Trazado 104342" d="M-1137.341,1873.7l-5.758.338-.927.055-.085-.288-1.834-6.145-.14-.47,6.568-1.555.522,1.934.572,2.122Z" transform="translate(1212.321 -1601.165)" fill="#f28a81"/>
          <path id="Trazado_104343" data-name="Trazado 104343" d="M-1425,1193.7q-.09,2.872-.255,5.765c-.832,15-2.862,30.552-2.122,46.419h-10.742l-8.7-69.343-1.054-2.857a5.845,5.845,0,0,1-.228-3.246l.415-1.932c0-.017,0-.037,0-.055-1.192-22.837-.667-33.156-.562-51.6.01-1.694.018-3.456.018-5.3s.038-3.511.1-5.036c.065-1.667.157-3.149.267-4.456.075-.9.16-1.722.245-2.459a29.947,29.947,0,0,1,.907-5.041c.147-.437,1.072-.545,2.167-.51h0a30.464,30.464,0,0,1,4.051.51l7.465-1.095.13.365,6.073,17.151s.88,8.285,1.447,20.455q.064,1.361.12,2.787c.2,4.946.34,10.431.347,16.192.005,4.391-.068,8.942-.245,13.541q-.064,1.675-.15,3.356v0c-.115,2.294-.26,4.6-.435,6.887l0,.02A122.424,122.424,0,0,1-1425,1193.7Z" transform="translate(1455.006 -981.41)" fill="#51242c"/>
          <path id="Trazado_104344" data-name="Trazado 104344" d="M-1332.25,1238.118l-1.934-.027-6.968-.105-1.229-.017s-18.391-50.95-29.275-94.314c-.815-2.324-1.567-4.551-2.269-6.7-1.63-4.981-2.991-9.529-4.214-13.853v0q-.4-1.409-.777-2.784c-2.224-8.074-4.044-15.494-6.355-23.7h-1.842l-2.25-11.259-.382-1.919,8.749-1.609,9.009-1.657,3.054-.562s7.867,7.845,9.126,10.784a91.821,91.821,0,0,1,3.431,9.379c4.1,13.345,4.889,26.156,8.3,43.332C-1343.669,1165.328-1340.285,1185.966-1332.25,1238.118Z" transform="translate(1407.885 -970.292)" fill="#5d343a"/>
          <path id="Trazado_104345" data-name="Trazado 104345" d="M-1374.18,709.52l2.405-.44s.15,1.2.14,1.4a3.668,3.668,0,0,1-.187.936c-.126.36-.117.559-.536.643a2.119,2.119,0,0,1-.875-.046,1.109,1.109,0,0,1-.166-.507A16.551,16.551,0,0,0-1374.18,709.52Z" transform="translate(1395.393 -672.9)" fill="#b9c5ef"/>
          <path id="Trazado_104346" data-name="Trazado 104346" d="M-1452.643,741.424c.692-2.772-.189-6.949,1.141-7.786,4.766-3,6.315-6.207,9.085-7.824,1.16-.675,2.16-1.247,3.012-1.724.356-.2.686-.384.992-.552.714-.392,1.292-.7,1.748-.942.3-.159.551-.287.748-.388s.326-.162.425-.211a37.348,37.348,0,0,0-.4,4.814,15.819,15.819,0,0,1,1.8-4.839l11.25.6,1.24.979,15.693,12.74-8.906,34.856,3.32,20.421.909,5.593-40.191-2.128-.831-25.714Z" transform="translate(1458.368 -683.247)" fill="#ebfffe"/>
          <path id="Trazado_104347" data-name="Trazado 104347" d="M-1354.7,671.59l-11.25-.6a15.851,15.851,0,0,0-1.8,4.84,37.346,37.346,0,0,1,.395-4.814l.351-3.215c5.061-.015,9.349-5.516,10.36-7.16a2.072,2.072,0,0,0,.31-.989l.064-1.2.315.089.726,7.521v0l.341,3.524.021.226Z" transform="translate(1390.235 -632.27)" fill="url(#linear-gradient)"/>
          <path id="Trazado_104348" data-name="Trazado 104348" d="M-1381.655,538.041c-.4,2.957-3.485,7.446-3.485,7.446l-.7,1.342a14.612,14.612,0,0,1-3.176,1.759,14.951,14.951,0,0,1-1.274-2.218s-2.954-1.823-.331-5.511l-6.39-.8c-.43-.05-.891-.475-.7-.836.671-1.288-.219-1.473-.606-1.369-5.828,1.591-7.591-1.13-7.738-1.381a.071.071,0,0,1-.009-.015,0,0,0,0,1,0,0l0,0a50.9,50.9,0,0,0-1.193,6.786,19.127,19.127,0,0,1-1.364-7.14c.274-5.173,4.627-4.818,4.627-4.818s.806-4.027,4.061-5c9.464-2.825,12.614,7.307,12.614,7.307S-1381.006,533.3-1381.655,538.041Z" transform="translate(1423.052 -525.787)" fill="#773634"/>
          <path id="Trazado_104349" data-name="Trazado 104349" d="M-1383.841,593.366c-.029.089-.057.178-.089.267a2.408,2.408,0,0,1-1.157.154l-.146,2.755a2.051,2.051,0,0,1-.307.991,20.136,20.136,0,0,1-4.081,4.542,10.359,10.359,0,0,1-6.281,2.617q-.188,0-.388-.012c-3.3-.174-7.03-4.1-7.426-11.721a30.585,30.585,0,0,1,.376-6.35c.178-1.667.429-3.163.651-4.32.032-.182.069-.356.1-.518.247-1.217.441-1.95.441-1.95l0,0c0,.008,0,.012.008.016.15.25,1.913,2.973,7.737,1.383.388-.105,1.278.077.607,1.367-.186.359.275.784.7.833l6.391.8c-2.621,3.684.332,5.508.332,5.508s.1.227.279.566a14.737,14.737,0,0,0,.995,1.651A7.29,7.29,0,0,0-1383.841,593.366Z" transform="translate(1419.127 -569.155)" fill="url(#linear-gradient)"/>
          <path id="Trazado_104350" data-name="Trazado 104350" d="M-1313.843,623.476a4.916,4.916,0,0,1-2.58,2.71,2.256,2.256,0,0,1-.348.1,2.07,2.07,0,0,1-.49.069,2.748,2.748,0,0,1-.319-.016.307.307,0,0,1-.057-.012,1.965,1.965,0,0,1-.473-.134,2.181,2.181,0,0,1-1.067-1.055,3.632,3.632,0,0,1-.352-1.388,5.28,5.28,0,0,1,.061-1.116c.02-.117.044-.239.073-.36a5.768,5.768,0,0,1,.259-.845c.008-.024.02-.044.028-.068.02-.044.037-.089.057-.134.085-.194.178-.384.279-.566.048-.089.1-.178.158-.263a4.7,4.7,0,0,1,.275-.4,5.093,5.093,0,0,1,.449-.522,2.886,2.886,0,0,1,3.1-.962,2.231,2.231,0,0,1,1.164,1.27A4.965,4.965,0,0,1-1313.843,623.476Z" transform="translate(1351.535 -600.077)" fill="#feb396"/>
          <path id="Trazado_104351" data-name="Trazado 104351" d="M-1310.164,623.814a1.663,1.663,0,0,0-1.181-.616,3.585,3.585,0,0,0-2.067.7,5.73,5.73,0,0,1,2.158-1.82.125.125,0,0,0,.063-.165.125.125,0,0,0-.165-.063,5.288,5.288,0,0,0-2.685,2.769,3.762,3.762,0,0,0,.472,3.117.124.124,0,0,0,.1.062.127.127,0,0,0,.069-.017.125.125,0,0,0,.046-.171,3.523,3.523,0,0,1-.451-2.913c.031-.1.068-.188.107-.278a3.975,3.975,0,0,1,2.3-.975l.037,0a1.423,1.423,0,0,1,1.008.529.125.125,0,0,0,.176.015A.125.125,0,0,0-1310.164,623.814Z" transform="translate(1347.25 -602.88)" fill="#f28a81"/>
          <path id="Trazado_104352" data-name="Trazado 104352" d="M-1353.466,711.52l-.04.764-5.821,1.711-3.3.308-1.6.15-2.5.233-1.033.1a12.577,12.577,0,0,1,1.123-3.4c.019-.045.038-.09.06-.134q.265-.6.619-1.3.281-.556.618-1.179c4.033-.062,8.239.059,10.408-.555.9-.255,1.532-.607,1.675-1.079a.6.6,0,0,0,.027-.144Z" transform="translate(1390.237 -671.22)" fill="#b9c5ef"/>
          <path id="Trazado_104353" data-name="Trazado 104353" d="M-1358.2,757.193c.043,3.7.218,7.413.484,11.057.058.828.121,1.65.189,2.463.136,1.694.3,3.368.474,5.018,0,.014,0,.024.01.039.024.237.048.489.077.726v.01c0,.048.01.1.014.155.745,6.8,1.524,13.007,2.216,18.146.053.382.1.76.155,1.132.068.479.126.943.193,1.4,0,.015,0,.024,0,.039.01.087.024.174.034.262.1.7.2,1.413.3,2.134.586,4.152,1.229,8.483,1.636,11.207.257,1.718.426,2.8.426,2.8.233-.029.465-.053.692-.082.4-.044.779-.082,1.152-.116l.189-.015c9.605-.866,12.262,1.389,18.925,1.466.614.01,1.273,0,1.969-.039-.75-3.775-1.442-6.905-2.076-9.606-1.979-8.391-3.412-12.572-4.471-18.7-.3-1.727-.566-3.619-.808-5.8-.106-.953-.208-1.96-.3-3.039-.005-.058-.005-.087-.005-.087l1.863-11.652.3-1.9.44-2.739v0l1.6-9.973c0-.005-.735-19.564-.735-19.564a55.194,55.194,0,0,1-10.07-6l-2.7-2.352-.489-.426a17.2,17.2,0,0,0-3.552,3.581C-1353.591,731.247-1358.406,740.5-1358.2,757.193Z" transform="translate(1382.573 -684.194)" fill="url(#linear-gradient-3)"/>
          <path id="Trazado_104354" data-name="Trazado 104354" d="M-1302.314,698.924l-.031.207c-.142.472-.77.824-1.675,1.079l-.307-3.19v0S-1302.314,697.4-1302.314,698.924Z" transform="translate(1339.328 -663.22)" fill="#b9c5ef"/>
          <path id="Trazado_104355" data-name="Trazado 104355" d="M-1372.518,713.441a37.33,37.33,0,0,0-.4,4.814l-.525-.387a15.169,15.169,0,0,0-.121-2.662c-.035-.4-.081-.792-.132-1.166-.206-1.522-.491-2.727-.491-2.727a10.013,10.013,0,0,0,1.925.61C-1372.359,712.439-1372.445,712.949-1372.518,713.441Z" transform="translate(1395.394 -674.692)" fill="#b9c5ef"/>
          <path id="Trazado_104356" data-name="Trazado 104356" d="M-1378.849,711.923l-.685,1.729-.249.626-.368.928-.055.137v0l-.158.4v0l-.311.781-.095.24-1.261-1.786-.364-.516,1.068-2.078.553-1.075A10.016,10.016,0,0,0-1378.849,711.923Z" transform="translate(1401.986 -674.692)" fill="#ebfffe"/>
          <path id="Trazado_104357" data-name="Trazado 104357" d="M-1343.575,710.893l-.49-.426a17.094,17.094,0,0,0-3.548,3.581l-1.88.531-4.728,1.336-.171-.878-.63-3.229-.481-2.458c3.908-.061,7.975.052,10.2-.5.071-.017.142-.035.211-.054.9-.255,1.531-.607,1.674-1.08Z" transform="translate(1380.402 -671.804)" fill="#ebfffe"/>
          <g id="Grupo_55153" data-name="Grupo 55153" transform="translate(25.899 92.014)">
            <path id="Trazado_104358" data-name="Trazado 104358" d="M-1350.435,991.945c0,.053.011.106.017.157h0C-1350.424,992.051-1350.429,992-1350.435,991.945Z" transform="translate(1350.435 -991.945)" fill="#fff"/>
          </g>
          <path id="Trazado_104359" data-name="Trazado 104359" d="M-1385.3,813.243c-3.74-22.442,2.256-66.428,2.317-66.87l.321.044c-.061.441-6.051,44.379-2.318,66.773Z" transform="translate(1405.302 -702.832)" fill="#b9c5ef" opacity="0.5"/>
          <path id="Trazado_104360" data-name="Trazado 104360" d="M-1349.811,726.425l3.66,3.329s-9.371,15.442-10.868,31.212q-.133,1.371-.178,2.734a37.351,37.351,0,0,0,.133,4.813c-.174-1.646-.332-3.321-.473-5.011-.044-.534-.089-1.068-.129-1.6q-.03-.431-.061-.862c-.267-3.648-.441-7.357-.485-11.054-.2-16.7,4.615-25.954,8.125-30.464l4.162-5.359s3.239,3.09,3.361,5.351Z" transform="translate(1382.581 -676.979)" fill="#271f37" opacity="0.75"/>
          <path id="Trazado_104361" data-name="Trazado 104361" d="M-1384.947,718.836l.364.516q-.458.252-.992.552c.1-.416.163-.631.163-.631a9.566,9.566,0,0,1,1.533-2.515Z" transform="translate(1404.538 -679.062)" fill="#0e0e56"/>
          <path id="Trazado_104362" data-name="Trazado 104362" d="M-1369.211,728.162l-.5.818-.077.128-.412.68-1.851-.675-.038-1.378-.026-1v-.017a.507.507,0,0,1,.159-.385v0l.894-.853.38-.362a.4.4,0,0,1,.622.077l.326.52.508.811A1.556,1.556,0,0,1-1369.211,728.162Z" transform="translate(1393.733 -685.683)" fill="#e04c3d"/>
          <path id="Trazado_104363" data-name="Trazado 104363" d="M-1359.741,730.924a1.556,1.556,0,0,0-.013-1.635l-.508-.811c.155,0,.354,0,.585,0s.5-.013.794-.026l.63,3.23-2.06.192.077-.128Z" transform="translate(1384.263 -688.444)" fill="#932519"/>
          <path id="Trazado_104364" data-name="Trazado 104364" d="M-1370.412,726.548l-.894.854.055-.139.368-.928A3.99,3.99,0,0,0-1370.412,726.548Z" transform="translate(1393.086 -686.75)" fill="#932519"/>
          <path id="Trazado_104365" data-name="Trazado 104365" d="M-1373.345,734.772a2.289,2.289,0,0,1-.338-.217l.311-.781Z" transform="translate(1394.994 -692.719)" fill="#932519"/>
          <path id="Trazado_104366" data-name="Trazado 104366" d="M-1392.286,798.573l-1.387,2.563-1.869-1.834c-5.719-21.732,3.148-53.491,3.148-53.491l1.851.675q-.063.364-.125.724c-3.837,22.424-3.789,36.061-3.059,43.592A31.409,31.409,0,0,0-1392.286,798.573Z" transform="translate(1414.081 -702.381)" fill="#e04c3d"/>
          <path id="Trazado_104367" data-name="Trazado 104367" d="M-1378.652,796.558l-.717.716-.673-.645-.066-.136c-.73-7.531-.778-21.169,3.059-43.592C-1379.12,765.577-1380.106,791.366-1378.652,796.558Z" transform="translate(1400.46 -708.071)" fill="#932519"/>
          <path id="Trazado_104368" data-name="Trazado 104368" d="M-1428.727,1084.451h18.074l-.043-.3-.3-2.081-17.638-1.2-.082,3.068Z" transform="translate(1439.173 -971.303)" fill="#250f19"/>
          <path id="Trazado_104369" data-name="Trazado 104369" d="M-1338.66,998.79l-2.405.176a.3.3,0,0,1-.32-.277h0a.3.3,0,0,1,.277-.32l2.405-.176a.3.3,0,0,1,.32.277h0A.3.3,0,0,1-1338.66,998.79Z" transform="translate(1369.072 -904.944)" fill="#271f37" opacity="0.75"/>
          <path id="Trazado_104370" data-name="Trazado 104370" d="M-1333.447,1054.8l-2.392.3a.3.3,0,0,1-.335-.259h0a.3.3,0,0,1,.26-.335l2.393-.3a.3.3,0,0,1,.334.26h0A.3.3,0,0,1-1333.447,1054.8Z" transform="translate(1364.891 -949.903)" fill="#271f37" opacity="0.75"/>
          <path id="Trazado_104371" data-name="Trazado 104371" d="M-1321.962,1120.986l-2.392.3a.3.3,0,0,1-.335-.26h0a.3.3,0,0,1,.26-.335l2.392-.3a.3.3,0,0,1,.334.259h0A.3.3,0,0,1-1321.962,1120.986Z" transform="translate(1355.672 -1003.021)" fill="#271f37" opacity="0.75"/>
          <path id="Trazado_104372" data-name="Trazado 104372" d="M-1380.557,1865.636v4.487a5.09,5.09,0,0,0-2.674.677c-.619.516-2.284.611-3.119.627h-.678l-.4-5.79Z" transform="translate(1406.021 -1601.165)" fill="#f28a81"/>
          <path id="Trazado_104373" data-name="Trazado 104373" d="M-1453.792,1937.83l-.048.269-.185,1.052h-6.356l-.276-.313-.306-.348-20.582.621-.1-1.185a.088.088,0,0,1,.086-.1Z" transform="translate(1481.645 -1659.108)" fill="#c08a9b"/>
          <path id="Trazado_104374" data-name="Trazado 104374" d="M-1453.573,1896.43c-.01.217-.025.434-.043.651h-27.52a3.2,3.2,0,0,1,2.429-2.627c.944-.225,1.935-.5,2.944-.813,2.3-.71,4.688-1.592,6.792-2.426a37.243,37.243,0,0,0,5.675-2.729h1.478c.913-.017,2.735-.122,3.413-.686.92-.765,3.346-.74,3.346-.74l.434,2.794A17.815,17.815,0,0,1-1453.573,1896.43Z" transform="translate(1481.237 -1618.36)" fill="#6d2847"/>
          <path id="Trazado_104375" data-name="Trazado 104375" d="M-1434.576,1892.785a22.066,22.066,0,0,0,8.568-5.18l.054.024a1.656,1.656,0,0,1,.16,2.928,16.657,16.657,0,0,1-8.327,2.42A.5.5,0,0,1-1434.576,1892.785Z" transform="translate(1443.867 -1618.797)" fill="#963c58"/>
          <path id="Trazado_104376" data-name="Trazado 104376" d="M-1453.573,1923.187c-.01.216-.025.434-.043.651h-27.52a3.2,3.2,0,0,1,2.429-2.627c.944-.225,1.935-.5,2.944-.814a11.827,11.827,0,0,0,8.011,2.7C-1462.7,1923.119-1455.633,1923.173-1453.573,1923.187Z" transform="translate(1481.237 -1645.117)" fill="#963c58"/>
          <g id="Grupo_55154" data-name="Grupo 55154" transform="translate(67.055 270.863)">
            <path id="Trazado_104377" data-name="Trazado 104377" d="M-1125.071,1906.865h-16.862l.113-1.587.27-.132-.265-5.711a.783.783,0,0,1,.665-.812l.03.028a4.172,4.172,0,0,0,1.167.677,4.125,4.125,0,0,0,1.495.282,5.052,5.052,0,0,0,3.182-1.257,1.52,1.52,0,0,1,2.017.1C-1130.8,1900.859-1125.071,1906.865-1125.071,1906.865Z" transform="translate(1141.933 -1898.016)" fill="#6d2847"/>
            <path id="Trazado_104378" data-name="Trazado 104378" d="M-1121.39,1912.388h-16.579a7.024,7.024,0,0,1,.307-.765,10.273,10.273,0,0,1,3.151-3.979,7.855,7.855,0,0,1,2.894-1.329,7.834,7.834,0,0,1,1.095-.183c.1-.01.2-.02.3-.025.195-.013.395-.02.6-.02C-1125.231,1906.088-1121.39,1912.388-1121.39,1912.388Z" transform="translate(1138.751 -1904.495)" fill="#963c58"/>
            <rect id="Rectángulo_5207" data-name="Rectángulo 5207" width="16.579" height="1.133" transform="translate(0.781 7.893)" fill="#c08a9b"/>
          </g>
          <path id="Trazado_104379" data-name="Trazado 104379" d="M-1126.245,1892.647a7.968,7.968,0,0,0-3.989,1.512,7.261,7.261,0,0,1-2.236-3.189,5.441,5.441,0,0,1-.171-.682,4.22,4.22,0,0,1,.688-.4,6.277,6.277,0,0,1,4.168-.425A22.919,22.919,0,0,0-1126.245,1892.647Z" transform="translate(1201.53 -1620.146)" fill="#963c58"/>
          <path id="Trazado_104380" data-name="Trazado 104380" d="M-1140.845,1934.138a7.381,7.381,0,0,0-.307.763v.955h-.782l.113-1.587.269-.131Z" transform="translate(1208.989 -1656.145)" fill="#963c58"/>
          <path id="Trazado_104381" data-name="Trazado 104381" d="M-1423.755,1899.495a.254.254,0,0,1-.078-.012l-2.363-.781a.25.25,0,0,1-.159-.316.249.249,0,0,1,.316-.159l1.96.648-.262-1.392a.25.25,0,0,1,.071-.226.248.248,0,0,1,.228-.064l2.731.609-.73-1.751a.25.25,0,0,1,.135-.327.25.25,0,0,1,.327.135l.915,2.2a.25.25,0,0,1-.039.257.248.248,0,0,1-.246.083l-2.832-.631.27,1.436a.249.249,0,0,1-.081.234A.251.251,0,0,1-1423.755,1899.495Z" transform="translate(1437.278 -1625.298)" fill="#fff"/>
          <path id="Trazado_104382" data-name="Trazado 104382" d="M-1382.038,589.741a5.885,5.885,0,0,0-.28.566c-.029.068-.057.135-.083.2-2.313-.746-2.94-3.942-1.074-5.805-8.173.368-6.854-.766-7.064-2.006-4.74,1.366-7,.233-7.821-.409.032-.181.066-.354.1-.518.247-1.216.441-1.949.441-1.949l0,0s0,0,0,0a.073.073,0,0,0,.009.015c.147.251,1.91,2.972,7.738,1.381.386-.1,1.277.08.606,1.369-.187.36.274.785.7.836l6.39.8C-1384.992,587.918-1382.038,589.741-1382.038,589.741Z" transform="translate(1414.8 -569.157)" fill="#f28a81"/>
          <path id="Trazado_104383" data-name="Trazado 104383" d="M-1351.895,669.556c-.068.019-.14.037-.211.054l-1.067-7.677a13.392,13.392,0,0,1-5.121,4.982c-3.517,1.906-5.684,1.186-5.684,1.186,5.061-.015,9.349-5.516,10.36-7.16a2.073,2.073,0,0,0,.31-.99l.059-1.125a2.253,2.253,0,0,0,.319.017l.726,7.521v0Z" transform="translate(1387.204 -632.566)" fill="#db6951" opacity="0.5"/>
          <path id="Trazado_104384" data-name="Trazado 104384" d="M-1424.91,1176.6l0-.02c.175-2.291.32-4.593.435-6.887v0q.086-1.679.15-3.356c.177-4.6.25-9.15.245-13.541-.008-5.76-.148-11.246-.347-16.192v0c-.227-.805-.448-1.6-.668-2.389-2.2-7.946-3.988-15.24-6.225-23.24a1.169,1.169,0,0,0-1.125-.854h0a1.167,1.167,0,0,1-1.144-.939l-.47-2.353c-.806-4.034,4.645-7.621,8.752-7.392,0,0-.2-1.719-.349-2.494h-18.073l.015-.51h0l-.22,8.01-.068,2.512h0l-.04,1.5-.091,3.634a15.3,15.3,0,0,0-2.2.532,8.307,8.307,0,0,0-1.058.378c0,1.654-.013,4.71-.023,6.242h0a7.543,7.543,0,0,1,10,2.836,53.464,53.464,0,0,0,5.722,8.275,37.787,37.787,0,0,1,2.592,3.471h0l1.556,20.568c.822,10.853-7.036,24.8-7.447,38.285s6.6,32.932,6.96,55.594h1.5c-.74-15.867,1.29-31.416,2.122-46.419q.161-2.894.255-5.765A122.425,122.425,0,0,0-1424.91,1176.6Z" transform="translate(1454.172 -983.787)" fill="#3d1b21" opacity="0.5"/>
          <path id="Trazado_104385" data-name="Trazado 104385" d="M-1402.287,1078.921l-5.8-.4a.763.763,0,0,0-.577.205.771.771,0,0,0-.245.562v3.329a.77.77,0,0,0,.769.769h5.8a.77.77,0,0,0,.769-.769v-2.929A.772.772,0,0,0-1402.287,1078.921Zm.207,3.7a.261.261,0,0,1-.26.261h-5.8a.261.261,0,0,1-.261-.261v-1.844h2.6a.271.271,0,0,0,.271-.271.271.271,0,0,0-.271-.271h-2.6v-.943a.258.258,0,0,1,.083-.19.256.256,0,0,1,.177-.07h.019l5.8.4a.261.261,0,0,1,.243.26Z" transform="translate(1423.27 -969.416)" fill="#afa9cb"/>
          <path id="Trazado_104386" data-name="Trazado 104386" d="M-1123.175,1903.807l-.169.095c-.1,0-.2.015-.3.025a7.816,7.816,0,0,0-1.095.182l.3-.17-4.693.407a.245.245,0,0,1-.27-.227.247.247,0,0,1,.227-.27l5.855-.51a.253.253,0,0,1,.262.175A.254.254,0,0,1-1123.175,1903.807Z" transform="translate(1198.932 -1631.426)" fill="#fff"/>
          <path id="Trazado_104387" data-name="Trazado 104387" d="M-1299.229,1085.068l-13-2.105v1.053l13,2.061Z" transform="translate(1345.668 -972.982)" fill="#271f37" opacity="0.75"/>
          <path id="Trazado_104388" data-name="Trazado 104388" d="M-1362.784,538.041c-.4,2.957-3.485,7.446-3.485,7.446v0a2.236,2.236,0,0,0-1.166-1.273c-1.131-.485-2.551.16-3.55,1.486a5.835,5.835,0,0,0-.433.668s-2.954-1.823-.331-5.511c.161-2.957-3.161-2.257-3.326-2.221.2-.129,4.26-2.787.429-8.246-3.923-5.591-10.483.889-10.483.889s.806-4.027,4.061-5c9.464-2.825,12.614,7.307,12.614,7.307S-1362.135,533.3-1362.784,538.041Z" transform="translate(1404.181 -525.787)" fill="#63212d"/>
          <path id="Trazado_104389" data-name="Trazado 104389" d="M-1455.537,731.635a184.692,184.692,0,0,0-4.493,50.2l-1.375,37.06a15.288,15.288,0,0,0-6.314,1.1,14.347,14.347,0,0,0-3.212,1.723c3.5-32.911,1.4-45.2,1.076-48.761-.473-5.153-1.153-9.711-1.436-12.441-.485-4.74-2.176-12.878.008-18.621a8.631,8.631,0,0,1,1-2c1.391-1.9,3.5-1.493,11.591-7a23.079,23.079,0,0,1,3.321-1.889S-1455.432,731.219-1455.537,731.635Z" transform="translate(1474.203 -690.497)" fill="url(#linear-gradient-3)"/>
          <path id="Trazado_104390" data-name="Trazado 104390" d="M-1419.144,718.257a9.568,9.568,0,0,0-1.532,2.515s-.059.215-.163.631a184.675,184.675,0,0,0-4.492,50.2c-4.811-13.684-3.7-40.877-3.7-40.877l3.511-.952-.078-.561a9.675,9.675,0,0,1,4.023-9.251Z" transform="translate(1439.506 -680.266)" fill="#271f37" opacity="0.75"/>
          <g id="Grupo_55155" data-name="Grupo 55155" transform="translate(10.361 93.765)">
            <path id="Trazado_104391" data-name="Trazado 104391" d="M-1427.17,1002.325c-.084.774-.592,1.352-1.137,1.3a.713.713,0,0,1-.205-.053,1.385,1.385,0,0,1-.631-1.455c.081-.774.589-1.353,1.135-1.3a.822.822,0,0,1,.588.381A1.665,1.665,0,0,1-1427.17,1002.325Z" transform="translate(1429.155 -1000.813)" fill="#271f37" opacity="0.75"/>
            <path id="Trazado_104392" data-name="Trazado 104392" d="M-1424.175,1004.216c-.083.774-.592,1.353-1.137,1.3a.827.827,0,0,1-.586-.379.714.714,0,0,0,.205.054c.545.056,1.054-.522,1.137-1.3a1.664,1.664,0,0,0-.251-1.127A1.388,1.388,0,0,1-1424.175,1004.216Z" transform="translate(1426.541 -1002.379)" fill="#1d1729" opacity="0.75"/>
          </g>
          <g id="Grupo_55156" data-name="Grupo 55156" transform="translate(9.329 116.986)">
            <path id="Trazado_104393" data-name="Trazado 104393" d="M-1432.4,1119.916c-.04.777-.517,1.385-1.064,1.355a.766.766,0,0,1-.212-.045,1.384,1.384,0,0,1-.7-1.417c.043-.777.52-1.382,1.067-1.352a.824.824,0,0,1,.607.347A1.675,1.675,0,0,1-1432.4,1119.916Z" transform="translate(1434.383 -1118.456)" fill="#271f37" opacity="0.75"/>
            <path id="Trazado_104394" data-name="Trazado 104394" d="M-1429.122,1121.638c-.04.777-.52,1.385-1.067,1.354a.826.826,0,0,1-.607-.349.776.776,0,0,0,.212.045c.547.03,1.025-.577,1.064-1.355a1.676,1.676,0,0,0-.307-1.112A1.383,1.383,0,0,1-1429.122,1121.638Z" transform="translate(1431.504 -1119.872)" fill="#1d1729" opacity="0.75"/>
          </g>
          <g id="Grupo_55157" data-name="Grupo 55157" transform="translate(9.683 103.901)">
            <path id="Trazado_104395" data-name="Trazado 104395" d="M-1430.6,1053.625c-.042.777-.52,1.384-1.067,1.354a.709.709,0,0,1-.207-.042,1.385,1.385,0,0,1-.708-1.42c.04-.777.517-1.382,1.067-1.352a.824.824,0,0,1,.607.35A1.668,1.668,0,0,1-1430.6,1053.625Z" transform="translate(1432.589 -1052.165)" fill="#271f37" opacity="0.75"/>
            <path id="Trazado_104396" data-name="Trazado 104396" d="M-1427.317,1055.357c-.043.778-.52,1.384-1.067,1.354a.827.827,0,0,1-.6-.347.711.711,0,0,0,.207.042c.547.03,1.025-.577,1.067-1.354a1.668,1.668,0,0,0-.307-1.11A1.386,1.386,0,0,1-1427.317,1055.357Z" transform="translate(1429.7 -1053.592)" fill="#1d1729" opacity="0.75"/>
          </g>
          <path id="Trazado_104397" data-name="Trazado 104397" d="M-1460.355,1180.334l-.024,2.22a11.9,11.9,0,0,1-3.187-.5A14.341,14.341,0,0,1-1460.355,1180.334Z" transform="translate(1467.135 -1051.134)" fill="#2b204f"/>
          <path id="Trazado_104398" data-name="Trazado 104398" d="M-1350.034,1099.012l2.541,16.612,3.871.378,17.251,2.782,2.357,34.923a170.733,170.733,0,0,0,9.059,44.528l2.855,8.212a111.945,111.945,0,0,1,4.7,18.509l4.191,25.38-7.3,3.2,10.133.15c-8.037-52.155-11.42-72.788-15.828-95.013-3.315-16.714-4.157-29.3-7.975-42.269-6.663-.077-9.32-2.333-18.925-1.466l-.189.015c-.373.034-.755.073-1.152.116v0c-.227.024-.455.048-.692.077,0,0-.169-1.084-.426-2.8-.406-2.724-1.05-7.055-1.635-11.207-.1-.721-.2-1.437-.3-2.134Z" transform="translate(1376.013 -985.864)" fill="#51242c" opacity="0.5"/>
          <g id="Grupo_55160" data-name="Grupo 55160" transform="translate(15.257 16.571)">
            <g id="Grupo_55158" data-name="Grupo 55158" transform="translate(7.96)">
              <path id="Trazado_104399" data-name="Trazado 104399" d="M-1357.836,621.887a.13.13,0,0,1-.043-.008,5.866,5.866,0,0,0-3.1-.218.126.126,0,0,1-.154-.092.126.126,0,0,1,.092-.154,6.01,6.01,0,0,1,3.249.225.126.126,0,0,1,.076.162A.127.127,0,0,1-1357.836,621.887Z" transform="translate(1361.708 -619.01)" fill="#5e2023"/>
              <path id="Trazado_104400" data-name="Trazado 104400" d="M-1363.865,609.958a6.712,6.712,0,0,1,1.453-.215,6.841,6.841,0,0,1,1.469.1,6.758,6.758,0,0,1,.727.169c.119.037.236.082.355.124a2.7,2.7,0,0,1,.349.144,5.989,5.989,0,0,1,1.292.794.444.444,0,0,1,.085.622.444.444,0,0,1-.623.085l-.025-.021-.025-.022a5.156,5.156,0,0,0-1.047-.766,2.165,2.165,0,0,0-.292-.15c-.1-.044-.2-.092-.3-.134a6.18,6.18,0,0,0-.632-.2,6.286,6.286,0,0,0-1.33-.2,6.334,6.334,0,0,0-1.345.086l-.015,0a.214.214,0,0,1-.249-.172A.215.215,0,0,1-1363.865,609.958Z" transform="translate(1364.023 -609.738)" fill="#4f1019"/>
            </g>
            <g id="Grupo_55159" data-name="Grupo 55159">
              <path id="Trazado_104401" data-name="Trazado 104401" d="M-1394.19,621.887a.13.13,0,0,0,.043-.008,5.866,5.866,0,0,1,3.1-.218.126.126,0,0,0,.154-.092.126.126,0,0,0-.092-.154,6.011,6.011,0,0,0-3.25.225.126.126,0,0,0-.076.162A.127.127,0,0,0-1394.19,621.887Z" transform="translate(1396.297 -619.01)" fill="#5e2023"/>
              <path id="Trazado_104402" data-name="Trazado 104402" d="M-1398.529,609.958a6.708,6.708,0,0,0-1.453-.215,6.841,6.841,0,0,0-1.469.1,6.725,6.725,0,0,0-.727.169c-.119.037-.236.082-.355.124a2.69,2.69,0,0,0-.348.144,5.983,5.983,0,0,0-1.292.794.444.444,0,0,0-.085.622.444.444,0,0,0,.622.085l.025-.021.025-.022a5.161,5.161,0,0,1,1.047-.766,2.141,2.141,0,0,1,.292-.15c.1-.044.2-.092.3-.134a6.173,6.173,0,0,1,.633-.2,6.286,6.286,0,0,1,1.329-.2,6.333,6.333,0,0,1,1.345.086l.015,0a.214.214,0,0,0,.249-.172A.215.215,0,0,0-1398.529,609.958Z" transform="translate(1404.349 -609.738)" fill="#4f1019"/>
            </g>
            <path id="Trazado_104403" data-name="Trazado 104403" d="M-1372.092,635.525c0,.89-.029,1.775-.053,2.657-.013.441-.019.881-.021,1.321a11.747,11.747,0,0,0,.056,1.306l-.09-.107a7.218,7.218,0,0,0,.964.288,5.069,5.069,0,0,0,1.007.132,3.788,3.788,0,0,1-1.033.037,5.587,5.587,0,0,1-1.023-.2l-.074-.022-.015-.085a8.1,8.1,0,0,1-.108-1.345c-.008-.447.011-.893.039-1.337A19.3,19.3,0,0,1-1372.092,635.525Z" transform="translate(1378.775 -630.435)" fill="#f28a81"/>
            <path id="Trazado_104404" data-name="Trazado 104404" d="M-1368.5,676.938c.345.026.686.036,1.024.042a7,7,0,0,0,1.006-.053,2.515,2.515,0,0,0,1.749-.842,1.631,1.631,0,0,1-.707.767,2.69,2.69,0,0,1-1.011.315A4.6,4.6,0,0,1-1368.5,676.938Z" transform="translate(1375.579 -662.989)" fill="#f28a81"/>
          </g>
          <g id="Grupo_55161" data-name="Grupo 55161" transform="translate(45.942 147.204)">
            <path id="Trazado_104405" data-name="Trazado 104405" d="M-1248.236,1351.048l1.5,4.365a.243.243,0,0,0,.229.164h.849a.242.242,0,0,0,.242-.243v-.744l.689-.027a.752.752,0,0,0,.7-.584l.356-1.562Z" transform="translate(1248.366 -1335.355)" fill="#f28a81"/>
            <path id="Trazado_104406" data-name="Trazado 104406" d="M-1241.7,1281.045s1.2,4.481.924,5.966a2.607,2.607,0,0,1-.624,1.273c-1.713,1.979-6.228,1.786-7.307-.89-.915-2.265,1.839-6.349,1.839-6.349l0-2.057v-2.642l-.01-4.8,6.431.271-.344,2.536Z" transform="translate(1248.896 -1271.546)" fill="#feb396"/>
          </g>
          <path id="Trazado_104407" data-name="Trazado 104407" d="M-1247.232,827.58l-3.223,27.926-1.96,16.99-1.853-.073-.861-.034-4.191-.174-1.389-.063h-.01l-.886-.034-.557-.024-.382-.015-.421-46.319a22.591,22.591,0,0,1,1.8-9.044l-1.877-10.5,0-.019-2.594-14.507a30.96,30.96,0,0,1,4.379-22.124l2.2-3.445,1.007.261a14.835,14.835,0,0,1,3.682,1.505c.339.193.668.406.987.629a14.563,14.563,0,0,1,3.16,2.957,14.357,14.357,0,0,1,3.092,7.907c.663,9.271-1.5,12.818-2.439,34.463C-1247.846,818.415-1246.438,824.062-1247.232,827.58Z" transform="translate(1308.67 -718.681)" fill="#583d66"/>
          <path id="Trazado_104408" data-name="Trazado 104408" d="M-1265.645,791.69l2.594,14.507,0,.019,1.878,10.5a22.59,22.59,0,0,0-1.8,9.044l.421,46.319.382.015.557.024c.8-9.465,4-48.38,3.092-56.089a6.221,6.221,0,0,0-.136-.774c-.145-.561-.285-1.123-.426-1.674-8.154-33.051,1.011-47.2,1.011-47.2l-1.006-.262-2.2,3.446A30.958,30.958,0,0,0-1265.645,791.69Z" transform="translate(1308.671 -718.682)" fill="#271f37" opacity="0.5"/>
          <path id="Trazado_104409" data-name="Trazado 104409" d="M-1203.364,816.019a39.384,39.384,0,0,1,.242,3.978c.034,1.19.058,2.579.078,4.113.136,12.5-.174,34.851.672,41.136l3.223-27.926c.794-3.518-.615-9.165-2.347-13.738.934-21.645,3.1-25.192,2.439-34.463a14.354,14.354,0,0,0-3.092-7.907,14.57,14.57,0,0,0-3.16-2.957C-1205.363,778.464-1208.3,790.789-1203.364,816.019Z" transform="translate(1260.588 -728.421)" fill="#271f37" opacity="0.25"/>
        </g>
        <path id="Trazado_104410" data-name="Trazado 104410" d="M-1199.95,783.162l.172,1.306a.515.515,0,0,0,.566.445h0a.784.784,0,0,0,.682-.607l.679-3.012Z" transform="translate(1255.553 -730.86)" fill="#f2726b"/>
        <path id="Trazado_104411" data-name="Trazado 104411" d="M-1192.2,775.752l1.854-.593s4.1.331,4.8,2.731c1.639-1.178.733-3.535.7-3.607s-.014-.819-1.078-.891-3.464-.518-3.607-.546a1.157,1.157,0,0,0-1.135-.072c-.762.273-1.552.287-1.624.618s-.259.4-.23.632S-1192.2,775.752-1192.2,775.752Z" transform="translate(1249.589 -723.933)" fill="#f2726b"/>
        <path id="Trazado_104412" data-name="Trazado 104412" d="M-1175.585,846.815l-1.016,1.224-.252.3c-7.694-6.363-5.444-20.638-3.455-33.224l.237-1.5c.619-3.963.353-6.431-.213-7.965a5.433,5.433,0,0,0-.469-.992,3.931,3.931,0,0,0-.5-.672,3.039,3.039,0,0,0-2.342-1l-.222-1.969a5.01,5.01,0,0,1,3.963,1.568,5.7,5.7,0,0,1,.7.881,6.953,6.953,0,0,1,.711,1.432c.053.145.106.29.155.445.063.193.116.4.169.6.044.16.078.324.111.493.044.213.082.431.111.658.024.126.039.257.053.392.01.068.019.135.024.208.019.165.034.334.048.508,0,.126.014.247.019.377s.015.256.015.387a26.892,26.892,0,0,1-.368,4.95l-.237,1.5C-1180.255,827.493-1182.413,841.173-1175.585,846.815Z" transform="translate(1242.608 -746.679)" fill="url(#linear-gradient-5)"/>
        <path id="Trazado_104413" data-name="Trazado 104413" d="M-1004.232,562.589a3.6,3.6,0,0,0-1.024-3.349,3.53,3.53,0,0,1,1.931,2.5c.749-.886-.1-3.448-1.182-4.393.926.138,3.94,3.172,2.974,5.339s-2.561,1.576-2.6,1.4S-1004.232,562.589-1004.232,562.589Z" transform="translate(1099.29 -551.119)" fill="#63212d"/>
        <path id="Trazado_104414" data-name="Trazado 104414" d="M-1197.131,763.566l-2.136-.638a2.02,2.02,0,0,0-2.309.895l-2.264,3.769,2.736-2.424a17.394,17.394,0,0,1,2.475-.781C-1198.206,764.386-1197.131,763.566-1197.131,763.566Z" transform="translate(1258.676 -716.051)" fill="#f2726b"/>
        <path id="Trazado_104415" data-name="Trazado 104415" d="M-1159.733,797.453a8,8,0,0,1-.939-.189,13.674,13.674,0,0,1-4.045-2.052,1.041,1.041,0,0,1-.087-.063c-.17-.111-.339-.237-.518-.363-.61-.436-1.253-.919-1.945-1.452-5.023-3.886-12.823-9.451-26.871-17.551a4.786,4.786,0,0,1-3.058,1.413.884.884,0,0,1-.111,0,5.218,5.218,0,0,1-2.269-.571,21.262,21.262,0,0,0-5.72-1.572.626.626,0,0,1-.43-.663.986.986,0,0,1,.039-.266.543.543,0,0,1,.522-.387l1.191.01,2.956.029a5.158,5.158,0,0,0,1.539-.223,5.083,5.083,0,0,0,1.49-.687,2.133,2.133,0,0,0,.934-1.892,1.438,1.438,0,0,0-1.089-1.278l-4.563-1.123-3.363,3a.945.945,0,0,1-.939.174.264.264,0,0,1-.121-.4l3.208-4.379a1.151,1.151,0,0,1,.934-.479h2.376a10.96,10.96,0,0,1,6.847,2.41,20.634,20.634,0,0,0,6.223,3.533c10.762,3.673,16.119,5.3,21.195,7.2.15.058.3.111.45.169.382.145.765.29,1.152.44,1.931.755,3.9,1.583,6.194,2.613,1.311.59,2.724,1.244,4.3,1.993C-1151.526,786.134-1153.761,798.251-1159.733,797.453Z" transform="translate(1261.354 -718.976)" fill="url(#linear-gradient)"/>
        <path id="Trazado_104416" data-name="Trazado 104416" d="M-991.874,844.747c-.048.266-1.684,4.4-2.56,6.6-.324.808-.542,1.36-.542,1.36s-3.929-.193-5.081-2.26a8.158,8.158,0,0,0,.973-1.573,10.1,10.1,0,0,0,.711-2.008c1.418-5.662-1.19-12.731-1.287-12.983v0l6.213.648a7,7,0,0,1,1.06,2.12c.019.092.049.189.073.285a7.154,7.154,0,0,1,.44,2.4C-992,840.068-991.816,844.38-991.874,844.747Z" transform="translate(1095.117 -773.065)" fill="#d4cdf7"/>
        <path id="Trazado_104417" data-name="Trazado 104417" d="M-998.944,1885.518c-.03,1.016-.074,1.775-.114,2.34-.047.629-.1,1.016-.136,1.252a.421.421,0,0,1-.417.35H-1025.3a.428.428,0,0,1-.422-.37,4.624,4.624,0,0,1-.041-.473,4.226,4.226,0,0,1,3.526-4.274c4.645-.773,10.3-1.716,13.454-6.7a.421.421,0,0,1,.354-.2h6.122a.419.419,0,0,1,.33.158C-1001.367,1878.366-998.83,1881.788-998.944,1885.518Z" transform="translate(1115.748 -1610.643)" fill="#2f1a1d"/>
        <path id="Trazado_104418" data-name="Trazado 104418" d="M-929.977,1124.814h0l14.085-73.915h-28.923s-5.745,29.665-3.635,73.915h0l-.539,4.305,1.575,3.182s-1.612,61.131-3.794,81.444a.417.417,0,0,0,.254.431c1.6.681,9.385,3.76,11.83.093a11.635,11.635,0,0,0,1.814-8.8l-.6-3.855a.411.411,0,0,1,.012-.185c.636-2.105,12.253-36.035,12.7-54.461C-925.058,1141.321-929.977,1124.814-929.977,1124.814Z" transform="translate(1055.911 -947.248)" fill="#0b151e"/>
        <path id="Trazado_104419" data-name="Trazado 104419" d="M-951.517,683.846-963.6,692.2l-.63-1.973-2.593-8.152,4.721-3.763,3.367-2.693.312-.248c.01.05.025.1.035.154a10.551,10.551,0,0,0,2.043,3.729,20.363,20.363,0,0,0,1.453,1.636c.1.1.2.2.293.3.689.684,1.359,1.274,1.894,1.72.635.531,1.086.863,1.18.927Z" transform="translate(1068.444 -645.842)" fill="url(#linear-gradient)"/>
        <g id="Grupo_55163" data-name="Grupo 55163" transform="translate(129.58 270.642)">
          <path id="Trazado_104420" data-name="Trazado 104420" d="M-807.167,1903.863c-.019.252-.053.508-.092.769l-.087.542a.422.422,0,0,1-.416.363h-16.767a.411.411,0,0,1-.387-.256,3.4,3.4,0,0,1-.159-.581,5.923,5.923,0,0,1,.643-3.9,2.938,2.938,0,0,1,1.921-1.457h.024a11.663,11.663,0,0,0,1.253-.15,8.159,8.159,0,0,0,4.6-2.168.413.413,0,0,1,.3-.126l7.37.01a.437.437,0,0,1,.382.227A11.454,11.454,0,0,1-807.167,1903.863Z" transform="translate(825.17 -1896.9)" fill="#2f1a1d"/>
          <path id="Trazado_104421" data-name="Trazado 104421" d="M-814.641,1914.736h-9.89a.411.411,0,0,1-.388-.255,5.762,5.762,0,0,1,.483-4.48,2.947,2.947,0,0,1,1.924-1.458h.02a1.614,1.614,0,0,1,.223-.04c.065-.01.124-.015.188-.025a.207.207,0,0,0,.035-.005c.03,0,.06-.01.1-.015.139-.015.387-.04.709-.065,1.487-.094,4.552-.074,6.079,1.572a4.325,4.325,0,0,1,.916,4.493A.42.42,0,0,1-814.641,1914.736Z" transform="translate(825.173 -1906.1)" fill="#2f1a1d"/>
        </g>
        <path id="Trazado_104422" data-name="Trazado 104422" d="M-887.745,1217.88a.433.433,0,0,1-.489.232c-.6-.145-2.42-.387-7.375-.015a.441.441,0,0,1-.271-.073,12.971,12.971,0,0,1-2.937-6.237,4.841,4.841,0,0,1-.048-.692c-.092-29.876-8.7-59.558-12.77-71.467-1.069-3.116-1.892-6.233-1.926-6.383l0-.005v-5.477c-6.692-42.08-10.9-45.608-10.423-57.487.039-1.021.116-2.1.227-3.281.034-.406.077-.823.126-1.253a19.969,19.969,0,0,1-.353-3.682,69.4,69.4,0,0,1,.992-11.173h28.923s4.926,8.5,6.039,16.361c-1.263,13.133-.6,25.589-2.584,59.084,0,0,6.707,13.68,7.718,26.982C-881.8,1167.825-885.7,1213.433-887.745,1217.88Z" transform="translate(1034.094 -947.237)" fill="#16293c"/>
        <path id="Trazado_104423" data-name="Trazado 104423" d="M-977.436,710.539c-5.555,1.669-10.9,10.109-10.1,19.245,0,.01,0,.019,0,.029-.034-.106-.068-.223-.111-.334a10.764,10.764,0,0,1-.416-1.776s0-.01,0-.015c-1.132-7.767,5.768-16.719,7.094-18.349.135-.174.218-.261.218-.261l-.136-.421-.077-.251-.412-1.3s5.323-2.187,8.1-6.625a11.712,11.712,0,0,0,.7-1.287,10.874,10.874,0,0,0,.537-1.422,10.666,10.666,0,0,0,.3-1.37l3.063,4.312.01.015,0,0C-967.124,703.111-968.5,707.863-977.436,710.539Z" transform="translate(1085.59 -662.722)" fill="#e8e3f9"/>
        <path id="Trazado_104424" data-name="Trazado 104424" d="M-943.242,783.981v.005a13.956,13.956,0,0,1-14.972,6.208,34.7,34.7,0,0,1-12.557,7.936c-.76.276-1.447.5-2.037.668a21.031,21.031,0,0,1-2.357.566,35.742,35.742,0,0,1-2.1-9.538v0c-.068-1.065-.078-2.071-.063-3.1a62.139,62.139,0,0,0-.779-12.625v0c-.077-.46-.16-.939-.247-1.432l-.014-.474s-.058-.184-.169-.532c-.861-2.671-4.733-14.914-6.668-24.229,0-.01,0-.019,0-.029-.8-9.136,4.544-17.575,10.1-19.245,8.933-2.676,10.312-7.428,8.778-9.809a.288.288,0,0,1,.053.034c.131.082.469.31.968.668.087.068.184.135.281.208a41.792,41.792,0,0,1,5.729,5.207q.254.276.508.566.813.915,1.621,1.955c.111.14.223.285.329.43s.213.276.314.421c.189.252.372.508.556.774s.368.532.547.8a35.45,35.45,0,0,1,2.962,5.429c.116.271.232.547.343.827.339.837.644,1.723.929,2.647a71.468,71.468,0,0,1,2.729,10.859c1.907,10.825,1.713,21.035,2.908,26.024.411,1.727,1.878,3.107,2.54,4.829.053.14.1.281.145.426A4.762,4.762,0,0,1-943.242,783.981Z" transform="translate(1083.261 -680.332)" fill="#1b4166"/>
        <path id="Trazado_104425" data-name="Trazado 104425" d="M-880.605,805.147c-1.384,7.844-5.391,11.328-8.008,12.8a10.97,10.97,0,0,1-2.173.948c-.15.043-.228.058-.228.058v0q.682-1.27,1.345-2.555c4.007-7.752,7.476-15.649,8.067-20.638a6.741,6.741,0,0,0-.261-2.275c-.034-.15-.072-.3-.106-.435a11.6,11.6,0,0,0-2.749-4.573,9.493,9.493,0,0,1,3.576,4.955s0,.015.01.02C-880.189,796.036-879.662,799.805-880.605,805.147Z" transform="translate(1007.598 -736.625)" fill="#d4cdf7"/>
        <path id="Trazado_104426" data-name="Trazado 104426" d="M-1077.232,1095.93c-6.843-1.334-13.086-7.8-13.086-7.8a.039.039,0,0,1,0,.015c-1.066,1.473-2.127,2.99-3.159,4.522l.056.687.2.563.01.025c.625,1.943,2.693,5.484,9.481,6.114,5.375.58,7.854-1.116,9.084-3.892A12.281,12.281,0,0,1-1077.232,1095.93Z" transform="translate(1170.1 -977.134)" fill="#e8e3f9"/>
        <path id="Trazado_104427" data-name="Trazado 104427" d="M-1031.239,782.784c-.513,4.331-3.2,10.859-6.523,17.58-.5,1.016-1.016,2.037-1.544,3.053-.44.861-.9,1.713-1.345,2.56v0c-.373.7-1.152,2.26-2.086,4.152-.658,1.336-1.394,2.835-2.119,4.321-1.578,3.242-3.107,6.392-3.678,7.568a.021.021,0,0,0,0,.014c-.1.17-1.118,1.936-2.729,4.433-.5.764-1.05,1.6-1.65,2.482a0,0,0,0,1,0,0c-.271.4-.557.813-.847,1.229-.866,1.224-1.82,2.521-2.855,3.828a55.036,55.036,0,0,1-7.742,8.062,15.969,15.969,0,0,1-2.6-.745,32.941,32.941,0,0,1-10.481-7.051c1.761-2.439,3.533-4.761,5.2-6.881l0,0c3.847-4.878,7.133-8.638,8.439-10.1-.256-.431-.522-.818-.387-1.2a.981.981,0,0,1,1.026-.663s-.764-.6-.392-1.171a1.014,1.014,0,0,1,1.185-.431c.315-1.887.794-4.65,1.379-7.815.339-1.849.716-3.828,1.123-5.855v0c1.684-8.347,3.828-17.444,5.783-20.759a17.878,17.878,0,0,1,2.163-2.657c.455-.489.953-1.006,1.485-1.539a11.393,11.393,0,0,1,12.93-2.265.018.018,0,0,1,.015,0,10.958,10.958,0,0,1,3.261,2.318h0a10.759,10.759,0,0,1,2.812,5.216A6.747,6.747,0,0,1-1031.239,782.784Z" transform="translate(1157.234 -723.281)" fill="#e8e3f9"/>
        <path id="Trazado_104428" data-name="Trazado 104428" d="M-880.862,816.531c-.576,4.854-3.881,12.47-7.752,20.014a9.6,9.6,0,0,1-2.4,1.007v-.005q.682-1.27,1.345-2.555c4.007-7.752,7.476-15.649,8.067-20.638a6.741,6.741,0,0,0-.261-2.275c-.034-.15-.072-.3-.106-.435a10.929,10.929,0,0,1,.924,2.579A6.844,6.844,0,0,1-880.862,816.531Z" transform="translate(1007.598 -755.219)" fill="#847caa" opacity="0.15"/>
        <path id="Trazado_104429" data-name="Trazado 104429" d="M-946.2,728.294a17.033,17.033,0,0,0,2.884-1.287,19.466,19.466,0,0,0,2.637-1.724,19.907,19.907,0,0,0,2.356-2.092,25.5,25.5,0,0,0,2.057-2.4c-.3.434-.579.888-.9,1.309s-.653.838-1.021,1.221a18.033,18.033,0,0,1-2.344,2.156,17.694,17.694,0,0,1-2.7,1.7A13.341,13.341,0,0,1-946.2,728.294Z" transform="translate(1051.889 -682.297)" fill="#847caa" opacity="0.5"/>
        <path id="Trazado_104430" data-name="Trazado 104430" d="M-1003.036,903.941a8.2,8.2,0,0,1-.972,1.572,5.078,5.078,0,0,1-.972-3.025C-1004.291,903.019-1003.646,903.5-1003.036,903.941Z" transform="translate(1099.068 -828.131)" fill="#847caa"/>
        <path id="Trazado_104431" data-name="Trazado 104431" d="M-998.945,1930.732c-.034.358-.067.6-.1.774a.421.421,0,0,1-.417.35h-25.686a.428.428,0,0,1-.422-.37v-.008a.424.424,0,0,1,.41-.477l25.778-.733A.426.426,0,0,1-998.945,1930.732Z" transform="translate(1115.596 -1653.038)" fill="#231416"/>
        <path id="Trazado_104432" data-name="Trazado 104432" d="M-1021.375,663.169c.561,4.312.242,7.684-.8,10.181a8.583,8.583,0,0,1-6,5.265,14.954,14.954,0,0,1-6.954-2.212,18.526,18.526,0,0,1-2.492-1.834c-2.6-2.265-4.307-4.853-5.483-6.054-.077-.082-.155-.155-.227-.223-.227-.208-.45-.426-.663-.658.3-.029.62-.072.939-.126,9.794-1.544,10.08-7.965,10.08-7.965,4.413-1.016,7.9,2.574,7.9,2.574l1.747-1.156,1.79-1.19.721-.489a20.4,20.4,0,0,1-.493,3.605A2.622,2.622,0,0,1-1021.375,663.169Z" transform="translate(1130.377 -632.932)" fill="url(#linear-gradient)"/>
        <path id="Trazado_104433" data-name="Trazado 104433" d="M-911.988,695.126a10.185,10.185,0,0,1-.3,1.369,20.384,20.384,0,0,1-1.453-1.636A2.639,2.639,0,0,1-911.988,695.126Z" transform="translate(1025.84 -661.45)" fill="#938cac"/>
        <path id="Trazado_104434" data-name="Trazado 104434" d="M-1070.044,592.879l-.039.024-.721.489-3.537,2.347s-3.484-3.591-7.9-2.574c0,0-.286,6.421-10.08,7.965-.319.053-.634.1-.939.126-11.313,1.253-12.117-8.8-12.117-8.8a.052.052,0,0,1,.01.019c.174.218,4.6,3.257,6.934,2.052a.065.065,0,0,1-.01-.014c-2.047-3.484,1.684-15.7,10.6-16.864a11.8,11.8,0,0,1,4.757.392,4.7,4.7,0,0,1,1.892-1.113,7.912,7.912,0,0,1,8.144,2.255,11.155,11.155,0,0,1,2.279,3.716C-1067.9,590.367-1070.044,592.879-1070.044,592.879Z" transform="translate(1179.645 -566.552)" fill="#773634"/>
        <path id="Trazado_104435" data-name="Trazado 104435" d="M-944.651,649.486a2.619,2.619,0,0,1-1.3,1,1.735,1.735,0,0,1-.421.106c-1.408.2-2.782-.958-3.44-2.729a6.614,6.614,0,0,1-.344-1.355,5.375,5.375,0,0,1,.784-3.823,2.568,2.568,0,0,1,1.742-1.142c1.747-.242,3.436,1.587,3.784,4.084A5.367,5.367,0,0,1-944.651,649.486Z" transform="translate(1055.114 -618.678)" fill="#f8b296"/>
        <path id="Trazado_104436" data-name="Trazado 104436" d="M-940.822,657.438a1.712,1.712,0,0,1-.891.569,1.834,1.834,0,0,1-1.079-.078,3.19,3.19,0,0,1-1.559-1.464,4.693,4.693,0,0,1-.549-2.067,3.457,3.457,0,0,1,.546-2.033,3.9,3.9,0,0,0-.36,2.024,4.771,4.771,0,0,0,.575,1.96,3.107,3.107,0,0,0,1.416,1.408A1.721,1.721,0,0,0-940.822,657.438Z" transform="translate(1050.848 -627.38)" fill="#db6951" opacity="0.5"/>
        <path id="Trazado_104437" data-name="Trazado 104437" d="M-1017.2,717.024c.9,1.027,1.726,2.1,2.614,3.114.443.507.9,1,1.386,1.461a6.894,6.894,0,0,0,1.589,1.182l-.1.007c.218-.114.432-.234.644-.36a3.12,3.12,0,0,0,.592-.442,2.435,2.435,0,0,1-.513.551,5.283,5.283,0,0,1-.609.446l-.044.029-.056-.022a5.852,5.852,0,0,1-1.737-1.135,14.566,14.566,0,0,1-1.417-1.49A29.275,29.275,0,0,1-1017.2,717.024Z" transform="translate(1108.872 -679.276)" fill="#db6951" opacity="0.5"/>
        <path id="Trazado_104438" data-name="Trazado 104438" d="M-1008.747,697.117c.066-.547.159-1.089.255-1.629l.006-.029.025-.022a8.509,8.509,0,0,1,2.03-1.3,7.127,7.127,0,0,1,1.133-.414,5.879,5.879,0,0,1,1.182-.211,10.881,10.881,0,0,0-2.217.832,12.579,12.579,0,0,0-2.005,1.237l.031-.052C-1008.443,696.059-1008.581,696.591-1008.747,697.117Z" transform="translate(1102.092 -660.403)" fill="#db6951" opacity="0.5"/>
        <path id="Trazado_104439" data-name="Trazado 104439" d="M-1026.617,716.787a4.225,4.225,0,0,1-1.244-.148l.085-.015a3.765,3.765,0,0,1-.731.314,3.763,3.763,0,0,1,.61-.511l.035-.024.051.009A4.242,4.242,0,0,1-1026.617,716.787Z" transform="translate(1117.951 -678.778)" fill="#db6951" opacity="0.5"/>
        <path id="Trazado_104440" data-name="Trazado 104440" d="M-968.279,730.575a.121.121,0,0,1-.1-.058.121.121,0,0,1,.04-.166,3.567,3.567,0,0,0,1.35-1.922.121.121,0,0,1,.15-.082.121.121,0,0,1,.082.15,3.741,3.741,0,0,1-1.456,2.06A.119.119,0,0,1-968.279,730.575Z" transform="translate(1069.709 -688.359)" fill="#db6951" opacity="0.5"/>
        <path id="Trazado_104441" data-name="Trazado 104441" d="M-790.624,1016.6a5.774,5.774,0,0,1-2.981.789.782.782,0,0,1-.61-.31.773.773,0,0,1-.135-.266l-.648-2.386a.412.412,0,0,1,.319-.513,5.5,5.5,0,0,0,2.178-.9,1.3,1.3,0,0,1,1.916.4,4.5,4.5,0,0,1,.256.561,6.116,6.116,0,0,1,.314,1.384A1.262,1.262,0,0,1-790.624,1016.6Z" transform="translate(930.547 -916.632)" fill="#1d69b3"/>
        <path id="Trazado_104442" data-name="Trazado 104442" d="M-786.9,1031.259a1.122,1.122,0,0,1-.3.256,5.781,5.781,0,0,1-2.981.784.775.775,0,0,1-.745-.576l-.034-.131a.782.782,0,0,0,.61.31,5.773,5.773,0,0,0,2.981-.789,1.306,1.306,0,0,0,.329-.281C-787,1030.973-786.947,1031.114-786.9,1031.259Z" transform="translate(927.3 -931.143)" fill="#16293c" opacity="0.25"/>
        <path id="Trazado_104443" data-name="Trazado 104443" d="M-780.753,1018.038c.2.661.088,1.279-.248,1.38s-.77-.352-.97-1.013-.088-1.279.248-1.38S-780.953,1017.377-780.753,1018.038Z" transform="translate(920.159 -920.048)" fill="#14314d"/>
        <path id="Trazado_104444" data-name="Trazado 104444" d="M-1074.679,643.85a6.473,6.473,0,0,0,.342,1.359s-3.486-3.59-7.9-2.579c0,0-.283,6.422-10.076,7.969-12.208,1.929-13.056-8.673-13.056-8.673a.058.058,0,0,1,.01.02c.233.6,5.26,13.861,17.394,4.249,2.874-2.276,1.426-6.933,1.426-6.933s6.533-2.81,12.642.766A5.372,5.372,0,0,0-1074.679,643.85Z" transform="translate(1179.641 -616.02)" fill="#63212d"/>
        <path id="Trazado_104445" data-name="Trazado 104445" d="M-939.966,658.541a2.508,2.508,0,0,1-.23-1.034,2.194,2.194,0,0,1,.242-1.055,2.024,2.024,0,0,1,.734-.8,2.99,2.99,0,0,1,.476-.246c.169-.055.341-.1.511-.139a4.767,4.767,0,0,0-.878.535,2.284,2.284,0,0,0-.629.756A3.158,3.158,0,0,0-939.966,658.541Z" transform="translate(1047.072 -629.713)" fill="#db6951" opacity="0.5"/>
        <path id="Trazado_104446" data-name="Trazado 104446" d="M-928.077,686.108a10.433,10.433,0,0,1-.536,1.423,11.464,11.464,0,0,1-.7,1.289c-.516-1.086-1.249-2.613-1.939-3.962a20.724,20.724,0,0,1-2.162,6.605,18.563,18.563,0,0,0,.952-8.588,2.656,2.656,0,0,0,1.294-1,12.444,12.444,0,0,0,1.636,2.6A20.374,20.374,0,0,0-928.077,686.108Z" transform="translate(1041.628 -651.063)" fill="#db6951" opacity="0.5"/>
        <path id="Trazado_104447" data-name="Trazado 104447" d="M-982.535,758.149c-1.324,1.631-8.226,10.582-7.091,18.347-2.841-11.157,7.1-19.284,7.1-19.284l.08.253.134.421S-982.4,757.976-982.535,758.149Z" transform="translate(1087.155 -711.531)" fill="#16293c"/>
        <path id="Trazado_104448" data-name="Trazado 104448" d="M-920.872,965.93a8.829,8.829,0,0,1-.939,4.021c-.286-.049-.571-.107-.852-.164a8.692,8.692,0,0,0,1.3-4.65v-.077c.145.029.291.058.44.082A5.927,5.927,0,0,1-920.872,965.93Z" transform="translate(1033 -878.352)" fill="#e8e3f9" opacity="0.5"/>
        <path id="Trazado_104449" data-name="Trazado 104449" d="M-1204.455,798.113a2.539,2.539,0,0,1,2.558-2.39l.549,0a5.2,5.2,0,0,0,1.542-.218,3.576,3.576,0,0,0-4.118-1.5,3.95,3.95,0,0,0-2.851,3.6c-.784,12.716-3.713,77.45,9.887,108.389l1.816-.8C-1208.175,875.39-1205.225,811.318-1204.455,798.113Z" transform="translate(1261.682 -740.935)" fill="url(#linear-gradient-5)"/>
        <g id="Grupo_55164" data-name="Grupo 55164" transform="translate(57.05 115.538)">
          <path id="Trazado_104450" data-name="Trazado 104450" d="M-1190.634,1231.2l-1.7,2.729c-1.132,1.516,1.448,1.9,1.448,1.9.4,1.429,1.985,1.025,1.985,1.025a6.819,6.819,0,0,0,1.108.744,2,2,0,0,0,1.5-.02s.8.664,1.387.42c1.761-.736,2.652-3.191,3.5-5.611C-1182.683,1230.652-1190.634,1231.2-1190.634,1231.2Z" transform="translate(1192.622 -1207.433)" fill="#ef7b60"/>
          <path id="Trazado_104451" data-name="Trazado 104451" d="M-1158.127,1118.508a218.086,218.086,0,0,0-16.9,15.345s0,.009-.01.009c-.222.223-.45.455-.682.687-1.021,3.5-2.4,5.463-5.71,5.3a7.9,7.9,0,0,1-3.377-.968c-.707-.382-1.365-.847-1.365-1.248a5.626,5.626,0,0,1,2.434-4.635l1.733-1.2c6.223-8.367,9.1-13.244,12.659-18.533.474-.706.963-1.418,1.471-2.149a5.545,5.545,0,0,0,.256,1.248l.01.024C-1166.983,1114.337-1164.916,1117.879-1158.127,1118.508Z" transform="translate(1187.447 -1111.119)" fill="url(#linear-gradient)"/>
        </g>
        <path id="Trazado_104452" data-name="Trazado 104452" d="M-1021.211,665.068c-1.089.75-3.034.736-3.755-.194s-3.406-3.518-6.025-3.373a15.392,15.392,0,0,1-12.107,7.341c-.077-.082-.155-.155-.227-.223-.227-.208-.45-.426-.663-.658.3-.029.62-.072.939-.126,9.794-1.544,10.08-7.965,10.08-7.965,4.413-1.016,7.9,2.574,7.9,2.574.658,1.771,2.032,2.928,3.44,2.729A1.738,1.738,0,0,0-1021.211,665.068Z" transform="translate(1130.377 -633.258)" fill="#db6951" opacity="0.5"/>
        <path id="Trazado_104453" data-name="Trazado 104453" d="M-1232.564,1312.492a2.609,2.609,0,0,1-.624,1.273c.581-3.673-1.606-7.709-1.606-7.709l-3.867-1.587v-1.176l1.389.063,4.191.174-.406,3S-1232.288,1311.006-1232.564,1312.492Z" transform="translate(1286.623 -1149.822)" fill="#f28a81"/>
        <path id="Trazado_104454" data-name="Trazado 104454" d="M-1129.717,1133.853c1.911-2.4,10.477-10.449,12.407-13.918-5.109-2.587-6.717-4.712-6.726-6.667.474-.706.963-1.418,1.471-2.149a5.542,5.542,0,0,0,.256,1.248l.01.024c.629,1.945,2.7,5.487,9.484,6.116A218.064,218.064,0,0,0-1129.717,1133.853Z" transform="translate(1199.184 -995.581)" fill="#f28a81"/>
        <path id="Trazado_104455" data-name="Trazado 104455" d="M-1064.366,1067.922c-6.842-1.331-13.085-7.8-13.085-7.8,1.761-2.439,3.533-4.761,5.2-6.881a.038.038,0,0,1,.015,0l-3.687,6.363A27.334,27.334,0,0,0-1064.366,1067.922Z" transform="translate(1157.234 -949.127)" fill="#847caa" opacity="0.15"/>
        <path id="Trazado_104456" data-name="Trazado 104456" d="M-1036.321,709.7a1.9,1.9,0,0,1,.6-.766,2.586,2.586,0,0,1,.851-.46,2.469,2.469,0,0,1,.963-.127,1.919,1.919,0,0,1,.933.279c-.314.134-.595.206-.868.3l-.8.257C-1035.172,709.34-1035.68,709.531-1036.321,709.7Z" transform="translate(1124.223 -672.302)" fill="#4a1922"/>
        <path id="Trazado_104457" data-name="Trazado 104457" d="M-1014.141,683.085a2.739,2.739,0,0,1,.326-1.858,4.458,4.458,0,0,1,1.263-1.437,5.812,5.812,0,0,1,1.662-.867c.3-.087.6-.156.9-.214a6.582,6.582,0,0,1,.929-.053,7.509,7.509,0,0,1-.76.509c-.251.159-.494.324-.743.465-.478.32-.959.609-1.39.949a8.621,8.621,0,0,0-1.222,1.088A5.713,5.713,0,0,0-1014.141,683.085Z" transform="translate(1106.465 -648.479)" fill="#4a1922"/>
        <path id="Trazado_104458" data-name="Trazado 104458" d="M-806.791,1932.177c-.019.252-.053.508-.092.769l-.087.542a.422.422,0,0,1-.416.363h-16.767a.411.411,0,0,1-.387-.256,3.389,3.389,0,0,1-.159-.581Z" transform="translate(954.373 -1654.571)" fill="#231416"/>
        <path id="Trazado_104459" data-name="Trazado 104459" d="M-886.67,1217.9s-2.1-56.19-5.057-70.243c.1-5.957,0-18.785,0-18.785s-4.675-14.662-4.96-28.047c1.853-10.941,4.96-41.286,4.96-41.286s-4.549,1.892-14.077.866c-7.854,5.033-14.169,6.3-16.883,6.61.034-.406.077-.823.126-1.253a.107.107,0,0,1,0-.039,34.759,34.759,0,0,0,14.594-8.6A13.956,13.956,0,0,0-893,1050.911s4.926,8.493,6.039,16.356c-1.263,13.133-.6,25.589-2.584,59.084,0,0,6.707,13.68,7.718,26.982C-880.723,1167.845-884.624,1213.453-886.67,1217.9Z" transform="translate(1033.019 -947.257)" fill="#0b151e" opacity="0.25"/>
        <path id="Trazado_104460" data-name="Trazado 104460" d="M-988.62,782.784c-.59,4.984-4.06,12.886-8.067,20.633-.44.861-.9,1.713-1.345,2.56v0c-.373.7-1.152,2.26-2.086,4.152-.658,1.336-1.394,2.835-2.119,4.321-1.578,3.242-3.107,6.392-3.678,7.568a.021.021,0,0,0,0,.014c-.135.223-1.824,3.17-4.379,6.915a0,0,0,0,1,0,0c-.271.4-.556.813-.847,1.229-.866,1.224-1.82,2.521-2.855,3.828a55.034,55.034,0,0,1-7.742,8.062,15.962,15.962,0,0,1-2.6-.745L-1013.686,830s6.441-23.009,8.633-28.2c8.686-4.641,10.612-21.514,7.365-24.2-2.831-2.342-9.862-1.2-11.623-.871.455-.489.953-1.006,1.486-1.539a11.393,11.393,0,0,1,12.93-2.265.018.018,0,0,1,.015,0,10.961,10.961,0,0,1,3.261,2.318h0a10.758,10.758,0,0,1,2.812,5.216A6.747,6.747,0,0,1-988.62,782.784Z" transform="translate(1114.616 -723.281)" fill="#d4cdf7" opacity="0.5"/>
        <path id="Trazado_104461" data-name="Trazado 104461" d="M-1167,859.9l-1.016,1.224c-7.563-8.851-4.7-21.466-3.953-25.492,3.426-13.568,1.882-16.312,1.882-16.312l-1.611-.581a5.432,5.432,0,0,0-.469-.992l-.3-.439a6.26,6.26,0,0,0,2.5.672.873.873,0,0,0,.111,0c.053.145.106.29.155.445.063.193.116.4.169.6.044.16.077.324.111.493.044.213.082.431.111.658.024.126.039.257.053.392.01.068.019.135.024.208.019.165.034.334.048.508,0,.126.014.247.019.377s.015.256.015.387a26.882,26.882,0,0,1-.368,4.95l-.237,1.5C-1171.669,840.581-1173.827,854.261-1167,859.9Z" transform="translate(1234.022 -759.767)" fill="#f19b6c"/>
        <path id="Trazado_104462" data-name="Trazado 104462" d="M-1192.351,1239.491l-.939,1.429a1.537,1.537,0,0,0,.431,2.121l.928.619.1.209a1.1,1.1,0,0,0,1.509.475l.981-.533-.427-.691s-1.316-.836-1.379-.9-.946-1.024-.946-1.024l-.307-.209Z" transform="translate(1250.41 -1098.614)" fill="#ef7b60"/>
        <path id="Trazado_104463" data-name="Trazado 104463" d="M-1111.589,830.575a10.1,10.1,0,0,1-.711,2.008c-.61-.436-1.253-.919-1.945-1.452-5.023-3.886-12.823-9.451-26.871-17.551l27.843,15.378s1.515-6.3-.053-11.536c.15.058.3.111.45.169C-1112.779,817.843-1110.171,824.913-1111.589,830.575Z" transform="translate(1208.333 -756.773)" fill="#db6951" opacity="0.5"/>
        <path id="Trazado_104464" data-name="Trazado 104464" d="M-930.119,843.56s12.552-14.512,5.676-29.881c.943,2.584,1.471,6.354.527,11.7-1.384,7.844-5.391,11.328-8.008,12.8a10.967,10.967,0,0,1-2.173.948c-.078.14-.155.281-.228.421v0c-.373.7-1.152,2.26-2.086,4.152-.658,1.336-1.394,2.836-2.119,4.321-1.578,3.242-3.107,6.392-3.678,7.568a.022.022,0,0,0,0,.014c-.1.17-1.118,1.936-2.729,4.433,0,1.713-.053,3.187-.028,4.693,0,.019,0,.038,0,.057.009.509.028,1.022.062,1.55v0a35.744,35.744,0,0,0,2.1,9.538,21.045,21.045,0,0,0,2.357-.566c.59-.169,1.277-.392,2.037-.668a38.2,38.2,0,0,1-2.322-14.728Z" transform="translate(1050.908 -756.852)" fill="#16293c" opacity="0.5"/>
        <path id="Trazado_104465" data-name="Trazado 104465" d="M-1030.778,796.592s-3.605,26.455-7.9,36.829c-4.229,10.215-12.17,13.723-12.417,13.83,3.847-4.878,7.133-8.638,8.439-10.1-.256-.431-.522-.818-.387-1.2a.981.981,0,0,1,1.026-.663s-.765-.6-.392-1.171a1.014,1.014,0,0,1,1.186-.431c.314-1.887.793-4.65,1.379-7.815.339-1.849.716-3.828,1.123-5.855v0c1.684-8.347,3.828-17.444,5.782-20.759A17.888,17.888,0,0,1-1030.778,796.592Z" transform="translate(1136.082 -743.138)" fill="#fff" opacity="0.25"/>
        <path id="Trazado_104466" data-name="Trazado 104466" d="M-913.566,1206.605c-6.692-42.08-10.9-45.607-10.423-57.487C-923.99,1149.118-905.045,1169.548-913.566,1206.605Z" transform="translate(1034.094 -1026.08)" fill="#1b4166" opacity="0.5"/>
        <path id="Trazado_104467" data-name="Trazado 104467" d="M-856.265,1546.674a4.83,4.83,0,0,1-.048-.692c-.092-29.876-8.7-59.558-12.77-71.467-1.069-3.116-1.892-6.233-1.926-6.383.276.228,9.025,7.646,12.751,24.4C-855.021,1507.105-855.936,1538.084-856.265,1546.674Z" transform="translate(991.542 -1282.124)" fill="#1b4166" opacity="0.5"/>
        <path id="Trazado_104468" data-name="Trazado 104468" d="M-990.137,585.6a8.959,8.959,0,0,1,4.258-1.366,4.246,4.246,0,0,1,2.21.52,6.288,6.288,0,0,1,1.7,1.52,6.408,6.408,0,0,1,1.294,4.277,11.964,11.964,0,0,1-1.146,4.337,15.934,15.934,0,0,0,.663-2.139,9.774,9.774,0,0,0,.3-2.2,7.223,7.223,0,0,0-.285-2.183,5.886,5.886,0,0,0-1.014-1.94,6.078,6.078,0,0,0-1.615-1.478,4.233,4.233,0,0,0-2.1-.525,7.543,7.543,0,0,0-2.186.342A10.641,10.641,0,0,0-990.137,585.6Z" transform="translate(1087.155 -572.696)" fill="#63212d"/>
        <path id="Trazado_104469" data-name="Trazado 104469" d="M-990.137,591.594a8.327,8.327,0,0,1,4.092.047,3.952,3.952,0,0,1,1.792,1.055,4.331,4.331,0,0,1,1,1.833,4.7,4.7,0,0,1,.109,2.083,3.38,3.38,0,0,1-.991,1.827,4.1,4.1,0,0,1-1.821.979,5.834,5.834,0,0,1-2.05.108,4.857,4.857,0,0,0,3.741-1.219,3.315,3.315,0,0,0,.905-1.735,4.485,4.485,0,0,0-.125-1.977,4.1,4.1,0,0,0-.922-1.745,3.946,3.946,0,0,0-1.69-1.031,7.154,7.154,0,0,0-1.994-.338A9.81,9.81,0,0,0-990.137,591.594Z" transform="translate(1087.155 -578.418)" fill="#63212d"/>
        <path id="Trazado_104470" data-name="Trazado 104470" d="M-1047.073,579.185c-4.5-4.128-9.8-.74-9.8-.74s-4.689,1.113-4.863,4.65c-1.2,11.139-10.723,11.435-10.723,11.435a.058.058,0,0,1-.01-.014c-2.047-3.484,1.684-15.7,10.6-16.864a11.8,11.8,0,0,1,4.757.392,4.7,4.7,0,0,1,1.892-1.113A7.912,7.912,0,0,1-1047.073,579.185Z" transform="translate(1153.674 -566.552)" fill="#992c2c" opacity="0.5"/>
        <path id="Trazado_104471" data-name="Trazado 104471" d="M-991.843,704.757c.821,1.041.376,2.76-.994,3.841s-3.146,1.113-3.966.072-.376-2.76.993-3.841S-992.664,703.716-991.843,704.757Z" transform="translate(1092.836 -668.82)" fill="#db6951" opacity="0.15"/>
        <path id="Trazado_104472" data-name="Trazado 104472" d="M-1009.209,738.323a18.522,18.522,0,0,1-2.492-1.834,2.046,2.046,0,0,1,1.558.232A2.109,2.109,0,0,1-1009.209,738.323Z" transform="translate(1104.463 -694.852)" fill="#db6951" opacity="0.15"/>
      </g>
    </g>
  </g>
</svg>
