<svg id="Grupo_54931" data-name="Grupo 54931" xmlns="http://www.w3.org/2000/svg" width="58.528" height="57.536" viewBox="0 0 58.528 57.536">
  <path id="Trazado_103877" data-name="Trazado 103877" d="M450.976,185.812h50.592a2.969,2.969,0,0,1,2.976,2.976v49.6a2.969,2.969,0,0,1-2.976,2.976H450.976A2.969,2.969,0,0,1,448,238.388v-49.6a2.969,2.969,0,0,1,2.976-2.976Zm0,0" transform="translate(-447.008 -184.82)" fill="#0093b9"/>
  <path id="Trazado_103878" data-name="Trazado 103878" d="M521.675,396.563,511,407.24a11.818,11.818,0,0,1-6.038,3.232,11.818,11.818,0,0,1,3.232-6.038l10.676-10.676Zm0,0" transform="translate(-494.551 -358.385)" fill="#cbcbca"/>
  <path id="Trazado_103879" data-name="Trazado 103879" d="M649.945,259.75l13.908-13.908a1.984,1.984,0,0,1,2.806,2.806l-13.908,13.908Zm0,0" transform="translate(-615.565 -234.44)" fill="#cbcbca"/>
  <path id="Trazado_103880" data-name="Trazado 103880" d="M647.84,321.884h-9.92a.992.992,0,0,1,0-1.984h4.243a2.958,2.958,0,0,0,2.943-2.534l2.723-18.151-1.962-.295-2.722,18.151a1,1,0,0,1-.982.845H637.92a2.976,2.976,0,0,0,0,5.952h9.92a.992.992,0,0,1,0,1.984H630.976a2.976,2.976,0,1,0,0,5.952h12.9V329.82h-12.9a.992.992,0,1,1,0-1.984H647.84a2.976,2.976,0,0,0,0-5.952Zm0,0" transform="translate(-597.248 -279.228)"/>
  <path id="Trazado_103881" data-name="Trazado 103881" d="M638.894,258.375a10.857,10.857,0,0,0,6.018,1.81V258.2a8.891,8.891,0,0,1-3.848-.871l12.986-12.986a2.976,2.976,0,1,0-4.208-4.21L636.855,253.12a8.894,8.894,0,0,1-.871-3.848H634a10.913,10.913,0,0,0,4.894,9.1Zm-.957-3.532,11.2-11.2,1.4,1.4-11.2,11.2a8.9,8.9,0,0,1-1.4-1.4Zm14.01-13.6a.992.992,0,0,1,.7,1.694l-.7.7-1.4-1.4.7-.7a.982.982,0,0,1,.7-.291Zm0,0" transform="translate(-602.256 -229.432)"/>
  <path id="Trazado_103882" data-name="Trazado 103882" d="M514.409,379.622a10.857,10.857,0,0,0-6.018-1.81V379.8a8.892,8.892,0,0,1,3.848.871l-9.756,9.755a12.774,12.774,0,0,0-3.5,6.545.992.992,0,0,0,1.168,1.168,12.774,12.774,0,0,0,6.545-3.5l9.756-9.756a8.892,8.892,0,0,1,.871,3.848H519.3a10.913,10.913,0,0,0-4.894-9.1Zm-9.12,13.608a10.792,10.792,0,0,1-3.9,2.5,10.794,10.794,0,0,1,2.5-3.9l10.076-10.076a8.9,8.9,0,0,1,1.4,1.4Zm0,0" transform="translate(-489.544 -345.076)"/>
  <path id="Trazado_103883" data-name="Trazado 103883" d="M496.56,179.812H445.968A3.972,3.972,0,0,0,442,183.78v49.6a3.972,3.972,0,0,0,3.968,3.968H496.56a3.972,3.972,0,0,0,3.968-3.968v-49.6a3.972,3.972,0,0,0-3.968-3.968Zm1.984,53.568a1.986,1.986,0,0,1-1.984,1.984H445.968a1.986,1.986,0,0,1-1.984-1.984v-49.6a1.986,1.986,0,0,1,1.984-1.984H496.56a1.986,1.986,0,0,1,1.984,1.984Zm0,0" transform="translate(-442 -179.812)"/>
  <rect id="Rectángulo_5142" data-name="Rectángulo 5142" width="1.589" height="1.589" transform="translate(48.73 50.697)"/>
  <rect id="Rectángulo_5143" data-name="Rectángulo 5143" width="1.589" height="2.383" transform="translate(4.248 3.832)"/>
  <rect id="Rectángulo_5144" data-name="Rectángulo 5144" width="2.383" height="2.383" transform="translate(10.603 3.832)"/>
  <rect id="Rectángulo_5145" data-name="Rectángulo 5145" width="2.383" height="2.383" transform="translate(17.752 3.832)"/>
  <rect id="Rectángulo_5146" data-name="Rectángulo 5146" width="1.589" height="2.383" transform="translate(24.901 3.832)"/>
  <rect id="Rectángulo_5147" data-name="Rectángulo 5147" width="1.589" height="2.383" transform="translate(32.049 3.832)"/>
  <rect id="Rectángulo_5148" data-name="Rectángulo 5148" width="2.383" height="2.383" transform="translate(38.404 3.832)"/>
  <rect id="Rectángulo_5149" data-name="Rectángulo 5149" width="2.383" height="2.383" transform="translate(45.553 3.832)"/>
  <rect id="Rectángulo_5150" data-name="Rectángulo 5150" width="1.589" height="2.383" transform="translate(52.702 3.832)"/>
  <rect id="Rectángulo_5151" data-name="Rectángulo 5151" width="1.589" height="1.589" transform="translate(4.248 10.186)"/>
  <rect id="Rectángulo_5152" data-name="Rectángulo 5152" width="1.589" height="2.383" transform="translate(4.248 15.746)"/>
  <rect id="Rectángulo_5153" data-name="Rectángulo 5153" width="1.589" height="1.589" transform="translate(4.248 22.101)"/>
  <rect id="Rectángulo_5154" data-name="Rectángulo 5154" width="1.589" height="2.383" transform="translate(4.248 27.661)"/>
  <rect id="Rectángulo_5155" data-name="Rectángulo 5155" width="1.589" height="1.589" transform="translate(4.248 34.016)"/>
  <rect id="Rectángulo_5156" data-name="Rectángulo 5156" width="1.589" height="2.383" transform="translate(4.248 39.576)"/>
  <rect id="Rectángulo_5157" data-name="Rectángulo 5157" width="1.589" height="1.589" transform="translate(4.248 45.931)"/>
  <rect id="Rectángulo_5158" data-name="Rectángulo 5158" width="1.589" height="2.383" transform="translate(4.248 51.491)"/>
</svg>
