<svg id="Grupo_54953" data-name="Grupo 54953" xmlns="http://www.w3.org/2000/svg" xmlns:xlink="http://www.w3.org/1999/xlink" width="56.411" height="58" viewBox="0 0 56.411 58">
  <defs>
    <clipPath id="clip-path">
      <rect id="SVGID" width="56.411" height="58" fill="none"/>
    </clipPath>
  </defs>
  <path id="Trazado_103911" data-name="Trazado 103911" d="M-804.284-270.69v16.325h-54.365V-270.69c0-6.605,4.752-12.009,10.755-12.417q.363-.027.731-.026h31.392c6.343,0,11.487,5.571,11.487,12.443Zm0,0" transform="translate(859.686 311.448)" fill="#f4bc8e"/>
  <path id="Trazado_103912" data-name="Trazado 103912" d="M-487.73-270.69v16.325h-2.844V-270.69a12.442,12.442,0,0,0-12.441-12.443h2.843A12.443,12.443,0,0,1-487.73-270.69Zm0,0" transform="translate(543.133 311.448)" fill="#efa66f"/>
  <path id="Trazado_103913" data-name="Trazado 103913" d="M-744.667-261.268h-18.962v-28.547A1.185,1.185,0,0,1-762.444-291h10.684v16.744a14.9,14.9,0,0,0,7.093,12.988Zm0,0" transform="translate(774.95 318.351)" fill="#915040"/>
  <path id="Trazado_103914" data-name="Trazado 103914" d="M-512.77-377.569a3.2,3.2,0,0,1-3.2,3.2,3.2,3.2,0,0,1-3.2-3.2,3.2,3.2,0,0,1,3.2-3.2,3.2,3.2,0,0,1,3.2,3.2Zm0,0" transform="translate(558.293 400.028)" fill="#efa66f"/>
  <path id="Trazado_103915" data-name="Trazado 103915" d="M-763.633-377.569a3.2,3.2,0,0,1-3.2,3.2,3.2,3.2,0,0,1-3.2-3.2,3.2,3.2,0,0,1,3.2-3.2,3.2,3.2,0,0,1,3.2,3.2Zm0,0" transform="translate(780.95 400.028)" fill="#efa66f"/>
  <path id="Trazado_103916" data-name="Trazado 103916" d="M-713.9-541.035v-2.395a1.156,1.156,0,0,0-1.363-1.072l-11.941,1.665a4.945,4.945,0,0,0-4.383,4.277,8.1,8.1,0,0,0-6.913,7.733v21.862s.963,11.008,12.4,11.765a1.144,1.144,0,0,0,1.262-1.083V-503s1.137,8.22,8.939,9.056a1.148,1.148,0,0,0,1.311-1.079v-7.311l.97.993a1.253,1.253,0,0,0,1.84-.084c1.086-1.377,2.706-4.345,2.706-9.794v-29.226a1.155,1.155,0,0,0-1.363-1.073Zm0,0" transform="translate(752.006 545.432)" fill="#565656"/>
  <path id="Trazado_103917" data-name="Trazado 103917" d="M-686.334-410.648v-6.3a7.824,7.824,0,0,0-7.824-7.824h-6.39a7.824,7.824,0,0,0-7.824,7.824v6.3a2.443,2.443,0,0,0,3.565,2.169l6.331-3.278a2.443,2.443,0,0,1,2.246,0l6.33,3.278a2.443,2.443,0,0,0,3.566-2.169Zm0,0" transform="translate(725.571 438.797)" fill="#efa66f"/>
  <path id="Trazado_103918" data-name="Trazado 103918" d="M-678.265-399.162a.962.962,0,0,1-.446-.113l-6.33-3.278a3.936,3.936,0,0,0-1.8-.438,3.933,3.933,0,0,0-1.8.438l-6.33,3.278a.962.962,0,0,1-.446.113.979.979,0,0,1-.976-.977v-6.3a6.363,6.363,0,0,1,6.355-6.355h6.39a6.362,6.362,0,0,1,6.355,6.355v6.3a.943.943,0,0,1-.292.7,1,1,0,0,1-.683.281Zm0,0" transform="translate(715.059 428.245)" fill="#f4bc8e"/>
  <path id="Trazado_103919" data-name="Trazado 103919" d="M-643.91-345.884h-3.133a2.2,2.2,0,0,1-2.183-2.5l.458-3.393a3.322,3.322,0,0,1,3.292-2.877,3.321,3.321,0,0,1,3.292,2.877l.459,3.393a2.2,2.2,0,0,1-2.183,2.5Zm0,0" transform="translate(673.696 376.76)" fill="#ff756e"/>
  <path id="Trazado_103920" data-name="Trazado 103920" d="M-623.784-345.888H-625.7a2.2,2.2,0,0,0,2.183-2.5l-.459-3.393a3.309,3.309,0,0,0-1.106-2.055,3.283,3.283,0,0,0-1.226-.679,3.25,3.25,0,0,1,.958-.142,3.31,3.31,0,0,1,2.185.821,3.309,3.309,0,0,1,1.106,2.055l.459,3.393a2.2,2.2,0,0,1-2.184,2.5Zm0,0" transform="translate(653.456 376.763)" fill="#fc4830"/>
  <path id="Trazado_103921" data-name="Trazado 103921" d="M-667.156-260.527a6.1,6.1,0,0,0,5.966,4.843,6.1,6.1,0,0,0,5.966-4.843Zm0,0" transform="translate(689.409 293.388)" fill="#f1eded"/>
  <path id="Trazado_103922" data-name="Trazado 103922" d="M-588.595-427.289h-5.423a1.185,1.185,0,0,1-1.185-1.185V-430.5a1.185,1.185,0,0,1,1.363-1.171l5.423.825a1.185,1.185,0,0,1,1.006,1.171v1.2a1.185,1.185,0,0,1-1.185,1.184Zm0,0" transform="translate(625.703 445.26)" fill="#82807f"/>
  <g id="Grupo_54952" data-name="Grupo 54952" transform="translate(0 0)">
    <g id="Grupo_54951" data-name="Grupo 54951" clip-path="url(#clip-path)">
      <path id="Trazado_103923" data-name="Trazado 103923" d="M-704.161-427.615h5.021a1.1,1.1,0,0,0,1.1-1.1v-1.877a1.1,1.1,0,0,0-1.262-1.084l-5.021.763a1.1,1.1,0,0,0-.932,1.084v1.114a1.1,1.1,0,0,0,1.1,1.1Zm0,0" transform="translate(723.63 445.342)" fill="#82807f"/>
      <path id="Trazado_103924" data-name="Trazado 103924" d="M-822.286-520.633a10.665,10.665,0,0,1,5.348,1.434.844.844,0,0,0,.426.115.85.85,0,0,0,.736-.423.849.849,0,0,0-.309-1.161,12.362,12.362,0,0,0-6.2-1.664h-1.268V-525.8a3.817,3.817,0,0,0,3.579-3.8,3.817,3.817,0,0,0-3.579-3.805v-4.623a.849.849,0,0,0-.849-.85.849.849,0,0,0-.849.85v20.537c0,5.357-1.469,8.191-2.345,9.4a.234.234,0,0,1-.182.1.242.242,0,0,1-.2-.083l-.682-.762V-513.1a.85.85,0,0,0-.85-.849.849.849,0,0,0-.849.849v11.983a.252.252,0,0,1-.085.189.231.231,0,0,1-.181.058,7.824,7.824,0,0,1-6.171-4.406,13.152,13.152,0,0,1-1.353-3.965v-1.862a.85.85,0,0,0-.85-.85.85.85,0,0,0-.849.85v6.692a.248.248,0,0,1-.08.184.233.233,0,0,1-.178.064,10.522,10.522,0,0,1-8.994-5.74,15.394,15.394,0,0,1-1.694-5.345v-22.061a7.143,7.143,0,0,1,5.644-6.968h3.637a.85.85,0,0,0,.85-.85.85.85,0,0,0-.85-.85h-2.691a3.936,3.936,0,0,1,3.146-2.634L-830-550.3a.247.247,0,0,1,.2.057.245.245,0,0,1,.086.188v2.421a.848.848,0,0,0,.3.644.848.848,0,0,0,.682.2l3.2-.488a.244.244,0,0,1,.2.057.244.244,0,0,1,.086.188v5.308a.849.849,0,0,0,.849.85.849.849,0,0,0,.849-.85v-5.308a1.944,1.944,0,0,0-.678-1.476,1.943,1.943,0,0,0-1.562-.448l-2.227.339v-1.432a1.944,1.944,0,0,0-.678-1.476,1.945,1.945,0,0,0-1.562-.448l-11.056,1.683A5.633,5.633,0,0,0-846-545.824a8.85,8.85,0,0,0-6.491,8.51v3.907a3.817,3.817,0,0,0-3.579,3.805,3.817,3.817,0,0,0,3.579,3.8v2.571h-.906a1.945,1.945,0,0,0-1.677.963,12.319,12.319,0,0,0-7.736,3.868,12.326,12.326,0,0,0-3.318,8.43v15.114a.849.849,0,0,0,.85.849.849.849,0,0,0,.849-.849v-15.114a10.631,10.631,0,0,1,2.862-7.272,10.627,10.627,0,0,1,6.224-3.278v15.752a.85.85,0,0,0,.85.849.85.85,0,0,0,.85-.849V-521.28a.247.247,0,0,1,.247-.247h.906v6.313c0,.023,0,.045,0,.068a16.8,16.8,0,0,0,1.867,5.994,12.3,12.3,0,0,0,6.66,5.9,14.691,14.691,0,0,0,6.553,9.1.849.849,0,0,0,.469.142.847.847,0,0,0,.708-.38.85.85,0,0,0-.238-1.178,13.213,13.213,0,0,1-5.594-7.162,14.777,14.777,0,0,0,1.835.247,1.939,1.939,0,0,0,1.457-.514,1.959,1.959,0,0,0,.614-1.244,9.5,9.5,0,0,0,7.335,5.045,1.974,1.974,0,0,0,.223.013,1.934,1.934,0,0,0,1.286-.49,1.952,1.952,0,0,0,.654-1.458V-506.5a1.94,1.94,0,0,0,.97.2,1.931,1.931,0,0,0,1.471-.8c1.216-1.684,2.666-4.855,2.666-10.4v-3.14h1.268Zm-32.09-8.969a2.117,2.117,0,0,1,1.88-2.1v4.2a2.116,2.116,0,0,1-1.88-2.1Zm32.7,0a2.117,2.117,0,0,1-1.88,2.1v-4.2a2.117,2.117,0,0,1,1.88,2.1Zm0,0" transform="translate(866.245 552.001)"/>
    </g>
  </g>
  <path id="Trazado_103925" data-name="Trazado 103925" d="M-407.864-253.939a.917.917,0,0,0-1.293-.115.918.918,0,0,0-.114,1.293,11.533,11.533,0,0,1,2.686,7.4v16.325a.918.918,0,0,0,.918.918.917.917,0,0,0,.918-.918v-16.325a13.372,13.372,0,0,0-3.115-8.575Zm0,0" transform="translate(461.07 286.122)"/>
  <path id="Trazado_103926" data-name="Trazado 103926" d="M-770.2-112.691a.918.918,0,0,0-.918.918v6.954a.918.918,0,0,0,.918.918.917.917,0,0,0,.918-.918v-6.954a.918.918,0,0,0-.918-.918Zm0,0" transform="translate(781.986 161.902)"/>
  <path id="Trazado_103927" data-name="Trazado 103927" d="M-695.34-419.917a3.357,3.357,0,0,0,1.745-.493,3.335,3.335,0,0,0,1.613-2.871v-6.3a8.725,8.725,0,0,0-.966-3.995,2.094,2.094,0,0,0,.6-1.463v-1.2a2.09,2.09,0,0,0-1.787-2.079l-5.424-.825a2.1,2.1,0,0,0-1.686.484,2.159,2.159,0,0,0-.316.339h-4.7a2.131,2.131,0,0,0-.316-.339,2.1,2.1,0,0,0-1.686-.484l-5.424.825a2.091,2.091,0,0,0-1.787,2.079v1.2a2.092,2.092,0,0,0,.589,1.455,8.717,8.717,0,0,0-.971,4v6.3a3.335,3.335,0,0,0,1.613,2.871,3.355,3.355,0,0,0,1.745.493,3.357,3.357,0,0,0,1.547-.38l2.423-1.255a3.106,3.106,0,0,0,.692,1.361,3.121,3.121,0,0,0,2.349,1.067h3.133a3.123,3.123,0,0,0,2.35-1.067,3.116,3.116,0,0,0,.692-1.361l2.422,1.255a3.359,3.359,0,0,0,1.547.38Zm-4.8-17.152a.263.263,0,0,1,.093-.2.266.266,0,0,1,.172-.065.257.257,0,0,1,.042,0l5.424.825a.265.265,0,0,1,.227.264v1.2a.267.267,0,0,1-.267.267h-5.423a.267.267,0,0,1-.267-.267Zm-13.492.825a.265.265,0,0,1,.227-.264l5.424-.825.042,0a.267.267,0,0,1,.173.065.265.265,0,0,1,.092.2v2.028a.267.267,0,0,1-.267.267h-5.423a.268.268,0,0,1-.267-.267Zm1.844,14.317a1.494,1.494,0,0,1-1.494-.052,1.493,1.493,0,0,1-.732-1.3v-6.3a6.886,6.886,0,0,1,.87-3.356h5.2a2.1,2.1,0,0,0,2.1-2.1v-1.447h3.864v1.447a2.1,2.1,0,0,0,2.1,2.1h5.191a6.889,6.889,0,0,1,.87,3.356v6.3a1.493,1.493,0,0,1-.732,1.3,1.494,1.494,0,0,1-1.494.052l-3.351-1.735-.323-2.394a4.254,4.254,0,0,0-4.2-3.672,4.253,4.253,0,0,0-4.2,3.672l-.324,2.394Zm10.41.528a1.268,1.268,0,0,1-.968.44h-3.133a1.269,1.269,0,0,1-.968-.44,1.268,1.268,0,0,1-.306-1.019l.458-3.392a2.412,2.412,0,0,1,2.382-2.082,2.412,2.412,0,0,1,2.382,2.082l.459,3.392a1.269,1.269,0,0,1-.306,1.019Zm0,0" transform="translate(732.137 451.495)"/>
  <path id="Trazado_103928" data-name="Trazado 103928" d="M-680.124-362.145h-.016a.918.918,0,0,0-.918.913.918.918,0,0,0,.914.922h.016a.918.918,0,0,0,.918-.913.918.918,0,0,0-.914-.922Zm0,0" transform="translate(702.123 383.642)"/>
  <path id="Trazado_103929" data-name="Trazado 103929" d="M-570.091-360.31h.017a.918.918,0,0,0,.918-.913.918.918,0,0,0-.914-.922h-.017a.917.917,0,0,0-.918.913.917.917,0,0,0,.913.922Zm0,0" transform="translate(604.53 383.642)"/>
  <path id="Trazado_103930" data-name="Trazado 103930" d="M-661.793-268.012h-11.932a.916.916,0,0,0-.712.339.916.916,0,0,0-.186.766,7.038,7.038,0,0,0,6.864,5.574,7.038,7.038,0,0,0,6.864-5.574.918.918,0,0,0-.186-.766.919.919,0,0,0-.713-.339Zm-5.966,4.844a5.2,5.2,0,0,1-4.7-3.008h9.4a5.2,5.2,0,0,1-4.7,3.008Zm0,0" transform="translate(695.978 299.937)"/>
  <path id="Trazado_103931" data-name="Trazado 103931" d="M-453.705-244.84a.918.918,0,0,0,0-1.3.917.917,0,0,0-1.3,0l-2.631,2.631a.918.918,0,0,0,0,1.3.918.918,0,0,0,.649.269.916.916,0,0,0,.649-.269Zm0,0" transform="translate(503.551 280.879)"/>
  <path id="Trazado_103932" data-name="Trazado 103932" d="M-442.977-223.383a.917.917,0,0,0,0-1.3.918.918,0,0,0-1.3,0l-2.631,2.631a.917.917,0,0,0,0,1.3.915.915,0,0,0,.649.269.917.917,0,0,0,.649-.269Zm0,0" transform="translate(494.138 261.842)"/>
  <path id="Trazado_103933" data-name="Trazado 103933" d="M-433.545-203.224l-2.63,2.631a.917.917,0,0,0,0,1.3.912.912,0,0,0,.648.269.912.912,0,0,0,.649-.269l2.631-2.631a.918.918,0,0,0,0-1.3.919.919,0,0,0-1.3,0Zm0,0" transform="translate(484.724 242.806)"/>
  <path id="Trazado_103934" data-name="Trazado 103934" d="M-813.948-246.14a.917.917,0,0,0-1.3,0,.917.917,0,0,0,0,1.3l2.631,2.631a.915.915,0,0,0,.649.269.915.915,0,0,0,.648-.269.917.917,0,0,0,0-1.3Zm0,0" transform="translate(821.841 280.882)"/>
  <path id="Trazado_103935" data-name="Trazado 103935" d="M-824.678-224.681a.918.918,0,0,0-1.3,0,.917.917,0,0,0,0,1.3l2.631,2.631a.916.916,0,0,0,.649.269.916.916,0,0,0,.649-.269.919.919,0,0,0,0-1.3Zm0,0" transform="translate(831.256 261.842)"/>
  <path id="Trazado_103936" data-name="Trazado 103936" d="M-835.406-203.224a.919.919,0,0,0-1.3,0,.918.918,0,0,0,0,1.3l2.631,2.631a.913.913,0,0,0,.649.269.913.913,0,0,0,.649-.269.917.917,0,0,0,0-1.3Zm0,0" transform="translate(840.668 242.806)"/>
  <path id="Trazado_103937" data-name="Trazado 103937" d="M-482.461-147.074a.917.917,0,0,0-.918.918v11.169a.918.918,0,0,0,.918.918.918.918,0,0,0,.918-.918v-11.169a.918.918,0,0,0-.918-.918Zm0,0" transform="translate(526.826 192.07)"/>
</svg>
