<svg xmlns="http://www.w3.org/2000/svg" width="32.792" height="66.967" viewBox="0 0 32.792 66.967">
  <g id="Grupo_54961" data-name="Grupo 54961" transform="translate(-131.001 0)">
    <path id="Trazado_103999" data-name="Trazado 103999" d="M198.543,7.621a21.52,21.52,0,0,0,7.562,5.847,21.526,21.526,0,0,0,7.562-5.847l-.133,10.915-4.158,6.757-8.713-3.861Z" transform="translate(-58.708 -6.625)" fill="#515a5e"/>
    <path id="Trazado_104000" data-name="Trazado 104000" d="M253.663,242c1.344-1.271,4.627-.554,4.627-.554l.822-6.2-4.678-24.95L245.6,211.51Z" transform="translate(-99.608 -182.792)" fill="#515a5e"/>
    <path id="Trazado_104001" data-name="Trazado 104001" d="M166.16,71.444c-1.274-9.5-4.573-26.244-7.186-33L161,72.189a63.821,63.821,0,0,1-6.979.408,68.294,68.294,0,0,1-9.884-.786c-3.3-.492-5.515-1.033-5.515-1.033.963-11.566,3.437-33.526,5.36-38.074.943-2.225,2.477-5.717,1.514-8.186-3.163-7.407.963-16.893.963-16.893a49.769,49.769,0,0,0,2.775,6.177h0a26.851,26.851,0,0,0,4.787,6.686c4.538-4.289,7.563-12.864,7.563-12.864s4.124,9.486.961,16.893c-.961,2.469.572,5.962,1.513,8.186,1.924,4.548,4.4,26.508,5.362,38.074C169.423,70.778,168.178,71.083,166.16,71.444Z" transform="translate(-6.627 -6.628)" fill="#fb6572"/>
    <path id="Trazado_104002" data-name="Trazado 104002" d="M151.751,26.684c0,3.118-6.73,9.69-7.611,45.128-3.3-.492-5.515-1.033-5.515-1.033.963-11.566,3.437-33.526,5.36-38.074.943-2.225,2.477-5.717,1.514-8.186-3.163-7.407.963-16.893.963-16.893a49.769,49.769,0,0,0,2.775,6.177h0C147.592,17.674,151.751,23.565,151.751,26.684Z" transform="translate(-6.627 -6.628)" fill="#ea394e"/>
    <path id="Trazado_104003" data-name="Trazado 104003" d="M136,59.257q.05,0,.1,0a1,1,0,0,0,.991-.9c1.3-13.367,3.278-28.414,4.751-31.9l.072-.17c1.011-2.382,2.539-5.982,1.453-8.767,0-.01-.008-.019-.012-.029-2.018-4.725-.848-10.47.108-13.663.309.713.685,1.54,1.123,2.427a29.385,29.385,0,0,0,5.691,8.324,1,1,0,0,0,1.37,0,29.408,29.408,0,0,0,5.692-8.324c.438-.887.814-1.714,1.122-2.427.956,3.194,2.125,8.938.107,13.663,0,.01-.008.019-.012.03-.888,2.28,0,5.122.753,7.063a1,1,0,0,0,1.861-.718c-.627-1.626-1.388-3.974-.761-5.608a20.447,20.447,0,0,0,.761-11.788A30.679,30.679,0,0,0,159.435.6a1,1,0,0,0-1.7-.214h0a20.906,20.906,0,0,1-6.775,5.367A20.886,20.886,0,0,1,144.2.4h0l-.011-.014h0a1,1,0,0,0-1.7.213,30.673,30.673,0,0,0-1.732,5.878,20.444,20.444,0,0,0,.76,11.788c.78,2.029-.553,5.17-1.436,7.25l-.073.172c-1.661,3.929-3.678,19.953-4.9,32.48A1,1,0,0,0,136,59.257Zm14.96-51.416a.994.994,0,0,0,.393-.081,19.658,19.658,0,0,0,4.293-2.585,31.249,31.249,0,0,1-4.687,7.268,31.256,31.256,0,0,1-4.683-7.265,19.655,19.655,0,0,0,4.29,2.583A1,1,0,0,0,150.957,7.841Z" transform="translate(-3.56 0)"/>
    <path id="Trazado_104004" data-name="Trazado 104004" d="M163.79,243.367c-.907-10.9-2.992-29.379-4.788-36.34a1,1,0,1,0-1.931.5c1.721,6.669,3.723,24.228,4.659,35.142-.352.076-.808.17-1.351.275-1.314-9.276-4.453-25.34-7.1-32.19a1,1,0,0,0-1.926.419l1.972,32.8c-2.065.2-4.055.3-5.927.3a72.923,72.923,0,0,1-14.332-1.6q.045-.513.092-1.047a1,1,0,0,0-1.987-.175c-.058.667-.114,1.309-.165,1.923a1,1,0,0,0,.756,1.05,73.581,73.581,0,0,0,15.636,1.847,64.631,64.631,0,0,0,7.089-.414,1,1,0,0,0,.885-1.051l-.346-5.761a5.5,5.5,0,0,1,2.712-.226c.294,1.812.567,3.632.808,5.434a1,1,0,0,0,1.163.849c2.026-.362,3.272-.665,3.325-.678A1,1,0,0,0,163.79,243.367Zm-6.9-6.608a7.023,7.023,0,0,0-1.992.211L153.874,219.9c1.178,4.728,2.463,10.7,3.524,16.883C157.236,236.77,157.067,236.762,156.893,236.759Z" transform="translate(0 -179.299)"/>
  </g>
</svg>
