<svg xmlns="http://www.w3.org/2000/svg" xmlns:xlink="http://www.w3.org/1999/xlink" width="56" height="56" viewBox="0 0 56 56">
  <defs>
    <clipPath id="clip-path">
      <rect id="SVGID" width="56" height="56" fill="none"/>
    </clipPath>
  </defs>
  <g id="Grupo_54965" data-name="Grupo 54965" transform="translate(-216 -126)">
    <path id="Trazado_104011" data-name="Trazado 104011" d="M333.867,184.267H326.4L318,137.6l6.533-5.6h11.2l6.533,5.6Zm0,0" transform="translate(-86.133 -5.067)" fill="#057998"/>
    <rect id="Rect치ngulo_5180" data-name="Rect치ngulo 5180" width="12" height="3" transform="translate(238 127)" fill="#006b87"/>
    <path id="Trazado_104012" data-name="Trazado 104012" d="M414,168.4v13.067a4.666,4.666,0,0,0,4.667,4.667H428l-.324-7.123,1.89.486,4.034,1.037,4.667-16.8L434.533,143.2l-11.2-5.6L416.8,132Zm13.067-2.8,1.207-10.265,2.526,8.4-1.724,4.966-1.652,4.758Zm0,0" transform="translate(-167.2 -5.067)" fill="#0093b9"/>
    <path id="Trazado_104013" data-name="Trazado 104013" d="M467.87,384H462v1.867a1.866,1.866,0,0,0,1.867,1.867h4.158Zm0,0" transform="translate(-207.733 -217.867)" fill="#057998"/>
    <path id="Trazado_104014" data-name="Trazado 104014" d="M500.3,372.68l.252,5.552,1.892.487-.492-10.8Zm0,0" transform="translate(-240.073 -204.29)" fill="#0085aa"/>
    <path id="Trazado_104015" data-name="Trazado 104015" d="M243.467,132l-6.533,5.6-11.2,5.6L222,163.733l4.667,16.8L230.7,179.5l1.891-.486-.324,7.123H241.6a4.666,4.666,0,0,0,4.667-4.667V168.4Zm-10.624,41.457-1.652-4.758-1.724-4.966,2.526-8.4L233.2,165.6Zm0,0" transform="translate(-5.067 -5.067)" fill="#0093b9"/>
    <path id="Trazado_104016" data-name="Trazado 104016" d="M291.427,384h5.87v1.867a1.866,1.866,0,0,1-1.867,1.867h-4.158Zm0,0" transform="translate(-63.564 -217.867)" fill="#057998"/>
    <path id="Trazado_104017" data-name="Trazado 104017" d="M280.069,372.68l-.252,5.552-1.892.487.492-10.8Zm0,0" transform="translate(-52.293 -204.29)" fill="#0085aa"/>
    <path id="Trazado_104018" data-name="Trazado 104018" d="M318.933,147.867l3.733-2.8-3.733-1.867L318,137.6l6.533-5.6,2.8,36.4Zm0,0" transform="translate(-86.133 -5.067)" fill="#2ea5c5"/>
    <g id="Grupo_54964" data-name="Grupo 54964" transform="translate(216 126)">
      <g id="Grupo_54963" data-name="Grupo 54963" transform="translate(0 0)" clip-path="url(#clip-path)">
        <path id="Trazado_104019" data-name="Trazado 104019" d="M422.4,147.867l-3.733-2.8L422.4,143.2l.933-5.6L416.8,132,414,168.4Zm0,0" transform="translate(-383.2 -131.067)" fill="#2ea5c5"/>
        <path id="Trazado_104020" data-name="Trazado 104020" d="M271.985,158.5l-3.733-20.533a.933.933,0,0,0-.5-.668l-11.1-5.548-6.446-5.525A.933.933,0,0,0,249.6,126H238.4a.933.933,0,0,0-.608.224l-6.446,5.525-11.1,5.548a.933.933,0,0,0-.5.668L216.015,158.5a.929.929,0,0,0,.019.417l4.667,16.8a.932.932,0,0,0,1.131.654l4.7-1.209-.266,5.863a.932.932,0,0,0,.932.976h9.333a5.586,5.586,0,0,0,4.17-1.867H247.3a5.586,5.586,0,0,0,4.17,1.867H260.8a.932.932,0,0,0,.932-.976l-.266-5.863,4.7,1.209a.932.932,0,0,0,1.131-.654l4.667-16.8a.93.93,0,0,0,.019-.417Zm-21.6-29.66,4.737,4.06-.769,4.612-3.308,1.654a.934.934,0,0,0-.143,1.582l3.157,2.367-5.876,14.365Zm-1.941.894h-8.9l-.143-1.867h9.184Zm-10.838-.894,2.2,28.64-5.876-14.365,3.157-2.367a.934.934,0,0,0-.143-1.582l-3.308-1.654-.769-4.612Zm-8.839,38.227H232.8V168a.934.934,0,0,1-.933.933h-3.181Zm-1.573-6.5-.133,2.928-1.684-4.849,1.143-3.8Zm9.336,19.567h-8.357l.425-9.333h3.265a2.8,2.8,0,0,0,2.8-2.8v-1.867a.934.934,0,0,0-.933-.933h-4.878l.21-4.624a.9.9,0,0,0-.005-.152l-1.867-15.867-1.854.218.637,5.41-2.47,8.213a.941.941,0,0,0,.012.576l3.318,9.554-.213,4.684-4.368,1.124-4.365-15.712,3.612-19.864,9.652-4.826.726,4.353a.933.933,0,0,0,.5.682l2.383,1.191-2.525,1.894a.935.935,0,0,0-.3,1.1l8.33,20.363V176.4a3.737,3.737,0,0,1-3.733,3.733Zm5.279-1.867a5.581,5.581,0,0,0,.321-1.867V163.333a.7.7,0,0,0,0-.072L239.695,131.6h8.61l-2.436,31.662c0,.024,0,.048,0,.072V176.4a5.565,5.565,0,0,0,.321,1.867Zm18.99-17.7.673-5.723,1.144,3.8-1.684,4.849Zm-1.488,8.367h-3.181A.934.934,0,0,1,255.2,168v-.933h4.029Zm6.431,5.4-4.368-1.124-.213-4.684,3.317-9.555a.93.93,0,0,0,.011-.575l-2.469-8.213.636-5.41-1.853-.218-1.867,15.867a.906.906,0,0,0-.005.152l.21,4.624h-4.878a.934.934,0,0,0-.933.933V168a2.8,2.8,0,0,0,2.8,2.8H259.4l.425,9.333h-8.357a3.738,3.738,0,0,1-3.733-3.733V163.517l5.8-14.184h3.531v-1.867H254.3l1.764-4.313a.935.935,0,0,0-.3-1.1l-2.525-1.894,2.383-1.191a.933.933,0,0,0,.5-.682l.725-4.353,9.652,4.826,3.612,19.864Zm0,0" transform="translate(-216 -126)"/>
      </g>
    </g>
    <rect id="Rect치ngulo_5181" data-name="Rect치ngulo 5181" width="1" height="3" transform="translate(250 164)"/>
  </g>
</svg>
