<svg xmlns="http://www.w3.org/2000/svg" xmlns:xlink="http://www.w3.org/1999/xlink" width="1320" height="525.087" viewBox="0 0 1320 525.087">
  <defs>
    <linearGradient id="linear-gradient" x1="1" y1="0.5" x2="0.214" y2="0.5" gradientUnits="objectBoundingBox">
      <stop offset="0" stop-color="#92c1cf"/>
      <stop offset="1" stop-color="#68a3b3"/>
    </linearGradient>
    <linearGradient id="linear-gradient-2" x1="0.507" x2="0.51" y2="1" gradientUnits="objectBoundingBox">
      <stop offset="0" stop-color="#d4c99b"/>
      <stop offset="1" stop-color="#ede3b7"/>
    </linearGradient>
    <clipPath id="clip-path">
      <path id="Rectangle_652" data-name="Rectangle 652" d="M1299.213,0H20.787C9.307,0,0,8.707,0,19.448V505.639c0,10.741,9.307,19.448,20.787,19.448H1299.213c11.48,0,20.787-8.707,20.787-19.448V19.448C1320,8.707,1310.693,0,1299.213,0Z" fill="url(#linear-gradient)" style="mix-blend-mode: multiply;isolation: isolate"/>
    </clipPath>
  </defs>
  <g id="Grupo_55618" data-name="Grupo 55618" transform="translate(-140 -70)">
    <path id="Rectangle_652-2" data-name="Rectangle 652" d="M20.787,0H1299.213C1310.693,0,1320,8.707,1320,19.448V505.639c0,10.741-9.307,19.448-20.787,19.448H20.787C9.307,525.087,0,516.38,0,505.639V19.448C0,8.707,9.307,0,20.787,0Z" transform="translate(140 70)" fill="url(#linear-gradient-2)" style="mix-blend-mode: multiply;isolation: isolate"/>
    <g id="Enmascarar_grupo_19" data-name="Enmascarar grupo 19" transform="translate(140 70)" clip-path="url(#clip-path)">
      <g id="Grupo_53731" data-name="Grupo 53731" transform="translate(-3.084 -35)">
        <g id="Grupo_53717" data-name="Grupo 53717" transform="translate(0 0)" opacity="0.32">
          <g id="Grupo_53710" data-name="Grupo 53710" transform="translate(0.001 95.678)">
            <g id="Grupo_53690" data-name="Grupo 53690" transform="translate(0.55)">
              <path id="Trazado_100113" data-name="Trazado 100113" d="M361.386,605.538a3.237,3.237,0,1,1,4.577,0A3.233,3.233,0,0,1,361.386,605.538Z" transform="translate(-360.437 -600.013)" fill="#ede3b7"/>
              <path id="Trazado_100114" data-name="Trazado 100114" d="M357.242,609.683a3.238,3.238,0,1,1,4.58,0A3.241,3.241,0,0,1,357.242,609.683Z" transform="translate(-343.745 -591.608)" fill="#ede3b7"/>
              <path id="Trazado_100115" data-name="Trazado 100115" d="M353.1,613.825a3.238,3.238,0,1,1,4.58,0A3.238,3.238,0,0,1,353.1,613.825Z" transform="translate(-327.056 -583.202)" fill="#ede3b7"/>
              <path id="Trazado_100116" data-name="Trazado 100116" d="M348.959,617.965a3.237,3.237,0,1,1,4.577,0A3.232,3.232,0,0,1,348.959,617.965Z" transform="translate(-310.365 -574.796)" fill="#ede3b7"/>
              <path id="Trazado_100117" data-name="Trazado 100117" d="M344.815,622.11a3.239,3.239,0,1,1,4.58,0A3.241,3.241,0,0,1,344.815,622.11Z" transform="translate(-293.673 -566.39)" fill="#ede3b7"/>
              <path id="Trazado_100118" data-name="Trazado 100118" d="M340.675,626.251a3.237,3.237,0,1,1,4.577,0A3.232,3.232,0,0,1,340.675,626.251Z" transform="translate(-276.983 -557.984)" fill="#ede3b7"/>
              <path id="Trazado_100119" data-name="Trazado 100119" d="M336.53,630.395a3.238,3.238,0,1,1,4.577,0A3.242,3.242,0,0,1,336.53,630.395Z" transform="translate(-260.291 -549.578)" fill="#ede3b7"/>
              <path id="Trazado_100120" data-name="Trazado 100120" d="M332.388,634.537a3.239,3.239,0,1,1,4.58,0A3.242,3.242,0,0,1,332.388,634.537Z" transform="translate(-243.601 -541.172)" fill="#ede3b7"/>
              <path id="Trazado_100121" data-name="Trazado 100121" d="M328.248,638.679a3.237,3.237,0,1,1,4.577,0A3.233,3.233,0,0,1,328.248,638.679Z" transform="translate(-226.911 -532.767)" fill="#ede3b7"/>
              <path id="Trazado_100122" data-name="Trazado 100122" d="M324.1,642.822a3.238,3.238,0,1,1,4.58,0A3.242,3.242,0,0,1,324.1,642.822Z" transform="translate(-210.219 -524.36)" fill="#ede3b7"/>
              <path id="Trazado_100123" data-name="Trazado 100123" d="M319.961,646.963a3.238,3.238,0,1,1,4.58,0A3.238,3.238,0,0,1,319.961,646.963Z" transform="translate(-193.529 -515.954)" fill="#ede3b7"/>
              <path id="Trazado_100124" data-name="Trazado 100124" d="M315.82,651.1a3.237,3.237,0,1,1,4.577,0A3.232,3.232,0,0,1,315.82,651.1Z" transform="translate(-176.839 -507.547)" fill="#ede3b7"/>
              <path id="Trazado_100125" data-name="Trazado 100125" d="M311.676,655.249a3.239,3.239,0,1,1,4.58,0A3.242,3.242,0,0,1,311.676,655.249Z" transform="translate(-160.147 -499.142)" fill="#ede3b7"/>
              <path id="Trazado_100126" data-name="Trazado 100126" d="M307.536,659.391a3.237,3.237,0,1,1,4.577,0A3.233,3.233,0,0,1,307.536,659.391Z" transform="translate(-143.457 -490.736)" fill="#ede3b7"/>
              <path id="Trazado_100127" data-name="Trazado 100127" d="M303.391,663.534a3.238,3.238,0,1,1,4.577,0A3.242,3.242,0,0,1,303.391,663.534Z" transform="translate(-126.764 -482.33)" fill="#ede3b7"/>
              <path id="Trazado_100128" data-name="Trazado 100128" d="M299.249,667.676a3.239,3.239,0,1,1,4.58,0A3.242,3.242,0,0,1,299.249,667.676Z" transform="translate(-110.075 -473.924)" fill="#ede3b7"/>
              <path id="Trazado_100129" data-name="Trazado 100129" d="M295.109,671.817a3.237,3.237,0,1,1,4.577,0A3.232,3.232,0,0,1,295.109,671.817Z" transform="translate(-93.385 -465.519)" fill="#ede3b7"/>
              <path id="Trazado_100130" data-name="Trazado 100130" d="M290.964,675.961a3.238,3.238,0,1,1,4.58,0A3.242,3.242,0,0,1,290.964,675.961Z" transform="translate(-76.693 -457.112)" fill="#ede3b7"/>
              <path id="Trazado_100131" data-name="Trazado 100131" d="M286.822,680.1a3.238,3.238,0,1,1,4.58,0A3.238,3.238,0,0,1,286.822,680.1Z" transform="translate(-60.003 -448.706)" fill="#ede3b7"/>
              <path id="Trazado_100132" data-name="Trazado 100132" d="M282.681,684.243a3.237,3.237,0,1,1,4.577,0A3.232,3.232,0,0,1,282.681,684.243Z" transform="translate(-43.312 -440.299)" fill="#ede3b7"/>
              <path id="Trazado_100133" data-name="Trazado 100133" d="M278.537,688.388a3.239,3.239,0,1,1,4.58,0A3.242,3.242,0,0,1,278.537,688.388Z" transform="translate(-26.621 -431.894)" fill="#ede3b7"/>
            </g>
            <g id="Grupo_53691" data-name="Grupo 53691" transform="translate(0 15.246)">
              <path id="Trazado_100134" data-name="Trazado 100134" d="M361.325,605.239a3.231,3.231,0,1,1,0,6.074Z" transform="translate(-361.325 -605.046)" fill="#ede3b7"/>
              <path id="Trazado_100135" data-name="Trazado 100135" d="M358.131,614.714a3.239,3.239,0,1,1,4.58,0A3.241,3.241,0,0,1,358.131,614.714Z" transform="translate(-346.777 -596.645)" fill="#ede3b7"/>
              <ellipse id="Elipse_3973" data-name="Elipse 3973" cx="3.238" cy="3.238" rx="3.238" ry="3.238" transform="translate(22.955 25.09)" fill="#ede3b7"/>
              <path id="Trazado_100136" data-name="Trazado 100136" d="M349.846,623a3.239,3.239,0,1,1,4.58,0A3.242,3.242,0,0,1,349.846,623Z" transform="translate(-313.394 -579.832)" fill="#ede3b7"/>
              <path id="Trazado_100137" data-name="Trazado 100137" d="M345.7,627.141a3.239,3.239,0,1,1,4.58,0A3.242,3.242,0,0,1,345.7,627.141Z" transform="translate(-296.705 -571.427)" fill="#ede3b7"/>
              <path id="Trazado_100138" data-name="Trazado 100138" d="M341.563,631.282a3.237,3.237,0,1,1,4.577,0A3.233,3.233,0,0,1,341.563,631.282Z" transform="translate(-280.014 -563.021)" fill="#ede3b7"/>
              <path id="Trazado_100139" data-name="Trazado 100139" d="M337.419,635.426a3.239,3.239,0,1,1,4.58,0A3.242,3.242,0,0,1,337.419,635.426Z" transform="translate(-263.323 -554.615)" fill="#ede3b7"/>
              <path id="Trazado_100140" data-name="Trazado 100140" d="M333.279,639.567a3.237,3.237,0,1,1,4.577,0A3.232,3.232,0,0,1,333.279,639.567Z" transform="translate(-246.632 -546.209)" fill="#ede3b7"/>
              <path id="Trazado_100141" data-name="Trazado 100141" d="M329.134,643.708a3.237,3.237,0,1,1,4.577,0A3.238,3.238,0,0,1,329.134,643.708Z" transform="translate(-229.94 -537.802)" fill="#ede3b7"/>
              <path id="Trazado_100142" data-name="Trazado 100142" d="M324.992,647.853a3.239,3.239,0,1,1,4.58,0A3.242,3.242,0,0,1,324.992,647.853Z" transform="translate(-213.251 -529.397)" fill="#ede3b7"/>
              <path id="Trazado_100143" data-name="Trazado 100143" d="M320.851,651.994a3.237,3.237,0,1,1,4.577,0A3.233,3.233,0,0,1,320.851,651.994Z" transform="translate(-196.56 -520.991)" fill="#ede3b7"/>
              <path id="Trazado_100144" data-name="Trazado 100144" d="M316.707,656.135a3.237,3.237,0,1,1,4.577,0A3.238,3.238,0,0,1,316.707,656.135Z" transform="translate(-179.868 -512.584)" fill="#ede3b7"/>
              <path id="Trazado_100145" data-name="Trazado 100145" d="M312.565,660.28a3.239,3.239,0,1,1,4.58,0A3.242,3.242,0,0,1,312.565,660.28Z" transform="translate(-163.179 -504.179)" fill="#ede3b7"/>
              <path id="Trazado_100146" data-name="Trazado 100146" d="M308.424,664.421a3.237,3.237,0,1,1,4.577,0A3.232,3.232,0,0,1,308.424,664.421Z" transform="translate(-146.488 -495.773)" fill="#ede3b7"/>
              <path id="Trazado_100147" data-name="Trazado 100147" d="M304.28,668.565a3.239,3.239,0,1,1,4.58,0A3.242,3.242,0,0,1,304.28,668.565Z" transform="translate(-129.796 -487.366)" fill="#ede3b7"/>
              <path id="Trazado_100148" data-name="Trazado 100148" d="M300.14,672.706a3.237,3.237,0,1,1,4.577,0A3.233,3.233,0,0,1,300.14,672.706Z" transform="translate(-113.106 -478.961)" fill="#ede3b7"/>
              <path id="Trazado_100149" data-name="Trazado 100149" d="M295.995,676.847a3.237,3.237,0,1,1,4.577,0A3.238,3.238,0,0,1,295.995,676.847Z" transform="translate(-96.414 -470.554)" fill="#ede3b7"/>
              <path id="Trazado_100150" data-name="Trazado 100150" d="M291.853,680.992a3.239,3.239,0,1,1,4.58,0A3.242,3.242,0,0,1,291.853,680.992Z" transform="translate(-79.724 -462.149)" fill="#ede3b7"/>
              <path id="Trazado_100151" data-name="Trazado 100151" d="M287.713,685.133a3.237,3.237,0,1,1,4.577,0A3.233,3.233,0,0,1,287.713,685.133Z" transform="translate(-63.034 -453.743)" fill="#ede3b7"/>
              <path id="Trazado_100152" data-name="Trazado 100152" d="M283.568,689.277a3.238,3.238,0,1,1,4.577,0A3.242,3.242,0,0,1,283.568,689.277Z" transform="translate(-46.342 -445.336)" fill="#ede3b7"/>
            </g>
            <g id="Grupo_53692" data-name="Grupo 53692" transform="translate(0 30.916)">
              <path id="Trazado_100153" data-name="Trazado 100153" d="M362.214,610.219a3.193,3.193,0,0,1,0,5.6Z" transform="translate(-362.214 -610.219)" fill="#ede3b7"/>
              <path id="Trazado_100154" data-name="Trazado 100154" d="M359.022,619.745a3.238,3.238,0,1,1,4.577,0A3.236,3.236,0,0,1,359.022,619.745Z" transform="translate(-350.358 -602.105)" fill="#ede3b7"/>
              <path id="Trazado_100155" data-name="Trazado 100155" d="M354.877,623.886a3.237,3.237,0,1,1,4.577,0A3.238,3.238,0,0,1,354.877,623.886Z" transform="translate(-333.666 -593.7)" fill="#ede3b7"/>
              <path id="Trazado_100156" data-name="Trazado 100156" d="M350.735,628.03a3.239,3.239,0,1,1,4.58,0A3.242,3.242,0,0,1,350.735,628.03Z" transform="translate(-316.976 -585.293)" fill="#ede3b7"/>
              <path id="Trazado_100157" data-name="Trazado 100157" d="M346.594,632.171a3.237,3.237,0,1,1,4.577,0A3.232,3.232,0,0,1,346.594,632.171Z" transform="translate(-300.286 -576.887)" fill="#ede3b7"/>
              <path id="Trazado_100158" data-name="Trazado 100158" d="M342.45,636.312a3.238,3.238,0,1,1,4.58,0A3.238,3.238,0,0,1,342.45,636.312Z" transform="translate(-283.594 -568.48)" fill="#ede3b7"/>
              <path id="Trazado_100159" data-name="Trazado 100159" d="M338.308,640.457a3.239,3.239,0,1,1,4.58,0A3.242,3.242,0,0,1,338.308,640.457Z" transform="translate(-266.905 -560.075)" fill="#ede3b7"/>
              <path id="Trazado_100160" data-name="Trazado 100160" d="M334.167,644.6a3.237,3.237,0,1,1,4.577,0A3.232,3.232,0,0,1,334.167,644.6Z" transform="translate(-250.214 -551.669)" fill="#ede3b7"/>
              <path id="Trazado_100161" data-name="Trazado 100161" d="M330.023,648.742a3.239,3.239,0,1,1,4.58,0A3.242,3.242,0,0,1,330.023,648.742Z" transform="translate(-233.522 -543.263)" fill="#ede3b7"/>
              <path id="Trazado_100162" data-name="Trazado 100162" d="M325.883,652.884a3.238,3.238,0,1,1,4.577,0A3.236,3.236,0,0,1,325.883,652.884Z" transform="translate(-216.832 -534.857)" fill="#ede3b7"/>
              <path id="Trazado_100163" data-name="Trazado 100163" d="M321.738,657.025a3.237,3.237,0,1,1,4.577,0A3.238,3.238,0,0,1,321.738,657.025Z" transform="translate(-200.14 -526.452)" fill="#ede3b7"/>
              <path id="Trazado_100164" data-name="Trazado 100164" d="M317.6,661.169a3.239,3.239,0,1,1,4.58,0A3.242,3.242,0,0,1,317.6,661.169Z" transform="translate(-183.45 -518.045)" fill="#ede3b7"/>
              <path id="Trazado_100165" data-name="Trazado 100165" d="M313.455,665.31a3.237,3.237,0,1,1,4.577,0A3.233,3.233,0,0,1,313.455,665.31Z" transform="translate(-166.759 -509.639)" fill="#ede3b7"/>
              <path id="Trazado_100166" data-name="Trazado 100166" d="M309.311,669.451a3.238,3.238,0,1,1,4.577,0A3.238,3.238,0,0,1,309.311,669.451Z" transform="translate(-150.068 -501.232)" fill="#ede3b7"/>
              <path id="Trazado_100167" data-name="Trazado 100167" d="M305.169,673.6a3.239,3.239,0,1,1,4.58,0A3.242,3.242,0,0,1,305.169,673.6Z" transform="translate(-133.378 -492.827)" fill="#ede3b7"/>
              <path id="Trazado_100168" data-name="Trazado 100168" d="M301.028,677.737a3.237,3.237,0,1,1,4.577,0A3.232,3.232,0,0,1,301.028,677.737Z" transform="translate(-116.688 -484.421)" fill="#ede3b7"/>
              <path id="Trazado_100169" data-name="Trazado 100169" d="M296.884,681.878a3.238,3.238,0,1,1,4.58,0A3.238,3.238,0,0,1,296.884,681.878Z" transform="translate(-99.996 -476.014)" fill="#ede3b7"/>
              <path id="Trazado_100170" data-name="Trazado 100170" d="M292.744,686.023a3.238,3.238,0,1,1,4.577,0A3.236,3.236,0,0,1,292.744,686.023Z" transform="translate(-83.306 -467.609)" fill="#ede3b7"/>
              <path id="Trazado_100171" data-name="Trazado 100171" d="M288.6,690.164a3.237,3.237,0,1,1,4.577,0A3.238,3.238,0,0,1,288.6,690.164Z" transform="translate(-66.614 -459.203)" fill="#ede3b7"/>
              <path id="Trazado_100172" data-name="Trazado 100172" d="M284.457,694.308a3.239,3.239,0,1,1,4.58,0A3.241,3.241,0,0,1,284.457,694.308Z" transform="translate(-49.924 -450.797)" fill="#ede3b7"/>
            </g>
            <g id="Grupo_53693" data-name="Grupo 53693" transform="translate(5.021 58.269)">
              <path id="Trazado_100173" data-name="Trazado 100173" d="M359.91,624.776a3.237,3.237,0,1,1,4.577,0A3.233,3.233,0,0,1,359.91,624.776Z" transform="translate(-358.96 -619.249)" fill="#ede3b7"/>
              <path id="Trazado_100174" data-name="Trazado 100174" d="M355.766,628.916a3.238,3.238,0,1,1,4.58,0A3.238,3.238,0,0,1,355.766,628.916Z" transform="translate(-342.269 -610.842)" fill="#ede3b7"/>
              <path id="Trazado_100175" data-name="Trazado 100175" d="M351.626,633.061a3.238,3.238,0,1,1,4.577,0A3.236,3.236,0,0,1,351.626,633.061Z" transform="translate(-325.579 -602.436)" fill="#ede3b7"/>
              <path id="Trazado_100176" data-name="Trazado 100176" d="M347.481,637.2a3.237,3.237,0,1,1,4.577,0A3.238,3.238,0,0,1,347.481,637.2Z" transform="translate(-308.886 -594.031)" fill="#ede3b7"/>
              <path id="Trazado_100177" data-name="Trazado 100177" d="M343.339,641.346a3.239,3.239,0,1,1,4.58,0A3.242,3.242,0,0,1,343.339,641.346Z" transform="translate(-292.197 -585.624)" fill="#ede3b7"/>
              <path id="Trazado_100178" data-name="Trazado 100178" d="M339.2,645.488a3.238,3.238,0,1,1,4.577,0A3.236,3.236,0,0,1,339.2,645.488Z" transform="translate(-275.506 -577.219)" fill="#ede3b7"/>
              <path id="Trazado_100179" data-name="Trazado 100179" d="M335.054,649.63a3.238,3.238,0,1,1,4.58,0A3.238,3.238,0,0,1,335.054,649.63Z" transform="translate(-258.814 -568.813)" fill="#ede3b7"/>
              <path id="Trazado_100180" data-name="Trazado 100180" d="M330.912,653.773a3.239,3.239,0,1,1,4.58,0A3.242,3.242,0,0,1,330.912,653.773Z" transform="translate(-242.125 -560.406)" fill="#ede3b7"/>
              <path id="Trazado_100181" data-name="Trazado 100181" d="M326.771,657.914a3.237,3.237,0,1,1,4.577,0A3.232,3.232,0,0,1,326.771,657.914Z" transform="translate(-225.434 -552)" fill="#ede3b7"/>
              <path id="Trazado_100182" data-name="Trazado 100182" d="M322.627,662.055a3.238,3.238,0,1,1,4.58,0A3.238,3.238,0,0,1,322.627,662.055Z" transform="translate(-208.743 -543.594)" fill="#ede3b7"/>
              <path id="Trazado_100183" data-name="Trazado 100183" d="M318.487,666.2a3.238,3.238,0,1,1,4.577,0A3.236,3.236,0,0,1,318.487,666.2Z" transform="translate(-192.052 -535.188)" fill="#ede3b7"/>
              <path id="Trazado_100184" data-name="Trazado 100184" d="M314.342,670.341a3.237,3.237,0,1,1,4.577,0A3.238,3.238,0,0,1,314.342,670.341Z" transform="translate(-175.36 -526.783)" fill="#ede3b7"/>
              <path id="Trazado_100185" data-name="Trazado 100185" d="M310.2,674.485a3.239,3.239,0,1,1,4.58,0A3.242,3.242,0,0,1,310.2,674.485Z" transform="translate(-158.671 -518.376)" fill="#ede3b7"/>
              <path id="Trazado_100186" data-name="Trazado 100186" d="M306.059,678.627a3.238,3.238,0,1,1,4.577,0A3.236,3.236,0,0,1,306.059,678.627Z" transform="translate(-141.98 -509.97)" fill="#ede3b7"/>
              <path id="Trazado_100187" data-name="Trazado 100187" d="M301.915,682.768a3.238,3.238,0,1,1,4.58,0A3.238,3.238,0,0,1,301.915,682.768Z" transform="translate(-125.288 -501.565)" fill="#ede3b7"/>
              <path id="Trazado_100188" data-name="Trazado 100188" d="M297.773,686.912a3.239,3.239,0,1,1,4.58,0A3.241,3.241,0,0,1,297.773,686.912Z" transform="translate(-108.599 -493.158)" fill="#ede3b7"/>
              <path id="Trazado_100189" data-name="Trazado 100189" d="M293.632,691.053a3.237,3.237,0,1,1,4.577,0A3.232,3.232,0,0,1,293.632,691.053Z" transform="translate(-91.908 -484.752)" fill="#ede3b7"/>
              <path id="Trazado_100190" data-name="Trazado 100190" d="M289.488,695.195a3.238,3.238,0,1,1,4.58,0A3.238,3.238,0,0,1,289.488,695.195Z" transform="translate(-75.216 -476.346)" fill="#ede3b7"/>
            </g>
            <g id="Grupo_53694" data-name="Grupo 53694" transform="translate(2.33 73.509)">
              <path id="Trazado_100191" data-name="Trazado 100191" d="M360.8,629.806a3.238,3.238,0,1,1,4.58,0A3.238,3.238,0,0,1,360.8,629.806Z" transform="translate(-359.849 -624.279)" fill="#ede3b7"/>
              <path id="Trazado_100192" data-name="Trazado 100192" d="M356.655,633.95a3.239,3.239,0,1,1,4.58,0A3.242,3.242,0,0,1,356.655,633.95Z" transform="translate(-343.16 -615.873)" fill="#ede3b7"/>
              <path id="Trazado_100193" data-name="Trazado 100193" d="M352.514,638.092a3.238,3.238,0,1,1,4.577,0A3.236,3.236,0,0,1,352.514,638.092Z" transform="translate(-326.469 -607.467)" fill="#ede3b7"/>
              <path id="Trazado_100194" data-name="Trazado 100194" d="M348.37,642.233a3.238,3.238,0,1,1,4.58,0A3.238,3.238,0,0,1,348.37,642.233Z" transform="translate(-309.777 -599.062)" fill="#ede3b7"/>
              <path id="Trazado_100195" data-name="Trazado 100195" d="M344.23,646.377a3.238,3.238,0,1,1,4.577,0A3.236,3.236,0,0,1,344.23,646.377Z" transform="translate(-293.087 -590.655)" fill="#ede3b7"/>
              <path id="Trazado_100196" data-name="Trazado 100196" d="M340.085,650.518a3.237,3.237,0,1,1,4.577,0A3.238,3.238,0,0,1,340.085,650.518Z" transform="translate(-276.395 -582.249)" fill="#ede3b7"/>
              <path id="Trazado_100197" data-name="Trazado 100197" d="M335.943,654.659a3.238,3.238,0,1,1,4.58,0A3.238,3.238,0,0,1,335.943,654.659Z" transform="translate(-259.706 -573.842)" fill="#ede3b7"/>
              <path id="Trazado_100198" data-name="Trazado 100198" d="M331.8,658.8a3.238,3.238,0,1,1,4.577,0A3.236,3.236,0,0,1,331.8,658.8Z" transform="translate(-243.015 -565.437)" fill="#ede3b7"/>
              <path id="Trazado_100199" data-name="Trazado 100199" d="M327.658,662.945a3.238,3.238,0,1,1,4.58,0A3.238,3.238,0,0,1,327.658,662.945Z" transform="translate(-226.323 -557.031)" fill="#ede3b7"/>
              <path id="Trazado_100200" data-name="Trazado 100200" d="M323.516,667.089a3.239,3.239,0,1,1,4.58,0A3.242,3.242,0,0,1,323.516,667.089Z" transform="translate(-209.634 -548.624)" fill="#ede3b7"/>
              <path id="Trazado_100201" data-name="Trazado 100201" d="M319.375,671.231a3.238,3.238,0,1,1,4.577,0A3.236,3.236,0,0,1,319.375,671.231Z" transform="translate(-192.943 -540.219)" fill="#ede3b7"/>
              <path id="Trazado_100202" data-name="Trazado 100202" d="M315.231,675.372a3.238,3.238,0,1,1,4.58,0A3.238,3.238,0,0,1,315.231,675.372Z" transform="translate(-176.251 -531.813)" fill="#ede3b7"/>
              <path id="Trazado_100203" data-name="Trazado 100203" d="M311.091,679.516a3.238,3.238,0,1,1,4.577,0A3.236,3.236,0,0,1,311.091,679.516Z" transform="translate(-159.561 -523.407)" fill="#ede3b7"/>
              <path id="Trazado_100204" data-name="Trazado 100204" d="M306.946,683.657a3.237,3.237,0,1,1,4.577,0A3.238,3.238,0,0,1,306.946,683.657Z" transform="translate(-142.869 -515.001)" fill="#ede3b7"/>
              <path id="Trazado_100205" data-name="Trazado 100205" d="M302.8,687.8a3.238,3.238,0,1,1,4.58,0A3.238,3.238,0,0,1,302.8,687.8Z" transform="translate(-126.179 -506.594)" fill="#ede3b7"/>
              <path id="Trazado_100206" data-name="Trazado 100206" d="M298.664,691.943a3.238,3.238,0,1,1,4.577,0A3.236,3.236,0,0,1,298.664,691.943Z" transform="translate(-109.489 -498.189)" fill="#ede3b7"/>
              <path id="Trazado_100207" data-name="Trazado 100207" d="M294.519,696.084a3.238,3.238,0,1,1,4.58,0A3.238,3.238,0,0,1,294.519,696.084Z" transform="translate(-92.797 -489.783)" fill="#ede3b7"/>
              <path id="Trazado_100208" data-name="Trazado 100208" d="M290.377,700.225a3.238,3.238,0,1,1,4.58,0A3.238,3.238,0,0,1,290.377,700.225Z" transform="translate(-76.108 -481.376)" fill="#ede3b7"/>
            </g>
            <g id="Grupo_53695" data-name="Grupo 53695" transform="translate(0 88.749)">
              <path id="Trazado_100209" data-name="Trazado 100209" d="M360.738,631.1a3.137,3.137,0,0,1,.585-.836,3.238,3.238,0,1,1,0,4.577,3.14,3.14,0,0,1-.585-.836Z" transform="translate(-360.738 -629.31)" fill="#ede3b7"/>
              <path id="Trazado_100210" data-name="Trazado 100210" d="M357.545,638.981a3.238,3.238,0,1,1,4.577,0A3.236,3.236,0,0,1,357.545,638.981Z" transform="translate(-344.41 -620.904)" fill="#ede3b7"/>
              <path id="Trazado_100211" data-name="Trazado 100211" d="M353.4,643.122a3.238,3.238,0,1,1,4.58,0A3.238,3.238,0,0,1,353.4,643.122Z" transform="translate(-327.718 -612.498)" fill="#ede3b7"/>
              <path id="Trazado_100212" data-name="Trazado 100212" d="M349.259,647.263a3.238,3.238,0,1,1,4.58,0A3.238,3.238,0,0,1,349.259,647.263Z" transform="translate(-311.029 -604.091)" fill="#ede3b7"/>
              <path id="Trazado_100213" data-name="Trazado 100213" d="M345.118,651.408a3.238,3.238,0,1,1,4.577,0A3.236,3.236,0,0,1,345.118,651.408Z" transform="translate(-294.338 -595.686)" fill="#ede3b7"/>
              <path id="Trazado_100214" data-name="Trazado 100214" d="M340.974,655.549a3.238,3.238,0,1,1,4.58,0A3.238,3.238,0,0,1,340.974,655.549Z" transform="translate(-277.647 -587.28)" fill="#ede3b7"/>
              <path id="Trazado_100215" data-name="Trazado 100215" d="M336.834,659.69a3.237,3.237,0,1,1,4.577,0A3.232,3.232,0,0,1,336.834,659.69Z" transform="translate(-260.957 -578.873)" fill="#ede3b7"/>
              <path id="Trazado_100216" data-name="Trazado 100216" d="M332.689,663.835a3.238,3.238,0,1,1,4.577,0A3.242,3.242,0,0,1,332.689,663.835Z" transform="translate(-244.264 -570.468)" fill="#ede3b7"/>
              <path id="Trazado_100217" data-name="Trazado 100217" d="M328.547,667.976a3.238,3.238,0,1,1,4.58,0A3.238,3.238,0,0,1,328.547,667.976Z" transform="translate(-227.575 -562.062)" fill="#ede3b7"/>
              <path id="Trazado_100218" data-name="Trazado 100218" d="M324.406,672.12a3.238,3.238,0,1,1,4.577,0A3.236,3.236,0,0,1,324.406,672.12Z" transform="translate(-210.884 -553.656)" fill="#ede3b7"/>
              <path id="Trazado_100219" data-name="Trazado 100219" d="M320.262,676.262a3.238,3.238,0,1,1,4.58,0A3.242,3.242,0,0,1,320.262,676.262Z" transform="translate(-194.192 -545.25)" fill="#ede3b7"/>
              <path id="Trazado_100220" data-name="Trazado 100220" d="M316.12,680.4a3.238,3.238,0,1,1,4.58,0A3.238,3.238,0,0,1,316.12,680.4Z" transform="translate(-177.503 -536.843)" fill="#ede3b7"/>
              <path id="Trazado_100221" data-name="Trazado 100221" d="M311.979,684.547a3.238,3.238,0,1,1,4.577,0A3.236,3.236,0,0,1,311.979,684.547Z" transform="translate(-160.812 -528.438)" fill="#ede3b7"/>
              <path id="Trazado_100222" data-name="Trazado 100222" d="M307.835,688.688a3.238,3.238,0,1,1,4.58,0A3.238,3.238,0,0,1,307.835,688.688Z" transform="translate(-144.12 -520.032)" fill="#ede3b7"/>
              <path id="Trazado_100223" data-name="Trazado 100223" d="M303.695,692.832a3.238,3.238,0,1,1,4.577,0A3.236,3.236,0,0,1,303.695,692.832Z" transform="translate(-127.43 -511.625)" fill="#ede3b7"/>
              <path id="Trazado_100224" data-name="Trazado 100224" d="M299.55,696.974a3.238,3.238,0,1,1,4.577,0A3.242,3.242,0,0,1,299.55,696.974Z" transform="translate(-110.738 -503.22)" fill="#ede3b7"/>
              <path id="Trazado_100225" data-name="Trazado 100225" d="M295.408,701.116a3.238,3.238,0,1,1,4.58,0A3.238,3.238,0,0,1,295.408,701.116Z" transform="translate(-94.049 -494.814)" fill="#ede3b7"/>
            </g>
            <g id="Grupo_53696" data-name="Grupo 53696" transform="translate(0 104.004)">
              <path id="Trazado_100226" data-name="Trazado 100226" d="M361.627,634.352a3.226,3.226,0,1,1,0,6.44Z" transform="translate(-361.627 -634.346)" fill="#ede3b7"/>
              <path id="Trazado_100227" data-name="Trazado 100227" d="M358.432,644.012a3.239,3.239,0,1,1,4.577,0A3.242,3.242,0,0,1,358.432,644.012Z" transform="translate(-347.99 -625.949)" fill="#ede3b7"/>
              <path id="Trazado_100228" data-name="Trazado 100228" d="M354.29,648.153a3.238,3.238,0,1,1,4.58,0A3.238,3.238,0,0,1,354.29,648.153Z" transform="translate(-331.301 -617.543)" fill="#ede3b7"/>
              <path id="Trazado_100229" data-name="Trazado 100229" d="M350.149,652.3a3.238,3.238,0,1,1,4.577,0A3.236,3.236,0,0,1,350.149,652.3Z" transform="translate(-314.61 -609.136)" fill="#ede3b7"/>
              <path id="Trazado_100230" data-name="Trazado 100230" d="M346,656.439a3.239,3.239,0,1,1,4.58,0A3.242,3.242,0,0,1,346,656.439Z" transform="translate(-297.918 -600.731)" fill="#ede3b7"/>
              <path id="Trazado_100231" data-name="Trazado 100231" d="M341.863,660.58a3.238,3.238,0,1,1,4.58,0A3.238,3.238,0,0,1,341.863,660.58Z" transform="translate(-281.229 -592.325)" fill="#ede3b7"/>
              <path id="Trazado_100232" data-name="Trazado 100232" d="M337.722,664.724a3.238,3.238,0,1,1,4.577,0A3.236,3.236,0,0,1,337.722,664.724Z" transform="translate(-264.538 -583.918)" fill="#ede3b7"/>
              <path id="Trazado_100233" data-name="Trazado 100233" d="M333.578,668.865a3.238,3.238,0,1,1,4.58,0A3.238,3.238,0,0,1,333.578,668.865Z" transform="translate(-247.846 -575.513)" fill="#ede3b7"/>
              <path id="Trazado_100234" data-name="Trazado 100234" d="M329.438,673.006a3.237,3.237,0,1,1,4.577,0A3.232,3.232,0,0,1,329.438,673.006Z" transform="translate(-231.156 -567.106)" fill="#ede3b7"/>
              <path id="Trazado_100235" data-name="Trazado 100235" d="M325.293,677.151a3.238,3.238,0,1,1,4.577,0A3.242,3.242,0,0,1,325.293,677.151Z" transform="translate(-214.464 -558.701)" fill="#ede3b7"/>
              <path id="Trazado_100236" data-name="Trazado 100236" d="M321.151,681.292a3.238,3.238,0,1,1,4.58,0A3.238,3.238,0,0,1,321.151,681.292Z" transform="translate(-197.774 -550.295)" fill="#ede3b7"/>
              <path id="Trazado_100237" data-name="Trazado 100237" d="M317.01,685.433a3.237,3.237,0,1,1,4.577,0A3.233,3.233,0,0,1,317.01,685.433Z" transform="translate(-181.083 -541.888)" fill="#ede3b7"/>
              <path id="Trazado_100238" data-name="Trazado 100238" d="M312.866,689.578a3.239,3.239,0,1,1,4.577,0A3.242,3.242,0,0,1,312.866,689.578Z" transform="translate(-164.392 -533.483)" fill="#ede3b7"/>
              <path id="Trazado_100239" data-name="Trazado 100239" d="M308.724,693.72a3.238,3.238,0,1,1,4.58,0A3.238,3.238,0,0,1,308.724,693.72Z" transform="translate(-147.702 -525.077)" fill="#ede3b7"/>
              <path id="Trazado_100240" data-name="Trazado 100240" d="M304.583,697.863a3.238,3.238,0,1,1,4.577,0A3.236,3.236,0,0,1,304.583,697.863Z" transform="translate(-131.012 -516.671)" fill="#ede3b7"/>
              <path id="Trazado_100241" data-name="Trazado 100241" d="M300.439,702a3.238,3.238,0,1,1,4.58,0A3.238,3.238,0,0,1,300.439,702Z" transform="translate(-114.32 -508.265)" fill="#ede3b7"/>
              <path id="Trazado_100242" data-name="Trazado 100242" d="M296.3,706.145a3.237,3.237,0,1,1,4.577,0A3.232,3.232,0,0,1,296.3,706.145Z" transform="translate(-97.63 -499.858)" fill="#ede3b7"/>
            </g>
            <g id="Grupo_53697" data-name="Grupo 53697" transform="translate(0 120.446)">
              <path id="Trazado_100243" data-name="Trazado 100243" d="M362.52,639.774a3.222,3.222,0,0,1,0,4.044Z" transform="translate(-362.52 -639.774)" fill="#ede3b7"/>
              <path id="Trazado_100244" data-name="Trazado 100244" d="M359.321,649.043a3.239,3.239,0,1,1,4.58,0A3.242,3.242,0,0,1,359.321,649.043Z" transform="translate(-351.572 -632.182)" fill="#ede3b7"/>
              <path id="Trazado_100245" data-name="Trazado 100245" d="M355.181,653.185a3.237,3.237,0,1,1,4.577,0A3.233,3.233,0,0,1,355.181,653.185Z" transform="translate(-334.882 -623.776)" fill="#ede3b7"/>
              <path id="Trazado_100246" data-name="Trazado 100246" d="M351.036,657.328a3.238,3.238,0,1,1,4.577,0A3.242,3.242,0,0,1,351.036,657.328Z" transform="translate(-318.189 -615.369)" fill="#ede3b7"/>
              <path id="Trazado_100247" data-name="Trazado 100247" d="M346.894,661.47a3.238,3.238,0,1,1,4.58,0A3.238,3.238,0,0,1,346.894,661.47Z" transform="translate(-301.5 -606.964)" fill="#ede3b7"/>
              <ellipse id="Elipse_3974" data-name="Elipse 3974" cx="3.237" cy="3.237" rx="3.237" ry="3.237" transform="translate(56.995 61.528)" fill="#ede3b7"/>
              <path id="Trazado_100248" data-name="Trazado 100248" d="M338.609,669.755a3.239,3.239,0,1,1,4.58,0A3.242,3.242,0,0,1,338.609,669.755Z" transform="translate(-268.117 -590.152)" fill="#ede3b7"/>
              <path id="Trazado_100249" data-name="Trazado 100249" d="M334.467,673.9a3.238,3.238,0,1,1,4.58,0A3.238,3.238,0,0,1,334.467,673.9Z" transform="translate(-251.428 -581.746)" fill="#ede3b7"/>
              <path id="Trazado_100250" data-name="Trazado 100250" d="M330.326,678.037a3.237,3.237,0,1,1,4.577,0A3.233,3.233,0,0,1,330.326,678.037Z" transform="translate(-234.737 -573.339)" fill="#ede3b7"/>
              <path id="Trazado_100251" data-name="Trazado 100251" d="M326.182,682.182a3.239,3.239,0,1,1,4.58,0A3.242,3.242,0,0,1,326.182,682.182Z" transform="translate(-218.045 -564.934)" fill="#ede3b7"/>
              <path id="Trazado_100252" data-name="Trazado 100252" d="M322.042,686.323a3.237,3.237,0,1,1,4.577,0A3.232,3.232,0,0,1,322.042,686.323Z" transform="translate(-201.355 -556.528)" fill="#ede3b7"/>
              <path id="Trazado_100253" data-name="Trazado 100253" d="M317.9,690.467a3.238,3.238,0,1,1,4.577,0A3.241,3.241,0,0,1,317.9,690.467Z" transform="translate(-184.663 -548.121)" fill="#ede3b7"/>
              <path id="Trazado_100254" data-name="Trazado 100254" d="M313.755,694.608a3.238,3.238,0,1,1,4.58,0A3.238,3.238,0,0,1,313.755,694.608Z" transform="translate(-167.974 -539.716)" fill="#ede3b7"/>
              <path id="Trazado_100255" data-name="Trazado 100255" d="M309.614,698.749a3.237,3.237,0,1,1,4.577,0A3.232,3.232,0,0,1,309.614,698.749Z" transform="translate(-151.283 -531.309)" fill="#ede3b7"/>
              <ellipse id="Elipse_3975" data-name="Elipse 3975" cx="3.237" cy="3.237" rx="3.237" ry="3.237" transform="translate(169.931 174.463)" fill="#ede3b7"/>
              <path id="Trazado_100256" data-name="Trazado 100256" d="M301.328,707.035a3.238,3.238,0,1,1,4.58,0A3.238,3.238,0,0,1,301.328,707.035Z" transform="translate(-117.902 -514.498)" fill="#ede3b7"/>
            </g>
            <g id="Grupo_53698" data-name="Grupo 53698" transform="translate(4.109 147.021)">
              <path id="Trazado_100257" data-name="Trazado 100257" d="M360.212,654.073a3.237,3.237,0,1,1,4.577,0A3.232,3.232,0,0,1,360.212,654.073Z" transform="translate(-359.262 -648.547)" fill="#ede3b7"/>
              <path id="Trazado_100258" data-name="Trazado 100258" d="M356.068,658.214a3.237,3.237,0,1,1,4.577,0A3.235,3.235,0,0,1,356.068,658.214Z" transform="translate(-342.571 -640.14)" fill="#ede3b7"/>
              <path id="Trazado_100259" data-name="Trazado 100259" d="M351.925,662.359a3.239,3.239,0,1,1,4.58,0A3.242,3.242,0,0,1,351.925,662.359Z" transform="translate(-325.88 -631.734)" fill="#ede3b7"/>
              <path id="Trazado_100260" data-name="Trazado 100260" d="M347.785,666.5a3.237,3.237,0,1,1,4.577,0A3.233,3.233,0,0,1,347.785,666.5Z" transform="translate(-309.19 -623.329)" fill="#ede3b7"/>
              <path id="Trazado_100261" data-name="Trazado 100261" d="M343.64,670.644a3.238,3.238,0,1,1,4.577,0A3.242,3.242,0,0,1,343.64,670.644Z" transform="translate(-292.498 -614.922)" fill="#ede3b7"/>
              <path id="Trazado_100262" data-name="Trazado 100262" d="M339.5,674.786a3.239,3.239,0,1,1,4.58,0A3.242,3.242,0,0,1,339.5,674.786Z" transform="translate(-275.809 -606.517)" fill="#ede3b7"/>
              <path id="Trazado_100263" data-name="Trazado 100263" d="M335.357,678.927a3.237,3.237,0,1,1,4.577,0A3.232,3.232,0,0,1,335.357,678.927Z" transform="translate(-259.118 -598.111)" fill="#ede3b7"/>
              <path id="Trazado_100264" data-name="Trazado 100264" d="M331.213,683.071a3.239,3.239,0,1,1,4.58,0A3.241,3.241,0,0,1,331.213,683.071Z" transform="translate(-242.426 -589.704)" fill="#ede3b7"/>
              <path id="Trazado_100265" data-name="Trazado 100265" d="M327.07,687.212a3.238,3.238,0,1,1,4.58,0A3.235,3.235,0,0,1,327.07,687.212Z" transform="translate(-225.736 -581.298)" fill="#ede3b7"/>
              <path id="Trazado_100266" data-name="Trazado 100266" d="M322.93,691.353a3.237,3.237,0,1,1,4.577,0A3.232,3.232,0,0,1,322.93,691.353Z" transform="translate(-209.046 -572.892)" fill="#ede3b7"/>
              <path id="Trazado_100267" data-name="Trazado 100267" d="M318.786,695.5a3.239,3.239,0,1,1,4.58,0A3.241,3.241,0,0,1,318.786,695.5Z" transform="translate(-192.354 -564.486)" fill="#ede3b7"/>
              <path id="Trazado_100268" data-name="Trazado 100268" d="M314.646,699.639a3.237,3.237,0,1,1,4.577,0A3.232,3.232,0,0,1,314.646,699.639Z" transform="translate(-175.664 -556.081)" fill="#ede3b7"/>
              <path id="Trazado_100269" data-name="Trazado 100269" d="M310.5,703.78a3.237,3.237,0,1,1,4.577,0A3.238,3.238,0,0,1,310.5,703.78Z" transform="translate(-158.972 -547.674)" fill="#ede3b7"/>
              <path id="Trazado_100270" data-name="Trazado 100270" d="M306.359,707.925a3.239,3.239,0,1,1,4.58,0A3.242,3.242,0,0,1,306.359,707.925Z" transform="translate(-142.283 -539.268)" fill="#ede3b7"/>
              <path id="Trazado_100271" data-name="Trazado 100271" d="M302.219,712.067a3.237,3.237,0,1,1,4.577,0A3.233,3.233,0,0,1,302.219,712.067Z" transform="translate(-125.592 -530.863)" fill="#ede3b7"/>
            </g>
            <g id="Grupo_53699" data-name="Grupo 53699" transform="translate(1.416 162.261)">
              <path id="Trazado_100272" data-name="Trazado 100272" d="M361.1,659.1a3.237,3.237,0,1,1,4.577,0A3.232,3.232,0,0,1,361.1,659.1Z" transform="translate(-360.15 -653.578)" fill="#ede3b7"/>
              <path id="Trazado_100273" data-name="Trazado 100273" d="M356.956,663.245a3.238,3.238,0,1,1,4.58,0A3.238,3.238,0,0,1,356.956,663.245Z" transform="translate(-343.459 -645.171)" fill="#ede3b7"/>
              <path id="Trazado_100274" data-name="Trazado 100274" d="M352.813,667.39a3.239,3.239,0,1,1,4.58,0A3.239,3.239,0,0,1,352.813,667.39Z" transform="translate(-326.769 -636.766)" fill="#ede3b7"/>
              <path id="Trazado_100275" data-name="Trazado 100275" d="M348.671,671.531a3.237,3.237,0,1,1,4.577,0A3.238,3.238,0,0,1,348.671,671.531Z" transform="translate(-310.076 -628.36)" fill="#ede3b7"/>
              <path id="Trazado_100276" data-name="Trazado 100276" d="M344.529,675.675a3.239,3.239,0,1,1,4.58,0A3.242,3.242,0,0,1,344.529,675.675Z" transform="translate(-293.387 -619.953)" fill="#ede3b7"/>
              <path id="Trazado_100277" data-name="Trazado 100277" d="M340.389,679.817a3.238,3.238,0,1,1,4.577,0A3.236,3.236,0,0,1,340.389,679.817Z" transform="translate(-276.697 -611.548)" fill="#ede3b7"/>
              <path id="Trazado_100278" data-name="Trazado 100278" d="M336.244,683.957a3.237,3.237,0,1,1,4.577,0A3.238,3.238,0,0,1,336.244,683.957Z" transform="translate(-260.005 -603.141)" fill="#ede3b7"/>
              <path id="Trazado_100279" data-name="Trazado 100279" d="M332.1,688.1a3.239,3.239,0,1,1,4.58,0A3.241,3.241,0,0,1,332.1,688.1Z" transform="translate(-243.315 -594.735)" fill="#ede3b7"/>
              <path id="Trazado_100280" data-name="Trazado 100280" d="M327.961,692.243a3.237,3.237,0,1,1,4.577,0A3.232,3.232,0,0,1,327.961,692.243Z" transform="translate(-226.624 -586.329)" fill="#ede3b7"/>
              <path id="Trazado_100281" data-name="Trazado 100281" d="M323.817,696.384a3.238,3.238,0,1,1,4.58,0A3.238,3.238,0,0,1,323.817,696.384Z" transform="translate(-209.933 -577.923)" fill="#ede3b7"/>
              <path id="Trazado_100282" data-name="Trazado 100282" d="M319.675,700.529a3.239,3.239,0,1,1,4.58,0A3.242,3.242,0,0,1,319.675,700.529Z" transform="translate(-193.243 -569.518)" fill="#ede3b7"/>
              <path id="Trazado_100283" data-name="Trazado 100283" d="M315.534,704.671a3.237,3.237,0,1,1,4.577,0A3.233,3.233,0,0,1,315.534,704.671Z" transform="translate(-176.552 -561.112)" fill="#ede3b7"/>
              <path id="Trazado_100284" data-name="Trazado 100284" d="M311.39,708.814a3.239,3.239,0,1,1,4.58,0A3.242,3.242,0,0,1,311.39,708.814Z" transform="translate(-159.861 -552.705)" fill="#ede3b7"/>
              <path id="Trazado_100285" data-name="Trazado 100285" d="M307.25,712.956a3.237,3.237,0,1,1,4.577,0A3.232,3.232,0,0,1,307.25,712.956Z" transform="translate(-143.171 -544.299)" fill="#ede3b7"/>
            </g>
            <g id="Grupo_53700" data-name="Grupo 53700" transform="translate(0 177.51)">
              <path id="Trazado_100286" data-name="Trazado 100286" d="M361.04,659.285a3.228,3.228,0,1,1,0,5.11Z" transform="translate(-361.04 -658.612)" fill="#ede3b7"/>
              <path id="Trazado_100287" data-name="Trazado 100287" d="M357.845,668.279a3.239,3.239,0,1,1,4.58,0A3.241,3.241,0,0,1,357.845,668.279Z" transform="translate(-345.625 -650.211)" fill="#ede3b7"/>
              <path id="Trazado_100288" data-name="Trazado 100288" d="M353.7,672.42a3.237,3.237,0,1,1,4.577,0A3.233,3.233,0,0,1,353.7,672.42Z" transform="translate(-328.934 -641.805)" fill="#ede3b7"/>
              <path id="Trazado_100289" data-name="Trazado 100289" d="M349.56,676.561a3.238,3.238,0,1,1,4.58,0A3.238,3.238,0,0,1,349.56,676.561Z" transform="translate(-312.242 -633.398)" fill="#ede3b7"/>
              <path id="Trazado_100290" data-name="Trazado 100290" d="M345.42,680.706a3.238,3.238,0,1,1,4.577,0A3.239,3.239,0,0,1,345.42,680.706Z" transform="translate(-295.552 -624.993)" fill="#ede3b7"/>
              <path id="Trazado_100291" data-name="Trazado 100291" d="M341.277,684.848a3.237,3.237,0,1,1,4.577,0A3.233,3.233,0,0,1,341.277,684.848Z" transform="translate(-278.862 -616.587)" fill="#ede3b7"/>
              <path id="Trazado_100292" data-name="Trazado 100292" d="M337.133,688.988a3.238,3.238,0,1,1,4.58,0A3.238,3.238,0,0,1,337.133,688.988Z" transform="translate(-262.17 -608.181)" fill="#ede3b7"/>
              <path id="Trazado_100293" data-name="Trazado 100293" d="M332.993,693.133a3.238,3.238,0,1,1,4.577,0A3.236,3.236,0,0,1,332.993,693.133Z" transform="translate(-245.48 -599.775)" fill="#ede3b7"/>
              <path id="Trazado_100294" data-name="Trazado 100294" d="M328.848,697.274a3.237,3.237,0,1,1,4.577,0A3.238,3.238,0,0,1,328.848,697.274Z" transform="translate(-228.788 -591.37)" fill="#ede3b7"/>
              <path id="Trazado_100295" data-name="Trazado 100295" d="M324.706,701.418a3.239,3.239,0,1,1,4.58,0A3.242,3.242,0,0,1,324.706,701.418Z" transform="translate(-212.098 -582.963)" fill="#ede3b7"/>
              <path id="Trazado_100296" data-name="Trazado 100296" d="M320.565,705.559a3.237,3.237,0,1,1,4.577,0A3.232,3.232,0,0,1,320.565,705.559Z" transform="translate(-195.408 -574.557)" fill="#ede3b7"/>
              <path id="Trazado_100297" data-name="Trazado 100297" d="M316.421,709.7a3.238,3.238,0,1,1,4.58,0A3.238,3.238,0,0,1,316.421,709.7Z" transform="translate(-178.716 -566.151)" fill="#ede3b7"/>
              <ellipse id="Elipse_3976" data-name="Elipse 3976" cx="3.238" cy="3.238" rx="3.238" ry="3.238" transform="translate(149.305 150.572)" fill="#ede3b7"/>
              <path id="Trazado_100298" data-name="Trazado 100298" d="M308.137,717.987a3.237,3.237,0,1,1,4.577,0A3.235,3.235,0,0,1,308.137,717.987Z" transform="translate(-145.335 -549.339)" fill="#ede3b7"/>
            </g>
            <g id="Grupo_53701" data-name="Grupo 53701" transform="translate(0 192.834)">
              <path id="Trazado_100299" data-name="Trazado 100299" d="M361.928,663.67a3.226,3.226,0,0,1,0,6.292Z" transform="translate(-361.928 -663.67)" fill="#ede3b7"/>
              <path id="Trazado_100300" data-name="Trazado 100300" d="M358.736,673.31a3.238,3.238,0,1,1,4.577,0A3.236,3.236,0,0,1,358.736,673.31Z" transform="translate(-349.206 -655.325)" fill="#ede3b7"/>
              <path id="Trazado_100301" data-name="Trazado 100301" d="M354.591,677.451a3.237,3.237,0,1,1,4.577,0A3.238,3.238,0,0,1,354.591,677.451Z" transform="translate(-332.513 -646.919)" fill="#ede3b7"/>
              <path id="Trazado_100302" data-name="Trazado 100302" d="M350.449,681.592a3.238,3.238,0,1,1,4.58,0A3.238,3.238,0,0,1,350.449,681.592Z" transform="translate(-315.824 -638.512)" fill="#ede3b7"/>
              <path id="Trazado_100303" data-name="Trazado 100303" d="M346.308,685.737a3.238,3.238,0,1,1,4.577,0A3.236,3.236,0,0,1,346.308,685.737Z" transform="translate(-299.133 -630.107)" fill="#ede3b7"/>
              <path id="Trazado_100304" data-name="Trazado 100304" d="M342.164,689.878a3.238,3.238,0,1,1,4.58,0A3.238,3.238,0,0,1,342.164,689.878Z" transform="translate(-282.441 -621.701)" fill="#ede3b7"/>
              <path id="Trazado_100305" data-name="Trazado 100305" d="M338.024,694.022a3.238,3.238,0,1,1,4.577,0A3.239,3.239,0,0,1,338.024,694.022Z" transform="translate(-265.752 -613.295)" fill="#ede3b7"/>
              <path id="Trazado_100306" data-name="Trazado 100306" d="M333.88,698.163a3.237,3.237,0,1,1,4.577,0A3.235,3.235,0,0,1,333.88,698.163Z" transform="translate(-249.06 -604.889)" fill="#ede3b7"/>
              <path id="Trazado_100307" data-name="Trazado 100307" d="M329.737,702.305a3.238,3.238,0,1,1,4.58,0A3.238,3.238,0,0,1,329.737,702.305Z" transform="translate(-232.37 -596.484)" fill="#ede3b7"/>
              <path id="Trazado_100308" data-name="Trazado 100308" d="M325.6,706.449a3.238,3.238,0,1,1,4.577,0A3.236,3.236,0,0,1,325.6,706.449Z" transform="translate(-215.68 -588.077)" fill="#ede3b7"/>
              <path id="Trazado_100309" data-name="Trazado 100309" d="M321.452,710.591a3.237,3.237,0,1,1,4.577,0A3.238,3.238,0,0,1,321.452,710.591Z" transform="translate(-198.987 -579.671)" fill="#ede3b7"/>
              <ellipse id="Elipse_3977" data-name="Elipse 3977" cx="3.237" cy="3.237" rx="3.237" ry="3.237" transform="translate(134.065 137.941)" fill="#ede3b7"/>
              <path id="Trazado_100310" data-name="Trazado 100310" d="M313.169,718.876a3.238,3.238,0,1,1,4.577,0A3.236,3.236,0,0,1,313.169,718.876Z" transform="translate(-165.607 -562.859)" fill="#ede3b7"/>
            </g>
            <g id="Grupo_53702" data-name="Grupo 53702" transform="translate(5.89 220.531)">
              <path id="Trazado_100311" data-name="Trazado 100311" d="M359.622,678.341a3.238,3.238,0,1,1,4.577,0A3.242,3.242,0,0,1,359.622,678.341Z" transform="translate(-358.674 -672.813)" fill="#ede3b7"/>
              <path id="Trazado_100312" data-name="Trazado 100312" d="M355.48,682.482a3.238,3.238,0,1,1,4.58,0A3.238,3.238,0,0,1,355.48,682.482Z" transform="translate(-341.985 -664.407)" fill="#ede3b7"/>
              <path id="Trazado_100313" data-name="Trazado 100313" d="M351.34,686.626a3.238,3.238,0,1,1,4.577,0A3.236,3.236,0,0,1,351.34,686.626Z" transform="translate(-325.295 -656.001)" fill="#ede3b7"/>
              <path id="Trazado_100314" data-name="Trazado 100314" d="M347.2,690.768a3.237,3.237,0,1,1,4.577,0A3.242,3.242,0,0,1,347.2,690.768Z" transform="translate(-308.603 -647.595)" fill="#ede3b7"/>
              <path id="Trazado_100315" data-name="Trazado 100315" d="M343.053,694.908a3.238,3.238,0,1,1,4.58,0A3.238,3.238,0,0,1,343.053,694.908Z" transform="translate(-291.913 -639.188)" fill="#ede3b7"/>
              <path id="Trazado_100316" data-name="Trazado 100316" d="M338.912,699.053a3.238,3.238,0,1,1,4.577,0A3.236,3.236,0,0,1,338.912,699.053Z" transform="translate(-275.222 -630.783)" fill="#ede3b7"/>
              <path id="Trazado_100317" data-name="Trazado 100317" d="M334.768,703.194a3.238,3.238,0,1,1,4.58,0A3.238,3.238,0,0,1,334.768,703.194Z" transform="translate(-258.531 -622.377)" fill="#ede3b7"/>
              <ellipse id="Elipse_3978" data-name="Elipse 3978" cx="3.238" cy="3.238" rx="3.238" ry="3.238" transform="translate(87.838 87.839)" fill="#ede3b7"/>
              <path id="Trazado_100318" data-name="Trazado 100318" d="M326.484,711.48a3.238,3.238,0,1,1,4.577,0A3.239,3.239,0,0,1,326.484,711.48Z" transform="translate(-225.149 -605.565)" fill="#ede3b7"/>
              <path id="Trazado_100319" data-name="Trazado 100319" d="M322.341,715.622a3.238,3.238,0,1,1,4.58,0A3.238,3.238,0,0,1,322.341,715.622Z" transform="translate(-208.459 -597.159)" fill="#ede3b7"/>
              <path id="Trazado_100320" data-name="Trazado 100320" d="M318.2,719.765a3.238,3.238,0,1,1,4.577,0A3.236,3.236,0,0,1,318.2,719.765Z" transform="translate(-191.769 -588.753)" fill="#ede3b7"/>
              <path id="Trazado_100321" data-name="Trazado 100321" d="M314.056,723.907a3.238,3.238,0,1,1,4.577,0A3.241,3.241,0,0,1,314.056,723.907Z" transform="translate(-175.076 -580.347)" fill="#ede3b7"/>
            </g>
            <g id="Grupo_53703" data-name="Grupo 53703" transform="translate(3.197 235.772)">
              <path id="Trazado_100322" data-name="Trazado 100322" d="M360.511,683.372a3.238,3.238,0,1,1,4.58,0A3.242,3.242,0,0,1,360.511,683.372Z" transform="translate(-359.563 -677.844)" fill="#ede3b7"/>
              <path id="Trazado_100323" data-name="Trazado 100323" d="M356.368,687.512a3.238,3.238,0,1,1,4.58,0A3.235,3.235,0,0,1,356.368,687.512Z" transform="translate(-342.874 -669.437)" fill="#ede3b7"/>
              <path id="Trazado_100324" data-name="Trazado 100324" d="M352.226,691.657a3.238,3.238,0,1,1,4.577,0A3.242,3.242,0,0,1,352.226,691.657Z" transform="translate(-326.181 -661.032)" fill="#ede3b7"/>
              <path id="Trazado_100325" data-name="Trazado 100325" d="M348.084,695.8a3.238,3.238,0,1,1,4.58,0A3.238,3.238,0,0,1,348.084,695.8Z" transform="translate(-309.491 -652.626)" fill="#ede3b7"/>
              <path id="Trazado_100326" data-name="Trazado 100326" d="M343.944,699.939a3.237,3.237,0,1,1,4.577,0A3.233,3.233,0,0,1,343.944,699.939Z" transform="translate(-292.802 -644.219)" fill="#ede3b7"/>
              <path id="Trazado_100327" data-name="Trazado 100327" d="M339.8,704.084a3.238,3.238,0,1,1,4.577,0A3.242,3.242,0,0,1,339.8,704.084Z" transform="translate(-276.109 -635.814)" fill="#ede3b7"/>
              <path id="Trazado_100328" data-name="Trazado 100328" d="M335.657,708.226a3.238,3.238,0,1,1,4.58,0A3.238,3.238,0,0,1,335.657,708.226Z" transform="translate(-259.42 -627.409)" fill="#ede3b7"/>
              <path id="Trazado_100329" data-name="Trazado 100329" d="M331.516,712.369a3.238,3.238,0,1,1,4.577,0A3.236,3.236,0,0,1,331.516,712.369Z" transform="translate(-242.729 -619.002)" fill="#ede3b7"/>
              <path id="Trazado_100330" data-name="Trazado 100330" d="M327.372,716.511a3.238,3.238,0,1,1,4.58,0A3.241,3.241,0,0,1,327.372,716.511Z" transform="translate(-226.037 -610.596)" fill="#ede3b7"/>
              <path id="Trazado_100331" data-name="Trazado 100331" d="M323.229,720.651a3.238,3.238,0,1,1,4.58,0A3.235,3.235,0,0,1,323.229,720.651Z" transform="translate(-209.347 -602.189)" fill="#ede3b7"/>
              <path id="Trazado_100332" data-name="Trazado 100332" d="M319.088,724.8a3.238,3.238,0,1,1,4.577,0A3.239,3.239,0,0,1,319.088,724.8Z" transform="translate(-192.656 -593.784)" fill="#ede3b7"/>
            </g>
            <g id="Grupo_53704" data-name="Grupo 53704" transform="translate(0.504 251.012)">
              <path id="Trazado_100333" data-name="Trazado 100333" d="M361.4,688.4a3.238,3.238,0,1,1,4.58,0A3.238,3.238,0,0,1,361.4,688.4Z" transform="translate(-360.452 -682.876)" fill="#ede3b7"/>
              <path id="Trazado_100334" data-name="Trazado 100334" d="M357.259,692.543a3.237,3.237,0,1,1,4.577,0A3.232,3.232,0,0,1,357.259,692.543Z" transform="translate(-343.762 -674.469)" fill="#ede3b7"/>
              <path id="Trazado_100335" data-name="Trazado 100335" d="M353.115,696.688a3.239,3.239,0,1,1,4.58,0A3.241,3.241,0,0,1,353.115,696.688Z" transform="translate(-327.07 -666.063)" fill="#ede3b7"/>
              <path id="Trazado_100336" data-name="Trazado 100336" d="M348.975,700.83a3.237,3.237,0,1,1,4.577,0A3.232,3.232,0,0,1,348.975,700.83Z" transform="translate(-310.38 -657.658)" fill="#ede3b7"/>
              <path id="Trazado_100337" data-name="Trazado 100337" d="M344.831,704.973a3.238,3.238,0,1,1,4.577,0A3.239,3.239,0,0,1,344.831,704.973Z" transform="translate(-293.689 -649.251)" fill="#ede3b7"/>
              <path id="Trazado_100338" data-name="Trazado 100338" d="M340.688,709.115a3.238,3.238,0,1,1,4.58,0A3.238,3.238,0,0,1,340.688,709.115Z" transform="translate(-276.998 -640.845)" fill="#ede3b7"/>
              <path id="Trazado_100339" data-name="Trazado 100339" d="M336.548,713.255a3.237,3.237,0,1,1,4.577,0A3.232,3.232,0,0,1,336.548,713.255Z" transform="translate(-260.308 -632.439)" fill="#ede3b7"/>
              <path id="Trazado_100340" data-name="Trazado 100340" d="M332.4,717.4a3.238,3.238,0,1,1,4.577,0A3.242,3.242,0,0,1,332.4,717.4Z" transform="translate(-243.616 -624.033)" fill="#ede3b7"/>
              <path id="Trazado_100341" data-name="Trazado 100341" d="M328.261,721.542a3.238,3.238,0,1,1,4.58,0A3.238,3.238,0,0,1,328.261,721.542Z" transform="translate(-226.926 -615.628)" fill="#ede3b7"/>
              <path id="Trazado_100342" data-name="Trazado 100342" d="M324.12,725.682a3.237,3.237,0,1,1,4.577,0A3.233,3.233,0,0,1,324.12,725.682Z" transform="translate(-210.235 -607.221)" fill="#ede3b7"/>
              <path id="Trazado_100343" data-name="Trazado 100343" d="M319.976,729.827a3.239,3.239,0,1,1,4.58,0A3.242,3.242,0,0,1,319.976,729.827Z" transform="translate(-193.544 -598.815)" fill="#ede3b7"/>
            </g>
            <g id="Grupo_53705" data-name="Grupo 53705" transform="translate(0 266.263)">
              <path id="Trazado_100344" data-name="Trazado 100344" d="M361.34,688.089a3.228,3.228,0,1,1,0,6.1Z" transform="translate(-361.34 -687.91)" fill="#ede3b7"/>
              <path id="Trazado_100345" data-name="Trazado 100345" d="M358.146,697.577a3.238,3.238,0,1,1,4.577,0A3.242,3.242,0,0,1,358.146,697.577Z" transform="translate(-346.837 -679.51)" fill="#ede3b7"/>
              <path id="Trazado_100346" data-name="Trazado 100346" d="M354,701.719a3.238,3.238,0,1,1,4.58,0A3.241,3.241,0,0,1,354,701.719Z" transform="translate(-330.148 -671.104)" fill="#ede3b7"/>
              <path id="Trazado_100347" data-name="Trazado 100347" d="M349.863,705.86a3.237,3.237,0,1,1,4.577,0A3.233,3.233,0,0,1,349.863,705.86Z" transform="translate(-313.457 -662.699)" fill="#ede3b7"/>
              <path id="Trazado_100348" data-name="Trazado 100348" d="M345.719,710a3.239,3.239,0,1,1,4.58,0A3.242,3.242,0,0,1,345.719,710Z" transform="translate(-296.766 -654.292)" fill="#ede3b7"/>
              <path id="Trazado_100349" data-name="Trazado 100349" d="M341.579,714.146a3.237,3.237,0,1,1,4.577,0A3.232,3.232,0,0,1,341.579,714.146Z" transform="translate(-280.076 -645.886)" fill="#ede3b7"/>
              <path id="Trazado_100350" data-name="Trazado 100350" d="M337.435,718.286a3.237,3.237,0,1,1,4.577,0A3.235,3.235,0,0,1,337.435,718.286Z" transform="translate(-263.384 -637.479)" fill="#ede3b7"/>
              <path id="Trazado_100351" data-name="Trazado 100351" d="M333.292,722.431a3.239,3.239,0,1,1,4.58,0A3.242,3.242,0,0,1,333.292,722.431Z" transform="translate(-246.694 -629.074)" fill="#ede3b7"/>
              <path id="Trazado_100352" data-name="Trazado 100352" d="M329.152,726.573a3.237,3.237,0,1,1,4.577,0A3.233,3.233,0,0,1,329.152,726.573Z" transform="translate(-230.004 -620.669)" fill="#ede3b7"/>
              <path id="Trazado_100353" data-name="Trazado 100353" d="M325.007,730.716a3.238,3.238,0,1,1,4.577,0A3.242,3.242,0,0,1,325.007,730.716Z" transform="translate(-213.311 -612.262)" fill="#ede3b7"/>
            </g>
            <g id="Grupo_53706" data-name="Grupo 53706" transform="translate(0 281.955)">
              <path id="Trazado_100354" data-name="Trazado 100354" d="M362.23,693.09a3.165,3.165,0,0,1,.645.488,3.233,3.233,0,0,1,0,4.577,3.292,3.292,0,0,1-.645.491Z" transform="translate(-362.23 -693.09)" fill="#ede3b7"/>
              <path id="Trazado_100355" data-name="Trazado 100355" d="M359.035,702.608a3.239,3.239,0,1,1,4.58,0A3.242,3.242,0,0,1,359.035,702.608Z" transform="translate(-350.419 -684.993)" fill="#ede3b7"/>
              <ellipse id="Elipse_3979" data-name="Elipse 3979" cx="3.237" cy="3.237" rx="3.237" ry="3.237" transform="translate(20.216 24.636)" fill="#ede3b7"/>
              <path id="Trazado_100356" data-name="Trazado 100356" d="M350.75,710.89a3.237,3.237,0,1,1,4.577,0A3.238,3.238,0,0,1,350.75,710.89Z" transform="translate(-317.037 -668.18)" fill="#ede3b7"/>
              <ellipse id="Elipse_3980" data-name="Elipse 3980" cx="3.237" cy="3.237" rx="3.237" ry="3.237" transform="translate(45.313 49.733)" fill="#ede3b7"/>
              <ellipse id="Elipse_3981" data-name="Elipse 3981" cx="3.237" cy="3.237" rx="3.237" ry="3.237" transform="translate(57.861 62.281)" fill="#ede3b7"/>
              <path id="Trazado_100357" data-name="Trazado 100357" d="M338.323,723.317a3.238,3.238,0,1,1,4.58,0A3.238,3.238,0,0,1,338.323,723.317Z" transform="translate(-266.965 -642.963)" fill="#ede3b7"/>
              <path id="Trazado_100358" data-name="Trazado 100358" d="M334.183,727.462a3.238,3.238,0,1,1,4.577,0A3.236,3.236,0,0,1,334.183,727.462Z" transform="translate(-250.275 -634.557)" fill="#ede3b7"/>
              <path id="Trazado_100359" data-name="Trazado 100359" d="M330.039,731.6a3.237,3.237,0,1,1,4.577,0A3.235,3.235,0,0,1,330.039,731.6Z" transform="translate(-233.584 -626.152)" fill="#ede3b7"/>
              <path id="Trazado_100360" data-name="Trazado 100360" d="M325.9,735.747a3.239,3.239,0,1,1,4.58,0A3.242,3.242,0,0,1,325.9,735.747Z" transform="translate(-216.893 -617.745)" fill="#ede3b7"/>
            </g>
            <g id="Grupo_53707" data-name="Grupo 53707" transform="translate(4.975 309.283)">
              <path id="Trazado_100361" data-name="Trazado 100361" d="M359.926,707.639a3.238,3.238,0,1,1,4.577,0A3.239,3.239,0,0,1,359.926,707.639Z" transform="translate(-358.976 -702.112)" fill="#ede3b7"/>
              <path id="Trazado_100362" data-name="Trazado 100362" d="M355.781,711.781a3.237,3.237,0,1,1,4.577,0A3.238,3.238,0,0,1,355.781,711.781Z" transform="translate(-342.284 -693.706)" fill="#ede3b7"/>
              <path id="Trazado_100363" data-name="Trazado 100363" d="M351.639,715.924a3.239,3.239,0,1,1,4.58,0A3.242,3.242,0,0,1,351.639,715.924Z" transform="translate(-325.594 -685.299)" fill="#ede3b7"/>
              <path id="Trazado_100364" data-name="Trazado 100364" d="M347.5,720.065a3.237,3.237,0,1,1,4.577,0A3.232,3.232,0,0,1,347.5,720.065Z" transform="translate(-308.904 -676.893)" fill="#ede3b7"/>
              <path id="Trazado_100365" data-name="Trazado 100365" d="M343.354,724.207a3.237,3.237,0,1,1,4.577,0A3.238,3.238,0,0,1,343.354,724.207Z" transform="translate(-292.212 -668.487)" fill="#ede3b7"/>
              <path id="Trazado_100366" data-name="Trazado 100366" d="M339.212,728.351a3.239,3.239,0,1,1,4.58,0A3.242,3.242,0,0,1,339.212,728.351Z" transform="translate(-275.522 -660.081)" fill="#ede3b7"/>
              <path id="Trazado_100367" data-name="Trazado 100367" d="M335.071,732.492a3.237,3.237,0,1,1,4.577,0A3.232,3.232,0,0,1,335.071,732.492Z" transform="translate(-258.832 -651.675)" fill="#ede3b7"/>
              <path id="Trazado_100368" data-name="Trazado 100368" d="M330.927,736.633a3.238,3.238,0,1,1,4.58,0A3.238,3.238,0,0,1,330.927,736.633Z" transform="translate(-242.14 -643.268)" fill="#ede3b7"/>
            </g>
            <g id="Grupo_53708" data-name="Grupo 53708" transform="translate(2.283 324.524)">
              <path id="Trazado_100369" data-name="Trazado 100369" d="M360.814,712.669a3.237,3.237,0,1,1,4.577,0A3.232,3.232,0,0,1,360.814,712.669Z" transform="translate(-359.864 -707.143)" fill="#ede3b7"/>
              <path id="Trazado_100370" data-name="Trazado 100370" d="M356.67,716.811a3.238,3.238,0,1,1,4.58,0A3.238,3.238,0,0,1,356.67,716.811Z" transform="translate(-343.173 -698.736)" fill="#ede3b7"/>
              <path id="Trazado_100371" data-name="Trazado 100371" d="M352.53,720.955a3.238,3.238,0,1,1,4.577,0A3.236,3.236,0,0,1,352.53,720.955Z" transform="translate(-326.483 -690.331)" fill="#ede3b7"/>
              <path id="Trazado_100372" data-name="Trazado 100372" d="M348.386,725.1a3.237,3.237,0,1,1,4.577,0A3.235,3.235,0,0,1,348.386,725.1Z" transform="translate(-309.792 -681.925)" fill="#ede3b7"/>
              <path id="Trazado_100373" data-name="Trazado 100373" d="M344.243,729.237a3.238,3.238,0,1,1,4.58,0A3.238,3.238,0,0,1,344.243,729.237Z" transform="translate(-293.101 -673.518)" fill="#ede3b7"/>
              <path id="Trazado_100374" data-name="Trazado 100374" d="M340.1,733.382a3.238,3.238,0,1,1,4.577,0A3.236,3.236,0,0,1,340.1,733.382Z" transform="translate(-276.411 -665.113)" fill="#ede3b7"/>
              <path id="Trazado_100375" data-name="Trazado 100375" d="M335.958,737.523a3.237,3.237,0,1,1,4.577,0A3.238,3.238,0,0,1,335.958,737.523Z" transform="translate(-259.719 -656.707)" fill="#ede3b7"/>
              <ellipse id="Elipse_3982" data-name="Elipse 3982" cx="3.238" cy="3.238" rx="3.238" ry="3.238" transform="translate(87.839 87.839)" fill="#ede3b7"/>
            </g>
            <g id="Grupo_53709" data-name="Grupo 53709" transform="translate(0 339.764)">
              <path id="Trazado_100376" data-name="Trazado 100376" d="M360.753,713.868a3.115,3.115,0,0,1,.539-.745,3.237,3.237,0,1,1,0,4.577,3.121,3.121,0,0,1-.539-.748Z" transform="translate(-360.753 -712.174)" fill="#ede3b7"/>
              <ellipse id="Elipse_3983" data-name="Elipse 3983" cx="3.237" cy="3.237" rx="3.237" ry="3.237" transform="translate(12.14 12.549)" fill="#ede3b7"/>
              <path id="Trazado_100377" data-name="Trazado 100377" d="M353.418,725.986a3.238,3.238,0,1,1,4.577,0A3.236,3.236,0,0,1,353.418,725.986Z" transform="translate(-327.781 -695.361)" fill="#ede3b7"/>
              <path id="Trazado_100378" data-name="Trazado 100378" d="M349.274,730.128a3.238,3.238,0,1,1,4.58,0A3.238,3.238,0,0,1,349.274,730.128Z" transform="translate(-311.09 -686.956)" fill="#ede3b7"/>
              <path id="Trazado_100379" data-name="Trazado 100379" d="M345.134,734.271a3.238,3.238,0,1,1,4.577,0A3.236,3.236,0,0,1,345.134,734.271Z" transform="translate(-294.4 -678.549)" fill="#ede3b7"/>
              <path id="Trazado_100380" data-name="Trazado 100380" d="M340.989,738.413a3.238,3.238,0,1,1,4.577,0A3.242,3.242,0,0,1,340.989,738.413Z" transform="translate(-277.707 -670.144)" fill="#ede3b7"/>
              <path id="Trazado_100381" data-name="Trazado 100381" d="M336.847,742.554a3.238,3.238,0,1,1,4.58,0A3.238,3.238,0,0,1,336.847,742.554Z" transform="translate(-261.018 -661.738)" fill="#ede3b7"/>
            </g>
          </g>
          <path id="Trazado_100382" data-name="Trazado 100382" d="M213.3,914.819v-15.43l226.726-218.66L682.75,914.819Z" transform="translate(-213.298 -345.329)" fill="#f7f1d7"/>
          <g id="Grupo_53711" data-name="Grupo 53711">
            <path id="Trazado_100383" data-name="Trazado 100383" d="M342.8,611.4l44.612-44.612H403.25L342.8,627.235Z" transform="translate(-342.802 -566.787)" fill="#fff"/>
            <path id="Trazado_100384" data-name="Trazado 100384" d="M333.863,638.477l71.69-71.69h15.836l-84.567,84.567-2.959-2.959Z" transform="translate(-333.863 -566.787)" fill="#fff"/>
            <path id="Trazado_100385" data-name="Trazado 100385" d="M430.948,566.787l-98.106,98.106-7.918-7.918,90.188-90.188Z" transform="translate(-316.344 -566.787)" fill="#fff"/>
            <path id="Trazado_100386" data-name="Trazado 100386" d="M435.548,566.787,323.9,678.432l-7.918-7.918L419.713,566.787Z" transform="translate(-293.866 -566.787)" fill="#fff"/>
            <path id="Trazado_100387" data-name="Trazado 100387" d="M440.148,566.787,314.965,691.971l-7.918-7.918L424.313,566.787Z" transform="translate(-271.389 -566.787)" fill="#fff"/>
            <path id="Trazado_100388" data-name="Trazado 100388" d="M444.749,566.787,306.026,705.51l-7.918-7.918,130.8-130.805Z" transform="translate(-248.911 -566.787)" fill="#fff"/>
          </g>
          <rect id="Rectngulo_5077" data-name="Rectngulo 5077" width="49.921" height="49.921" transform="translate(210.834 87.13) rotate(-45)" fill="#fff"/>
          <g id="Grupo_53716" data-name="Grupo 53716" transform="translate(71.83 100.794)" style="isolation: isolate">
            <g id="Grupo_53712" data-name="Grupo 53712" transform="translate(33.965)">
              <path id="Trazado_100389" data-name="Trazado 100389" d="M307.682,600.753v7.221h26.282v26.282h26.282v26.282h26.283v46.919h-6.634V667.173H353.613V640.891H327.331V614.609H301.048v-7.221Z" transform="translate(-301.048 -600.753)" fill="#fff"/>
            </g>
            <g id="Grupo_53713" data-name="Grupo 53713" transform="translate(22.643 11.322)">
              <path id="Trazado_100390" data-name="Trazado 100390" d="M311.42,604.491v7.221H337.7v26.283h26.282v26.282h26.283v46.918h-6.633V670.911H357.35V644.628H331.068V618.346H304.785v-7.221Z" transform="translate(-304.785 -604.491)" fill="#fff"/>
            </g>
            <g id="Grupo_53714" data-name="Grupo 53714" transform="translate(11.321 22.643)">
              <path id="Trazado_100391" data-name="Trazado 100391" d="M315.157,608.228v7.221h26.282v26.283h26.282v26.282H394v46.918H387.37V674.648H361.088V648.365H334.805V622.083H308.523v-7.221Z" transform="translate(-308.523 -608.228)" fill="#fff"/>
            </g>
            <g id="Grupo_53715" data-name="Grupo 53715" transform="translate(0 33.965)">
              <path id="Trazado_100392" data-name="Trazado 100392" d="M318.894,611.965v7.221h26.282v26.283h26.283v26.282h26.283v46.918h-6.633V678.386H364.825V652.1H338.543V625.821H312.26V618.6Z" transform="translate(-312.26 -611.965)" fill="#fff"/>
            </g>
          </g>
        </g>
        <g id="Grupo_53730" data-name="Grupo 53730" transform="translate(1148.506 27.456)">
          <g id="Grupo_53729" data-name="Grupo 53729">
            <g id="Grupo_53727" data-name="Grupo 53727" transform="translate(0)">
              <g id="Grupo_53718" data-name="Grupo 53718" transform="translate(172.251)">
                <path id="Trazado_100393" data-name="Trazado 100393" d="M181.393,566.787a3.807,3.807,0,1,1-6.355,0Z" transform="translate(-174.41 -566.787)" fill="#fffcef"/>
                <path id="Trazado_100394" data-name="Trazado 100394" d="M171.93,571.556a3.79,3.79,0,0,1,4.556-.606v6.6a3.8,3.8,0,0,1-4.556-5.995Z" transform="translate(-156.06 -557.397)" fill="#fffcef"/>
              </g>
              <g id="Grupo_53719" data-name="Grupo 53719" transform="translate(154.33 1.455)">
                <path id="Trazado_100395" data-name="Trazado 100395" d="M180.555,573.694a3.807,3.807,0,1,1,5.386,0A3.808,3.808,0,0,1,180.555,573.694Z" transform="translate(-179.441 -567.195)" fill="#fffcef"/>
                <path id="Trazado_100396" data-name="Trazado 100396" d="M176.415,577.838a3.807,3.807,0,1,1,5.382,0A3.805,3.805,0,0,1,176.415,577.838Z" transform="translate(-160.544 -556.582)" fill="#fffcef"/>
                <path id="Trazado_100397" data-name="Trazado 100397" d="M172.27,581.979a3.807,3.807,0,1,1,5.386,0A3.807,3.807,0,0,1,172.27,581.979Z" transform="translate(-141.645 -545.97)" fill="#fffcef"/>
              </g>
              <g id="Grupo_53720" data-name="Grupo 53720" transform="translate(136.409 4.622)">
                <circle id="Elipse_3984" data-name="Elipse 3984" cx="3.807" cy="3.807" r="3.807" transform="translate(0)" fill="#fffcef"/>
                <path id="Trazado_100398" data-name="Trazado 100398" d="M181.447,578.723a3.806,3.806,0,1,1,5.382,0A3.8,3.8,0,0,1,181.447,578.723Z" transform="translate(-165.575 -557.471)" fill="#fffcef"/>
                <path id="Trazado_100399" data-name="Trazado 100399" d="M177.3,582.869a3.807,3.807,0,1,1,5.382,0A3.811,3.811,0,0,1,177.3,582.869Z" transform="translate(-146.676 -546.859)" fill="#fffcef"/>
                <path id="Trazado_100400" data-name="Trazado 100400" d="M173.159,587.01a3.807,3.807,0,1,1,5.386,0A3.807,3.807,0,0,1,173.159,587.01Z" transform="translate(-127.781 -536.247)" fill="#fffcef"/>
              </g>
              <g id="Grupo_53721" data-name="Grupo 53721" transform="translate(105.423)">
                <path id="Trazado_100401" data-name="Trazado 100401" d="M198.355,566.787a3.8,3.8,0,0,1-4.235,0Z" transform="translate(-194.12 -566.787)" fill="#fffcef"/>
                <path id="Trazado_100402" data-name="Trazado 100402" d="M190.617,575.473a3.808,3.808,0,1,1,5.386,0A3.812,3.812,0,0,1,190.617,575.473Z" transform="translate(-176.437 -561.186)" fill="#fffcef"/>
                <path id="Trazado_100403" data-name="Trazado 100403" d="M186.478,579.614a3.806,3.806,0,1,1,5.382,0A3.8,3.8,0,0,1,186.478,579.614Z" transform="translate(-157.541 -550.574)" fill="#fffcef"/>
                <path id="Trazado_100404" data-name="Trazado 100404" d="M182.332,583.754a3.806,3.806,0,1,1,5.382,0A3.807,3.807,0,0,1,182.332,583.754Z" transform="translate(-138.642 -539.96)" fill="#fffcef"/>
                <path id="Trazado_100405" data-name="Trazado 100405" d="M178.19,587.9a3.808,3.808,0,1,1,5.386,0A3.811,3.811,0,0,1,178.19,587.9Z" transform="translate(-119.746 -529.348)" fill="#fffcef"/>
                <path id="Trazado_100406" data-name="Trazado 100406" d="M174.051,592.041a3.806,3.806,0,1,1,5.382,0A3.8,3.8,0,0,1,174.051,592.041Z" transform="translate(-100.849 -518.736)" fill="#fffcef"/>
              </g>
              <g id="Grupo_53722" data-name="Grupo 53722" transform="translate(85.815)">
                <path id="Trazado_100407" data-name="Trazado 100407" d="M206.289,566.787a3.806,3.806,0,1,1-7.612,0Z" transform="translate(-198.677 -566.787)" fill="#fffcef"/>
                <path id="Trazado_100408" data-name="Trazado 100408" d="M195.648,576.358a3.806,3.806,0,1,1,5.382,0A3.807,3.807,0,0,1,195.648,576.358Z" transform="translate(-179.78 -558.908)" fill="#fffcef"/>
                <path id="Trazado_100409" data-name="Trazado 100409" d="M191.506,580.5a3.808,3.808,0,1,1,5.386,0A3.811,3.811,0,0,1,191.506,580.5Z" transform="translate(-160.884 -548.296)" fill="#fffcef"/>
                <path id="Trazado_100410" data-name="Trazado 100410" d="M187.366,584.645a3.806,3.806,0,1,1,5.382,0A3.8,3.8,0,0,1,187.366,584.645Z" transform="translate(-141.987 -537.685)" fill="#fffcef"/>
                <path id="Trazado_100411" data-name="Trazado 100411" d="M183.221,588.789a3.808,3.808,0,1,1,5.386,0A3.812,3.812,0,0,1,183.221,588.789Z" transform="translate(-123.088 -527.071)" fill="#fffcef"/>
                <path id="Trazado_100412" data-name="Trazado 100412" d="M179.082,592.93a3.806,3.806,0,1,1,5.382,0A3.808,3.808,0,0,1,179.082,592.93Z" transform="translate(-104.192 -516.459)" fill="#fffcef"/>
                <path id="Trazado_100413" data-name="Trazado 100413" d="M174.939,597.07a3.806,3.806,0,1,1,5.382,0A3.8,3.8,0,0,1,174.939,597.07Z" transform="translate(-85.295 -505.845)" fill="#fffcef"/>
                <path id="Trazado_100414" data-name="Trazado 100414" d="M171.927,595.815a3.8,3.8,0,0,1,2.465-1.094v7.573a3.792,3.792,0,0,1-2.465-6.479Z" transform="translate(-67.53 -495.219)" fill="#fffcef"/>
              </g>
              <g id="Grupo_53723" data-name="Grupo 53723" transform="translate(67.892)">
                <path id="Trazado_100415" data-name="Trazado 100415" d="M205.41,566.787h4.214a3.907,3.907,0,0,1,.584.477,3.808,3.808,0,1,1-5.386,0A4.121,4.121,0,0,1,205.41,566.787Z" transform="translate(-203.708 -566.787)" fill="#fffcef"/>
                <path id="Trazado_100416" data-name="Trazado 100416" d="M200.681,577.249a3.806,3.806,0,1,1,5.382,0A3.8,3.8,0,0,1,200.681,577.249Z" transform="translate(-184.81 -556.633)" fill="#fffcef"/>
                <path id="Trazado_100417" data-name="Trazado 100417" d="M196.537,581.393a3.808,3.808,0,1,1,5.386,0A3.812,3.812,0,0,1,196.537,581.393Z" transform="translate(-165.912 -546.019)" fill="#fffcef"/>
                <path id="Trazado_100418" data-name="Trazado 100418" d="M192.4,585.534a3.806,3.806,0,1,1,5.382,0A3.8,3.8,0,0,1,192.4,585.534Z" transform="translate(-147.016 -535.407)" fill="#fffcef"/>
                <path id="Trazado_100419" data-name="Trazado 100419" d="M188.253,589.674a3.806,3.806,0,1,1,5.382,0A3.807,3.807,0,0,1,188.253,589.674Z" transform="translate(-128.117 -524.793)" fill="#fffcef"/>
                <path id="Trazado_100420" data-name="Trazado 100420" d="M184.11,593.82a3.808,3.808,0,1,1,5.386,0A3.812,3.812,0,0,1,184.11,593.82Z" transform="translate(-109.221 -514.182)" fill="#fffcef"/>
                <path id="Trazado_100421" data-name="Trazado 100421" d="M179.97,597.961a3.806,3.806,0,1,1,5.382,0A3.8,3.8,0,0,1,179.97,597.961Z" transform="translate(-90.324 -503.569)" fill="#fffcef"/>
                <path id="Trazado_100422" data-name="Trazado 100422" d="M175.825,602.1a3.807,3.807,0,1,1,5.386,0A3.807,3.807,0,0,1,175.825,602.1Z" transform="translate(-71.425 -492.956)" fill="#fffcef"/>
                <path id="Trazado_100423" data-name="Trazado 100423" d="M171.927,600.861a3.812,3.812,0,0,1,5.386,0c.093.1.164.2.246.3v4.78c-.082.1-.153.207-.246.3a3.808,3.808,0,0,1-5.386-5.386Z" transform="translate(-52.773 -482.344)" fill="#fffcef"/>
              </g>
              <g id="Grupo_53724" data-name="Grupo 53724" transform="translate(49.972 2.53)">
                <path id="Trazado_100424" data-name="Trazado 100424" d="M209.853,574a3.808,3.808,0,1,1,5.386,0A3.812,3.812,0,0,1,209.853,574Z" transform="translate(-208.739 -567.497)" fill="#fffcef"/>
                <path id="Trazado_100425" data-name="Trazado 100425" d="M205.713,578.138a3.806,3.806,0,1,1,5.382,0A3.8,3.8,0,0,1,205.713,578.138Z" transform="translate(-189.842 -556.885)" fill="#fffcef"/>
                <path id="Trazado_100426" data-name="Trazado 100426" d="M201.568,582.278a3.807,3.807,0,1,1,5.386,0A3.808,3.808,0,0,1,201.568,582.278Z" transform="translate(-170.943 -546.271)" fill="#fffcef"/>
                <path id="Trazado_100427" data-name="Trazado 100427" d="M197.429,586.424a3.807,3.807,0,1,1,5.382,0A3.805,3.805,0,0,1,197.429,586.424Z" transform="translate(-152.047 -535.66)" fill="#fffcef"/>
                <path id="Trazado_100428" data-name="Trazado 100428" d="M193.283,590.565a3.806,3.806,0,1,1,5.382,0A3.807,3.807,0,0,1,193.283,590.565Z" transform="translate(-133.148 -525.048)" fill="#fffcef"/>
                <path id="Trazado_100429" data-name="Trazado 100429" d="M189.141,594.706a3.807,3.807,0,1,1,5.386,0A3.808,3.808,0,0,1,189.141,594.706Z" transform="translate(-114.252 -514.434)" fill="#fffcef"/>
                <path id="Trazado_100430" data-name="Trazado 100430" d="M185,598.851a3.807,3.807,0,1,1,5.382,0A3.805,3.805,0,0,1,185,598.851Z" transform="translate(-95.355 -503.822)" fill="#fffcef"/>
                <path id="Trazado_100431" data-name="Trazado 100431" d="M180.857,602.992a3.806,3.806,0,1,1,5.382,0A3.807,3.807,0,0,1,180.857,602.992Z" transform="translate(-76.456 -493.21)" fill="#fffcef"/>
                <path id="Trazado_100432" data-name="Trazado 100432" d="M176.714,607.136a3.808,3.808,0,1,1,5.386,0A3.812,3.812,0,0,1,176.714,607.136Z" transform="translate(-57.561 -482.596)" fill="#fffcef"/>
                <path id="Trazado_100433" data-name="Trazado 100433" d="M172.574,611.277a3.806,3.806,0,1,1,5.382,0A3.8,3.8,0,0,1,172.574,611.277Z" transform="translate(-38.663 -471.984)" fill="#fffcef"/>
              </g>
              <g id="Grupo_53725" data-name="Grupo 53725" transform="translate(32.051 5.696)">
                <path id="Trazado_100434" data-name="Trazado 100434" d="M214.884,574.883a3.807,3.807,0,1,1,5.386,0A3.808,3.808,0,0,1,214.884,574.883Z" transform="translate(-213.77 -568.386)" fill="#fffcef"/>
                <path id="Trazado_100435" data-name="Trazado 100435" d="M210.745,579.028a3.807,3.807,0,1,1,5.382,0A3.805,3.805,0,0,1,210.745,579.028Z" transform="translate(-194.874 -557.774)" fill="#fffcef"/>
                <path id="Trazado_100436" data-name="Trazado 100436" d="M206.6,583.169a3.806,3.806,0,1,1,5.382,0A3.807,3.807,0,0,1,206.6,583.169Z" transform="translate(-175.975 -547.162)" fill="#fffcef"/>
                <path id="Trazado_100437" data-name="Trazado 100437" d="M202.457,587.309a3.807,3.807,0,1,1,5.386,0A3.807,3.807,0,0,1,202.457,587.309Z" transform="translate(-157.079 -536.549)" fill="#fffcef"/>
                <path id="Trazado_100438" data-name="Trazado 100438" d="M198.317,591.455a3.807,3.807,0,1,1,5.382,0A3.805,3.805,0,0,1,198.317,591.455Z" transform="translate(-138.182 -525.937)" fill="#fffcef"/>
                <path id="Trazado_100439" data-name="Trazado 100439" d="M194.172,595.6a3.807,3.807,0,1,1,5.386,0A3.807,3.807,0,0,1,194.172,595.6Z" transform="translate(-119.283 -515.325)" fill="#fffcef"/>
                <path id="Trazado_100440" data-name="Trazado 100440" d="M190.033,599.74a3.807,3.807,0,1,1,5.382,0A3.805,3.805,0,0,1,190.033,599.74Z" transform="translate(-100.387 -504.711)" fill="#fffcef"/>
                <path id="Trazado_100441" data-name="Trazado 100441" d="M185.887,603.882a3.807,3.807,0,1,1,5.382,0A3.812,3.812,0,0,1,185.887,603.882Z" transform="translate(-81.487 -494.1)" fill="#fffcef"/>
                <path id="Trazado_100442" data-name="Trazado 100442" d="M181.745,608.022a3.807,3.807,0,1,1,5.386,0A3.807,3.807,0,0,1,181.745,608.022Z" transform="translate(-62.592 -483.486)" fill="#fffcef"/>
                <circle id="Elipse_3985" data-name="Elipse 3985" cx="3.807" cy="3.807" r="3.807" transform="translate(132.794 132.793)" fill="#fffcef"/>
                <path id="Trazado_100443" data-name="Trazado 100443" d="M173.461,616.308a3.806,3.806,0,1,1,5.382,0A3.807,3.807,0,0,1,173.461,616.308Z" transform="translate(-24.796 -462.262)" fill="#fffcef"/>
              </g>
              <g id="Grupo_53726" data-name="Grupo 53726">
                <path id="Trazado_100444" data-name="Trazado 100444" d="M229.484,566.787a3.725,3.725,0,0,1-.492.605,3.807,3.807,0,0,1-5.382,0,3.724,3.724,0,0,1-.492-.605Z" transform="translate(-223.119 -566.787)" fill="#fffcef"/>
                <path id="Trazado_100445" data-name="Trazado 100445" d="M219.915,575.773a3.807,3.807,0,1,1,5.386,0A3.807,3.807,0,0,1,219.915,575.773Z" transform="translate(-204.67 -560.414)" fill="#fffcef"/>
                <path id="Trazado_100446" data-name="Trazado 100446" d="M215.776,579.913a3.806,3.806,0,1,1,5.382,0A3.8,3.8,0,0,1,215.776,579.913Z" transform="translate(-185.774 -549.8)" fill="#fffcef"/>
                <path id="Trazado_100447" data-name="Trazado 100447" d="M211.63,584.059a3.807,3.807,0,1,1,5.382,0A3.812,3.812,0,0,1,211.63,584.059Z" transform="translate(-166.875 -539.189)" fill="#fffcef"/>
                <path id="Trazado_100448" data-name="Trazado 100448" d="M207.488,588.2a3.807,3.807,0,1,1,5.386,0A3.807,3.807,0,0,1,207.488,588.2Z" transform="translate(-147.979 -528.577)" fill="#fffcef"/>
                <path id="Trazado_100449" data-name="Trazado 100449" d="M203.349,592.344a3.807,3.807,0,1,1,5.382,0A3.805,3.805,0,0,1,203.349,592.344Z" transform="translate(-129.082 -517.963)" fill="#fffcef"/>
                <path id="Trazado_100450" data-name="Trazado 100450" d="M199.2,596.486a3.807,3.807,0,1,1,5.382,0A3.812,3.812,0,0,1,199.2,596.486Z" transform="translate(-110.183 -507.351)" fill="#fffcef"/>
                <path id="Trazado_100451" data-name="Trazado 100451" d="M195.061,600.627a3.807,3.807,0,1,1,5.386,0A3.807,3.807,0,0,1,195.061,600.627Z" transform="translate(-91.287 -496.739)" fill="#fffcef"/>
                <path id="Trazado_100452" data-name="Trazado 100452" d="M190.921,604.771a3.807,3.807,0,1,1,5.382,0A3.805,3.805,0,0,1,190.921,604.771Z" transform="translate(-72.39 -486.126)" fill="#fffcef"/>
                <path id="Trazado_100453" data-name="Trazado 100453" d="M186.776,608.912a3.807,3.807,0,1,1,5.386,0A3.807,3.807,0,0,1,186.776,608.912Z" transform="translate(-53.491 -475.513)" fill="#fffcef"/>
                <path id="Trazado_100454" data-name="Trazado 100454" d="M182.637,613.052a3.806,3.806,0,1,1,5.382,0A3.8,3.8,0,0,1,182.637,613.052Z" transform="translate(-34.595 -464.9)" fill="#fffcef"/>
                <path id="Trazado_100455" data-name="Trazado 100455" d="M178.493,617.2a3.807,3.807,0,1,1,5.382,0A3.809,3.809,0,0,1,178.493,617.2Z" transform="translate(-15.697 -454.288)" fill="#fffcef"/>
                <path id="Trazado_100456" data-name="Trazado 100456" d="M174.349,621.339a3.807,3.807,0,1,1,5.386,0A3.807,3.807,0,0,1,174.349,621.339Z" transform="translate(3.2 -443.676)" fill="#fffcef"/>
                <path id="Trazado_100457" data-name="Trazado 100457" d="M171.93,619.516a3.739,3.739,0,0,1,.37-.306V625.2a3.305,3.305,0,0,1-.37-.306A3.8,3.8,0,0,1,171.93,619.516Z" transform="translate(20.377 -432.481)" fill="#fffcef"/>
              </g>
            </g>
            <g id="Grupo_53728" data-name="Grupo 53728" transform="translate(104.533 332.932)">
              <path id="Trazado_100458" data-name="Trazado 100458" d="M218.31,660.256l-51.883,51.88,51.883,51.884,51.883-51.884Zm-31.128,51.88,31.128-31.128,31.131,31.128L218.31,743.267Z" transform="translate(-166.427 -660.256)" fill="#fffcef"/>
            </g>
            <path id="Trazado_100459" data-name="Trazado 100459" d="M250.037,587.1v148.27L175.9,661.232Z" transform="translate(-75.487 -514.751)" fill="#ede3b7"/>
          </g>
        </g>
      </g>
    </g>
  </g>
</svg>
