<svg xmlns="http://www.w3.org/2000/svg" width="54.747" height="101.797" viewBox="0 0 54.747 101.797">
  <g id="Grupo_55589" data-name="Grupo 55589" transform="translate(279.799 375.547)">
    <path id="Trazado_105290" data-name="Trazado 105290" d="M-265.212-370.468s1.534,5.7,5.951,5.96c0,0-5.9,2.037-6,6.391,0,0-1.16-6.108-5.816-6.327,0,0,5.423-.821,5.861-6.024Z" fill="#fcb268"/>
    <path id="Trazado_105291" data-name="Trazado 105291" d="M-265.257-357.44a.674.674,0,0,1-.662-.547c-.012-.056-1.123-5.588-5.185-5.78a.675.675,0,0,1-.639-.709.676.676,0,0,1,.57-.632c.2-.031,4.9-.818,5.288-5.415a.676.676,0,0,1,.73-.615.676.676,0,0,1,.594.5c.016.052,1.468,5.231,5.34,5.463a.675.675,0,0,1,.634.714.674.674,0,0,1-.454.6c-.054.018-5.453,1.939-5.541,5.769a.672.672,0,0,1-.617.656h-.058Zm-3.484-7.078a7.869,7.869,0,0,1,3.415,3.994,9.6,9.6,0,0,1,4.027-3.792,8.235,8.235,0,0,1-3.75-3.925,7.247,7.247,0,0,1-3.692,3.723Z" fill="#3a312a"/>
    <path id="Trazado_105292" data-name="Trazado 105292" d="M-274.976-362.826s1.085,4.028,4.208,4.216c0,0-4.17,1.44-4.24,4.52,0,0-.82-4.32-4.113-4.475C-279.121-358.565-275.286-359.147-274.976-362.826Z" fill="#fcb268"/>
    <path id="Trazado_105293" data-name="Trazado 105293" d="M-275.008-353.415a.675.675,0,0,1-.663-.55c-.007-.036-.767-3.8-3.482-3.925a.675.675,0,0,1-.645-.7.675.675,0,0,1,.575-.638c.133-.021,3.314-.56,3.574-3.652a.674.674,0,0,1,.727-.617.673.673,0,0,1,.6.5c.011.035,1,3.563,3.6,3.718a.675.675,0,0,1,.634.714.674.674,0,0,1-.454.6c-.036.013-3.727,1.328-3.786,3.9a.675.675,0,0,1-.619.658h-.057Zm-2.034-5.188a5.779,5.779,0,0,1,2,2.377,7.064,7.064,0,0,1,2.414-2.239,6.016,6.016,0,0,1-2.223-2.35,5.388,5.388,0,0,1-2.192,2.212Z" fill="#3a312a"/>
    <path id="Trazado_105294" data-name="Trazado 105294" d="M-274.976-374.823s1.085,4.029,4.208,4.217c0,0-4.17,1.44-4.24,4.519,0,0-.82-4.319-4.113-4.474C-279.121-370.561-275.286-371.142-274.976-374.823Z" fill="#fcb268"/>
    <path id="Trazado_105295" data-name="Trazado 105295" d="M-275.008-365.412a.675.675,0,0,1-.663-.548c-.007-.038-.767-3.8-3.482-3.927a.675.675,0,0,1-.645-.7.675.675,0,0,1,.575-.638c.133-.021,3.314-.559,3.574-3.65a.673.673,0,0,1,.725-.618.672.672,0,0,1,.6.5c.011.037,1,3.565,3.6,3.72a.675.675,0,0,1,.634.714.674.674,0,0,1-.454.6c-.036.013-3.727,1.328-3.786,3.9a.675.675,0,0,1-.619.657Zm-2.034-5.186a5.773,5.773,0,0,1,2,2.375,7.058,7.058,0,0,1,2.414-2.237,6.026,6.026,0,0,1-2.223-2.351,5.384,5.384,0,0,1-2.192,2.213Z" fill="#3a312a"/>
    <path id="Trazado_105296" data-name="Trazado 105296" d="M-235.414-301.873V-277.8a3.37,3.37,0,0,1-3.369,3.371h-.008a3.37,3.37,0,0,1-3.372-3.368v-24.08Z" fill="#f3dec3"/>
    <path id="Trazado_105297" data-name="Trazado 105297" d="M-238.786-273.75a4.054,4.054,0,0,1-4.053-4.048v-24.075a.677.677,0,0,1,.675-.675h6.75a.675.675,0,0,1,.675.675V-277.8a4.051,4.051,0,0,1-4.047,4.048Zm-2.7-27.448v23.4a2.7,2.7,0,0,0,2.7,2.7,2.7,2.7,0,0,0,2.7-2.7v-23.4Z" fill="#3a312a"/>
    <path id="Trazado_105298" data-name="Trazado 105298" d="M-231.374-374.618a7.307,7.307,0,0,1,5.449,8.78,7.307,7.307,0,0,1-8.78,5.45,7.308,7.308,0,0,1-5.449-8.781h0A7.307,7.307,0,0,1-231.374-374.618Z" fill="#87796f"/>
    <path id="Trazado_105299" data-name="Trazado 105299" d="M-233.032-359.491a7.98,7.98,0,0,1-7.98-7.98,7.98,7.98,0,0,1,7.98-7.98,7.98,7.98,0,0,1,7.98,7.979A7.989,7.989,0,0,1-233.032-359.491Zm0-14.61a6.63,6.63,0,0,0-6.63,6.63,6.63,6.63,0,0,0,6.63,6.63,6.63,6.63,0,0,0,6.63-6.63h0A6.637,6.637,0,0,0-233.032-374.1Z" fill="#3a312a"/>
    <path id="Trazado_105300" data-name="Trazado 105300" d="M-255.55-323.773v6.547a2.458,2.458,0,0,0,2.464,2.452,2.457,2.457,0,0,0,2.452-2.452v-2.532h16.941v2.532a2.459,2.459,0,0,0,2.409,2.508,2.457,2.457,0,0,0,2.508-2.408c0-.033,0-.067,0-.1v-19.537a6.022,6.022,0,0,0-.107-1.129,6.131,6.131,0,0,0-.166-.667,6.047,6.047,0,0,0-5.773-4.246H-238.8v-4.035h-6.714v4.031h-3.993a6.047,6.047,0,0,0-5.772,4.246,5.91,5.91,0,0,0-.166.667,5.939,5.939,0,0,0-.107,1.129v12.994Z" fill="#f4e0c4"/>
    <path id="Trazado_105301" data-name="Trazado 105301" d="M-231.236-314.09a3.137,3.137,0,0,1-3.131-3.136v-1.857h-15.592v1.857a3.133,3.133,0,0,1-3.128,3.138,3.133,3.133,0,0,1-3.138-3.127v-6.556a.675.675,0,0,1,.675-.675.675.675,0,0,1,.675.675v6.545a1.783,1.783,0,0,0,1.783,1.783,1.783,1.783,0,0,0,1.783-1.783v-2.533a.675.675,0,0,1,.675-.675h16.941a.677.677,0,0,1,.675.675v2.533a1.79,1.79,0,0,0,1.782,1.786,1.787,1.787,0,0,0,1.785-1.786v-19.536a5.333,5.333,0,0,0-.094-1,5.651,5.651,0,0,0-.149-.6,5.346,5.346,0,0,0-5.128-3.77H-238.8a.675.675,0,0,1-.675-.675v-3.357h-5.364v3.357a.675.675,0,0,1-.675.675H-249.5a5.348,5.348,0,0,0-5.13,3.771,5.5,5.5,0,0,0-.146.592,5.25,5.25,0,0,0-.1,1v5.729a.675.675,0,0,1-.675.675.675.675,0,0,1-.675-.675v-5.725a6.724,6.724,0,0,1,.118-1.258,6.9,6.9,0,0,1,.184-.737,6.691,6.691,0,0,1,6.42-4.722h3.316v-3.358a.675.675,0,0,1,.675-.675h6.714a.675.675,0,0,1,.675.675v3.357h3.3a6.714,6.714,0,0,1,6.722,6.706v19.547a3.141,3.141,0,0,1-3.136,3.136Z" fill="#3a312a"/>
    <path id="Trazado_105302" data-name="Trazado 105302" d="M-242.166-301.873V-277.8a3.37,3.37,0,0,1-3.369,3.371h-.008a3.369,3.369,0,0,1-3.371-3.367v-24.081Z" fill="#f3dec3"/>
    <path id="Trazado_105303" data-name="Trazado 105303" d="M-245.535-273.75a4.054,4.054,0,0,1-4.053-4.048v-24.075a.677.677,0,0,1,.675-.675h6.747a.675.675,0,0,1,.675.675V-277.8a4.052,4.052,0,0,1-4.046,4.048Zm-2.7-27.448v23.4a2.7,2.7,0,0,0,2.7,2.7,2.7,2.7,0,0,0,2.7-2.7v-23.4Z" fill="#3a312a"/>
    <path id="Trazado_105304" data-name="Trazado 105304" d="M-248.913-280.25v2.452a3.372,3.372,0,0,0,3.372,3.374h.006a3.372,3.372,0,0,0,3.372-3.374h0v-2.452Z" fill="#87796f"/>
    <path id="Trazado_105305" data-name="Trazado 105305" d="M-245.535-273.75a4.053,4.053,0,0,1-4.053-4.048v-2.452a.675.675,0,0,1,.675-.675h6.75a.675.675,0,0,1,.675.673v2.454a4.052,4.052,0,0,1-4.047,4.048Zm-2.7-5.825v1.777a2.7,2.7,0,0,0,2.7,2.7,2.7,2.7,0,0,0,2.7-2.7v-1.777Z" fill="#3a312a"/>
    <path id="Trazado_105306" data-name="Trazado 105306" d="M-242.166-282.194h-6.75a.675.675,0,0,1-.675-.675.675.675,0,0,1,.675-.675h6.75a.675.675,0,0,1,.675.675A.675.675,0,0,1-242.166-282.194Z" fill="#3a312a"/>
    <path id="Trazado_105307" data-name="Trazado 105307" d="M-235.414-282.194h-6.752a.675.675,0,0,1-.675-.675.675.675,0,0,1,.675-.675h6.75a.675.675,0,0,1,.675.675.675.675,0,0,1-.675.675h0Z" fill="#3a312a"/>
    <path id="Trazado_105308" data-name="Trazado 105308" d="M-242.166-280.25v2.452a3.374,3.374,0,0,0,3.373,3.374h.005a3.372,3.372,0,0,0,3.372-3.372v-2.454Z" fill="#87796f"/>
    <path id="Trazado_105309" data-name="Trazado 105309" d="M-238.786-273.75a4.053,4.053,0,0,1-4.053-4.048v-2.452a.675.675,0,0,1,.675-.675h6.75a.675.675,0,0,1,.675.673v2.454a4.051,4.051,0,0,1-4.047,4.048Zm-2.7-5.825v1.777a2.7,2.7,0,0,0,2.7,2.7,2.7,2.7,0,0,0,2.7-2.7v-1.777Z" fill="#3a312a"/>
    <path id="Trazado_105310" data-name="Trazado 105310" d="M-250.144-357.75a2.371,2.371,0,0,1-2.371,2.373,2.372,2.372,0,0,1-2.373-2.371,2.372,2.372,0,0,1,2.371-2.373h0A2.372,2.372,0,0,1-250.144-357.75Z" fill="#f5e1c5" fill-rule="evenodd"/>
    <path id="Trazado_105311" data-name="Trazado 105311" d="M-252.516-354.7a3.047,3.047,0,0,1-3.047-3.047,3.047,3.047,0,0,1,3.047-3.047,3.047,3.047,0,0,1,3.047,3.047h0A3.051,3.051,0,0,1-252.516-354.7Zm0-4.743a1.7,1.7,0,0,0-1.7,1.7,1.7,1.7,0,0,0,1.7,1.7,1.7,1.7,0,0,0,1.7-1.7,1.7,1.7,0,0,0-1.7-1.7Z" fill="#3a312a"/>
    <path id="Trazado_105312" data-name="Trazado 105312" d="M-229.437-357.75a2.371,2.371,0,0,1-2.371,2.373,2.372,2.372,0,0,1-2.373-2.371,2.372,2.372,0,0,1,2.371-2.373h0A2.372,2.372,0,0,1-229.437-357.75Z" fill="#f5e1c5" fill-rule="evenodd"/>
    <path id="Trazado_105313" data-name="Trazado 105313" d="M-231.81-354.7a3.046,3.046,0,0,1-3.046-3.048,3.047,3.047,0,0,1,3.048-3.046,3.048,3.048,0,0,1,3.046,3.047A3.05,3.05,0,0,1-231.81-354.7Zm0-4.743a1.7,1.7,0,0,0-1.7,1.7,1.7,1.7,0,0,0,1.7,1.7,1.7,1.7,0,0,0,1.7-1.7,1.7,1.7,0,0,0-1.7-1.7Z" fill="#3a312a"/>
    <path id="Trazado_105314" data-name="Trazado 105314" d="M-231.646-358.9c0,5.806-5.594,14.717-10.518,14.717-4.7,0-10.516-8.911-10.516-14.717a10.517,10.517,0,0,1,10.523-10.511A10.517,10.517,0,0,1-231.646-358.9Z" fill="#f5e1c5"/>
    <path id="Trazado_105315" data-name="Trazado 105315" d="M-242.166-343.509c-5.189,0-11.191-9.314-11.191-15.392a11.192,11.192,0,0,1,11.192-11.192A11.192,11.192,0,0,1-230.973-358.9C-230.973-352.683-236.873-343.509-242.166-343.509Zm0-25.228a9.85,9.85,0,0,0-9.841,9.836c0,5.775,5.795,14.043,9.841,14.043,4.469,0,9.843-8.625,9.843-14.043a9.85,9.85,0,0,0-9.843-9.839Z" fill="#3a312a"/>
    <path id="Trazado_105316" data-name="Trazado 105316" d="M-244.85-359.019a1.027,1.027,0,0,1-1.027,1.027,1.027,1.027,0,0,1-1.027-1.027,1.027,1.027,0,0,1,1.027-1.027h0A1.027,1.027,0,0,1-244.85-359.019Z" fill="#3a312a"/>
    <path id="Trazado_105317" data-name="Trazado 105317" d="M-237.423-359.019a1.027,1.027,0,0,1-1.027,1.027,1.027,1.027,0,0,1-1.027-1.027,1.027,1.027,0,0,1,1.027-1.027A1.028,1.028,0,0,1-237.423-359.019Z" fill="#3a312a"/>
    <path id="Trazado_105318" data-name="Trazado 105318" d="M-246.16-355.969c0,.731-.791,1.321-1.768,1.321s-1.768-.59-1.768-1.321.79-1.321,1.768-1.321S-246.16-356.7-246.16-355.969Z" fill="#f59689"/>
    <path id="Trazado_105319" data-name="Trazado 105319" d="M-234.63-355.969c0,.731-.792,1.321-1.768,1.321s-1.769-.59-1.769-1.321.792-1.321,1.769-1.321S-234.63-356.7-234.63-355.969Z" fill="#f59689"/>
    <path id="Trazado_105320" data-name="Trazado 105320" d="M-242.166-349.7a3.618,3.618,0,0,1-3.514-2.193.675.675,0,0,1,.328-.9.675.675,0,0,1,.891.316,2.305,2.305,0,0,0,2.3,1.423,2.4,2.4,0,0,0,2.275-1.369.676.676,0,0,1,.855-.425.676.676,0,0,1,.425.855c0,.014-.01.028-.016.042a3.741,3.741,0,0,1-3.539,2.247Z" fill="#3a312a"/>
    <path id="Trazado_105321" data-name="Trazado 105321" d="M-230.044-362.752a12.081,12.081,0,0,1-.406,3.114,45.042,45.042,0,0,1-7.63-4.693c-.7-.529-1.381-1.077-2.037-1.659a20.494,20.494,0,0,1-2.248-2.288,24.305,24.305,0,0,1-3.514-6,12.12,12.12,0,0,1,15.252,7.822,12.127,12.127,0,0,1,.583,3.709Z" fill="#87796f"/>
    <path id="Trazado_105322" data-name="Trazado 105322" d="M-230.45-358.963a.66.66,0,0,1-.293-.068,45.675,45.675,0,0,1-7.745-4.762c-.788-.6-1.468-1.151-2.076-1.692a21.115,21.115,0,0,1-2.319-2.362,24.691,24.691,0,0,1-3.614-6.167.677.677,0,0,1,.352-.889l.059-.022a12.794,12.794,0,0,1,16.1,8.255,12.793,12.793,0,0,1,.188,7.205.671.671,0,0,1-.37.44.675.675,0,0,1-.283.062Zm-14.5-14.885a22.347,22.347,0,0,0,3.1,5.139,20.007,20.007,0,0,0,2.175,2.211c.586.521,1.239,1.052,2,1.628a44.693,44.693,0,0,0,6.755,4.247,11.624,11.624,0,0,0,.2-2.131,11.444,11.444,0,0,0-11.446-11.436A11.514,11.514,0,0,0-244.95-373.848Z" fill="#3a312a"/>
    <path id="Trazado_105323" data-name="Trazado 105323" d="M-233.359-371.075a47.178,47.178,0,0,1-6.758,5.085,73.33,73.33,0,0,1-13.712,6.527,12.12,12.12,0,0,1,8.387-14.948A12.12,12.12,0,0,1-233.359-371.075Z" fill="#87796f"/>
    <path id="Trazado_105324" data-name="Trazado 105324" d="M-253.829-358.788a.674.674,0,0,1-.649-.491,12.8,12.8,0,0,1,8.84-15.787,12.8,12.8,0,0,1,12.772,3.526.676.676,0,0,1-.029.956l-.007.006a47.917,47.917,0,0,1-6.853,5.158,73.476,73.476,0,0,1-13.838,6.589.663.663,0,0,1-.233.042Zm11.665-15.4a11.443,11.443,0,0,0-11.443,11.443,11.474,11.474,0,0,0,.252,2.388,71.238,71.238,0,0,0,12.881-6.205,47.178,47.178,0,0,0,6.131-4.539,11.331,11.331,0,0,0-7.821-3.087Z" fill="#3a312a"/>
    <path id="Trazado_105325" data-name="Trazado 105325" d="M-251.575-333.285l2.023,8.164h14.778l2.023-8.164-9.409-.943Z" fill="#ffb266"/>
    <path id="Trazado_105326" data-name="Trazado 105326" d="M-234.774-324.446h-14.778a.674.674,0,0,1-.655-.512l-2.023-8.165a.673.673,0,0,1,.49-.816.635.635,0,0,1,.1-.017l9.416-.944a1.007,1.007,0,0,1,.135,0l9.408.944a.674.674,0,0,1,.6.736.635.635,0,0,1-.017.1l-2.023,8.165a.673.673,0,0,1-.654.512Zm-14.25-1.35H-235.3l1.708-6.894-8.566-.86-8.572.86Z" fill="#3a312a"/>
    <path id="Trazado_105327" data-name="Trazado 105327" d="M-244.566-298.027h16.23c0-11.412-2.58-21.426-6.464-27.094h-14.727c-3.884,5.668-6.463,15.682-6.463,27.094Z" fill="#ffb266"/>
    <path id="Trazado_105328" data-name="Trazado 105328" d="M-228.336-297.352h-16.23a.675.675,0,0,1-.675-.675.675.675,0,0,1,.675-.675h15.555c-.094-10.483-2.372-20.029-6.145-25.744h-14.01c-3.773,5.715-6.05,15.261-6.145,25.744h3.716a.675.675,0,0,1,.675.675.675.675,0,0,1-.675.675h-4.394a.675.675,0,0,1-.675-.675c0-11.191,2.46-21.462,6.582-27.476a.674.674,0,0,1,.556-.293H-234.8a.674.674,0,0,1,.557.293c4.122,6.014,6.582,16.285,6.582,27.476a.675.675,0,0,1-.675.675Z" fill="#3a312a"/>
    <path id="Trazado_105329" data-name="Trazado 105329" d="M-242.166-334.24a4.753,4.753,0,0,1-4.753,4.753,4.753,4.753,0,0,1-4.753-4.753,4.753,4.753,0,0,1,4.753-4.753h0A4.753,4.753,0,0,1-242.166-334.24Z" fill="#ffb266"/>
    <path id="Trazado_105330" data-name="Trazado 105330" d="M-246.92-328.813a5.429,5.429,0,0,1-5.43-5.428,5.429,5.429,0,0,1,5.428-5.43,5.43,5.43,0,0,1,5.43,5.428h0A5.434,5.434,0,0,1-246.92-328.813Zm0-9.507A4.078,4.078,0,0,0-251-334.242a4.078,4.078,0,0,0,4.078,4.078,4.078,4.078,0,0,0,4.078-4.078A4.082,4.082,0,0,0-246.92-338.32Z" fill="#3a312a"/>
    <path id="Trazado_105331" data-name="Trazado 105331" d="M-236.637-338.9a4.754,4.754,0,0,1,3.932,5.452,4.754,4.754,0,0,1-5.453,3.932,4.753,4.753,0,0,1-3.931-5.452h0A4.753,4.753,0,0,1-236.637-338.9Z" fill="#ffb266"/>
    <path id="Trazado_105332" data-name="Trazado 105332" d="M-237.414-328.813a5.429,5.429,0,0,1-5.429-5.429,5.429,5.429,0,0,1,5.429-5.429,5.429,5.429,0,0,1,5.429,5.429h0A5.435,5.435,0,0,1-237.414-328.813Zm0-9.507a4.078,4.078,0,0,0-4.077,4.079,4.078,4.078,0,0,0,4.079,4.077,4.077,4.077,0,0,0,4.077-4.078A4.082,4.082,0,0,0-237.414-338.32Z" fill="#3a312a"/>
    <path id="Trazado_105333" data-name="Trazado 105333" d="M-234.311-329.794l-.99,3.995h-7.2l1.242-4.62A5.4,5.4,0,0,0-234.311-329.794Z" fill="#ffad54"/>
    <path id="Trazado_105334" data-name="Trazado 105334" d="M-251.6-298.7h7.029a.675.675,0,0,0-.675.675h-5.674a.675.675,0,0,0-.675-.675Z" fill="#ffad54"/>
    <path id="Trazado_105335" data-name="Trazado 105335" d="M-229.014-298.7h-7.2c-.1-10.48-2.372-20.029-6.148-25.745h7.2C-231.386-318.733-229.109-309.184-229.014-298.7Z" fill="#ffad54"/>
  </g>
</svg>
