<svg xmlns="http://www.w3.org/2000/svg" width="101.93" height="101.93" viewBox="0 0 101.93 101.93">
  <g id="Grupo_55595" data-name="Grupo 55595" transform="translate(303.797 -444.46)">
    <path id="Trazado_105533" data-name="Trazado 105533" d="M-252.832,545.049a.675.675,0,0,1-.675-.675v-97.65a.675.675,0,0,1,.675-.675.675.675,0,0,1,.675.675v97.65a.675.675,0,0,1-.675.675Z" fill="#3a312a"/>
    <path id="Trazado_105534" data-name="Trazado 105534" d="M-204.007,496.224h-97.65a.675.675,0,0,1-.675-.675.675.675,0,0,1,.675-.675h97.65a.675.675,0,0,1,.675.675.675.675,0,0,1-.675.675Z" fill="#3a312a"/>
    <path id="Trazado_105535" data-name="Trazado 105535" d="M-287.357,530.748a.674.674,0,0,1-.676-.672.676.676,0,0,1,.2-.48l69.048-69.048a.675.675,0,0,1,.954-.015.675.675,0,0,1,.015.955l-.013.013-69.048,69.05a.674.674,0,0,1-.479.2Z" fill="#3a312a"/>
    <path id="Trazado_105536" data-name="Trazado 105536" d="M-218.307,530.748a.674.674,0,0,1-.479-.2l-69.048-69.05a.675.675,0,0,1,.015-.954.674.674,0,0,1,.941,0l69.048,69.048a.674.674,0,0,1,0,.953.672.672,0,0,1-.48.2Z" fill="#3a312a"/>
    <path id="Trazado_105537" data-name="Trazado 105537" d="M-289.122,470.64s1.534,5.7,5.95,5.96c0,0-5.894,2.037-5.994,6.391,0,0-1.16-6.108-5.816-6.327,0,0,5.422-.821,5.86-6.024Z" fill="#ffb266"/>
    <path id="Trazado_105538" data-name="Trazado 105538" d="M-289.166,483.666a.675.675,0,0,1-.663-.548c-.011-.056-1.123-5.587-5.185-5.78a.675.675,0,0,1-.645-.7.675.675,0,0,1,.575-.638c.2-.03,4.9-.818,5.29-5.414a.675.675,0,0,1,.73-.615.676.676,0,0,1,.594.5c.014.053,1.467,5.232,5.339,5.463a.675.675,0,0,1,.631.716.675.675,0,0,1-.451.6c-.054.019-5.453,1.941-5.54,5.769a.676.676,0,0,1-.619.658h-.056Zm-3.484-7.078a7.864,7.864,0,0,1,3.415,3.994,9.593,9.593,0,0,1,4.026-3.792,8.244,8.244,0,0,1-3.75-3.925A7.252,7.252,0,0,1-292.65,476.588Z" fill="#3a312a"/>
    <path id="Trazado_105539" data-name="Trazado 105539" d="M-298.886,478.281s1.085,4.028,4.209,4.216c0,0-4.17,1.44-4.24,4.52,0,0-.822-4.32-4.115-4.476,0,0,3.836-.58,4.146-4.26Z" fill="#ffb266"/>
    <path id="Trazado_105540" data-name="Trazado 105540" d="M-298.915,487.692a.674.674,0,0,1-.662-.549c-.008-.037-.768-3.8-3.483-3.927a.674.674,0,0,1-.644-.7.675.675,0,0,1,.575-.638c.133-.021,3.314-.558,3.574-3.651a.673.673,0,0,1,.611-.615.682.682,0,0,1,.712.5c.01.036,1,3.564,3.6,3.72a.675.675,0,0,1,.632.715.672.672,0,0,1-.451.6c-.036.013-3.728,1.329-3.786,3.9a.675.675,0,0,1-.619.657.264.264,0,0,1-.056,0Zm-2.033-5.187a5.754,5.754,0,0,1,2,2.376,7.076,7.076,0,0,1,2.415-2.239,6.021,6.021,0,0,1-2.224-2.351,5.378,5.378,0,0,1-2.191,2.214Z" fill="#3a312a"/>
    <path id="Trazado_105541" data-name="Trazado 105541" d="M-298.886,466.285s1.085,4.029,4.209,4.216c0,0-4.17,1.441-4.24,4.52,0,0-.822-4.319-4.115-4.474,0,0,3.836-.582,4.146-4.262Z" fill="#ffb266"/>
    <path id="Trazado_105542" data-name="Trazado 105542" d="M-298.915,475.7a.673.673,0,0,1-.662-.548c-.008-.038-.768-3.8-3.483-3.928a.674.674,0,0,1-.644-.7.675.675,0,0,1,.575-.638c.133-.021,3.314-.559,3.574-3.65a.675.675,0,0,1,.611-.616.683.683,0,0,1,.712.5c.01.035,1,3.564,3.6,3.72a.675.675,0,0,1,.632.715.672.672,0,0,1-.451.6c-.036.013-3.728,1.329-3.786,3.9a.675.675,0,0,1-.619.657h-.056Zm-2.033-5.186a5.745,5.745,0,0,1,2,2.375,7.083,7.083,0,0,1,2.415-2.238,6.021,6.021,0,0,1-2.224-2.351A5.378,5.378,0,0,1-300.948,470.51Z" fill="#3a312a"/>
    <path id="Trazado_105543" data-name="Trazado 105543" d="M-226.057,495.549a26.773,26.773,0,0,1-26.775,26.773,26.774,26.774,0,0,1-26.773-26.774,26.775,26.775,0,0,1,26.775-26.774,26.778,26.778,0,0,1,18.931,7.842A26.778,26.778,0,0,1-226.057,495.549Z" fill="#ffb266"/>
    <path id="Trazado_105544" data-name="Trazado 105544" d="M-252.832,523a27.45,27.45,0,0,1-27.45-27.45,27.45,27.45,0,0,1,27.45-27.45,27.45,27.45,0,0,1,27.45,27.45A27.481,27.481,0,0,1-252.832,523Zm0-53.55a26.1,26.1,0,0,0-26.1,26.1,26.1,26.1,0,0,0,26.1,26.1,26.1,26.1,0,0,0,26.1-26.1A26.129,26.129,0,0,0-252.832,469.449Z" fill="#3a312a"/>
    <path id="Trazado_105545" data-name="Trazado 105545" d="M-245.568,515.8h4.946c0-9.891-2.277-18.571-5.707-23.483h-13.006c-3.43,4.912-5.707,13.592-5.707,23.483Z" fill="#ed6e7a"/>
    <path id="Trazado_105546" data-name="Trazado 105546" d="M-240.622,516.474h-4.946a.675.675,0,0,1-.675-.675.675.675,0,0,1,.675-.675h4.267c-.1-9.009-2.088-17.208-5.386-22.134h-12.29c-3.3,4.925-5.291,13.125-5.386,22.134H-252.6a.675.675,0,0,1,.675.675.675.675,0,0,1-.675.675h-12.445a.675.675,0,0,1-.675-.675c0-9.719,2.179-18.642,5.829-23.87a.677.677,0,0,1,.553-.289h13a.677.677,0,0,1,.553.289c3.65,5.228,5.83,14.151,5.83,23.87a.675.675,0,0,1-.675.675Z" fill="#3a312a"/>
    <path id="Trazado_105547" data-name="Trazado 105547" d="M-249.053,488.714h3.416l1.4-7.194.011-.049,3.477-3.538-.2-.3a5.285,5.285,0,0,0-4.385-2.336h-1.181v4.868h-12.628V475.3h-1.188a5.282,5.282,0,0,0-4.384,2.339l-.2.3,3.476,3.537.01.053,1.406,7.189h10.97Z" fill="#f6e2c6"/>
    <path id="Trazado_105548" data-name="Trazado 105548" d="M-245.637,489.389h-3.417a.675.675,0,0,1-.675-.675.675.675,0,0,1,.675-.675h2.861l1.31-6.707A.682.682,0,0,1-244.7,481l3.089-3.138a4.611,4.611,0,0,0-3.717-1.881h-.515v4.193a.675.675,0,0,1-.675.675h-12.622a.675.675,0,0,1-.675-.675v-4.193h-.514a4.6,4.6,0,0,0-3.718,1.883l3.087,3.141a.679.679,0,0,1,.18.335l.01.053,1.3,6.653h3.459a.675.675,0,0,1,.675.675.675.675,0,0,1-.675.675h-4.018a.675.675,0,0,1-.662-.546l-1.376-7.042-3.334-3.393a.675.675,0,0,1-.077-.853l.2-.3a5.943,5.943,0,0,1,4.945-2.633h1.188a.675.675,0,0,1,.675.675v4.193H-247.2V475.3a.675.675,0,0,1,.675-.675h1.19a5.958,5.958,0,0,1,4.946,2.633l.2.3a.676.676,0,0,1-.081.848l-3.335,3.393-1.375,7.042a.673.673,0,0,1-.661.546Z" fill="#3a312a"/>
    <path id="Trazado_105549" data-name="Trazado 105549" d="M-246.982,450.985a5.85,5.85,0,0,1-5.85,5.85,5.85,5.85,0,0,1-5.85-5.85,5.85,5.85,0,0,1,5.85-5.85,5.85,5.85,0,0,1,5.85,5.85Z" fill="#ed6e7a"/>
    <path id="Trazado_105550" data-name="Trazado 105550" d="M-252.832,457.51a6.525,6.525,0,0,1-6.525-6.525,6.525,6.525,0,0,1,6.525-6.525,6.525,6.525,0,0,1,6.525,6.525h0A6.532,6.532,0,0,1-252.832,457.51Zm0-11.7a5.175,5.175,0,0,0-5.175,5.175,5.175,5.175,0,0,0,5.175,5.175,5.175,5.175,0,0,0,5.175-5.175h0A5.18,5.18,0,0,0-252.832,445.81Z" fill="#3a312a"/>
    <path id="Trazado_105551" data-name="Trazado 105551" d="M-246.982,539.86a5.85,5.85,0,0,1-5.85,5.85,5.85,5.85,0,0,1-5.85-5.85,5.85,5.85,0,0,1,5.85-5.85,5.85,5.85,0,0,1,5.85,5.85Z" fill="#ed6e7a"/>
    <path id="Trazado_105552" data-name="Trazado 105552" d="M-252.832,546.39a6.525,6.525,0,0,1-6.525-6.525,6.525,6.525,0,0,1,6.525-6.525,6.525,6.525,0,0,1,6.525,6.525h0A6.532,6.532,0,0,1-252.832,546.39Zm0-11.7a5.175,5.175,0,0,0-5.175,5.175,5.175,5.175,0,0,0,5.175,5.175,5.175,5.175,0,0,0,5.175-5.175h0A5.18,5.18,0,0,0-252.832,534.69Z" fill="#3a312a"/>
    <path id="Trazado_105553" data-name="Trazado 105553" d="M-202.542,495.425a5.85,5.85,0,0,1-5.85,5.85,5.85,5.85,0,0,1-5.85-5.85,5.85,5.85,0,0,1,5.85-5.85,5.85,5.85,0,0,1,5.85,5.85Z" fill="#ed6e7a"/>
    <path id="Trazado_105554" data-name="Trazado 105554" d="M-208.392,501.95a6.525,6.525,0,0,1-6.525-6.525,6.525,6.525,0,0,1,6.525-6.525,6.525,6.525,0,0,1,6.525,6.525h0A6.532,6.532,0,0,1-208.392,501.95Zm0-11.7a5.175,5.175,0,0,0-5.175,5.175,5.175,5.175,0,0,0,5.175,5.175,5.175,5.175,0,0,0,5.175-5.175h0A5.18,5.18,0,0,0-208.392,490.25Z" fill="#3a312a"/>
    <path id="Trazado_105555" data-name="Trazado 105555" d="M-291.422,495.425a5.85,5.85,0,0,1-5.85,5.85,5.85,5.85,0,0,1-5.85-5.85,5.85,5.85,0,0,1,5.85-5.85,5.85,5.85,0,0,1,5.85,5.85Z" fill="#ed6e7a"/>
    <path id="Trazado_105556" data-name="Trazado 105556" d="M-297.272,501.95a6.525,6.525,0,0,1-6.525-6.525,6.525,6.525,0,0,1,6.525-6.525,6.525,6.525,0,0,1,6.525,6.525h0A6.532,6.532,0,0,1-297.272,501.95Zm0-11.7a5.175,5.175,0,0,0-5.175,5.175,5.175,5.175,0,0,0,5.175,5.175,5.175,5.175,0,0,0,5.175-5.175h0A5.18,5.18,0,0,0-297.272,490.25Z" fill="#3a312a"/>
    <path id="Trazado_105557" data-name="Trazado 105557" d="M-215.558,464a5.85,5.85,0,0,1-5.85,5.85,5.85,5.85,0,0,1-5.85-5.85,5.85,5.85,0,0,1,5.85-5.85,5.85,5.85,0,0,1,5.85,5.85Z" fill="#ed6e7a"/>
    <path id="Trazado_105558" data-name="Trazado 105558" d="M-221.408,470.526A6.525,6.525,0,0,1-227.935,464a6.526,6.526,0,0,1,6.525-6.527A6.527,6.527,0,0,1-214.883,464a6.529,6.529,0,0,1-1.912,4.616A6.479,6.479,0,0,1-221.408,470.526Zm0-11.7A5.174,5.174,0,0,0-226.581,464a5.173,5.173,0,0,0,5.175,5.173A5.174,5.174,0,0,0-216.233,464a5.174,5.174,0,0,0-1.516-3.658A5.147,5.147,0,0,0-221.408,458.826Z" fill="#3a312a"/>
    <path id="Trazado_105559" data-name="Trazado 105559" d="M-278.406,526.849a5.85,5.85,0,0,1-5.85,5.85,5.85,5.85,0,0,1-5.85-5.85,5.85,5.85,0,0,1,5.85-5.85,5.85,5.85,0,0,1,5.85,5.85Z" fill="#ed6e7a"/>
    <path id="Trazado_105560" data-name="Trazado 105560" d="M-284.256,533.37a6.519,6.519,0,0,1-6.515-6.523,6.519,6.519,0,0,1,6.522-6.515,6.52,6.52,0,0,1,6.516,6.523,6.519,6.519,0,0,1-1.909,4.605,6.5,6.5,0,0,1-4.614,1.908Zm0-11.7a5.174,5.174,0,0,0-5.171,5.175,5.174,5.174,0,0,0,5.176,5.171,5.171,5.171,0,0,0,5.17-5.175,5.171,5.171,0,0,0-1.515-3.656A5.145,5.145,0,0,0-284.256,521.67Zm4.137,9.311" fill="#3a312a"/>
    <path id="Trazado_105561" data-name="Trazado 105561" d="M-215.558,526.849a5.85,5.85,0,0,1-5.85,5.85,5.85,5.85,0,0,1-5.85-5.85,5.85,5.85,0,0,1,5.85-5.85,5.85,5.85,0,0,1,5.85,5.85Z" fill="#ed6e7a"/>
    <path id="Trazado_105562" data-name="Trazado 105562" d="M-221.408,533.37a6.521,6.521,0,0,1-6.519-6.523,6.521,6.521,0,0,1,6.523-6.519,6.522,6.522,0,0,1,6.519,6.523,6.524,6.524,0,0,1-1.91,4.609,6.506,6.506,0,0,1-4.613,1.908Zm-3.66-2.862a5.176,5.176,0,0,0,7.321,0,5.177,5.177,0,0,0,0-7.322,5.177,5.177,0,0,0-7.321,0,5.175,5.175,0,0,0-1.518,3.662A5.186,5.186,0,0,0-225.068,530.508Z" fill="#3a312a"/>
    <path id="Trazado_105563" data-name="Trazado 105563" d="M-278.406,464a5.85,5.85,0,0,1-5.85,5.85,5.85,5.85,0,0,1-5.85-5.85,5.85,5.85,0,0,1,5.85-5.85,5.85,5.85,0,0,1,5.85,5.85Z" fill="#ed6e7a"/>
    <path id="Trazado_105564" data-name="Trazado 105564" d="M-284.256,470.526A6.525,6.525,0,0,1-290.781,464a6.525,6.525,0,0,1,6.526-6.525A6.525,6.525,0,0,1-277.731,464a6.522,6.522,0,0,1-1.911,4.614A6.479,6.479,0,0,1-284.256,470.526Zm0-11.7A5.174,5.174,0,0,0-289.427,464a5.174,5.174,0,0,0,5.176,5.171,5.171,5.171,0,0,0,5.17-5.175,5.171,5.171,0,0,0-1.515-3.656A5.145,5.145,0,0,0-284.256,458.826Z" fill="#3a312a"/>
    <path id="Trazado_105565" data-name="Trazado 105565" d="M-252.832,469.449a25.558,25.558,0,0,0-3.375.22,25.925,25.925,0,0,1,12.505,5.184,5.93,5.93,0,0,1,3.316,2.4l.2.3a.673.673,0,0,1,.063.626h0a26.026,26.026,0,0,1,.1,34.614c.05.99.072,1.988.072,3a.674.674,0,0,1-.673.675H-244a25.907,25.907,0,0,1-12.208,4.954,25.4,25.4,0,0,0,3.375.221,26.1,26.1,0,0,0,26.11-26.09,26.1,26.1,0,0,0-26.09-26.11h-.02Z" fill="#ffad54"/>
  </g>
</svg>
