<svg xmlns="http://www.w3.org/2000/svg" xmlns:xlink="http://www.w3.org/1999/xlink" width="90" height="102" viewBox="0 0 90 102">
  <defs>
    <clipPath id="clip-path">
      <rect id="SVGID" width="90" height="102" transform="translate(-297.797 219.751)" fill="none"/>
    </clipPath>
  </defs>
  <g id="Grupo_55594" data-name="Grupo 55594" transform="translate(297.797 -219.751)">
    <g id="Grupo_55593" data-name="Grupo 55593">
      <g id="Grupo_55611" data-name="Grupo 55611">
        <g id="Grupo_55610" data-name="Grupo 55610" clip-path="url(#clip-path)">
          <g id="Grupo_55592" data-name="Grupo 55592">
            <path id="Trazado_105486" data-name="Trazado 105486" d="M-214.449,224.951s1.534,5.7,5.951,5.96c0,0-5.9,2.037-6,6.391,0,0-1.16-6.107-5.816-6.327,0,0,5.422-.82,5.86-6.024Z" fill="#fcb268"/>
            <path id="Trazado_105487" data-name="Trazado 105487" d="M-214.5,237.972a.674.674,0,0,1-.663-.547c-.011-.056-1.123-5.587-5.185-5.78a.675.675,0,0,1-.64-.708.677.677,0,0,1,.57-.633c.2-.031,4.9-.817,5.29-5.414a.675.675,0,0,1,.729-.616.675.675,0,0,1,.6.5c.014.052,1.467,5.231,5.339,5.463a.675.675,0,0,1,.634.714.674.674,0,0,1-.454.6c-.055.02-5.452,1.939-5.54,5.769a.676.676,0,0,1-.619.657Zm-3.483-7.078a7.877,7.877,0,0,1,3.414,4,9.581,9.581,0,0,1,4.026-3.792,8.25,8.25,0,0,1-3.75-3.926A7.236,7.236,0,0,1-217.98,230.894Z" fill="#3a312a"/>
          </g>
        </g>
      </g>
    </g>
    <path id="Trazado_105488" data-name="Trazado 105488" d="M-224.213,232.588s1.085,4.029,4.209,4.215c0,0-4.17,1.441-4.24,4.521,0,0-.821-4.321-4.114-4.475,0,0,3.835-.582,4.145-4.261Z" fill="#fcb268"/>
    <path id="Trazado_105489" data-name="Trazado 105489" d="M-224.244,242a.677.677,0,0,1-.664-.548c-.007-.038-.766-3.8-3.483-3.927a.674.674,0,0,1-.644-.7.675.675,0,0,1,.575-.638c.134-.021,3.313-.56,3.575-3.652a.675.675,0,0,1,.73-.615.676.676,0,0,1,.594.5c.009.035,1,3.563,3.6,3.719a.676.676,0,0,1,.635.713.675.675,0,0,1-.454.6c-.036.013-3.728,1.328-3.786,3.9a.674.674,0,0,1-.619.658h-.059Zm-2.034-5.188a5.757,5.757,0,0,1,2,2.377,7.049,7.049,0,0,1,2.414-2.237,6.026,6.026,0,0,1-2.223-2.351,5.379,5.379,0,0,1-2.192,2.211Z" fill="#3a312a"/>
    <path id="Trazado_105490" data-name="Trazado 105490" d="M-224.213,220.591s1.085,4.029,4.209,4.216c0,0-4.17,1.441-4.24,4.521,0,0-.821-4.32-4.114-4.475C-228.358,224.853-224.523,224.272-224.213,220.591Z" fill="#fcb268"/>
    <path id="Trazado_105491" data-name="Trazado 105491" d="M-224.244,230a.676.676,0,0,1-.664-.549c-.007-.037-.766-3.8-3.483-3.927a.674.674,0,0,1-.644-.7.675.675,0,0,1,.575-.638c.134-.021,3.313-.559,3.575-3.651a.676.676,0,0,1,.73-.616.675.675,0,0,1,.594.5c.009.035,1,3.564,3.6,3.72a.676.676,0,0,1,.635.713.675.675,0,0,1-.454.6c-.036.012-3.728,1.329-3.786,3.9a.675.675,0,0,1-.619.657h-.059Zm-2.034-5.187a5.755,5.755,0,0,1,2,2.376,7.071,7.071,0,0,1,2.414-2.238,6.012,6.012,0,0,1-2.223-2.351,5.4,5.4,0,0,1-2.192,2.213Z" fill="#3a312a"/>
    <path id="Trazado_105492" data-name="Trazado 105492" d="M-261.324,250.514h14.081l15.5-5.69-11.927-1.289,8.073-8.873-11.16,4.4,3.024-11.608-7.836,9.083-2.714-11.686L-257,236.537l-7.84-9.086,3.023,11.608-11.159-4.4,8.073,8.873-11.928,1.289Z" fill="#ffb266"/>
    <path id="Trazado_105493" data-name="Trazado 105493" d="M-247.243,251.189h-14.081a.657.657,0,0,1-.232-.042l-15.5-5.689a.675.675,0,0,1-.4-.866.677.677,0,0,1,.562-.439l10.607-1.147-7.178-7.891a.674.674,0,0,1,.044-.952.672.672,0,0,1,.7-.129l9.924,3.917-2.689-10.324A.675.675,0,0,1-265,226.8a.677.677,0,0,1,.68.212l6.969,8.078,2.416-10.391a.673.673,0,0,1,.807-.506.673.673,0,0,1,.507.506l2.417,10.391,6.969-8.078a.674.674,0,0,1,.95-.072.674.674,0,0,1,.213.683l-2.693,10.324,9.925-3.914a.675.675,0,0,1,.875.379.672.672,0,0,1-.129.7l-7.179,7.892,10.607,1.146a.674.674,0,0,1,.6.744.676.676,0,0,1-.439.561l-15.5,5.69a.673.673,0,0,1-.231.041Zm-13.96-1.35h13.84l12.681-4.654-9.056-.978a.675.675,0,0,1-.6-.743.68.68,0,0,1,.172-.382l6.12-6.728-8.46,3.336a.674.674,0,0,1-.875-.381.668.668,0,0,1-.025-.419l2.292-8.8-5.94,6.885a.675.675,0,0,1-.952.071.667.667,0,0,1-.217-.359l-2.06-8.858-2.06,8.858a.675.675,0,0,1-.81.505.671.671,0,0,1-.359-.217l-5.94-6.886,2.292,8.8a.675.675,0,0,1-.481.825.675.675,0,0,1-.419-.025l-8.458-3.336,6.119,6.727a.675.675,0,0,1-.046.954.667.667,0,0,1-.38.171l-9.058.978Z" fill="#3a312a"/>
    <path id="Trazado_105494" data-name="Trazado 105494" d="M-241.937,247.232a12.346,12.346,0,0,1-12.348,12.344,12.345,12.345,0,0,1-12.344-12.348,12.346,12.346,0,0,1,12.346-12.344,12.347,12.347,0,0,1,12.346,12.346v0Z" fill="#ffb266"/>
    <path id="Trazado_105495" data-name="Trazado 105495" d="M-254.283,260.251a13.022,13.022,0,0,1-13.023-13.021,13.022,13.022,0,0,1,13.021-13.023,13.022,13.022,0,0,1,13.023,13.021v0A13.037,13.037,0,0,1-254.283,260.251Zm0-24.694a11.673,11.673,0,0,0-11.673,11.671A11.672,11.672,0,0,0-254.285,258.9a11.672,11.672,0,0,0,11.673-11.671h0A11.686,11.686,0,0,0-254.283,235.557Z" fill="#3a312a"/>
    <path id="Trazado_105496" data-name="Trazado 105496" d="M-266.425,279.313l-20.039-21.875a3.245,3.245,0,0,1,.171-4.586,3.246,3.246,0,0,1,4.586.171l20.254,22.1Z" fill="#f7e3c7"/>
    <path id="Trazado_105497" data-name="Trazado 105497" d="M-266.425,279.988a.674.674,0,0,1-.5-.219l-20.038-21.875a3.921,3.921,0,0,1,.208-5.54,3.921,3.921,0,0,1,5.54.208l20.259,22.1a.678.678,0,0,1-.046.958l-.016.014-4.973,4.189a.665.665,0,0,1-.436.16Zm-17.66-27.326a2.567,2.567,0,0,0-2.573,2.561,2.569,2.569,0,0,0,.69,1.757l19.6,21.4,3.94-3.319-19.779-21.582a2.583,2.583,0,0,0-1.881-.817Z" fill="#3a312a"/>
    <path id="Trazado_105498" data-name="Trazado 105498" d="M-255.931,277.74l-8.443,7.112-15.179-16.271,8.141-7.443Z" fill="#e86c7a"/>
    <path id="Trazado_105499" data-name="Trazado 105499" d="M-264.374,285.527a.668.668,0,0,1-.493-.214l-15.18-16.272a.677.677,0,0,1,.037-.957l0,0,8.14-7.442a.674.674,0,0,1,.949.038l15.482,16.6a.676.676,0,0,1-.033.954l-.025.022-8.444,7.113a.667.667,0,0,1-.435.158ZM-278.6,268.619l14.277,15.3,7.41-6.241-14.542-15.6Z" fill="#3a312a"/>
    <path id="Trazado_105500" data-name="Trazado 105500" d="M-248.7,269.263l20.04,21.875a3.246,3.246,0,0,1-.228,4.585,3.246,3.246,0,0,1-4.53-.169l-20.254-22.1Z" fill="#f7e3c7"/>
    <path id="Trazado_105501" data-name="Trazado 105501" d="M-231.043,297.263a3.933,3.933,0,0,1-2.872-1.249l-20.258-22.1a.677.677,0,0,1,.043-.956l.019-.017,4.973-4.19a.674.674,0,0,1,.932.06l20.04,21.874a3.918,3.918,0,0,1-.209,5.537,3.916,3.916,0,0,1-2.668,1.045ZM-252.7,273.515l19.779,21.583a2.571,2.571,0,0,0,3.636.026,2.57,2.57,0,0,0,.128-3.526l-19.6-21.4Z" fill="#3a312a"/>
    <path id="Trazado_105502" data-name="Trazado 105502" d="M-250.57,280l8.443-7.112,11.959,13.051-8.141,7.442Z" fill="#e86c7a"/>
    <path id="Trazado_105503" data-name="Trazado 105503" d="M-238.309,294.059a.666.666,0,0,1-.5-.219l-12.261-13.38a.677.677,0,0,1,.043-.956l.019-.017,8.443-7.112a.676.676,0,0,1,.933.06l11.958,13.051a.675.675,0,0,1-.04.953l0,0-8.139,7.443a.678.678,0,0,1-.456.175ZM-249.6,280.066l11.33,12.366,7.145-6.532-11.065-12.075Z" fill="#3a312a"/>
    <path id="Trazado_105504" data-name="Trazado 105504" d="M-242.89,277.8a11.394,11.394,0,0,0-11.5-11.286A11.394,11.394,0,0,0-265.677,277.8v43.112h22.788V277.8Z" fill="#f16c7a"/>
    <path id="Trazado_105505" data-name="Trazado 105505" d="M-242.89,321.586h-22.787a.675.675,0,0,1-.675-.675V277.8a12.068,12.068,0,0,1,12.068-12.068A12.068,12.068,0,0,1-242.215,277.8v43.112A.675.675,0,0,1-242.89,321.586ZM-265,320.236h21.437V277.8a10.719,10.719,0,0,0-10.718-10.718A10.719,10.719,0,0,0-265,277.8Z" fill="#3a312a"/>
    <path id="Trazado_105506" data-name="Trazado 105506" d="M-263.05,251.441a2.6,2.6,0,0,1-2.6,2.61,2.6,2.6,0,0,1-2.61-2.6,2.6,2.6,0,0,1,2.6-2.61h.005a2.6,2.6,0,0,1,2.605,2.6Z" fill="#f7e3c7" fill-rule="evenodd"/>
    <path id="Trazado_105507" data-name="Trazado 105507" d="M-265.655,254.72a3.278,3.278,0,0,1-3.278-3.28,3.28,3.28,0,0,1,3.28-3.278,3.28,3.28,0,0,1,3.278,3.278A3.283,3.283,0,0,1-265.655,254.72Zm0-5.209a1.93,1.93,0,0,0-1.93,1.93,1.93,1.93,0,0,0,1.93,1.93,1.93,1.93,0,0,0,1.93-1.93h0A1.934,1.934,0,0,0-265.655,249.511Z" fill="#3a312a"/>
    <path id="Trazado_105508" data-name="Trazado 105508" d="M-240.306,251.441a2.6,2.6,0,0,1-2.6,2.61,2.6,2.6,0,0,1-2.61-2.6,2.6,2.6,0,0,1,2.6-2.61h.005a2.6,2.6,0,0,1,2.6,2.6Z" fill="#f7e3c7" fill-rule="evenodd"/>
    <path id="Trazado_105509" data-name="Trazado 105509" d="M-242.912,254.72a3.279,3.279,0,0,1-3.277-3.281,3.279,3.279,0,0,1,3.281-3.277,3.279,3.279,0,0,1,3.277,3.278A3.283,3.283,0,0,1-242.912,254.72Zm0-5.209a1.93,1.93,0,0,0-1.929,1.931,1.93,1.93,0,0,0,1.931,1.929,1.929,1.929,0,0,0,1.929-1.93A1.932,1.932,0,0,0-242.912,249.511Z" fill="#3a312a"/>
    <path id="Trazado_105510" data-name="Trazado 105510" d="M-242.732,250.178c0,6.373-6.145,16.163-11.553,16.163-5.161,0-11.55-9.791-11.55-16.163,0-.249.009-.492.023-.729a11.551,11.551,0,0,1,12.261-10.794,11.552,11.552,0,0,1,10.786,10.673C-242.741,249.607-242.732,249.892-242.732,250.178Z" fill="#f7e3c7"/>
    <path id="Trazado_105511" data-name="Trazado 105511" d="M-254.285,267.016c-5.668,0-12.225-10.19-12.225-16.838,0-.262.009-.517.024-.769a12.226,12.226,0,0,1,12.983-11.42,12.226,12.226,0,0,1,11.412,11.29c.023.275.034.57.034.9,0,6.8-6.442,16.838-12.228,16.838Zm0-27.709a10.887,10.887,0,0,0-10.853,10.184c-.013.222-.022.452-.022.687,0,5.885,6.075,15.488,10.875,15.488,4.938,0,10.878-9.513,10.878-15.488,0-.291-.009-.55-.03-.794A10.909,10.909,0,0,0-254.285,239.307Z" fill="#3a312a"/>
    <path id="Trazado_105512" data-name="Trazado 105512" d="M-242.765,249.328c-1.9-.617-9.664-6.968-11.386-6.968-1.782,0-9.066,5.754-9.808,6.276a7.258,7.258,0,0,1-1.853.813,11.551,11.551,0,0,1,12.261-10.794A11.552,11.552,0,0,1-242.765,249.328Z" fill="#87796f"/>
    <path id="Trazado_105513" data-name="Trazado 105513" d="M-265.812,250.124a.677.677,0,0,1-.675-.681v-.036a12.226,12.226,0,0,1,12.976-11.426,12.227,12.227,0,0,1,11.418,11.3.675.675,0,0,1-.623.722.684.684,0,0,1-.258-.032,30.234,30.234,0,0,1-5-3.15c-2.156-1.506-5.415-3.783-6.176-3.783-.59,0-2.578.973-8.691,5.608-.361.273-.617.466-.728.544a7.439,7.439,0,0,1-2.213.936Zm11.527-10.817a10.894,10.894,0,0,0-10.736,9.133c.3-.147.584-.3.689-.366.089-.063.332-.247.674-.507,5.439-4.123,8.282-5.881,9.507-5.881,1.107,0,3.364,1.521,6.95,4.027,1.309.915,2.649,1.851,3.6,2.431a10.918,10.918,0,0,0-10.686-8.837Z" fill="#3a312a"/>
    <path id="Trazado_105514" data-name="Trazado 105514" d="M-288.557,256.558l.6,4.663a2.158,2.158,0,0,0,2.418,1.862,2.158,2.158,0,0,0,1.862-1.862l2.506-19.374h-9.291l.97,7.506Z" fill="#87796f"/>
    <path id="Trazado_105515" data-name="Trazado 105515" d="M-285.814,263.777a2.84,2.84,0,0,1-2.81-2.47l-.6-4.663a.676.676,0,0,1,.583-.755.675.675,0,0,1,.755.583l.6,4.662a1.483,1.483,0,0,0,1.663,1.279,1.483,1.483,0,0,0,1.278-1.279l2.407-18.612h-7.755l.871,6.744a.675.675,0,0,1-.581.758.675.675,0,0,1-.757-.581v0l-.97-7.5a.674.674,0,0,1,.581-.755.651.651,0,0,1,.088-.006h9.291a.675.675,0,0,1,.675.674.632.632,0,0,1-.006.087l-2.506,19.374a2.837,2.837,0,0,1-2.808,2.47Z" fill="#3a312a"/>
    <path id="Trazado_105516" data-name="Trazado 105516" d="M-294.2,234.669c0,6.172,3.755,8.063,8.384,8.063s8.384-1.9,8.384-8.063a8.816,8.816,0,0,0-1.671-5.137,6.663,6.663,0,0,1-1.608,1.728c.5-2.949-.561-4-1.634-6.795a8.7,8.7,0,0,1-.533-3.841c.008-.1-.285.048-.782.381-3.565,2.393-5.842,4.229-5.843,8.522,0,.24-.483.965-1.094-2.17-1.944,1.985-3.6,5.483-3.6,7.312Z" fill="#ef6d7a"/>
    <path id="Trazado_105517" data-name="Trazado 105517" d="M-285.814,243.407c-5.927,0-9.059-3.022-9.059-8.738,0-2.081,1.773-5.72,3.795-7.786a.674.674,0,0,1,.953-.012.677.677,0,0,1,.19.348c.7-3.056,2.876-4.746,5.9-6.775.645-.431,1.066-.677,1.491-.428a.722.722,0,0,1,.342.66,8.082,8.082,0,0,0,.49,3.546c.253.657.5,1.206.739,1.736a9.314,9.314,0,0,1,1.056,3.541c.09-.114.178-.234.265-.355a.652.652,0,0,1,.56-.287.671.671,0,0,1,.554.3,9.445,9.445,0,0,1,1.785,5.512c0,5.716-3.133,8.738-9.06,8.738Zm-5.14-14.6c-1.5,1.954-2.569,4.548-2.569,5.864,0,4.972,2.522,7.388,7.709,7.388s7.709-2.416,7.709-7.388a7.8,7.8,0,0,0-1.052-3.945c-.626.76-1.317,1.369-1.806,1.17a.694.694,0,0,1-.413-.747,6.727,6.727,0,0,0-.828-4.633c-.236-.523-.5-1.115-.77-1.807a9.133,9.133,0,0,1-.6-2.948c-3.276,2.219-5.254,3.924-5.256,7.768a.906.906,0,0,1-.78.916c-.64.064-1.038-.551-1.346-1.638Z" fill="#3a312a"/>
    <path id="Trazado_105518" data-name="Trazado 105518" d="M-291.833,236.944c0,4.43,2.7,5.788,6.019,5.788s6.017-1.367,6.017-5.788a6.324,6.324,0,0,0-1.2-3.689,4.716,4.716,0,0,1-1.154,1.24c.358-2.117-.4-2.874-1.173-4.878a6.25,6.25,0,0,1-.382-2.759c.005-.068-.2.036-.562.274-2.56,1.719-4.2,3.036-4.2,6.119,0,.171-.347.693-.785-1.559a9.649,9.649,0,0,0-2.586,5.252Z" fill="#ffb266"/>
    <path id="Trazado_105519" data-name="Trazado 105519" d="M-285.814,243.407c-4.38,0-6.694-2.235-6.694-6.463a10.26,10.26,0,0,1,2.778-5.724.679.679,0,0,1,.677-.175.726.726,0,0,1,.208.1c.621-2.02,2.185-3.225,4.2-4.579.433-.288.843-.562,1.269-.314a.713.713,0,0,1,.343.65,5.588,5.588,0,0,0,.34,2.467c.179.467.354.858.525,1.237a7.787,7.787,0,0,1,.729,2.134.664.664,0,0,1,.45-.165.674.674,0,0,1,.555.3,7.06,7.06,0,0,1,1.312,4.063c0,4.228-2.314,6.463-6.694,6.463Zm-3.76-10.253a8.4,8.4,0,0,0-1.584,3.79c0,3.44,1.748,5.113,5.344,5.113s5.346-1.673,5.346-5.113a5.361,5.361,0,0,0-.6-2.495c-.8.9-1.159.748-1.332.678a.688.688,0,0,1-.413-.743,4.68,4.68,0,0,0-.581-3.218c-.17-.377-.363-.8-.555-1.308a6.587,6.587,0,0,1-.422-1.837c-2.316,1.6-3.413,2.743-3.414,5.23a.842.842,0,0,1-.731.847c-.522.055-.838-.344-1.056-.944Z" fill="#3a312a"/>
    <path id="Trazado_105520" data-name="Trazado 105520" d="M-285.814,246.246a10.041,10.041,0,0,1-8.4-4.54l-1.054-1.608h18.9l-1.054,1.608a10.04,10.04,0,0,1-8.4,4.54Z" fill="#8bc0d7"/>
    <path id="Trazado_105521" data-name="Trazado 105521" d="M-285.814,246.921a10.681,10.681,0,0,1-8.963-4.845l-1.054-1.609a.675.675,0,0,1,.2-.934.673.673,0,0,1,.369-.11h18.9a.675.675,0,0,1,.675.675.671.671,0,0,1-.11.369l-1.054,1.609a10.681,10.681,0,0,1-8.963,4.845Zm-8.2-6.148.369.564a9.363,9.363,0,0,0,12.962,2.7,9.364,9.364,0,0,0,2.7-2.7l.369-.564Z" fill="#3a312a"/>
    <path id="Trazado_105522" data-name="Trazado 105522" d="M-295.772,237.451a1.325,1.325,0,0,0-1.327,1.322,1.324,1.324,0,0,0,1.322,1.326h19.92a1.324,1.324,0,0,0,1.327-1.321,1.326,1.326,0,0,0-1.322-1.327h-19.92Z" fill="#8bc0d7"/>
    <path id="Trazado_105523" data-name="Trazado 105523" d="M-275.856,240.773h-19.916a2,2,0,0,1-2-2,2,2,0,0,1,2-2h19.916a2,2,0,0,1,2,2,2,2,0,0,1-2,2Zm-19.916-2.649a.65.65,0,0,0-.65.65.65.65,0,0,0,.65.65h19.916a.65.65,0,0,0,.65-.65.65.65,0,0,0-.65-.65Z" fill="#3a312a"/>
    <path id="Trazado_105524" data-name="Trazado 105524" d="M-240.5,286.808l-27.569,11.63V282.5l27.569-11.631Z" fill="#f16c7a"/>
    <path id="Trazado_105525" data-name="Trazado 105525" d="M-268.068,299.113a.675.675,0,0,1-.675-.675V282.5a.674.674,0,0,1,.413-.621l27.569-11.627a.678.678,0,0,1,.886.364.672.672,0,0,1,.052.258v15.939a.674.674,0,0,1-.413.621l-27.57,11.631a.674.674,0,0,1-.262.053Zm.671-16.162v14.474l26.22-11.063V271.886Zm26.894,3.859" fill="#3a312a"/>
    <path id="Trazado_105526" data-name="Trazado 105526" d="M-226,282.865l-11.152,18.686-6.864-9.344,11.154-18.689Z" fill="#87796f"/>
    <path id="Trazado_105527" data-name="Trazado 105527" d="M-237.149,302.229a.673.673,0,0,1-.544-.276l-6.862-9.343a.672.672,0,0,1-.036-.745l11.153-18.689a.68.68,0,0,1,.547-.33.687.687,0,0,1,.577.276l6.863,9.343a.676.676,0,0,1,.035.745L-236.569,301.9a.675.675,0,0,1-.548.329Zm-6.054-10.057,6,8.162,10.4-17.431-5.989-8.163Z" fill="#3a312a"/>
    <path id="Trazado_105528" data-name="Trazado 105528" d="M-237.256,304.072l-34.055,14.367V298.751l34.055-14.368Z" fill="#f16c7a"/>
    <path id="Trazado_105529" data-name="Trazado 105529" d="M-271.311,319.114a.673.673,0,0,1-.675-.671V298.751a.674.674,0,0,1,.412-.623l34.057-14.367a.678.678,0,0,1,.886.364.672.672,0,0,1,.052.258v19.689a.671.671,0,0,1-.414.621l-34.056,14.368a.674.674,0,0,1-.262.053Zm.675-19.916v18.224l32.707-13.8V285.4Zm33.38,4.874" fill="#3a312a"/>
    <path id="Trazado_105530" data-name="Trazado 105530" d="M-250.229,286.506v31.129l12.973-5.465V275.134a6.486,6.486,0,0,0-6.486-6.486,6.486,6.486,0,0,0-6.487,6.486h0Z" fill="#f16c7a"/>
    <path id="Trazado_105531" data-name="Trazado 105531" d="M-250.229,318.31a.665.665,0,0,1-.374-.112.677.677,0,0,1-.3-.563V286.506a.675.675,0,0,1,.675-.675.675.675,0,0,1,.675.675v30.113l11.623-4.9V275.134a5.811,5.811,0,0,0-5.811-5.811,5.812,5.812,0,0,0-5.812,5.811h0V279.3a.675.675,0,0,1-.675.675.675.675,0,0,1-.675-.675v-4.165a7.161,7.161,0,0,1,7.162-7.161,7.161,7.161,0,0,1,7.161,7.161v37.037a.672.672,0,0,1-.412.622l-12.974,5.464a.674.674,0,0,1-.262.053Z" fill="#3a312a"/>
    <path id="Trazado_105532" data-name="Trazado 105532" d="M-237.929,275.135v36.586l-11.624,4.9v-3.037l4.424-1.862V275.135a5.8,5.8,0,0,0-2.219-4.562,5.755,5.755,0,0,1,3.6-1.252,5.82,5.82,0,0,1,5.814,5.814Z" fill="#d04e5d"/>
  </g>
</svg>
