<svg xmlns="http://www.w3.org/2000/svg" xmlns:xlink="http://www.w3.org/1999/xlink" width="102" height="102" viewBox="0 0 102 102">
  <defs>
    <clipPath id="clip-path">
      <rect id="SVGID" width="102" height="102" transform="translate(-303.797 1517.751)" fill="none"/>
    </clipPath>
  </defs>
  <g id="Grupo_55598" data-name="Grupo 55598" transform="translate(303.797 -1517.751)">
    <path id="Trazado_105566" data-name="Trazado 105566" d="M-280.975,1618.813h11.139v-.587a5.279,5.279,0,0,0-5.278-5.278h-15.441a5.279,5.279,0,0,0-5.278,5.278v.587Z" fill="#87796f"/>
    <path id="Trazado_105567" data-name="Trazado 105567" d="M-269.836,1619.488h-11.139a.675.675,0,0,1-.675-.675.675.675,0,0,1,.675-.675h10.463a4.609,4.609,0,0,0-4.6-4.515h-15.44a4.609,4.609,0,0,0-4.6,4.515H-288a.675.675,0,0,1,.675.675.675.675,0,0,1-.675.675h-7.838a.675.675,0,0,1-.675-.675v-.587a5.961,5.961,0,0,1,5.953-5.953h15.441a5.96,5.96,0,0,1,5.953,5.953v.587a.675.675,0,0,1-.675.675Z" fill="#3a312a"/>
    <path id="Trazado_105568" data-name="Trazado 105568" d="M-285.638,1612.825h5.607V1541.6c-.926,0-1.859-.009-2.8-.009s-1.878.005-2.8.009Z" fill="#87796f"/>
    <path id="Trazado_105569" data-name="Trazado 105569" d="M-280.031,1613.5h-5.607a.675.675,0,0,1-.675-.675V1541.6a.677.677,0,0,1,.672-.675c1.853-.009,3.759-.009,5.613,0a.677.677,0,0,1,.672.675v71.229a.675.675,0,0,1-.675.675Zm-4.932-1.35h4.257v-69.882c-1.409-.007-2.85-.007-4.257,0Z" fill="#3a312a"/>
    <path id="Trazado_105570" data-name="Trazado 105570" d="M-277.247,1535.442v-16.791a.128.128,0,0,1,0-.039c-.005,0-.01-.013-.01-.013H-288.4s-.01.013-.014.013a.1.1,0,0,1-.005.039v16.8Z" fill="#87796f"/>
    <path id="Trazado_105571" data-name="Trazado 105571" d="M-277.248,1536.117h-11.174a.675.675,0,0,1-.675-.675v-16.791a.672.672,0,0,1,.007-.1.7.7,0,0,1,.688-.626h11.141a.692.692,0,0,1,.682.634.582.582,0,0,1,.007.093v16.8a.676.676,0,0,1-.676.675Zm-10.5-1.35h9.824v-15.5h-9.823Zm11.141-16.331.006.019Zm0,0,0,0-11.813-.5h0" fill="#3a312a"/>
    <path id="Trazado_105572" data-name="Trazado 105572" d="M-302.845,1548.441v11.486h40.021v-25.42a8.9,8.9,0,0,0-.156-1.693,9.506,9.506,0,0,0-.248-.994,9.047,9.047,0,0,0-8.631-6.35h-5.35l-5.625,9.743-5.625-9.743h-5.351a9.047,9.047,0,0,0-8.631,6.35,9.256,9.256,0,0,0-.247.994,8.744,8.744,0,0,0-.157,1.693Z" fill="#ed6e7a"/>
    <path id="Trazado_105573" data-name="Trazado 105573" d="M-262.824,1560.6h-40.021a.675.675,0,0,1-.675-.675v-11.486a.675.675,0,0,1,.675-.675.675.675,0,0,1,.675.675h0v10.81H-263.5v-24.744a7.972,7.972,0,0,0-.145-1.564,8.34,8.34,0,0,0-8.215-6.8h-4.96l-5.431,9.4a.674.674,0,0,1-.92.249.661.661,0,0,1-.249-.249l-5.431-9.4h-4.96a8.346,8.346,0,0,0-8.215,6.793,8.1,8.1,0,0,0-.145,1.569v6.746a.675.675,0,0,1-.675.675.675.675,0,0,1-.675-.675v-6.746a9.611,9.611,0,0,1,.168-1.822,10.216,10.216,0,0,1,.265-1.061,9.677,9.677,0,0,1,9.277-6.829h5.351a.676.676,0,0,1,.584.337l5.041,8.731,5.04-8.731a.676.676,0,0,1,.585-.337h5.35a9.7,9.7,0,0,1,9.542,7.9,9.386,9.386,0,0,1,.168,1.816v25.42a.675.675,0,0,1-.675.675Z" fill="#3a312a"/>
    <rect id="Rectángulo_5319" data-name="Rectángulo 5319" width="12.661" height="40.313" transform="translate(-295.495 1559.929)" fill="#ed6e7a"/>
    <path id="Trazado_105574" data-name="Trazado 105574" d="M-282.834,1600.917H-295.5a.675.675,0,0,1-.675-.675v-40.313a.675.675,0,0,1,.675-.675h12.661a.677.677,0,0,1,.675.675v40.313a.676.676,0,0,1-.676.675Zm-11.985-1.35h11.311V1560.6h-11.311Z" fill="#3a312a"/>
    <rect id="Rectángulo_5320" data-name="Rectángulo 5320" width="12.662" height="40.313" transform="translate(-282.835 1559.929)" fill="#ed6e7a"/>
    <path id="Trazado_105575" data-name="Trazado 105575" d="M-270.172,1600.917h-12.662a.675.675,0,0,1-.675-.675v-40.313a.675.675,0,0,1,.675-.675h12.662a.677.677,0,0,1,.675.675v40.313A.675.675,0,0,1-270.172,1600.917Zm-11.987-1.35h11.312V1560.6h-11.312Z" fill="#3a312a"/>
    <rect id="Rectángulo_5321" data-name="Rectángulo 5321" width="12.661" height="4.45" transform="translate(-295.495 1595.792)" fill="#f6e2c6"/>
    <path id="Trazado_105576" data-name="Trazado 105576" d="M-282.834,1600.917H-295.5a.675.675,0,0,1-.675-.675v-4.451a.675.675,0,0,1,.675-.675h12.661a.675.675,0,0,1,.675.675v4.451a.676.676,0,0,1-.676.675Zm-11.985-1.35h11.311v-3.1h-11.311Z" fill="#3a312a"/>
    <rect id="Rectángulo_5322" data-name="Rectángulo 5322" width="12.662" height="4.45" transform="translate(-282.835 1595.792)" fill="#f6e2c6"/>
    <path id="Trazado_105577" data-name="Trazado 105577" d="M-270.172,1600.917h-12.662a.675.675,0,0,1-.675-.675v-4.451a.675.675,0,0,1,.675-.675h12.662a.675.675,0,0,1,.675.675v4.451A.675.675,0,0,1-270.172,1600.917Zm-11.987-1.35h11.312v-3.1h-11.312Z" fill="#3a312a"/>
    <rect id="Rectángulo_5323" data-name="Rectángulo 5323" width="40.022" height="4.421" transform="translate(-302.845 1555.505)" fill="#f6e2c6"/>
    <path id="Trazado_105578" data-name="Trazado 105578" d="M-262.824,1560.6h-40.021a.675.675,0,0,1-.675-.675v-4.422a.675.675,0,0,1,.675-.675h40.021a.675.675,0,0,1,.675.675v4.422A.675.675,0,0,1-262.824,1560.6Zm-39.346-1.35H-263.5v-3.072H-302.17Z" fill="#3a312a"/>
    <path id="Trazado_105579" data-name="Trazado 105579" d="M-282.834,1560.6a.675.675,0,0,1-.675-.675v-24.714a.675.675,0,0,1,.675-.675.675.675,0,0,1,.675.675v24.714a.675.675,0,0,1-.675.675Z" fill="#3a312a"/>
    <path id="Trazado_105580" data-name="Trazado 105580" d="M-270.17,1560.6a.675.675,0,0,1-.675-.675v-23.959a.675.675,0,0,1,.675-.675.675.675,0,0,1,.675.675v23.959a.675.675,0,0,1-.675.675Z" fill="#3a312a"/>
    <path id="Trazado_105581" data-name="Trazado 105581" d="M-295.5,1560.6a.675.675,0,0,1-.675-.675v-23.959a.675.675,0,0,1,.675-.675.675.675,0,0,1,.675.675v23.959a.675.675,0,0,1-.675.675Z" fill="#3a312a"/>
    <path id="Trazado_105582" data-name="Trazado 105582" d="M-292.734,1545.645l3.427,1.675,3.427-1.675v-5.861h-6.854Z" fill="#fcb268"/>
    <path id="Trazado_105583" data-name="Trazado 105583" d="M-289.307,1547.994a.68.68,0,0,1-.3-.068l-3.428-1.675a.673.673,0,0,1-.378-.607v-5.86a.675.675,0,0,1,.675-.675h6.854a.675.675,0,0,1,.675.675v5.86a.675.675,0,0,1-.379.607l-3.427,1.675a.68.68,0,0,1-.3.068Zm-2.752-2.771,2.752,1.344,2.752-1.344v-4.764h-5.5Z" fill="#3a312a"/>
    <rect id="Rectángulo_5324" data-name="Rectángulo 5324" width="2.694" height="8.862" transform="translate(-259.461 1567.661)" fill="#f6e2c6"/>
    <path id="Trazado_105584" data-name="Trazado 105584" d="M-256.767,1577.2h-2.694a.675.675,0,0,1-.675-.675v-8.861a.675.675,0,0,1,.675-.675h2.694a.677.677,0,0,1,.675.675v8.861A.675.675,0,0,1-256.767,1577.2Zm-2.019-1.35h1.344v-7.511h-1.344Z" fill="#3a312a"/>
    <path id="Trazado_105585" data-name="Trazado 105585" d="M-262.021,1566.363a1.3,1.3,0,0,1,1.3-1.3h5.216a1.3,1.3,0,0,1,1.3,1.3,1.3,1.3,0,0,1-1.3,1.3h-5.216A1.3,1.3,0,0,1-262.021,1566.363Z" fill="#f6e2c6"/>
    <path id="Trazado_105586" data-name="Trazado 105586" d="M-255.506,1568.337h-5.216a1.973,1.973,0,0,1-1.974-1.973,1.974,1.974,0,0,1,1.974-1.974h5.216a1.973,1.973,0,0,1,1.973,1.974A1.973,1.973,0,0,1-255.506,1568.337Zm-5.216-2.6a.624.624,0,0,0-.624.624.624.624,0,0,0,.624.623h5.216a.623.623,0,0,0,.623-.623.623.623,0,0,0-.623-.624Z" fill="#3a312a"/>
    <path id="Trazado_105587" data-name="Trazado 105587" d="M-202.749,1577.206v11.472a2.051,2.051,0,0,1-2.051,2.053h-1.185v-15.58h1.183a2.053,2.053,0,0,1,2.053,2.051v0Z" fill="#ffb266"/>
    <path id="Trazado_105588" data-name="Trazado 105588" d="M-204.8,1591.406h-1.183a.675.675,0,0,1-.675-.675v-15.58a.675.675,0,0,1,.675-.675h1.183a2.733,2.733,0,0,1,2.73,2.728v11.472a2.734,2.734,0,0,1-2.73,2.728Zm-.508-1.35h.508a1.381,1.381,0,0,0,1.38-1.378v-11.472a1.382,1.382,0,0,0-1.38-1.378h-.508Z" fill="#3a312a"/>
    <rect id="Rectángulo_5325" data-name="Rectángulo 5325" width="2.695" height="3.175" transform="translate(-259.461 1600.925)" fill="#f6e2c6"/>
    <path id="Trazado_105589" data-name="Trazado 105589" d="M-256.766,1604.774h-2.7a.675.675,0,0,1-.675-.675v-3.174a.675.675,0,0,1,.675-.675h2.7a.675.675,0,0,1,.675.675v3.174A.675.675,0,0,1-256.766,1604.774Zm-2.02-1.35h1.345V1601.6h-1.345Z" fill="#3a312a"/>
    <path id="Trazado_105590" data-name="Trazado 105590" d="M-254.208,1605.4a1.3,1.3,0,0,1-1.3,1.3h-5.216a1.3,1.3,0,0,1-1.3-1.3,1.3,1.3,0,0,1,1.3-1.3h5.216A1.3,1.3,0,0,1-254.208,1605.4Z" fill="#f6e2c6"/>
    <path id="Trazado_105591" data-name="Trazado 105591" d="M-255.506,1607.371h-5.216a1.973,1.973,0,0,1-1.974-1.973,1.974,1.974,0,0,1,1.974-1.974h5.216a1.973,1.973,0,0,1,1.973,1.974A1.973,1.973,0,0,1-255.506,1607.371Zm-5.216-2.6a.625.625,0,0,0-.649.6.625.625,0,0,0,.6.648.38.38,0,0,0,.05,0h5.216a.623.623,0,0,0,.6-.648.624.624,0,0,0-.6-.6Z" fill="#3a312a"/>
    <path id="Trazado_105592" data-name="Trazado 105592" d="M-254.154,1595.651v3.8a1.485,1.485,0,0,1-1.485,1.482h-4.952a1.485,1.485,0,0,1-1.485-1.482v-3.8Z" fill="#87796f"/>
    <path id="Trazado_105593" data-name="Trazado 105593" d="M-255.639,1601.6h-4.952a2.16,2.16,0,0,1-2.16-2.157v-3.793a.675.675,0,0,1,.675-.675h7.922a.675.675,0,0,1,.675.675v3.8a2.161,2.161,0,0,1-2.16,2.157Zm-5.762-5.277v3.12a.81.81,0,0,0,.81.807h4.952a.81.81,0,0,0,.81-.807v-3.12Z" fill="#3a312a"/>
    <path id="Trazado_105594" data-name="Trazado 105594" d="M-243.069,1570.326h-19.176a3.951,3.951,0,0,0-3.951,3.951h0V1591.7a3.949,3.949,0,0,0,3.949,3.951h8.264a3.951,3.951,0,0,0,3.952-3.95h0v-9.518h18.32v28.826h-30.4a3.951,3.951,0,0,0-4.039,3.861,3.95,3.95,0,0,0,3.861,4.039c.059,0,.119,0,.178,0h52.176a3.951,3.951,0,0,0,3.951-3.951v-40.678a3.953,3.953,0,0,0-3.951-3.952Z" fill="#87796f"/>
    <path id="Trazado_105595" data-name="Trazado 105595" d="M-209.934,1619.583h-52.177a4.626,4.626,0,0,1-4.558-4.693,4.627,4.627,0,0,1,4.558-4.558h29.723v-27.481h-16.969v8.844a4.631,4.631,0,0,1-4.626,4.626h-8.262a4.631,4.631,0,0,1-4.626-4.626v-17.417a4.631,4.631,0,0,1,4.626-4.627h19.176a.675.675,0,0,1,.675.675.675.675,0,0,1-.675.675h-19.176a3.279,3.279,0,0,0-3.276,3.277V1591.7a3.278,3.278,0,0,0,3.276,3.276h8.262a3.279,3.279,0,0,0,3.276-3.276v-9.519a.675.675,0,0,1,.675-.675h18.319a.675.675,0,0,1,.675.675v28.827a.675.675,0,0,1-.675.675h-30.4a3.276,3.276,0,0,0-3.275,3.276,3.275,3.275,0,0,0,3.275,3.275h52.175a3.279,3.279,0,0,0,3.277-3.276v-40.679a3.279,3.279,0,0,0-3.277-3.277h-26.123a.675.675,0,0,1-.675-.675.675.675,0,0,1,.675-.675h26.125a4.631,4.631,0,0,1,4.627,4.627v40.679A4.631,4.631,0,0,1-209.934,1619.583Z" fill="#3a312a"/>
    <rect id="Rectángulo_5326" data-name="Rectángulo 5326" width="2.32" height="11.427" transform="translate(-219.935 1555.759)" fill="#f6e2c6"/>
    <path id="Trazado_105596" data-name="Trazado 105596" d="M-217.615,1567.861h-2.32a.675.675,0,0,1-.675-.675v-11.427a.675.675,0,0,1,.675-.675h2.32a.675.675,0,0,1,.675.675v11.427A.675.675,0,0,1-217.615,1567.861Zm-1.645-1.35h.97v-10.077h-.97Z" fill="#3a312a"/>
    <rect id="Rectángulo_5327" data-name="Rectángulo 5327" width="7.173" height="6.539" transform="translate(-222.361 1561.046)" fill="#ed6e7a"/>
    <path id="Trazado_105597" data-name="Trazado 105597" d="M-215.188,1568.26h-7.173a.675.675,0,0,1-.675-.675v-6.539a.675.675,0,0,1,.675-.675h7.173a.675.675,0,0,1,.675.675v6.539A.675.675,0,0,1-215.188,1568.26Zm-6.5-1.35h5.823v-5.189h-5.823Z" fill="#3a312a"/>
    <path id="Trazado_105598" data-name="Trazado 105598" d="M-214.657,1561.045h-8.24a1.371,1.371,0,0,1-1.371-1.371,1.371,1.371,0,0,1,1.371-1.371h8.235a1.371,1.371,0,0,1,1.371,1.371,1.371,1.371,0,0,1-1.371,1.371Z" fill="#ffb266"/>
    <path id="Trazado_105599" data-name="Trazado 105599" d="M-214.657,1561.72h-8.24a2.046,2.046,0,0,1-2.043-2.049,2.047,2.047,0,0,1,2.043-2.043h8.236a2.046,2.046,0,0,1,2.043,2.049,2.047,2.047,0,0,1-2.043,2.043Zm-8.235-2.742a.7.7,0,0,0-.621.771.7.7,0,0,0,.621.621h8.235a.7.7,0,0,0,.621-.771.7.7,0,0,0-.621-.621Z" fill="#3a312a"/>
    <path id="Trazado_105600" data-name="Trazado 105600" d="M-214.657,1570.326h-8.24a1.371,1.371,0,0,1-1.371-1.371,1.371,1.371,0,0,1,1.371-1.371h8.235a1.371,1.371,0,0,1,1.371,1.371,1.371,1.371,0,0,1-1.371,1.371Z" fill="#ffb266"/>
    <path id="Trazado_105601" data-name="Trazado 105601" d="M-214.657,1571h-8.24a2.046,2.046,0,0,1-2.043-2.049,2.047,2.047,0,0,1,2.043-2.043h8.236a2.046,2.046,0,0,1,2.043,2.049,2.047,2.047,0,0,1-2.043,2.043Zm-8.235-2.742a.7.7,0,0,0-.621.771.7.7,0,0,0,.621.621h8.235a.7.7,0,0,0,.621-.771.7.7,0,0,0-.621-.621Z" fill="#3a312a"/>
    <path id="Trazado_105602" data-name="Trazado 105602" d="M-211.668,1579.29a7.809,7.809,0,0,1-4.222,10.2,7.809,7.809,0,0,1-10.205-4.222,7.81,7.81,0,0,1,4.222-10.2l.005,0A7.809,7.809,0,0,1-211.668,1579.29Z" fill="#ed6e7a"/>
    <path id="Trazado_105603" data-name="Trazado 105603" d="M-218.916,1590.783a8.483,8.483,0,0,1-8.483-8.483,8.483,8.483,0,0,1,8.483-8.483,8.483,8.483,0,0,1,8.483,8.483A8.492,8.492,0,0,1-218.916,1590.783Zm0-15.616a7.134,7.134,0,0,0-7.133,7.133,7.133,7.133,0,0,0,7.133,7.133,7.133,7.133,0,0,0,7.133-7.133h0A7.141,7.141,0,0,0-218.916,1575.167Z" fill="#3a312a"/>
    <path id="Trazado_105604" data-name="Trazado 105604" d="M-214.411,1582.3a4.5,4.5,0,0,1-4.5,4.5,4.5,4.5,0,0,1-4.5-4.5,4.5,4.5,0,0,1,4.5-4.5h0A4.505,4.505,0,0,1-214.411,1582.3Z" fill="#ffb266"/>
    <path id="Trazado_105605" data-name="Trazado 105605" d="M-218.916,1587.48a5.18,5.18,0,0,1-5.18-5.18,5.18,5.18,0,0,1,5.18-5.18,5.18,5.18,0,0,1,5.18,5.18h0A5.185,5.185,0,0,1-218.916,1587.48Zm0-9.01a3.83,3.83,0,0,0-3.83,3.83,3.83,3.83,0,0,0,3.83,3.83,3.83,3.83,0,0,0,3.83-3.83h0A3.834,3.834,0,0,0-218.916,1578.47Z" fill="#3a312a"/>
    <path id="Trazado_105606" data-name="Trazado 105606" d="M-213.4,1601.609a5.512,5.512,0,0,1-5.511,5.513,5.512,5.512,0,0,1-5.513-5.511,5.512,5.512,0,0,1,5.511-5.513A5.513,5.513,0,0,1-213.4,1601.609Z" fill="#ed6e7a"/>
    <path id="Trazado_105607" data-name="Trazado 105607" d="M-218.916,1607.8a6.187,6.187,0,0,1-6.187-6.187,6.187,6.187,0,0,1,6.187-6.187,6.187,6.187,0,0,1,6.187,6.186A6.194,6.194,0,0,1-218.916,1607.8Zm0-11.024a4.838,4.838,0,0,0-4.837,4.837,4.837,4.837,0,0,0,4.837,4.837,4.837,4.837,0,0,0,4.837-4.837h0A4.841,4.841,0,0,0-218.916,1596.773Z" fill="#3a312a"/>
    <path id="Trazado_105608" data-name="Trazado 105608" d="M-216.359,1601.609a2.555,2.555,0,0,1-2.557,2.555,2.555,2.555,0,0,1-2.555-2.557,2.557,2.557,0,0,1,2.556-2.555,2.556,2.556,0,0,1,2.556,2.556Z" fill="#ffb266"/>
    <path id="Trazado_105609" data-name="Trazado 105609" d="M-218.916,1604.842a3.232,3.232,0,0,1-3.232-3.232,3.232,3.232,0,0,1,3.232-3.232,3.232,3.232,0,0,1,3.232,3.231A3.236,3.236,0,0,1-218.916,1604.842Zm0-5.115a1.882,1.882,0,0,0-1.882,1.882,1.882,1.882,0,0,0,1.882,1.882,1.882,1.882,0,0,0,1.882-1.882h0A1.884,1.884,0,0,0-218.916,1599.727Z" fill="#3a312a"/>
    <path id="Trazado_105610" data-name="Trazado 105610" d="M-254.154,1576.09a1.455,1.455,0,0,0-1.454-1.454h-5.014a1.455,1.455,0,0,0-1.455,1.455,1.454,1.454,0,0,0,1.455,1.455h5.014a1.454,1.454,0,0,0,1.454-1.454v0Z" fill="#ffb266"/>
    <path id="Trazado_105611" data-name="Trazado 105611" d="M-255.608,1578.221h-5.014a2.131,2.131,0,0,1-2.127-2.133,2.13,2.13,0,0,1,2.127-2.127h5.014a2.13,2.13,0,0,1,2.126,2.134A2.129,2.129,0,0,1-255.608,1578.221Zm-5.014-2.91a.781.781,0,0,0-.779.782.78.78,0,0,0,.779.778h5.014a.78.78,0,0,0,.779-.781.781.781,0,0,0-.779-.779Z" fill="#3a312a"/>
    <path id="Trazado_105612" data-name="Trazado 105612" d="M-254.154,1581.77a1.456,1.456,0,0,0-1.454-1.455h-5.014a1.455,1.455,0,0,0-1.455,1.455,1.454,1.454,0,0,0,1.455,1.455h5.014a1.454,1.454,0,0,0,1.454-1.454Z" fill="#ffb266"/>
    <path id="Trazado_105613" data-name="Trazado 105613" d="M-255.608,1583.9h-5.014a2.129,2.129,0,0,1-2.083-2.175,2.13,2.13,0,0,1,2.083-2.084h5.014a2.13,2.13,0,0,1,2.083,2.176A2.129,2.129,0,0,1-255.608,1583.9Zm-5.014-2.91a.781.781,0,0,0-.779.782.78.78,0,0,0,.779.778h5.014a.78.78,0,0,0,.779-.781.781.781,0,0,0-.779-.779Z" fill="#3a312a"/>
    <path id="Trazado_105614" data-name="Trazado 105614" d="M-234.676,1610.995a1.716,1.716,0,0,0-1.716-1.716H-258.8a1.715,1.715,0,0,0-1.719,1.712,1.715,1.715,0,0,0,1.712,1.718H-236.4a1.715,1.715,0,0,0,1.716-1.714h.005Z" fill="#8bbfd6"/>
    <path id="Trazado_105615" data-name="Trazado 105615" d="M-236.4,1613.384h-22.41a2.39,2.39,0,0,1-2.388-2.392,2.39,2.39,0,0,1,2.388-2.388h22.41a2.39,2.39,0,0,1,2.392,2.388,2.39,2.39,0,0,1-2.388,2.392Zm-22.41-3.43a1.041,1.041,0,0,0-1.04,1.04,1.04,1.04,0,0,0,1.04,1.04h22.41a1.04,1.04,0,0,0,1.04-1.04,1.041,1.041,0,0,0-1.04-1.04Z" fill="#3a312a"/>
    <path id="Trazado_105616" data-name="Trazado 105616" d="M-242.79,1542.944l34.325-10.657-7.616-4.263L-245.7,1540.8a2.24,2.24,0,0,0,2.241,2.24,2.235,2.235,0,0,0,.659-.1Z" fill="#fce8cb"/>
    <path id="Trazado_105617" data-name="Trazado 105617" d="M-243.463,1543.723a2.922,2.922,0,0,1-2.907-2.919.674.674,0,0,1,.406-.62l29.616-12.78a.671.671,0,0,1,.6.03l7.615,4.263a.675.675,0,0,1,.262.918.677.677,0,0,1-.391.317l-34.325,10.658a2.938,2.938,0,0,1-.873.133Zm.673-.778-2.175-1.721a1.567,1.567,0,0,0,1.931,1.088l.044-.013,32.824-10.192-5.954-3.331Z" fill="#3a312a"/>
    <g id="Grupo_55597" data-name="Grupo 55597">
      <g id="Grupo_55613" data-name="Grupo 55613">
        <g id="Grupo_55612" data-name="Grupo 55612" clip-path="url(#clip-path)">
          <g id="Grupo_55596" data-name="Grupo 55596">
            <path id="Trazado_105618" data-name="Trazado 105618" d="M-214.056,1520.178a6.9,6.9,0,0,0-.9,9.717,6.9,6.9,0,0,0,9.716.9,6.9,6.9,0,0,0,.9-9.717,6.98,6.98,0,0,0-.783-.8A6.9,6.9,0,0,0-214.056,1520.178Zm2.208,3.591a2.8,2.8,0,0,1,3.932-.472,2.8,2.8,0,0,1,.472,3.932,2.8,2.8,0,0,1-3.932.472,2.8,2.8,0,0,1-.51-.522A2.8,2.8,0,0,1-211.848,1523.769Z" fill="#eb6e7a" fill-rule="evenodd"/>
            <path id="Trazado_105619" data-name="Trazado 105619" d="M-209.645,1533.051a7.553,7.553,0,0,1-7.535-7.571,7.554,7.554,0,0,1,7.571-7.535,7.553,7.553,0,0,1,7.535,7.571,7.551,7.551,0,0,1-2.734,5.8A7.546,7.546,0,0,1-209.645,1533.051Zm0-13.779a6.206,6.206,0,0,0-6.188,6.226,6.206,6.206,0,0,0,6.225,6.188,6.206,6.206,0,0,0,6.188-6.225,6.208,6.208,0,0,0-2.143-4.674A6.2,6.2,0,0,0-209.645,1519.272Zm-4.407.908,4.409,8.795h-.039a3.473,3.473,0,0,1-3.4-3.548,3.474,3.474,0,0,1,3.437-3.4h.038a3.475,3.475,0,0,1,3.455,3.493,3.473,3.473,0,0,1-3.493,3.455h0Zm0-5.6a2.125,2.125,0,0,0-2.136,2.112,2.124,2.124,0,0,0,2.112,2.136h.024a2.123,2.123,0,0,0,2.135-2.112,2.124,2.124,0,0,0-2.112-2.136Zm-2.2.394" fill="#3a312a"/>
          </g>
        </g>
      </g>
    </g>
    <path id="Trazado_105620" data-name="Trazado 105620" d="M-216.081,1543.183l7.616-4.263-34.325-10.659a2.242,2.242,0,0,0-2.806,1.479,2.226,2.226,0,0,0-.1.663Z" fill="#fce8cb"/>
    <path id="Trazado_105621" data-name="Trazado 105621" d="M-216.081,1543.858a.679.679,0,0,1-.267-.055l-29.616-12.781a.675.675,0,0,1-.408-.619,2.919,2.919,0,0,1,2.919-2.917,2.933,2.933,0,0,1,.863.131l34.324,10.658a.675.675,0,0,1,.448.842.674.674,0,0,1-.318.392l-7.616,4.263a.665.665,0,0,1-.329.086Zm-28.883-13.876,28.846,12.449,5.953-3.332-32.825-10.193a1.571,1.571,0,0,0-1.963,1.038l-.011.038Z" fill="#3a312a"/>
    <path id="Trazado_105622" data-name="Trazado 105622" d="M-214.056,1540.413a6.9,6.9,0,0,0-.9,9.717,6.9,6.9,0,0,0,9.716.9,6.9,6.9,0,0,0,.9-9.717,7.06,7.06,0,0,0-.783-.8A6.9,6.9,0,0,0-214.056,1540.413Zm2.208,3.592a2.8,2.8,0,0,1,3.932-.472,2.8,2.8,0,0,1,.472,3.932,2.8,2.8,0,0,1-3.932.472,2.8,2.8,0,0,1-.51-.522A2.8,2.8,0,0,1-211.848,1544.005Z" fill="#eb6e7a" fill-rule="evenodd"/>
    <path id="Trazado_105623" data-name="Trazado 105623" d="M-209.645,1553.283a7.552,7.552,0,0,1-7.532-7.571,7.552,7.552,0,0,1,7.571-7.533,7.553,7.553,0,0,1,7.533,7.572,7.552,7.552,0,0,1-2.735,5.8A7.546,7.546,0,0,1-209.645,1553.283Zm0-13.778a6.206,6.206,0,0,0-6.188,6.226,6.206,6.206,0,0,0,6.225,6.188,6.205,6.205,0,0,0,6.188-6.225,6.207,6.207,0,0,0-2.143-4.674A6.2,6.2,0,0,0-209.645,1539.505Zm-4.407.908,4.409,8.794h-.039a3.463,3.463,0,0,1-2.739-1.385,3.473,3.473,0,0,1,.69-4.864,3.48,3.48,0,0,1,2.126-.7,3.461,3.461,0,0,1,2.738,1.385,3.5,3.5,0,0,1-.047,4.237A3.461,3.461,0,0,1-209.643,1549.207Zm0-5.6a2.124,2.124,0,0,0-2.135,2.111,2.122,2.122,0,0,0,2.111,2.135h.024a2.123,2.123,0,0,0,2.135-2.111,2.124,2.124,0,0,0-2.112-2.135Zm-2.2.394" fill="#3a312a"/>
    <path id="Trazado_105624" data-name="Trazado 105624" d="M-227.349,1534.378a1.226,1.226,0,0,1,1.225,1.227,1.226,1.226,0,0,1-1.227,1.225,1.225,1.225,0,0,1-1.225-1.227h0a1.225,1.225,0,0,1,1.225-1.225Z" fill="#3b322a" fill-rule="evenodd"/>
    <path id="Trazado_105625" data-name="Trazado 105625" d="M-249.763,1557.126s1.085,4.029,4.21,4.216c0,0-4.171,1.44-4.242,4.52,0,0-.821-4.319-4.116-4.474,0,0,3.837-.581,4.148-4.262Z" fill="#fcb268"/>
    <path id="Trazado_105626" data-name="Trazado 105626" d="M-249.8,1566.537a.675.675,0,0,1-.663-.548c-.007-.038-.767-3.8-3.484-3.928a.675.675,0,0,1-.645-.7.675.675,0,0,1,.575-.638c.133-.021,3.315-.559,3.576-3.65a.675.675,0,0,1,.726-.618.675.675,0,0,1,.6.5c.011.035,1,3.564,3.6,3.72a.675.675,0,0,1,.631.716.675.675,0,0,1-.451.595c-.037.013-3.729,1.329-3.787,3.9a.675.675,0,0,1-.62.657Zm-2.034-5.186a5.783,5.783,0,0,1,2,2.376,7.038,7.038,0,0,1,2.416-2.238,6.043,6.043,0,0,1-2.226-2.352,5.387,5.387,0,0,1-2.192,2.214Z" fill="#3a312a"/>
    <path id="Trazado_105627" data-name="Trazado 105627" d="M-240.021,1549.484s1.534,5.7,5.953,5.961c0,0-5.9,2.036-6,6.391,0,0-1.161-6.107-5.819-6.326,0,0,5.424-.822,5.864-6.026Z" fill="#fcb268"/>
    <path id="Trazado_105628" data-name="Trazado 105628" d="M-240.067,1562.511a.676.676,0,0,1-.662-.548c-.011-.055-1.123-5.587-5.188-5.779a.675.675,0,0,1-.645-.7.675.675,0,0,1,.575-.638c.2-.031,4.9-.817,5.292-5.414a.674.674,0,0,1,.73-.615.673.673,0,0,1,.594.495c.014.052,1.468,5.232,5.343,5.464a.675.675,0,0,1,.631.716.675.675,0,0,1-.451.595c-.055.02-5.456,1.941-5.543,5.769a.673.673,0,0,1-.618.657h-.058Zm-3.485-7.077a7.869,7.869,0,0,1,3.416,3.995,9.594,9.594,0,0,1,4.029-3.794,8.236,8.236,0,0,1-3.752-3.926,7.248,7.248,0,0,1-3.693,3.725Z" fill="#3a312a"/>
    <path id="Trazado_105629" data-name="Trazado 105629" d="M-249.791,1557.126s1.085,4.029,4.211,4.216c0,0-4.173,1.44-4.243,4.52,0,0-.821-4.319-4.115-4.474,0,0,3.836-.581,4.147-4.262Z" fill="#fcb268"/>
    <path id="Trazado_105630" data-name="Trazado 105630" d="M-249.823,1566.537a.675.675,0,0,1-.663-.548c-.007-.038-.767-3.8-3.484-3.928a.675.675,0,0,1-.645-.7.675.675,0,0,1,.575-.638c.133-.021,3.315-.559,3.575-3.65a.674.674,0,0,1,.729-.615.674.674,0,0,1,.595.495c.01.035,1,3.564,3.6,3.72a.675.675,0,0,1,.631.716.675.675,0,0,1-.451.595c-.037.013-3.729,1.329-3.788,3.9a.672.672,0,0,1-.619.657Zm-2.035-5.186a5.776,5.776,0,0,1,2,2.376,7.046,7.046,0,0,1,2.415-2.238,6.04,6.04,0,0,1-2.225-2.352,5.389,5.389,0,0,1-2.193,2.214Z" fill="#3a312a"/>
    <path id="Trazado_105631" data-name="Trazado 105631" d="M-249.791,1545.13s1.085,4.029,4.211,4.217c0,0-4.173,1.44-4.243,4.52,0,0-.821-4.321-4.115-4.475C-253.938,1549.392-250.1,1548.81-249.791,1545.13Z" fill="#fcb268"/>
    <path id="Trazado_105632" data-name="Trazado 105632" d="M-249.823,1554.542a.675.675,0,0,1-.663-.55c-.007-.036-.767-3.8-3.484-3.927a.675.675,0,0,1-.64-.708.677.677,0,0,1,.57-.633c.133-.021,3.315-.559,3.575-3.651a.675.675,0,0,1,.73-.615.676.676,0,0,1,.594.5c.01.035,1,3.563,3.6,3.718a.676.676,0,0,1,.634.714.674.674,0,0,1-.454.6c-.037.012-3.729,1.329-3.788,3.9a.674.674,0,0,1-.619.658Zm-2.035-5.188a5.779,5.779,0,0,1,2,2.377,7.069,7.069,0,0,1,2.415-2.239,6.037,6.037,0,0,1-2.226-2.35,5.382,5.382,0,0,1-2.192,2.212Z" fill="#3a312a"/>
    <path id="Trazado_105633" data-name="Trazado 105633" d="M-209.934,1571h-7.2a3.283,3.283,0,0,1,3.276,3.277v1.215a8.483,8.483,0,0,1,1.752,11.866,8.5,8.5,0,0,1-1.752,1.751v8.941a6.177,6.177,0,0,1,0,7.119v9.788a3.283,3.283,0,0,1-3.276,3.275h7.2a3.283,3.283,0,0,0,3.276-3.275v-40.68a3.283,3.283,0,0,0-3.276-3.277Z" fill="#695b51"/>
  </g>
</svg>
