<svg xmlns="http://www.w3.org/2000/svg" width="101.899" height="101.608" viewBox="0 0 101.899 101.608">
  <g id="Grupo_55601" data-name="Grupo 55601" transform="translate(303.801 -1892.238)">
    <path id="Trazado_105701" data-name="Trazado 105701" d="M-288.877,1897.266s1.534,5.7,5.951,5.96c0,0-5.9,2.037-6,6.392,0,0-1.16-6.108-5.816-6.327,0,0,5.422-.822,5.86-6.025Z" fill="#fcb268"/>
    <path id="Trazado_105702" data-name="Trazado 105702" d="M-288.92,1910.293a.674.674,0,0,1-.662-.549c-.012-.055-1.123-5.587-5.186-5.778a.675.675,0,0,1-.644-.7.675.675,0,0,1,.575-.638c.2-.03,4.9-.818,5.288-5.415a.676.676,0,0,1,.734-.613.677.677,0,0,1,.591.494c.014.052,1.466,5.232,5.339,5.464a.674.674,0,0,1,.631.716.675.675,0,0,1-.451.595c-.054.019-5.452,1.939-5.54,5.769a.674.674,0,0,1-.619.656h-.056Zm-3.485-7.08a7.862,7.862,0,0,1,3.415,3.995,9.6,9.6,0,0,1,4.027-3.792,8.242,8.242,0,0,1-3.75-3.924,7.239,7.239,0,0,1-3.692,3.721Z" fill="#3a312a"/>
    <path id="Trazado_105703" data-name="Trazado 105703" d="M-298.64,1904.907s1.085,4.03,4.208,4.216c0,0-4.169,1.44-4.24,4.52,0,0-.82-4.32-4.113-4.474,0,0,3.836-.581,4.145-4.262Z" fill="#fcb268"/>
    <path id="Trazado_105704" data-name="Trazado 105704" d="M-298.672,1914.319a.675.675,0,0,1-.663-.549c-.007-.037-.766-3.8-3.482-3.926a.676.676,0,0,1-.641-.709.678.678,0,0,1,.571-.634c.134-.021,3.314-.559,3.574-3.651a.676.676,0,0,1,.728-.618.675.675,0,0,1,.6.5c.009.035,1,3.564,3.6,3.718a.676.676,0,0,1,.633.716.677.677,0,0,1-.452.6c-.037.011-3.727,1.328-3.787,3.9a.673.673,0,0,1-.619.658h-.059Zm-2.034-5.188a5.765,5.765,0,0,1,2,2.377,7.045,7.045,0,0,1,2.415-2.238,6.012,6.012,0,0,1-2.223-2.351,5.384,5.384,0,0,1-2.193,2.212Z" fill="#3a312a"/>
    <path id="Trazado_105705" data-name="Trazado 105705" d="M-298.64,1892.911s1.085,4.029,4.208,4.217c0,0-4.169,1.44-4.24,4.52,0,0-.82-4.32-4.113-4.475C-302.785,1897.173-298.949,1896.592-298.64,1892.911Z" fill="#fcb268"/>
    <path id="Trazado_105706" data-name="Trazado 105706" d="M-298.672,1902.323a.676.676,0,0,1-.663-.549c-.007-.037-.766-3.8-3.482-3.927a.675.675,0,0,1-.64-.708.675.675,0,0,1,.57-.633c.134-.022,3.314-.559,3.574-3.652a.675.675,0,0,1,.733-.613.674.674,0,0,1,.592.493c.009.037,1,3.565,3.6,3.72a.676.676,0,0,1,.633.716.677.677,0,0,1-.452.6c-.037.012-3.727,1.329-3.787,3.9a.674.674,0,0,1-.619.658Zm-2.034-5.187a5.76,5.76,0,0,1,2,2.375,7.051,7.051,0,0,1,2.415-2.237,6.026,6.026,0,0,1-2.223-2.351,5.386,5.386,0,0,1-2.193,2.213Z" fill="#3a312a"/>
    <path id="Trazado_105707" data-name="Trazado 105707" d="M-219.629,1981.553h-21.393v11.618h38.445v-11.618Z" fill="#ffad54"/>
    <path id="Trazado_105708" data-name="Trazado 105708" d="M-202.577,1993.846h-38.445a.674.674,0,0,1-.675-.673v-11.62a.675.675,0,0,1,.675-.675h21.393a.675.675,0,0,1,.675.675.675.675,0,0,1-.675.675h-20.718V1992.5h37.1v-10.268h-9.37a.675.675,0,0,1-.675-.675.675.675,0,0,1,.675-.675h10.04a.675.675,0,0,1,.675.675v11.618a.674.674,0,0,1-.673.675Z" fill="#3a312a"/>
    <path id="Trazado_105709" data-name="Trazado 105709" d="M-208.858,1993.844a.674.674,0,0,1-.675-.673v-4.785a.675.675,0,0,1,.675-.675.675.675,0,0,1,.675.675v4.783a.675.675,0,0,1-.675.675Z" fill="#3a312a"/>
    <path id="Trazado_105710" data-name="Trazado 105710" d="M-214.73,1993.844a.674.674,0,0,1-.675-.673v-7.377a.675.675,0,0,1,.675-.675.675.675,0,0,1,.675.675v7.375a.674.674,0,0,1-.673.675Z" fill="#3a312a"/>
    <path id="Trazado_105711" data-name="Trazado 105711" d="M-202.577,1983.944a.675.675,0,0,1-.675-.675v-7.375a.675.675,0,0,1,.675-.675.675.675,0,0,1,.675.675v7.375a.673.673,0,0,1-.671.675Z" fill="#3a312a"/>
    <path id="Trazado_105712" data-name="Trazado 105712" d="M-220.6,1993.844a.675.675,0,0,1-.675-.675v-4.783a.675.675,0,0,1,.675-.675.675.675,0,0,1,.675.675v4.783a.675.675,0,0,1-.675.675Z" fill="#3a312a"/>
    <path id="Trazado_105713" data-name="Trazado 105713" d="M-226.477,1993.844a.674.674,0,0,1-.675-.673v-7.377a.675.675,0,0,1,.675-.675.675.675,0,0,1,.675.675v7.375a.674.674,0,0,1-.673.675Z" fill="#3a312a"/>
    <path id="Trazado_105714" data-name="Trazado 105714" d="M-303.122,1975.653v8.239a9.279,9.279,0,0,0,9.279,9.279h55.69a9.28,9.28,0,0,0,9.281-9.279h0v-28.3a36.675,36.675,0,0,0-36.675-36.675h-.9a36.675,36.675,0,0,0-36.675,36.673v20.063Z" fill="#87796f"/>
    <path id="Trazado_105715" data-name="Trazado 105715" d="M-238.153,1993.846h-55.69a9.965,9.965,0,0,1-9.954-9.954v-8.239a.675.675,0,0,1,.675-.675.675.675,0,0,1,.675.675v8.239a8.612,8.612,0,0,0,8.6,8.6h55.69a8.614,8.614,0,0,0,8.606-8.6v-28.3a36.041,36.041,0,0,0-36-36h-.9a36.041,36.041,0,0,0-36,36v12.8a.675.675,0,0,1-.675.675.675.675,0,0,1-.675-.675h0v-12.8a37.392,37.392,0,0,1,37.35-37.35h.9a37.392,37.392,0,0,1,37.35,37.35v28.3a9.967,9.967,0,0,1-9.956,9.954Z" fill="#3a312a"/>
    <path id="Trazado_105716" data-name="Trazado 105716" d="M-260.692,1933.6a23.093,23.093,0,0,1,17.163,27.785,23.094,23.094,0,0,1-27.785,17.163,23.093,23.093,0,0,1-17.163-27.785h0a23.094,23.094,0,0,1,27.786-17.162Z" fill="#ed6e7a"/>
    <path id="Trazado_105717" data-name="Trazado 105717" d="M-266,1979.818a23.772,23.772,0,0,1-23.773-23.771A23.772,23.772,0,0,1-266,1932.274a23.773,23.773,0,0,1,23.773,23.771h0A23.8,23.8,0,0,1-266,1979.818Zm0-46.2a22.423,22.423,0,0,0-22.426,22.42A22.423,22.423,0,0,0-266,1978.464a22.423,22.423,0,0,0,22.426-22.419A22.448,22.448,0,0,0-266,1933.623Z" fill="#3a312a"/>
    <path id="Trazado_105718" data-name="Trazado 105718" d="M-252.672,1956.046A13.325,13.325,0,0,1-266,1969.373a13.326,13.326,0,0,1-13.327-13.325A13.326,13.326,0,0,1-266,1942.721h0a13.325,13.325,0,0,1,13.325,13.325Z" fill="#ffb266"/>
    <path id="Trazado_105719" data-name="Trazado 105719" d="M-266,1970.046a14,14,0,0,1-14-14,14,14,0,0,1,14-14,14,14,0,0,1,14,14A14.017,14.017,0,0,1-266,1970.046Zm0-26.65a12.651,12.651,0,0,0-12.65,12.65A12.651,12.651,0,0,0-266,1968.7a12.651,12.651,0,0,0,12.65-12.65h0A12.665,12.665,0,0,0-266,1943.4Z" fill="#3a312a"/>
    <path id="Trazado_105720" data-name="Trazado 105720" d="M-265.547,1919.6h-.9c-1.063,0-2.111.045-3.15.14a36.049,36.049,0,0,1,32.85,35.86v28.3a8.616,8.616,0,0,1-8.606,8.6h7.2a8.616,8.616,0,0,0,8.606-8.6v-28.3a36.041,36.041,0,0,0-36-36Z" fill="#695b51"/>
  </g>
</svg>
