<svg xmlns="http://www.w3.org/2000/svg" width="101.639" height="101.948" viewBox="0 0 101.639 101.948">
  <g id="Grupo_55602" data-name="Grupo 55602" transform="translate(303.801 -1724.802)">
    <path id="Trazado_105721" data-name="Trazado 105721" d="M-281.821,1809.381s1.533,5.7,5.95,5.961c0,0-5.9,2.036-5.994,6.391,0,0-1.162-6.107-5.816-6.326C-287.681,1815.407-282.259,1814.585-281.821,1809.381Z" fill="#ffb871"/>
    <path id="Trazado_105722" data-name="Trazado 105722" d="M-281.868,1822.408a.675.675,0,0,1-.663-.548c-.01-.056-1.122-5.589-5.184-5.779a.675.675,0,0,1-.645-.7.675.675,0,0,1,.575-.638c.2-.031,4.9-.818,5.289-5.414a.675.675,0,0,1,.726-.618.676.676,0,0,1,.6.5c.016.052,1.468,5.231,5.34,5.463a.675.675,0,0,1,.634.714.675.675,0,0,1-.454.6c-.054.018-5.453,1.939-5.54,5.768a.676.676,0,0,1-.619.657h-.056Zm-3.483-7.079a7.865,7.865,0,0,1,3.413,3.994,9.6,9.6,0,0,1,4.028-3.792,8.237,8.237,0,0,1-3.751-3.925A7.235,7.235,0,0,1-285.351,1815.329Z" fill="#3a312a"/>
    <path id="Trazado_105723" data-name="Trazado 105723" d="M-291.586,1817.023s1.085,4.029,4.209,4.216c0,0-4.171,1.44-4.24,4.52,0,0-.821-4.319-4.114-4.474,0,0,3.835-.583,4.145-4.262Z" fill="#ffb871"/>
    <path id="Trazado_105724" data-name="Trazado 105724" d="M-291.618,1826.434a.674.674,0,0,1-.662-.55c-.007-.036-.766-3.8-3.483-3.925a.674.674,0,0,1-.644-.7.675.675,0,0,1,.575-.638c.132-.021,3.313-.56,3.573-3.652a.676.676,0,0,1,.73-.615.676.676,0,0,1,.594.5c.01.035,1,3.563,3.6,3.719a.676.676,0,0,1,.633.715.675.675,0,0,1-.454.6c-.036.013-3.726,1.329-3.785,3.9a.675.675,0,0,1-.62.658h-.057Zm-2.033-5.188a5.787,5.787,0,0,1,2,2.375,7.058,7.058,0,0,1,2.414-2.237,6.017,6.017,0,0,1-2.223-2.35,5.378,5.378,0,0,1-2.193,2.212Z" fill="#3a312a"/>
    <path id="Trazado_105725" data-name="Trazado 105725" d="M-291.586,1805.026s1.085,4.029,4.209,4.217c0,0-4.171,1.44-4.24,4.521,0,0-.821-4.321-4.114-4.476C-295.731,1809.288-291.9,1808.707-291.586,1805.026Z" fill="#ffb871"/>
    <path id="Trazado_105726" data-name="Trazado 105726" d="M-291.618,1814.438a.674.674,0,0,1-.662-.549c-.007-.037-.766-3.8-3.483-3.927a.674.674,0,0,1-.644-.7.675.675,0,0,1,.575-.638c.134-.021,3.314-.559,3.574-3.651a.675.675,0,0,1,.733-.613.675.675,0,0,1,.592.493c.009.035,1,3.565,3.6,3.72a.675.675,0,0,1,.634.714.674.674,0,0,1-.454.6c-.037.012-3.727,1.329-3.786,3.9a.675.675,0,0,1-.62.657.268.268,0,0,1-.056,0Zm-2.033-5.187a5.773,5.773,0,0,1,2,2.375,7.051,7.051,0,0,1,2.415-2.237,6.031,6.031,0,0,1-2.225-2.351,5.37,5.37,0,0,1-2.191,2.213Z" fill="#3a312a"/>
    <rect id="Rect치ngulo_5335" data-name="Rect치ngulo 5335" width="67.008" height="65.825" transform="translate(-284.706 1740.776)" fill="#89c4db"/>
    <path id="Trazado_105727" data-name="Trazado 105727" d="M-217.7,1807.276h-67.008a.675.675,0,0,1-.675-.675v-65.824a.675.675,0,0,1,.675-.675H-217.7a.675.675,0,0,1,.675.675V1806.6a.675.675,0,0,1-.675.675Zm-66.333-1.35h65.658v-64.474h-65.658Z" fill="#3a312a"/>
    <path id="Trazado_105728" data-name="Trazado 105728" d="M-252.652,1725.476h-50.1v3.15h99.908v-3.15Z" fill="#87796f"/>
    <path id="Trazado_105729" data-name="Trazado 105729" d="M-202.84,1729.3h-99.908a.675.675,0,0,1-.675-.675v-3.15a.675.675,0,0,1,.675-.675h50.1a.675.675,0,0,1,.675.675.675.675,0,0,1-.675.675h-49.42v1.8h98.558v-1.8h-41.927a.675.675,0,0,1-.675-.675.675.675,0,0,1,.675-.675h42.6a.675.675,0,0,1,.675.675v3.15a.675.675,0,0,1-.675.675Z" fill="#3a312a"/>
    <path id="Trazado_105730" data-name="Trazado 105730" d="M-303.122,1771.9v54.15h4.954V1725.476h-4.958Z" fill="#87796f"/>
    <path id="Trazado_105731" data-name="Trazado 105731" d="M-298.168,1826.726h-4.958a.675.675,0,0,1-.675-.675V1771.9a.675.675,0,0,1,.675-.675.675.675,0,0,1,.675.675v53.475h3.608v-99.225h-3.608v37.976a.675.675,0,0,1-.675.675.675.675,0,0,1-.675-.675v-38.651a.675.675,0,0,1,.675-.675h4.958a.675.675,0,0,1,.675.675v100.574A.675.675,0,0,1-298.168,1826.726Z" fill="#3a312a"/>
    <path id="Trazado_105732" data-name="Trazado 105732" d="M-207.8,1734.226v91.825l-6.625-4.026V1730.2Z" fill="#ffad54"/>
    <path id="Trazado_105733" data-name="Trazado 105733" d="M-207.8,1826.726a.679.679,0,0,1-.351-.1l-6.624-4.026a.674.674,0,0,1-.325-.576V1730.2a.676.676,0,0,1,.678-.674.686.686,0,0,1,.347.1l6.625,4.024a.676.676,0,0,1,.325.578v91.825a.674.674,0,0,1-.345.588.67.67,0,0,1-.33.087Zm-5.95-5.079,5.275,3.2V1734.6l-5.275-3.205Z" fill="#3a312a"/>
    <path id="Trazado_105734" data-name="Trazado 105734" d="M-214.424,1730.2v91.824l-6.625,4.026v-91.826Z" fill="#ffad54"/>
    <path id="Trazado_105735" data-name="Trazado 105735" d="M-221.049,1826.726a.657.657,0,0,1-.33-.086.678.678,0,0,1-.345-.589v-91.825a.673.673,0,0,1,.325-.576l6.625-4.026a.676.676,0,0,1,.927.227.681.681,0,0,1,.1.351v91.825a.672.672,0,0,1-.325.576l-6.624,4.026a.681.681,0,0,1-.351.1Zm.675-92.12v90.246l5.275-3.205V1731.4Z" fill="#3a312a"/>
    <path id="Trazado_105736" data-name="Trazado 105736" d="M-221.049,1734.226v91.825l-6.624-4.026V1730.2Z" fill="#ffad54"/>
    <path id="Trazado_105737" data-name="Trazado 105737" d="M-221.049,1826.726a.686.686,0,0,1-.35-.1l-6.625-4.026a.673.673,0,0,1-.324-.576V1730.2a.675.675,0,0,1,.675-.675.673.673,0,0,1,.35.1l6.625,4.024a.679.679,0,0,1,.324.578v91.825a.673.673,0,0,1-.344.588.673.673,0,0,1-.331.087Zm-5.949-5.079,5.274,3.205V1734.6l-5.274-3.2Z" fill="#3a312a"/>
    <path id="Trazado_105738" data-name="Trazado 105738" d="M-227.668,1730.2v91.824l-6.625,4.026v-91.826Z" fill="#ffad54"/>
    <path id="Trazado_105739" data-name="Trazado 105739" d="M-234.3,1826.726a.657.657,0,0,1-.33-.086.675.675,0,0,1-.345-.589v-91.825a.673.673,0,0,1,.325-.576l6.624-4.026a.676.676,0,0,1,.928.229.671.671,0,0,1,.1.349v91.825a.672.672,0,0,1-.325.576l-6.624,4.026a.681.681,0,0,1-.351.1Zm.675-92.12v90.246l5.275-3.205V1731.4Z" fill="#3a312a"/>
    <path id="Trazado_105740" data-name="Trazado 105740" d="M-227.668,1730.876a.675.675,0,0,1-.675-.675v-4.724a.675.675,0,0,1,.675-.675.675.675,0,0,1,.675.675v4.725a.675.675,0,0,1-.675.675Z" fill="#3a312a"/>
    <path id="Trazado_105741" data-name="Trazado 105741" d="M-214.424,1730.876a.675.675,0,0,1-.675-.675v-4.724a.675.675,0,0,1,.675-.675.675.675,0,0,1,.675.675v4.725a.675.675,0,0,1-.675.675Z" fill="#3a312a"/>
    <path id="Trazado_105742" data-name="Trazado 105742" d="M-234.274,1734.226v91.825l-6.625-4.026V1730.2Z" fill="#ffad54"/>
    <path id="Trazado_105743" data-name="Trazado 105743" d="M-234.274,1826.726a.69.69,0,0,1-.351-.1l-6.625-4.026a.673.673,0,0,1-.324-.576V1730.2a.677.677,0,0,1,.678-.674.686.686,0,0,1,.347.1l6.625,4.024a.681.681,0,0,1,.325.578v91.825a.675.675,0,0,1-.344.588.674.674,0,0,1-.331.087Zm-5.95-5.079,5.276,3.205V1734.6l-5.276-3.205Z" fill="#3a312a"/>
    <path id="Trazado_105744" data-name="Trazado 105744" d="M-240.9,1730.2v91.824l-6.625,4.026v-91.826Z" fill="#ffad54"/>
    <path id="Trazado_105745" data-name="Trazado 105745" d="M-247.524,1826.726a.657.657,0,0,1-.33-.086.678.678,0,0,1-.345-.589v-91.825a.673.673,0,0,1,.325-.576l6.624-4.026a.675.675,0,0,1,.928.226.682.682,0,0,1,.1.352v91.825a.674.674,0,0,1-.323.576l-6.626,4.026a.681.681,0,0,1-.351.1Zm.675-92.12v90.246l5.275-3.205V1731.4Z" fill="#3a312a"/>
    <path id="Trazado_105746" data-name="Trazado 105746" d="M-240.9,1730.876a.675.675,0,0,1-.675-.675v-4.724a.675.675,0,0,1,.675-.675.675.675,0,0,1,.675.675v4.725a.675.675,0,0,1-.675.675Z" fill="#3a312a"/>
    <path id="Trazado_105747" data-name="Trazado 105747" d="M-208.474,1734.6l-5.275-3.205v90.246l5.275,3.205Z" fill="#ffad54"/>
    <path id="Trazado_105748" data-name="Trazado 105748" d="M-271.794,1822.644a3.433,3.433,0,0,0,3.432,3.433,3.433,3.433,0,0,0,3.433-3.433h0v-29.727h-6.865Z" fill="#fce8cb"/>
    <path id="Trazado_105749" data-name="Trazado 105749" d="M-268.362,1826.75a4.111,4.111,0,0,1-4.107-4.106v-29.727a.675.675,0,0,1,.675-.675h6.865a.677.677,0,0,1,.675.675v29.727a4.112,4.112,0,0,1-4.108,4.106Zm-2.757-33.158v29.052a2.758,2.758,0,0,0,2.7,2.81,2.759,2.759,0,0,0,2.81-2.706c0-.034,0-.069,0-.1v-29.052Z" fill="#3a312a"/>
    <path id="Trazado_105750" data-name="Trazado 105750" d="M-258.068,1792.917v29.727a3.432,3.432,0,0,1-3.432,3.432,3.432,3.432,0,0,1-3.432-3.432v-29.727Z" fill="#fce8cb"/>
    <path id="Trazado_105751" data-name="Trazado 105751" d="M-261.5,1826.75a4.111,4.111,0,0,1-4.107-4.106v-29.727a.675.675,0,0,1,.675-.675h6.861a.675.675,0,0,1,.675.675v29.727a4.112,4.112,0,0,1-4.107,4.106Zm-2.757-33.158v29.052a2.757,2.757,0,0,0,2.757,2.757,2.757,2.757,0,0,0,2.757-2.757v-29.052Z" fill="#3a312a"/>
    <path id="Trazado_105752" data-name="Trazado 105752" d="M-240.161,1760.8l-16.04,9.173h-.005v18.337h-17.449v-18.366l-16.024-9.144a2.759,2.759,0,0,1-1.093-3.745,2.759,2.759,0,0,1,3.746-1.093l.088.05,14.977,8.563h3.443v-2.85a5.049,5.049,0,0,0,7.139.133l.061-.06v2.778h3.443l14.981-8.563a2.758,2.758,0,0,1,3.786.932,2.757,2.757,0,0,1-.932,3.786C-240.08,1760.757-240.12,1760.78-240.161,1760.8Z" fill="#f8e4c8"/>
    <path id="Trazado_105753" data-name="Trazado 105753" d="M-256.206,1788.987h-17.449a.675.675,0,0,1-.675-.675v-17.974l-15.684-8.954a3.433,3.433,0,0,1-1.275-4.685,3.434,3.434,0,0,1,4.685-1.275l14.821,8.474h2.589v-2.175a.674.674,0,0,1,.673-.676.67.67,0,0,1,.427.15,4.4,4.4,0,0,0,6.219.2c.048-.044.094-.09.14-.137a.675.675,0,0,1,.948.116.674.674,0,0,1,.143.416v2.1h2.588l14.827-8.474a3.432,3.432,0,0,1,4.694,1.234,3.432,3.432,0,0,1-1.233,4.694l-.055.031-15.7,8.982v17.949a.676.676,0,0,1-.676.675Zm-16.774-1.35h16.1v-17.663a.675.675,0,0,1,.211-.49.762.762,0,0,1,.132-.1l16.042-9.172h0a2.082,2.082,0,0,0,.775-2.841,2.084,2.084,0,0,0-2.841-.775h0l-14.982,8.564a.679.679,0,0,1-.335.088h-3.443a.675.675,0,0,1-.675-.675v-1.5a5.236,5.236,0,0,1-5.847-.048v1.551a.675.675,0,0,1-.675.675h-3.443a.68.68,0,0,1-.335-.089l-14.977-8.562a2.085,2.085,0,0,0-2.831.82,2.083,2.083,0,0,0,.761,2.8l16.023,9.147a.674.674,0,0,1,.341.586Z" fill="#3a312a"/>
    <path id="Trazado_105754" data-name="Trazado 105754" d="M-257.879,1764.574h-2.82a4.7,4.7,0,0,1-6.233,2.309,4.7,4.7,0,0,1-2.309-2.309h-2.721l-1.694,5.373v18.365h17.45v-18.337h.005Z" fill="#eb6e7a"/>
    <path id="Trazado_105755" data-name="Trazado 105755" d="M-256.206,1788.987h-17.45a.675.675,0,0,1-.675-.675v-18.366a.648.648,0,0,1,.031-.2l1.694-5.374a.679.679,0,0,1,.644-.472h2.721a.674.674,0,0,1,.621.413,4.021,4.021,0,0,0,5.337,1.963,4.017,4.017,0,0,0,1.963-1.963.676.676,0,0,1,.622-.411h2.821a.677.677,0,0,1,.644.475l1.677,5.4a.678.678,0,0,1,.027.276v18.263a.676.676,0,0,1-.676.677Zm-16.775-1.35h16.1v-17.576l-1.495-4.812h-1.9a5.4,5.4,0,0,1-7.347,2.054,5.4,5.4,0,0,1-2.053-2.054h-1.8l-1.514,4.8Z" fill="#3a312a"/>
    <rect id="Rect치ngulo_5336" data-name="Rect치ngulo 5336" width="17.448" height="30.018" transform="translate(-273.654 1788.312)" fill="#87796f"/>
    <path id="Trazado_105756" data-name="Trazado 105756" d="M-256.206,1819h-17.448a.675.675,0,0,1-.675-.675v-30.015a.675.675,0,0,1,.675-.675h17.448a.675.675,0,0,1,.675.673v30.019a.674.674,0,0,1-.673.675h0Zm-16.773-1.35h16.1v-28.665h-16.1Z" fill="#3a312a"/>
    <path id="Trazado_105757" data-name="Trazado 105757" d="M-264.929,1819a.675.675,0,0,1-.675-.675v-30.013a.675.675,0,0,1,.675-.675.675.675,0,0,1,.675.675v30.015a.675.675,0,0,1-.675.675Z" fill="#3a312a"/>
    <path id="Trazado_105758" data-name="Trazado 105758" d="M-272.428,1750.495a2.231,2.231,0,0,1-2.231,2.233,2.232,2.232,0,0,1-2.233-2.231,2.232,2.232,0,0,1,2.231-2.233A2.233,2.233,0,0,1-272.428,1750.495Z" fill="#f8e4c8" fill-rule="evenodd"/>
    <path id="Trazado_105759" data-name="Trazado 105759" d="M-274.661,1753.4a2.908,2.908,0,0,1-2.908-2.908,2.908,2.908,0,0,1,2.908-2.908,2.908,2.908,0,0,1,2.908,2.908h0A2.911,2.911,0,0,1-274.661,1753.4Zm0-4.465a1.559,1.559,0,0,0-1.558,1.558,1.558,1.558,0,0,0,1.558,1.558,1.558,1.558,0,0,0,1.558-1.558h0A1.559,1.559,0,0,0-274.661,1748.937Z" fill="#3a312a"/>
    <path id="Trazado_105760" data-name="Trazado 105760" d="M-252.946,1750.495a2.231,2.231,0,0,1-2.231,2.233,2.232,2.232,0,0,1-2.233-2.231,2.232,2.232,0,0,1,2.231-2.233h0A2.233,2.233,0,0,1-252.946,1750.495Z" fill="#f8e4c8" fill-rule="evenodd"/>
    <path id="Trazado_105761" data-name="Trazado 105761" d="M-255.177,1753.4a2.908,2.908,0,0,1-2.91-2.906,2.908,2.908,0,0,1,2.906-2.91,2.908,2.908,0,0,1,2.91,2.906v0A2.911,2.911,0,0,1-255.177,1753.4Zm0-4.465a1.559,1.559,0,0,0-1.56,1.556,1.558,1.558,0,0,0,1.556,1.56,1.558,1.558,0,0,0,1.56-1.556v0A1.56,1.56,0,0,0-255.177,1748.937Z" fill="#3a312a"/>
    <path id="Trazado_105762" data-name="Trazado 105762" d="M-255.024,1749.413c0,5.464-5.264,13.852-9.9,13.852-4.421,0-9.9-8.388-9.9-13.852a9.9,9.9,0,0,1,9.581-10.209,9.9,9.9,0,0,1,10.209,9.58q.011.315,0,.629Z" fill="#f8e4c8"/>
    <path id="Trazado_105763" data-name="Trazado 105763" d="M-264.919,1763.94c-4.9,0-10.57-8.791-10.57-14.527a10.57,10.57,0,0,1,10.557-10.582,10.569,10.569,0,0,1,10.583,10.557v.025c0,5.868-5.568,14.527-10.57,14.527Zm0-23.749a9.231,9.231,0,0,0-9.22,9.222c0,5.418,5.428,13.177,9.22,13.177,4.186,0,9.22-8.094,9.22-13.177A9.231,9.231,0,0,0-264.919,1740.191Z" fill="#3a312a"/>
    <path id="Trazado_105764" data-name="Trazado 105764" d="M-264.92,1737.333a10.024,10.024,0,0,0-10.242,9.792,4.145,4.145,0,0,0,.3,1.532c.091.252,1.558-.551,1.682-.639a5.333,5.333,0,0,0,1.516-1.7,5.891,5.891,0,0,0,.395-.83c.338-.891,1.255-3.366,2.187-3.172a21.48,21.48,0,0,0,8.333,0c.931-.194,1.848,2.281,2.186,3.172a5.558,5.558,0,0,0,.4.83,4.47,4.47,0,0,0,2.989,2.317c0-.063.082-.084.141-.1.424-.155.364-1.07.364-1.41a10.024,10.024,0,0,0-10.242-9.792Z" fill="#87796f"/>
    <path id="Trazado_105765" data-name="Trazado 105765" d="M-274.788,1749.374a.748.748,0,0,1-.235-.032.745.745,0,0,1-.479-.456,4.826,4.826,0,0,1-.336-1.761,10.927,10.927,0,0,1,11.384-10.45,10.928,10.928,0,0,1,10.45,10.45v.1c.007.511.024,1.553-.718,1.9l-.035.032a.679.679,0,0,1-.527.145,5.107,5.107,0,0,1-3.475-2.646,6.331,6.331,0,0,1-.442-.93l-.021-.057c-.836-2.2-1.292-2.609-1.441-2.683a22.2,22.2,0,0,1-8.52,0c-.149.074-.6.478-1.44,2.684l-.021.056a6.469,6.469,0,0,1-.441.929,6.05,6.05,0,0,1-1.713,1.91,5.124,5.124,0,0,1-1.991.8Zm14.151-7.74c1.16,0,1.972,1.7,2.679,3.562l.021.056a4.981,4.981,0,0,0,.349.734,3.985,3.985,0,0,0,2.2,1.921,3.449,3.449,0,0,0,.033-.658v-.124a9.578,9.578,0,0,0-10.026-9.108,9.578,9.578,0,0,0-9.108,9.108,3.15,3.15,0,0,0,.088.762,8.253,8.253,0,0,0,.837-.429,4.652,4.652,0,0,0,1.311-1.473,5.34,5.34,0,0,0,.348-.733l.021-.055c.757-2,1.636-3.808,2.933-3.536a20.18,20.18,0,0,0,4.029.393,19.818,19.818,0,0,0,4.029-.393,1.209,1.209,0,0,1,.255-.027Z" fill="#3a312a"/>
    <path id="Trazado_105766" data-name="Trazado 105766" d="M-267.447,1749.3a.966.966,0,0,1-.966.966.965.965,0,0,1-.966-.966.966.966,0,0,1,.966-.966.967.967,0,0,1,.966.966Z" fill="#3a312a"/>
    <path id="Trazado_105767" data-name="Trazado 105767" d="M-260.46,1749.3a.966.966,0,0,1-.966.966.965.965,0,0,1-.966-.966.966.966,0,0,1,.966-.966h0a.965.965,0,0,1,.965.965Z" fill="#3a312a"/>
    <path id="Trazado_105768" data-name="Trazado 105768" d="M-268.679,1752.172c0,.687-.745,1.244-1.663,1.244s-1.664-.557-1.664-1.244.744-1.244,1.664-1.244S-268.679,1751.484-268.679,1752.172Z" fill="#f59689"/>
    <path id="Trazado_105769" data-name="Trazado 105769" d="M-257.831,1752.172c0,.687-.746,1.244-1.665,1.244s-1.662-.557-1.662-1.244.744-1.244,1.662-1.244S-257.831,1751.484-257.831,1752.172Z" fill="#f59689"/>
    <path id="Trazado_105770" data-name="Trazado 105770" d="M-264.919,1757.932a3.444,3.444,0,0,1-3.344-2.087.675.675,0,0,1,.32-.9.675.675,0,0,1,.9.32,2.134,2.134,0,0,0,2.124,1.317,2.227,2.227,0,0,0,2.1-1.263.675.675,0,0,1,.859-.416.674.674,0,0,1,.416.859l-.011.03a3.566,3.566,0,0,1-3.367,2.14Z" fill="#3a312a"/>
    <path id="Trazado_105771" data-name="Trazado 105771" d="M-257.917,1740.53c0,2.44-3.135,4.418-7,4.418s-7-1.978-7-4.418,5.421-7.954,7-7.954S-257.917,1738.089-257.917,1740.53Z" fill="#87796f"/>
    <path id="Trazado_105772" data-name="Trazado 105772" d="M-264.92,1745.623c-4.3,0-7.677-2.237-7.677-5.093,0-1.809,2.159-4.344,3.087-5.35.505-.548,3.1-3.279,4.59-3.279,2.024,0,7.678,5.912,7.678,8.629,0,2.856-3.373,5.093-7.678,5.093Zm0-12.372c-1.2,0-6.327,5.159-6.327,7.279,0,2.029,2.9,3.743,6.327,3.743s6.328-1.715,6.328-3.743C-258.592,1738.41-263.721,1733.251-264.92,1733.251Z" fill="#3a312a"/>
  </g>
</svg>
