<svg xmlns="http://www.w3.org/2000/svg" width="102.011" height="101.679" viewBox="0 0 102.011 101.679">
  <g id="Grupo_55603" data-name="Grupo 55603" transform="translate(303.797 -2087.749)">
    <path id="Trazado_105773" data-name="Trazado 105773" d="M-288.943,2092.781s1.533,5.7,5.949,5.96c0,0-5.894,2.037-5.994,6.392,0,0-1.161-6.108-5.816-6.327,0,0,5.422-.821,5.861-6.025Z" fill="#fcb268"/>
    <path id="Trazado_105774" data-name="Trazado 105774" d="M-288.989,2105.808a.676.676,0,0,1-.662-.548c-.01-.056-1.123-5.589-5.185-5.779a.676.676,0,0,1-.646-.705.677.677,0,0,1,.576-.639c.2-.03,4.9-.816,5.29-5.414a.674.674,0,0,1,.727-.617.674.674,0,0,1,.6.5c.015.053,1.467,5.232,5.339,5.464a.676.676,0,0,1,.635.713.675.675,0,0,1-.454.6c-.054.018-5.453,1.939-5.541,5.768a.674.674,0,0,1-.619.657h-.056Zm-3.484-7.079a7.868,7.868,0,0,1,3.415,3.994,9.606,9.606,0,0,1,4.026-3.792,8.254,8.254,0,0,1-3.75-3.926A7.239,7.239,0,0,1-292.473,2098.729Z" fill="#3a312a"/>
    <path id="Trazado_105775" data-name="Trazado 105775" d="M-298.711,2100.421s1.085,4.031,4.208,4.217c0,0-4.17,1.44-4.24,4.52,0,0-.821-4.32-4.114-4.475C-302.857,2104.683-299.022,2104.1-298.711,2100.421Z" fill="#fcb268"/>
    <path id="Trazado_105776" data-name="Trazado 105776" d="M-298.74,2109.834a.674.674,0,0,1-.662-.55c-.007-.036-.767-3.8-3.483-3.926a.674.674,0,0,1-.644-.7.675.675,0,0,1,.575-.638c.133-.021,3.314-.559,3.574-3.651a.676.676,0,0,1,.73-.615.676.676,0,0,1,.594.5c.01.035,1,3.563,3.6,3.719a.675.675,0,0,1,.633.715.675.675,0,0,1-.454.6c-.036.012-3.726,1.329-3.785,3.9a.675.675,0,0,1-.62.658h-.058Zm-2.033-5.188a5.773,5.773,0,0,1,2,2.375,7.072,7.072,0,0,1,2.415-2.237,6.021,6.021,0,0,1-2.224-2.351A5.369,5.369,0,0,1-300.773,2104.646Z" fill="#3a312a"/>
    <path id="Trazado_105777" data-name="Trazado 105777" d="M-298.711,2088.426s1.085,4.029,4.208,4.217c0,0-4.17,1.44-4.24,4.519,0,0-.821-4.319-4.114-4.474C-302.857,2092.688-299.022,2092.107-298.711,2088.426Z" fill="#fcb268"/>
    <path id="Trazado_105778" data-name="Trazado 105778" d="M-298.74,2097.837a.674.674,0,0,1-.662-.548c-.007-.037-.767-3.8-3.483-3.927a.674.674,0,0,1-.644-.7.675.675,0,0,1,.575-.638c.133-.021,3.314-.559,3.574-3.65a.675.675,0,0,1,.729-.616.673.673,0,0,1,.6.5c.01.036,1,3.565,3.6,3.72a.676.676,0,0,1,.633.715.675.675,0,0,1-.454.6c-.036.012-3.726,1.329-3.785,3.9a.675.675,0,0,1-.62.657Zm-2.033-5.186a5.761,5.761,0,0,1,2,2.375,7.056,7.056,0,0,1,2.415-2.238,6.023,6.023,0,0,1-2.224-2.351A5.383,5.383,0,0,1-300.773,2092.651Z" fill="#3a312a"/>
    <path id="Trazado_105779" data-name="Trazado 105779" d="M-239.611,2108.411l4.48-12.242h-.01a5.974,5.974,0,0,0-3.941-7.473,5.974,5.974,0,0,0-7.473,3.941,5.953,5.953,0,0,0-.267,1.763,5.975,5.975,0,0,0-5.977-5.971,5.974,5.974,0,0,0-5.971,5.971,5.972,5.972,0,0,0-5.979-5.966,5.973,5.973,0,0,0-5.967,5.979,5.975,5.975,0,0,0,.266,1.756h-.011l4.48,12.242a30.428,30.428,0,0,0-17.23,27.424c0,16.8,13.621,18.675,30.422,18.675s30.422-1.873,30.422-18.675A30.426,30.426,0,0,0-239.611,2108.411Z" fill="#87796f"/>
    <path id="Trazado_105780" data-name="Trazado 105780" d="M-252.791,2155.184c-15.735,0-31.1-1.494-31.1-19.349a31.291,31.291,0,0,1,17.07-27.76l-4.27-11.674a.614.614,0,0,1-.037-.148,6.648,6.648,0,0,1,4.536-8.236,6.648,6.648,0,0,1,7.824,3.466,6.646,6.646,0,0,1,8.888-3.059,6.645,6.645,0,0,1,3.06,3.059,6.65,6.65,0,0,1,8.893-3.055,6.65,6.65,0,0,1,3.466,7.829.7.7,0,0,1-.034.144l-4.271,11.674a31.292,31.292,0,0,1,17.069,27.76c0,17.855-15.362,19.349-31.1,19.349Zm-16.991-59.141,4.44,12.136a.675.675,0,0,1-.341.841,29.93,29.93,0,0,0-16.855,26.815c0,15.054,10.907,18,29.747,18s29.747-2.946,29.747-18A29.93,29.93,0,0,0-239.9,2109.02a.676.676,0,0,1-.341-.841l4.44-12.136a.656.656,0,0,1,.019-.073,5.3,5.3,0,0,0-3.487-6.634,5.3,5.3,0,0,0-6.635,3.487,5.3,5.3,0,0,0-.239,1.577.675.675,0,0,1-.675.675.675.675,0,0,1-.675-.675h0a5.3,5.3,0,0,0-5.3-5.3,5.3,5.3,0,0,0-5.3,5.3.675.675,0,0,1-.675.675.675.675,0,0,1-.675-.675h0a5.3,5.3,0,0,0-5.3-5.3,5.3,5.3,0,0,0-5.3,5.3,5.3,5.3,0,0,0,.239,1.577.374.374,0,0,1,.019.073Z" fill="#3a312a"/>
    <path id="Trazado_105781" data-name="Trazado 105781" d="M-238.6,2130.943a14.188,14.188,0,0,1-14.192,14.184,14.188,14.188,0,0,1-14.184-14.192,14.188,14.188,0,0,1,14.188-14.184,14.188,14.188,0,0,1,14.188,14.188Z" fill="#fcb268"/>
    <path id="Trazado_105782" data-name="Trazado 105782" d="M-252.791,2145.8a14.861,14.861,0,0,1-14.861-14.863,14.863,14.863,0,0,1,14.863-14.861,14.863,14.863,0,0,1,14.861,14.862A14.88,14.88,0,0,1-252.791,2145.8Zm0-28.375a13.513,13.513,0,0,0-13.511,13.513,13.512,13.512,0,0,0,13.513,13.511,13.512,13.512,0,0,0,13.511-13.511A13.528,13.528,0,0,0-252.791,2117.43Z" fill="#3a312a"/>
    <path id="Trazado_105783" data-name="Trazado 105783" d="M-253.754,2140.86v-2.309a9.777,9.777,0,0,1-4.132-1.045l.729-2.845a8.577,8.577,0,0,0,4.036,1.07c1.385,0,2.333-.534,2.333-1.508,0-.923-.778-1.507-2.577-2.114-2.6-.874-4.375-2.091-4.375-4.449,0-2.139,1.507-3.816,4.108-4.327v-2.309h2.382v2.139a8.743,8.743,0,0,1,3.525.8l-.7,2.746a8.046,8.046,0,0,0-3.5-.827c-1.58,0-2.09.681-2.09,1.362,0,.8.851,1.312,2.917,2.09,2.892,1.021,4.059,2.358,4.059,4.546,0,2.163-1.532,4.012-4.327,4.5v2.479h-2.388Z" fill="#87796f"/>
    <path id="Trazado_105784" data-name="Trazado 105784" d="M-251.372,2141.535h-2.382a.675.675,0,0,1-.675-.675v-1.681a9.971,9.971,0,0,1-3.795-1.088.677.677,0,0,1-.316-.753l.729-2.843a.676.676,0,0,1,.385-.452.672.672,0,0,1,.593.028,7.961,7.961,0,0,0,3.712.987c.276,0,1.658-.042,1.658-.834,0-.4-.257-.846-2.118-1.475-2.25-.756-4.835-2.019-4.835-5.089,0-2.35,1.56-4.175,4.109-4.862v-1.774a.675.675,0,0,1,.675-.675h2.382a.675.675,0,0,1,.675.675v1.509a9.058,9.058,0,0,1,3.144.827.673.673,0,0,1,.36.774l-.7,2.747a.679.679,0,0,1-.829.485.732.732,0,0,1-.089-.03l-.185-.081a7.139,7.139,0,0,0-3.053-.693c-.528,0-1.415.09-1.415.686,0,.463,1.253,1,2.48,1.459,3.148,1.111,4.5,2.661,4.5,5.177a5.225,5.225,0,0,1-4.328,5.044v1.932a.673.673,0,0,1-.671.675h-.011Zm-1.707-1.35h1.032v-1.8a.677.677,0,0,1,.559-.666c2.324-.4,3.768-1.871,3.768-3.831,0-1.583-.614-2.852-3.61-3.91-1.913-.72-3.366-1.374-3.366-2.727,0-.985.726-2.036,2.765-2.036a8.116,8.116,0,0,1,3.041.576l.367-1.431a8.844,8.844,0,0,0-2.757-.518.676.676,0,0,1-.646-.675V2121.7h-1.031v1.635a.676.676,0,0,1-.545.662c-2.232.438-3.564,1.808-3.564,3.664,0,1.748,1.171,2.887,3.917,3.81,1.577.534,3.036,1.236,3.036,2.754,0,1.326-1.181,2.184-3.009,2.184a9.126,9.126,0,0,1-3.587-.776l-.388,1.516a9.929,9.929,0,0,0,3.373.729.674.674,0,0,1,.645.674Z" fill="#3a312a"/>
    <path id="Trazado_105785" data-name="Trazado 105785" d="M-237.483,2109.708h-30.242a2.8,2.8,0,0,1-2.8-2.8,2.8,2.8,0,0,1,2.8-2.8h30.242a2.8,2.8,0,0,1,2.8,2.8A2.8,2.8,0,0,1-237.483,2109.708Z" fill="#f16c7a"/>
    <path id="Trazado_105786" data-name="Trazado 105786" d="M-237.483,2110.383h-30.242a3.477,3.477,0,0,1-3.417-3.534,3.477,3.477,0,0,1,3.417-3.417h30.242a3.478,3.478,0,0,1,3.417,3.535A3.476,3.476,0,0,1-237.483,2110.383Zm-30.242-5.6a2.126,2.126,0,0,0-2.126,2.126,2.125,2.125,0,0,0,2.126,2.125h30.242a2.124,2.124,0,0,0,2.125-2.125,2.125,2.125,0,0,0-2.125-2.126Z" fill="#3a312a"/>
    <path id="Trazado_105787" data-name="Trazado 105787" d="M-270,2177.1h-.008v4.059l32.062-.985a15.141,15.141,0,0,0,7.66-2.678l26.648-20.489a2.724,2.724,0,0,0,1.179-2.277,3.712,3.712,0,0,0-3.492-3.757,4.362,4.362,0,0,0-2.219.491l-15.1,7.866h-23.914a27.634,27.634,0,0,0-14.724,4.248l-3.366,2.115a8.092,8.092,0,0,1-4.307,1.241h-.427v3.543H-270Z" fill="#fce8cb"/>
    <path id="Trazado_105788" data-name="Trazado 105788" d="M-270.011,2181.837a.675.675,0,0,1-.675-.675V2177.1a.675.675,0,0,1,.675-.675h.042a.677.677,0,0,1,.64.674.824.824,0,0,1-.007.1v3.263l31.366-.964a14.448,14.448,0,0,0,7.294-2.557l26.624-20.47a2.062,2.062,0,0,0,.915-1.761,3.037,3.037,0,0,0-2.847-3.064,3.669,3.669,0,0,0-1.878.415l-15.1,7.867a.678.678,0,0,1-.312.076h-23.913a26.931,26.931,0,0,0-14.364,4.144l-3.366,2.115a8.741,8.741,0,0,1-4.418,1.341v2.771a.842.842,0,0,1,.007.1.675.675,0,0,1-.639.673.666.666,0,0,1-.716-.612c0-.02,0-.04,0-.061v-3.542a.675.675,0,0,1,.675-.675h.427a7.4,7.4,0,0,0,3.947-1.138l3.366-2.115a28.268,28.268,0,0,1,15.083-4.351h23.748l14.955-7.791a5.081,5.081,0,0,1,2.563-.566,4.414,4.414,0,0,1,4.135,4.45,3.4,3.4,0,0,1-1.469,2.813l-26.622,20.471a15.856,15.856,0,0,1-8.028,2.815l-32.085.986Z" fill="#3a312a"/>
    <path id="Trazado_105789" data-name="Trazado 105789" d="M-248.462,2171.6a.674.674,0,0,1-.676-.674.674.674,0,0,1,.5-.653c3.85-1.038,6.971-1.671,9.987-2.283,3.123-.632,6.074-1.231,9.326-2.2a11.544,11.544,0,0,0,4.248-1.922,3.455,3.455,0,0,0,1.229-3.669.675.675,0,0,1,.368-.881.676.676,0,0,1,.881.368,4.769,4.769,0,0,1-1.6,5.208,12.579,12.579,0,0,1-4.739,2.189c-3.312.988-6.29,1.592-9.444,2.232-3,.607-6.1,1.237-9.9,2.263a.658.658,0,0,1-.177.024Z" fill="#3a312a"/>
    <path id="Trazado_105790" data-name="Trazado 105790" d="M-296.6,2159.775h-6.525v28.976h21.263v-28.976Z" fill="#f16c7a"/>
    <path id="Trazado_105791" data-name="Trazado 105791" d="M-281.859,2189.428h-21.263a.675.675,0,0,1-.675-.675v-28.978a.675.675,0,0,1,.675-.675h6.525a.675.675,0,0,1,.675.675.675.675,0,0,1-.675.675h-5.85v27.628h19.913v-27.627h-7.677a.675.675,0,0,1-.675-.675.675.675,0,0,1,.675-.675h8.351a.675.675,0,0,1,.675.675v28.975a.675.675,0,0,1-.675.675Z" fill="#3a312a"/>
    <path id="Trazado_105792" data-name="Trazado 105792" d="M-270.011,2170.48v-7.11a3.6,3.6,0,0,0-3.6-3.6h-8.253v28.981h8.253a3.6,3.6,0,0,0,3.6-3.6h0Z" fill="#8ac6dd"/>
    <path id="Trazado_105793" data-name="Trazado 105793" d="M-273.611,2189.428h-8.253a.675.675,0,0,1-.675-.675v-28.978a.675.675,0,0,1,.675-.675h8.253a4.276,4.276,0,0,1,4.272,4.27v7.11a.675.675,0,0,1-.675.675.675.675,0,0,1-.675-.675h0v-7.11a2.924,2.924,0,0,0-2.922-2.92h-7.578v27.628h7.578a2.924,2.924,0,0,0,2.922-2.922V2177.1a.675.675,0,0,1,.675-.675.675.675,0,0,1,.675.675v8.048a4.276,4.276,0,0,1-4.272,4.272Z" fill="#3a312a"/>
    <path id="Trazado_105794" data-name="Trazado 105794" d="M-273.221,2182.743a2.712,2.712,0,0,1-2.712,2.714,2.713,2.713,0,0,1-2.714-2.712,2.713,2.713,0,0,1,2.712-2.714h0A2.713,2.713,0,0,1-273.221,2182.743Z" fill="#87796f"/>
    <path id="Trazado_105795" data-name="Trazado 105795" d="M-275.934,2186.13a3.386,3.386,0,0,1-3.386-3.388,3.388,3.388,0,0,1,3.388-3.386,3.388,3.388,0,0,1,3.386,3.387A3.392,3.392,0,0,1-275.934,2186.13Zm0-5.424a2.037,2.037,0,0,0-2.036,2.038,2.037,2.037,0,0,0,2.038,2.036,2.036,2.036,0,0,0,2.036-2.038h0A2.04,2.04,0,0,0-275.934,2180.706Z" fill="#3a312a"/>
    <path id="Trazado_105796" data-name="Trazado 105796" d="M-205.98,2151.651a3.711,3.711,0,0,0-1.881.414l-1.9.99a2.964,2.964,0,0,1,.472,1.661,2.056,2.056,0,0,1-.914,1.759l-26.625,20.476a19.972,19.972,0,0,1-7.444,2.749l6.3-.193a14.4,14.4,0,0,0,7.291-2.556l26.627-20.471a2.065,2.065,0,0,0,.913-1.759,3.034,3.034,0,0,0-2.844-3.065Z" fill="#decaad"/>
  </g>
</svg>
