<svg xmlns="http://www.w3.org/2000/svg" xmlns:xlink="http://www.w3.org/1999/xlink" width="737.107" height="346.342" viewBox="0 0 737.107 346.342">
  <defs>
    <linearGradient id="linear-gradient" x1="0.5" x2="0.5" y2="1" gradientUnits="objectBoundingBox">
      <stop offset="0" stop-color="#3f3f40" stop-opacity="0.122"/>
      <stop offset="1" stop-color="#3f3f40" stop-opacity="0"/>
    </linearGradient>
  </defs>
  <g id="Grupo_55588" data-name="Grupo 55588" transform="translate(-428.893 -3370)">
    <text id="A_bank_is_a_financia" data-name="A bank is a financia" transform="translate(826 3370)" fill="#12263f" font-size="13" font-family="Roboto-Bold, Roboto" font-weight="700"><tspan x="0" y="14">Auto-realización</tspan><tspan font-family="Roboto-Regular, Roboto" font-weight="400"><tspan x="0" y="32">Vestimos para nosotros, nos sentimos bien y lo </tspan><tspan x="0" y="50">transmitimos con seguridad.</tspan></tspan></text>
    <text id="A_bank_is_a_financia-2" data-name="A bank is a financia" transform="translate(826 3435)" fill="#12263f" font-size="13" font-family="Roboto-Bold, Roboto" font-weight="700"><tspan x="0" y="14">Autoestima</tspan><tspan font-family="Roboto-Regular, Roboto" font-weight="400"><tspan x="0" y="32">Vestimos por los demás.</tspan><tspan x="0" y="50">Consumismo.</tspan></tspan></text>
    <text id="A_bank_is_a_financia-3" data-name="A bank is a financia" transform="translate(826 3514)" fill="#12263f" font-size="13" font-family="Roboto-Bold, Roboto" font-weight="700"><tspan x="0" y="14">Pertenencia: amigos, familia...</tspan><tspan font-family="Roboto-Regular, Roboto" font-weight="400"><tspan x="0" y="32">Vestimos para obtener la aceptación de los demás.</tspan></tspan></text>
    <text id="A_bank_is_a_financia-4" data-name="A bank is a financia" transform="translate(826 3583)" fill="#12263f" font-size="13" font-family="Roboto-Bold, Roboto" font-weight="700"><tspan x="0" y="14">Seguridad: protección, moral, ética...</tspan><tspan font-family="Roboto-Regular, Roboto" font-weight="400"><tspan x="0" y="32">Evitar vergüenza o daños, con prendas especiales.</tspan></tspan></text>
    <text id="A_bank_is_a_financia-5" data-name="A bank is a financia" transform="translate(826 3654)" fill="#12263f" font-size="13" font-family="Roboto-Bold, Roboto" font-weight="700"><tspan x="0" y="14">Necesidades básicas: frío</tspan><tspan font-family="Roboto-Regular, Roboto" font-weight="400"><tspan x="0" y="32">Cualquier prenda que abrigue.</tspan></tspan></text>
    <g id="Grupo_55587" data-name="Grupo 55587" transform="translate(3 -469)">
      <path id="Trazado_105258" data-name="Trazado 105258" d="M-2472.787,2772.983h-245.993l-30.325-75.66h245.993Z" transform="translate(3211.411 1350.056)" fill="url(#linear-gradient)"/>
      <path id="Trazado_105259" data-name="Trazado 105259" d="M-2487.608,2930.983h-318.263l-39.235-75.66h318.263Z" transform="translate(3270.999 1251.983)" fill="url(#linear-gradient)"/>
      <path id="Trazado_105260" data-name="Trazado 105260" d="M-2456.771,2613.637H-2635.49l-24.5-64.865h178.719Z" transform="translate(3156.098 1442.263)" fill="url(#linear-gradient)"/>
      <path id="Trazado_105261" data-name="Trazado 105261" d="M-2447.675,2457.024h-121.1l-15.285-43.954h121.1Z" transform="translate(3108.968 1526.494)" fill="url(#linear-gradient)"/>
      <path id="Trazado_105262" data-name="Trazado 105262" d="M-2437.491,2315.7h-67.493l-7.736-24.5h67.493Z" transform="translate(3064.684 1602.139)" fill="url(#linear-gradient)"/>
      <g id="Grupo_55576" data-name="Grupo 55576" transform="translate(427.064 4079.18)">
        <path id="Trazado_105263" data-name="Trazado 105263" d="M-2514.056,2781.166h-281.6l-.013.021,36.495,17.987,104.318,51.414,104.318-51.414,36.494-17.987Z" transform="translate(2813.248 -2781.166)" fill="#e3e4e6"/>
        <path id="Trazado_105264" data-name="Trazado 105264" d="M-2683.626,2850.623l-104.318-51.414-36.495-17.987-17.581,28.076,158.393,78.065Z" transform="translate(2842.019 -2781.201)" fill="#feffff"/>
        <path id="Trazado_105265" data-name="Trazado 105265" d="M-2266.021,2809.3l-17.581-28.076-36.494,17.987-104.318,51.414v36.741Z" transform="translate(2582.808 -2781.201)" fill="#cacccf"/>
      </g>
      <g id="Grupo_55577" data-name="Grupo 55577" transform="translate(462.305 4020.59)">
        <path id="Trazado_105266" data-name="Trazado 105266" d="M-2492.025,2626.694h-212.343l-.02.032,35.8,17.642,35.822,17.655,34.574,17.04,34.574-17.04,35.823-17.655,35.8-17.642Z" transform="translate(2721.35 -2626.694)" fill="#a4acb3"/>
        <path id="Trazado_105267" data-name="Trazado 105267" d="M-2625.954,2679.116l-34.574-17.04-35.822-17.655-35.8-17.642-16.96,27.085,123.152,60.721Z" transform="translate(2749.106 -2626.747)" fill="#c3d1d9"/>
        <path id="Trazado_105268" data-name="Trazado 105268" d="M-2301.262,2653.864l-16.96-27.085-35.8,17.642-35.822,17.655-34.574,17.04v35.469Z" transform="translate(2547.567 -2626.747)" fill="#868d91"/>
      </g>
      <g id="Grupo_55578" data-name="Grupo 55578" transform="translate(496.091 3963.722)">
        <path id="Trazado_105269" data-name="Trazado 105269" d="M-2470.424,2476.76h-144.527l-.011.017,34.857,17.18,34.881,17.191,2.536,1.25,2.536-1.25,34.881-17.191,34.857-17.18Z" transform="translate(2632.055 -2476.76)" fill="#ff9a21"/>
        <path id="Trazado_105270" data-name="Trazado 105270" d="M-2335.059,2504.077l-17.077-27.271-34.857,17.18-34.881,17.191-2.536,1.25v35.723Z" transform="translate(2513.778 -2476.789)" fill="#d98143"/>
        <path id="Trazado_105271" data-name="Trazado 105271" d="M-2570.661,2512.427l-2.536-1.25-34.881-17.191-34.857-17.18-17.094,27.3,89.368,44.046Z" transform="translate(2660.029 -2476.789)" fill="#fb0"/>
      </g>
      <g id="Grupo_55579" data-name="Grupo 55579" transform="translate(524.907 3913.063)">
        <path id="Trazado_105272" data-name="Trazado 105272" d="M-2452.606,2343.2h-88.121l-.092.147,37.364,18.415,6.789,3.346,6.789-3.346,37.364-18.415Z" transform="translate(2557.218 -2343.199)" fill="#e28888"/>
        <path id="Trazado_105273" data-name="Trazado 105273" d="M-2523.5,2365.347l-6.789-3.346-37.364-18.415-16.4,26.189,60.552,29.863Z" transform="translate(2584.056 -2343.439)" fill="#ff9696"/>
        <path id="Trazado_105274" data-name="Trazado 105274" d="M-2363.858,2369.776l-16.4-26.189L-2417.622,2362l-6.789,3.346v34.291Z" transform="translate(2484.962 -2343.439)" fill="#c97b7b"/>
      </g>
      <g id="Grupo_55580" data-name="Grupo 55580" transform="translate(551.712 3839.3)">
        <path id="Trazado_105275" data-name="Trazado 105275" d="M-2513.313,2202.5l-.07.112,28.558,14.075,5.189,2.557v-70.524Z" transform="translate(2513.384 -2148.722)" fill="#ede3b7"/>
        <path id="Trazado_105276" data-name="Trazado 105276" d="M-2390.734,2202.5l-33.676-53.78v70.524l5.189-2.557,28.558-14.075Z" transform="translate(2458.157 -2148.722)" fill="#cec5a1"/>
      </g>
      <g id="Grupo_55586" data-name="Grupo 55586" transform="translate(614.78 3856.389)">
        <path id="Trazado_105277" data-name="Trazado 105277" d="M-2161.457,2208.411h-175.579a.375.375,0,0,1-.375-.375.375.375,0,0,1,.375-.375h175.579a.375.375,0,0,1,.375.375A.375.375,0,0,1-2161.457,2208.411Z" transform="translate(2341.088 -2202.395)" fill="#6d6e71"/>
        <g id="Grupo_55581" data-name="Grupo 55581" transform="translate(179.256 277.02)">
          <path id="Trazado_105278" data-name="Trazado 105278" d="M-1869.014,2935.106a5.488,5.488,0,0,1-5.482-5.482,5.488,5.488,0,0,1,5.482-5.482,5.488,5.488,0,0,1,5.482,5.482A5.488,5.488,0,0,1-1869.014,2935.106Zm0-10.215a4.738,4.738,0,0,0-4.732,4.732,4.738,4.738,0,0,0,4.732,4.732,4.738,4.738,0,0,0,4.732-4.732A4.738,4.738,0,0,0-1869.014,2924.892Z" transform="translate(1874.496 -2924.142)" fill="#6d6e71"/>
          <circle id="Elipse_4026" data-name="Elipse 4026" cx="3.154" cy="3.154" r="3.154" transform="translate(2.327 2.327)" fill="#d2d3d4"/>
        </g>
        <g id="Grupo_55582" data-name="Grupo 55582" transform="translate(179.256 208.015)">
          <path id="Trazado_105279" data-name="Trazado 105279" d="M-1869.014,2753.173a5.488,5.488,0,0,1-5.482-5.482,5.489,5.489,0,0,1,5.482-5.482,5.488,5.488,0,0,1,5.482,5.482A5.488,5.488,0,0,1-1869.014,2753.173Zm0-10.214a4.738,4.738,0,0,0-4.732,4.732,4.738,4.738,0,0,0,4.732,4.733,4.738,4.738,0,0,0,4.732-4.733A4.737,4.737,0,0,0-1869.014,2742.959Z" transform="translate(1874.496 -2742.209)" fill="#6d6e71"/>
          <circle id="Elipse_4027" data-name="Elipse 4027" cx="3.154" cy="3.154" r="3.154" transform="translate(2.327 2.328)" fill="#a4acb3"/>
        </g>
        <g id="Grupo_55583" data-name="Grupo 55583" transform="translate(179.256 139.01)">
          <path id="Trazado_105280" data-name="Trazado 105280" d="M-1869.014,2571.241a5.488,5.488,0,0,1-5.482-5.482,5.488,5.488,0,0,1,5.482-5.482,5.488,5.488,0,0,1,5.482,5.482A5.488,5.488,0,0,1-1869.014,2571.241Zm0-10.215a4.738,4.738,0,0,0-4.732,4.732,4.738,4.738,0,0,0,4.732,4.732,4.738,4.738,0,0,0,4.732-4.732A4.738,4.738,0,0,0-1869.014,2561.027Z" transform="translate(1874.496 -2560.277)" fill="#6d6e71"/>
          <circle id="Elipse_4028" data-name="Elipse 4028" cx="3.154" cy="3.154" r="3.154" transform="translate(2.327 2.328)" fill="#ffad54"/>
        </g>
        <g id="Grupo_55584" data-name="Grupo 55584" transform="translate(179.256 70.005)">
          <path id="Trazado_105281" data-name="Trazado 105281" d="M-1869.014,2389.309a5.488,5.488,0,0,1-5.482-5.482,5.488,5.488,0,0,1,5.482-5.482,5.488,5.488,0,0,1,5.482,5.482A5.488,5.488,0,0,1-1869.014,2389.309Zm0-10.214a4.738,4.738,0,0,0-4.732,4.732,4.738,4.738,0,0,0,4.732,4.732,4.738,4.738,0,0,0,4.732-4.732A4.738,4.738,0,0,0-1869.014,2379.094Z" transform="translate(1874.496 -2378.345)" fill="#6d6e71"/>
          <circle id="Elipse_4029" data-name="Elipse 4029" cx="3.154" cy="3.154" r="3.154" transform="translate(2.327 2.327)" fill="#ff9696"/>
        </g>
        <g id="Grupo_55585" data-name="Grupo 55585" transform="translate(179.256 0)">
          <path id="Trazado_105282" data-name="Trazado 105282" d="M-1869.014,2204.741a5.489,5.489,0,0,1-5.482-5.482,5.488,5.488,0,0,1,5.482-5.482,5.488,5.488,0,0,1,5.482,5.482A5.489,5.489,0,0,1-1869.014,2204.741Zm0-10.215a4.738,4.738,0,0,0-4.732,4.732,4.738,4.738,0,0,0,4.732,4.733,4.738,4.738,0,0,0,4.732-4.733A4.738,4.738,0,0,0-1869.014,2194.526Z" transform="translate(1874.496 -2193.777)" fill="#6d6e71"/>
          <circle id="Elipse_4030" data-name="Elipse 4030" cx="3.154" cy="3.154" r="3.154" transform="translate(2.327 2.328)" fill="#ede3b7"/>
        </g>
        <circle id="Elipse_4031" data-name="Elipse 4031" cx="1.749" cy="1.749" r="1.749" transform="translate(0 3.892)" fill="#6d6e71"/>
        <path id="Trazado_105283" data-name="Trazado 105283" d="M-2254.515,2354.036a1.749,1.749,0,0,1-1.749,1.749,1.749,1.749,0,0,1-1.749-1.749,1.749,1.749,0,0,1,1.749-1.749A1.749,1.749,0,0,1-2254.515,2354.036Z" transform="translate(2291.805 -2292.166)" fill="#6d6e71"/>
        <path id="Trazado_105284" data-name="Trazado 105284" d="M-2167.693,2502.359a1.749,1.749,0,0,1-1.749,1.749,1.749,1.749,0,0,1-1.749-1.749,1.749,1.749,0,0,1,1.749-1.749A1.749,1.749,0,0,1-2167.693,2502.359Z" transform="translate(2237.914 -2384.231)" fill="#6d6e71"/>
        <circle id="Elipse_4032" data-name="Elipse 4032" cx="1.749" cy="1.749" r="1.749" transform="translate(100.046 172.555)" fill="#6d6e71"/>
        <circle id="Elipse_4033" data-name="Elipse 4033" cx="1.749" cy="1.749" r="1.749" transform="translate(133.599 228.579)" fill="#6d6e71"/>
        <path id="Trazado_105285" data-name="Trazado 105285" d="M-2107.062,2370.276h-13.081a7.387,7.387,0,0,1-7.341-7.175,6.631,6.631,0,0,0-6.591-6.442H-2249.4a.375.375,0,0,1-.375-.375.375.375,0,0,1,.375-.375h115.328a7.386,7.386,0,0,1,7.341,7.174,6.632,6.632,0,0,0,6.591,6.442h13.081a.375.375,0,0,1,.375.375A.374.374,0,0,1-2107.062,2370.276Z" transform="translate(2286.693 -2294.415)" fill="#6d6e71"/>
        <path id="Trazado_105286" data-name="Trazado 105286" d="M-2053.172,2531.348h-12.906a7.294,7.294,0,0,1-5.2-2.157,7.294,7.294,0,0,1-2.145-5.2l.03-12.395a6.551,6.551,0,0,0-1.926-4.672,6.55,6.55,0,0,0-4.668-1.937h-82.6a.375.375,0,0,1-.375-.375.375.375,0,0,1,.375-.375h82.6a7.294,7.294,0,0,1,5.2,2.157,7.294,7.294,0,0,1,2.145,5.2l-.03,12.4a6.55,6.55,0,0,0,1.926,4.672,6.55,6.55,0,0,0,4.668,1.937h12.906a.375.375,0,0,1,.375.375A.375.375,0,0,1-2053.172,2531.348Z" transform="translate(2232.803 -2386.481)" fill="#6d6e71"/>
        <path id="Trazado_105287" data-name="Trazado 105287" d="M-1998.638,2692.285h-12.922a7.351,7.351,0,0,1-7.343-7.343v-25.257a6.6,6.6,0,0,0-6.593-6.593h-49.228a.375.375,0,0,1-.375-.375.375.375,0,0,1,.375-.375h49.228a7.351,7.351,0,0,1,7.343,7.343v25.257a6.6,6.6,0,0,0,6.594,6.593h12.922a.375.375,0,0,1,.375.375A.375.375,0,0,1-1998.638,2692.285Z" transform="translate(2178.269 -2478.414)" fill="#6d6e71"/>
        <path id="Trazado_105288" data-name="Trazado 105288" d="M-1943.728,2852.975h-12.96a7.36,7.36,0,0,1-7.343-7.3l-.206-38.313a6.608,6.608,0,0,0-6.593-6.557h-15.432a.375.375,0,0,1-.375-.375.375.375,0,0,1,.375-.375h15.432a7.359,7.359,0,0,1,7.343,7.3l.206,38.313a6.608,6.608,0,0,0,6.593,6.558h12.96a.375.375,0,0,1,.375.375A.375.375,0,0,1-1943.728,2852.975Z" transform="translate(2123.359 -2570.097)" fill="#6d6e71"/>
      </g>
      <path id="Trazado_105289" data-name="Trazado 105289" d="M-2842.345,2809.531a.19.19,0,0,1-.1-.028.191.191,0,0,1-.061-.261l17.448-28.067a.191.191,0,0,1,.261-.061.191.191,0,0,1,.061.261l-17.447,28.067A.191.191,0,0,1-2842.345,2809.531Z" transform="translate(3269.403 1298.064)" fill="#cecfd1"/>
    </g>
  </g>
</svg>
