<svg xmlns="http://www.w3.org/2000/svg" width="72.307" height="101.516" viewBox="0 0 72.307 101.516">
  <g id="Grupo_55599" data-name="Grupo 55599" transform="translate(288.799 -1336.25)">
    <path id="Trazado_105634" data-name="Trazado 105634" d="M-274.212,1341.281s1.534,5.7,5.95,5.961c0,0-5.9,2.037-5.994,6.39,0,0-1.16-6.106-5.816-6.325C-280.072,1347.307-274.65,1346.485-274.212,1341.281Z" fill="#fcb268"/>
    <path id="Trazado_105635" data-name="Trazado 105635" d="M-274.255,1354.307a.677.677,0,0,1-.662-.547c-.01-.056-1.122-5.587-5.184-5.78a.675.675,0,0,1-.64-.708.677.677,0,0,1,.57-.633c.2-.031,4.9-.817,5.289-5.414a.676.676,0,0,1,.727-.619.676.676,0,0,1,.6.5c.014.052,1.466,5.231,5.338,5.463a.676.676,0,0,1,.635.713.675.675,0,0,1-.454.6c-.055.02-5.454,1.939-5.542,5.769a.671.671,0,0,1-.618.656h-.057Zm-3.482-7.078a7.864,7.864,0,0,1,3.413,4,9.592,9.592,0,0,1,4.028-3.792,8.232,8.232,0,0,1-3.75-3.926,7.237,7.237,0,0,1-3.691,3.723Z" fill="#3a312a"/>
    <path id="Trazado_105636" data-name="Trazado 105636" d="M-283.976,1348.923s1.085,4.029,4.208,4.215c0,0-4.169,1.441-4.24,4.521,0,0-.82-4.321-4.114-4.475,0,0,3.835-.581,4.146-4.261Z" fill="#fcb268"/>
    <path id="Trazado_105637" data-name="Trazado 105637" d="M-284.009,1358.334a.675.675,0,0,1-.662-.548c-.007-.038-.766-3.8-3.483-3.927a.674.674,0,0,1-.644-.7.675.675,0,0,1,.575-.638c.133-.021,3.313-.559,3.573-3.652a.676.676,0,0,1,.734-.613.677.677,0,0,1,.591.494c.009.036,1,3.565,3.6,3.719a.676.676,0,0,1,.631.718.674.674,0,0,1-.452.595c-.036.013-3.726,1.327-3.785,3.9a.677.677,0,0,1-.62.657Zm-2.033-5.188a5.779,5.779,0,0,1,2,2.377,6.993,6.993,0,0,1,2.414-2.237,6.036,6.036,0,0,1-2.224-2.351,5.374,5.374,0,0,1-2.192,2.211Z" fill="#3a312a"/>
    <path id="Trazado_105638" data-name="Trazado 105638" d="M-283.976,1336.926s1.085,4.03,4.208,4.218c0,0-4.169,1.44-4.24,4.52,0,0-.82-4.321-4.114-4.476,0,0,3.835-.581,4.146-4.262Z" fill="#fcb268"/>
    <path id="Trazado_105639" data-name="Trazado 105639" d="M-284.009,1346.338a.673.673,0,0,1-.662-.549c-.007-.037-.766-3.8-3.483-3.926a.676.676,0,0,1-.64-.71.678.678,0,0,1,.571-.633c.133-.021,3.313-.559,3.573-3.65a.676.676,0,0,1,.728-.618.675.675,0,0,1,.6.5c.009.035,1,3.563,3.6,3.718a.675.675,0,0,1,.633.715.675.675,0,0,1-.454.6c-.035.012-3.726,1.329-3.785,3.9a.675.675,0,0,1-.62.657h-.058Zm-2.033-5.187a5.776,5.776,0,0,1,2,2.376,7.043,7.043,0,0,1,2.414-2.238,6.02,6.02,0,0,1-2.224-2.351,5.378,5.378,0,0,1-2.192,2.213Z" fill="#3a312a"/>
    <path id="Trazado_105640" data-name="Trazado 105640" d="M-220.226,1376.021v2.93a2.026,2.026,0,0,1-2.026,2.026h0l-8.559.011v-7h8.559a2.026,2.026,0,0,1,2.026,2.026h0Z" fill="#ffad54"/>
    <path id="Trazado_105641" data-name="Trazado 105641" d="M-230.812,1381.66a.674.674,0,0,1-.675-.673v-7a.674.674,0,0,1,.673-.675h0l8.514.005h.046a2.7,2.7,0,0,1,2.7,2.7h0v2.93a2.7,2.7,0,0,1-2.7,2.7h-.048Zm9.234-.686-8.559-6.308v5.643l7.883-.01a.144.144,0,0,1,.041,0,1.353,1.353,0,0,0,1.312-1.351v-2.927a1.354,1.354,0,0,0-1.315-1.351.219.219,0,0,0-.038,0Z" fill="#3a312a"/>
    <path id="Trazado_105642" data-name="Trazado 105642" d="M-240.862,1423.328v7.9h5.607v-70.2h-5.606Z" fill="#87796f"/>
    <path id="Trazado_105643" data-name="Trazado 105643" d="M-235.255,1431.9h-5.606a.675.675,0,0,1-.675-.675v-7.9a.675.675,0,0,1,.675-.675.675.675,0,0,1,.675.675v7.226h4.256V1361.7h-4.256v54.927a.675.675,0,0,1-.675.675.675.675,0,0,1-.675-.675v-55.6a.675.675,0,0,1,.675-.675h5.606a.675.675,0,0,1,.675.675v70.2a.675.675,0,0,1-.675.675Z" fill="#3a312a"/>
    <path id="Trazado_105644" data-name="Trazado 105644" d="M-245.779,1431.225h15.44a5.278,5.278,0,0,1,5.278,5.278h0v.587h-26v-.587a5.279,5.279,0,0,1,5.279-5.279Z" fill="#87796f"/>
    <path id="Trazado_105645" data-name="Trazado 105645" d="M-225.061,1437.766h-26a.675.675,0,0,1-.675-.675v-.587a5.961,5.961,0,0,1,5.954-5.953h15.44a5.96,5.96,0,0,1,5.953,5.953v.587a.675.675,0,0,1-.675.675Zm-25.321-1.35h24.646a4.61,4.61,0,0,0-4.6-4.516h-15.44a4.61,4.61,0,0,0-4.6,4.516Z" fill="#3a312a"/>
    <path id="Trazado_105646" data-name="Trazado 105646" d="M-217.377,1348.392l-5.948,6.053-.019.085-2.4,12.309-1.2,6.163H-249.17l-1.206-6.163-2.4-12.3-.019-.09-5.948-6.053.346-.508a9.037,9.037,0,0,1,7.506-4h7.232V1337h11.2v6.89h7.237a9.049,9.049,0,0,1,7.506,4Z" fill="#87796f"/>
    <path id="Trazado_105647" data-name="Trazado 105647" d="M-226.949,1373.677H-249.17a.674.674,0,0,1-.662-.545l-3.587-18.358-5.808-5.909a.674.674,0,0,1-.076-.853l.345-.509a9.7,9.7,0,0,1,8.065-4.294h6.557v-6.215a.673.673,0,0,1,.671-.675h11.2a.673.673,0,0,1,.675.671v6.219h6.562a9.713,9.713,0,0,1,8.069,4.293l.343.516a.673.673,0,0,1-.079.847l-5.809,5.91-3.582,18.357a.674.674,0,0,1-.663.545Zm-21.664-1.35H-227.5l3.517-18.022a.7.7,0,0,1,.18-.334l5.564-5.661-.038-.057a8.363,8.363,0,0,0-6.944-3.694h-7.237a.675.675,0,0,1-.675-.675v-6.215h-9.849v6.215a.675.675,0,0,1-.675.675h-7.232a8.351,8.351,0,0,0-6.945,3.7l-.038.056,5.561,5.657a.678.678,0,0,1,.18.34l.018.09Z" fill="#3a312a"/>
    <path id="Trazado_105648" data-name="Trazado 105648" d="M-247.191,1413.188h30.026c0-16.925-3.9-31.777-9.768-40.186h-22.254c-5.869,8.409-9.766,23.261-9.766,40.186Z" fill="#ed6e7a"/>
    <path id="Trazado_105649" data-name="Trazado 105649" d="M-217.165,1413.863h-30.026a.675.675,0,0,1-.675-.675.675.675,0,0,1,.675-.675h29.349c-.1-15.826-3.608-30.266-9.445-38.836h-21.546c-5.835,8.57-9.346,23.01-9.444,38.836h4.149a.675.675,0,0,1,.675.675.675.675,0,0,1-.675.675h-4.827a.674.674,0,0,1-.675-.673v0c0-16.535,3.7-31.7,9.889-40.571a.672.672,0,0,1,.552-.29h22.254a.678.678,0,0,1,.555.29c6.191,8.869,9.888,24.035,9.888,40.571a.675.675,0,0,1-.675.675Z" fill="#3a312a"/>
    <path id="Trazado_105650" data-name="Trazado 105650" d="M-217.377,1348.392l-5.948,6.053-.019.085-2.4,12.309h-24.632l-2.4-12.3-.019-.09-5.948-6.053.346-.508a9.037,9.037,0,0,1,7.506-4h2.036v8.329h21.6v-8.329h2.035a9.049,9.049,0,0,1,7.506,4Z" fill="#f6e2c6"/>
    <path id="Trazado_105651" data-name="Trazado 105651" d="M-225.747,1367.514h-24.629a.674.674,0,0,1-.662-.547l-2.381-12.193-5.808-5.909a.675.675,0,0,1-.076-.853l.347-.509a9.694,9.694,0,0,1,8.063-4.294h2.038a.675.675,0,0,1,.675.675v7.654h20.25v-7.654a.673.673,0,0,1,.671-.675h2.038a9.714,9.714,0,0,1,8.066,4.293l.345.516a.676.676,0,0,1-.081.847l-5.808,5.91-2.382,12.192a.677.677,0,0,1-.662.547Zm-24.072-1.351H-226.3l2.316-11.858a.7.7,0,0,1,.18-.334l5.564-5.661-.038-.057a8.363,8.363,0,0,0-6.944-3.694h-1.36v7.654a.674.674,0,0,1-.673.675h-21.6a.675.675,0,0,1-.675-.675v-7.654h-1.358a8.351,8.351,0,0,0-6.945,3.7l-.038.056,5.561,5.657a.678.678,0,0,1,.18.34l.018.09Z" fill="#3a312a"/>
    <path id="Trazado_105652" data-name="Trazado 105652" d="M-225.155,1369.851l-.256,3.62h-22.944l-.259-3.62Z" fill="#f3dec3"/>
    <path id="Trazado_105653" data-name="Trazado 105653" d="M-225.412,1374.144h-22.943a.676.676,0,0,1-.674-.627l-.258-3.62a.673.673,0,0,1,.621-.721l.052,0h23.459a.676.676,0,0,1,.676.675c0,.016,0,.032,0,.048l-.258,3.62a.674.674,0,0,1-.672.627Zm-22.313-1.35h21.684l.161-2.27h-22.007Z" fill="#3a312a"/>
    <path id="Trazado_105654" data-name="Trazado 105654" d="M-220.226,1368.995v7.024a2.025,2.025,0,0,0-2.025-2.025h-33.642v-6.959h33.708a1.959,1.959,0,0,1,1.959,1.959Z" fill="#ffad54"/>
    <path id="Trazado_105655" data-name="Trazado 105655" d="M-220.226,1376.694a.675.675,0,0,1-.675-.675,1.352,1.352,0,0,0-1.35-1.35h-33.642a.675.675,0,0,1-.675-.675v-6.959a.675.675,0,0,1,.675-.675h33.708a2.638,2.638,0,0,1,2.634,2.635v7.024a.675.675,0,0,1-.675.675Zm-34.992-3.375h32.963a2.7,2.7,0,0,1,1.35.362v-4.686a1.286,1.286,0,0,0-1.284-1.285h-33.029Z" fill="#3a312a"/>
    <path id="Trazado_105656" data-name="Trazado 105656" d="M-252.13,1370.576a.675.675,0,0,1-.675-.675v-2.865a.675.675,0,0,1,.675-.675.675.675,0,0,1,.675.675v2.865a.675.675,0,0,1-.675.675Z" fill="#3a312a"/>
    <path id="Trazado_105657" data-name="Trazado 105657" d="M-248.613,1372.128a.675.675,0,0,1-.675-.675v-4.417a.675.675,0,0,1,.675-.675.675.675,0,0,1,.675.675v4.415a.674.674,0,0,1-.673.675h0Z" fill="#3a312a"/>
    <path id="Trazado_105658" data-name="Trazado 105658" d="M-245.094,1370.576a.674.674,0,0,1-.675-.673v-2.867a.675.675,0,0,1,.675-.675.675.675,0,0,1,.675.675v2.865a.675.675,0,0,1-.675.675Z" fill="#3a312a"/>
    <path id="Trazado_105659" data-name="Trazado 105659" d="M-241.577,1372.128a.675.675,0,0,1-.675-.675v-4.417a.675.675,0,0,1,.675-.675.675.675,0,0,1,.675.675v4.415a.675.675,0,0,1-.675.675Z" fill="#3a312a"/>
    <path id="Trazado_105660" data-name="Trazado 105660" d="M-238.055,1370.576a.675.675,0,0,1-.675-.675v-2.865a.675.675,0,0,1,.675-.675.675.675,0,0,1,.675.675v2.865a.675.675,0,0,1-.675.675Z" fill="#3a312a"/>
    <path id="Trazado_105661" data-name="Trazado 105661" d="M-234.543,1372.128a.675.675,0,0,1-.675-.675v-4.417a.675.675,0,0,1,.675-.675.675.675,0,0,1,.675.675v4.415a.674.674,0,0,1-.673.675h0Z" fill="#3a312a"/>
    <path id="Trazado_105662" data-name="Trazado 105662" d="M-231.024,1370.576a.675.675,0,0,1-.675-.675v-2.865a.675.675,0,0,1,.675-.675.675.675,0,0,1,.675.675v2.865a.675.675,0,0,1-.675.675Z" fill="#3a312a"/>
    <path id="Trazado_105663" data-name="Trazado 105663" d="M-227.507,1372.128a.675.675,0,0,1-.675-.675v-4.417a.675.675,0,0,1,.675-.675.675.675,0,0,1,.675.675v4.415a.675.675,0,0,1-.675.675Z" fill="#3a312a"/>
    <path id="Trazado_105664" data-name="Trazado 105664" d="M-223.989,1370.576a.675.675,0,0,1-.675-.675v-2.865a.675.675,0,0,1,.675-.675.675.675,0,0,1,.675.675v2.865a.675.675,0,0,1-.675.675Z" fill="#3a312a"/>
    <path id="Trazado_105665" data-name="Trazado 105665" d="M-217.841,1412.513h-7.2c-.094-15.233-3.353-29.178-8.8-37.845h7.2C-221.192,1383.335-217.933,1397.28-217.841,1412.513Z" fill="#d34e5c"/>
    <path id="Trazado_105666" data-name="Trazado 105666" d="M-218.242,1348.311l-5.566,5.661a.683.683,0,0,0-.179.333l-2.319,11.858h-7.2l2.319-11.858a.683.683,0,0,1,.179-.333l1.066-1.084h2.682a.674.674,0,0,0,.675-.673v-7.656h1.36a8.36,8.36,0,0,1,6.943,3.692Z" fill="#ddc9ac"/>
  </g>
</svg>
