<svg xmlns="http://www.w3.org/2000/svg" width="101.56" height="101.711" viewBox="0 0 101.56 101.711">
  <g id="Grupo_55608" data-name="Grupo 55608" transform="translate(303.797 -2466.146)">
    <path id="Trazado_105886" data-name="Trazado 105886" d="M-232.081,2530.651s1.534,5.7,5.95,5.96c0,0-5.9,2.037-6,6.391,0,0-1.16-6.108-5.815-6.327,0,0,5.422-.821,5.86-6.024Z" fill="#fcb268"/>
    <path id="Trazado_105887" data-name="Trazado 105887" d="M-232.123,2543.68a.675.675,0,0,1-.663-.548c-.01-.055-1.122-5.588-5.184-5.779a.675.675,0,0,1-.64-.708.677.677,0,0,1,.57-.633c.2-.032,4.9-.818,5.29-5.415a.674.674,0,0,1,.729-.615.672.672,0,0,1,.6.5c.014.053,1.467,5.231,5.338,5.463a.676.676,0,0,1,.633.717.675.675,0,0,1-.452.6c-.055.018-5.453,1.939-5.541,5.768a.674.674,0,0,1-.618.657h-.057Zm-3.483-7.078a7.865,7.865,0,0,1,3.413,3.994,9.6,9.6,0,0,1,4.028-3.792,8.236,8.236,0,0,1-3.751-3.925,7.25,7.25,0,0,1-3.69,3.723Z" fill="#3a312a"/>
    <path id="Trazado_105888" data-name="Trazado 105888" d="M-241.842,2538.294s1.085,4.03,4.208,4.217c0,0-4.169,1.44-4.24,4.52,0,0-.82-4.32-4.113-4.474C-245.987,2542.557-242.152,2541.975-241.842,2538.294Z" fill="#fcb268"/>
    <path id="Trazado_105889" data-name="Trazado 105889" d="M-241.874,2547.706a.675.675,0,0,1-.663-.549c-.007-.037-.766-3.8-3.483-3.927a.675.675,0,0,1-.639-.709.675.675,0,0,1,.57-.632c.134-.022,3.314-.559,3.574-3.651a.676.676,0,0,1,.732-.614.674.674,0,0,1,.593.493c.009.037,1,3.564,3.6,3.72a.676.676,0,0,1,.635.713.675.675,0,0,1-.454.6c-.037.012-3.727,1.328-3.786,3.9a.676.676,0,0,1-.62.658Zm-2.034-5.187a5.787,5.787,0,0,1,2,2.375,7.048,7.048,0,0,1,2.414-2.237,6,6,0,0,1-2.223-2.35,5.4,5.4,0,0,1-2.193,2.212Z" fill="#3a312a"/>
    <path id="Trazado_105890" data-name="Trazado 105890" d="M-241.842,2526.3s1.085,4.029,4.208,4.216c0,0-4.169,1.441-4.24,4.52,0,0-.82-4.319-4.113-4.474,0,0,3.835-.582,4.145-4.262Z" fill="#fcb268"/>
    <path id="Trazado_105891" data-name="Trazado 105891" d="M-241.874,2535.71a.675.675,0,0,1-.663-.548c-.007-.038-.766-3.8-3.483-3.927a.674.674,0,0,1-.644-.7.675.675,0,0,1,.575-.638c.134-.021,3.314-.56,3.574-3.651a.676.676,0,0,1,.727-.619.675.675,0,0,1,.6.5c.009.035,1,3.564,3.6,3.72a.675.675,0,0,1,.632.715.672.672,0,0,1-.451.6c-.037.013-3.727,1.329-3.786,3.9a.675.675,0,0,1-.62.657h-.059Zm-2.034-5.188a5.786,5.786,0,0,1,2,2.377,7.038,7.038,0,0,1,2.414-2.237,6.021,6.021,0,0,1-2.223-2.351,5.381,5.381,0,0,1-2.193,2.211Z" fill="#3a312a"/>
    <path id="Trazado_105892" data-name="Trazado 105892" d="M-214.472,2488.827H-235.7a.675.675,0,0,1-.675-.675V2477.54a11.288,11.288,0,0,1,11.182-11.393,11.288,11.288,0,0,1,11.393,11.182c0,.07,0,.141,0,.211v10.611a.675.675,0,0,1-.675.675Zm-20.55-1.35h19.875v-9.937a9.939,9.939,0,0,0-9.838-10.037,9.939,9.939,0,0,0-10.037,9.838c0,.066,0,.133,0,.2Z" fill="#3a312a"/>
    <path id="Trazado_105893" data-name="Trazado 105893" d="M-229.858,2520.551h23.535a3.408,3.408,0,0,0,3.407-3.409,3.42,3.42,0,0,0-.071-.691l-4.285-20.563-.751-3.6-.295-1.42a3.408,3.408,0,0,0-3.336-2.715H-238.51a3.408,3.408,0,0,0-3.337,2.714l-.295,1.421-.751,3.6-4.288,20.563a3.407,3.407,0,0,0,2.643,4.029,3.423,3.423,0,0,0,.693.071Z" fill="#fcb268"/>
    <path id="Trazado_105894" data-name="Trazado 105894" d="M-206.324,2521.225h-23.534a.675.675,0,0,1-.675-.675.675.675,0,0,1,.675-.675h23.534a2.731,2.731,0,0,0,2.734-2.728,2.722,2.722,0,0,0-.058-.562L-208.981,2491a2.745,2.745,0,0,0-2.675-2.176H-238.51a2.746,2.746,0,0,0-2.676,2.176l-5.331,25.584a2.733,2.733,0,0,0,2.119,3.233,2.753,2.753,0,0,0,.557.057h6.96a.675.675,0,0,1,.675.675.675.675,0,0,1-.675.675h-6.96a4.082,4.082,0,0,1-4.086-4.078,4.127,4.127,0,0,1,.086-.837l5.33-25.583a4.1,4.1,0,0,1,4-3.252h26.856a4.1,4.1,0,0,1,4,3.252l5.331,25.583a4.082,4.082,0,0,1-3.163,4.829,3.985,3.985,0,0,1-.837.086Z" fill="#3a312a"/>
    <path id="Trazado_105895" data-name="Trazado 105895" d="M-207.272,2495.885h-35.621l.751-3.6h34.119Z" fill="#87796f"/>
    <path id="Trazado_105896" data-name="Trazado 105896" d="M-207.272,2496.562h-35.621a.675.675,0,0,1-.675-.677.7.7,0,0,1,.014-.137l.751-3.6a.676.676,0,0,1,.661-.536h34.119a.674.674,0,0,1,.661.536l.752,3.6a.677.677,0,0,1-.526.8.706.706,0,0,1-.136.014Zm-34.79-1.35H-208.1l-.47-2.25h-33.023Z" fill="#3a312a"/>
    <path id="Trazado_105897" data-name="Trazado 105897" d="M-230.972,2488.651v3.886a5.888,5.888,0,0,0,5.964,5.811,5.889,5.889,0,0,0,5.811-5.811v-3.886a2,2,0,0,0-2-2h-7.772a2,2,0,0,0-2,2Z" fill="#f6e2c6"/>
    <path id="Trazado_105898" data-name="Trazado 105898" d="M-225.081,2499.1a6.571,6.571,0,0,1-6.563-6.561v-3.889a2.681,2.681,0,0,1,2.677-2.678h7.772a2.68,2.68,0,0,1,2.676,2.678v3.886a6.569,6.569,0,0,1-6.562,6.561Zm-3.886-11.774a1.33,1.33,0,0,0-1.327,1.327v3.886a5.213,5.213,0,0,0,5.213,5.213,5.213,5.213,0,0,0,5.212-5.213v-3.889a1.328,1.328,0,0,0-1.326-1.328h-7.772Z" fill="#3a312a"/>
    <path id="Trazado_105899" data-name="Trazado 105899" d="M-223.331,2493.874a1.753,1.753,0,0,1-1.754,1.752,1.752,1.752,0,0,1-1.752-1.754,1.753,1.753,0,0,1,1.753-1.752,1.753,1.753,0,0,1,1.753,1.753Z" fill="#87796f"/>
    <path id="Trazado_105900" data-name="Trazado 105900" d="M-225.081,2496.3a2.429,2.429,0,0,1-2.43-2.428,2.43,2.43,0,0,1,2.428-2.43,2.43,2.43,0,0,1,2.43,2.428h0A2.43,2.43,0,0,1-225.081,2496.3Zm0-3.508a1.08,1.08,0,0,0-1.08,1.078,1.078,1.078,0,0,0,1.078,1.08,1.079,1.079,0,0,0,1.08-1.078h0A1.081,1.081,0,0,0-225.081,2492.795Z" fill="#3a312a"/>
    <path id="Trazado_105901" data-name="Trazado 105901" d="M-205.312,2539.014h-15.715a34,34,0,0,1-22.054,18.792l-1.286.351a6.08,6.08,0,0,0-4.485,5.867,3.153,3.153,0,0,0,3.153,3.155h18.623a3.154,3.154,0,0,0,1.577-.422l12.044-6.954v7.376h8.14l2.4-13.428Z" fill="#eb6e7a"/>
    <path id="Trazado_105902" data-name="Trazado 105902" d="M-205.312,2567.851h-8.141a.675.675,0,0,1-.675-.675v-6.208l-11.031,6.368a3.819,3.819,0,0,1-1.915.515H-245.7a3.836,3.836,0,0,1-3.83-3.831,6.77,6.77,0,0,1,4.984-6.519l1.284-.349a33.224,33.224,0,0,0,21.616-18.421.675.675,0,0,1,.615-.4h15.714a.674.674,0,0,1,.665.566l2.4,14.737a.671.671,0,0,1,0,.228l-2.4,13.427a.675.675,0,0,1-.663.558Zm-7.466-1.35h6.9l2.279-12.759-2.288-14.057H-220.6a34.56,34.56,0,0,1-22.307,18.769l-1.286.35a5.418,5.418,0,0,0-3.987,5.217,2.482,2.482,0,0,0,2.48,2.48h18.621a2.478,2.478,0,0,0,1.24-.333l12.043-6.953a.675.675,0,0,1,.922.246.673.673,0,0,1,.091.339Z" fill="#3a312a"/>
    <path id="Trazado_105903" data-name="Trazado 105903" d="M-213.453,2559.817v7.363h8.141l2.4-13.429v-.009Zm10.538-6.075-10.538,6.075" fill="#87796f"/>
    <path id="Trazado_105904" data-name="Trazado 105904" d="M-205.312,2567.851h-8.141a.675.675,0,0,1-.675-.675v-7.35a.636.636,0,0,1,.01-.131.858.858,0,0,1,.027-.1.681.681,0,0,1,.3-.36h0l10.54-6.075h0a.677.677,0,0,1,.46-.078.69.69,0,0,1,.109.03.688.688,0,0,1,.431.761l-2.4,13.428a.676.676,0,0,1-.664.557Zm-7.466-1.35h6.9l2.046-11.455-8.946,5.157Z" fill="#3a312a"/>
    <path id="Trazado_105905" data-name="Trazado 105905" d="M-203.849,2538.57v-4.919a1.4,1.4,0,0,0-1.4-1.395H-221.1a1.4,1.4,0,0,0-1.394,1.395v4.917a1.677,1.677,0,0,0,1.671,1.683h15.3a1.677,1.677,0,0,0,1.676-1.678Z" fill="#87796f"/>
    <path id="Trazado_105906" data-name="Trazado 105906" d="M-205.525,2540.923h-15.29a2.354,2.354,0,0,1-2.352-2.353v-4.919a2.072,2.072,0,0,1,2.069-2.071h15.854a2.073,2.073,0,0,1,2.071,2.071v4.917a2.356,2.356,0,0,1-2.352,2.353Zm-15.573-7.99a.719.719,0,0,0-.719.719h0v4.917a1,1,0,0,0,1,1h15.29a1,1,0,0,0,1-1v-4.919a.721.721,0,0,0-.721-.72Z" fill="#3a312a"/>
    <rect id="Rectángulo_5338" data-name="Rectángulo 5338" width="11.171" height="7.055" transform="translate(-303.122 2475.189)" fill="#f16c7a"/>
    <path id="Trazado_105907" data-name="Trazado 105907" d="M-291.951,2482.919h-11.171a.675.675,0,0,1-.675-.675v-7.054a.675.675,0,0,1,.675-.675h11.171a.675.675,0,0,1,.675.675v7.055a.675.675,0,0,1-.675.674Zm-10.5-1.35h9.821v-5.7h-9.821Z" fill="#3a312a"/>
    <rect id="Rectángulo_5339" data-name="Rectángulo 5339" width="11.177" height="7.055" transform="translate(-256.357 2475.189)" fill="#f16c7a"/>
    <path id="Trazado_105908" data-name="Trazado 105908" d="M-245.181,2482.919h-11.176a.675.675,0,0,1-.675-.675v-7.054a.675.675,0,0,1,.675-.675h11.176a.675.675,0,0,1,.675.675v7.055a.675.675,0,0,1-.675.674Zm-10.5-1.35h9.828v-5.7h-9.828Z" fill="#3a312a"/>
    <path id="Trazado_105909" data-name="Trazado 105909" d="M-265.45,2466.926a9.769,9.769,0,0,1-13.143,4.257,9.767,9.767,0,0,1-4.257-4.257h-9.1v33.666h35.594v-33.666Z" fill="#f16c7a"/>
    <path id="Trazado_105910" data-name="Trazado 105910" d="M-256.354,2501.267h-35.594a.675.675,0,0,1-.675-.675v-33.666a.675.675,0,0,1,.675-.675h9.1a.676.676,0,0,1,.6.359,9.1,9.1,0,0,0,12.233,3.973,9.1,9.1,0,0,0,3.973-3.973.676.676,0,0,1,.6-.359h9.1a.675.675,0,0,1,.675.675v33.666a.675.675,0,0,1-.675.675Zm-34.919-1.35h34.244V2467.6h-8.024a10.434,10.434,0,0,1-14.2,3.988,10.438,10.438,0,0,1-3.988-3.988h-8.027Z" fill="#3a312a"/>
    <path id="Trazado_105911" data-name="Trazado 105911" d="M-291.947,2533.819v33.361l35.593-25.865v-33.473h-35.593Z" fill="#87796f"/>
    <path id="Trazado_105912" data-name="Trazado 105912" d="M-291.947,2567.851a.678.678,0,0,1-.675-.675v-33.357a.675.675,0,0,1,.675-.675.675.675,0,0,1,.675.675v32.032l34.243-24.883v-32.451h-34.243v18.1a.675.675,0,0,1-.675.675.675.675,0,0,1-.675-.675h0v-18.775a.675.675,0,0,1,.675-.675h35.593a.675.675,0,0,1,.675.675v33.473a.679.679,0,0,1-.278.547l-35.593,25.863a.676.676,0,0,1-.4.13Z" fill="#3a312a"/>
    <rect id="Rectángulo_5340" data-name="Rectángulo 5340" width="35.592" height="4.9" transform="translate(-291.947 2507.842)" fill="#fcb268"/>
    <path id="Trazado_105913" data-name="Trazado 105913" d="M-256.354,2513.417h-35.593a.675.675,0,0,1-.675-.675v-4.9a.675.675,0,0,1,.675-.675h35.593a.675.675,0,0,1,.675.675v4.9A.675.675,0,0,1-256.354,2513.417Zm-34.918-1.35h34.243v-3.55h-34.243Z" fill="#3a312a"/>
    <path id="Trazado_105914" data-name="Trazado 105914" d="M-204.2,2518.866a2.716,2.716,0,0,1-2.121,1.008h-7.2a2.727,2.727,0,0,0,2.731-2.724,2.691,2.691,0,0,0-.058-.566l-4.171-20.025h7.2l4.171,20.025A2.71,2.71,0,0,1-204.2,2518.866Z" fill="#ffad54"/>
    <path id="Trazado_105915" data-name="Trazado 105915" d="M-208.851,2491.609h-7.2l-.127-.608a2.755,2.755,0,0,0-2.344-2.155v-.022h6.868a2.751,2.751,0,0,1,2.676,2.177Z" fill="#ffad54"/>
    <path id="Trazado_105916" data-name="Trazado 105916" d="M-208.1,2495.209h-7.2l-.473-2.25h7.2Z" fill="#695b51"/>
  </g>
</svg>
