<svg xmlns="http://www.w3.org/2000/svg" width="101.846" height="101.74" viewBox="0 0 101.846 101.74">
  <g id="Grupo_55590" data-name="Grupo 55590" transform="translate(303.797 187.249)">
    <path id="Trazado_105336" data-name="Trazado 105336" d="M-289.026-182.219s1.533,5.7,5.949,5.96c0,0-5.894,2.037-5.994,6.391,0,0-1.161-6.108-5.816-6.327,0,0,5.422-.821,5.861-6.024Z" fill="#fcb268"/>
    <path id="Trazado_105337" data-name="Trazado 105337" d="M-289.072-169.193a.676.676,0,0,1-.662-.548c-.011-.056-1.123-5.587-5.184-5.78a.675.675,0,0,1-.646-.7.676.676,0,0,1,.575-.639c.2-.03,4.9-.818,5.29-5.414a.675.675,0,0,1,.73-.615.676.676,0,0,1,.594.5c.014.051,1.466,5.231,5.338,5.463a.675.675,0,0,1,.633.715.674.674,0,0,1-.451.6c-.055.019-5.454,1.94-5.542,5.769a.672.672,0,0,1-.619.657h-.056Zm-3.484-7.079a7.867,7.867,0,0,1,3.415,4,9.605,9.605,0,0,1,4.026-3.792,8.255,8.255,0,0,1-3.75-3.926A7.238,7.238,0,0,1-292.556-176.272Z" fill="#3a312a"/>
    <path id="Trazado_105338" data-name="Trazado 105338" d="M-298.79-174.578s1.085,4.028,4.208,4.216c0,0-4.17,1.44-4.24,4.52,0,0-.821-4.32-4.114-4.476,0,0,3.835-.58,4.146-4.26Z" fill="#fcb268"/>
    <path id="Trazado_105339" data-name="Trazado 105339" d="M-298.822-165.167a.675.675,0,0,1-.663-.549c-.007-.037-.767-3.8-3.483-3.927a.674.674,0,0,1-.644-.7.675.675,0,0,1,.575-.638c.132-.021,3.313-.558,3.573-3.651a.674.674,0,0,1,.73-.615.672.672,0,0,1,.594.5c.01.036,1,3.564,3.6,3.719a.676.676,0,0,1,.633.715.675.675,0,0,1-.454.6c-.036.013-3.727,1.329-3.785,3.9a.675.675,0,0,1-.619.657.253.253,0,0,1-.055,0Zm-2.034-5.182a5.755,5.755,0,0,1,2,2.376,7.076,7.076,0,0,1,2.415-2.239,6.021,6.021,0,0,1-2.224-2.351,5.378,5.378,0,0,1-2.191,2.214Z" fill="#3a312a"/>
    <path id="Trazado_105340" data-name="Trazado 105340" d="M-298.79-186.574s1.085,4.029,4.208,4.216c0,0-4.17,1.441-4.24,4.52,0,0-.821-4.319-4.114-4.474,0,0,3.835-.582,4.146-4.262Z" fill="#fcb268"/>
    <path id="Trazado_105341" data-name="Trazado 105341" d="M-298.822-177.163a.675.675,0,0,1-.663-.548c-.007-.038-.767-3.8-3.483-3.928a.674.674,0,0,1-.644-.7.675.675,0,0,1,.575-.638c.132-.021,3.313-.559,3.573-3.65a.674.674,0,0,1,.73-.615.672.672,0,0,1,.594.495c.01.035,1,3.564,3.6,3.72a.674.674,0,0,1,.635.711.675.675,0,0,1-.456.6c-.036.013-3.727,1.329-3.785,3.9a.675.675,0,0,1-.619.657h-.057Zm-2.034-5.186a5.776,5.776,0,0,1,2,2.376,7.08,7.08,0,0,1,2.415-2.237,6.021,6.021,0,0,1-2.224-2.351,5.374,5.374,0,0,1-2.191,2.212Z" fill="#3a312a"/>
    <path id="Trazado_105342" data-name="Trazado 105342" d="M-214.174-147.875a38.7,38.7,0,0,1-38.7,38.7,38.7,38.7,0,0,1-38.7-38.7,38.7,38.7,0,0,1,38.7-38.7,38.7,38.7,0,0,1,38.7,38.7Z" fill="#8ac5dc"/>
    <path id="Trazado_105343" data-name="Trazado 105343" d="M-252.874-108.5a39.375,39.375,0,0,1-39.375-39.375,39.375,39.375,0,0,1,39.375-39.375A39.375,39.375,0,0,1-213.5-147.874h0A39.42,39.42,0,0,1-252.874-108.5Zm0-77.4A38.025,38.025,0,0,0-290.9-147.874a38.025,38.025,0,0,0,38.025,38.025,38.025,38.025,0,0,0,38.025-38.025h0A38.068,38.068,0,0,0-252.874-185.9Z" fill="#3a312a"/>
    <path id="Trazado_105344" data-name="Trazado 105344" d="M-252.874-108.5c-14.64,0-26.551-17.664-26.551-39.375s11.909-39.375,26.551-39.375,26.551,17.663,26.551,39.375S-238.234-108.5-252.874-108.5Zm0-77.4c-13.9,0-25.2,17.058-25.2,38.025s11.3,38.025,25.2,38.025,25.2-17.058,25.2-38.025S-238.974-185.9-252.874-185.9Z" fill="#3a312a"/>
    <path id="Trazado_105345" data-name="Trazado 105345" d="M-252.874-108.5c-6.7,0-10.71-20.02-10.71-39.375s4.007-39.375,10.71-39.375,10.71,20.019,10.71,39.375S-246.171-108.5-252.874-108.5Zm0-77.4c-4.52,0-9.36,15.279-9.36,38.025s4.84,38.025,9.36,38.025,9.36-15.28,9.36-38.025S-248.354-185.9-252.874-185.9Z" fill="#3a312a"/>
    <path id="Trazado_105346" data-name="Trazado 105346" d="M-252.874-121.324c-21.711,0-39.375-11.91-39.375-26.55s17.664-26.551,39.375-26.551,39.375,11.911,39.375,26.551S-231.163-121.324-252.874-121.324Zm0-51.751c-20.967,0-38.025,11.3-38.025,25.2s17.058,25.2,38.025,25.2,38.025-11.3,38.025-25.2S-231.907-173.075-252.874-173.075Z" fill="#3a312a"/>
    <path id="Trazado_105347" data-name="Trazado 105347" d="M-252.874-137.164c-19.355,0-39.375-4.007-39.375-10.71s20.02-10.71,39.375-10.71,39.375,4.006,39.375,10.71S-233.519-137.164-252.874-137.164Zm0-20.07c-22.746,0-38.025,4.839-38.025,9.36s15.279,9.36,38.025,9.36,38.025-4.84,38.025-9.36S-230.128-157.234-252.874-157.234Z" fill="#3a312a"/>
    <path id="Trazado_105348" data-name="Trazado 105348" d="M-238.616-116.73a14.534,14.534,0,0,0-10.364-17.75,14.535,14.535,0,0,0-17.75,10.364,14.535,14.535,0,0,0,0,7.386,5.577,5.577,0,0,0-.477,2.236,5.678,5.678,0,0,0,.7,2.7,5.528,5.528,0,0,0,0,5.4,5.528,5.528,0,0,0,0,5.4,5.684,5.684,0,0,0-.7,2.7c0,4.849,6.507,8.78,14.534,8.78s14.534-3.931,14.534-8.78a5.679,5.679,0,0,0-.7-2.7,5.528,5.528,0,0,0,0-5.4,5.528,5.528,0,0,0,0-5.4,5.679,5.679,0,0,0,.7-2.7,5.594,5.594,0,0,0-.477-2.236Z" fill="#87796f"/>
    <path id="Trazado_105349" data-name="Trazado 105349" d="M-252.669-88.831c-8.387,0-15.21-4.241-15.21-9.455a6.268,6.268,0,0,1,.625-2.7,6.153,6.153,0,0,1,0-5.4,6.153,6.153,0,0,1,0-5.4,6.138,6.138,0,0,1-.182-4.988,15.209,15.209,0,0,1,11.12-18.412,15.21,15.21,0,0,1,18.413,11.12,15.217,15.217,0,0,1,0,7.292,6.142,6.142,0,0,1-.181,4.988,6.16,6.16,0,0,1,0,5.4,6.16,6.16,0,0,1,0,5.4,6.267,6.267,0,0,1,.624,2.7c0,5.214-6.823,9.455-15.209,9.455Zm0-45.46a13.864,13.864,0,0,0-13.856,13.872,13.872,13.872,0,0,0,.456,3.518.666.666,0,0,1-.034.44,4.94,4.94,0,0,0-.422,1.967,5.029,5.029,0,0,0,.625,2.383.672.672,0,0,1,0,.637,4.857,4.857,0,0,0,0,4.766.67.67,0,0,1,0,.636,4.857,4.857,0,0,0,0,4.766.67.67,0,0,1,0,.636,5.036,5.036,0,0,0-.625,2.384c0,4.468,6.217,8.1,13.86,8.1s13.859-3.637,13.859-8.1a5.025,5.025,0,0,0-.625-2.384.67.67,0,0,1,0-.636,4.857,4.857,0,0,0,0-4.766.67.67,0,0,1,0-.636,4.857,4.857,0,0,0,0-4.766.672.672,0,0,1,0-.637,5.018,5.018,0,0,0,.625-2.383,4.939,4.939,0,0,0-.421-1.967.666.666,0,0,1-.034-.44,13.864,13.864,0,0,0-9.882-16.934,13.878,13.878,0,0,0-3.518-.456Z" fill="#3a312a"/>
    <path id="Trazado_105350" data-name="Trazado 105350" d="M-244.809-98.511h-4.271v-4.109h-7.176v4.109h-4.274a6.463,6.463,0,0,0-6.463,6.46V-86.2h28.648v-5.853a6.462,6.462,0,0,0-6.462-6.46h0Z" fill="#f8e4c8"/>
    <path id="Trazado_105351" data-name="Trazado 105351" d="M-238.345-85.521h-28.648a.675.675,0,0,1-.675-.675v-5.853a7.145,7.145,0,0,1,7.138-7.135h3.6v-3.434a.677.677,0,0,1,.675-.675h7.177a.677.677,0,0,1,.675.675v3.434h3.6a7.145,7.145,0,0,1,7.138,7.135v5.855a.674.674,0,0,1-.673.675h0Zm-27.973-1.35h27.3v-5.178a5.8,5.8,0,0,0-5.789-5.785h-4.271a.675.675,0,0,1-.675-.675v-3.44h-5.826v3.434a.675.675,0,0,1-.675.675h-4.273a5.794,5.794,0,0,0-5.789,5.791Z" fill="#3a312a"/>
    <rect id="Rectángulo_5317" data-name="Rectángulo 5317" width="28.648" height="4.944" transform="translate(-266.993 -91.14)" fill="#87796f"/>
    <path id="Trazado_105352" data-name="Trazado 105352" d="M-238.345-85.521h-28.648a.675.675,0,0,1-.675-.675V-91.14a.675.675,0,0,1,.675-.675h28.648a.675.675,0,0,1,.675.675V-86.2A.675.675,0,0,1-238.345-85.521Zm-27.973-1.35h27.3v-3.594h-27.3Z" fill="#3a312a"/>
    <path id="Trazado_105353" data-name="Trazado 105353" d="M-258.856-98.511h-1.672a6.461,6.461,0,0,0-6.465,6.457V-86.2h12.834Z" fill="#ef6d7a"/>
    <path id="Trazado_105354" data-name="Trazado 105354" d="M-254.159-85.521h-12.834a.675.675,0,0,1-.675-.675v-5.853a7.145,7.145,0,0,1,7.139-7.135h1.673a.673.673,0,0,1,.63.435l4.7,12.315a.674.674,0,0,1-.391.871.67.67,0,0,1-.239.044Zm-12.159-1.35h11.179l-4.183-10.965h-1.207a5.8,5.8,0,0,0-5.787,5.787Z" fill="#3a312a"/>
    <path id="Trazado_105355" data-name="Trazado 105355" d="M-250.183-88.806l-1,2.61h12.833v-5.853a6.462,6.462,0,0,0-6.462-6.46h-1.674l-1.1,2.882Z" fill="#ef6d7a"/>
    <path id="Trazado_105356" data-name="Trazado 105356" d="M-238.345-85.521h-12.833a.674.674,0,0,1-.676-.672.675.675,0,0,1,.045-.243l1-2.61a.676.676,0,0,1,.862-.411.675.675,0,0,1,.41.862l-.011.03-.646,1.694h11.183v-5.178a5.794,5.794,0,0,0-5.79-5.785h-1.21l-.932,2.447a.675.675,0,0,1-.88.369.674.674,0,0,1-.381-.85l1.1-2.881a.673.673,0,0,1,.63-.435h1.673a7.144,7.144,0,0,1,7.139,7.135v5.855a.673.673,0,0,1-.671.675h0Z" fill="#3a312a"/>
    <path id="Trazado_105357" data-name="Trazado 105357" d="M-261.226-114.527a2.542,2.542,0,0,1-2.542,2.544,2.543,2.543,0,0,1-2.544-2.542,2.544,2.544,0,0,1,2.542-2.544h0A2.543,2.543,0,0,1-261.226-114.527Z" fill="#f8e4c8" fill-rule="evenodd"/>
    <path id="Trazado_105358" data-name="Trazado 105358" d="M-263.769-111.309a3.216,3.216,0,0,1-3.216-3.218,3.218,3.218,0,0,1,3.218-3.216,3.217,3.217,0,0,1,3.216,3.216A3.222,3.222,0,0,1-263.769-111.309Zm0-5.085a1.868,1.868,0,0,0-1.868,1.868,1.868,1.868,0,0,0,1.868,1.868,1.868,1.868,0,0,0,1.868-1.868h0A1.87,1.87,0,0,0-263.769-116.394Z" fill="#3a312a"/>
    <path id="Trazado_105359" data-name="Trazado 105359" d="M-239.026-114.527a2.544,2.544,0,0,1-2.542,2.546,2.544,2.544,0,0,1-2.546-2.542,2.544,2.544,0,0,1,2.542-2.546h0A2.544,2.544,0,0,1-239.026-114.527Z" fill="#f8e4c8" fill-rule="evenodd"/>
    <path id="Trazado_105360" data-name="Trazado 105360" d="M-241.57-111.309a3.217,3.217,0,0,1-3.215-3.219,3.217,3.217,0,0,1,3.219-3.215,3.217,3.217,0,0,1,3.215,3.216A3.221,3.221,0,0,1-241.57-111.309Zm0-5.085a1.868,1.868,0,0,0-1.867,1.869,1.868,1.868,0,0,0,1.869,1.867,1.867,1.867,0,0,0,1.867-1.869h0A1.871,1.871,0,0,0-241.57-116.394Z" fill="#3a312a"/>
    <path id="Trazado_105361" data-name="Trazado 105361" d="M-241.393-115.761c0,6.224-6,15.777-11.276,15.777-5.038,0-11.274-9.553-11.274-15.777a11.274,11.274,0,0,1,11.286-11.263A11.274,11.274,0,0,1-241.393-115.761Z" fill="#f8e4c8"/>
    <path id="Trazado_105362" data-name="Trazado 105362" d="M-252.669-99.308c-5.54,0-11.951-9.956-11.951-16.453a11.951,11.951,0,0,1,12.1-11.795,11.951,11.951,0,0,1,11.795,11.795c0,6.646-6.3,16.453-11.951,16.453Zm0-27.047a10.609,10.609,0,0,0-10.6,10.594c0,5.739,5.923,15.1,10.6,15.1,4.813,0,10.6-9.277,10.6-15.1A10.611,10.611,0,0,0-252.669-126.355Z" fill="#3a312a"/>
    <path id="Trazado_105363" data-name="Trazado 105363" d="M-255.549-115.888a1.1,1.1,0,0,1-1.1,1.1,1.1,1.1,0,0,1-1.1-1.1,1.1,1.1,0,0,1,1.1-1.1,1.1,1.1,0,0,1,1.1,1.1Z" fill="#3a312a"/>
    <path id="Trazado_105364" data-name="Trazado 105364" d="M-247.588-115.888a1.1,1.1,0,0,1-1.1,1.1,1.1,1.1,0,0,1-1.1-1.1,1.1,1.1,0,0,1,1.1-1.1,1.1,1.1,0,0,1,1.1,1.1Z" fill="#3a312a"/>
    <path id="Trazado_105365" data-name="Trazado 105365" d="M-256.953-112.618c0,.783-.85,1.417-1.9,1.417s-1.9-.634-1.9-1.417.848-1.416,1.9-1.416S-256.953-113.4-256.953-112.618Z" fill="#f59689"/>
    <path id="Trazado_105366" data-name="Trazado 105366" d="M-244.593-112.618c0,.783-.849,1.417-1.9,1.417s-1.9-.634-1.9-1.417.848-1.416,1.9-1.416S-244.593-113.4-244.593-112.618Z" fill="#f59689"/>
    <path id="Trazado_105367" data-name="Trazado 105367" d="M-261.758-85.521a.675.675,0,0,1-.675-.675v-4.626a.675.675,0,0,1,.675-.675.675.675,0,0,1,.675.675V-86.2a.675.675,0,0,1-.675.675Z" fill="#3a312a"/>
    <path id="Trazado_105368" data-name="Trazado 105368" d="M-243.581-85.521a.675.675,0,0,1-.675-.675v-4.626a.675.675,0,0,1,.675-.675.675.675,0,0,1,.675.675V-86.2a.675.675,0,0,1-.675.675Z" fill="#3a312a"/>
    <path id="Trazado_105369" data-name="Trazado 105369" d="M-252.669-105.949a3.837,3.837,0,0,1-3.725-2.323.674.674,0,0,1,.293-.908.675.675,0,0,1,.909.293l.016.034a2.524,2.524,0,0,0,2.507,1.554,2.629,2.629,0,0,0,2.483-1.5.676.676,0,0,1,.883-.366.676.676,0,0,1,.382.841,3.968,3.968,0,0,1-3.748,2.376Z" fill="#3a312a"/>
    <path id="Trazado_105370" data-name="Trazado 105370" d="M-239.837-119.891a12.933,12.933,0,0,1-.435,3.339,48.165,48.165,0,0,1-8.179-5.031c-.747-.566-1.481-1.154-2.183-1.779a21.978,21.978,0,0,1-2.412-2.451,26.108,26.108,0,0,1-3.77-6.436,12.994,12.994,0,0,1,16.349,8.387,13.006,13.006,0,0,1,.625,3.973Z" fill="#87796f"/>
    <path id="Trazado_105371" data-name="Trazado 105371" d="M-240.272-115.877a.676.676,0,0,1-.293-.067,48.8,48.8,0,0,1-8.294-5.1c-.845-.641-1.573-1.233-2.224-1.812a22.578,22.578,0,0,1-2.481-2.525,26.5,26.5,0,0,1-3.869-6.6.676.676,0,0,1,.356-.888c.019-.008.038-.016.057-.022a13.669,13.669,0,0,1,17.2,8.816,13.67,13.67,0,0,1,.2,7.7.667.667,0,0,1-.37.439.674.674,0,0,1-.283.062Zm-15.611-15.941a24.017,24.017,0,0,0,3.356,5.569,21.5,21.5,0,0,0,2.337,2.377c.628.558,1.328,1.128,2.145,1.748a47.937,47.937,0,0,0,7.307,4.586,12.317,12.317,0,0,0-3.144-10.814,12.328,12.328,0,0,0-12-3.469Z" fill="#3a312a"/>
    <path id="Trazado_105372" data-name="Trazado 105372" d="M-243.391-128.813a50.508,50.508,0,0,1-7.243,5.451,78.728,78.728,0,0,1-14.7,7,12.993,12.993,0,0,1,8.989-16.026,13,13,0,0,1,12.955,3.576Z" fill="#87796f"/>
    <path id="Trazado_105373" data-name="Trazado 105373" d="M-265.335-115.688a.694.694,0,0,1-.307-.074.683.683,0,0,1-.343-.419,13.668,13.668,0,0,1,9.45-16.862,13.671,13.671,0,0,1,13.634,3.762.68.68,0,0,1-.032.961l0,0a51.6,51.6,0,0,1-7.341,5.524,78.74,78.74,0,0,1-14.826,7.059.658.658,0,0,1-.232.043Zm12.5-16.512a12.316,12.316,0,0,0-12.316,12.316,12.319,12.319,0,0,0,.283,2.625,76.4,76.4,0,0,0,13.87-6.675,50.768,50.768,0,0,0,6.621-4.9,12.2,12.2,0,0,0-8.458-3.361Z" fill="#3a312a"/>
    <path id="Trazado_105374" data-name="Trazado 105374" d="M-280.937-98.512h-4.271V-102.6h-7.177v4.092h-4.272a6.462,6.462,0,0,0-6.465,6.459h0V-86.2h28.648v-5.852a6.462,6.462,0,0,0-6.462-6.46h0Z" fill="#f8e4c8"/>
    <path id="Trazado_105375" data-name="Trazado 105375" d="M-274.474-85.522h-28.648a.675.675,0,0,1-.675-.675v-5.852a7.146,7.146,0,0,1,7.14-7.135h3.6V-102.6a.675.675,0,0,1,.675-.675h7.177a.675.675,0,0,1,.675.675v3.417h3.6a7.145,7.145,0,0,1,7.139,7.135v5.855a.675.675,0,0,1-.675.675Zm-27.973-1.35h27.3v-5.177a5.793,5.793,0,0,0-5.788-5.785h-4.271a.675.675,0,0,1-.675-.675v-3.42h-5.827v3.417a.675.675,0,0,1-.675.675h-4.272a5.794,5.794,0,0,0-5.79,5.785Z" fill="#3a312a"/>
    <path id="Trazado_105376" data-name="Trazado 105376" d="M-274.474-92.049v5.857h-28.648v-5.857a6.463,6.463,0,0,1,5.365-6.367,6.534,6.534,0,0,1,1.1-.093h1.283l-.029.017,4.444,5.89,2.292-1.726,2.294,1.726,4.44-5.89-.026-.017h1.023A6.462,6.462,0,0,1-274.474-92.049Z" fill="#87796f"/>
    <path id="Trazado_105377" data-name="Trazado 105377" d="M-274.474-85.521h-28.648a.675.675,0,0,1-.675-.675v-5.853a7.114,7.114,0,0,1,5.928-7.032,7.234,7.234,0,0,1,1.212-.1h1.284a.673.673,0,0,1,.637.455l3.91,5.182,1.754-1.32a.672.672,0,0,1,.812,0l1.753,1.32,3.946-5.232a.661.661,0,0,1,.6-.4h1.023A7.138,7.138,0,0,1-273.8-92.04h0v5.857a.675.675,0,0,1-.676.674Zm-27.973-1.35h27.3v-5.178a5.78,5.78,0,0,0-5.775-5.785h-.658l-4.253,5.639a.675.675,0,0,1-.945.132l-1.887-1.42-1.886,1.42a.675.675,0,0,1-.945-.132l-4.254-5.639h-.9a5.791,5.791,0,0,0-5.791,5.785v5.182Z" fill="#3a312a"/>
    <path id="Trazado_105378" data-name="Trazado 105378" d="M-297.354-114.528a2.542,2.542,0,0,1-2.542,2.544,2.543,2.543,0,0,1-2.544-2.542,2.544,2.544,0,0,1,2.542-2.544h0a2.543,2.543,0,0,1,2.543,2.541Z" fill="#f8e4c8" fill-rule="evenodd"/>
    <path id="Trazado_105379" data-name="Trazado 105379" d="M-299.9-111.31a3.216,3.216,0,0,1-3.216-3.218,3.218,3.218,0,0,1,3.218-3.216,3.218,3.218,0,0,1,3.216,3.217A3.222,3.222,0,0,1-299.9-111.31Zm0-5.085a1.867,1.867,0,0,0-1.866,1.868,1.867,1.867,0,0,0,1.868,1.866,1.866,1.866,0,0,0,1.866-1.867A1.87,1.87,0,0,0-299.9-116.395Z" fill="#3a312a"/>
    <path id="Trazado_105380" data-name="Trazado 105380" d="M-275.154-114.528a2.544,2.544,0,0,1-2.542,2.546,2.544,2.544,0,0,1-2.546-2.542,2.544,2.544,0,0,1,2.542-2.546h0a2.544,2.544,0,0,1,2.544,2.542Z" fill="#f8e4c8" fill-rule="evenodd"/>
    <path id="Trazado_105381" data-name="Trazado 105381" d="M-277.7-111.31a3.217,3.217,0,0,1-3.215-3.219,3.217,3.217,0,0,1,3.219-3.215,3.217,3.217,0,0,1,3.215,3.217A3.222,3.222,0,0,1-277.7-111.31Zm0-5.085a1.867,1.867,0,0,0-1.865,1.869,1.867,1.867,0,0,0,1.869,1.865,1.867,1.867,0,0,0,1.865-1.867A1.871,1.871,0,0,0-277.7-116.395Z" fill="#3a312a"/>
    <path id="Trazado_105382" data-name="Trazado 105382" d="M-277.522-115.762c0,6.224-6,15.777-11.275,15.777-5.039,0-11.275-9.553-11.275-15.777a11.274,11.274,0,0,1,11.286-11.263A11.274,11.274,0,0,1-277.522-115.762Z" fill="#f8e4c8"/>
    <path id="Trazado_105383" data-name="Trazado 105383" d="M-288.8-99.309c-5.542,0-11.95-9.956-11.95-16.453A11.95,11.95,0,0,1-288.789-127.7a11.95,11.95,0,0,1,11.942,11.942c0,6.647-6.3,16.453-11.95,16.453Zm0-27.047a10.609,10.609,0,0,0-10.6,10.594c0,5.738,5.921,15.1,10.6,15.1,4.812,0,10.6-9.277,10.6-15.1A10.611,10.611,0,0,0-288.8-126.356Z" fill="#3a312a"/>
    <path id="Trazado_105384" data-name="Trazado 105384" d="M-291.677-115.889a1.1,1.1,0,0,1-1.1,1.1,1.1,1.1,0,0,1-1.1-1.1,1.1,1.1,0,0,1,1.1-1.1,1.1,1.1,0,0,1,1.1,1.1Z" fill="#3a312a"/>
    <path id="Trazado_105385" data-name="Trazado 105385" d="M-283.716-115.889a1.1,1.1,0,0,1-1.1,1.1,1.1,1.1,0,0,1-1.1-1.1,1.1,1.1,0,0,1,1.1-1.1,1.1,1.1,0,0,1,1.1,1.1Z" fill="#3a312a"/>
    <path id="Trazado_105386" data-name="Trazado 105386" d="M-293.081-112.619c0,.783-.849,1.416-1.9,1.416s-1.9-.633-1.9-1.416.848-1.417,1.9-1.417S-293.081-113.4-293.081-112.619Z" fill="#f59689"/>
    <path id="Trazado_105387" data-name="Trazado 105387" d="M-280.721-112.619c0,.783-.849,1.416-1.895,1.416s-1.9-.633-1.9-1.416.848-1.417,1.9-1.417S-280.721-113.4-280.721-112.619Z" fill="#f59689"/>
    <path id="Trazado_105388" data-name="Trazado 105388" d="M-295.363-98.479l2.3-1.736,4.44,5.893-2.3,1.736Z" fill="#87796f"/>
    <path id="Trazado_105389" data-name="Trazado 105389" d="M-290.959-91.932a.669.669,0,0,1-.539-.269l-4.441-5.888a.677.677,0,0,1,.132-.946l2.3-1.733a.675.675,0,0,1,.945.132l4.44,5.89a.674.674,0,0,1-.13.943l0,0-2.3,1.734a.676.676,0,0,1-.406.135Zm-3.5-6.431,3.629,4.811,1.223-.922-3.628-4.812Z" fill="#3a312a"/>
    <path id="Trazado_105390" data-name="Trazado 105390" d="M-286.347-92.636l-2.3-1.735,4.44-5.893,2.3,1.734Z" fill="#87796f"/>
    <path id="Trazado_105391" data-name="Trazado 105391" d="M-286.374-91.932a.675.675,0,0,1-.406-.136l-2.3-1.733a.676.676,0,0,1-.134-.946l4.441-5.89a.677.677,0,0,1,.945-.132l2.3,1.733a.677.677,0,0,1,.263.445.663.663,0,0,1-.13.5l-4.44,5.889a.672.672,0,0,1-.539.269Zm-1.356-2.541,1.223.921,3.628-4.811-1.223-.922Z" fill="#3a312a"/>
    <path id="Trazado_105392" data-name="Trazado 105392" d="M-277-118.367a10.9,10.9,0,0,0-3.775-8.211c.075-.291.139-.582.19-.871a3.941,3.941,0,0,0-.083-2.022c-.449-1.224-.864.292-2.228,1.415l-.012-.007a1.77,1.77,0,0,0-.746-1.916c-1.963-1.712.031-3.75-1.067-3.384a2.194,2.194,0,0,0-.9.66,6.746,6.746,0,0,0-.562.741,5.445,5.445,0,0,0-.646,1.342c-2.232-2.191.193-4.7-1.2-4.232a2.823,2.823,0,0,0-1.17.86,8.694,8.694,0,0,0-.735.964A6.247,6.247,0,0,0-291-130.1v.078c-3.419-1.656-1.817-5.641-3.246-4.43a3.7,3.7,0,0,0-1,1.613,11.413,11.413,0,0,0-.422,1.528,8.321,8.321,0,0,0,.065,3.853c-3.64-.222-4.247-4.365-4.927-2.513a4.11,4.11,0,0,0-.085,2.117,12.464,12.464,0,0,0,.431,1.712,10.377,10.377,0,0,0,1.222,2.542,10.706,10.706,0,0,0-1.366,5.236,4.729,4.729,0,0,0,.337,1.743c.105.288,1.774-.627,1.918-.727a6.081,6.081,0,0,0,1.727-1.929,6.726,6.726,0,0,0,.45-.947c.079-.209.186-.5.316-.814,1.963.586,4.236.246,5.171-1.689,1.188,2.854,5.236,2.39,7.169.622a6.566,6.566,0,0,0,.65-.694,16.227,16.227,0,0,1,1.171,2.575,6.616,6.616,0,0,0,.45.947,5.091,5.091,0,0,0,3.406,2.638c0-.072.093-.1.16-.12.483-.174.415-1.217.415-1.6Z" fill="#87796f"/>
    <path id="Trazado_105393" data-name="Trazado 105393" d="M-299.916-115.9a.813.813,0,0,1-.235-.032.749.749,0,0,1-.485-.462,5.434,5.434,0,0,1-.377-1.973,11.455,11.455,0,0,1,1.258-5.2,11.209,11.209,0,0,1-1.081-2.362,13.182,13.182,0,0,1-.455-1.806,4.7,4.7,0,0,1,.117-2.466c.082-.222.3-.812.873-.907.591-.1.973.372,1.414.917a5.079,5.079,0,0,0,2.415,1.9,9.6,9.6,0,0,1,.133-3.153,11.832,11.832,0,0,1,.447-1.619,4.265,4.265,0,0,1,1.2-1.9,1.2,1.2,0,0,1,1.152-.333c.544.2.635.753.742,1.4a4.212,4.212,0,0,0,1.282,2.746A7.57,7.57,0,0,1-290.5-133.4a9.509,9.509,0,0,1,.792-1.04,3.432,3.432,0,0,1,1.465-1.055,1.066,1.066,0,0,1,1.069.123c.4.359.286.865.178,1.355a3.242,3.242,0,0,0,.029,2.04c.068-.121.142-.239.219-.359a7.207,7.207,0,0,1,.621-.815,2.776,2.776,0,0,1,1.194-.855.93.93,0,0,1,.973.127,1.136,1.136,0,0,1,.184,1.19,1.954,1.954,0,0,0,.565,2.2,3.342,3.342,0,0,1,.793.969l.148-.181c.427-.529.8-.987,1.378-.889a1.208,1.208,0,0,1,.858.885,4.5,4.5,0,0,1,.114,2.373c-.031.171-.066.346-.105.522a11.622,11.622,0,0,1,3.7,8.442v.117c.01.608.026,1.722-.778,2.085a.34.34,0,0,1-.045.04.665.665,0,0,1-.525.147,5.722,5.722,0,0,1-3.894-2.968,7.1,7.1,0,0,1-.5-1.045l-.024-.062c-.148-.389-.382-1-.665-1.6l-.046.041a6.418,6.418,0,0,1-5.4,1.478,3.969,3.969,0,0,1-2.26-1.349,4.977,4.977,0,0,1-4.726,1.238l-.075.195-.023.06a7.3,7.3,0,0,1-.5,1.044,6.785,6.785,0,0,1-1.925,2.145,5.974,5.974,0,0,1-2.22.9Zm22.448-.843.243.631c.012-.006.027-.012.041-.02Zm.568.135-5.7-6.87h.047a.674.674,0,0,1,.529.32,16.38,16.38,0,0,1,1.2,2.627l.024.061a5.99,5.99,0,0,0,.4.85,4.572,4.572,0,0,0,2.659,2.255,3.03,3.03,0,0,0,.064-.865v-.141a10.286,10.286,0,0,0-3.546-7.7.677.677,0,0,1-.209-.674c.072-.28.132-.557.18-.824a3.914,3.914,0,0,0,.043-1.3l-.014.017a8.776,8.776,0,0,1-1.246,1.317.675.675,0,0,1-.777.058.64.64,0,0,1-.307-.8c.122-.367-.062-.771-.548-1.194a3.065,3.065,0,0,1-1.133-2.648,5.506,5.506,0,0,0-.387.525,4.756,4.756,0,0,0-.567,1.175.679.679,0,0,1-.481.454.673.673,0,0,1-.636-.174,3.913,3.913,0,0,1-1.109-3.7,3.237,3.237,0,0,0-.283.291,7.555,7.555,0,0,0-.676.888,5.546,5.546,0,0,0-.961,2.6v.068a.677.677,0,0,1-.712.64.665.665,0,0,1-.258-.066,5.122,5.122,0,0,1-2.815-4.2,3.792,3.792,0,0,0-.5,1,10.541,10.541,0,0,0-.4,1.436,7.628,7.628,0,0,0,.052,3.536.676.676,0,0,1-.464.835.663.663,0,0,1-.226.024,5.8,5.8,0,0,1-4.282-2.559l-.06-.072a3.956,3.956,0,0,0,.034,1.443,11.71,11.71,0,0,0,.408,1.62,9.638,9.638,0,0,0,1.141,2.374.675.675,0,0,1,.03.706,10.092,10.092,0,0,0-1.281,4.908,3.628,3.628,0,0,0,.131,1,9.55,9.55,0,0,0,1.069-.539,5.409,5.409,0,0,0,1.522-1.709,5.92,5.92,0,0,0,.4-.849l.021-.059c.079-.206.181-.473.3-.768a.674.674,0,0,1,.818-.393c1.5.449,3.549.366,4.371-1.337a.642.642,0,0,1,.626-.381.675.675,0,0,1,.605.415,2.519,2.519,0,0,0,1.9,1.54,5.051,5.051,0,0,0,4.194-1.157,6.143,6.143,0,0,0,.584-.623.678.678,0,0,1,.522-.249Z" fill="#3a312a"/>
    <path id="Trazado_105394" data-name="Trazado 105394" d="M-288.8-105.949a3.837,3.837,0,0,1-3.724-2.324.675.675,0,0,1,.328-.9.675.675,0,0,1,.891.316A2.517,2.517,0,0,0-288.8-107.3a2.634,2.634,0,0,0,2.485-1.5.675.675,0,0,1,.878-.374.675.675,0,0,1,.386.847A3.965,3.965,0,0,1-288.8-105.949Z" fill="#3a312a"/>
    <path id="Trazado_105395" data-name="Trazado 105395" d="M-297.755-88.058V-86.2h18.176V-98.369a6.45,6.45,0,0,0-1.357-.144h-1.023l.026.017-4.44,5.891-2.294-1.727-2.292,1.727L-295.4-98.5l.029-.017h-1.283a6.339,6.339,0,0,0-1.1.1v10.36Z" fill="#8ac5dc"/>
    <path id="Trazado_105396" data-name="Trazado 105396" d="M-279.579-85.521h-18.176a.675.675,0,0,1-.675-.675v-1.862a.675.675,0,0,1,.675-.675.675.675,0,0,1,.675.675v1.187h16.826V-97.8a5.783,5.783,0,0,0-.683-.041h-.645l-4.253,5.639a.675.675,0,0,1-.945.132l-1.887-1.42-1.886,1.42a.675.675,0,0,1-.945-.132l-4.254-5.639h-.9c-.141,0-.283,0-.423.015v2.491a.675.675,0,0,1-.675.675.675.675,0,0,1-.675-.675V-98.42a.674.674,0,0,1,.558-.665,7.279,7.279,0,0,1,1.215-.1h1.284a.673.673,0,0,1,.637.455l3.91,5.182,1.754-1.32a.672.672,0,0,1,.812,0l1.753,1.32,3.946-5.232a.661.661,0,0,1,.6-.4h1.023a7.137,7.137,0,0,1,1.5.159.675.675,0,0,1,.533.661v12.173a.675.675,0,0,1-.675.674Z" fill="#3a312a"/>
    <path id="Trazado_105397" data-name="Trazado 105397" d="M-202.626-86.2v-5.852a6.451,6.451,0,0,0-6.451-6.451h-4.273v-3.615h-7.166V-98.5h-4.27a6.455,6.455,0,0,0-6.462,6.448V-86.2Z" fill="#f5e1c5"/>
    <path id="Trazado_105398" data-name="Trazado 105398" d="M-202.626-85.522h-28.622a.675.675,0,0,1-.675-.675v-5.852a7.139,7.139,0,0,1,7.137-7.125h3.589v-2.94a.675.675,0,0,1,.675-.675h7.172a.675.675,0,0,1,.675.675v2.94h3.593a7.136,7.136,0,0,1,7.129,7.125V-86.2a.672.672,0,0,1-.669.675h0Zm-27.947-1.35H-203.3v-5.177a5.784,5.784,0,0,0-5.78-5.775h-4.268a.675.675,0,0,1-.675-.675v-2.94h-5.822v2.94a.675.675,0,0,1-.675.675h-4.264a5.788,5.788,0,0,0-5.787,5.775v5.176Z" fill="#3a312a"/>
    <path id="Trazado_105399" data-name="Trazado 105399" d="M-202.626-86.2v-5.852a6.45,6.45,0,0,0-6.449-6.451h-4.733l-3.132,4.154-3.128-4.154h-4.718a6.455,6.455,0,0,0-6.462,6.448V-86.2Z" fill="#89c4db"/>
    <path id="Trazado_105400" data-name="Trazado 105400" d="M-202.626-85.522h-28.622a.675.675,0,0,1-.675-.675v-5.852a7.139,7.139,0,0,1,7.137-7.125h4.718a.672.672,0,0,1,.538.268l2.59,3.44,2.593-3.44a.675.675,0,0,1,.539-.268h4.726a7.137,7.137,0,0,1,7.131,7.125V-86.2a.675.675,0,0,1-.675.675Zm-27.946-1.35H-203.3v-5.177a5.785,5.785,0,0,0-5.781-5.775h-4.39l-2.928,3.886a.676.676,0,0,1-.947.132.66.66,0,0,1-.132-.132l-2.926-3.885h-4.381a5.788,5.788,0,0,0-5.787,5.775Z" fill="#3a312a"/>
    <path id="Trazado_105401" data-name="Trazado 105401" d="M-223.7-98.5l2.3-1.731,4.428,5.889-2.3,1.729Z" fill="#89c4db"/>
    <path id="Trazado_105402" data-name="Trazado 105402" d="M-219.238-91.938a.675.675,0,0,1-.54-.27l-4.433-5.885a.674.674,0,0,1,.132-.944h0l2.3-1.733a.674.674,0,0,1,.943.128l0,0,4.433,5.889a.674.674,0,0,1-.133.944h0l-2.3,1.73a.669.669,0,0,1-.406.137Zm-3.488-6.428,3.621,4.807,1.221-.917-3.622-4.811Z" fill="#3a312a"/>
    <path id="Trazado_105403" data-name="Trazado 105403" d="M-210.2-98.5l-4.433,5.884-2.3-1.729,4.438-5.89Z" fill="#89c4db"/>
    <path id="Trazado_105404" data-name="Trazado 105404" d="M-214.637-91.938a.673.673,0,0,1-.4-.136l-2.3-1.73a.678.678,0,0,1-.264-.445.688.688,0,0,1,.129-.5l4.438-5.889a.683.683,0,0,1,.446-.263.679.679,0,0,1,.5.131l2.3,1.733a.677.677,0,0,1,.132.946l-4.434,5.883a.667.667,0,0,1-.539.27Zm-1.357-2.538,1.225.918,3.621-4.808-1.221-.921Z" fill="#3a312a"/>
    <path id="Trazado_105405" data-name="Trazado 105405" d="M-226.016-85.521a.675.675,0,0,1-.675-.675v-4.623a.675.675,0,0,1,.675-.675.675.675,0,0,1,.675.675h0V-86.2a.675.675,0,0,1-.675.675Z" fill="#3a312a"/>
    <path id="Trazado_105406" data-name="Trazado 105406" d="M-207.856-85.521a.675.675,0,0,1-.675-.675v-4.623a.675.675,0,0,1,.675-.675.675.675,0,0,1,.675.675h0V-86.2a.675.675,0,0,1-.675.675Z" fill="#3a312a"/>
    <path id="Trazado_105407" data-name="Trazado 105407" d="M-216.937-85.522a.675.675,0,0,1-.675-.675v-8.152a.675.675,0,0,1,.675-.675.675.675,0,0,1,.675.675V-86.2a.675.675,0,0,1-.675.675Z" fill="#3a312a"/>
    <path id="Trazado_105408" data-name="Trazado 105408" d="M-225.332-114a2.5,2.5,0,0,1-2.494,2.506,2.5,2.5,0,0,1-2.506-2.494,2.5,2.5,0,0,1,2.494-2.506h.006A2.5,2.5,0,0,1-225.332-114Z" fill="#f7e3c7" fill-rule="evenodd"/>
    <path id="Trazado_105409" data-name="Trazado 105409" d="M-227.829-110.835A3.17,3.17,0,0,1-231-114.007a3.17,3.17,0,0,1,3.172-3.168A3.17,3.17,0,0,1-224.657-114,3.174,3.174,0,0,1-227.829-110.835Zm0-4.989A1.819,1.819,0,0,0-229.645-114a1.819,1.819,0,0,0,1.822,1.816A1.819,1.819,0,0,0-226.007-114,1.823,1.823,0,0,0-227.829-115.824Z" fill="#3a312a"/>
    <path id="Trazado_105410" data-name="Trazado 105410" d="M-203.55-114a2.5,2.5,0,0,1-2.494,2.506,2.5,2.5,0,0,1-2.506-2.494,2.5,2.5,0,0,1,2.494-2.506h.011A2.5,2.5,0,0,1-203.55-114Z" fill="#f7e3c7" fill-rule="evenodd"/>
    <path id="Trazado_105411" data-name="Trazado 105411" d="M-206.045-110.835a3.17,3.17,0,0,1-3.17-3.17,3.17,3.17,0,0,1,3.17-3.17,3.17,3.17,0,0,1,3.17,3.17h0A3.174,3.174,0,0,1-206.045-110.835Zm0-4.989a1.819,1.819,0,0,0-1.818,1.82,1.819,1.819,0,0,0,1.82,1.818A1.819,1.819,0,0,0-204.225-114,1.822,1.822,0,0,0-206.045-115.824Z" fill="#3a312a"/>
    <path id="Trazado_105412" data-name="Trazado 105412" d="M-205.874-115.215c0,6.108-5.884,15.482-11.063,15.482-4.943,0-11.064-9.374-11.064-15.482a11.064,11.064,0,0,1,11.168-10.959,11.064,11.064,0,0,1,10.959,10.959Z" fill="#f7e3c7"/>
    <path id="Trazado_105413" data-name="Trazado 105413" d="M-216.937-99.058c-5.443,0-11.739-9.778-11.739-16.157a11.738,11.738,0,0,1,11.738-11.738A11.738,11.738,0,0,1-205.2-115.215c0,6.526-6.182,16.157-11.738,16.157Zm0-26.54a10.4,10.4,0,0,0-10.389,10.383c0,5.626,5.8,14.807,10.389,14.807,4.717,0,10.388-9.1,10.388-14.807A10.4,10.4,0,0,0-216.937-125.6Z" fill="#3a312a"/>
    <path id="Trazado_105414" data-name="Trazado 105414" d="M-219.764-115.34a1.08,1.08,0,0,1-1.08,1.08,1.08,1.08,0,0,1-1.08-1.08,1.081,1.081,0,0,1,1.08-1.08h0a1.079,1.079,0,0,1,1.079,1.079Z" fill="#3a312a"/>
    <path id="Trazado_105415" data-name="Trazado 105415" d="M-211.951-115.34a1.08,1.08,0,0,1-1.08,1.08,1.08,1.08,0,0,1-1.08-1.08,1.081,1.081,0,0,1,1.08-1.08h0a1.08,1.08,0,0,1,1.08,1.078Z" fill="#3a312a"/>
    <path id="Trazado_105416" data-name="Trazado 105416" d="M-221.141-112.132c0,.769-.833,1.391-1.861,1.391s-1.859-.622-1.859-1.391.831-1.39,1.859-1.39S-221.141-112.9-221.141-112.132Z" fill="#f59689"/>
    <path id="Trazado_105417" data-name="Trazado 105417" d="M-209.016-112.132c0,.769-.832,1.391-1.86,1.391s-1.859-.622-1.859-1.391.831-1.39,1.859-1.39S-209.016-112.9-209.016-112.132Z" fill="#f59689"/>
    <path id="Trazado_105418" data-name="Trazado 105418" d="M-216.81-128.714a11.206,11.206,0,0,0-11.451,10.943,4.687,4.687,0,0,0,.33,1.712c.1.281,1.742-.615,1.881-.715a5.949,5.949,0,0,0,1.7-1.892,6.475,6.475,0,0,0,.442-.929c.377-1,1.4-3.761,2.444-3.544a24.024,24.024,0,0,0,9.317,0c1.041-.217,2.067,2.55,2.444,3.544a6.638,6.638,0,0,0,.442.929,5,5,0,0,0,3.342,2.587c0-.069.092-.092.157-.117.475-.172.408-1.195.408-1.575a11.206,11.206,0,0,0-11.452-10.943Z" fill="#87796f"/>
    <path id="Trazado_105419" data-name="Trazado 105419" d="M-227.846-115.338a.746.746,0,0,1-.72-.492,5.346,5.346,0,0,1-.37-1.941,12.138,12.138,0,0,1,12.655-11.6,12.138,12.138,0,0,1,11.6,11.6v.12c.008.6.025,1.7-.771,2.056-.014.014-.029.027-.044.04a.671.671,0,0,1-.524.144,5.626,5.626,0,0,1-3.829-2.917,7.218,7.218,0,0,1-.489-1.028l-.023-.062c-1.026-2.706-1.55-3.026-1.687-3.059a23,23,0,0,1-4.761.469,23.518,23.518,0,0,1-4.8-.47c-.1.034-.626.355-1.651,3.06l-.024.062a7.03,7.03,0,0,1-.487,1.026,6.667,6.667,0,0,1-1.893,2.11,5.856,5.856,0,0,1-2.184.882Zm22.028-.839.24.63a.159.159,0,0,0,.042-.019Zm.568.138-6.771-7.789c1.25,0,2.143,1.876,2.921,3.929l.025.063a5.692,5.692,0,0,0,.4.833,4.482,4.482,0,0,0,2.589,2.2,3.032,3.032,0,0,0,.059-.834v-.139a10.789,10.789,0,0,0-11.3-10.257,10.788,10.788,0,0,0-10.257,10.257,3.587,3.587,0,0,0,.124.962,9.806,9.806,0,0,0,1.034-.521,5.316,5.316,0,0,0,1.49-1.675,5.9,5.9,0,0,0,.4-.83l.024-.063c.834-2.2,1.8-4.191,3.189-3.9a23.394,23.394,0,0,0,9.042,0,1.406,1.406,0,0,1,.267-.027Z" fill="#3a312a"/>
    <path id="Trazado_105420" data-name="Trazado 105420" d="M-216.937-105.57a3.775,3.775,0,0,1-3.667-2.287.675.675,0,0,1,.311-.9.676.676,0,0,1,.9.311l.005.011a2.46,2.46,0,0,0,2.448,1.517,2.565,2.565,0,0,0,2.424-1.464.676.676,0,0,1,.869-.4.675.675,0,0,1,.4.869,3.9,3.9,0,0,1-3.689,2.341Z" fill="#3a312a"/>
    <path id="Trazado_105421" data-name="Trazado 105421" d="M-208.231-127.258c0,3.139-3.889,5.683-8.685,5.683s-8.686-2.544-8.686-5.683,8.364-6.755,8.686-6.755C-216.81-134.013-208.231-130.4-208.231-127.258Z" fill="#87796f"/>
    <path id="Trazado_105422" data-name="Trazado 105422" d="M-216.916-120.9c-5.161,0-9.36-2.852-9.36-6.358,0-3.695,8.94-7.43,9.36-7.43s9.361,3.735,9.361,7.43C-207.555-123.752-211.755-120.9-216.916-120.9Zm-.025-12.4c-1.446.5-7.985,3.753-7.985,6.048,0,2.761,3.593,5.008,8.011,5.008s8.01-2.247,8.01-5.008C-208.9-129.494-215.384-132.688-216.941-133.3Z" fill="#3a312a"/>
    <path id="Trazado_105423" data-name="Trazado 105423" d="M-203.3-92.049v5.175h-3.884v-3.945a.675.675,0,0,0-.675-.675.675.675,0,0,0-.675.675h0v3.946h-1.516v-5.176a5.736,5.736,0,0,0-1.363-3.716l1.548-2.057h.783c.2,0,.4.008.589.027a5.791,5.791,0,0,1,5.193,5.746Z" fill="#6ca8bf"/>
  </g>
</svg>
