<svg xmlns="http://www.w3.org/2000/svg" width="104.85" height="101.818" viewBox="0 0 104.85 101.818">
  <g id="Grupo_55607" data-name="Grupo 55607" transform="translate(304.797 -2667.752)">
    <path id="Trazado_105829" data-name="Trazado 105829" d="M-288.915,2672.78s1.534,5.7,5.95,5.96c0,0-5.9,2.037-5.994,6.391,0,0-1.16-6.107-5.816-6.327,0,0,5.422-.821,5.86-6.024Z" fill="#fcb268"/>
    <path id="Trazado_105830" data-name="Trazado 105830" d="M-288.96,2685.806a.674.674,0,0,1-.662-.547c-.011-.056-1.123-5.589-5.186-5.78a.676.676,0,0,1-.64-.71.678.678,0,0,1,.571-.633c.2-.03,4.9-.816,5.29-5.414a.676.676,0,0,1,.73-.615.677.677,0,0,1,.594.5c.014.052,1.466,5.232,5.338,5.464a.675.675,0,0,1,.631.716.675.675,0,0,1-.451.595c-.054.019-5.452,1.94-5.54,5.769a.675.675,0,0,1-.619.657h-.056Zm-3.483-7.078a7.871,7.871,0,0,1,3.414,3.994A9.591,9.591,0,0,1-285,2678.93a8.234,8.234,0,0,1-3.75-3.925A7.252,7.252,0,0,1-292.443,2678.728Z" fill="#3a312a"/>
    <path id="Trazado_105831" data-name="Trazado 105831" d="M-298.68,2680.42s1.085,4.031,4.21,4.217c0,0-4.17,1.44-4.24,4.521,0,0-.822-4.321-4.115-4.476C-302.825,2684.682-298.989,2684.1-298.68,2680.42Z" fill="#fcb268"/>
    <path id="Trazado_105832" data-name="Trazado 105832" d="M-298.711,2689.833a.675.675,0,0,1-.663-.55c-.007-.036-.766-3.8-3.482-3.927a.675.675,0,0,1-.64-.708.677.677,0,0,1,.57-.633c.134-.022,3.315-.56,3.575-3.652a.674.674,0,0,1,.73-.615.674.674,0,0,1,.594.495c.009.035,1,3.564,3.6,3.72a.675.675,0,0,1,.631.716.675.675,0,0,1-.451.595c-.037.013-3.727,1.329-3.785,3.9a.675.675,0,0,1-.619.657.268.268,0,0,1-.056,0Zm-2.034-5.188a5.787,5.787,0,0,1,2,2.375,7.054,7.054,0,0,1,2.413-2.237,6.024,6.024,0,0,1-2.223-2.351,5.378,5.378,0,0,1-2.192,2.213Z" fill="#3a312a"/>
    <path id="Trazado_105833" data-name="Trazado 105833" d="M-298.68,2668.425s1.085,4.029,4.21,4.216c0,0-4.17,1.441-4.24,4.52,0,0-.822-4.319-4.115-4.475C-302.825,2672.686-298.989,2672.106-298.68,2668.425Z" fill="#fcb268"/>
    <path id="Trazado_105834" data-name="Trazado 105834" d="M-298.711,2677.836a.675.675,0,0,1-.663-.549c-.007-.036-.766-3.8-3.482-3.926a.675.675,0,0,1-.645-.7.675.675,0,0,1,.575-.638c.133-.021,3.313-.559,3.573-3.65a.676.676,0,0,1,.732-.614.675.675,0,0,1,.593.493c.009.036,1,3.565,3.6,3.72a.676.676,0,0,1,.635.713.675.675,0,0,1-.454.6c-.037.012-3.727,1.328-3.785,3.9a.675.675,0,0,1-.62.657h-.059Zm-2.034-5.186a5.773,5.773,0,0,1,2,2.375,7.059,7.059,0,0,1,2.413-2.238,6.014,6.014,0,0,1-2.223-2.351,5.374,5.374,0,0,1-2.192,2.214Z" fill="#3a312a"/>
    <path id="Trazado_105835" data-name="Trazado 105835" d="M-300.8,2725.836v31.236a.9.9,0,0,0,.9.9h95.064a.9.9,0,0,0,.9-.9V2698.45a7.261,7.261,0,0,0-7.261-7.261H-293.54a7.261,7.261,0,0,0-7.261,7.261Z" fill="#87796f"/>
    <path id="Trazado_105836" data-name="Trazado 105836" d="M-204.84,2758.643H-299.9a1.572,1.572,0,0,1-1.572-1.571v-31.236a.675.675,0,0,1,.675-.675.675.675,0,0,1,.675.675v31.236a.222.222,0,0,0,.222.221h95.064a.222.222,0,0,0,.222-.221V2698.45a6.6,6.6,0,0,0-6.586-6.586H-293.54a6.594,6.594,0,0,0-6.582,6.586v21.1a.675.675,0,0,1-.675.675.675.675,0,0,1-.675-.675h0v-21.1a7.945,7.945,0,0,1,7.936-7.936H-211.2a7.945,7.945,0,0,1,7.936,7.936v58.618a1.572,1.572,0,0,1-1.572,1.571Z" fill="#3a312a"/>
    <path id="Trazado_105837" data-name="Trazado 105837" d="M-232.49,2698.922H-290.8a2.517,2.517,0,0,0-2.517,2.517v46.283a2.518,2.518,0,0,0,2.517,2.518h76.866a2.517,2.517,0,0,0,2.517-2.517h0v-46.283a2.516,2.516,0,0,0-2.515-2.517H-232.49Z" fill="#fce8cb"/>
    <path id="Trazado_105838" data-name="Trazado 105838" d="M-213.939,2750.915H-290.8a3.2,3.2,0,0,1-3.192-3.193v-46.283a3.2,3.2,0,0,1,3.192-3.192h58.315a.675.675,0,0,1,.675.675.675.675,0,0,1-.675.675H-290.8a1.844,1.844,0,0,0-1.842,1.842v46.283a1.844,1.844,0,0,0,1.842,1.843h76.866a1.844,1.844,0,0,0,1.842-1.843v-46.283a1.844,1.844,0,0,0-1.842-1.842h-12.415a.675.675,0,0,1-.675-.675.675.675,0,0,1,.675-.675h12.415a3.2,3.2,0,0,1,3.192,3.192v46.283A3.2,3.2,0,0,1-213.939,2750.915Z" fill="#3a312a"/>
    <path id="Trazado_105839" data-name="Trazado 105839" d="M-250.312,2695.31a1.978,1.978,0,0,1-1.642,2.265,1.979,1.979,0,0,1-2.265-1.642,1.979,1.979,0,0,1,1.642-2.265,1.981,1.981,0,0,1,.624,0A1.981,1.981,0,0,1-250.312,2695.31Z" fill="#3a312a"/>
    <path id="Trazado_105840" data-name="Trazado 105840" d="M-200.622,2757.969v3.938a6.988,6.988,0,0,1-6.988,6.988h-89.524a6.988,6.988,0,0,1-6.988-6.988h0v-3.938Z" fill="#87796f"/>
    <path id="Trazado_105841" data-name="Trazado 105841" d="M-207.61,2769.57h-89.524a7.672,7.672,0,0,1-7.663-7.663v-3.938a.675.675,0,0,1,.675-.675h103.5a.675.675,0,0,1,.675.675v3.938A7.672,7.672,0,0,1-207.61,2769.57Zm-95.837-10.927v3.264a6.32,6.32,0,0,0,6.313,6.313h89.524a6.32,6.32,0,0,0,6.313-6.313v-3.264Z" fill="#3a312a"/>
    <path id="Trazado_105842" data-name="Trazado 105842" d="M-200.622,2757.969v3.938a6.988,6.988,0,0,1-6.988,6.988h-89.524a6.988,6.988,0,0,1-6.988-6.988h0v-3.938Z" fill="#87796f"/>
    <path id="Trazado_105843" data-name="Trazado 105843" d="M-207.61,2769.57h-89.524a7.672,7.672,0,0,1-7.663-7.663v-3.938a.675.675,0,0,1,.675-.675h103.5a.675.675,0,0,1,.675.675v3.938A7.672,7.672,0,0,1-207.61,2769.57Zm-95.837-10.927v3.264a6.32,6.32,0,0,0,6.313,6.313h89.524a6.32,6.32,0,0,0,6.313-6.313v-3.264Z" fill="#3a312a"/>
    <path id="Trazado_105844" data-name="Trazado 105844" d="M-213.938,2699.6h-6.75a1.844,1.844,0,0,1,1.841,1.84v46.283a1.842,1.842,0,0,1-1.841,1.84h6.75a1.842,1.842,0,0,0,1.841-1.84v-46.283A1.844,1.844,0,0,0-213.938,2699.6Z" fill="#decaad"/>
    <path id="Trazado_105845" data-name="Trazado 105845" d="M-261.422,2738.972a2.4,2.4,0,0,0,2.4,2.4h34.91a2.4,2.4,0,0,0,2.4-2.4v-25.651a2.4,2.4,0,0,0-2.4-2.4h-34.91a2.4,2.4,0,0,0-2.4,2.4Z" fill="#8ac6dd"/>
    <path id="Trazado_105846" data-name="Trazado 105846" d="M-224.117,2742.05h-34.9a3.078,3.078,0,0,1-3.075-3.074v-25.655a3.078,3.078,0,0,1,3.075-3.071h34.91a3.077,3.077,0,0,1,3.074,3.074v25.652a3.076,3.076,0,0,1-3.074,3.074Zm-34.91-30.45a1.726,1.726,0,0,0-1.725,1.724v25.652a1.726,1.726,0,0,0,1.725,1.724h34.91a1.725,1.725,0,0,0,1.724-1.724v-25.655a1.725,1.725,0,0,0-1.724-1.724Z" fill="#3a312a"/>
    <path id="Trazado_105847" data-name="Trazado 105847" d="M-221.722,2716.265v-2.944a2.4,2.4,0,0,0-2.4-2.4h-34.9a2.4,2.4,0,0,0-2.4,2.4v2.944Z" fill="#ed6e7a"/>
    <path id="Trazado_105848" data-name="Trazado 105848" d="M-221.722,2716.94h-39.7a.675.675,0,0,1-.675-.675v-2.944a3.077,3.077,0,0,1,3.075-3.071h34.911a3.077,3.077,0,0,1,3.074,3.074v2.944a.675.675,0,0,1-.675.675Zm-39.035-1.35H-222.4v-2.269a1.725,1.725,0,0,0-1.724-1.724h-34.906a1.726,1.726,0,0,0-1.724,1.724Z" fill="#3a312a"/>
    <path id="Trazado_105849" data-name="Trazado 105849" d="M-236,2723.631h-1.847a1.347,1.347,0,0,1-1.347-1.347h0v-1.847a1.346,1.346,0,0,1,1.346-1.346H-236a1.347,1.347,0,0,1,1.347,1.345h0v1.847a1.346,1.346,0,0,1-1.346,1.348Z" fill="#ed6e7a"/>
    <path id="Trazado_105850" data-name="Trazado 105850" d="M-236,2724.306h-1.847a2.024,2.024,0,0,1-2.022-2.023v-1.847a2.023,2.023,0,0,1,2.022-2.021H-236a2.024,2.024,0,0,1,2.022,2.021v1.847A2.024,2.024,0,0,1-236,2724.306Zm-1.847-4.541a.673.673,0,0,0-.672.671v1.847a.672.672,0,0,0,.671.673H-236a.672.672,0,0,0,.672-.672h0v-1.847a.673.673,0,0,0-.672-.671Z" fill="#3a312a"/>
    <path id="Trazado_105851" data-name="Trazado 105851" d="M-254.582,2723.631h-1.847a1.348,1.348,0,0,1-1.348-1.348v-1.847a1.347,1.347,0,0,1,1.348-1.346h1.847a1.345,1.345,0,0,1,1.346,1.344v1.849a1.346,1.346,0,0,1-1.344,1.348Z" fill="#f4e0c4"/>
    <path id="Trazado_105852" data-name="Trazado 105852" d="M-254.582,2724.306h-1.847a2.025,2.025,0,0,1-2.023-2.023v-1.847a2.025,2.025,0,0,1,2.023-2.021h1.847a2.025,2.025,0,0,1,2.021,2.021v1.847A2.024,2.024,0,0,1-254.582,2724.306Zm-1.847-4.541a.673.673,0,0,0-.673.671h0v1.847a.673.673,0,0,0,.673.673h1.847a.672.672,0,0,0,.671-.673v-1.847a.673.673,0,0,0-.671-.671Z" fill="#3a312a"/>
    <path id="Trazado_105853" data-name="Trazado 105853" d="M-245.293,2723.631h-1.847a1.347,1.347,0,0,1-1.347-1.347h0v-1.847a1.346,1.346,0,0,1,1.346-1.346h1.848a1.347,1.347,0,0,1,1.347,1.346v1.847A1.348,1.348,0,0,1-245.293,2723.631Z" fill="#ed6e7a"/>
    <path id="Trazado_105854" data-name="Trazado 105854" d="M-245.294,2724.306h-1.846a2.024,2.024,0,0,1-2.022-2.023v-1.847a2.023,2.023,0,0,1,2.022-2.021h1.846a2.025,2.025,0,0,1,2.023,2.021v1.847A2.025,2.025,0,0,1-245.294,2724.306Zm-1.846-4.541a.673.673,0,0,0-.672.671v1.847a.672.672,0,0,0,.671.673h1.847a.673.673,0,0,0,.673-.673h0v-1.847a.673.673,0,0,0-.673-.671h-1.846Z" fill="#3a312a"/>
    <path id="Trazado_105855" data-name="Trazado 105855" d="M-226.715,2723.631h-1.847a1.348,1.348,0,0,1-1.348-1.348v-1.847a1.347,1.347,0,0,1,1.348-1.346h1.847a1.347,1.347,0,0,1,1.347,1.346v1.847a1.346,1.346,0,0,1-1.344,1.348Z" fill="#ed6e7a"/>
    <path id="Trazado_105856" data-name="Trazado 105856" d="M-226.715,2724.306h-1.847a2.024,2.024,0,0,1-2.021-2.023v-1.847a2.023,2.023,0,0,1,2.021-2.021h1.847a2.025,2.025,0,0,1,2.023,2.021v1.847a2.025,2.025,0,0,1-2.023,2.023Zm-1.847-4.541a.673.673,0,0,0-.671.671v1.847a.672.672,0,0,0,.671.673h1.847a.673.673,0,0,0,.673-.673h0v-1.847a.673.673,0,0,0-.673-.671h-1.847Z" fill="#3a312a"/>
    <path id="Trazado_105857" data-name="Trazado 105857" d="M-254.582,2731.11h-1.847a1.348,1.348,0,0,1-1.348-1.348v-1.847a1.347,1.347,0,0,1,1.348-1.346h1.847a1.346,1.346,0,0,1,1.346,1.346h0v1.847a1.346,1.346,0,0,1-1.346,1.348Z" fill="#f4e0c4"/>
    <path id="Trazado_105858" data-name="Trazado 105858" d="M-254.582,2731.785h-1.847a2.025,2.025,0,0,1-2.023-2.023v-1.847a2.025,2.025,0,0,1,2.023-2.021h1.847a2.025,2.025,0,0,1,2.021,2.021v1.847A2.024,2.024,0,0,1-254.582,2731.785Zm-1.847-4.541a.673.673,0,0,0-.673.671h0v1.847a.673.673,0,0,0,.673.673h1.847a.672.672,0,0,0,.671-.673v-1.847a.673.673,0,0,0-.671-.671Z" fill="#3a312a"/>
    <path id="Trazado_105859" data-name="Trazado 105859" d="M-245.293,2731.11h-1.847a1.347,1.347,0,0,1-1.347-1.347h0v-1.847a1.346,1.346,0,0,1,1.346-1.346h1.848a1.347,1.347,0,0,1,1.347,1.346v1.847A1.348,1.348,0,0,1-245.293,2731.11Z" fill="#f4e0c4"/>
    <path id="Trazado_105860" data-name="Trazado 105860" d="M-245.294,2731.785h-1.846a2.024,2.024,0,0,1-2.022-2.023v-1.847a2.024,2.024,0,0,1,2.022-2.021h1.846a2.025,2.025,0,0,1,2.023,2.021v1.847A2.025,2.025,0,0,1-245.294,2731.785Zm-1.846-4.541a.673.673,0,0,0-.672.671v1.847a.672.672,0,0,0,.671.673h1.847a.673.673,0,0,0,.673-.673h0v-1.847a.673.673,0,0,0-.673-.671h-1.846Z" fill="#3a312a"/>
    <path id="Trazado_105861" data-name="Trazado 105861" d="M-236,2731.11h-1.847a1.347,1.347,0,0,1-1.347-1.347h0v-1.847a1.346,1.346,0,0,1,1.346-1.346H-236a1.347,1.347,0,0,1,1.347,1.346v1.847A1.348,1.348,0,0,1-236,2731.11Z" fill="#f4e0c4"/>
    <path id="Trazado_105862" data-name="Trazado 105862" d="M-236,2731.785h-1.847a2.024,2.024,0,0,1-2.022-2.023v-1.847a2.024,2.024,0,0,1,2.022-2.021H-236a2.024,2.024,0,0,1,2.022,2.021v1.847A2.024,2.024,0,0,1-236,2731.785Zm-1.847-4.541a.673.673,0,0,0-.672.671v1.847a.672.672,0,0,0,.671.673H-236a.672.672,0,0,0,.672-.672h0v-1.847a.673.673,0,0,0-.672-.671Z" fill="#3a312a"/>
    <path id="Trazado_105863" data-name="Trazado 105863" d="M-226.715,2731.11h-1.847a1.348,1.348,0,0,1-1.348-1.348v-1.847a1.347,1.347,0,0,1,1.348-1.346h1.847a1.347,1.347,0,0,1,1.347,1.346v1.847a1.346,1.346,0,0,1-1.346,1.348Z" fill="#f4e0c4"/>
    <path id="Trazado_105864" data-name="Trazado 105864" d="M-226.715,2731.785h-1.847a2.024,2.024,0,0,1-2.021-2.023v-1.847a2.025,2.025,0,0,1,2.021-2.021h1.847a2.025,2.025,0,0,1,2.023,2.021v1.847a2.025,2.025,0,0,1-2.023,2.023Zm-1.847-4.541a.673.673,0,0,0-.671.671v1.847a.672.672,0,0,0,.671.673h1.847a.673.673,0,0,0,.673-.673h0v-1.847a.673.673,0,0,0-.673-.671h-1.847Z" fill="#3a312a"/>
    <path id="Trazado_105865" data-name="Trazado 105865" d="M-254.582,2738.589h-1.847a1.348,1.348,0,0,1-1.348-1.347V2735.4a1.347,1.347,0,0,1,1.347-1.347h1.848a1.345,1.345,0,0,1,1.346,1.344v1.85A1.346,1.346,0,0,1-254.582,2738.589Z" fill="#f4e0c4"/>
    <path id="Trazado_105866" data-name="Trazado 105866" d="M-254.582,2739.264h-1.847a2.023,2.023,0,0,1-2.023-2.022V2735.4a2.024,2.024,0,0,1,2.023-2.022h1.847a2.024,2.024,0,0,1,2.021,2.022v1.847A2.023,2.023,0,0,1-254.582,2739.264Zm-1.847-4.541a.673.673,0,0,0-.673.671h0v1.847a.672.672,0,0,0,.672.672h1.848a.671.671,0,0,0,.671-.672V2735.4a.673.673,0,0,0-.671-.672Z" fill="#3a312a"/>
    <path id="Trazado_105867" data-name="Trazado 105867" d="M-245.293,2738.589h-1.847a1.347,1.347,0,0,1-1.347-1.347V2735.4a1.346,1.346,0,0,1,1.345-1.347h1.849a1.347,1.347,0,0,1,1.347,1.345v1.849A1.348,1.348,0,0,1-245.293,2738.589Z" fill="#f4e0c4"/>
    <path id="Trazado_105868" data-name="Trazado 105868" d="M-245.294,2739.264h-1.846a2.024,2.024,0,0,1-2.022-2.022V2735.4a2.024,2.024,0,0,1,2.022-2.022h1.846a2.024,2.024,0,0,1,2.023,2.022v1.847A2.023,2.023,0,0,1-245.294,2739.264Zm-1.846-4.541a.672.672,0,0,0-.672.672v1.847a.672.672,0,0,0,.672.672h1.846a.672.672,0,0,0,.673-.671h0V2735.4a.672.672,0,0,0-.672-.672h-1.847Z" fill="#3a312a"/>
    <path id="Trazado_105869" data-name="Trazado 105869" d="M-236,2738.589h-1.847a1.347,1.347,0,0,1-1.347-1.347V2735.4a1.346,1.346,0,0,1,1.345-1.347H-236a1.347,1.347,0,0,1,1.347,1.345v1.849A1.348,1.348,0,0,1-236,2738.589Z" fill="#f4e0c4"/>
    <path id="Trazado_105870" data-name="Trazado 105870" d="M-236,2739.264h-1.847a2.024,2.024,0,0,1-2.022-2.022V2735.4a2.024,2.024,0,0,1,2.022-2.022H-236a2.024,2.024,0,0,1,2.022,2.022v1.847A2.024,2.024,0,0,1-236,2739.264Zm-1.847-4.541a.672.672,0,0,0-.672.672v1.847a.672.672,0,0,0,.672.672H-236a.672.672,0,0,0,.672-.672V2735.4a.672.672,0,0,0-.672-.672Z" fill="#3a312a"/>
    <path id="Trazado_105871" data-name="Trazado 105871" d="M-226.715,2738.589h-1.847a1.348,1.348,0,0,1-1.348-1.347V2735.4a1.347,1.347,0,0,1,1.347-1.347h1.848a1.347,1.347,0,0,1,1.347,1.345v1.849a1.347,1.347,0,0,1-1.347,1.347Z" fill="#f4e0c4"/>
    <path id="Trazado_105872" data-name="Trazado 105872" d="M-226.715,2739.264h-1.847a2.023,2.023,0,0,1-2.021-2.022V2735.4a2.024,2.024,0,0,1,2.021-2.022h1.847a2.024,2.024,0,0,1,2.023,2.022v1.847a2.023,2.023,0,0,1-2.023,2.022Zm-1.847-4.541a.673.673,0,0,0-.671.672v1.847a.671.671,0,0,0,.671.672h1.847a.672.672,0,0,0,.673-.671h0V2735.4a.672.672,0,0,0-.672-.672h-1.848Z" fill="#3a312a"/>
    <path id="Trazado_105873" data-name="Trazado 105873" d="M-247.184,2713.777a1.636,1.636,0,0,1-1.637-1.635v-2.857a1.636,1.636,0,0,1,1.632-1.641,1.637,1.637,0,0,1,1.642,1.632v2.864A1.638,1.638,0,0,1-247.184,2713.777Z" fill="#8ac6dd"/>
    <path id="Trazado_105874" data-name="Trazado 105874" d="M-247.184,2714.45a2.314,2.314,0,0,1-2.312-2.312v-2.855a2.312,2.312,0,0,1,2.308-2.316,2.312,2.312,0,0,1,2.316,2.308v2.863a2.315,2.315,0,0,1-2.312,2.312Zm0-6.129a.962.962,0,0,0-.962.962h0v2.855a.962.962,0,0,0,.962.962.962.962,0,0,0,.962-.962v-2.855A.964.964,0,0,0-247.184,2708.321Z" fill="#3a312a"/>
    <path id="Trazado_105875" data-name="Trazado 105875" d="M-235.96,2713.777a1.637,1.637,0,0,1-1.637-1.637v-2.855a1.636,1.636,0,0,1,1.632-1.641,1.637,1.637,0,0,1,1.642,1.632v2.864a1.636,1.636,0,0,1-1.635,1.637Z" fill="#8ac6dd"/>
    <path id="Trazado_105876" data-name="Trazado 105876" d="M-235.96,2714.45a2.314,2.314,0,0,1-2.312-2.312v-2.855a2.312,2.312,0,0,1,2.308-2.316,2.312,2.312,0,0,1,2.316,2.308v2.863a2.314,2.314,0,0,1-2.312,2.312Zm0-6.129a.964.964,0,0,0-.962.962v2.855a.962.962,0,0,0,.962.962.962.962,0,0,0,.962-.962v-2.855a.962.962,0,0,0-.962-.962Z" fill="#3a312a"/>
    <rect id="Rectángulo_5337" data-name="Rectángulo 5337" width="2.524" height="33.151" transform="translate(-274.976 2717.088)" fill="#87796f"/>
    <path id="Trazado_105877" data-name="Trazado 105877" d="M-272.452,2750.915h-2.524a.675.675,0,0,1-.675-.675v-33.152a.675.675,0,0,1,.675-.675h2.524a.675.675,0,0,1,.675.675v33.152a.675.675,0,0,1-.675.675Zm-1.849-1.35h1.174v-31.8H-274.3Z" fill="#3a312a"/>
    <path id="Trazado_105878" data-name="Trazado 105878" d="M-264.4,2711.326l-2.678,2.725-.008.039-1.082,5.541-.541,2.776h-10l-.542-2.776-1.083-5.539-.008-.04-2.678-2.724.156-.23a4.071,4.071,0,0,1,3.379-1.8h3.256v-3.1h5.043v3.1h3.257a4.08,4.08,0,0,1,3.38,1.8Z" fill="#87796f"/>
    <path id="Trazado_105879" data-name="Trazado 105879" d="M-268.71,2723.081h-10a.674.674,0,0,1-.662-.545l-1.593-8.156-2.538-2.58a.674.674,0,0,1-.076-.853l.156-.229a4.736,4.736,0,0,1,3.937-2.1h2.581v-2.427a.675.675,0,0,1,.675-.675h5.043a.675.675,0,0,1,.675.673v2.429h2.582a4.743,4.743,0,0,1,3.939,2.1l.157.235a.676.676,0,0,1-.081.848l-2.536,2.58-1.592,8.155a.672.672,0,0,1-.662.545Zm-9.449-1.35h8.892l1.518-7.77s.009-.046.009-.05a.683.683,0,0,1,.179-.333l2.285-2.325a3.4,3.4,0,0,0-2.659-1.281h-3.257a.675.675,0,0,1-.675-.675v-2.427h-3.693v2.427a.675.675,0,0,1-.675.675h-3.256a3.386,3.386,0,0,0-2.658,1.284l2.283,2.322a.682.682,0,0,1,.18.342l.009.044Z" fill="#3a312a"/>
    <path id="Trazado_105880" data-name="Trazado 105880" d="M-264.4,2711.326l-2.68,2.725-.006.039-1.084,5.541-.539,2.776h-10.007l-.542-2.776-1.082-5.539-.008-.04-2.679-2.724.156-.23a4.071,4.071,0,0,1,3.382-1.8l5.756,8.207,5.8-8.207a4.078,4.078,0,0,1,3.382,1.8Z" fill="#ffb266"/>
    <path id="Trazado_105881" data-name="Trazado 105881" d="M-268.709,2723.081h-10.007a.674.674,0,0,1-.662-.545l-1.594-8.156-2.536-2.58a.675.675,0,0,1-.077-.853l.157-.229a4.737,4.737,0,0,1,3.939-2.1.677.677,0,0,1,.553.287l5.2,7.422,5.245-7.424a.677.677,0,0,1,.552-.285,4.742,4.742,0,0,1,3.94,2.1l.157.234a.677.677,0,0,1-.08.848l-2.536,2.578-1.592,8.156a.676.676,0,0,1-.663.546Zm-9.451-1.35h8.894l1.518-7.77a.807.807,0,0,1,.187-.383l2.287-2.325a3.389,3.389,0,0,0-2.323-1.265l-5.585,7.9a.672.672,0,0,1-.551.286h0a.674.674,0,0,1-.552-.287l-5.542-7.9a3.379,3.379,0,0,0-2.321,1.267l2.283,2.323a.672.672,0,0,1,.18.339Z" fill="#3a312a"/>
    <path id="Trazado_105882" data-name="Trazado 105882" d="M-279.2,2719.935l.484,2.472h10.007l.48-2.472Z" fill="#ed6e7a"/>
    <path id="Trazado_105883" data-name="Trazado 105883" d="M-268.709,2723.081h-10.007a.674.674,0,0,1-.662-.545l-.484-2.471a.676.676,0,0,1,.535-.792.671.671,0,0,1,.127-.013h10.97a.673.673,0,0,1,.674.672.686.686,0,0,1-.012.128l-.479,2.471a.672.672,0,0,1-.662.546Zm-9.451-1.35h8.894l.218-1.121h-9.331Z" fill="#3a312a"/>
    <path id="Trazado_105884" data-name="Trazado 105884" d="M-266.222,2732.193c0,4.923-1.555,9.212-3.855,11.447h-7.281c-2.3-2.235-3.856-6.524-3.856-11.447a18.467,18.467,0,0,1,2.517-9.787h9.959a18.457,18.457,0,0,1,2.516,9.787Z" fill="#ffb266"/>
    <path id="Trazado_105885" data-name="Trazado 105885" d="M-270.073,2744.315h-7.281a.677.677,0,0,1-.47-.191c-2.5-2.434-4.061-7.006-4.061-11.931a19.28,19.28,0,0,1,2.624-10.152.675.675,0,0,1,.568-.31h9.959a.682.682,0,0,1,.568.31,19.27,19.27,0,0,1,2.623,10.152c0,4.925-1.555,9.5-4.059,11.931a.677.677,0,0,1-.471.191Zm-7-1.35h6.72c2.139-2.237,3.46-6.329,3.46-10.772a18.222,18.222,0,0,0-2.216-9.112h-9.213a18.232,18.232,0,0,0-2.218,9.112c0,4.443,1.321,8.535,3.462,10.772Z" fill="#3a312a"/>
  </g>
</svg>
