<svg xmlns="http://www.w3.org/2000/svg" width="101.588" height="101.925" viewBox="0 0 101.588 101.925">
  <g id="Grupo_55600" data-name="Grupo 55600" transform="translate(303.797 -676.251)">
    <path id="Trazado_105667" data-name="Trazado 105667" d="M-226.582,763.468v7.9h5.606v-70.2h-5.606Z" fill="#87796f"/>
    <path id="Trazado_105668" data-name="Trazado 105668" d="M-220.976,772.038h-5.606a.675.675,0,0,1-.675-.675v-7.9a.675.675,0,0,1,.675-.675.675.675,0,0,1,.675.675v7.22h4.256V701.845h-4.256v54.927a.675.675,0,0,1-.675.675.675.675,0,0,1-.675-.675v-55.6a.675.675,0,0,1,.675-.675h5.606a.675.675,0,0,1,.675.675v70.193a.675.675,0,0,1-.675.675Z" fill="#3a312a"/>
    <path id="Trazado_105669" data-name="Trazado 105669" d="M-231.5,771.364h15.439a5.279,5.279,0,0,1,5.279,5.277h0v.587h-26v-.587a5.278,5.278,0,0,1,5.278-5.278h0Z" fill="#87796f"/>
    <path id="Trazado_105670" data-name="Trazado 105670" d="M-210.78,777.9h-26a.675.675,0,0,1-.675-.675v-.587a5.963,5.963,0,0,1,5.954-5.954h15.439a5.961,5.961,0,0,1,5.954,5.954v.587a.675.675,0,0,1-.675.675Zm-25.321-1.35h24.646a4.609,4.609,0,0,0-4.6-4.515H-231.5a4.609,4.609,0,0,0-4.6,4.515Z" fill="#3a312a"/>
    <path id="Trazado_105671" data-name="Trazado 105671" d="M-203.1,688.531l-5.949,6.052-.018.085-2.4,12.308-1.2,6.166h-22.22l-1.207-6.166-2.4-12.3-.019-.09-5.949-6.052.347-.509a9.042,9.042,0,0,1,7.506-4h7.232v-6.89h11.2v6.89h7.237a9.052,9.052,0,0,1,7.506,4Z" fill="#87796f"/>
    <path id="Trazado_105672" data-name="Trazado 105672" d="M-212.668,713.817h-22.22a.677.677,0,0,1-.663-.547l-3.587-18.358L-244.946,689a.674.674,0,0,1-.076-.853l.346-.508a9.692,9.692,0,0,1,8.063-4.3h6.556v-6.215a.677.677,0,0,1,.675-.675h11.2a.675.675,0,0,1,.675.675v6.224h6.562a9.719,9.719,0,0,1,8.066,4.293l.343.516a.676.676,0,0,1-.08.849l-5.807,5.907-3.583,18.358a.677.677,0,0,1-.663.547Zm-21.665-1.35h21.108l3.518-18.02a.683.683,0,0,1,.179-.338l5.566-5.661-.038-.056a8.369,8.369,0,0,0-6.946-3.7h-7.235a.675.675,0,0,1-.675-.675V677.8h-9.851v6.215a.675.675,0,0,1-.675.675h-7.233a8.352,8.352,0,0,0-6.946,3.7l-.036.055,5.561,5.656a.689.689,0,0,1,.18.341l.018.091Z" fill="#3a312a"/>
    <path id="Trazado_105673" data-name="Trazado 105673" d="M-202.884,753.326h-41.788c0-16.925,3.9-31.777,9.766-40.184h22.254c5.87,8.407,9.768,23.259,9.768,40.184Z" fill="#ed6e7a"/>
    <path id="Trazado_105674" data-name="Trazado 105674" d="M-202.884,754h-41.788a.675.675,0,0,1-.675-.675c0-16.536,3.7-31.7,9.888-40.571a.676.676,0,0,1,.553-.288h22.254a.67.67,0,0,1,.553.288c6.192,8.869,9.89,24.035,9.89,40.571a.675.675,0,0,1-.675.675Zm-41.111-1.35h40.434c-.1-15.826-3.608-30.266-9.445-38.834h-21.545C-240.388,722.385-243.9,736.825-243.995,752.651Z" fill="#3a312a"/>
    <path id="Trazado_105675" data-name="Trazado 105675" d="M-203.1,688.531l-5.949,6.052-.018.085-2.4,12.308H-236.1l-2.4-12.3-.019-.09-5.949-6.052.347-.509a9.042,9.042,0,0,1,7.506-4h2.033v8.326h21.6v-8.329h2.035a9.053,9.053,0,0,1,7.506,4Z" fill="#f6e2c6"/>
    <path id="Trazado_105676" data-name="Trazado 105676" d="M-211.466,707.651h-24.628a.676.676,0,0,1-.663-.546l-2.381-12.193L-244.945,689a.674.674,0,0,1-.077-.853l.346-.508a9.694,9.694,0,0,1,8.064-4.3h2.034a.675.675,0,0,1,.675.675v7.654h20.25v-7.654a.675.675,0,0,1,.675-.675h2.035a9.719,9.719,0,0,1,8.066,4.293l.343.516a.676.676,0,0,1-.081.849l-5.807,5.907L-210.8,707.1a.675.675,0,0,1-.662.546Zm-24.072-1.35h23.516l2.315-11.854a.69.69,0,0,1,.181-.338l5.564-5.661-.038-.056a8.366,8.366,0,0,0-6.944-3.7h-1.36v7.659a.675.675,0,0,1-.675.675h-21.6a.675.675,0,0,1-.675-.675V684.7h-1.361a8.352,8.352,0,0,0-6.946,3.7l-.036.054,5.561,5.656a.689.689,0,0,1,.18.341l.018.09Z" fill="#3a312a"/>
    <rect id="Rectángulo_5328" data-name="Rectángulo 5328" width="53.817" height="3.15" transform="translate(-302.352 676.926)" fill="#87796f"/>
    <path id="Trazado_105677" data-name="Trazado 105677" d="M-248.534,680.751h-53.818a.675.675,0,0,1-.675-.675v-3.15a.675.675,0,0,1,.675-.675h53.818a.675.675,0,0,1,.675.675v3.15A.675.675,0,0,1-248.534,680.751Zm-53.143-1.35h52.468v-1.8h-52.468Z" fill="#3a312a"/>
    <rect id="Rectángulo_5329" data-name="Rectángulo 5329" width="53.817" height="3.15" transform="translate(-302.352 723.851)" fill="#87796f"/>
    <path id="Trazado_105678" data-name="Trazado 105678" d="M-248.534,727.676h-53.818a.675.675,0,0,1-.675-.675v-3.15a.677.677,0,0,1,.675-.675h53.818a.677.677,0,0,1,.675.675V727A.675.675,0,0,1-248.534,727.676Zm-53.143-1.35h52.468v-1.8h-52.468Z" fill="#3a312a"/>
    <path id="Trazado_105679" data-name="Trazado 105679" d="M-303.122,723.351V777.5h4.959V676.926h-4.959Z" fill="#87796f"/>
    <path id="Trazado_105680" data-name="Trazado 105680" d="M-298.163,778.176h-4.959a.675.675,0,0,1-.675-.675v-54.15a.675.675,0,0,1,.675-.675.675.675,0,0,1,.675.675v53.476h3.609V677.6h-3.609v37.976a.675.675,0,0,1-.675.675.675.675,0,0,1-.675-.675V676.926a.675.675,0,0,1,.675-.675h4.959a.677.677,0,0,1,.675.675V777.5A.675.675,0,0,1-298.163,778.176Z" fill="#3a312a"/>
    <rect id="Rectángulo_5330" data-name="Rectángulo 5330" width="4.958" height="100.575" transform="translate(-252.722 676.926)" fill="#87796f"/>
    <path id="Trazado_105681" data-name="Trazado 105681" d="M-247.763,778.176h-4.959a.675.675,0,0,1-.675-.675V676.926a.675.675,0,0,1,.675-.675h4.959a.677.677,0,0,1,.675.675V777.5A.675.675,0,0,1-247.763,778.176Zm-4.284-1.35h3.609V677.6h-3.609Z" fill="#3a312a"/>
    <path id="Trazado_105682" data-name="Trazado 105682" d="M-261.786,746.1H-289.1a2.716,2.716,0,0,1-2.716-2.716,2.718,2.718,0,0,1,1.546-2.451l14.536-6.934a.672.672,0,0,1,.581,0l14.536,6.934a2.715,2.715,0,0,1,1.286,3.618A2.715,2.715,0,0,1-261.786,746.1Zm-13.657-10.745-14.244,6.8a1.366,1.366,0,0,0-.648,1.82,1.364,1.364,0,0,0,1.235.78h27.314a1.366,1.366,0,0,0,1.369-1.363,1.366,1.366,0,0,0-.78-1.237Z" fill="#3a312a"/>
    <path id="Trazado_105683" data-name="Trazado 105683" d="M-275.443,735.278a.675.675,0,0,1-.675-.675v-3a.677.677,0,0,1,.675-.675,3.2,3.2,0,0,0,3.2-3.2,3.2,3.2,0,0,0-3.2-3.2h-.009a.675.675,0,0,1-.675-.675.675.675,0,0,1,.675-.675,4.549,4.549,0,0,1,4.551,4.547,4.548,4.548,0,0,1-3.876,4.5V734.6a.675.675,0,0,1-.675.675Z" fill="#3a312a"/>
    <rect id="Rectángulo_5331" data-name="Rectángulo 5331" width="14.104" height="27.604" transform="translate(-289.547 743.12)" fill="#8bbed5"/>
    <path id="Trazado_105684" data-name="Trazado 105684" d="M-275.443,771.4h-14.1a.675.675,0,0,1-.675-.675v-27.6a.677.677,0,0,1,.675-.675h14.1a.677.677,0,0,1,.675.675v27.6A.675.675,0,0,1-275.443,771.4Zm-13.429-1.35h12.757V743.795h-12.757Z" fill="#3a312a"/>
    <rect id="Rectángulo_5332" data-name="Rectángulo 5332" width="14.104" height="27.604" transform="translate(-275.443 743.12)" fill="#8bbed5"/>
    <path id="Trazado_105685" data-name="Trazado 105685" d="M-261.34,771.4h-14.1a.675.675,0,0,1-.675-.675v-27.6a.675.675,0,0,1,.675-.675h14.1a.675.675,0,0,1,.675.675v27.6A.675.675,0,0,1-261.34,771.4Zm-13.428-1.35h12.753V743.795h-12.753Z" fill="#3a312a"/>
    <rect id="Rectángulo_5333" data-name="Rectángulo 5333" width="14.104" height="5.548" transform="translate(-289.547 765.176)" fill="#f6e2c6"/>
    <path id="Trazado_105686" data-name="Trazado 105686" d="M-275.443,771.4h-14.1a.675.675,0,0,1-.675-.675v-5.548a.677.677,0,0,1,.675-.675h14.1a.677.677,0,0,1,.675.675v5.548A.675.675,0,0,1-275.443,771.4Zm-13.429-1.35h12.757v-4.2h-12.757Z" fill="#3a312a"/>
    <rect id="Rectángulo_5334" data-name="Rectángulo 5334" width="14.104" height="5.548" transform="translate(-275.443 765.176)" fill="#f6e2c6"/>
    <path id="Trazado_105687" data-name="Trazado 105687" d="M-261.34,771.4h-14.1a.675.675,0,0,1-.675-.675v-5.548a.675.675,0,0,1,.675-.675h14.1a.675.675,0,0,1,.675.675v5.548A.675.675,0,0,1-261.34,771.4Zm-13.428-1.35h12.753v-4.2h-12.753Z" fill="#3a312a"/>
    <path id="Trazado_105688" data-name="Trazado 105688" d="M-261.786,699.17H-289.1a2.715,2.715,0,0,1-2.717-2.713A2.715,2.715,0,0,1-290.27,694l14.536-6.933a.672.672,0,0,1,.581,0L-260.617,694a2.715,2.715,0,0,1,1.283,3.619A2.713,2.713,0,0,1-261.786,699.17Zm-13.657-10.743-14.244,6.795a1.366,1.366,0,0,0-.654,1.817,1.365,1.365,0,0,0,1.241.783h27.314a1.366,1.366,0,0,0,1.369-1.363,1.366,1.366,0,0,0-.78-1.237Z" fill="#3a312a"/>
    <path id="Trazado_105689" data-name="Trazado 105689" d="M-275.443,688.351a.675.675,0,0,1-.675-.675v-3a.677.677,0,0,1,.675-.675,3.2,3.2,0,0,0,3.2-3.195,3.2,3.2,0,0,0-3.2-3.205h-.009a.675.675,0,0,1-.675-.675.675.675,0,0,1,.675-.675,4.549,4.549,0,0,1,4.551,4.547,4.548,4.548,0,0,1-3.876,4.5v2.38a.675.675,0,0,1-.675.675Z" fill="#3a312a"/>
    <path id="Trazado_105690" data-name="Trazado 105690" d="M-263.661,715.662a72.338,72.338,0,0,1,3.114-13.871l5.845-5.846c-.162-.253-.341-.495-.525-.732-.219-.271-.444-.524-.686-.772a10.1,10.1,0,0,0-7.229-3.032h-4.294a8.03,8.03,0,0,1-8.62,7.393,8.03,8.03,0,0,1-7.393-7.393h-4.289a10.087,10.087,0,0,0-7.229,3.032c-.242.248-.466.5-.685.772-.185.237-.363.479-.531.727l5.845,5.851c0-.012,0-.012.006-.012a73.526,73.526,0,0,1,3.21,13.882h23.461Z" fill="#fcb268"/>
    <path id="Trazado_105691" data-name="Trazado 105691" d="M-263.661,716.337h-23.461a.674.674,0,0,1-.669-.581,75.171,75.171,0,0,0-3.118-13.581l-5.752-5.757a.676.676,0,0,1-.082-.856c.167-.247.349-.5.558-.764.243-.3.481-.569.734-.828a10.728,10.728,0,0,1,7.713-3.236h4.287a.675.675,0,0,1,.673.621,7.356,7.356,0,0,0,7.9,6.773,7.356,7.356,0,0,0,6.773-6.773.677.677,0,0,1,.673-.62h4.294a10.729,10.729,0,0,1,7.711,3.236c.257.262.495.531.729.82a9.661,9.661,0,0,1,.569.795.673.673,0,0,1-.092.839l-5.738,5.737a73.281,73.281,0,0,0-3.029,13.592.673.673,0,0,1-.669.584Zm-22.876-1.35h22.286a72.488,72.488,0,0,1,3.071-13.432.69.69,0,0,1,.154-.241l5.448-5.447c-.056-.075-.116-.155-.181-.238-.2-.247-.41-.484-.637-.716a9.387,9.387,0,0,0-6.746-2.829h-3.7a8.7,8.7,0,0,1-9.884,7.327,8.7,8.7,0,0,1-7.327-7.327h-3.689a9.388,9.388,0,0,0-6.747,2.83c-.223.229-.434.466-.643.725-.06.077-.119.152-.175.228l5.35,5.354a.685.685,0,0,1,.254.325,74.445,74.445,0,0,1,3.162,13.441Z" fill="#3a312a"/>
    <path id="Trazado_105692" data-name="Trazado 105692" d="M-203.559,752.651h-7.2c-.1-15.827-3.61-30.267-9.446-38.834h7.2C-207.169,722.384-203.658,736.824-203.559,752.651Z" fill="#d04e5d"/>
    <path id="Trazado_105693" data-name="Trazado 105693" d="M-203.96,688.451l-5.566,5.661a.688.688,0,0,0-.18.338l-2.318,11.853h-7.2l2.318-11.853a.688.688,0,0,1,.18-.338l1.066-1.084h2.682a.674.674,0,0,0,.675-.673V684.7h1.36A8.36,8.36,0,0,1-204,688.4Z" fill="#dcc8ab"/>
    <path id="Trazado_105694" data-name="Trazado 105694" d="M-212.285,707.651l-.94,4.816h-7.2l.94-4.816Z" fill="#695b51"/>
    <path id="Trazado_105695" data-name="Trazado 105695" d="M-222.161,729.57s1.532,5.7,5.949,5.96c0,0-5.895,2.037-5.994,6.392,0,0-1.161-6.108-5.816-6.327,0,0,5.422-.822,5.861-6.025Z" fill="#fcb268"/>
    <path id="Trazado_105696" data-name="Trazado 105696" d="M-222.207,742.6a.677.677,0,0,1-.662-.549c-.011-.056-1.123-5.587-5.185-5.779a.675.675,0,0,1-.645-.7.675.675,0,0,1,.575-.638c.2-.031,4.9-.818,5.29-5.414a.674.674,0,0,1,.73-.615.673.673,0,0,1,.594.495c.014.052,1.466,5.231,5.338,5.464a.675.675,0,0,1,.631.716.675.675,0,0,1-.451.6c-.054.019-5.452,1.939-5.54,5.769a.674.674,0,0,1-.619.656h-.056Zm-3.484-7.078a7.867,7.867,0,0,1,3.415,3.993,9.605,9.605,0,0,1,4.026-3.792,8.252,8.252,0,0,1-3.75-3.925,7.247,7.247,0,0,1-3.691,3.724Z" fill="#3a312a"/>
    <path id="Trazado_105697" data-name="Trazado 105697" d="M-231.926,737.211s1.086,4.029,4.209,4.216c0,0-4.17,1.44-4.24,4.52,0,0-.822-4.319-4.115-4.475,0,0,3.836-.58,4.146-4.261Z" fill="#fcb268"/>
    <path id="Trazado_105698" data-name="Trazado 105698" d="M-231.957,746.622a.674.674,0,0,1-.664-.548c-.007-.038-.766-3.8-3.482-3.927a.674.674,0,0,1-.644-.7.675.675,0,0,1,.575-.638c.132-.021,3.313-.559,3.573-3.652a.676.676,0,0,1,.73-.615.676.676,0,0,1,.594.5c.01.035,1,3.563,3.6,3.719a.675.675,0,0,1,.634.714.674.674,0,0,1-.454.6c-.036.013-3.727,1.329-3.786,3.9a.674.674,0,0,1-.618.658.486.486,0,0,1-.055,0Zm-2.035-5.187a5.77,5.77,0,0,1,2,2.376,7.076,7.076,0,0,1,2.415-2.239,6,6,0,0,1-2.224-2.35,5.379,5.379,0,0,1-2.192,2.213Z" fill="#3a312a"/>
    <path id="Trazado_105699" data-name="Trazado 105699" d="M-231.926,725.215s1.086,4.03,4.209,4.217c0,0-4.17,1.44-4.24,4.52,0,0-.822-4.32-4.115-4.474,0,0,3.836-.583,4.146-4.263Z" fill="#fcb268"/>
    <path id="Trazado_105700" data-name="Trazado 105700" d="M-231.957,734.627a.676.676,0,0,1-.664-.549c-.007-.037-.766-3.8-3.482-3.928a.674.674,0,0,1-.644-.7.675.675,0,0,1,.575-.638c.132-.021,3.313-.559,3.573-3.65a.676.676,0,0,1,.73-.615.676.676,0,0,1,.594.5c.01.035,1,3.563,3.6,3.719a.675.675,0,0,1,.634.714.674.674,0,0,1-.454.6c-.036.012-3.727,1.328-3.786,3.9a.673.673,0,0,1-.618.657h-.058Zm-2.035-5.187a5.759,5.759,0,0,1,2,2.375,7.083,7.083,0,0,1,2.415-2.238,6.008,6.008,0,0,1-2.224-2.351,5.393,5.393,0,0,1-2.192,2.214Z" fill="#3a312a"/>
  </g>
</svg>
