<svg xmlns="http://www.w3.org/2000/svg" width="101.701" height="101.822" viewBox="0 0 101.701 101.822">
  <g id="Grupo_55591" data-name="Grupo 55591" transform="translate(303.798 -8.461)">
    <path id="Trazado_105424" data-name="Trazado 105424" d="M-224.7,21.675-237.179,10.86a6.229,6.229,0,0,0-4.077-1.52h-23.382a6.231,6.231,0,0,0-4.077,1.52l-32.258,27.948a6.225,6.225,0,0,0-2.149,4.705v59.866a6.225,6.225,0,0,0,6.226,6.226H-209a6.225,6.225,0,0,0,6.226-6.226h0V43.517a6.225,6.225,0,0,0-2.149-4.7l-15.318-13.271Z" fill="#87796f"/>
    <path id="Trazado_105425" data-name="Trazado 105425" d="M-209,110.283h-87.9a6.907,6.907,0,0,1-6.9-6.9V43.517a6.894,6.894,0,0,1,2.382-5.215l32.26-27.942a6.9,6.9,0,0,1,4.518-1.685h23.383a6.891,6.891,0,0,1,4.517,1.685l12.48,10.811a.676.676,0,0,1,.088.951.674.674,0,0,1-.95.088l-.023-.02-12.478-10.81a5.55,5.55,0,0,0-3.634-1.355h-23.383a5.553,5.553,0,0,0-3.635,1.355l-32.258,27.946a5.545,5.545,0,0,0-1.916,4.2v59.866a5.556,5.556,0,0,0,5.551,5.551H-209a5.557,5.557,0,0,0,5.549-5.56V43.517a5.548,5.548,0,0,0-1.916-4.2l-15.318-13.27a.674.674,0,0,1-.088-.95.673.673,0,0,1,.95-.088l.023.019,15.317,13.27a6.9,6.9,0,0,1,2.382,5.215v59.866a6.907,6.907,0,0,1-6.9,6.9Z" fill="#3a312a"/>
    <path id="Trazado_105426" data-name="Trazado 105426" d="M-298.385,72.167v29.944a3.464,3.464,0,0,0,3.463,3.465h83.949a3.464,3.464,0,0,0,3.464-3.464h0V48.483a3.464,3.464,0,0,0-3.464-3.464h-83.948a3.464,3.464,0,0,0-3.464,3.464Z" fill="#fce8cb"/>
    <path id="Trazado_105427" data-name="Trazado 105427" d="M-210.973,106.251h-83.948a4.144,4.144,0,0,1-4.139-4.14V72.167a.675.675,0,0,1,.675-.675.675.675,0,0,1,.675.675v29.944a2.793,2.793,0,0,0,2.789,2.79h83.948a2.792,2.792,0,0,0,2.789-2.79V48.483a2.793,2.793,0,0,0-2.789-2.789h-83.948a2.793,2.793,0,0,0-2.789,2.789V66.235a.675.675,0,0,1-.675.675.675.675,0,0,1-.675-.675V48.483a4.144,4.144,0,0,1,4.139-4.139h83.948a4.144,4.144,0,0,1,4.139,4.139v53.628A4.144,4.144,0,0,1-210.973,106.251Z" fill="#3a312a"/>
    <path id="Trazado_105428" data-name="Trazado 105428" d="M-289.166,13.491s1.534,5.7,5.953,5.96c0,0-5.9,2.037-6,6.391,0,0-1.161-6.107-5.819-6.326,0,0,5.426-.822,5.864-6.025Z" fill="#fcb268"/>
    <path id="Trazado_105429" data-name="Trazado 105429" d="M-289.212,26.516a.674.674,0,0,1-.663-.547c-.011-.056-1.123-5.587-5.188-5.778a.674.674,0,0,1-.644-.7.675.675,0,0,1,.575-.638c.2-.032,4.9-.818,5.293-5.415a.674.674,0,0,1,.73-.615.672.672,0,0,1,.594.495c.014.052,1.468,5.231,5.342,5.463a.675.675,0,0,1,.634.714.674.674,0,0,1-.454.6c-.054.018-5.456,1.939-5.543,5.768a.673.673,0,0,1-.618.657h-.058Zm-3.485-7.078a7.884,7.884,0,0,1,3.416,4,9.609,9.609,0,0,1,4.029-3.793A8.223,8.223,0,0,1-289,15.719a7.241,7.241,0,0,1-3.693,3.723Z" fill="#3a312a"/>
    <path id="Trazado_105430" data-name="Trazado 105430" d="M-298.936,21.132s1.085,4.029,4.21,4.216c0,0-4.171,1.44-4.242,4.52,0,0-.821-4.32-4.115-4.474,0,0,3.836-.581,4.147-4.262Z" fill="#fcb268"/>
    <path id="Trazado_105431" data-name="Trazado 105431" d="M-298.969,30.543a.673.673,0,0,1-.662-.549c-.007-.037-.768-3.8-3.485-3.927a.675.675,0,0,1-.639-.709.676.676,0,0,1,.57-.632c.133-.021,3.315-.559,3.575-3.652a.675.675,0,0,1,.73-.615.676.676,0,0,1,.594.5c.01.035,1,3.563,3.6,3.719a.675.675,0,0,1,.634.714.674.674,0,0,1-.454.6c-.037.012-3.729,1.329-3.788,3.9a.676.676,0,0,1-.619.659ZM-301,25.356a5.751,5.751,0,0,1,2,2.377,7.042,7.042,0,0,1,2.416-2.239,6.031,6.031,0,0,1-2.226-2.35,5.37,5.37,0,0,1-2.192,2.212Z" fill="#3a312a"/>
    <path id="Trazado_105432" data-name="Trazado 105432" d="M-298.936,9.136s1.085,4.029,4.21,4.217c0,0-4.171,1.44-4.242,4.52,0,0-.821-4.32-4.115-4.475C-303.083,13.4-299.247,12.817-298.936,9.136Z" fill="#fcb268"/>
    <path id="Trazado_105433" data-name="Trazado 105433" d="M-298.969,18.548a.674.674,0,0,1-.662-.55c-.007-.036-.768-3.8-3.485-3.927a.674.674,0,0,1-.644-.7.675.675,0,0,1,.575-.638c.133-.021,3.315-.559,3.575-3.65a.675.675,0,0,1,.729-.616.673.673,0,0,1,.6.495c.01.035,1,3.564,3.6,3.72a.675.675,0,0,1,.631.716.675.675,0,0,1-.451.6c-.037.013-3.729,1.329-3.788,3.9a.675.675,0,0,1-.619.657.522.522,0,0,1-.056,0ZM-301,13.36a5.762,5.762,0,0,1,2,2.376,7.064,7.064,0,0,1,2.416-2.237,6.015,6.015,0,0,1-2.226-2.352,5.378,5.378,0,0,1-2.192,2.213Z" fill="#3a312a"/>
    <path id="Trazado_105434" data-name="Trazado 105434" d="M-290.708,50.1a2.25,2.25,0,0,1-2.25,2.25,2.25,2.25,0,0,1-2.25-2.25,2.25,2.25,0,0,1,2.25-2.25A2.25,2.25,0,0,1-290.708,50.1Z" fill="#fcb268"/>
    <path id="Trazado_105435" data-name="Trazado 105435" d="M-292.958,53.022a2.925,2.925,0,0,1-2.925-2.925,2.926,2.926,0,0,1,2.925-2.925,2.926,2.926,0,0,1,2.925,2.925h0A2.927,2.927,0,0,1-292.958,53.022Zm0-4.5a1.575,1.575,0,0,0-1.575,1.575,1.575,1.575,0,0,0,1.575,1.575,1.575,1.575,0,0,0,1.575-1.575A1.577,1.577,0,0,0-292.958,48.522Z" fill="#3a312a"/>
    <path id="Trazado_105436" data-name="Trazado 105436" d="M-290.708,100.5a2.25,2.25,0,0,1-2.25,2.25,2.25,2.25,0,0,1-2.25-2.25,2.25,2.25,0,0,1,2.25-2.25h0A2.25,2.25,0,0,1-290.708,100.5Z" fill="#fcb268"/>
    <path id="Trazado_105437" data-name="Trazado 105437" d="M-292.958,103.422a2.925,2.925,0,0,1-2.925-2.925,2.926,2.926,0,0,1,2.925-2.925,2.926,2.926,0,0,1,2.925,2.925h0A2.927,2.927,0,0,1-292.958,103.422Zm0-4.5a1.575,1.575,0,0,0-1.575,1.575,1.575,1.575,0,0,0,1.575,1.575,1.575,1.575,0,0,0,1.575-1.575A1.577,1.577,0,0,0-292.958,98.922Z" fill="#3a312a"/>
    <path id="Trazado_105438" data-name="Trazado 105438" d="M-210.608,50.1a2.25,2.25,0,0,1-2.25,2.25,2.25,2.25,0,0,1-2.25-2.25,2.25,2.25,0,0,1,2.25-2.25A2.25,2.25,0,0,1-210.608,50.1Z" fill="#fcb268"/>
    <path id="Trazado_105439" data-name="Trazado 105439" d="M-212.858,53.022a2.925,2.925,0,0,1-2.925-2.925,2.926,2.926,0,0,1,2.925-2.925,2.926,2.926,0,0,1,2.925,2.925h0A2.927,2.927,0,0,1-212.858,53.022Zm0-4.5a1.575,1.575,0,0,0-1.575,1.575,1.575,1.575,0,0,0,1.575,1.575,1.575,1.575,0,0,0,1.575-1.575A1.577,1.577,0,0,0-212.858,48.522Z" fill="#3a312a"/>
    <path id="Trazado_105440" data-name="Trazado 105440" d="M-210.608,100.5a2.25,2.25,0,0,1-2.25,2.25,2.25,2.25,0,0,1-2.25-2.25,2.25,2.25,0,0,1,2.25-2.25h0A2.25,2.25,0,0,1-210.608,100.5Z" fill="#fcb268"/>
    <path id="Trazado_105441" data-name="Trazado 105441" d="M-212.858,103.422a2.925,2.925,0,0,1-2.925-2.925,2.926,2.926,0,0,1,2.925-2.925,2.926,2.926,0,0,1,2.925,2.925h0A2.927,2.927,0,0,1-212.858,103.422Zm0-4.5a1.575,1.575,0,0,0-1.575,1.575,1.575,1.575,0,0,0,1.575,1.575,1.575,1.575,0,0,0,1.575-1.575A1.577,1.577,0,0,0-212.858,98.922Z" fill="#3a312a"/>
    <path id="Trazado_105442" data-name="Trazado 105442" d="M-263.188,91.713a2.953,2.953,0,0,0,2.952,2.952h42.955a2.952,2.952,0,0,0,2.952-2.952V60.15a2.951,2.951,0,0,0-2.95-2.952h-42.957a2.952,2.952,0,0,0-2.952,2.952Z" fill="#8ac6dd"/>
    <path id="Trazado_105443" data-name="Trazado 105443" d="M-217.281,95.34h-42.955a3.631,3.631,0,0,1-3.627-3.627V60.15a3.631,3.631,0,0,1,3.627-3.627h42.955a3.633,3.633,0,0,1,3.628,3.627V91.713a3.633,3.633,0,0,1-3.628,3.627Zm-42.955-37.467a2.28,2.28,0,0,0-2.277,2.277V91.713a2.28,2.28,0,0,0,2.277,2.277h42.955A2.28,2.28,0,0,0-215,91.713V60.15a2.28,2.28,0,0,0-2.278-2.277Z" fill="#3a312a"/>
    <path id="Trazado_105444" data-name="Trazado 105444" d="M-214.329,63.771V60.15a2.951,2.951,0,0,0-2.95-2.952h-42.957a2.952,2.952,0,0,0-2.952,2.952v3.621Z" fill="#ed6e7a"/>
    <path id="Trazado_105445" data-name="Trazado 105445" d="M-214.329,64.446h-48.859a.675.675,0,0,1-.675-.675V60.15a3.631,3.631,0,0,1,3.627-3.627h42.955a3.633,3.633,0,0,1,3.628,3.627v3.621a.676.676,0,0,1-.676.675Zm-48.184-1.35H-215V60.15a2.28,2.28,0,0,0-2.277-2.277h-42.955a2.279,2.279,0,0,0-2.277,2.277Z" fill="#3a312a"/>
    <path id="Trazado_105446" data-name="Trazado 105446" d="M-231.6,72.836h-2.893a1.349,1.349,0,0,1-1.348-1.348V68.6a1.348,1.348,0,0,1,1.348-1.347h2.893a1.348,1.348,0,0,1,1.348,1.347v2.893A1.349,1.349,0,0,1-231.6,72.836Z" fill="#ed6e7a"/>
    <path id="Trazado_105447" data-name="Trazado 105447" d="M-231.6,73.511h-2.892a2.025,2.025,0,0,1-2.023-2.023V68.6a2.024,2.024,0,0,1,2.023-2.022h2.892a2.024,2.024,0,0,1,2.023,2.022v2.893A2.024,2.024,0,0,1-231.6,73.511Zm-2.892-5.589a.675.675,0,0,0-.673.673v2.893a.675.675,0,0,0,.673.673h2.893a.674.674,0,0,0,.673-.673V68.6a.675.675,0,0,0-.673-.673Z" fill="#3a312a"/>
    <path id="Trazado_105448" data-name="Trazado 105448" d="M-254.456,72.836h-2.891a1.346,1.346,0,0,1-1.346-1.348h0V68.6a1.346,1.346,0,0,1,1.345-1.347h2.895a1.347,1.347,0,0,1,1.347,1.347v2.893a1.348,1.348,0,0,1-1.347,1.348Z" fill="#f4e0c4"/>
    <path id="Trazado_105449" data-name="Trazado 105449" d="M-254.456,73.511h-2.891a2.024,2.024,0,0,1-2.022-2.023V68.6a2.024,2.024,0,0,1,2.022-2.022h2.894a2.024,2.024,0,0,1,2.022,2.022v2.893a2.024,2.024,0,0,1-2.022,2.023Zm-2.894-5.589a.673.673,0,0,0-.671.673v2.893a.673.673,0,0,0,.671.673h2.894a.673.673,0,0,0,.672-.673V68.6a.674.674,0,0,0-.672-.673Z" fill="#3a312a"/>
    <path id="Trazado_105450" data-name="Trazado 105450" d="M-243.027,72.836h-2.892a1.347,1.347,0,0,1-1.348-1.346V68.6a1.347,1.347,0,0,1,1.347-1.347h2.893a1.348,1.348,0,0,1,1.348,1.347v2.893A1.349,1.349,0,0,1-243.027,72.836Z" fill="#ed6e7a"/>
    <path id="Trazado_105451" data-name="Trazado 105451" d="M-243.027,73.511h-2.892a2.025,2.025,0,0,1-2.023-2.023V68.6a2.024,2.024,0,0,1,2.023-2.022h2.892A2.026,2.026,0,0,1-241,68.6v2.893A2.025,2.025,0,0,1-243.027,73.511Zm-2.892-5.589a.675.675,0,0,0-.673.673v2.893a.673.673,0,0,0,.673.673h2.892a.674.674,0,0,0,.673-.673V68.6a.675.675,0,0,0-.673-.673Z" fill="#3a312a"/>
    <path id="Trazado_105452" data-name="Trazado 105452" d="M-220.167,72.836h-2.894a1.346,1.346,0,0,1-1.346-1.348h0V68.6a1.346,1.346,0,0,1,1.345-1.347h2.895A1.347,1.347,0,0,1-218.82,68.6v2.893A1.348,1.348,0,0,1-220.167,72.836Z" fill="#ed6e7a"/>
    <path id="Trazado_105453" data-name="Trazado 105453" d="M-220.167,73.511h-2.894a2.024,2.024,0,0,1-2.022-2.023V68.6a2.024,2.024,0,0,1,2.022-2.022h2.894a2.024,2.024,0,0,1,2.022,2.022v2.893A2.024,2.024,0,0,1-220.167,73.511Zm-2.894-5.589a.674.674,0,0,0-.672.673v2.893a.674.674,0,0,0,.672.673h2.894a.673.673,0,0,0,.672-.673V68.6a.674.674,0,0,0-.672-.673Z" fill="#3a312a"/>
    <path id="Trazado_105454" data-name="Trazado 105454" d="M-254.456,82.038h-2.891a1.346,1.346,0,0,1-1.346-1.346h0V77.8a1.347,1.347,0,0,1,1.346-1.348h2.894a1.348,1.348,0,0,1,1.347,1.348v2.893a1.347,1.347,0,0,1-1.347,1.347Z" fill="#f4e0c4"/>
    <path id="Trazado_105455" data-name="Trazado 105455" d="M-254.456,82.713h-2.891a2.024,2.024,0,0,1-2.022-2.022V77.8a2.024,2.024,0,0,1,2.022-2.023h2.894a2.024,2.024,0,0,1,2.022,2.023v2.893a2.025,2.025,0,0,1-2.022,2.022Zm-2.894-5.588a.672.672,0,0,0-.671.673v2.893a.673.673,0,0,0,.671.672h2.894a.673.673,0,0,0,.672-.672V77.8a.672.672,0,0,0-.671-.673h-2.9Z" fill="#3a312a"/>
    <path id="Trazado_105456" data-name="Trazado 105456" d="M-243.027,82.038h-2.892a1.346,1.346,0,0,1-1.348-1.344V77.8a1.347,1.347,0,0,1,1.346-1.348h2.894a1.35,1.35,0,0,1,1.348,1.348v2.893A1.348,1.348,0,0,1-243.027,82.038Z" fill="#f4e0c4"/>
    <path id="Trazado_105457" data-name="Trazado 105457" d="M-243.027,82.713h-2.892a2.025,2.025,0,0,1-2.023-2.022V77.8a2.025,2.025,0,0,1,2.023-2.023h2.892A2.025,2.025,0,0,1-241,77.8v2.893A2.026,2.026,0,0,1-243.027,82.713Zm-2.892-5.588a.673.673,0,0,0-.673.673h0v2.893a.673.673,0,0,0,.673.672h2.892a.674.674,0,0,0,.673-.672V77.8a.673.673,0,0,0-.673-.673h-2.892Z" fill="#3a312a"/>
    <path id="Trazado_105458" data-name="Trazado 105458" d="M-231.6,82.038h-2.893a1.348,1.348,0,0,1-1.348-1.347V77.8a1.35,1.35,0,0,1,1.348-1.348h2.893a1.35,1.35,0,0,1,1.348,1.348v2.893A1.348,1.348,0,0,1-231.6,82.038Z" fill="#f4e0c4"/>
    <path id="Trazado_105459" data-name="Trazado 105459" d="M-231.6,82.713h-2.892a2.025,2.025,0,0,1-2.023-2.022V77.8a2.025,2.025,0,0,1,2.023-2.023h2.892a2.025,2.025,0,0,1,2.023,2.023v2.893A2.023,2.023,0,0,1-231.6,82.713Zm-2.892-5.588a.675.675,0,0,0-.673.673v2.893a.674.674,0,0,0,.673.672h2.893a.674.674,0,0,0,.673-.672V77.8a.673.673,0,0,0-.673-.673h-2.893Z" fill="#3a312a"/>
    <path id="Trazado_105460" data-name="Trazado 105460" d="M-220.167,82.038h-2.894a1.346,1.346,0,0,1-1.346-1.346h0V77.8a1.347,1.347,0,0,1,1.346-1.348h2.894A1.348,1.348,0,0,1-218.82,77.8v2.893A1.347,1.347,0,0,1-220.167,82.038Z" fill="#f4e0c4"/>
    <path id="Trazado_105461" data-name="Trazado 105461" d="M-220.167,82.713h-2.894a2.025,2.025,0,0,1-2.022-2.022V77.8a2.024,2.024,0,0,1,2.022-2.023h2.894a2.024,2.024,0,0,1,2.022,2.023v2.893A2.025,2.025,0,0,1-220.167,82.713Zm-2.894-5.588a.674.674,0,0,0-.672.673v2.893a.673.673,0,0,0,.672.672h2.894a.673.673,0,0,0,.672-.672V77.8a.672.672,0,0,0-.671-.673h-2.9Z" fill="#3a312a"/>
    <path id="Trazado_105462" data-name="Trazado 105462" d="M-254.456,91.24h-2.891a1.346,1.346,0,0,1-1.346-1.346V87a1.346,1.346,0,0,1,1.345-1.347h2.895A1.347,1.347,0,0,1-253.106,87v2.892a1.346,1.346,0,0,1-1.346,1.348h0Z" fill="#f4e0c4"/>
    <path id="Trazado_105463" data-name="Trazado 105463" d="M-254.456,91.915h-2.891a2.024,2.024,0,0,1-2.022-2.023V87a2.024,2.024,0,0,1,2.022-2.022h2.894A2.024,2.024,0,0,1-252.431,87v2.892a2.024,2.024,0,0,1-2.022,2.023Zm-2.894-5.587a.673.673,0,0,0-.671.671v2.893a.673.673,0,0,0,.671.673h2.894a.673.673,0,0,0,.672-.673V87a.672.672,0,0,0-.672-.671Z" fill="#3a312a"/>
    <path id="Trazado_105464" data-name="Trazado 105464" d="M-243.027,91.24h-2.892a1.346,1.346,0,0,1-1.348-1.344V87a1.347,1.347,0,0,1,1.347-1.347h2.893A1.348,1.348,0,0,1-241.679,87v2.892A1.348,1.348,0,0,1-243.027,91.24Z" fill="#f4e0c4"/>
    <path id="Trazado_105465" data-name="Trazado 105465" d="M-243.027,91.915h-2.892a2.025,2.025,0,0,1-2.023-2.023V87a2.024,2.024,0,0,1,2.023-2.022h2.892A2.026,2.026,0,0,1-241,87v2.892a2.025,2.025,0,0,1-2.023,2.023Zm-2.892-5.587a.673.673,0,0,0-.673.671h0v2.893a.673.673,0,0,0,.673.673h2.892a.674.674,0,0,0,.673-.673V87a.673.673,0,0,0-.673-.671Z" fill="#3a312a"/>
    <path id="Trazado_105466" data-name="Trazado 105466" d="M-231.6,91.24h-2.893a1.347,1.347,0,0,1-1.348-1.346V87a1.348,1.348,0,0,1,1.348-1.347h2.893A1.348,1.348,0,0,1-230.249,87v2.892A1.348,1.348,0,0,1-231.6,91.24Z" fill="#f4e0c4"/>
    <path id="Trazado_105467" data-name="Trazado 105467" d="M-231.6,91.915h-2.892a2.025,2.025,0,0,1-2.023-2.023V87a2.024,2.024,0,0,1,2.023-2.022h2.892A2.024,2.024,0,0,1-229.575,87v2.892a2.024,2.024,0,0,1-2.023,2.023Zm-2.892-5.587a.673.673,0,0,0-.673.671v2.893a.675.675,0,0,0,.673.673h2.893a.674.674,0,0,0,.673-.673V87a.673.673,0,0,0-.673-.671Z" fill="#3a312a"/>
    <path id="Trazado_105468" data-name="Trazado 105468" d="M-220.167,91.24h-2.894a1.346,1.346,0,0,1-1.346-1.346V87a1.346,1.346,0,0,1,1.345-1.347h2.895A1.347,1.347,0,0,1-218.82,87v2.892a1.346,1.346,0,0,1-1.346,1.348Z" fill="#f4e0c4"/>
    <path id="Trazado_105469" data-name="Trazado 105469" d="M-220.167,91.915h-2.894a2.024,2.024,0,0,1-2.022-2.023V87a2.024,2.024,0,0,1,2.022-2.022h2.894A2.024,2.024,0,0,1-218.145,87v2.892a2.024,2.024,0,0,1-2.022,2.023Zm-2.894-5.587a.673.673,0,0,0-.672.671v2.893a.674.674,0,0,0,.672.673h2.894a.673.673,0,0,0,.672-.673V87a.672.672,0,0,0-.672-.671Z" fill="#3a312a"/>
    <path id="Trazado_105470" data-name="Trazado 105470" d="M-245.664,60.711a2.015,2.015,0,0,1-2.014-2.015V55.184a2.013,2.013,0,0,1,2.013-2.013,2.013,2.013,0,0,1,2.014,2.013V58.7a2.013,2.013,0,0,1-2.013,2.015Z" fill="#8ac6dd"/>
    <path id="Trazado_105471" data-name="Trazado 105471" d="M-245.664,61.386a2.692,2.692,0,0,1-2.689-2.689V55.184a2.689,2.689,0,0,1,2.69-2.689,2.689,2.689,0,0,1,2.689,2.689V58.7A2.694,2.694,0,0,1-245.664,61.386Zm0-7.542A1.342,1.342,0,0,0-247,55.184V58.7a1.34,1.34,0,0,0,1.34,1.34,1.34,1.34,0,0,0,1.339-1.34V55.184A1.344,1.344,0,0,0-245.664,53.844Z" fill="#3a312a"/>
    <path id="Trazado_105472" data-name="Trazado 105472" d="M-231.853,60.711a2.013,2.013,0,0,1-2.013-2.015h0V55.184a2.014,2.014,0,0,1,1.969-2.058,2.014,2.014,0,0,1,2.058,1.969c0,.03,0,.059,0,.089V58.7a2.013,2.013,0,0,1-2.011,2.015Z" fill="#8ac6dd"/>
    <path id="Trazado_105473" data-name="Trazado 105473" d="M-231.847,61.386a2.69,2.69,0,0,1-2.689-2.689V55.184a2.688,2.688,0,0,1,2.689-2.688,2.688,2.688,0,0,1,2.688,2.688V58.7a2.691,2.691,0,0,1-2.688,2.689Zm0-7.542a1.342,1.342,0,0,0-1.339,1.34V58.7a1.339,1.339,0,0,0,1.3,1.375,1.339,1.339,0,0,0,1.375-1.3c0-.024,0-.048,0-.073V55.184A1.342,1.342,0,0,0-231.847,53.844Z" fill="#3a312a"/>
    <rect id="Rectángulo_5318" data-name="Rectángulo 5318" width="3.106" height="40.791" transform="translate(-279.86 64.785)" fill="#87796f"/>
    <path id="Trazado_105474" data-name="Trazado 105474" d="M-276.754,106.251h-3.106a.675.675,0,0,1-.675-.675V64.785a.675.675,0,0,1,.675-.675h3.106a.675.675,0,0,1,.675.673v40.793A.675.675,0,0,1-276.754,106.251Zm-2.431-1.35h1.755V65.46h-1.755Z" fill="#3a312a"/>
    <path id="Trazado_105475" data-name="Trazado 105475" d="M-266.847,57.7l-3.3,3.353-.011.047-1.33,6.818-.665,3.415H-284.46l-.668-3.415-1.331-6.816-.009-.05-3.3-3.353.191-.281a5.008,5.008,0,0,1,4.158-2.216h4.007V51.381h6.2V55.2h4.009a5.01,5.01,0,0,1,4.157,2.214Z" fill="#87796f"/>
    <path id="Trazado_105476" data-name="Trazado 105476" d="M-272.147,72H-284.46a.676.676,0,0,1-.662-.545l-1.97-10.082-3.153-3.208a.675.675,0,0,1-.078-.853l.192-.282a5.674,5.674,0,0,1,4.716-2.511h3.332V51.381a.675.675,0,0,1,.675-.675h6.2a.677.677,0,0,1,.675.675v3.142h3.334a5.679,5.679,0,0,1,4.717,2.513l.192.285a.675.675,0,0,1-.081.849l-3.154,3.207-1.962,10.083a.675.675,0,0,1-.662.546Zm-11.755-1.35h11.2l1.9-9.739a.677.677,0,0,1,.179-.339l2.908-2.957a4.335,4.335,0,0,0-3.478-1.746H-275.2a.674.674,0,0,1-.675-.673V52.06h-4.855V55.2a.675.675,0,0,1-.675.675h-4.006a4.328,4.328,0,0,0-3.478,1.747l2.9,2.956a.664.664,0,0,1,.18.339l.01.05Z" fill="#3a312a"/>
    <path id="Trazado_105477" data-name="Trazado 105477" d="M-266.847,57.7l-3.3,3.353-.007.047-1.335,6.818-.663,3.415h-12.309l-.668-3.415L-286.46,61.1l-.01-.05-3.3-3.353.191-.281a5.008,5.008,0,0,1,4.161-2.216l7.082,10.1,7.134-10.1a5.015,5.015,0,0,1,4.16,2.214Z" fill="#ffb266"/>
    <path id="Trazado_105478" data-name="Trazado 105478" d="M-272.147,72h-12.314a.676.676,0,0,1-.662-.545l-1.97-10.082-3.154-3.208a.676.676,0,0,1-.077-.853l.192-.282a5.677,5.677,0,0,1,4.719-2.511.673.673,0,0,1,.552.287l6.532,9.314,6.582-9.316a.677.677,0,0,1,.552-.285,5.68,5.68,0,0,1,4.719,2.513l.192.285a.677.677,0,0,1-.081.849l-3.155,3.206-1.966,10.084a.675.675,0,0,1-.662.546Zm-11.756-1.35h11.2l1.894-9.71a.671.671,0,0,1,.185-.368l2.91-2.958a4.34,4.34,0,0,0-3.14-1.732l-6.924,9.8a.674.674,0,0,1-.551.285h0a.675.675,0,0,1-.552-.287l-6.871-9.8a4.326,4.326,0,0,0-3.139,1.734l2.9,2.955a.669.669,0,0,1,.181.344Z" fill="#3a312a"/>
    <path id="Trazado_105479" data-name="Trazado 105479" d="M-285.056,68.288l.6,3.041h12.309l.59-3.041Z" fill="#ed6e7a"/>
    <path id="Trazado_105480" data-name="Trazado 105480" d="M-272.147,72h-12.314a.676.676,0,0,1-.662-.545l-.594-3.041a.673.673,0,0,1,.534-.788.675.675,0,0,1,.127-.012h13.5a.671.671,0,0,1,.52.246.679.679,0,0,1,.144.558l-.594,3.038a.675.675,0,0,1-.662.546Zm-11.756-1.35h11.2l.328-1.691h-11.861Z" fill="#3a312a"/>
    <path id="Trazado_105481" data-name="Trazado 105481" d="M-269.083,83.37c0,6.057-1.913,11.335-4.743,14.085h-8.959c-2.831-2.75-4.744-8.028-4.744-14.085a22.723,22.723,0,0,1,3.1-12.041h12.254a22.723,22.723,0,0,1,3.1,12.041Z" fill="#ffb266"/>
    <path id="Trazado_105482" data-name="Trazado 105482" d="M-273.826,98.13h-8.959a.673.673,0,0,1-.471-.191c-3.052-2.966-4.948-8.549-4.948-14.569a23.54,23.54,0,0,1,3.2-12.4.674.674,0,0,1,.568-.311h12.254a.682.682,0,0,1,.569.311,23.56,23.56,0,0,1,3.2,12.4c0,6.02-1.9,11.6-4.948,14.569a.675.675,0,0,1-.47.191Zm-8.68-1.35h8.4c2.688-2.769,4.348-7.872,4.348-13.41A22.513,22.513,0,0,0-272.553,72h-11.506a22.492,22.492,0,0,0-2.8,11.365c0,5.538,1.661,10.641,4.348,13.41Z" fill="#3a312a"/>
    <path id="Trazado_105483" data-name="Trazado 105483" d="M-249.919,16.368l2,6.152h6.472a2.238,2.238,0,0,1,2.238,2.238,2.237,2.237,0,0,1-.923,1.811l-5.232,3.8,2,6.152a2.237,2.237,0,0,1-1.437,2.818,2.237,2.237,0,0,1-2.006-.318l-5.234-3.8-5.234,3.8a2.237,2.237,0,0,1-3.125-.494,2.237,2.237,0,0,1-.318-2.006l2-6.152-5.232-3.8a2.238,2.238,0,0,1-.5-3.126,2.237,2.237,0,0,1,1.811-.923h6.469l2-6.152a2.238,2.238,0,0,1,2.821-1.435,2.239,2.239,0,0,1,1.435,1.435Z" fill="#fcb268"/>
    <path id="Trazado_105484" data-name="Trazado 105484" d="M-245.5,40.137a2.9,2.9,0,0,1-1.712-.567l-4.836-3.51-4.836,3.513a2.912,2.912,0,0,1-4.068-.64,2.913,2.913,0,0,1-.415-2.615l1.847-5.686-4.836-3.515A2.912,2.912,0,0,1-265,23.05a2.915,2.915,0,0,1,2.359-1.2h5.977l1.849-5.686a2.913,2.913,0,0,1,3.669-1.87,2.915,2.915,0,0,1,1.87,1.87l1.847,5.686h5.979a2.914,2.914,0,0,1,2.912,2.914,2.916,2.916,0,0,1-1.2,2.355l-4.838,3.515,1.847,5.686a2.867,2.867,0,0,1-1.058,3.256,2.894,2.894,0,0,1-1.71.566Zm-6.548-5.59a.682.682,0,0,1,.4.129l5.234,3.8a1.562,1.562,0,0,0,2.181-.353,1.564,1.564,0,0,0,.219-1.394l-2-6.153a.675.675,0,0,1,.245-.754l5.234-3.8a1.563,1.563,0,0,0,.345-2.183,1.564,1.564,0,0,0-1.264-.644h-6.469a.674.674,0,0,1-.642-.466l-2-6.152a1.562,1.562,0,0,0-1.967-1,1.56,1.56,0,0,0-1,1l-2,6.152a.671.671,0,0,1-.642.466h-6.469a1.564,1.564,0,0,0-1.562,1.566,1.567,1.567,0,0,0,.643,1.262l5.235,3.8a.675.675,0,0,1,.245.754l-2,6.153a1.563,1.563,0,0,0,1.008,1.966,1.563,1.563,0,0,0,1.392-.22l5.234-3.8a.682.682,0,0,1,.4-.129Z" fill="#3a312a"/>
    <path id="Trazado_105485" data-name="Trazado 105485" d="M-210.97,45.694h-7.2a2.794,2.794,0,0,1,2.789,2.79v.135a2.923,2.923,0,0,1,4-1.042,2.923,2.923,0,0,1,1.042,4,2.922,2.922,0,0,1-4,1.042,2.923,2.923,0,0,1-1.042-1.042V57.06a3.681,3.681,0,0,1,1.288,1.358,3.6,3.6,0,0,1,.44,1.729V91.71a3.617,3.617,0,0,1-1.728,3.087v4.221a2.921,2.921,0,0,1,4-1.04,2.92,2.92,0,0,1,1.04,4,2.92,2.92,0,0,1-4,1.041,2.917,2.917,0,0,1-1.041-1.041v.135a2.8,2.8,0,0,1-2.789,2.79h7.2a2.8,2.8,0,0,0,2.789-2.79V48.484a2.794,2.794,0,0,0-2.789-2.79Z" fill="#decaad"/>
  </g>
</svg>
