<svg id="Grupo_1054432" data-name="Grupo 1054432" xmlns="http://www.w3.org/2000/svg" xmlns:xlink="http://www.w3.org/1999/xlink" width="1239" height="63.855" viewBox="0 0 1239 63.855">
  <defs>
    <clipPath id="clip-path">
      <rect id="Rectángulo_361895" data-name="Rectángulo 361895" width="1239" height="63.855" fill="#025157" stroke="#025157" stroke-width="2"/>
    </clipPath>
  </defs>
  <g id="Grupo_1054431" data-name="Grupo 1054431" clip-path="url(#clip-path)">
    <path id="Trazado_773583" data-name="Trazado 773583" d="M0,51.428A12.427,12.427,0,0,1,11.391,39.045h0l16.59-7.118-16.59-7.118h0a12.426,12.426,0,1,1,8.948-2.8l15.383,6.6L61.889,17.379a6.1,6.1,0,0,1,8.017,3.2L43.463,31.927,69.905,43.271a6.1,6.1,0,0,1-8.017,3.2L35.723,35.248l-15.383,6.6A12.426,12.426,0,1,1,0,51.428M17.287,20.7a9.6,9.6,0,1,0-4.861,1.321A9.587,9.587,0,0,0,17.287,20.7M39.095,31.927A2.071,2.071,0,1,0,37.023,34a2.071,2.071,0,0,0,2.071-2.071m-17.076,19.5a9.592,9.592,0,1,0-9.592,9.592,9.589,9.589,0,0,0,9.592-9.592" transform="translate(0 0.001)" fill="#025157" stroke="#025157" stroke-width="2"/>
    <path id="Trazado_773584" data-name="Trazado 773584" d="M776.721,124.092h-.085l.012,2.26h.074a12.425,12.425,0,0,1,7.24,2.2l1.275-1.866a14.617,14.617,0,0,0-8.515-2.594m-62.978,0a15.705,15.705,0,0,0-3.685.424l.531,2.2a13.441,13.441,0,0,1,3.154-.361,12.74,12.74,0,0,1,4.5.772L719.03,125a15.162,15.162,0,0,0-5.287-.913m-62.978,0a14.633,14.633,0,0,0-7.089,1.726l1.068,1.992a12.432,12.432,0,0,1,6.021-1.458,14.327,14.327,0,0,1,1.508.078l.238-2.248a16.646,16.646,0,0,0-1.746-.091m-188.934,0h-.03l.007,2.26h.023a12.427,12.427,0,0,1,7.28,2.227l1.282-1.861a14.618,14.618,0,0,0-8.562-2.626m-62.978,0a15.726,15.726,0,0,0-3.628.411l.522,2.2a13.459,13.459,0,0,1,3.106-.35,12.727,12.727,0,0,1,4.547.789l.794-2.116a15.15,15.15,0,0,0-5.341-.933m-62.978,0a14.642,14.642,0,0,0-7.038,1.7l1.06,2a12.434,12.434,0,0,1,5.978-1.435,14.309,14.309,0,0,1,1.557.083l.246-2.247a16.63,16.63,0,0,0-1.8-.1m250.048.1a14.851,14.851,0,0,0-8.195,3.678l1.472,1.715a12.66,12.66,0,0,1,6.978-3.147Zm314.833.007a14.873,14.873,0,0,0-8.18,3.709l1.477,1.711a12.686,12.686,0,0,1,6.967-3.175Zm-57.548.273-.5,2.2a13.45,13.45,0,0,1,6.652,3.905l1.6-1.6a15.814,15.814,0,0,0-7.747-4.511m-314.833.013-.513,2.2a13.5,13.5,0,0,1,6.64,3.93l1.6-1.594a15.863,15.863,0,0,0-7.73-4.538m-8.969.56a17.831,17.831,0,0,0-7.152,5.337l1.707,1.481a15.682,15.682,0,0,1,6.248-4.706Zm314.836.021a17.916,17.916,0,0,0-7.134,5.358l1.71,1.478a15.772,15.772,0,0,1,6.237-4.727Zm-239.471.694-1.052,2a18.7,18.7,0,0,1,5.9,5.3l1.774-1.4a21.093,21.093,0,0,0-6.626-5.9m-141.552.99a26.9,26.9,0,0,0-6.095,6.353l1.821,1.338a24.864,24.864,0,0,1,5.562-5.835Zm314.843.033a27.135,27.135,0,0,0-6.08,6.364l1.822,1.337a25.1,25.1,0,0,1,5.553-5.849ZM660.734,127.8l-1.461,1.724a32.486,32.486,0,0,1,5.3,6.211l1.845-1.3a34.428,34.428,0,0,0-5.688-6.63m-314.847.036-1.466,1.72a32.836,32.836,0,0,1,5.3,6.222l1.846-1.3a34.792,34.792,0,0,0-5.676-6.637m41.626,1.236a51.144,51.144,0,0,0-5.333,6.807l-.008.012,1.854,1.292.008-.012a49.5,49.5,0,0,1,5.085-6.509Zm314.85.04a51.49,51.49,0,0,0-5.293,6.766l-.04.057,1.854,1.292.04-.057a49.851,49.851,0,0,1,5.048-6.472ZM726.22,130.3l-1.7,1.487a62.711,62.711,0,0,1,4.042,5.385q.466.669.933,1.335l1.847-1.3q-.465-.659-.926-1.324a64.254,64.254,0,0,0-4.195-5.581m-314.853.042-1.7,1.484a63.224,63.224,0,0,1,4.008,5.346q.481.691.965,1.379l1.846-1.3q-.481-.681-.957-1.367a64.926,64.926,0,0,0-4.158-5.539m-89.138,1.371c-1.056,1.34-2.057,2.777-3.025,4.168-.634.911-1.29,1.852-1.949,2.748l1.82,1.339c.676-.919,1.34-1.873,1.983-2.795.95-1.363,1.932-2.773,2.946-4.061Zm314.856.043c-1.043,1.328-2.034,2.75-2.992,4.125-.644.925-1.31,1.881-1.979,2.789l1.819,1.341c.687-.932,1.362-1.9,2.015-2.838.94-1.349,1.911-2.744,2.914-4.021Zm154.277,1.264-1.819,1.342c.675.915,1.346,1.879,2,2.811.953,1.367,1.938,2.782,2.975,4.1l1.778-1.4c-1-1.271-1.963-2.658-2.9-4-.658-.945-1.338-1.921-2.031-2.861M476.5,133.06l-1.82,1.34c.664.9,1.325,1.851,1.965,2.769.963,1.382,1.959,2.812,3.008,4.146l1.776-1.4c-1.009-1.282-1.985-2.684-2.93-4.04-.648-.93-1.318-1.891-2-2.817m95.561,1.46q-.477.676-.95,1.358a62.9,62.9,0,0,1-4.024,5.364l1.7,1.486a64.5,64.5,0,0,0,4.176-5.559q.471-.675.943-1.347Zm314.86.046q-.46.653-.917,1.31a62.3,62.3,0,0,1-4.061,5.407l1.7,1.489a64.077,64.077,0,0,0,4.215-5.6q.454-.651.909-1.3ZM856.316,135.8l-1.854,1.292.056.08a51.687,51.687,0,0,0,5.273,6.746l1.612-1.584a50.016,50.016,0,0,1-5.03-6.454Zm-314.86.045-1.854,1.292.025.035a51.317,51.317,0,0,0,5.312,6.786l1.608-1.588a49.647,49.647,0,0,1-5.066-6.49Zm-34.309,1.45a32.657,32.657,0,0,1-5.3,6.216l1.464,1.722a34.6,34.6,0,0,0,5.682-6.634Zm314.86.043a32.285,32.285,0,0,1-5.308,6.205l1.459,1.726a34.24,34.24,0,0,0,5.694-6.626ZM606.375,138.58l-1.822,1.338a27.019,27.019,0,0,0,6.087,6.359l1.292-1.855a24.974,24.974,0,0,1-5.558-5.842M442.2,139.96a18.773,18.773,0,0,1-5.9,5.311l1.056,2a21.164,21.164,0,0,0,6.617-5.91ZM757.054,140a18.643,18.643,0,0,1-5.91,5.293l1.048,2a21.023,21.023,0,0,0,6.634-5.893ZM671.39,141.16l-1.709,1.479a17.871,17.871,0,0,0,7.143,5.347l.808-2.111a15.724,15.724,0,0,1-6.242-4.716m-314.856.038-1.706,1.482a17.788,17.788,0,0,0,7.161,5.327l.8-2.114a15.638,15.638,0,0,1-6.254-4.695m20.542,1.209a13.522,13.522,0,0,1-6.634,3.943l.517,2.2A15.888,15.888,0,0,0,378.68,144Zm314.854.036a13.475,13.475,0,0,1-6.646,3.918l.508,2.2a15.839,15.839,0,0,0,7.738-4.524Zm44.7,1-1.474,1.713a14.863,14.863,0,0,0,8.187,3.693l.26-2.245a12.673,12.673,0,0,1-6.973-3.161m-314.852.033-1.469,1.717a14.841,14.841,0,0,0,8.2,3.662l.251-2.246a12.65,12.65,0,0,1-6.984-3.134m-110.088.979a12.433,12.433,0,0,1-7.3,2.241v2.26a14.62,14.62,0,0,0,8.585-2.642Zm314.849.028a12.425,12.425,0,0,1-7.26,2.214h-.05l-.007,2.26h.057a14.617,14.617,0,0,0,8.539-2.61Zm175.632.744-1.072,1.99a14.633,14.633,0,0,0,7.114,1.74,16.593,16.593,0,0,0,1.718-.088l-.235-2.248a14.411,14.411,0,0,1-1.483.075,12.427,12.427,0,0,1-6.043-1.47m-314.847.023-1.064,1.994a14.637,14.637,0,0,0,7.064,1.712,16.57,16.57,0,0,0,1.774-.094l-.242-2.247a14.371,14.371,0,0,1-1.532.081,12.432,12.432,0,0,1-6-1.447m73.5.666a12.735,12.735,0,0,1-4.525.781,13.444,13.444,0,0,1-3.13-.356l-.527,2.2a15.711,15.711,0,0,0,3.656.418,15.161,15.161,0,0,0,5.314-.923Zm314.845.017a12.748,12.748,0,0,1-4.478.763,13.434,13.434,0,0,1-3.179-.367l-.536,2.2a15.693,15.693,0,0,0,3.714.432,15.178,15.178,0,0,0,5.259-.9Z" transform="translate(-228.843 -115.895)" fill="#025157" stroke="#025157" stroke-width="2"/>
    <path id="Trazado_773586" data-name="Trazado 773586" d="M3060.607,124.092h-.085l.012,2.26h.074a12.426,12.426,0,0,1,7.24,2.2l1.275-1.866a14.615,14.615,0,0,0-8.515-2.594m-62.978,0a15.708,15.708,0,0,0-3.685.424l.531,2.2a13.454,13.454,0,0,1,3.154-.361,12.741,12.741,0,0,1,4.5.772l.786-2.119a15.169,15.169,0,0,0-5.288-.913m-62.978,0a14.634,14.634,0,0,0-7.089,1.726l1.068,1.992a12.429,12.429,0,0,1,6.021-1.458,14.342,14.342,0,0,1,1.508.078l.238-2.248a16.649,16.649,0,0,0-1.747-.091m-188.934,0h-.03l.007,2.26h.022a12.427,12.427,0,0,1,7.28,2.227l1.281-1.861a14.616,14.616,0,0,0-8.562-2.626m-62.978,0a15.726,15.726,0,0,0-3.628.411l.522,2.2a13.454,13.454,0,0,1,3.105-.35,12.725,12.725,0,0,1,4.547.789l.794-2.116a15.151,15.151,0,0,0-5.342-.933m-62.978,0a14.64,14.64,0,0,0-7.038,1.7l1.06,2a12.437,12.437,0,0,1,5.978-1.435,14.311,14.311,0,0,1,1.557.083l.247-2.247a16.648,16.648,0,0,0-1.8-.1m250.049.1a14.853,14.853,0,0,0-8.195,3.678l1.472,1.715a12.661,12.661,0,0,1,6.979-3.147Zm314.833.007a14.874,14.874,0,0,0-8.181,3.709l1.478,1.711a12.685,12.685,0,0,1,6.967-3.175Zm-57.548.273-.5,2.2a13.452,13.452,0,0,1,6.652,3.905l1.6-1.6a15.819,15.819,0,0,0-7.747-4.511m-314.833.013-.513,2.2a13.5,13.5,0,0,1,6.64,3.93l1.6-1.594a15.866,15.866,0,0,0-7.729-4.538m-8.969.56a17.83,17.83,0,0,0-7.152,5.337l1.708,1.481a15.682,15.682,0,0,1,6.248-4.706Zm314.835.021a17.922,17.922,0,0,0-7.133,5.358l1.71,1.478a15.776,15.776,0,0,1,6.236-4.727Zm-239.47.694-1.052,2a18.7,18.7,0,0,1,5.9,5.3l1.773-1.4a21.094,21.094,0,0,0-6.626-5.9m-141.552.99a26.914,26.914,0,0,0-6.095,6.353l1.821,1.338a24.846,24.846,0,0,1,5.562-5.835Zm314.843.033a27.157,27.157,0,0,0-6.08,6.364l1.823,1.337a25.076,25.076,0,0,1,5.552-5.849ZM2944.621,127.8l-1.461,1.724a32.482,32.482,0,0,1,5.3,6.211l1.846-1.3a34.422,34.422,0,0,0-5.688-6.63m-314.847.036-1.466,1.72a32.859,32.859,0,0,1,5.3,6.222l1.846-1.3a34.8,34.8,0,0,0-5.677-6.637m41.626,1.236a51.159,51.159,0,0,0-5.333,6.807l-.009.012,1.855,1.292.009-.012a49.526,49.526,0,0,1,5.084-6.509Zm314.851.04a51.418,51.418,0,0,0-5.293,6.766l-.04.057,1.854,1.292.041-.057a49.8,49.8,0,0,1,5.049-6.472Zm23.855,1.186-1.7,1.487a62.656,62.656,0,0,1,4.042,5.385q.466.669.934,1.335l1.847-1.3q-.465-.659-.926-1.324a64.364,64.364,0,0,0-4.2-5.581m-314.853.042-1.7,1.484a63.188,63.188,0,0,1,4.007,5.346q.482.691.966,1.379l1.846-1.3q-.48-.681-.957-1.367a64.862,64.862,0,0,0-4.158-5.539m-89.137,1.371c-1.056,1.34-2.057,2.777-3.025,4.168-.634.911-1.291,1.852-1.949,2.748l1.821,1.339c.676-.919,1.339-1.873,1.982-2.795.95-1.363,1.932-2.773,2.947-4.061Zm314.855.043c-1.043,1.328-2.034,2.75-2.992,4.125-.644.925-1.31,1.881-1.979,2.789l1.819,1.341c.688-.932,1.362-1.9,2.015-2.838.939-1.349,1.912-2.744,2.915-4.021Zm154.276,1.264-1.818,1.342c.675.915,1.346,1.879,2,2.811.953,1.367,1.938,2.782,2.975,4.1l1.778-1.4c-1-1.271-1.963-2.658-2.9-4-.658-.945-1.338-1.921-2.032-2.861m-314.857.044-1.82,1.34c.664.9,1.326,1.851,1.965,2.769.963,1.382,1.959,2.812,3.008,4.146l1.776-1.4c-1.009-1.282-1.985-2.684-2.93-4.04-.648-.93-1.318-1.891-2-2.817m95.561,1.46q-.476.676-.95,1.358a62.85,62.85,0,0,1-4.024,5.364l1.7,1.486a64.7,64.7,0,0,0,4.176-5.559q.469-.675.942-1.347Zm314.859.046q-.458.653-.916,1.31a62.187,62.187,0,0,1-4.062,5.407l1.7,1.489a64.069,64.069,0,0,0,4.214-5.6q.455-.651.909-1.3ZM3140.2,135.8l-1.854,1.292.055.08a51.648,51.648,0,0,0,5.273,6.746l1.612-1.584a50.008,50.008,0,0,1-5.031-6.454Zm-314.86.045-1.854,1.292.025.035a51.281,51.281,0,0,0,5.312,6.786l1.608-1.588a49.645,49.645,0,0,1-5.065-6.49Zm-34.309,1.45a32.644,32.644,0,0,1-5.3,6.216l1.464,1.722a34.568,34.568,0,0,0,5.682-6.634Zm314.86.043a32.3,32.3,0,0,1-5.309,6.205l1.459,1.726a34.272,34.272,0,0,0,5.694-6.626Zm-215.632,1.246-1.822,1.338a27.007,27.007,0,0,0,6.087,6.359l1.292-1.855a24.988,24.988,0,0,1-5.557-5.842m-164.179,1.379a18.783,18.783,0,0,1-5.9,5.311l1.055,2a21.154,21.154,0,0,0,6.617-5.91Zm314.857.041a18.648,18.648,0,0,1-5.91,5.293l1.048,2a21.032,21.032,0,0,0,6.634-5.893Zm-85.663,1.159-1.708,1.479a17.87,17.87,0,0,0,7.144,5.347l.808-2.111a15.725,15.725,0,0,1-6.243-4.716m-314.856.038-1.706,1.482a17.787,17.787,0,0,0,7.161,5.327l.8-2.114a15.641,15.641,0,0,1-6.254-4.695m20.542,1.209a13.519,13.519,0,0,1-6.634,3.943l.517,2.2a15.89,15.89,0,0,0,7.722-4.551Zm314.854.036a13.478,13.478,0,0,1-6.647,3.918l.509,2.2a15.841,15.841,0,0,0,7.738-4.524Zm44.7,1-1.474,1.713a14.861,14.861,0,0,0,8.188,3.693l.259-2.245a12.675,12.675,0,0,1-6.973-3.161m-314.852.033-1.469,1.717a14.837,14.837,0,0,0,8.2,3.662l.251-2.246a12.65,12.65,0,0,1-6.983-3.134m-110.089.979a12.429,12.429,0,0,1-7.3,2.241v2.26a14.62,14.62,0,0,0,8.585-2.642Zm314.85.028a12.425,12.425,0,0,1-7.26,2.214h-.049l-.007,2.26h.057a14.618,14.618,0,0,0,8.539-2.61Zm175.632.744-1.072,1.99a14.633,14.633,0,0,0,7.114,1.74,16.6,16.6,0,0,0,1.719-.088l-.235-2.248a14.393,14.393,0,0,1-1.483.075,12.423,12.423,0,0,1-6.042-1.47m-314.848.023-1.064,1.994a14.641,14.641,0,0,0,7.064,1.712,16.577,16.577,0,0,0,1.775-.094l-.243-2.247a14.372,14.372,0,0,1-1.532.081,12.432,12.432,0,0,1-6-1.447m73.5.666a12.734,12.734,0,0,1-4.525.781,13.444,13.444,0,0,1-3.13-.356l-.527,2.2a15.716,15.716,0,0,0,3.657.418,15.167,15.167,0,0,0,5.314-.923Zm314.845.017a12.751,12.751,0,0,1-4.478.763,13.433,13.433,0,0,1-3.179-.367l-.536,2.2a15.7,15.7,0,0,0,3.715.432,15.18,15.18,0,0,0,5.258-.9Z" transform="translate(-1945.907 -115.895)" fill="#025157" stroke="#025157" stroke-width="2"/>
  </g>
</svg>
