<svg xmlns="http://www.w3.org/2000/svg" width="59" height="59" viewBox="0 0 59 59">
  <g id="Grupo_54994" data-name="Grupo 54994" transform="translate(-158.584 -87.92)">
    <g id="Grupo_54992" data-name="Grupo 54992" transform="translate(159.536 88.872)">
      <g id="Grupo_54981" data-name="Grupo 54981" transform="translate(5.71 48.285)">
        <path id="Trazado_104095" data-name="Trazado 104095" d="M222.2,509.7v.952h-7.613l.495-.99a13.374,13.374,0,0,0,1.408-5.957,13.554,13.554,0,0,0-.133-1.865,4.709,4.709,0,0,0,.609.438,4.969,4.969,0,0,0,2.665.761,5.036,5.036,0,0,0,2.569-.7Z" transform="translate(-214.584 -501.84)" fill="#ff826e"/>
      </g>
      <g id="Grupo_54982" data-name="Grupo 54982" transform="translate(0 29.024)">
        <path id="Trazado_104096" data-name="Trazado 104096" d="M174.549,348.951h-6.062l-.438-.438a4.97,4.97,0,0,1,3.121-8.479l1.523-.114.99,5.976A14.734,14.734,0,0,0,174.549,348.951Z" transform="translate(-166.584 -339.92)" fill="#ff826e"/>
      </g>
      <g id="Grupo_54983" data-name="Grupo 54983" transform="translate(6.109 28.539)">
        <path id="Trazado_104097" data-name="Trazado 104097" d="M234.854,347.954l-1.456,2.179-1.627-2.455.485-.666a2.722,2.722,0,0,0,.514-1.58v-.247a2.692,2.692,0,0,0-4.6-1.9l-.162.162h-.952a1.909,1.909,0,0,0-1.9,1.9v.952l-2.531,3.835-1.456-2.179a14.639,14.639,0,0,1-2.236-5.653l-.99-5.976.638-.048,5.624-.438.257,1.047a3.66,3.66,0,0,0,7.1,0l.257-1.047,6.262.485-.99,5.976a14.64,14.64,0,0,1-2.236,5.653Z" transform="translate(-217.944 -335.84)" fill="#ff826e"/>
      </g>
      <g id="Grupo_54984" data-name="Grupo 54984" transform="translate(24.39 29.024)">
        <path id="Trazado_104098" data-name="Trazado 104098" d="M378.266,341.614a4.969,4.969,0,0,1-.143,6.9l-.438.438h-6.062a14.735,14.735,0,0,0,.866-3.055l.99-5.976,1.523.114A4.923,4.923,0,0,1,378.266,341.614Z" transform="translate(-371.624 -339.92)" fill="#ff826e"/>
      </g>
      <g id="Grupo_54985" data-name="Grupo 54985" transform="translate(19.032 48.285)">
        <path id="Trazado_104099" data-name="Trazado 104099" d="M333.7,509.662l.495.99h-7.613v-8.317a5.036,5.036,0,0,0,2.569.7,4.969,4.969,0,0,0,2.665-.761,4.708,4.708,0,0,0,.609-.438,13.554,13.554,0,0,0-.133,1.865,13.374,13.374,0,0,0,1.408,5.957Z" transform="translate(-326.584 -501.84)" fill="#ff826e"/>
      </g>
      <g id="Grupo_54986" data-name="Grupo 54986" transform="translate(13.323 45.573)">
        <path id="Trazado_104100" data-name="Trazado 104100" d="M283.409,481.581a4.282,4.282,0,0,1-.647-.723l-1.323-1.818-1.323,1.818a4.28,4.28,0,0,1-.647.723,4.591,4.591,0,0,1-.885.666v8.317h5.71v-8.317A4.591,4.591,0,0,1,283.409,481.581Z" transform="translate(-278.584 -479.04)" fill="#fc6e51"/>
      </g>
      <g id="Grupo_54987" data-name="Grupo 54987" transform="translate(4.758 0)">
        <path id="Trazado_104101" data-name="Trazado 104101" d="M254.041,145.08a6.712,6.712,0,0,1,.076,2.055,6.815,6.815,0,0,1-6.871,5.881c-10.934-.067-17.158-4.025-20.2-9.126a4.853,4.853,0,0,0,.923-1.294l4.311-8.622.438-.438a4.97,4.97,0,0,0-3.121-8.479l-1.523-.114-6.262-.485-.742-4.444a7.6,7.6,0,0,0,4.549-6.966v-8.565a2.851,2.851,0,0,1-2.855,2.855h-2.274a11.365,11.365,0,0,1-6.29-1.9,5.027,5.027,0,0,0-3.806,4.872v2.741a7.627,7.627,0,0,0,2.227,5.386,7.783,7.783,0,0,0,2.322,1.58l-.742,4.444-5.624.438a10.376,10.376,0,0,1-1.989-6.138V107.339a11.419,11.419,0,0,1,22.839,0V112.1c0,6.661,10.468,12.371,18.081,12.371h.114a11.308,11.308,0,0,1,6.423,20.612Z" transform="translate(-206.584 -95.92)" fill="#fcd770"/>
      </g>
      <g id="Grupo_54988" data-name="Grupo 54988" transform="translate(16.177 38.055)">
        <path id="Trazado_104102" data-name="Trazado 104102" d="M307.97,420.617l1.456-2.179a14.718,14.718,0,0,0,1.37-2.6h6.062l-4.311,8.622a4.851,4.851,0,0,1-.923,1.294q-.157.157-.343.314a4.713,4.713,0,0,1-.609.438,4.969,4.969,0,0,1-2.665.761,5.036,5.036,0,0,1-2.569-.7,4.589,4.589,0,0,1-.885-.666,4.281,4.281,0,0,1-.647-.723l-1.323-1.818,3.759-5.2Z" transform="translate(-302.584 -415.84)" fill="#f0d0b4"/>
      </g>
      <g id="Grupo_54989" data-name="Grupo 54989" transform="translate(1.903 35.191)">
        <path id="Trazado_104103" data-name="Trazado 104103" d="M200.617,396.946l-3.759,5.2-1.323,1.818a4.283,4.283,0,0,1-.647.723,4.591,4.591,0,0,1-.885.666,5.036,5.036,0,0,1-2.569.7,4.969,4.969,0,0,1-2.665-.761,4.712,4.712,0,0,1-.609-.438,5,5,0,0,1-1.266-1.608l-4.311-8.622h6.062a14.717,14.717,0,0,0,1.37,2.6l1.456,2.179L194,395.566v-.952a1.909,1.909,0,0,1,1.9-1.9h.952l.162-.162a2.693,2.693,0,0,1,4.6,1.9v.247a2.722,2.722,0,0,1-.514,1.58Z" transform="translate(-182.584 -391.76)" fill="#f0d0b4"/>
      </g>
      <g id="Grupo_54990" data-name="Grupo 54990" transform="translate(12.371 24.095)">
        <path id="Trazado_104104" data-name="Trazado 104104" d="M277.455,298.48l.742,4.444-.257,1.047a3.659,3.659,0,0,1-7.1,0l-.257-1.047.742-4.444a7.578,7.578,0,0,0,6.128,0Z" transform="translate(-270.584 -298.48)" fill="#f0d0b4"/>
      </g>
      <g id="Grupo_54991" data-name="Grupo 54991" transform="translate(8.565 8.565)">
        <path id="Trazado_104105" data-name="Trazado 104105" d="M253.81,167.92v8.565a7.607,7.607,0,0,1-10.677,6.966,7.783,7.783,0,0,1-2.322-1.58,7.627,7.627,0,0,1-2.227-5.386v-2.741a5.027,5.027,0,0,1,3.806-4.872,11.365,11.365,0,0,0,6.29,1.9h2.274A2.851,2.851,0,0,0,253.81,167.92Z" transform="translate(-238.584 -167.92)" fill="#f0d0b4"/>
      </g>
    </g>
    <g id="Grupo_54993" data-name="Grupo 54993" transform="translate(158.584 87.92)">
      <path id="Trazado_104106" data-name="Trazado 104106" d="M277.041,252.538a2.128,2.128,0,0,1-3.806,0l-.1-.2-1.7.852.1.2a4.031,4.031,0,0,0,7.211,0l.1-.2-1.7-.852Z" transform="translate(-258.009 -232.778)"/>
      <path id="Trazado_104107" data-name="Trazado 104107" d="M217.584,128.728a12.273,12.273,0,0,0-12.26-12.26h-.111c-7.479,0-17.129-5.537-17.129-11.419v-4.758a12.371,12.371,0,1,0-24.742,0V111.71a11.345,11.345,0,0,0,1.309,5.307l-.6.046a5.95,5.95,0,0,0-5.468,5.906,5.887,5.887,0,0,0,1.741,4.2l.332.33,4.238,8.481a6.027,6.027,0,0,0,1.215,1.637,12.646,12.646,0,0,1,.087,1.406,12.444,12.444,0,0,1-1.306,5.532l-1.186,2.37H187.72l-1.186-2.371a12.429,12.429,0,0,1-1.3-5.35c3.052,3.826,8.819,7.659,19.708,7.719h.046a7.809,7.809,0,0,0,7.782-6.72,7.689,7.689,0,0,0-.007-1.757,12.251,12.251,0,0,0,4.815-9.713Zm-41.871-16.066A6.669,6.669,0,0,1,169.052,106v-2.738a4.067,4.067,0,0,1,2.709-3.839,12.237,12.237,0,0,0,6.431,1.819h2.279a3.777,3.777,0,0,0,1.9-.511V106A6.669,6.669,0,0,1,175.713,112.662Zm0,1.9a8.51,8.51,0,0,0,2.312-.326l.522,3.135-.213.853a2.7,2.7,0,0,1-5.244,0l-.213-.853.522-3.135a8.523,8.523,0,0,0,2.313.326Zm-4.535,3.859.066.263a4.607,4.607,0,0,0,8.939,0l.066-.263,4.426.341-.824,4.947A13.455,13.455,0,0,1,181.761,129l-.657.985-.471-.711.1-.132a3.632,3.632,0,0,0,.693-2.139v-.242a3.643,3.643,0,0,0-6.1-2.692h-.563a2.858,2.858,0,0,0-2.855,2.855v.665l-1.584,2.4-.657-.985a13.455,13.455,0,0,1-2.089-5.284l-.824-4.947Zm13.651,16.7a4.121,4.121,0,0,1-7.025.577l-.915-1.264,2.552-3.522,2.112,3.192,1.587-1.051-.9-1.354,1.1-1.651a15.518,15.518,0,0,0,1.186-2.171h3.918Zm-7.212,3.812v2.645l-.794-1.323Zm-2.453-2.118.55-.758.55.759c.072.1.155.189.233.285l-.783,1.306-.783-1.306C175.008,137.008,175.091,136.918,175.163,136.818Zm-.56,3.441-.794,1.322v-2.645Zm1.11,1.849,1.745,2.909h-3.491Zm14.044-16.292-.163.162h-4.338a15.458,15.458,0,0,0,.472-1.954l.852-5.114.648.049a4.038,4.038,0,0,1,3.711,4.008,4,4,0,0,1-1.182,2.848ZM164.2,118.961l.648-.049.852,5.113a15.461,15.461,0,0,0,.472,1.954h-4.338l-.163-.162a3.994,3.994,0,0,1-1.182-2.847,4.039,4.039,0,0,1,3.711-4.008Zm-1.221,8.92H166.9a15.515,15.515,0,0,0,1.185,2.171l1.1,1.651-.9,1.354,1.587,1.051,3.937-5.949v-1.238a.953.953,0,0,1,.952-.952h1.345l.443-.443a1.74,1.74,0,0,1,2.97,1.231V127a1.727,1.727,0,0,1-.331,1.021l-5.567,7.68a4.121,4.121,0,0,1-7.024-.576Zm5.118,11.005a5.844,5.844,0,0,0,3.811.187v5.943h-5.129a14.354,14.354,0,0,0,1.323-6c0-.044,0-.088,0-.131Zm11.424,6.13v-5.943a5.974,5.974,0,0,0,1.622.233,6.035,6.035,0,0,0,2.19-.421c0,.044,0,.088,0,.131a14.342,14.342,0,0,0,1.323,6ZM210.9,134.241a7.623,7.623,0,0,0-5.682-2.547h-2.855a4.758,4.758,0,1,0,4.758,4.758h-1.9a2.855,2.855,0,1,1-2.855-2.855h2.855a5.712,5.712,0,0,1,5.672,6.385,5.886,5.886,0,0,1-5.891,5.033h-.034c-11.23-.064-16.529-4.311-19.027-8.1a6.133,6.133,0,0,0,.6-.944l4.238-8.481.332-.33a5.883,5.883,0,0,0,1.741-4.195,5.95,5.95,0,0,0-5.468-5.906l-7.038-.541-.5-3.017A8.573,8.573,0,0,0,184.278,106V97.436a3.806,3.806,0,1,0-7.613,0h1.9a1.9,1.9,0,1,1,1.9,1.9h-2.279a10.344,10.344,0,0,1-5.758-1.743l-.35-.234-.408.1a5.97,5.97,0,0,0-4.527,5.8V106a8.568,8.568,0,0,0,4.445,7.5l-.5,3.017-4.329.333a9.428,9.428,0,0,1-1.517-5.144V100.291a10.468,10.468,0,0,1,20.935,0v4.758c0,7.05,10.644,13.323,19.032,13.323h.111a10.354,10.354,0,0,1,6.925,18.053,7.56,7.56,0,0,0-1.354-2.184Z" transform="translate(-158.584 -87.92)"/>
      <path id="Trazado_104108" data-name="Trazado 104108" d="M550.7,359.92h-.111v1.9h.111a6.557,6.557,0,0,1,6.55,6.55v.088l1.9.048v-.135A8.462,8.462,0,0,0,550.7,359.92Z" transform="translate(-503.955 -327.565)"/>
      <path id="Trazado_104109" data-name="Trazado 104109" d="M598.472,447.445l1.622.994a8.4,8.4,0,0,0,.934-2.145l-1.833-.51a6.5,6.5,0,0,1-.723,1.661Z" transform="translate(-546.147 -403.216)"/>
    </g>
  </g>
</svg>
