<svg xmlns="http://www.w3.org/2000/svg" width="39.021" height="62.77" viewBox="0 0 39.021 62.77">
  <g id="Grupo_54959" data-name="Grupo 54959" transform="translate(0)">
    <path id="Trazado_103954" data-name="Trazado 103954" d="M-763.7,20.054V61.981a1.194,1.194,0,0,1-2.148.718l-1.07-1.422a1.2,1.2,0,0,0-2.023.184l-1.177,2.354a1.193,1.193,0,0,1-2.077.1l-2.864-4.528a1.194,1.194,0,0,0-2.082.112l-1.2,2.456a1.2,1.2,0,0,1-2.147,0l-.881-1.817-.119-.245a1.193,1.193,0,0,0-1.984-.252l-2,2.352a1.194,1.194,0,0,1-2-.291l-2.383-5.377a1.194,1.194,0,0,0-2.16-.049l-1.053,2.111a1.194,1.194,0,0,1-2.2-.148l-1.166-3.426a1.194,1.194,0,0,0-2.123-.279l-.131.195a1.194,1.194,0,0,1-2.186-.665V19.752a1.162,1.162,0,0,1,.772-1.1,4.094,4.094,0,0,0,2.735-3.862V4.714a1.169,1.169,0,0,1,1.169-1.169h4.5a1.165,1.165,0,0,1,1.165,1.06A15.586,15.586,0,0,0-775.01,18.885h10.136a1.17,1.17,0,0,1,1.17,1.169Zm0,0" transform="translate(801.805 -2.626)" fill="#f4bc8e"/>
    <path id="Trazado_103955" data-name="Trazado 103955" d="M-624.09,129.835v41.927a1.194,1.194,0,0,1-2.148.718l-1.07-1.422a1.2,1.2,0,0,0-2.023.184l-1.177,2.354a1.193,1.193,0,0,1-2.077.1l-2.864-4.528a1.194,1.194,0,0,0-2.082.112l-1.2,2.456a1.2,1.2,0,0,1-2.147,0l-.881-1.817c14.456-10.422,13.874-32.353,12.965-41.253h3.539a1.17,1.17,0,0,1,1.17,1.169Zm0,0" transform="translate(662.192 -112.407)" fill="#efa66f"/>
    <path id="Trazado_103956" data-name="Trazado 103956" d="M-567.727,228.986v11.251l-4.464-1.51a1.218,1.218,0,0,1-.643-.5l-.472-.744-4.027-6.348a1.227,1.227,0,0,1,1-1.883l4.149-.126Zm0,0" transform="translate(605.829 -200.428)" fill="#fe672d"/>
    <path id="Trazado_103957" data-name="Trazado 103957" d="M-537.526,228.986v11.251l-4.464-1.51a1.218,1.218,0,0,1-.643-.5l-.472-.744a59.254,59.254,0,0,0,1.119-8.357Zm0,0" transform="translate(575.627 -200.428)" fill="#d85322"/>
    <path id="Trazado_103958" data-name="Trazado 103958" d="M-689.015,189.067-691.1,187.1a1.225,1.225,0,0,1-.249-1.457l1.454-2.805a1.226,1.226,0,0,1,2.188.02l1.171,2.367a1.23,1.23,0,0,1,.1.811l-.537,2.4a1.226,1.226,0,0,1-2.037.625Zm0,0" transform="translate(705.82 -159.359)" fill="#fe672d"/>
    <path id="Trazado_103959" data-name="Trazado 103959" d="M-761.065,264.024l5.172,4.865a1.225,1.225,0,0,1,.248,1.457l-3.586,6.922a1.226,1.226,0,0,1-2.187-.021l-2.907-5.875a1.227,1.227,0,0,1-.1-.811l1.322-5.911a1.226,1.226,0,0,1,2.036-.625Zm0,0" transform="translate(769.839 -230.878)" fill="#fe672d"/>
    <path id="Trazado_103960" data-name="Trazado 103960" d="M-703.333,55.584c1.065,1.623,2.689,2.44,3.626,1.825s.833-2.43-.233-4.053-2.689-2.44-3.627-1.825-.833,2.43.233,4.053Zm0,0" transform="translate(716.979 -44.549)" fill="#00b579"/>
    <path id="Trazado_103961" data-name="Trazado 103961" d="M-736.027,55.979c-.48,2.316.215,4.418,1.552,4.7s2.81-1.375,3.29-3.691-.215-4.417-1.552-4.695-2.81,1.375-3.29,3.691Zm0,0" transform="translate(745.032 -45.367)" fill="#00fbaa"/>
    <path id="Trazado_103962" data-name="Trazado 103962" d="M-807.466,20.708a.919.919,0,0,0,.919-.919V13.172a.243.243,0,0,1,.158-.231,5.018,5.018,0,0,0,3.35-4.729V-1.866a.25.25,0,0,1,.25-.25h4.5a.245.245,0,0,1,.248.217,16.4,16.4,0,0,0,.86,4.051c-1.4.466-2.647,2.119-3.1,4.32a7.077,7.077,0,0,0,.122,3.587,3.033,3.033,0,0,0,2.143,2.195,2.348,2.348,0,0,0,.478.049c1.4,0,2.757-1.236,3.5-3.119a3.738,3.738,0,0,0,2.2.843,2.4,2.4,0,0,0,.433-.04,16.347,16.347,0,0,0,9.812,3.236h3.34a.919.919,0,0,0,.919-.919.92.92,0,0,0-.919-.919h-3.34a14.52,14.52,0,0,1-8.269-2.553,4.659,4.659,0,0,0-.72-4.485c-1.308-1.992-3.254-2.9-4.651-2.229a14.575,14.575,0,0,1-.976-4.168,2.093,2.093,0,0,0-2.08-1.9h-4.5a2.092,2.092,0,0,0-2.089,2.089V8.212A3.176,3.176,0,0,1-807,11.205a2.084,2.084,0,0,0-1.387,1.967v6.616a.919.919,0,0,0,.919.919Zm12.027-13.232c-.385,1.854-1.5,3.123-2.2,2.977-.3-.063-.591-.426-.771-.971a5.3,5.3,0,0,1-.067-2.637c.364-1.757,1.385-2.989,2.089-2.989a.566.566,0,0,1,.114.011c.7.146,1.222,1.753.838,3.608Zm3.324-2.12c.884,1.346.825,2.564.5,2.78-.285.187-1.129-.1-1.908-.98a6.327,6.327,0,0,0-.429-3.365,3.687,3.687,0,0,1,1.839,1.565Zm0,0" transform="translate(808.385 3.955)"/>
    <path id="Trazado_103963" data-name="Trazado 103963" d="M-575.491,121.166h-2.792a.92.92,0,0,0-.919.919.919.919,0,0,0,.919.919h2.792a.25.25,0,0,1,.25.25v10.237l-7.717.236a2.121,2.121,0,0,0-1.829,1.139,2.122,2.122,0,0,0,.084,2.155l4.5,7.091a2.147,2.147,0,0,0,1.125.884l3.839,1.3v3.626a.92.92,0,0,0,.919.919.919.919,0,0,0,.919-.919V123.255a2.091,2.091,0,0,0-2.089-2.089Zm-3,22.089a.305.305,0,0,1-.159-.125l-4.5-7.092a.3.3,0,0,1-.013-.309.3.3,0,0,1,.261-.163l7.66-.234v9.021Zm0,0" transform="translate(612.423 -105.826)"/>
    <path id="Trazado_103964" data-name="Trazado 103964" d="M-770.287,235.228a.919.919,0,0,0-.919.919V247.4a.256.256,0,0,1-.188.261.257.257,0,0,1-.307-.1l-1.07-1.422a2.1,2.1,0,0,0-1.881-.833,2.1,2.1,0,0,0-1.7,1.16l-1.177,2.354a.265.265,0,0,1-.232.151.268.268,0,0,1-.246-.127l-2.864-4.528a2.084,2.084,0,0,0-1.9-.981,2.088,2.088,0,0,0-1.784,1.18l-1.205,2.455a.261.261,0,0,1-.247.154h0a.26.26,0,0,1-.247-.155l-1-2.062a2.105,2.105,0,0,0-1.635-1.174,2.106,2.106,0,0,0-1.877.727l-2,2.353a.268.268,0,0,1-.249.094.268.268,0,0,1-.212-.161l-2.383-5.377a2.094,2.094,0,0,0-1.884-1.257,2.1,2.1,0,0,0-1.94,1.17l-1.053,2.111a.258.258,0,0,1-.264.152.259.259,0,0,1-.242-.186l-1.167-3.426a2.1,2.1,0,0,0-1.724-1.415,2.1,2.1,0,0,0-2.032.919l-.131.2a.252.252,0,0,1-.308.11.253.253,0,0,1-.195-.263V215.8a.919.919,0,0,0-.919-.919.919.919,0,0,0-.919.919v23.689a2.1,2.1,0,0,0,1.5,2.022,2.1,2.1,0,0,0,2.371-.846l.131-.2a.26.26,0,0,1,.264-.119.26.26,0,0,1,.224.184l1.167,3.426a2.108,2.108,0,0,0,1.859,1.428,2.109,2.109,0,0,0,2.034-1.165l1.053-2.111a.262.262,0,0,1,.252-.152.26.26,0,0,1,.245.163l2.382,5.377a2.1,2.1,0,0,0,1.629,1.236,2.1,2.1,0,0,0,1.914-.722l2-2.353a.268.268,0,0,1,.244-.095.269.269,0,0,1,.213.153l1,2.062a2.1,2.1,0,0,0,1.9,1.192,2.1,2.1,0,0,0,1.9-1.182l1.2-2.455a.267.267,0,0,1,.232-.154.267.267,0,0,1,.247.128l2.863,4.529a2.087,2.087,0,0,0,1.782.984l.111,0a2.089,2.089,0,0,0,1.784-1.166l1.177-2.354a.268.268,0,0,1,.221-.151.267.267,0,0,1,.245.108l1.07,1.421a2.085,2.085,0,0,0,2.359.733,2.085,2.085,0,0,0,1.443-2V236.148a.919.919,0,0,0-.919-.919Zm0,0" transform="translate(808.389 -188.049)"/>
    <path id="Trazado_103965" data-name="Trazado 103965" d="M-692.108,179.659a2.154,2.154,0,0,0-.171-1.419l-1.171-2.367a2.135,2.135,0,0,0-1.9-1.194h-.021a2.134,2.134,0,0,0-1.9,1.158l-1.454,2.806a2.154,2.154,0,0,0,.435,2.55l2.087,1.964a2.123,2.123,0,0,0,1.46.585,2.181,2.181,0,0,0,.64-.1,2.121,2.121,0,0,0,1.464-1.583Zm-1.795-.4-.537,2.4a.3.3,0,0,1-.209.226.3.3,0,0,1-.3-.07l-2.088-1.964a.308.308,0,0,1-.062-.364l1.454-2.805a.294.294,0,0,1,.272-.166h0a.294.294,0,0,1,.272.17l1.171,2.367a.307.307,0,0,1,.024.2Zm0,0" transform="translate(712.385 -152.778)"/>
    <path id="Trazado_103966" data-name="Trazado 103966" d="M-761.842,261.628l-5.172-4.865a2.122,2.122,0,0,0-2.1-.488,2.122,2.122,0,0,0-1.464,1.583l-1.322,5.912a2.154,2.154,0,0,0,.171,1.419l2.907,5.875a2.136,2.136,0,0,0,1.9,1.194h.021a2.134,2.134,0,0,0,1.9-1.158l3.586-6.922a2.154,2.154,0,0,0-.434-2.55Zm-1.2,1.7-3.586,6.921a.294.294,0,0,1-.272.166h0a.294.294,0,0,1-.272-.171l-2.907-5.875a.305.305,0,0,1-.024-.2l1.322-5.911a.3.3,0,0,1,.209-.226.32.32,0,0,1,.095-.014.292.292,0,0,1,.206.084l5.172,4.865a.307.307,0,0,1,.062.364Zm0,0" transform="translate(776.419 -224.286)"/>
    <path id="Trazado_103967" data-name="Trazado 103967" d="M-664.913,314.264h-.017a.92.92,0,0,0-.919.915.92.92,0,0,0,.915.924h.017a.919.919,0,0,0,.919-.915.92.92,0,0,0-.915-.924Zm0,0" transform="translate(683.325 -275.251)"/>
    <path id="Trazado_103968" data-name="Trazado 103968" d="M-648.4,343.755h.017a.92.92,0,0,0,.919-.915.92.92,0,0,0-.915-.924h-.017a.92.92,0,0,0-.919.915.92.92,0,0,0,.915.924Zm0,0" transform="translate(668.821 -299.513)"/>
    <path id="Trazado_103969" data-name="Trazado 103969" d="M-707.82,385.971h0a.92.92,0,0,0-.919.915.919.919,0,0,0,.915.924h.017a.919.919,0,0,0,.919-.915.919.919,0,0,0-.915-.924Zm0,0" transform="translate(720.96 -338.167)"/>
    <path id="Trazado_103970" data-name="Trazado 103970" d="M-567.816,387.81a.919.919,0,0,0,.919-.919.919.919,0,0,0-.919-.919h-.013a.92.92,0,0,0-.919.919.919.919,0,0,0,.919.919Zm0,0" transform="translate(598.127 -338.167)"/>
    <path id="Trazado_103971" data-name="Trazado 103971" d="M-740.817,186.763h0a.919.919,0,0,0,.919-.915.919.919,0,0,0-.915-.924h-.017a.919.919,0,0,0-.919.915.918.918,0,0,0,.915.924Zm0,0" transform="translate(749.915 -161.768)"/>
    <path id="Trazado_103972" data-name="Trazado 103972" d="M-634.872,159.4h.017a.919.919,0,0,0,.919-.915.92.92,0,0,0-.915-.924h-.017a.92.92,0,0,0-.919.915.919.919,0,0,0,.915.924Zm0,0" transform="translate(656.948 -137.763)"/>
  </g>
</svg>
