<svg id="Grupo_54939" data-name="Grupo 54939" xmlns="http://www.w3.org/2000/svg" width="59.52" height="49.6" viewBox="0 0 59.52 49.6">
  <rect id="Rectángulo_5174" data-name="Rectángulo 5174" width="20.652" height="13.503" transform="translate(28.596 12.235)" fill="#ffc11c"/>
  <path id="Trazado_103905" data-name="Trazado 103905" d="M315.68,172.912c0,6.026-8.883,10.912-19.84,10.912S276,178.938,276,172.912,284.883,162,295.84,162s19.84,4.886,19.84,10.912Zm0,0" transform="translate(-266.08 -161.008)" fill="#f79826"/>
  <path id="Trazado_103906" data-name="Trazado 103906" d="M355.84,207.968c0,2.191-4.441,3.968-9.92,3.968s-9.92-1.777-9.92-3.968S340.441,204,345.92,204a19.652,19.652,0,0,1,7.014,1.162c1.861.744,2.906,1.754,2.906,2.806Zm0,0" transform="translate(-316.16 -196.064)" fill="#e8732d"/>
  <path id="Trazado_103907" data-name="Trazado 103907" d="M324.608,245.856V252.8H295.84c-10.958,0-19.84-4.886-19.84-10.912V228c0,3.318,2.693,6.29,6.944,8.292.628.3,1.291.57,1.984.822A27.434,27.434,0,0,0,287.9,238q.967.234,1.984.409c.962.166,1.957.294,2.976.378.652.053,1.313.09,1.984.108q.493.013.992.014h21.824a6.937,6.937,0,0,1,6.944,6.944Zm0,0" transform="translate(-266.08 -216.096)" fill="#faac25"/>
  <path id="Trazado_103908" data-name="Trazado 103908" d="M279.536,336v11.9a6.944,6.944,0,0,1-6.944,6.944H222v-11.9h50.592A6.944,6.944,0,0,0,279.536,336Zm0,0" transform="translate(-221.008 -306.24)" fill="#ffc11c"/>
  <rect id="Rectángulo_5175" data-name="Rectángulo 5175" width="12.709" height="11.915" transform="translate(0.794 36.859)" fill="#b3b2b3"/>
  <rect id="Rectángulo_5176" data-name="Rectángulo 5176" width="1.589" height="5.56" transform="translate(3.972 40.036)"/>
  <rect id="Rectángulo_5177" data-name="Rectángulo 5177" width="1.589" height="1.589" transform="translate(7.943 40.036)"/>
  <rect id="Rectángulo_5178" data-name="Rectángulo 5178" width="1.589" height="1.589" transform="translate(7.943 44.008)"/>
  <path id="Trazado_103909" data-name="Trazado 103909" d="M333.529,206.687a22.724,22.724,0,0,0,14.766,0c2.275-.911,3.529-2.234,3.529-3.727s-1.254-2.816-3.529-3.727a22.724,22.724,0,0,0-14.766,0c-2.275.911-3.529,2.234-3.529,3.727s1.254,2.816,3.529,3.727Zm7.383-6.7c5.45,0,8.928,1.762,8.928,2.976s-3.478,2.976-8.928,2.976-8.928-1.762-8.928-2.976,3.478-2.976,8.928-2.976Zm0,0" transform="translate(-311.152 -191.056)"/>
  <path id="Trazado_103910" data-name="Trazado 103910" d="M267.584,177.824h-.992V167.9c0-3.293-2.246-6.342-6.325-8.585a33.363,33.363,0,0,0-29.013,0c-4.079,2.243-6.325,5.292-6.325,8.585v13.888c0,3.293,2.246,6.342,6.325,8.585a22.915,22.915,0,0,0,2.911,1.335H216.992a.992.992,0,0,0-.992.992v11.9a.992.992,0,0,0,.992.992h50.592a7.946,7.946,0,0,0,7.936-7.936v-11.9a7.946,7.946,0,0,0-7.936-7.936ZM227.9,203.616h-9.92V193.7h9.92Zm36.7-25.792h-7.252a22.916,22.916,0,0,0,2.911-1.335,14.825,14.825,0,0,0,4.341-3.451Zm-32.4-16.767a31.409,31.409,0,0,1,27.1,0c3.416,1.879,5.3,4.31,5.3,6.846s-1.881,4.968-5.3,6.846a31.409,31.409,0,0,1-27.1,0c-3.416-1.879-5.3-4.31-5.3-6.846s1.881-4.968,5.3-6.846Zm0,27.581c-3.416-1.879-5.3-4.31-5.3-6.846v-8.754a14.828,14.828,0,0,0,4.341,3.451q.772.424,1.611.8v4.5h1.984v-3.719a28.841,28.841,0,0,0,2.976.856v2.863h1.984v-2.468c.97.162,1.964.284,2.976.366v6.07h1.984V179.8q.494.012.992.013h1.984v1.984h1.984v-1.984H252.7v1.984h1.984v-1.984h2.976v5.952h1.984v-5.952h2.976v1.984h1.984v-1.984h2.976v1.984h1.984v-1.643a5.952,5.952,0,0,1-1.984,11.563H245.76a28.666,28.666,0,0,1-13.551-3.074Zm41.327,9.026a5.959,5.959,0,0,1-5.952,5.952h-37.7V193.7h2.976v1.984h1.984V193.7h2.976v1.984h1.984V193.7h2.976v5.952h1.984V193.7h2.976v1.984h1.984V193.7H252.7v1.984h1.984V193.7h2.976v5.952h1.984V193.7h2.976v1.984h1.984V193.7h2.976v1.984h1.984v-2.235A7.948,7.948,0,0,0,273.536,191Zm0,0" transform="translate(-216 -156)"/>
</svg>
