<svg xmlns="http://www.w3.org/2000/svg" xmlns:xlink="http://www.w3.org/1999/xlink" width="31" height="68" viewBox="0 0 31 68">
  <defs>
    <clipPath id="clip-path">
      <rect id="SVGID" width="31" height="68" transform="translate(-0.4 0)" fill="none"/>
    </clipPath>
  </defs>
  <g id="Grupo_54930" data-name="Grupo 54930" transform="translate(-0.082 -0.06)">
    <path id="Trazado_103874" data-name="Trazado 103874" d="M343.84,163.332a35.968,35.968,0,0,1,1.266,9.46v7.552h-6.746l-2.614-11.328a4.24,4.24,0,0,0-8.264,0l-2.614,11.328h-6.746v-7.552a35.968,35.968,0,0,1,1.266-9.46l2.107-7.722L317,139.87l10.118-4.5L328.243,132h6.746l1.124,3.373,10.118,4.5-4.5,15.74Zm0,0" transform="translate(-316.364 -130.884)" fill="#f9caa7"/>
    <g id="Grupo_54929" data-name="Grupo 54929" transform="translate(0.482 0.06)">
      <g id="Grupo_54928" data-name="Grupo 54928" clip-path="url(#clip-path)">
        <path id="Trazado_103875" data-name="Trazado 103875" d="M325.249,456h22.485a2.249,2.249,0,0,1,0,4.5H325.249a2.249,2.249,0,0,1,0-4.5Zm0,0" transform="translate(-321.721 -394.233)" fill="#ebae48"/>
        <path id="Trazado_103876" data-name="Trazado 103876" d="M341.811,133.967l-9.665-4.3-.968-2.9a1.124,1.124,0,0,0-1.066-.769h-6.746a1.124,1.124,0,0,0-1.066.769l-.968,2.9-9.666,4.3a1.125,1.125,0,0,0-.624,1.336l4.411,15.438-2.024,7.42a37.087,37.087,0,0,0-1.307,9.755v7.552a1.125,1.125,0,0,0,1.124,1.124h6.746a1.124,1.124,0,0,0,1.1-.871l2.614-11.329a3.1,3.1,0,0,1,1.913-2.206v24.525H315.5a3.373,3.373,0,0,0,0,6.746h22.485a3.373,3.373,0,0,0,0-6.746H327.863V162.186a3.1,3.1,0,0,1,1.911,2.205l2.614,11.329a1.125,1.125,0,0,0,1.1.872h6.746a1.125,1.125,0,0,0,1.124-1.124v-7.553a37.061,37.061,0,0,0-1.307-9.755l-2.023-7.42,4.411-15.438a1.124,1.124,0,0,0-.624-1.336Zm-2.705,56.117a1.126,1.126,0,0,1-1.124,1.124H315.5a1.124,1.124,0,0,1,0-2.249h22.485a1.126,1.126,0,0,1,1.124,1.124Zm-1.133-47.348-.562.28a9.26,9.26,0,0,1-4.117.972h-2.057v2.249h2.057a11.527,11.527,0,0,0,3.873-.676l-1.39,4.864a1.121,1.121,0,0,0,0,.6l2.107,7.723a34.841,34.841,0,0,1,1.227,9.163v6.429h-4.727l-2.413-10.457a5.364,5.364,0,0,0-10.454,0L319.1,174.344h-4.727v-6.429a34.838,34.838,0,0,1,1.227-9.162l2.107-7.723a1.122,1.122,0,0,0,0-.6l-1.39-4.865a11.5,11.5,0,0,0,3.873.676h2.057v-2.249h-2.057a9.263,9.263,0,0,1-4.118-.972l-.562-.281-2.032-7.11,5.4-2.4v7.389h2.249v-8.388l1.581-.7a1.126,1.126,0,0,0,.61-.672l.868-2.6H329.3l.868,2.6a1.125,1.125,0,0,0,.609.672l1.581.7v5.015h2.249v-4.016l5.4,2.4Zm0,0" transform="translate(-311.969 -126.067)"/>
      </g>
    </g>
  </g>
</svg>
