<svg xmlns="http://www.w3.org/2000/svg" width="34.154" height="64.039" viewBox="0 0 34.154 64.039">
  <g id="Grupo_54920" data-name="Grupo 54920" transform="translate(0 0)">
    <rect id="Rectángulo_5134" data-name="Rectángulo 5134" width="5" height="11" transform="translate(4.928 1.077)" fill="#eca8cb"/>
    <rect id="Rectángulo_5135" data-name="Rectángulo 5135" width="4" height="11" transform="translate(24.928 1.077)" fill="#eca8cb"/>
    <path id="Trazado_103839" data-name="Trazado 103839" d="M344.75,254.827a31.663,31.663,0,0,1-27.75,0l6.4-33.087-3.566-6.241a5.334,5.334,0,0,1-.7-2.647V210h23.481v2.852a5.333,5.333,0,0,1-.7,2.647l-3.566,6.241Zm0,0" transform="translate(-313.798 -195.057)" fill="#ed8cba"/>
    <path id="Trazado_103840" data-name="Trazado 103840" d="M364.95,280.269H348.355l.826-4.269h14.942Zm0,0" transform="translate(-339.576 -249.317)" fill="#fdc01e"/>
    <rect id="Rectángulo_5136" data-name="Rectángulo 5136" width="4" height="4" transform="translate(14.928 27.077)" fill="#f9ab23"/>
    <path id="Trazado_103841" data-name="Trazado 103841" d="M352.481,210v2.723l-11.74,1.565L329,212.723V210Zm0,0" transform="translate(-323.664 -195.057)" fill="#e6589b"/>
    <path id="Trazado_103842" data-name="Trazado 103842" d="M337.019,180.4l-16.01,2.135L305,180.4V174l16.01,2.135L337.019,174Zm0,0" transform="translate(-303.933 -165.461)" fill="#ed8cba"/>
    <path id="Trazado_103843" data-name="Trazado 103843" d="M332.79,133.735a1.071,1.071,0,0,0-.844-.255l-3.061.409v-6.822A1.068,1.068,0,0,0,327.818,126h-4.269a1.068,1.068,0,0,0-1.067,1.067v7.675l-6.4.853-6.4-.853v-7.675A1.068,1.068,0,0,0,308.606,126h-4.269a1.068,1.068,0,0,0-1.067,1.067v6.822l-3.061-.409A1.067,1.067,0,0,0,299,134.539v6.4a1.068,1.068,0,0,0,.926,1.058l3.343.445v1.348a6.42,6.42,0,0,0,.844,3.178l3.37,5.9-6.329,32.7a1.067,1.067,0,0,0,.5,1.118c.229.137,5.69,3.354,14.424,3.354s14.2-3.217,14.424-3.354a1.067,1.067,0,0,0,.5-1.118l-6.329-32.7,3.37-5.9a6.42,6.42,0,0,0,.844-3.178v-1.348l3.343-.445a1.068,1.068,0,0,0,.926-1.058v-6.4a1.068,1.068,0,0,0-.364-.8Zm-8.174-5.6h2.135v6.038l-2.135.286Zm-19.212,0h2.135v6.324l-2.135-.285Zm23.35,57.061a23.3,23.3,0,0,1-2.946,1.186,31.852,31.852,0,0,1-19.462,0A23.3,23.3,0,0,1,303.4,185.2l5.26-27.176h4.052l-1.961,13.724,2.113.3,2-14.026h2.418l2,14.026,2.114-.3-1.961-13.724h4.052ZM309.486,153.75h3.389v2.135h-3.8Zm13.182,0,.413,2.135h-3.8V153.75Zm-5.524,2.135H315.01V153.75h2.135Zm9.606-12.091a4.267,4.267,0,0,1-.563,2.119l-3.258,5.7h-13.7l-3.259-5.7a4.274,4.274,0,0,1-.562-2.119V142.73l10.532,1.4a1.056,1.056,0,0,0,.282,0l10.532-1.4Zm4.269-3.786L316.077,142l-14.942-1.991v-4.251l14.8,1.974a1.116,1.116,0,0,0,.282,0l14.8-1.974Zm0,0" transform="translate(-299 -126)"/>
  </g>
</svg>
