<svg xmlns="http://www.w3.org/2000/svg" width="49.32" height="55" viewBox="0 0 49.32 55">
  <g id="Grupo_54962" data-name="Grupo 54962" transform="translate(-26.948)">
    <path id="Trazado_104005" data-name="Trazado 104005" d="M82.226,94.912a35.84,35.84,0,0,1-6.218,3.815H40.76a35.84,35.84,0,0,1-6.218-3.815C43.6,85.854,50.7,72.88,50.7,72.88V69.066c0-2.673-1.894-9.805-1.894-9.805.743-2.09,2.532-2.533,4.364-2.341a15.688,15.688,0,0,1,5.217,1.786s7.8-4.456,9.582.556c0,0-1.895,7.132-1.895,9.805V72.88S73.166,85.854,82.226,94.912Z" transform="translate(-6.776 -50.757)" fill="#fee372"/>
    <path id="Trazado_104006" data-name="Trazado 104006" d="M55.507,69.066c-.532,2.221-1.918,6.908-1.918,6.908L52.5,78.132,50.45,98.727H40.76a35.84,35.84,0,0,1-6.218-3.815C43.6,85.854,50.7,72.88,50.7,72.88V69.066c0-2.673-1.894-9.805-1.894-9.805.743-2.09,2.532-2.533,4.364-2.341l0,0C49.221,63.082,56.273,65.871,55.507,69.066Z" transform="translate(-6.776 -50.757)" fill="#eabe32"/>
    <path id="Trazado_104007" data-name="Trazado 104007" d="M200.013,173.922H184.639v-3.813h15.374" transform="translate(-140.718 -151.8)" fill="#fb6572"/>
    <path id="Trazado_104008" data-name="Trazado 104008" d="M189.307,173.922h-4.668v-3.813h4.668" transform="translate(-140.718 -151.8)" fill="#ea394e"/>
    <path id="Trazado_104009" data-name="Trazado 104009" d="M99,254.346s-5.426,12.591-12.355,21.383a33.363,33.363,0,0,0,36.468,0c-6.929-8.792-12.355-21.383-12.355-21.383" transform="translate(-53.273 -226.97)" fill="#fee372"/>
    <path id="Trazado_104010" data-name="Trazado 104010" d="M76.028,43.577c-8.3-8.294-15.023-20.072-15.916-21.667v-3.6a21.04,21.04,0,0,1,.454-3.461.817.817,0,1,0-1.606-.306c-.232,1.214-.378,2.189-.444,2.95H44.7a71.384,71.384,0,0,0-1.812-8.937,2.424,2.424,0,0,1,1.424-1.4C46.42,6.37,50,7.974,51.2,8.659a.82.82,0,0,0,.81,0c1.2-.685,4.784-2.291,6.9-1.507a2.434,2.434,0,0,1,1.424,1.4c-.122.467-.39,1.518-.682,2.772a.818.818,0,1,0,1.592.372c.389-1.67.734-2.971.738-2.984a.824.824,0,0,0-.021-.484,4.19,4.19,0,0,0-1.741-2.249A8.424,8.424,0,0,0,57.488.2a.817.817,0,0,0-1.235.2A14.723,14.723,0,0,0,54.407,5.86c-.124.041-.25.081-.377.125a18.824,18.824,0,0,0-2.421,1.036,18.9,18.9,0,0,0-2.422-1.036c-.127-.044-.252-.085-.377-.125A14.734,14.734,0,0,0,46.964.4.818.818,0,0,0,45.729.2,8.418,8.418,0,0,0,43,5.981a4.19,4.19,0,0,0-1.741,2.249.817.817,0,0,0-.02.484c.019.07,1.866,7.059,1.866,9.595v3.6c-.894,1.6-7.62,13.372-15.916,21.667a.819.819,0,0,0,.061,1.211,35.1,35.1,0,0,0,5.486,3.463,0,0,0,0,0,0,0,.816.816,0,0,0,.166,1.171,27.408,27.408,0,0,0,4.184,2.319.818.818,0,1,0,.684-1.486,30.4,30.4,0,0,1-3.2-1.7C41.22,39.826,46.426,27.822,46.479,27.7a.817.817,0,1,0-1.5-.646c-.051.118-4.936,11.376-11.236,19.878A38.528,38.528,0,0,1,29,44.063C36.82,36,43.12,25.2,44.4,22.94H58.815C60.1,25.2,66.4,36,74.212,44.063a38.334,38.334,0,0,1-4.737,2.867c-6.3-8.5-11.187-19.761-11.238-19.878a.817.817,0,1,0-1.5.646c.053.123,5.26,12.126,11.915,20.859a33.845,33.845,0,0,1-17.043,4.807,32.66,32.66,0,0,1-10.88-1.909A.818.818,0,0,0,40.184,53a34.318,34.318,0,0,0,11.424,2,34.59,34.59,0,0,0,18.709-5.576.818.818,0,0,0,.167-1.171l0,0a35.062,35.062,0,0,0,5.485-3.463.816.816,0,0,0,.061-1.211ZM57.16,2.2A6.988,6.988,0,0,1,58.5,5.373a7.533,7.533,0,0,0-2.394.065A12.673,12.673,0,0,1,57.16,2.2Zm-11.1,0a12.723,12.723,0,0,1,1.055,3.234,7.536,7.536,0,0,0-2.394-.065A6.979,6.979,0,0,1,46.056,2.2ZM58.478,21.3H44.739V19.127H58.478Z" transform="translate(0 0)"/>
  </g>
</svg>
