<svg id="Grupo_54932" data-name="Grupo 54932" xmlns="http://www.w3.org/2000/svg" width="59.52" height="53.277" viewBox="0 0 59.52 53.277">
  <path id="Trazado_103884" data-name="Trazado 103884" d="M534,222.242h3.968a1.984,1.984,0,0,1,1.984,1.984v5.952a1.984,1.984,0,0,1-1.984,1.984H534Zm0,0" transform="translate(-481.424 -209.637)" fill="#b3b2b3"/>
  <path id="Trazado_103885" data-name="Trazado 103885" d="M222,420.242h53.568v4.96a1.984,1.984,0,0,1-1.984,1.984h-49.6A1.984,1.984,0,0,1,222,425.2Zm0,0" transform="translate(-221.008 -374.9)" fill="#b3b2b3"/>
  <path id="Trazado_103886" data-name="Trazado 103886" d="M275.568,227.906v-39.68a1.984,1.984,0,0,0-1.984-1.984H231.92a1.984,1.984,0,0,0-1.984,1.984V204.1a1.984,1.984,0,0,0,1.984,1.984h9.92l8.928-8.928H259.7V219.97H222v7.936Zm0,0" transform="translate(-221.008 -179.589)" fill="#e4599a"/>
  <rect id="Rectángulo_5159" data-name="Rectángulo 5159" width="15.872" height="16.864" transform="translate(38.688 17.565)" fill="#cbcbca"/>
  <rect id="Rectángulo_5160" data-name="Rectángulo 5160" width="7.936" height="4.96" transform="translate(42.656 21.533)" fill="#fdc01e"/>
  <rect id="Rectángulo_5161" data-name="Rectángulo 5161" width="1.984" height="1.984" transform="translate(49.6 43.358)"/>
  <path id="Trazado_103887" data-name="Trazado 103887" d="M468.992,277.186h7.936a.992.992,0,0,0,.992-.992v-4.96a.992.992,0,0,0-.992-.992h-7.936a.992.992,0,0,0-.992.992v4.96a.992.992,0,0,0,.992.992Zm.992-4.96h5.952V275.2h-5.952Zm0,0" transform="translate(-426.336 -249.701)"/>
  <rect id="Rectángulo_5162" data-name="Rectángulo 5162" width="1.984" height="1.984" transform="translate(41.664 29.469)"/>
  <rect id="Rectángulo_5163" data-name="Rectángulo 5163" width="1.984" height="1.984" transform="translate(45.632 29.469)"/>
  <rect id="Rectángulo_5164" data-name="Rectángulo 5164" width="1.984" height="1.984" transform="translate(49.6 29.469)"/>
  <rect id="Rectángulo_5165" data-name="Rectángulo 5165" width="1.984" height="1.984" transform="translate(11.904 9.629)"/>
  <path id="Trazado_103888" data-name="Trazado 103888" d="M272.544,157.613h-.992v-2.976a2.979,2.979,0,0,0-2.976-2.976h-1.984v-1.984h-1.984v1.984H241.792v-1.984h-1.984v1.984h-1.984v-1.984a.992.992,0,0,0-.291-.7L234.557,146l-1.4,1.4,2.685,2.685v1.573h-8.928a2.979,2.979,0,0,0-2.976,2.976v15.872a2.979,2.979,0,0,0,2.976,2.976v2.976a.992.992,0,0,0,.992.992h2.976v4.96h1.984v-4.96h2.976v-1.984h-2.976v-1.984h3.968a.992.992,0,0,0,.7-.291l8.637-8.637H253.7V185.39h-36.7a.992.992,0,0,0-.992.992v9.92a2.979,2.979,0,0,0,2.976,2.976h49.6a2.979,2.979,0,0,0,2.976-2.976V169.517h.992a2.979,2.979,0,0,0,2.976-2.976v-5.952a2.979,2.979,0,0,0-2.976-2.976Zm-2.976,21.824H255.68v-14.88h13.888Zm-29.76-25.792v14.469l-1.984,1.984V153.645ZM225.92,170.509V154.637a.993.993,0,0,1,.992-.992h8.928V171.5h-8.928a.993.993,0,0,1-.992-.992Zm4.96,4.96H228.9v-1.984h1.984Zm14.88-12.9a.992.992,0,0,0-.7.291l-3.267,3.267V153.645h26.784a.993.993,0,0,1,.992.992v7.936Zm8.928,24.8a.992.992,0,0,0,.992-.992v-4.96h13.888v11.9H246.752v-3.968h-1.984v3.968h-2.976v-1.984h-1.984v1.984h-2.976v-1.984h-1.984v1.984h-2.976v-3.968h-1.984v3.968h-2.976v-1.984h-1.984v1.984h-2.976v-1.984h-1.984v1.984h-1.984v-5.952Zm14.88,8.928a.993.993,0,0,1-.992.992h-49.6a.993.993,0,0,1-.992-.992v-.992h51.584Zm3.968-29.76a.993.993,0,0,1-.992.992h-.992V159.6h.992a.993.993,0,0,1,.992.992Zm0,0" transform="translate(-216 -146)"/>
</svg>
