<svg xmlns="http://www.w3.org/2000/svg" width="32.492" height="70" viewBox="0 0 32.492 70">
  <g id="Grupo_54980" data-name="Grupo 54980" transform="translate(-137.173 -0.001)">
    <path id="Trazado_104089" data-name="Trazado 104089" d="M192.563,21.136s-.556,6.115-3.793,5.722-2.933-6.227-2.933-6.227-3.31-7,2.832-7.8c0,0,2.681-4.095,9.306-2.412s4.719,9.4,4.719,9.4-4.213-.309-5.68-4.067C197.014,15.751,196.2,21.585,192.563,21.136Z" transform="translate(-40.847 -8.563)" fill="#ffdb9e" fill-rule="evenodd"/>
    <path id="Trazado_104090" data-name="Trazado 104090" d="M176.127,95.193c-.517-4.423-5.374-6.167-5.249-10.363l.149-4.987s5.523.262,5.734-6.875-6.1-4.565-8.837-7.294v-4.1a9.154,9.154,0,0,0,2.935-6.862,10.023,10.023,0,0,0-.089-1.338s-4.382-.289-5.908-3.8c0,0-.841,5.458-4.629,5.038,0,0-.459,4.533-2.934,5.269a8,8,0,0,0,2.42,2.428v3.683c-3.209,2.7-12.663,4.065-12.542,8.295s.128,8.209,5.493,7.763a9.711,9.711,0,0,1,.842,10.6c-3.087,5.749-.588,12.4,3.165,18.287h16.713C174.75,106.293,176.594,99.19,176.127,95.193Z" transform="translate(-8.552 -42.383)" fill="#ffdb9e" fill-rule="evenodd"/>
    <path id="Trazado_104091" data-name="Trazado 104091" d="M214.6,356.007c1.452-4.962,3.418-12.554,2.92-16.827-.4-3.46-3.286-5.387-4.751-7.929,0,0-2.487,13.527-19.431,18.119a37.978,37.978,0,0,0,3.439,6.637H214.6Z" transform="translate(-49.986 -287.456)" fill="#90d9eb" fill-rule="evenodd"/>
    <g id="Grupo_54979" data-name="Grupo 54979" transform="translate(137.173 0.001)">
      <path id="Trazado_104092" data-name="Trazado 104092" d="M167.158,36.86a8.78,8.78,0,0,0,2.5-6.457c.17-5.791-3.484-6.575-6.152-7.148a8.495,8.495,0,0,1-2.734-.891v-2.9a10.661,10.661,0,0,0,2.951-7.5,11.549,11.549,0,0,0-.071-1.269,9.836,9.836,0,0,0-.877-6.792A7.673,7.673,0,0,0,157.637.42c-6.277-1.438-9.624,1.191-10.729,2.326a5.209,5.209,0,0,0-4,2.585c-1.253,2.372-.115,5.323.358,6.348a12.205,12.205,0,0,0,.31,2.819c.795,3.286,2.837,3.987,3.984,4.112a1.4,1.4,0,0,0,.15.008,1.36,1.36,0,0,0,.337-.043,9.519,9.519,0,0,0,1.744,1.75v2.317a27.519,27.519,0,0,1-4.406,2.063c-3.895,1.576-8.309,3.362-8.205,7.022l.007.243c.081,2.9.165,5.889,2.109,7.629a5.771,5.771,0,0,0,4.1,1.316,8.349,8.349,0,0,1,.316,8.639,14.21,14.21,0,0,0-1.116,10.112,31.138,31.138,0,0,0,4.351,9.7,1.367,1.367,0,0,0,1.153.633H164.9a1.368,1.368,0,0,0,1.312-.983c.4-1.372.749-2.63,1.064-3.849a1.367,1.367,0,1,0-2.647-.685c-.231.894-.481,1.811-.758,2.782H148.852a36.248,36.248,0,0,1-2.152-4.013,27.11,27.11,0,0,0,14.429-10.268,23.671,23.671,0,0,0,2.541-4.718l.181.217c1.153,1.383,2.242,2.689,2.446,4.439a10.671,10.671,0,0,1,.064,1.138,1.367,1.367,0,0,0,1.367,1.356h.011a1.367,1.367,0,0,0,1.356-1.378,13.386,13.386,0,0,0-.083-1.433c-.3-2.56-1.767-4.321-3.062-5.874-1.211-1.452-2.257-2.706-2.207-4.373l.115-3.838A6.843,6.843,0,0,0,167.158,36.86Zm-18.828-21a.428.428,0,0,1-.477.035C145.865,15.675,146,11.5,146,11.459a1.365,1.365,0,0,0-.154-.713c-.35-.668-1.2-2.863-.526-4.138a2.938,2.938,0,0,1,2.435-1.223,1.3,1.3,0,0,0,.944-.549c.162-.206,2.534-3.078,8.326-1.751a4.994,4.994,0,0,1,3.4,2.206,6.354,6.354,0,0,1,.717,3.718,5.282,5.282,0,0,1-3.557-2.774,1.367,1.367,0,0,0-2.606.335c-.007.042-.72,4.2-3.153,3.927a1.369,1.369,0,0,0-1.511,1.219C150.157,13.194,149.42,15.533,148.33,15.857ZM145.7,60.7c-1.229-3.8-1.087-7.056.413-9.856a11.039,11.039,0,0,0-.54-11.577l.984-3.118a1.367,1.367,0,1,0-2.608-.823l-.9,2.851a2.963,2.963,0,0,1-1.939-.617c-1.067-.955-1.131-3.244-1.2-5.668l-.007-.244c-.05-1.76,3.581-3.229,6.5-4.41a21.927,21.927,0,0,0,5.63-2.868,1.367,1.367,0,0,0,.485-1.045V19.615a1.367,1.367,0,0,0-.635-1.154,6.342,6.342,0,0,1-1.152-.943,8.621,8.621,0,0,0,2.1-4.329,5.614,5.614,0,0,0,3.981-3.442,9.3,9.3,0,0,0,4.169,2.045q0,.085,0,.171a7.837,7.837,0,0,1-2.492,5.9,1.367,1.367,0,0,0-.459,1.022v4.131a1.367,1.367,0,0,0,.4.967,8.531,8.531,0,0,0,4.494,1.952c2.554.548,4.1.879,3.993,4.394-.163,5.561-3.915,5.617-4.334,5.6h-.146a9.085,9.085,0,0,1-5.342-1.538,1.367,1.367,0,1,0-1.546,2.255,11.626,11.626,0,0,0,5.563,1.969l-.11,3.668a6.634,6.634,0,0,0,.717,3.193C161.167,47.578,158.039,56.838,145.7,60.7Z" transform="translate(-137.173 -0.001)" fill-rule="evenodd"/>
      <path id="Trazado_104093" data-name="Trazado 104093" d="M257.077,348.083a1.45,1.45,0,0,0-1.45,1.45v2.261a1.45,1.45,0,1,0,2.9,0v-2.261A1.45,1.45,0,0,0,257.077,348.083Z" transform="translate(-239.522 -300.709)" fill-rule="evenodd"/>
      <path id="Trazado_104094" data-name="Trazado 104094" d="M347.9,425.121a1.45,1.45,0,1,0,1.45,1.45A1.453,1.453,0,0,0,347.9,425.121Z" transform="translate(-318.072 -367.717)" fill-rule="evenodd"/>
    </g>
  </g>
</svg>
