<svg xmlns="http://www.w3.org/2000/svg" xmlns:xlink="http://www.w3.org/1999/xlink" width="55.388" height="56" viewBox="0 0 55.388 56">
  <defs>
    <clipPath id="clip-path">
      <rect id="SVGID" width="55.111" height="55.856" fill="none"/>
    </clipPath>
  </defs>
  <g id="Grupo_54938" data-name="Grupo 54938" transform="translate(0)">
    <rect id="Rectángulo_5173" data-name="Rectángulo 5173" width="43.196" height="54.267" transform="translate(5.837 0.938)" fill="#e5e5e4"/>
    <path id="Trazado_103895" data-name="Trazado 103895" d="M540,152h16.12l.744,2.747,2.976,20.142v31.128H540Zm0,0" transform="translate(-540 -151.008)" fill="#7ba23f"/>
    <path id="Trazado_103896" data-name="Trazado 103896" d="M540,206.016V152h12.9l2.976,23.8v30.212Zm0,0" transform="translate(-540 -151.008)" fill="#86bc40"/>
    <path id="Trazado_103897" data-name="Trazado 103897" d="M799.84,152H783.72l-.744,2.747L780,174.888v31.128h19.84Zm0,0" transform="translate(-744.783 -151.008)" fill="#7ba23f"/>
    <path id="Trazado_103898" data-name="Trazado 103898" d="M819.872,206.016V152h-12.9L804,175.8v30.212Zm0,0" transform="translate(-764.815 -151.008)" fill="#86bc40"/>
    <path id="Trazado_103899" data-name="Trazado 103899" d="M679.84,176.8l-.878-21.943A2.976,2.976,0,0,0,675.988,152H663.852a2.976,2.976,0,0,0-2.974,2.857L660,176.8Zm0,0" transform="translate(-642.373 -151.008)" fill="#fdc01e"/>
    <path id="Trazado_103900" data-name="Trazado 103900" d="M687.968,212l-2.976,2.835L684,231.84h11.9l-.992-17.005L691.936,212Zm0,0" transform="translate(-662.408 -202.299)" fill="#f9ab23"/>
    <g id="Grupo_54937" data-name="Grupo 54937" transform="translate(0.276 0.144)">
      <g id="Grupo_54936" data-name="Grupo 54936" transform="translate(0 0)" clip-path="url(#clip-path)">
        <path id="Trazado_103901" data-name="Trazado 103901" d="M709.835,176a1.832,1.832,0,0,1,1.835,1.836V186.1a1.835,1.835,0,1,1-3.671,0v-8.261A1.832,1.832,0,0,1,709.835,176Zm0,0" transform="translate(-682.561 -171.544)" fill="#f79726"/>
        <path id="Trazado_103902" data-name="Trazado 103902" d="M670.305,170.782h2.966a.919.919,0,0,0,.917-.954l-.812-20.3A3.66,3.66,0,0,0,669.708,146H658.481a3.659,3.659,0,0,0-3.668,3.524l-.812,20.3a.919.919,0,0,0,.917.954h2.966l-.211,3.618a.918.918,0,0,0,.916.971h4.588v3.671h-4.588v1.836h4.588v1.836h-4.588v1.836h4.588v1.836h-4.588v1.836h4.588v1.836h-4.588v1.836h4.588v1.836h-4.588v1.836h4.588V197.4h-4.588v1.836h4.588v1.836h1.835V197.4H669.6v-1.836h-4.588v-1.836H669.6v-1.836h-4.588v-1.836H669.6v-1.836h-4.588v-1.836H669.6V184.55h-4.588v-1.836H669.6v-1.836h-4.588v-1.836H669.6v-1.836h-4.588v-1.836H669.6a.918.918,0,0,0,.916-.971Zm-14.433-1.836.774-19.349a1.83,1.83,0,0,1,1.834-1.762h11.227a1.83,1.83,0,0,1,1.834,1.762l.774,19.348H670.2l-.6-10.281a.919.919,0,0,0-.283-.611l-2.468-2.351v-3.278a2.753,2.753,0,1,0-5.506,0V155.7l-2.468,2.351a.918.918,0,0,0-.283.611l-.6,10.281Zm9.139-16.521v8.261a.918.918,0,1,1-1.835,0v-8.261a.918.918,0,1,1,1.835,0Zm-5.451,21.111.84-14.4.94-.9v2.448a2.753,2.753,0,1,0,5.506,0v-2.448l.94.9.84,14.4Zm0,0" transform="translate(-636.819 -146.133)"/>
      </g>
    </g>
    <path id="Trazado_103903" data-name="Trazado 103903" d="M558.848,200.164h-1.984V170.787a.818.818,0,0,0-.006-.105l-2.849-22.846h1.337l.556,2.058,1.924-.445-.744-2.754a.981.981,0,0,0-.962-.7H540v1.836h12.012l2.868,23v29.324H540V202h19.84a.958.958,0,0,0,.992-.918V172.623h-1.984Zm0,0" transform="translate(-540 -146)"/>
    <path id="Trazado_103904" data-name="Trazado 103904" d="M782.82,147.836h12.012V146h-16.12a.981.981,0,0,0-.962.7l-.744,2.754,1.924.445.556-2.058h1.337l-2.849,22.846a.829.829,0,0,0-.006.105v29.377h-1.984V172.623H774v28.459a.958.958,0,0,0,.992.918h19.84v-1.836h-14.88V170.839Zm0,0" transform="translate(-739.775 -146)"/>
  </g>
</svg>
