<svg xmlns="http://www.w3.org/2000/svg" width="56.508" height="57.36" viewBox="0 0 56.508 57.36">
  <g id="Grupo_54978" data-name="Grupo 54978" transform="translate(-3.992 0.001)">
    <path id="Trazado_104060" data-name="Trazado 104060" d="M223.221,26.4s4.905-15.846-9.891-15.75c-3.626.023-5.617,2.215-6.49-.691-.926-3.081-5.271-2.81-7.438-1.817-3.705,1.7-6.259,6.254-2.922,18.258Z" transform="translate(-169.504 -6.631)" fill="#d47a3d"/>
    <path id="Trazado_104061" data-name="Trazado 104061" d="M255.019,9.965c.565,1.881,1.6,1.626,3.241,1.206a2.412,2.412,0,0,1-.681-1.206c-.695-2.312-3.314-2.736-5.494-2.385A3.479,3.479,0,0,1,255.019,9.965Z" transform="translate(-220.244 -6.633)" fill="#b7692e"/>
    <path id="Trazado_104062" data-name="Trazado 104062" d="M351.235,35.841a9.366,9.366,0,0,0-.963.056c12.835,1.025,8.294,15.693,8.294,15.693h2.56S366.031,35.745,351.235,35.841Z" transform="translate(-307.41 -31.818)" fill="#b7692e"/>
    <path id="Trazado_104063" data-name="Trazado 104063" d="M191.064,349.458l-.007-2.294a16.715,16.715,0,0,0-16.716-16.616l-5.719.017a16.715,16.715,0,0,0-16.616,16.715l.007,2.177Z" transform="translate(-131.4 -293.445)" fill="#f0bca6"/>
    <path id="Trazado_104064" data-name="Trazado 104064" d="M351.3,347.164a16.715,16.715,0,0,0-16.716-16.616l-2.074.006a16.717,16.717,0,0,1,16.23,16.61l.007,2.294h2.56Z" transform="translate(-291.641 -293.445)" fill="#e4aa9b"/>
    <path id="Trazado_104065" data-name="Trazado 104065" d="M180.542,349.583c-6.219-1.812-12.073-8.5-12.091-14.464a17.092,17.092,0,0,1,.568-4.429h-.4a16.715,16.715,0,0,0-16.616,16.716l.007,2.176Z" transform="translate(-131.4 -293.57)" fill="#fff4f1"/>
    <path id="Trazado_104066" data-name="Trazado 104066" d="M175.3,190.046a4.614,4.614,0,1,0-4.6,4.627A4.613,4.613,0,0,0,175.3,190.046Z" transform="translate(-143.887 -164.63)" fill="#f0bca6"/>
    <path id="Trazado_104067" data-name="Trazado 104067" d="M417.693,189.243a4.614,4.614,0,1,0-4.6,4.628A4.614,4.614,0,0,0,417.693,189.243Z" transform="translate(-359.071 -163.917)" fill="#f0bca6"/>
    <path id="Trazado_104068" data-name="Trazado 104068" d="M212.19,137.364a4.234,4.234,0,0,0-4.234,4.244l.025,9.79a13.452,13.452,0,1,0,26.9-.08l-.024-9.731a4.233,4.233,0,0,0-4.234-4.223H212.19Z" transform="translate(-181.069 -121.946)" fill="#f0bca6"/>
    <path id="Trazado_104069" data-name="Trazado 104069" d="M331.3,141.591a4.234,4.234,0,0,0-4.234-4.223h-2.56a4.234,4.234,0,0,1,4.234,4.223l.024,9.731a13.5,13.5,0,0,1-12.175,13.431q.653.062,1.323.061a13.491,13.491,0,0,0,13.411-13.492Z" transform="translate(-277.509 -121.949)" fill="#e4aa9b"/>
    <path id="Trazado_104070" data-name="Trazado 104070" d="M276.794,225.377a1.347,1.347,0,1,0-1.343,1.35A1.346,1.346,0,0,0,276.794,225.377Z" transform="translate(-239.788 -198.887)"/>
    <path id="Trazado_104071" data-name="Trazado 104071" d="M361.545,225.12a1.347,1.347,0,1,0-1.343,1.351A1.347,1.347,0,0,0,361.545,225.12Z" transform="translate(-315.026 -198.659)"/>
    <g id="Grupo_54977" data-name="Grupo 54977" transform="translate(26.242 6.571)">
      <path id="Trazado_104072" data-name="Trazado 104072" d="M206.562,95.588c-.138-1.955-1.222-3.47-2.421-3.385s-2.059,1.737-1.922,3.691,1.222,3.469,2.421,3.385S206.7,97.542,206.562,95.588Z" transform="translate(-202.205 -88.422)" fill="#00bf9e"/>
      <path id="Trazado_104073" data-name="Trazado 104073" d="M243.934,78.761c-.138-1.954-1.222-3.469-2.421-3.385s-2.059,1.737-1.921,3.691,1.222,3.469,2.421,3.385S244.072,80.715,243.934,78.761Z" transform="translate(-235.383 -73.484)" fill="#00bf9e"/>
      <path id="Trazado_104074" data-name="Trazado 104074" d="M281.306,61.935c-.138-1.955-1.222-3.47-2.421-3.385s-2.06,1.737-1.921,3.691,1.221,3.469,2.42,3.385S281.444,63.889,281.306,61.935Z" transform="translate(-268.559 -58.547)" fill="#00bf9e"/>
      <path id="Trazado_104075" data-name="Trazado 104075" d="M403.712,92.207c-1.2-.085-2.283,1.431-2.421,3.385s.723,3.607,1.922,3.691,2.283-1.431,2.42-3.385S404.911,92.292,403.712,92.207Z" transform="translate(-378.931 -88.426)" fill="#00bf9e"/>
      <path id="Trazado_104076" data-name="Trazado 104076" d="M366.344,75.38c-1.2-.085-2.283,1.431-2.42,3.385s.722,3.607,1.921,3.691,2.283-1.431,2.421-3.385S367.543,75.465,366.344,75.38Z" transform="translate(-345.757 -73.488)" fill="#00bf9e"/>
      <path id="Trazado_104077" data-name="Trazado 104077" d="M328.971,58.55c-1.2-.085-2.283,1.431-2.421,3.385s.723,3.607,1.922,3.691,2.283-1.431,2.421-3.385S330.17,58.635,328.971,58.55Z" transform="translate(-312.58 -58.547)" fill="#00bf9e"/>
    </g>
    <path id="Trazado_104078" data-name="Trazado 104078" d="M280.8,91.863a5.914,5.914,0,0,0,.045-.713,5.844,5.844,0,1,0-11.642.713Z" transform="translate(-235.403 -75.731)" fill="#f9cd45"/>
    <path id="Trazado_104079" data-name="Trazado 104079" d="M198.892,133.107A49.379,49.379,0,0,0,200,137.939h26.741a14.907,14.907,0,0,0,.779-4.832Z" transform="translate(-173.022 -118.166)" fill="#ecedef"/>
    <path id="Trazado_104080" data-name="Trazado 104080" d="M61.345,291.539H79.394v3.27H61.345Z" transform="translate(-50.915 -258.814)" fill="#f9cd45"/>
    <path id="Trazado_104081" data-name="Trazado 104081" d="M51.118,270.5a34.793,34.793,0,0,0-2.947-11.135,2.106,2.106,0,0,0-2.336-1.046,1.743,1.743,0,0,0-1.5,2.087,29.279,29.279,0,0,1,1.026,13.043,6.689,6.689,0,0,1-2.567,4.351,8.4,8.4,0,0,1-4.917,1.209,8.4,8.4,0,0,1-4.917-1.209,6.69,6.69,0,0,1-2.567-4.351,29.285,29.285,0,0,1,1.026-13.043,1.743,1.743,0,0,0-1.5-2.087,2.106,2.106,0,0,0-2.336,1.046A34.79,34.79,0,0,0,24.632,270.5c-.407,4.068-.313,8.695,3.124,11.872a12.727,12.727,0,0,0,4.439,2.541c1.492.527,10.562,2.695,15.8-2.541C51.3,279.065,51.524,274.571,51.118,270.5Z" transform="translate(-18.175 -229.284)" fill="#d47a3d"/>
    <path id="Trazado_104082" data-name="Trazado 104082" d="M52.661,260.408a29.285,29.285,0,0,0-1.026,13.043A6.69,6.69,0,0,0,54.2,277.8a8.4,8.4,0,0,0,4.917,1.209c.431,0,.859-.02,1.28-.053a7.1,7.1,0,0,1-3.637-1.156,6.69,6.69,0,0,1-2.567-4.352,29.277,29.277,0,0,1,1.026-13.042,1.743,1.743,0,0,0-1.5-2.087,2.261,2.261,0,0,0-1.742.35A1.6,1.6,0,0,1,52.661,260.408Z" transform="translate(-41.979 -229.284)" fill="#b7692e"/>
    <path id="Trazado_104083" data-name="Trazado 104083" d="M150.9,270.5a34.792,34.792,0,0,0-2.947-11.135,2.106,2.106,0,0,0-2.336-1.046,2.146,2.146,0,0,0-.817.35,1.768,1.768,0,0,1,.594.7,34.789,34.789,0,0,1,2.947,11.135c.407,4.068.186,8.562-3.124,11.872a12.691,12.691,0,0,1-8.352,3.394c3.413.2,7.827-.31,10.911-3.394C151.086,279.065,151.307,274.571,150.9,270.5Z" transform="translate(-117.958 -229.284)" fill="#b7692e"/>
    <path id="Trazado_104084" data-name="Trazado 104084" d="M19.356,358.526H15.517a4.09,4.09,0,1,1,0-8.18h3.839a4.09,4.09,0,0,1,0,8.18Z" transform="translate(-6.6 -311.02)" fill="#f0bca6"/>
    <path id="Trazado_104085" data-name="Trazado 104085" d="M60.493,53.717a17.359,17.359,0,0,0-.858-5.351.835.835,0,0,0-1.587.518,15.7,15.7,0,0,1,.775,4.837l0,1.456H49.266C44.032,53.6,39.2,48.462,38.113,43.52a14.2,14.2,0,0,0,2.25.179h.044a14.179,14.179,0,0,0,9.837-3.99,15.913,15.913,0,0,1,6.405,6.079.835.835,0,1,0,1.439-.846,17.57,17.57,0,0,0-6.674-6.5,14.141,14.141,0,0,0,3.173-7.688,5.448,5.448,0,0,0,.039-10.83v-.247a15.86,15.86,0,0,0,.7-4.752c0-.019,0-.038,0-.056a12.386,12.386,0,0,0-2.039-7.818c-1.9-2.566-5.042-3.866-9.328-3.866H43.82a13.66,13.66,0,0,0-3.427.535,4.671,4.671,0,0,1-1.656.261c-.107-.023-.357-.077-.6-.892A4.033,4.033,0,0,0,35.856.526a8.266,8.266,0,0,0-6.307.23A7.794,7.794,0,0,0,25.5,4.979a.835.835,0,0,0,1.541.642,6.092,6.092,0,0,1,3.2-3.347,6.669,6.669,0,0,1,4.924-.227,2.348,2.348,0,0,1,1.367,1.525c.8,2.656,2.643,2.185,4.271,1.769a12.045,12.045,0,0,1,3.024-.483c3.793-.023,6.522,1.048,8.112,3.187A9.241,9.241,0,0,1,53.574,12.6a5.918,5.918,0,0,0-.863-1.629,7.915,7.915,0,0,0-1.147-1.258.835.835,0,0,0-.982-.069,7.892,7.892,0,0,0-1.226,1,5.971,5.971,0,0,0-.84-1.56,7.933,7.933,0,0,0-1.147-1.257.834.834,0,0,0-.981-.069,7.869,7.869,0,0,0-1.226,1,5.982,5.982,0,0,0-.84-1.559,7.887,7.887,0,0,0-1.147-1.257.834.834,0,0,0-.981-.07,7.074,7.074,0,0,0-2.533,2.875h-.114a7.073,7.073,0,0,0-2.533-2.875.835.835,0,0,0-.982.07,7.911,7.911,0,0,0-1.147,1.257,5.98,5.98,0,0,0-.84,1.559,7.869,7.869,0,0,0-1.226-1,.833.833,0,0,0-.981.069,7.909,7.909,0,0,0-1.147,1.257,5.986,5.986,0,0,0-.84,1.56,7.9,7.9,0,0,0-1.226-1,.835.835,0,0,0-.982.069,7.914,7.914,0,0,0-1.147,1.258c-.073.1-.141.2-.206.3a17.972,17.972,0,0,1,.056-2.72.835.835,0,0,0-1.66-.172,25.018,25.018,0,0,0,.361,6.669c0,.012,0,.025,0,.036.085.5.185,1.011.295,1.536,0,.009,0,.017.006.026q.161.767.357,1.569l.046.185q.074.3.152.6l.056.215q.049.183.1.366a.7.7,0,0,0,0,.087v.369a5.448,5.448,0,0,0-.783,10.626,2.33,2.33,0,0,0,.082.685c.05.184.1.364.144.546H13.9q.071-.271.146-.546a2.348,2.348,0,0,0-.275-1.867,2.841,2.841,0,0,0-1.866-1.258,2.93,2.93,0,0,0-3.259,1.514A33.789,33.789,0,0,0,6.4,36.4a.835.835,0,0,0,1.628.371,32.119,32.119,0,0,1,2.139-6.334,1.288,1.288,0,0,1,1.413-.579,1.17,1.17,0,0,1,.776.5.689.689,0,0,1,.086.551,37.958,37.958,0,0,0-1.354,7.588H8.917a4.923,4.923,0,0,0-3.126,8.727.824.824,0,0,0-.032.43A10.855,10.855,0,0,0,9.015,53.7a13.542,13.542,0,0,0,4.727,2.715,22.05,22.05,0,0,0,6.466.941l.32,0a17.874,17.874,0,0,0,4.073-.51H59.665a.835.835,0,0,0,.835-.837Zm-32.88-34.78q-.108-.4-.207-.8c-.018-.071-.034-.141-.051-.211-.047-.191-.095-.383-.139-.571-.023-.1-.044-.2-.066-.293-.035-.156-.071-.312-.1-.465-.027-.126-.053-.25-.079-.375s-.05-.239-.074-.357c-.006-.03-.011-.059-.017-.089H53.589a21.32,21.32,0,0,1-.514,3.162Zm11.325-8.485a.881.881,0,0,0,.168-.016l.018,0c.157-.014.316-.021.477-.021a4.94,4.94,0,0,1,4.862,3.7H34.74A4.909,4.909,0,0,1,38.938,10.452Zm18.85,14.876a3.785,3.785,0,0,1-3.138,3.735l-.018-7.451A3.785,3.785,0,0,1,57.788,25.328Zm-6.84-13.882a3.866,3.866,0,0,1,1.166,2.539c0,.04-.008.081-.012.121H49.425c0-.1,0-.207.011-.31A3.866,3.866,0,0,1,50.947,11.446Zm-4.2-1.889A3.867,3.867,0,0,1,47.918,12.1a4.209,4.209,0,0,1-.557,1.878.8.8,0,0,0-.066.133H46.171a6.465,6.465,0,0,0-.915-2.327A4.033,4.033,0,0,1,46.752,9.557ZM42.558,7.67a3.98,3.98,0,0,1,1.167,2.447A6.665,6.665,0,0,0,41.4,8.976,5.254,5.254,0,0,1,42.558,7.67Zm-5.915,0A5.3,5.3,0,0,1,37.8,8.976a6.671,6.671,0,0,0-2.326,1.14A3.983,3.983,0,0,1,36.644,7.671Zm-4.2,1.889a3.981,3.981,0,0,1,1.5,2.22,6.449,6.449,0,0,0-.915,2.327H31.925c-.01-.017-.019-.034-.03-.05a4.115,4.115,0,0,1-.61-1.96A3.867,3.867,0,0,1,32.448,9.56Zm-4.195,1.889A3.826,3.826,0,0,1,29.767,13.8c.007.1.011.207.011.31H27.1c0-.041-.009-.08-.012-.121A3.866,3.866,0,0,1,28.254,11.448ZM23.02,25.44a3.786,3.786,0,0,1,3.038-3.717l.018,7.21c-.058.053-.113.11-.166.168A3.78,3.78,0,0,1,23.02,25.44Zm3.344,18.572a5.926,5.926,0,0,1-2.228,3.823,4.671,4.671,0,0,1-.693.4v-5.19a15.988,15.988,0,0,1,3.265-2.7A20.531,20.531,0,0,1,26.363,44.012ZM16,48.257a4.671,4.671,0,0,1-.734-.422c-.047-.033-.092-.069-.138-.1A4.958,4.958,0,0,0,16,47.118Zm1.67-4.5c.008-.113.013-.228.013-.343s-.005-.229-.013-.343V36.829h4.106V42.41a17.532,17.532,0,0,0-3.5,6.412c-.2-.02-.4-.045-.6-.077Zm4.106,1.427v3.552a12.8,12.8,0,0,1-1.777.15A15.824,15.824,0,0,1,21.774,45.186Zm1.67-4.473V36.829h3.04q.106.828.161,1.62A17.627,17.627,0,0,0,23.443,40.713ZM25.9,33.56q.183.816.324,1.6H13.175q.14-.782.322-1.6ZM12.919,36.829H16v2.885a4.9,4.9,0,0,0-3.242-1.222h0Q12.811,37.678,12.919,36.829Zm-4,3.332h3.839A3.259,3.259,0,0,1,16,43.131V43.7a3.259,3.259,0,0,1-3.242,2.97H8.917a3.255,3.255,0,0,1,0-6.51ZM20.5,55.688a20.7,20.7,0,0,1-6.2-.843,11.9,11.9,0,0,1-4.15-2.367,8.849,8.849,0,0,1-2.558-4.32,4.914,4.914,0,0,0,1.327.183h3.839a4.944,4.944,0,0,0,.537-.03,6.323,6.323,0,0,0,1.009.89,9.186,9.186,0,0,0,5.388,1.362h.02A9.185,9.185,0,0,0,25.1,49.2,7.553,7.553,0,0,0,28,44.321c.731-3.885.4-8.148-1.041-13.418a.687.687,0,0,1,.086-.551,1.17,1.17,0,0,1,.776-.5,1.289,1.289,0,0,1,1.413.579A33.831,33.831,0,0,1,32.112,41.3c.352,3.519.342,7.973-2.884,11.2a10.454,10.454,0,0,1-4.8,2.678h-.162a.827.827,0,0,0-.485.157A16.832,16.832,0,0,1,20.5,55.688Zm9.906-2.007a11.735,11.735,0,0,0,3.183-6.075,21.331,21.331,0,0,0,.181-6.47,35.486,35.486,0,0,0-3.02-11.4,2.906,2.906,0,0,0-3.01-1.554l-.019-7.572H52.959l.022,8.767a12.519,12.519,0,0,1-3.511,8.746l-.01.011c-.053.055-.106.11-.16.164a12.568,12.568,0,0,1-11.952,3.368l-.066-.017a12.507,12.507,0,0,1-1.648-.542A.835.835,0,1,0,35,42.65q.659.269,1.336.469A16.272,16.272,0,0,0,40.5,51.295a20.126,20.126,0,0,0,4.694,3.884H28.544A11.174,11.174,0,0,0,30.409,53.681Z" transform="translate(0 0)" fill="#18191b"/>
    <path id="Trazado_104086" data-name="Trazado 104086" d="M303.273,295.137h.013a4.179,4.179,0,0,0,2.835-1.115.835.835,0,1,0-1.135-1.224,2.515,2.515,0,0,1-1.7.671h-.008a2.514,2.514,0,0,1-1.7-.661.835.835,0,1,0-1.127,1.232A4.179,4.179,0,0,0,303.273,295.137Z" transform="translate(-262.934 -259.734)" fill="#18191b"/>
    <path id="Trazado_104087" data-name="Trazado 104087" d="M362.344,199.544a8.551,8.551,0,0,1,3.794.117.827.827,0,0,0,.249.039.835.835,0,0,0,.249-1.631,10.147,10.147,0,0,0-4.654-.154.835.835,0,0,0,.361,1.63Z" transform="translate(-317.227 -175.518)" fill="#18191b"/>
    <path id="Trazado_104088" data-name="Trazado 104088" d="M251.286,198.909a.835.835,0,0,0-.634-1,10.147,10.147,0,0,0-4.654.154.835.835,0,1,0,.5,1.593,8.54,8.54,0,0,1,3.794-.117A.835.835,0,0,0,251.286,198.909Z" transform="translate(-214.321 -175.518)" fill="#18191b"/>
  </g>
</svg>
