<svg xmlns="http://www.w3.org/2000/svg" width="51.097" height="66" viewBox="0 0 51.097 66">
  <g id="Grupo_55006" data-name="Grupo 55006" transform="translate(-664 -48)">
    <g id="Grupo_55004" data-name="Grupo 55004" transform="translate(665.065 49.065)">
      <g id="Grupo_54997" data-name="Grupo 54997" transform="translate(0 29.806)">
        <g id="Grupo_54995" data-name="Grupo 54995">
          <path id="Trazado_104110" data-name="Trazado 104110" d="M693.61,286.387a10.979,10.979,0,0,1-9.751-5.94c-.075-.149-.149-.3-.213-.447a11.555,11.555,0,0,0-8.718,4.045,11.846,11.846,0,0,0-2.172,3.683,12.055,12.055,0,0,0-.756,4.215v16.8a5.325,5.325,0,0,0,5.323,5.323h14.9V301.29h2.129V294.9h-3.194a1.068,1.068,0,0,1-1.065-1.065V291.71a1.068,1.068,0,0,1,1.065-1.065h3.194v-3.194a1.068,1.068,0,0,1,1.064-1.065h-1.81Z" transform="translate(-672 -280)" fill="#e6e9ed"/>
        </g>
        <g id="Grupo_54996" data-name="Grupo 54996" transform="translate(25.548)">
          <path id="Trazado_104111" data-name="Trazado 104111" d="M886.664,287.728a11.846,11.846,0,0,0-2.172-3.683A11.555,11.555,0,0,0,875.774,280a10.962,10.962,0,0,1-9.964,6.387H864a1.068,1.068,0,0,1,1.065,1.065v3.194h3.194a1.068,1.068,0,0,1,1.065,1.065v2.129a1.068,1.068,0,0,1-1.065,1.065h-3.194v6.387h2.129v12.774h14.9a5.324,5.324,0,0,0,5.323-5.323v-16.8a12.055,12.055,0,0,0-.756-4.215Z" transform="translate(-864 -280)" fill="#e6e9ed"/>
        </g>
      </g>
      <g id="Grupo_54998" data-name="Grupo 54998" transform="translate(10.645 0)">
        <path id="Trazado_104112" data-name="Trazado 104112" d="M756.258,78.355v1a14.785,14.785,0,0,0,7.452,12.838h-.745a10.979,10.979,0,0,1-9.751-5.94c-.075-.149-.149-.3-.213-.447a11,11,0,0,1-1-4.577v-12.5a10.142,10.142,0,0,1,4.322-8.3l3.7-2.6a10.141,10.141,0,0,1,11.625,0l3.7,2.6a10.142,10.142,0,0,1,4.322,8.3v12.5a10.963,10.963,0,0,1-10.965,10.965h-.745a14.785,14.785,0,0,0,7.452-12.838V77.29a9.581,9.581,0,0,0-19.161,0Z" transform="translate(-752 -56)" fill="#ccd1d9"/>
      </g>
      <g id="Grupo_54999" data-name="Grupo 54999" transform="translate(14.903 22.355)">
        <path id="Trazado_104113" data-name="Trazado 104113" d="M803.161,225a14.785,14.785,0,0,1-7.452,12.838h-4.258A14.785,14.785,0,0,1,784,225v-1a9.581,9.581,0,0,0,19.161,0Z" transform="translate(-784 -224)" fill="#f0d0b4"/>
      </g>
      <g id="Grupo_55000" data-name="Grupo 55000" transform="translate(14.903 11.71)">
        <path id="Trazado_104114" data-name="Trazado 104114" d="M803.161,154.645a9.581,9.581,0,0,1-19.161,0v-1.065a9.581,9.581,0,0,1,19.161,0Z" transform="translate(-784 -144)" fill="#f0d0b4"/>
      </g>
      <g id="Grupo_55001" data-name="Grupo 55001" transform="translate(20.226 51.097)">
        <path id="Trazado_104115" data-name="Trazado 104115" d="M832.516,440v8.516H824A4.258,4.258,0,0,0,824,440h8.516Z" transform="translate(-824 -440)" fill="#f0d0b4"/>
      </g>
      <g id="Grupo_55002" data-name="Grupo 55002" transform="translate(20.226 51.097)">
        <path id="Trazado_104116" data-name="Trazado 104116" d="M824,440a4.258,4.258,0,1,1,0,8.516Z" transform="translate(-824 -440)" fill="#f0d0b4"/>
      </g>
      <g id="Grupo_55003" data-name="Grupo 55003" transform="translate(18.097 36.194)">
        <path id="Trazado_104117" data-name="Trazado 104117" d="M813.323,328h2.129a1.068,1.068,0,0,1,1.065,1.065v3.194h3.194a1.068,1.068,0,0,1,1.065,1.065v2.129a1.068,1.068,0,0,1-1.065,1.065h-3.194V342.9h-4.258v-6.387h-3.194A1.068,1.068,0,0,1,808,335.452v-2.129a1.068,1.068,0,0,1,1.065-1.065h3.194v-3.194A1.068,1.068,0,0,1,813.323,328Z" transform="translate(-808 -328)" fill="#fcd770"/>
      </g>
    </g>
    <g id="Grupo_55005" data-name="Grupo 55005" transform="translate(664 48)">
      <circle id="Elipse_4016" data-name="Elipse 4016" cx="1" cy="1" r="1" transform="translate(20 19)"/>
      <path id="Trazado_104118" data-name="Trazado 104118" d="M848,208h2.129v4.258H848Z" transform="translate(-823.516 -186.71)"/>
      <circle id="Elipse_4017" data-name="Elipse 4017" cx="1" cy="1" r="1" transform="translate(29 19)"/>
      <path id="Trazado_104119" data-name="Trazado 104119" d="M824.877,237.615a3.366,3.366,0,0,1-6.387,0l-.055-.164-2.018.679.055.161a5.494,5.494,0,0,0,10.424,0l.055-.164-2.018-.679Z" transform="translate(-796.135 -212.239)"/>
      <path id="Trazado_104120" data-name="Trazado 104120" d="M711.917,82.219a12.624,12.624,0,0,0-8.045-4.311,11.993,11.993,0,0,0,.579-3.615v-12.5a11.207,11.207,0,0,0-4.775-9.172l-3.707-2.6a11.2,11.2,0,0,0-12.841,0l-3.707,2.6a11.205,11.205,0,0,0-4.776,9.172v12.5a11.962,11.962,0,0,0,.58,3.615,12.618,12.618,0,0,0-8.044,4.312A13.208,13.208,0,0,0,664,90.815v16.8A6.394,6.394,0,0,0,670.387,114h15.968v-4.258h6.387V114H708.71a6.393,6.393,0,0,0,6.387-6.387v-16.8A13.218,13.218,0,0,0,711.917,82.219ZM710.3,83.6a11.079,11.079,0,0,1,2.656,6.976H697a2.131,2.131,0,0,0-2.129-2.129h-2.129V86.323s0-.009,0-.013a11.951,11.951,0,0,0,10.27-6.337A10.493,10.493,0,0,1,710.3,83.6ZM704.452,99.1h-11.71V94.839h2.129A2.131,2.131,0,0,0,697,92.71h7.452ZM674.645,92.71H682.1a2.131,2.131,0,0,0,2.129,2.129h2.129V99.1h-11.71Zm11.71,14.707v-5.994a3.174,3.174,0,0,1,0,5.994Zm2.129-8.32V92.71h-4.258V90.581h4.258V86.323h2.129v4.258h4.258V92.71h-4.258V99.1Zm9.581-27.677a8.516,8.516,0,0,1-17.032,0V70.355a8.516,8.516,0,0,1,17.032,0Zm-8.516,10.645a10.582,10.582,0,0,0,6.178-1.993,13.7,13.7,0,0,1-4.35,4.122h-3.657a13.716,13.716,0,0,1-4.35-4.122,10.576,10.576,0,0,0,6.177,1.993ZM676.774,61.791a9.076,9.076,0,0,1,3.867-7.428l3.707-2.6a9.07,9.07,0,0,1,10.4,0l3.707,2.6a9.073,9.073,0,0,1,3.867,7.427v12.5a9.91,9.91,0,0,1-6.878,9.431,15.887,15.887,0,0,0,4.748-11.305V70.355a10.645,10.645,0,0,0-21.29,0v2.063a15.885,15.885,0,0,0,4.748,11.305,9.906,9.906,0,0,1-6.876-9.431ZM668.8,83.6a10.493,10.493,0,0,1,7.291-3.632,11.951,11.951,0,0,0,10.27,6.337.055.055,0,0,0,0,.013v2.129h-2.129a2.131,2.131,0,0,0-2.129,2.129H666.14A11.079,11.079,0,0,1,668.8,83.6Zm1.591,28.266a4.262,4.262,0,0,1-4.258-4.258V92.71h6.387v6.717a5.287,5.287,0,0,0-3.124,3.017l-1.058,2.645,1.977.79,1.058-2.645a3.18,3.18,0,0,1,2.966-2.008h9.891v10.645Zm19.134-4.258a5.215,5.215,0,0,0,0-6.387h3.221v6.387Zm19.189,4.258H694.871V101.226h9.891a3.178,3.178,0,0,1,2.965,2.008l1.058,2.645,1.977-.79-1.058-2.645a5.284,5.284,0,0,0-3.124-3.017V92.71h6.387v14.9a4.261,4.261,0,0,1-4.257,4.258Z" transform="translate(-664 -48)"/>
    </g>
  </g>
</svg>
