<svg xmlns="http://www.w3.org/2000/svg" width="42.636" height="63" viewBox="0 0 42.636 63">
  <g id="Grupo_55011" data-name="Grupo 55011" transform="translate(-493.735 -60.181)">
    <g id="Grupo_55009" data-name="Grupo 55009" transform="translate(494.658 61.105)">
      <path id="Trazado_104145" data-name="Trazado 104145" d="M592.044,278.466H575.293a7.712,7.712,0,0,1-7.712-7.712v-9.015h24.463Z" transform="translate(-559.417 -237.862)" fill="#935b44"/>
      <path id="Trazado_104146" data-name="Trazado 104146" d="M593.882,360.3v17.968H570.018V360.3l3.023-.426,2.782-.393a2.4,2.4,0,0,0,1.985-1.763,2.362,2.362,0,0,0,.08-.614v-4.992h8.124v4.993a2.349,2.349,0,0,0,.08.613,2.4,2.4,0,0,0,1.985,1.764l2.782.391Z" transform="translate(-561.555 -317.119)" fill="#fed2a4"/>
      <path id="Trazado_104147" data-name="Trazado 104147" d="M685.738,359.879l-2.782-.391a2.4,2.4,0,0,1-1.985-1.764,2.343,2.343,0,0,1-.08-.613v-4.993H678.21v4.993a2.346,2.346,0,0,0,.08.613,2.4,2.4,0,0,0,1.985,1.764l2.782.391,3.023.426v17.968h2.681V360.3Z" transform="translate(-656.434 -317.119)" fill="#ffbd86"/>
      <path id="Trazado_104148" data-name="Trazado 104148" d="M638.826,74.173h-9.193V72.288a4.6,4.6,0,0,1,9.193,0Z" transform="translate(-613.835 -67.692)" fill="#935b44"/>
      <path id="Trazado_104149" data-name="Trazado 104149" d="M657.434,67.692a4.593,4.593,0,0,0-1.34.2,4.6,4.6,0,0,1,3.256,4.4v1.885h2.681V72.288A4.6,4.6,0,0,0,657.434,67.692Z" transform="translate(-637.039 -67.692)" fill="#87523e"/>
      <path id="Trazado_104150" data-name="Trazado 104150" d="M595.61,122.69h-23.3v-2.606a7.914,7.914,0,0,1,7.914-7.914H587.7a7.914,7.914,0,0,1,7.914,7.914Z" transform="translate(-563.565 -106.697)" fill="#935b44"/>
      <path id="Trazado_104151" data-name="Trazado 104151" d="M678.24,112.17h-2.681a7.914,7.914,0,0,1,7.914,7.914v2.606h2.681v-2.606a7.914,7.914,0,0,0-7.914-7.914Z" transform="translate(-654.109 -106.697)" fill="#87523e"/>
      <path id="Trazado_104152" data-name="Trazado 104152" d="M744.6,261.739h2.681v16.727H744.6Z" transform="translate(-714.659 -237.862)" fill="#87523e"/>
      <path id="Trazado_104153" data-name="Trazado 104153" d="M562.3,243.892h-1.617a2.913,2.913,0,0,1,0-5.826H562.3Z" transform="translate(-550.816 -217.102)" fill="#fed2a4"/>
      <path id="Trazado_104154" data-name="Trazado 104154" d="M574.74,238.065a2.906,2.906,0,0,0-.941.156v5.513a2.907,2.907,0,0,0,.941.156h1.617v-5.826H574.74Z" transform="translate(-564.87 -217.101)" fill="#ffbd86"/>
      <path id="Trazado_104155" data-name="Trazado 104155" d="M612.4,157.548H594.587v-6.1a4.142,4.142,0,0,1,2.542-3.82l6.366-2.665,6.366,2.665a4.142,4.142,0,0,1,2.542,3.82Z" transform="translate(-583.1 -135.451)" fill="#feb137"/>
      <path id="Trazado_104156" data-name="Trazado 104156" d="M663.8,147.624l-6.366-2.665-1.34.561,5.026,2.1a4.142,4.142,0,0,1,2.542,3.82v6.1h2.681v-6.1A4.142,4.142,0,0,0,663.8,147.624Z" transform="translate(-637.039 -135.451)" fill="#eba32f"/>
      <path id="Trazado_104157" data-name="Trazado 104157" d="M739.388,243.892h1.617a2.913,2.913,0,0,0,0-5.826h-1.617Z" transform="translate(-710.084 -217.102)" fill="#fed2a4"/>
      <path id="Trazado_104158" data-name="Trazado 104158" d="M741,238.065h-1.617v.156a2.913,2.913,0,0,1,0,5.513v.156H741a2.913,2.913,0,0,0,0-5.826Z" transform="translate(-710.083 -217.101)" fill="#ffbd86"/>
      <path id="Trazado_104159" data-name="Trazado 104159" d="M604.092,230.635H602.9a8.312,8.312,0,0,1-8.312-8.312V214.5l1.192-1.749a3.564,3.564,0,0,1,4.519-1.19l3.2,1.574,3.2-1.574a3.563,3.563,0,0,1,4.518,1.19L612.4,214.5v7.821a8.312,8.312,0,0,1-8.312,8.312Z" transform="translate(-583.1 -193.538)" fill="#fed2a4"/>
      <g id="Grupo_55008" data-name="Grupo 55008" transform="translate(19.055 17.658)">
        <path id="Trazado_104160" data-name="Trazado 104160" d="M665.151,212.758a3.563,3.563,0,0,0-4.284-1.294,3.553,3.553,0,0,1,1.6,1.294l1.192,1.749v7.821a8.312,8.312,0,0,1-7.568,8.277c.245.022.493.035.744.035h1.193a8.312,8.312,0,0,0,8.312-8.312v-7.821Z" transform="translate(-656.094 -211.202)" fill="#ffbd86"/>
      </g>
      <path id="Trazado_104161" data-name="Trazado 104161" d="M509.7,418.657c-.034,0-1.757.291-3.594.62a5.913,5.913,0,0,0-4.869,5.82v11.528H509.7Z" transform="translate(-501.236 -375.471)" fill="#fed2a4"/>
      <path id="Trazado_104162" data-name="Trazado 104162" d="M548.227,457.328v11.228h2.681V455.069c-.015,0-.36.055-.9.147a2.144,2.144,0,0,0-1.783,2.113Z" transform="translate(-542.445 -407.403)" fill="#ffbd86"/>
      <path id="Trazado_104163" data-name="Trazado 104163" d="M772.42,425.1v11.528h-8.463V418.658c.034,0,1.758.29,3.594.62a5.912,5.912,0,0,1,4.869,5.819Z" transform="translate(-731.63 -375.472)" fill="#fed2a4"/>
      <path id="Trazado_104164" data-name="Trazado 104164" d="M771.829,422.519a5.907,5.907,0,0,0-4.277-3.241c-1.836-.33-3.56-.624-3.594-.62v.457l.913.163a5.912,5.912,0,0,1,4.869,5.819v11.528h2.681V425.1a5.891,5.891,0,0,0-.592-2.579Z" transform="translate(-731.631 -375.472)" fill="#ffbd86"/>
      <path id="Trazado_104165" data-name="Trazado 104165" d="M560.767,176.039v-4.254a4.977,4.977,0,0,0-2.3-4.2,1.588,1.588,0,0,0-2.443,1.379C556.092,171.49,556.924,174.963,560.767,176.039Z" transform="translate(-549.28 -155.075)" fill="#fff0ad"/>
      <path id="Trazado_104166" data-name="Trazado 104166" d="M560.633,167.59a1.59,1.59,0,0,0-2.139.4,4.977,4.977,0,0,1,1.76,3.8v2.751a6.115,6.115,0,0,0,2.681,1.5v-4.254A4.977,4.977,0,0,0,560.633,167.59Z" transform="translate(-551.448 -155.077)" fill="#ffe177"/>
      <path id="Trazado_104167" data-name="Trazado 104167" d="M739.388,176.039v-4.254a4.977,4.977,0,0,1,2.3-4.2,1.588,1.588,0,0,1,2.443,1.379C744.063,171.49,743.231,174.963,739.388,176.039Z" transform="translate(-710.084 -155.075)" fill="#fff0ad"/>
      <path id="Trazado_104168" data-name="Trazado 104168" d="M741.691,167.589a4.966,4.966,0,0,0-.542.4,1.558,1.558,0,0,1,.3.979,8.007,8.007,0,0,1-2.064,5.569v1.5c3.843-1.076,4.675-4.549,4.745-7.072A1.589,1.589,0,0,0,741.691,167.589Z" transform="translate(-710.085 -155.076)" fill="#ffe177"/>
      <path id="Trazado_104169" data-name="Trazado 104169" d="M601.753,404.123l-7.571,7.679v6.428H570.018v-5.205l16.074-15.344a2.4,2.4,0,0,0,1.985,1.764l2.782.391,3.023.426c.034,0,1.758.29,3.594.62a5.908,5.908,0,0,1,4.277,3.241Z" transform="translate(-561.555 -357.077)" fill="#fe646f"/>
      <path id="Trazado_104170" data-name="Trazado 104170" d="M701.231,400.883c-1.836-.33-3.559-.624-3.594-.62l-3.023-.426-2.782-.391a2.4,2.4,0,0,1-1.985-1.764l-1.516,1.447a13.906,13.906,0,0,0,3.6.709c2.66.376,3.048.4,6.617,1.046a5.908,5.908,0,0,1,4.277,3.241l-7.571,7.679v6.427h2.681V411.8l7.571-7.679a5.908,5.908,0,0,0-4.277-3.241Z" transform="translate(-665.31 -357.077)" fill="#fd4755"/>
      <path id="Trazado_104171" data-name="Trazado 104171" d="M612.4,399.836l-2.357,2.67a11.688,11.688,0,0,1-4.934,3.309,4.939,4.939,0,0,1-3.235,0,11.676,11.676,0,0,1-4.934-3.309l-2.357-2.67,2.782-.393a2.4,2.4,0,0,0,1.985-1.763h8.284a2.4,2.4,0,0,0,1.985,1.764Z" transform="translate(-583.1 -357.077)" fill="#feb137"/>
      <path id="Trazado_104172" data-name="Trazado 104172" d="M686.309,399.836l-2.357,2.67a11.655,11.655,0,0,1-3.508,2.705l-1.583-7.53h2.681a2.4,2.4,0,0,0,1.985,1.764Z" transform="translate(-657.005 -357.077)" fill="#eba32f"/>
      <path id="Trazado_104173" data-name="Trazado 104173" d="M708.738,391.8v14.122a1.237,1.237,0,0,1-1.988.983,11.812,11.812,0,0,1-4.365-6.849l-1.736-8.256,4.157-.825Z" transform="translate(-676.111 -351.195)" fill="#935b44"/>
      <path id="Trazado_104174" data-name="Trazado 104174" d="M744.233,388.913v15.2a1.258,1.258,0,0,1-.052.362c.239.216.487.424.745.621a1.237,1.237,0,0,0,1.988-.983V389.992Z" transform="translate(-714.287 -349.388)" fill="#87523e"/>
    </g>
    <g id="Grupo_55010" data-name="Grupo 55010" transform="translate(493.735 60.181)">
      <path id="Trazado_104175" data-name="Trazado 104175" d="M535.709,107.8a6.951,6.951,0,0,0-4.967-3.8c-.974-.175-1.881-.333-2.535-.446V91.851a.923.923,0,1,0-1.846,0v23.981a.314.314,0,0,1-.505.25c-3.024-2.259-3.967-5.414-4.507-8.609-.265-1.386-1.111-5.039-1.312-6.375V98.014a9.243,9.243,0,0,0,4.847-8.124V88.818h.694a3.835,3.835,0,0,0,1.473-7.377,8.572,8.572,0,0,0,2.578-6.418,2.512,2.512,0,0,0-2.239-2.563,8.871,8.871,0,0,0-6.818-6.621,5.521,5.521,0,1,0-11.038,0,8.871,8.871,0,0,0-6.818,6.621,2.513,2.513,0,0,0-2.239,2.563,8.572,8.572,0,0,0,2.578,6.418,3.832,3.832,0,0,0-1.157,6.33V94a8.648,8.648,0,0,0,7.145,8.5,1.5,1.5,0,0,1-.246.057s-7.1,1.026-9.433,1.444a6.829,6.829,0,0,0-5.629,6.728v11.528a.923.923,0,1,0,1.846,0V110.731a4.985,4.985,0,0,1,4.109-4.911c1.832-.329,6.091-.972,6.091-.972l2.028,2.3a12.578,12.578,0,0,0,2.254,2.005l-6.019,5.746v-6.26a.923.923,0,1,0-1.846,0v13.622a.923.923,0,1,0,1.846,0v-4.81l7.673-7.325a9.231,9.231,0,0,0,2.413.84v2.112a.923.923,0,1,0,1.846,0v-2.112a11.063,11.063,0,0,0,3.869-1.679l.185.879a12.751,12.751,0,0,0,4.707,7.384,2.287,2.287,0,0,0,1.626.421v4.29a.923.923,0,1,0,1.846,0V116.21l6.244-6.334a5.017,5.017,0,0,1,.073.855v11.528a.923.923,0,1,0,1.846,0V110.731a6.765,6.765,0,0,0-.662-2.931Zm-12.67-17.91a7.4,7.4,0,0,1-7.389,7.389h-.334a.923.923,0,0,0,0,1.846h.334a9.2,9.2,0,0,0,2.543-.359v2.02h-6.278V97.446a.928.928,0,0,0-.571-.853,7.414,7.414,0,0,1-4.276-6.7V82.354l1.032-1.514a2.653,2.653,0,0,1,3.348-.882l3.2,1.574a.932.932,0,0,0,.815,0l3.2-1.574a2.653,2.653,0,0,1,3.348.882l1.032,1.514V89.89Zm0-10.691a4.512,4.512,0,0,0-5.2-.9l-1.867.919V77.1a.923.923,0,1,0-1.846,0v2.123l-1.867-.919a4.512,4.512,0,0,0-5.2.9V77.1a3.211,3.211,0,0,1,1.976-2.969l6.01-2.516,6.01,2.516a3.211,3.211,0,0,1,1.976,2.969Zm2.54,7.773h-.694v-3.98h.694a1.99,1.99,0,0,1,0,3.98Zm2.205-12c-.078,2.839-1.052,4.766-2.9,5.746v-2.9A4.036,4.036,0,0,1,526.76,74.4a.693.693,0,0,1,.689-.017.648.648,0,0,1,.336.593ZM515.053,62.028a3.726,3.726,0,0,1,3.672,3.627h-7.344A3.677,3.677,0,0,1,515.053,62.028ZM511.318,67.5h7.471a7.011,7.011,0,0,1,6.82,5.448,5.9,5.9,0,0,0-1.492,1.465,5.057,5.057,0,0,0-2.341-1.987l-6.366-2.665a.923.923,0,0,0-.713,0l-6.366,2.665a5.057,5.057,0,0,0-2.341,1.987,5.9,5.9,0,0,0-1.492-1.465A7.012,7.012,0,0,1,511.318,67.5Zm-9,7.472a.653.653,0,0,1,.336-.593.676.676,0,0,1,.689.018,4.036,4.036,0,0,1,1.875,3.419v2.9C503.374,79.738,502.4,77.812,502.322,74.972Zm2.205,8.02h.694v3.98h-.694a1.99,1.99,0,1,1,0-3.98Zm-.784,11v-5.26a3.834,3.834,0,0,0,.784.081h.694V89.89a9.267,9.267,0,0,0,4.847,8.127v2.752A6.8,6.8,0,0,1,503.744,94Zm12.624,14.974a4.032,4.032,0,0,1-2.63,0,10.778,10.778,0,0,1-4.545-3.047l-1.222-1.385c1.452-.173,2.678-.321,3.568-1.907h6.907l.984,4.681a10.68,10.68,0,0,1-3.062,1.658Zm11.839,4.61V105.43c.612.106,1.386.242,2.208.39A5.006,5.006,0,0,1,533.71,108Z" transform="translate(-493.735 -60.181)"/>
      <path id="Trazado_104176" data-name="Trazado 104176" d="M660.411,280.443a.923.923,0,0,0,.923-.923v-2.474a.923.923,0,0,0-1.846,0v2.474A.923.923,0,0,0,660.411,280.443Z" transform="translate(-639.092 -249.552)"/>
      <path id="Trazado_104177" data-name="Trazado 104177" d="M649.988,321a1.264,1.264,0,0,1-1.84,0,.923.923,0,0,0-1.343,1.266,3.11,3.11,0,0,0,4.526,0A.923.923,0,1,0,649.988,321Z" transform="translate(-627.749 -288.653)"/>
      <circle id="Elipse_4018" data-name="Elipse 4018" cx="0.92" cy="0.92" r="0.92" transform="translate(20.257 23.182) rotate(-9.099)"/>
      <path id="Trazado_104178" data-name="Trazado 104178" d="M660.429,424.359a.92.92,0,1,0,.92.92A.92.92,0,0,0,660.429,424.359Z" transform="translate(-639.111 -379.548)"/>
    </g>
  </g>
</svg>
