<svg xmlns="http://www.w3.org/2000/svg" xmlns:xlink="http://www.w3.org/1999/xlink" width="57" height="57" viewBox="0 0 57 57">
  <defs>
    <clipPath id="clip-path">
      <rect id="SVGID" width="57" height="57" transform="translate(0.315)" fill="none"/>
    </clipPath>
  </defs>
  <g id="Grupo_54919" data-name="Grupo 54919" transform="translate(-0.315)">
    <g id="Grupo_54918" data-name="Grupo 54918" transform="translate(0 0)">
      <g id="Grupo_54917" data-name="Grupo 54917" clip-path="url(#clip-path)">
        <path id="Trazado_103834" data-name="Trazado 103834" d="M275.716,194.773l-4.71,6.055A16.018,16.018,0,1,1,248.53,178.35l6.055-4.709,9.056-9.057,4.71-6.055a16.017,16.017,0,1,1,22.477,22.477l-6.055,4.71Zm0,0" transform="translate(-241.161 -151.217)" fill="#ea9180"/>
        <path id="Trazado_103835" data-name="Trazado 103835" d="M311.117,230.215l9.055-9.055L341.3,242.288l-9.055,9.055Zm0,0" transform="translate(-297.699 -207.79)" fill="#f9caa7"/>
        <path id="Trazado_103836" data-name="Trazado 103836" d="M286.664,175.5a6.411,6.411,0,0,0-9.056,0l-.755.755L275.4,174.8l5.943-4.622a8.546,8.546,0,1,0-11.993-11.993l-4.623,5.943-1.521-1.522,4.459-5.732a10.681,10.681,0,1,1,16.643,13.387l1.641,1.365a12.815,12.815,0,1,0-19.968-16.063l-4.294,5.521-1.521-1.521,4.13-5.311a14.952,14.952,0,1,1,23.062,19.019l1.605,1.407a17.087,17.087,0,1,0-26.352-21.736l-4.669,6-8.962,8.962-3.343,2.6,1.31,1.685,2.652-2.062,1.6,1.6-.755.755a4.273,4.273,0,0,1-6.038,0l-3.019-3.019-1.509,1.509,3.019,3.019a6.411,6.411,0,0,0,9.056,0l.755-.755,1.457,1.456-5.943,4.622a8.547,8.547,0,0,0,5.247,15.293q.265,0,.531-.017a8.546,8.546,0,0,0,6.215-3.282l4.623-5.943,1.521,1.521-4.459,5.733a10.681,10.681,0,1,1-16.643-13.388l-1.641-1.365a12.815,12.815,0,0,0,9.854,21.01q.4,0,.8-.024a12.821,12.821,0,0,0,9.32-4.923l4.293-5.521,1.521,1.521-4.13,5.311A14.952,14.952,0,1,1,242.2,176.221l-1.6-1.407a17.088,17.088,0,0,0,12.867,28.332q.529,0,1.061-.033a17.094,17.094,0,0,0,12.424-6.563l4.669-6,8.962-8.962,3.343-2.6-1.31-1.685-2.652,2.062-1.6-1.6.755-.755a4.273,4.273,0,0,1,6.038,0l3.019,3.019,1.509-1.509Zm-15.632-16.006a6.412,6.412,0,1,1,9,9l-6.154,4.787-1.521-1.521,6.364-4.95a4.277,4.277,0,1,0-6-6l-4.949,6.364-1.521-1.521Zm-1.743,9.2,5.114-6.575a2.142,2.142,0,1,1,3.007,3.006l-6.575,5.114ZM258.524,190a6.412,6.412,0,1,1-9-9l6.154-4.786,1.521,1.521-6.364,4.949a4.277,4.277,0,0,0,2.626,7.653c.089,0,.177,0,.265-.008a4.279,4.279,0,0,0,3.11-1.643l4.949-6.364,1.521,1.521Zm1.744-9.2-5.114,6.575a2.142,2.142,0,1,1-3.007-3.007l6.575-5.114Zm10.548,7.529-19.622-19.622,7.547-7.547,19.622,19.622Zm0,0" transform="translate(-236.261 -146.284)"/>
      </g>
    </g>
    <path id="Trazado_103837" data-name="Trazado 103837" d="M239,260.829l1.509-1.509,1.509,1.509-1.509,1.509Zm0,0" transform="translate(-238.414 -239.162)"/>
    <path id="Trazado_103838" data-name="Trazado 103838" d="M535.945,337.22l1.509-1.509,1.509,1.509-1.509,1.509Zm0,0" transform="translate(-482.533 -301.964)"/>
  </g>
</svg>
