<svg xmlns="http://www.w3.org/2000/svg" xmlns:xlink="http://www.w3.org/1999/xlink" width="56" height="51" viewBox="0 0 56 51">
  <defs>
    <clipPath id="clip-path">
      <rect id="SVGID" width="56" height="51" transform="translate(-0.155)" fill="none"/>
    </clipPath>
  </defs>
  <g id="Grupo_54923" data-name="Grupo 54923" transform="translate(0.155 0)">
    <path id="Trazado_103844" data-name="Trazado 103844" d="M432.895,244.347h-18.34L416.389,204h14.672Zm0,0" transform="translate(-413.407 -199.348)" fill="#0093b9"/>
    <path id="Trazado_103845" data-name="Trazado 103845" d="M422.389,468h12.838a1.834,1.834,0,0,1,0,3.668H422.389a1.834,1.834,0,0,1,0-3.668Zm0,0" transform="translate(-418.49 -423.001)" fill="#d6a045"/>
    <rect id="Rect치ngulo_5137" data-name="Rect치ngulo 5137" width="8" height="3" transform="translate(6.845 1)" fill="#ebae48"/>
    <path id="Trazado_103846" data-name="Trazado 103846" d="M576.895,244.347h-18.34L560.389,204h14.672Zm0,0" transform="translate(-535.399 -199.348)" fill="#86bc40"/>
    <path id="Trazado_103847" data-name="Trazado 103847" d="M566.389,468h12.838a1.834,1.834,0,1,1,0,3.668H566.389a1.834,1.834,0,1,1,0-3.668Zm0,0" transform="translate(-540.482 -423.001)" fill="#ebae48"/>
    <rect id="Rect치ngulo_5138" data-name="Rect치ngulo 5138" width="7" height="3" transform="translate(28.845 1)" fill="#ebae48"/>
    <path id="Trazado_103848" data-name="Trazado 103848" d="M514.217,378l.471,18.334-40.381-.8-.377-14.667Zm0,0" transform="translate(-463.707 -346.755)" fill="#ee5449"/>
    <path id="Trazado_103849" data-name="Trazado 103849" d="M738.3,398.169l-.334-12.838a1.835,1.835,0,1,1,3.668-.1l.334,12.838a1.835,1.835,0,0,1-3.668.1Zm0,0" transform="translate(-687.386 -351.371)" fill="#ebae48"/>
    <g id="Grupo_54922" data-name="Grupo 54922" transform="translate(0 0)">
      <g id="Grupo_54921" data-name="Grupo 54921" clip-path="url(#clip-path)">
        <path id="Trazado_103850" data-name="Trazado 103850" d="M450.668,420.928l3.668-.1.191,7.336-3.668.1Zm0,0" transform="translate(-444 -383.042)" fill="#ebae48"/>
        <path id="Trazado_103851" data-name="Trazado 103851" d="M411.307,220.766a.918.918,0,0,1,.917-.917h.917v-1.834h-2.709l.141-3.086,2.033-.932-.765-1.667-1.175.538.119-2.623,5.488-2.515-.764-1.667-4.631,2.122.371-8.157,12.576,4.67.638-1.719L411.338,198.1l.087-1.906.666-.306,13.994,5.2.146,3.211,1.832-.083-1.167-25.676a.916.916,0,0,0-.916-.875h-2.751v-2.751a.917.917,0,0,0-.917-.917h-7.336a.917.917,0,0,0-.917.917v2.751h-2.751a.917.917,0,0,0-.916.875l-1.834,40.347a.916.916,0,0,0,.916.959h.158a2.75,2.75,0,0,0,2.593,3.668h3.668v-1.834h-3.668a.918.918,0,0,1-.917-.917Zm.543-33.933,13.308-6.1.115,2.515-13.542,6.206Zm-.213,4.682,13.725-6.29.115,2.516-13.959,6.4Zm13.93-1.8.221,4.862-5.981-2.222Zm-11.118,5.1,3-1.375,8.429,3.131.115,2.533Zm1.443-18.979h5.5v1.834h-5.5Zm7.553,3.668-11.5,5.271.24-5.271Zm0,0" transform="translate(-408.325 -173.933)"/>
      </g>
    </g>
    <path id="Trazado_103852" data-name="Trazado 103852" d="M558.952,200.028l10.741,3.989.639-1.72L559.039,198.1l.087-1.906.666-.3,13.994,5.2.063,1.377,1.832-.083L574.6,178.543a.916.916,0,0,0-.916-.875H570.93v-2.751a.917.917,0,0,0-.917-.917h-7.336a.917.917,0,0,0-.917.917v2.751h-2.751a.917.917,0,0,0-.916.875l-1.167,25.676,1.832.083Zm.6-13.2,13.308-6.1.115,2.515-13.542,6.206Zm-.213,4.682,13.725-6.29.115,2.516-13.959,6.4Zm13.93-1.8.221,4.862-5.981-2.222Zm-11.118,5.1,3-1.375,8.429,3.131.115,2.533Zm1.443-18.979h5.5v1.834h-5.5Zm7.553,3.668-11.5,5.271.24-5.271Zm0,0" transform="translate(-534.019 -173.933)"/>
    <path id="Trazado_103853" data-name="Trazado 103853" d="M494.313,388.383l-.329-12.833a2.754,2.754,0,0,0-3.734-2.5l0-.156a.918.918,0,0,0-.982-.891l-40.287,2.869a.916.916,0,0,0-.851.938l.07,2.75-2.75.07a.918.918,0,0,0-.893.94l.189,7.334a.917.917,0,0,0,.916.894h.024l2.75-.07.071,2.75a.917.917,0,0,0,.9.894l40.38.8h.019a.918.918,0,0,0,.917-.94l0-.158a2.747,2.747,0,0,0,.848.136h.072a2.751,2.751,0,0,0,2.679-2.821ZM455.7,376.232l2.512-.178,6.754,13.79-2.624-.052Zm4.579,13.519-2.624-.052-6.439-13.148,2.511-.178Zm3.834-5.819,2.914-8.507,2.529-.18L465.562,386.9Zm-1.14-2.329-2.787-5.69,4.855-.346Zm3.734,7.623,4.837-14.122,2.528-.18-5.136,15-1.907-.038Zm7.481-8.981,4.837,9.876-8.164-.161Zm.841-2.454,1.03-3.01.091-.006,7.561,15.438-2.625-.052Zm3.095-3.156,2.511-.178,7.763,15.849-2.624-.051Zm10.652,12.273L482.6,374.316l5.833-.415Zm-42.219-.967-.142-5.5,1.833-.047.141,5.5Zm3.473-7.645,5.565,11.362-5.276-.1Zm42.2,10.79a.917.917,0,0,1-1.582-.608l-.33-12.833a.916.916,0,0,1,.893-.94h.024a.917.917,0,0,1,.916.893l.33,12.834a.912.912,0,0,1-.253.655Zm0,0" transform="translate(-438.82 -341.673)"/>
  </g>
</svg>
