<svg xmlns="http://www.w3.org/2000/svg" width="49.516" height="55" viewBox="0 0 49.516 55">
  <g id="Grupo_54960" data-name="Grupo 54960" transform="translate(-26)">
    <path id="Trazado_103973" data-name="Trazado 103973" d="M97.783,7.492l-.626,5.526,6.718,2.151,5.773-2.151,3.291-3.074V7.492Z" transform="translate(-63.514 -6.687)" fill="#b1785d"/>
    <path id="Trazado_103974" data-name="Trazado 103974" d="M284.034,7.492l.626,5.526-6.718,2.151-5.773-2.151-3.291-3.074V7.492Z" transform="translate(-216.789 -6.687)" fill="#b1785d"/>
    <path id="Trazado_103975" data-name="Trazado 103975" d="M96.386,63.208l-.558-4.27H91l-.742,6.544c.162-.054.321-.114.478-.177Z" transform="translate(-57.352 -52.607)" fill="#96ccec"/>
    <path id="Trazado_103976" data-name="Trazado 103976" d="M373.885,65.482l-.741-6.544h-4.833l-.3,4.019,4.612,1.982A8.339,8.339,0,0,0,373.885,65.482Z" transform="translate(-305.273 -52.607)" fill="#96ccec"/>
    <path id="Trazado_103977" data-name="Trazado 103977" d="M97.73,53.675l-4.164,3.588-5.259-1.594L77.806,22.42H74.217l-10.5,33.249-5.259,1.594-4.164-3.588,3.863-34.113a8.329,8.329,0,0,0,5.575-6.544V7.492H67v5.526h4.387l3.291-3.074V7.492h2.666V9.944l3.291,3.074h4.387V7.492h3.27v5.526a8.33,8.33,0,0,0,5.575,6.544Z" transform="translate(-25.254 -6.687)" fill="#75b8db"/>
    <path id="Trazado_103978" data-name="Trazado 103978" d="M239.762,78.961v7.251h3.59s1.279-1.706,1.279-7.251Z" transform="translate(-190.799 -70.479)" fill="#96ccec"/>
    <path id="Trazado_103979" data-name="Trazado 103979" d="M212.343,7.492h-7.184a2.151,2.151,0,0,0-2.151,2.151v3.376a2.151,2.151,0,0,0,2.151,2.151h7.184a2.151,2.151,0,0,0,2.151-2.151V9.643A2.151,2.151,0,0,0,212.343,7.492Z" transform="translate(-157.994 -6.687)" fill="#fed994"/>
    <path id="Trazado_103980" data-name="Trazado 103980" d="M233.641,30.32h4.9v2.772h-4.9Z" transform="translate(-185.336 -27.063)" fill="#b1785d"/>
    <path id="Trazado_103981" data-name="Trazado 103981" d="M373.088,440.637l-.5-2.372a1.437,1.437,0,0,0-1.7-1.108l-9.423,1.994a1.436,1.436,0,0,0-1.108,1.7l.5,2.372a1.436,1.436,0,0,0,1.7,1.108l9.423-1.993A1.436,1.436,0,0,0,373.088,440.637Z" transform="translate(-298.409 -390.169)" fill="#96ccec"/>
    <path id="Trazado_103982" data-name="Trazado 103982" d="M33.517,440.637l.5-2.372a1.436,1.436,0,0,1,1.7-1.108l9.423,1.994a1.436,1.436,0,0,1,1.108,1.7l-.5,2.372a1.436,1.436,0,0,1-1.7,1.108l-9.423-1.993A1.437,1.437,0,0,1,33.517,440.637Z" transform="translate(-6.682 -390.169)" fill="#96ccec"/>
    <path id="Trazado_103983" data-name="Trazado 103983" d="M104.508,185.882l.169-1.495a.806.806,0,1,0-1.6-.181l-.17,1.494a.806.806,0,0,0,.71.891.738.738,0,0,0,.092.005A.806.806,0,0,0,104.508,185.882Z" transform="translate(-68.641 -163.78)"/>
    <path id="Trazado_103984" data-name="Trazado 103984" d="M108.9,147.128l.169-1.495a.806.806,0,1,0-1.6-.181l-.169,1.495a.805.805,0,0,0,.71.891.752.752,0,0,0,.091.005A.806.806,0,0,0,108.9,147.128Z" transform="translate(-72.56 -129.189)"/>
    <path id="Trazado_103985" data-name="Trazado 103985" d="M81.137,377.976l-.169,1.494a.805.805,0,0,0,.71.891.745.745,0,0,0,.091.005.805.805,0,0,0,.8-.715l.17-1.494a.806.806,0,0,0-1.6-.181Z" transform="translate(-49.059 -336.734)"/>
    <path id="Trazado_103986" data-name="Trazado 103986" d="M91.344,302.144l.169-1.495a.806.806,0,1,0-1.6-.181l-.17,1.494a.806.806,0,0,0,.71.891.759.759,0,0,0,.092.005A.806.806,0,0,0,91.344,302.144Z" transform="translate(-56.891 -267.553)"/>
    <path id="Trazado_103987" data-name="Trazado 103987" d="M86.957,340.9l.169-1.495a.806.806,0,1,0-1.6-.181l-.169,1.494a.806.806,0,0,0,.71.891.761.761,0,0,0,.092.005A.806.806,0,0,0,86.957,340.9Z" transform="translate(-52.976 -302.144)"/>
    <path id="Trazado_103988" data-name="Trazado 103988" d="M100.121,224.637l.169-1.495a.806.806,0,1,0-1.6-.181l-.17,1.495a.806.806,0,0,0,.71.891.825.825,0,0,0,.092.005A.806.806,0,0,0,100.121,224.637Z" transform="translate(-64.726 -198.371)"/>
    <path id="Trazado_103989" data-name="Trazado 103989" d="M95.734,263.39,95.9,261.9a.806.806,0,0,0-1.6-.181l-.169,1.494a.805.805,0,0,0,.71.891.746.746,0,0,0,.091.005A.806.806,0,0,0,95.734,263.39Z" transform="translate(-60.809 -232.962)"/>
    <path id="Trazado_103990" data-name="Trazado 103990" d="M389.247,147.131a.806.806,0,0,0,.8.715.831.831,0,0,0,.092-.005.806.806,0,0,0,.71-.891l-.169-1.495a.806.806,0,1,0-1.6.182Z" transform="translate(-324.071 -129.192)"/>
    <path id="Trazado_103991" data-name="Trazado 103991" d="M398.562,222.25a.806.806,0,0,0-.71.891l.17,1.495a.806.806,0,0,0,.8.715.836.836,0,0,0,.092-.005.806.806,0,0,0,.71-.891l-.169-1.495A.806.806,0,0,0,398.562,222.25Z" transform="translate(-331.903 -198.371)"/>
    <path id="Trazado_103992" data-name="Trazado 103992" d="M394.175,183.5a.806.806,0,0,0-.71.891l.169,1.495a.806.806,0,0,0,.8.715.821.821,0,0,0,.091-.005.806.806,0,0,0,.71-.891l-.169-1.495A.806.806,0,0,0,394.175,183.5Z" transform="translate(-327.987 -163.78)"/>
    <path id="Trazado_103993" data-name="Trazado 103993" d="M402.953,261a.806.806,0,0,0-.71.891l.169,1.495a.806.806,0,0,0,.8.715.753.753,0,0,0,.092-.005.806.806,0,0,0,.71-.891l-.169-1.494A.806.806,0,0,0,402.953,261Z" transform="translate(-335.822 -232.962)"/>
    <path id="Trazado_103994" data-name="Trazado 103994" d="M416.117,377.266a.806.806,0,0,0-.71.891l.169,1.494a.806.806,0,0,0,.8.715.748.748,0,0,0,.092-.005.806.806,0,0,0,.71-.891l-.169-1.494A.806.806,0,0,0,416.117,377.266Z" transform="translate(-347.572 -336.734)"/>
    <path id="Trazado_103995" data-name="Trazado 103995" d="M411.729,338.512a.805.805,0,0,0-.71.891l.169,1.495a.806.806,0,0,0,.8.715.764.764,0,0,0,.092-.005.806.806,0,0,0,.71-.891l-.169-1.494A.806.806,0,0,0,411.729,338.512Z" transform="translate(-343.655 -302.144)"/>
    <path id="Trazado_103996" data-name="Trazado 103996" d="M407.339,299.758a.806.806,0,0,0-.71.891l.169,1.495a.806.806,0,0,0,.8.715.752.752,0,0,0,.091-.005.805.805,0,0,0,.71-.891l-.169-1.494A.806.806,0,0,0,407.339,299.758Z" transform="translate(-339.737 -267.553)"/>
    <path id="Trazado_103997" data-name="Trazado 103997" d="M232.657,23.638a.806.806,0,0,0-.806-.806h-4.9a.805.805,0,0,0-.806.806V26.41a.806.806,0,0,0,.806.806h4.9a.806.806,0,0,0,.806-.806ZM231.046,25.6h-3.294V24.443h3.294Z" transform="translate(-178.642 -20.379)"/>
    <path id="Trazado_103998" data-name="Trazado 103998" d="M34.269,0a.805.805,0,0,0-.8.715s-.626,5.526-.626,5.527L32.1,12.785,28.318,46.194a2.255,2.255,0,0,0-1.769,1.736l-.5,2.372a2.267,2.267,0,0,0,1.73,2.658L37.2,54.953a2.268,2.268,0,0,0,2.658-1.729l.5-2.372a2.245,2.245,0,0,0-.913-2.3l1.3-4.107a.806.806,0,0,0-1.537-.485l-1.291,4.088-4.868-1.03.162-1.428a.805.805,0,1,0-1.6-.181l-.144,1.274-1.541-.326,3.725-32.891.054-.022a9.2,9.2,0,0,0,5.408-6.2,4.1,4.1,0,0,0,.173-.888c0-.008,0-.016,0-.024V1.611h1.659V6.332a.806.806,0,0,0,.806.806H44.32l.007.021a2.986,2.986,0,0,0,2.838,2.13h.992v6.322L40.171,40.9a.806.806,0,0,0,1.537.485L49.553,16.54h2.408L62.07,48.548a2.245,2.245,0,0,0-.914,2.3l.5,2.372a2.276,2.276,0,0,0,2.658,1.729l9.423-1.993a2.266,2.266,0,0,0,1.73-2.657l-.5-2.372A2.254,2.254,0,0,0,73.2,46.195L68.046.715a.806.806,0,0,0-.8-.715ZM38.3,49.772a.631.631,0,0,1,.486.747l-.5,2.372a.639.639,0,0,1-.748.486L28.11,51.384a.639.639,0,0,1-.487-.748l.5-2.372a.639.639,0,0,1,.748-.486ZM37.451,7.181A7.5,7.5,0,0,1,33.9,11.564l-.037.02.5-4.446h3.1Zm.219-1.654H34.545l.444-3.915h2.682Zm6.848-3.888a2.966,2.966,0,0,0-.31,1.312V5.526H42.553V1.611h1.98ZM72.643,47.778a.637.637,0,0,1,.747.486s.5,2.365.5,2.372a.635.635,0,0,1-.487.747l-9.423,1.994a.637.637,0,0,1-.748-.486l-.5-2.372a.631.631,0,0,1,.486-.748ZM67.655,11.584l-.037-.021a7.577,7.577,0,0,1-3.4-3.933c-.058-.154-.118-.328-.167-.493h3.1ZM63.843,1.611h2.683l.444,3.915H63.843Zm-4.881,0V5.526H57.306V2.957A2.974,2.974,0,0,0,57,1.639l-.013-.027Zm-11.8,6.066A1.369,1.369,0,0,1,45.82,6.332V2.957a1.363,1.363,0,0,1,1.345-1.345H54.35a1.347,1.347,0,0,1,1.345,1.345V6.332A1.366,1.366,0,0,1,54.35,7.677Zm4.907,7.251h-2.3V9.289h3.248A15.036,15.036,0,0,1,52.073,14.928Zm1.355.9c.389-.753,1.112-2.665,1.2-6.557a2.964,2.964,0,0,0,.664-.141,3.03,3.03,0,0,0,1.9-2h2.573a.806.806,0,0,0,.806-.806V1.611h1.659V6.317a5.394,5.394,0,0,0,.394,1.658,9.12,9.12,0,0,0,5.241,5.487l3.725,32.891-1.541.326L69.908,45.4a.806.806,0,1,0-1.6.181l.162,1.428L63.6,48.044Z"/>
  </g>
</svg>
