<svg id="Grupo_54958" data-name="Grupo 54958" xmlns="http://www.w3.org/2000/svg" xmlns:xlink="http://www.w3.org/1999/xlink" width="62.77" height="54.679" viewBox="0 0 62.77 54.679">
  <defs>
    <clipPath id="clip-path">
      <rect id="SVGID" width="62.77" height="54.679" fill="none"/>
    </clipPath>
  </defs>
  <g id="Grupo_54955" data-name="Grupo 54955" transform="translate(0 0)">
    <g id="Grupo_54954" data-name="Grupo 54954" clip-path="url(#clip-path)">
      <path id="Trazado_103938" data-name="Trazado 103938" d="M-543.181,688.19a5.085,5.085,0,0,0-7.09.575,4.9,4.9,0,0,0,.392,7l6.06,5.2a1.2,1.2,0,0,0,1.76-.224,9.924,9.924,0,0,0-1.122-12.546Zm0,0" transform="translate(602.161 -673.529)" fill="#ff756e"/>
      <path id="Trazado_103939" data-name="Trazado 103939" d="M-519.954,700.741a1.2,1.2,0,0,1-1.762.224l-.319-.274a9.945,9.945,0,0,0-1.434-12.071,4.886,4.886,0,0,0-2.89-1.167,5.007,5.007,0,0,1,5.281.743,9.925,9.925,0,0,1,1.124,12.545Zm0,0" transform="translate(580.058 -673.534)" fill="#fc4830"/>
    </g>
  </g>
  <path id="Trazado_103940" data-name="Trazado 103940" d="M-616.037,774.271a5.084,5.084,0,0,0-6.592-2.67,4.9,4.9,0,0,0-2.791,6.426l3.08,7.367a1.2,1.2,0,0,0,1.673.591,9.924,9.924,0,0,0,4.63-11.714Zm0,0" transform="translate(667.301 -747.42)" fill="#f4bc8e"/>
  <path id="Trazado_103941" data-name="Trazado 103941" d="M-597.125,786.051a1.2,1.2,0,0,1-1.675-.591c-.051-.122-.1-.251-.161-.388a9.946,9.946,0,0,0,4.138-11.43,4.885,4.885,0,0,0-2.058-2.34,5.008,5.008,0,0,1,4.385,3.035,9.925,9.925,0,0,1-4.629,11.714Zm0,0" transform="translate(643.759 -747.485)" fill="#efa66f"/>
  <path id="Trazado_103942" data-name="Trazado 103942" d="M-748.542,812c0,3.159-4.35,13.072-6.434,17.64a1.2,1.2,0,0,1-2.177,0c-2.084-4.568-6.434-14.481-6.434-17.64a7.522,7.522,0,0,1,7.522-7.522A7.522,7.522,0,0,1-748.542,812Zm0,0" transform="translate(788.202 -776.591)" fill="#fbdbb7"/>
  <path id="Trazado_103943" data-name="Trazado 103943" d="M-708.685,812c0,3.158-4.35,13.071-6.434,17.639a1.2,1.2,0,0,1-2.176,0c-.257-.565-.551-1.212-.864-1.917,2.229-5,5.569-12.954,5.569-15.722a7.523,7.523,0,0,0-5.57-7.265,7.45,7.45,0,0,1,1.953-.257A7.522,7.522,0,0,1-708.685,812Zm0,0" transform="translate(748.345 -776.591)" fill="#f4bc8e"/>
  <path id="Trazado_103944" data-name="Trazado 103944" d="M-863.341,770.317a5.085,5.085,0,0,1,7.108-.256,4.9,4.9,0,0,1,.427,6.993l-5.412,5.871a1.2,1.2,0,0,1-1.775-.016,9.925,9.925,0,0,1-.349-12.592Zm0,0" transform="translate(877.563 -745.235)" fill="#f4bc8e"/>
  <path id="Trazado_103945" data-name="Trazado 103945" d="M-842.219,777.689l-5.413,5.871a1.2,1.2,0,0,1-1.774-.017c-.195-.22-.377-.441-.543-.666a1.209,1.209,0,0,0,.244-.2l5.411-5.872a4.9,4.9,0,0,0-.426-6.992,5.165,5.165,0,0,0-.434-.348,5.171,5.171,0,0,1,2.507,1.235,4.9,4.9,0,0,1,.427,6.993Zm0,0" transform="translate(863.977 -745.871)" fill="#efa66f"/>
  <path id="Trazado_103946" data-name="Trazado 103946" d="M-948.8,684.686a5.085,5.085,0,0,1,5.5,4.51,4.9,4.9,0,0,1-4.306,5.526l-7.943.824a1.2,1.2,0,0,1-1.32-1.187,9.925,9.925,0,0,1,8.068-9.674Zm0,0" transform="translate(957.791 -671.465)" fill="#ff756e"/>
  <g id="Grupo_54957" data-name="Grupo 54957" transform="translate(0 0)">
    <g id="Grupo_54956" data-name="Grupo 54956" clip-path="url(#clip-path)">
      <path id="Trazado_103947" data-name="Trazado 103947" d="M-947.605,708.686l-7.943.824a1.2,1.2,0,0,1-1.319-1.186c0-.294.009-.58.033-.859a1.229,1.229,0,0,0,.318.009l7.942-.824a4.9,4.9,0,0,0,4.306-5.526,5.15,5.15,0,0,0-.1-.548,5.172,5.172,0,0,1,1.064,2.585,4.9,4.9,0,0,1-4.3,5.526Zm0,0" transform="translate(957.787 -685.429)" fill="#fc4830"/>
      <path id="Trazado_103948" data-name="Trazado 103948" d="M-901.646,597.794a.919.919,0,0,0-1-.832.92.92,0,0,0-.832,1,8.472,8.472,0,0,1-1.545,5.756.273.273,0,0,1-.192.116.274.274,0,0,1-.215-.064l-5-4.287a25.592,25.592,0,0,0,2.026-3.635.919.919,0,0,0-.456-1.218.92.92,0,0,0-1.218.456,23.722,23.722,0,0,1-1.745,3.166,3.855,3.855,0,0,1-1.014-2.365,4.088,4.088,0,0,1,1.039-3.006,4.168,4.168,0,0,1,5.8-.486,6.938,6.938,0,0,1,1.495,2.055.919.919,0,0,0,1.236.405.919.919,0,0,0,.405-1.236A8.669,8.669,0,0,0-904.792,591a5.753,5.753,0,0,0-1.752-1.03,25.845,25.845,0,0,0,.437-4.733v-7.281a.92.92,0,0,0-.919-.919.919.919,0,0,0-.919.919v7.281a24.011,24.011,0,0,1-.4,4.374,6.1,6.1,0,0,0-4.822,2.052,5.915,5.915,0,0,0-1.5,4.351,5.68,5.68,0,0,0,1.766,3.759q-.559.723-1.175,1.406a6.094,6.094,0,0,0-5.967-.815,5.915,5.915,0,0,0-3.291,3.215,5.678,5.678,0,0,0-.165,3.988q-.749.276-1.517.5A8.446,8.446,0,0,0-932.234,604a8.439,8.439,0,0,0-7.054,3.813q-.7-.235-1.393-.513a5.739,5.739,0,0,0,.247-1.977,5.915,5.915,0,0,0-1.994-4.146,6.055,6.055,0,0,0-7.435-.516c-.289-.339-.571-.685-.841-1.04a5.853,5.853,0,0,0,.486-.534,5.914,5.914,0,0,0,1.247-4.429,6.023,6.023,0,0,0-6.222-5.337,23.965,23.965,0,0,1-.349-4.084v-7.281a.92.92,0,0,0-.919-.919.92.92,0,0,0-.92.919v7.281a25.784,25.784,0,0,0,.387,4.462,11.366,11.366,0,0,0-4.012,2.454,10.4,10.4,0,0,0-3.366,7.78,2.119,2.119,0,0,0,.7,1.567,2.121,2.121,0,0,0,1.416.543,2.083,2.083,0,0,0,.217-.011l7.942-.824a5.711,5.711,0,0,0,1.884-.531q.489.648,1.017,1.263a9.811,9.811,0,0,0-1.355,2.677.92.92,0,0,0,.579,1.165.919.919,0,0,0,1.165-.578,8.479,8.479,0,0,1,.889-1.883,25.727,25.727,0,0,0,2.559,2.252.914.914,0,0,0,.56.19.919.919,0,0,0,.73-.359.92.92,0,0,0-.169-1.29,23.851,23.851,0,0,1-2.363-2.083,4.216,4.216,0,0,1,4.945.515,4.087,4.087,0,0,1,1.383,2.864,3.855,3.855,0,0,1-1.02,2.82L-948.7,614.1a.272.272,0,0,1-.206.089.274.274,0,0,1-.2-.093,8.48,8.48,0,0,1-2.195-5.253.918.918,0,0,0-.97-.865.919.919,0,0,0-.866.97,10.276,10.276,0,0,0,2.655,6.369,2.119,2.119,0,0,0,1.562.711h.02a2.122,2.122,0,0,0,1.556-.682l5.411-5.871a5.73,5.73,0,0,0,.432-.531q.681.281,1.373.522a8.393,8.393,0,0,0-.542,2.972c0,1.705,1.131,6.216,6.517,18.021a2.093,2.093,0,0,0,1.925,1.237,2.093,2.093,0,0,0,1.925-1.237c.733-1.606,1.832-4.064,2.908-6.649a.92.92,0,0,0-.5-1.2.92.92,0,0,0-1.2.5c-1.066,2.563-2.156,5-2.883,6.593a.262.262,0,0,1-.252.162.261.261,0,0,1-.251-.162c-3.977-8.716-6.351-15.168-6.351-17.258a6.562,6.562,0,0,1,.466-2.432,25.618,25.618,0,0,0,6.626.864.92.92,0,0,0,.919-.919.919.919,0,0,0-.919-.919,23.8,23.8,0,0,1-5.67-.68,6.593,6.593,0,0,1,5.18-2.516,6.61,6.61,0,0,1,6.6,6.6c0,.761-.324,2.531-1.868,6.643a.919.919,0,0,0,.537,1.184.92.92,0,0,0,1.184-.537c1.336-3.558,1.985-5.943,1.985-7.29a8.393,8.393,0,0,0-.441-2.688q.721-.221,1.427-.483l2.547,6.094a2.12,2.12,0,0,0,1.248,1.179,2.118,2.118,0,0,0,.7.12,2.117,2.117,0,0,0,1.008-.255,10.4,10.4,0,0,0,5.219-6.68,10.371,10.371,0,0,0-.178-6.2,5.762,5.762,0,0,0-.55-1.014q.682-.747,1.3-1.542l4.88,4.188a2.119,2.119,0,0,0,1.379.51,2.055,2.055,0,0,0,.266-.017,2.118,2.118,0,0,0,1.469-.889,10.4,10.4,0,0,0,1.868-6.975Zm-52.638,1.585-7.943.824a.272.272,0,0,1-.214-.07.274.274,0,0,1-.092-.2,8.6,8.6,0,0,1,2.785-6.434,9.823,9.823,0,0,1,3.142-1.98,25.49,25.49,0,0,0,.8,2.586.92.92,0,0,0,.863.6.914.914,0,0,0,.318-.057.919.919,0,0,0,.545-1.18,23.816,23.816,0,0,1-.719-2.313,4.188,4.188,0,0,1,4,3.722,4.088,4.088,0,0,1-.857,3.063,3.928,3.928,0,0,1-.826.773l-.007,0-.01.008a3.846,3.846,0,0,1-1.788.656Zm40.424,9.89a8.6,8.6,0,0,1-4.315,5.525.273.273,0,0,1-.223.017.274.274,0,0,1-.164-.154l-2.544-6.087a25.591,25.591,0,0,0,3.753-2.113.919.919,0,0,0,.244-1.277.919.919,0,0,0-1.277-.244,23.723,23.723,0,0,1-3.4,1.925,3.852,3.852,0,0,1,.155-2.57,4.088,4.088,0,0,1,2.279-2.219,4.27,4.27,0,0,1,1.59-.307,4.108,4.108,0,0,1,3.813,2.478,8.73,8.73,0,0,1,.095,5.026Zm0,0" transform="translate(964.371 -577.036)"/>
    </g>
  </g>
  <path id="Trazado_103949" data-name="Trazado 103949" d="M-732.5,886.948a.919.919,0,0,0-.611,1.148l.918,3.009a.92.92,0,0,0,.879.651.92.92,0,0,0,.269-.04.92.92,0,0,0,.611-1.148l-.918-3.009a.92.92,0,0,0-1.148-.611Zm0,0" transform="translate(761.499 -848.918)"/>
  <path id="Trazado_103950" data-name="Trazado 103950" d="M-493.639,763.235a.92.92,0,0,0-.919.92.919.919,0,0,0,.919.919h.013a.919.919,0,0,0,.919-.919.92.92,0,0,0-.919-.92Zm0,0" transform="translate(552.157 -740.407)"/>
  <path id="Trazado_103951" data-name="Trazado 103951" d="M-587.732,854.348h-.013a.919.919,0,0,0-.919.919.919.919,0,0,0,.919.919h.013a.919.919,0,0,0,.919-.919.92.92,0,0,0-.919-.919Zm0,0" transform="translate(634.725 -820.35)"/>
  <path id="Trazado_103952" data-name="Trazado 103952" d="M-840.253,845.984h.013a.92.92,0,0,0,.919-.919.92.92,0,0,0-.919-.919h-.013a.919.919,0,0,0-.919.919.92.92,0,0,0,.919.919Zm0,0" transform="translate(856.276 -811.398)"/>
  <path id="Trazado_103953" data-name="Trazado 103953" d="M-932.939,737.575h-.013a.92.92,0,0,0-.919.919.92.92,0,0,0,.919.919h.013a.92.92,0,0,0,.919-.919.92.92,0,0,0-.919-.919Zm0,0" transform="translate(937.61 -717.893)"/>
</svg>
