<svg xmlns="http://www.w3.org/2000/svg" width="44.883" height="58.317" viewBox="0 0 44.883 58.317">
  <g id="Grupo_54976" data-name="Grupo 54976" transform="translate(-292.027 -58.216)">
    <g id="Grupo_54975" data-name="Grupo 54975" transform="translate(292.884 59.066)">
      <g id="Grupo_54968" data-name="Grupo 54968" transform="translate(12.319 20.193)">
        <g id="Grupo_54967" data-name="Grupo 54967">
          <g id="Grupo_54966" data-name="Grupo 54966">
            <path id="Trazado_104021" data-name="Trazado 104021" d="M425.635,315.179H412.451l-4.6,4.844c-.079,2.084-.138,3.679-.138,3.679l3.048,2.959a10.955,10.955,0,0,0,4.124,1.561h3.927a10.887,10.887,0,0,0,4.376-1.728l4.5-3.609v-4.276Z" transform="translate(-407.717 -306.953)" fill="#fccd7f"/>
            <path id="Trazado_104022" data-name="Trazado 104022" d="M428.765,242.962v11.656l-4.659,3.116a10.874,10.874,0,0,1-3.934,1.567h-4.484a10.947,10.947,0,0,1-3.681-1.406l-3.074-1.863c.148-3.868.364-9.42.394-9.6l.26-2.667Z" transform="translate(-408.795 -242.962)" fill="#fdd79b"/>
          </g>
        </g>
      </g>
      <path id="Trazado_104023" data-name="Trazado 104023" d="M373.442,79.993,369.9,79.1a25.64,25.64,0,0,0-3.025,1.317l-2.051,1.055a.755.755,0,0,0-.384.483L365.5,87.2l4.068,6.1,3.245,1.009V93.308h1.215l1.855-3.211Z" transform="translate(-357.052 -77.57)" fill="#fdd79b"/>
      <path id="Trazado_104024" data-name="Trazado 104024" d="M527.09,81.458,525.039,80.4a25.632,25.632,0,0,0-3.025-1.317l-1.454.256-3.077,6.309-1.088,6.184,1.347,1.46H518.8l.016.649h.636l4.813-2.493,3.21-5.488V81.941a.755.755,0,0,0-.384-.483Z" transform="translate(-491.697 -77.558)" fill="#fdd79b"/>
      <g id="Grupo_54973" data-name="Grupo 54973" transform="translate(0 0)">
        <path id="Trazado_104025" data-name="Trazado 104025" d="M367.381,86.309l3.174-7.044L369.9,79.1a25.64,25.64,0,0,0-3.025,1.317l-2.051,1.055a.755.755,0,0,0-.384.483L365.5,87.2l1.411,2.117Z" transform="translate(-357.052 -77.57)" fill="#fccd7f"/>
        <path id="Trazado_104026" data-name="Trazado 104026" d="M423.876,66.969l-1.1,1.154h-3.544l-.859-1.154a25.7,25.7,0,0,0-5.982,1.38l2.737,9.025,1.39,5.183h9.066l1.534-5.183,2.737-9.025A25.705,25.705,0,0,0,423.876,66.969Z" transform="translate(-399.543 -66.821)" fill="#62dbfb"/>
        <g id="Grupo_54969" data-name="Grupo 54969" transform="translate(18.833)">
          <path id="Trazado_104027" data-name="Trazado 104027" d="M470.406,65.818l-.009.116-.323,3.816-.335,1.9h-4.293l-.207-1.9-.323-3.816-.01-.115A25.759,25.759,0,0,1,470.406,65.818Z" transform="translate(-464.907 -65.671)" fill="#fee45a"/>
        </g>
        <g id="Grupo_54972" data-name="Grupo 54972" transform="translate(0 4.383)">
          <g id="Grupo_54971" data-name="Grupo 54971">
            <g id="Grupo_54970" data-name="Grupo 54970" transform="translate(0 4.266)">
              <path id="Trazado_104028" data-name="Trazado 104028" d="M349.489,430.993h-8.669l-1.35,2.277v1.908a10.9,10.9,0,0,0,.605,3.592l2.928,1.8,5.551.15,1.409-1.953.19-5.5Z" transform="translate(-334.923 -398.033)" fill="#fdd79b"/>
              <path id="Trazado_104029" data-name="Trazado 104029" d="M314.3,335.11H301.77l-2.01,2.2-.165.653a1.238,1.238,0,0,0,.522,1.339l3.986,2.617v.891l1.462,2.294h7.982l1.429-2.294.19-5.5Z" transform="translate(-299.557 -313.071)" fill="#fdd79b"/>
              <path id="Trazado_104030" data-name="Trazado 104030" d="M326.832,239.617l-9.752-.309-2.182,2.11-1.387,5.5,1.624,2.174,11.419-.347,1.131-1.827v-5.5Z" transform="translate(-311.922 -228.18)" fill="#fdd79b"/>
              <path id="Trazado_104031" data-name="Trazado 104031" d="M346.008,148.72l-.722-1.07h0l-1.838-1.748H340.7l-1.443,1.748-1.387,5.5,1.387,1.44h8.991l.776-1.44Z" transform="translate(-333.507 -145.413)" fill="#fdd79b"/>
              <path id="Trazado_104032" data-name="Trazado 104032" d="M541.825,143.849l-1.64-2.237-6.1,1.135-3.346,4.116,1.423,2.486,3.423,2.75,6.656-.356.97-2.394Z" transform="translate(-504.408 -141.612)" fill="#fdd79b"/>
              <path id="Trazado_104033" data-name="Trazado 104033" d="M551.734,240.093l-2.239-2.28h-8.139l-2.565,2.28.132,5.5,2.609,2.959h9.683l1.906-2.959Z" transform="translate(-511.542 -226.856)" fill="#fdd79b"/>
              <path id="Trazado_104034" data-name="Trazado 104034" d="M557.084,335.289l-.165-.653-2.684-2.541H542.555l-1.042,2.541.19,5.5,1.561,1.991h7.4l1.915-1.991v-.648a.451.451,0,0,1,.2-.377l3.783-2.483A1.238,1.238,0,0,0,557.084,335.289Z" transform="translate(-513.954 -310.398)" fill="#fdd79b"/>
            </g>
            <path id="Trazado_104035" data-name="Trazado 104035" d="M554.144,306.118l1.387,5.5H540.124l-.154-4.468-.024-1.032Z" transform="translate(-512.566 -283.115)" fill="#62dbfb"/>
            <path id="Trazado_104036" data-name="Trazado 104036" d="M550.888,215.04H537.946l-.109-4.566.614-.934H549.5Z" transform="translate(-510.697 -197.537)" fill="#62dbfb"/>
            <path id="Trazado_104037" data-name="Trazado 104037" d="M554.821,436.786h-8.48l-1.493,1.617.19,5.5,1.248,1.685,6.176.118,2.464-1.8a10.9,10.9,0,0,0,.605-3.592V438.4Z" transform="translate(-516.91 -398.9)" fill="#fdd79b"/>
            <path id="Trazado_104038" data-name="Trazado 104038" d="M554.054,402.7v5.5H543.371l-.19-5.5Z" transform="translate(-515.432 -368.691)" fill="#62dbfb"/>
            <path id="Trazado_104039" data-name="Trazado 104039" d="M546.516,499.272H556.4a10.947,10.947,0,0,1-8.411,7.182l-.142.025a.95.95,0,0,1-1.118-.9Z" transform="translate(-518.388 -454.268)" fill="#62dbfb"/>
            <path id="Trazado_104040" data-name="Trazado 104040" d="M579.525,104.155l1.64,6.5h-6.029Z" transform="translate(-543.748 -104.155)" fill="#62dbfb"/>
            <path id="Trazado_104041" data-name="Trazado 104041" d="M308.236,342.428a1.651,1.651,0,0,0-.745-1.38l-3.241-2.128a1.238,1.238,0,0,1-.522-1.339l.165-.653.459-1.819H301.77l-2.01,2.2-.165.653a1.238,1.238,0,0,0,.522,1.339l3.986,2.617v.891l1.462,2.294h2.671Z" transform="translate(-299.557 -308.803)" fill="#fccd7f"/>
            <path id="Trazado_104042" data-name="Trazado 104042" d="M319.448,239.383l-2.369-.075-2.182,2.11-1.387,5.5,1.624,2.174,1.879-.057Z" transform="translate(-311.922 -223.914)" fill="#fccd7f"/>
            <path id="Trazado_104043" data-name="Trazado 104043" d="M316.9,306.118v1.032l-.154,4.468H301.336l1.387-5.5Z" transform="translate(-301.133 -283.115)" fill="#62dbfb"/>
            <path id="Trazado_104044" data-name="Trazado 104044" d="M341.545,154.59l2.135-8.467-.232-.221H340.7l-1.443,1.748-1.387,5.5,1.387,1.44Z" transform="translate(-333.507 -141.147)" fill="#fccd7f"/>
            <path id="Trazado_104045" data-name="Trazado 104045" d="M338.473,209.9v5.14H325.686l1.388-5.5h11.153Z" transform="translate(-322.71 -197.537)" fill="#62dbfb"/>
            <path id="Trazado_104046" data-name="Trazado 104046" d="M344.206,438.39a10.9,10.9,0,0,1-.605-3.592v-3.806h-2.782l-1.35,2.277v1.908a10.9,10.9,0,0,0,.605,3.592l2.928,1.8,2.285.062a10.924,10.924,0,0,1-1.08-2.244Z" transform="translate(-334.922 -393.765)" fill="#fccd7f"/>
            <path id="Trazado_104047" data-name="Trazado 104047" d="M350.341,402.7l-.19,5.5H339.468v-5.5Z" transform="translate(-334.922 -368.691)" fill="#62dbfb"/>
            <path id="Trazado_104048" data-name="Trazado 104048" d="M354.671,499.272l-.217,6.3a.951.951,0,0,1-1.118.9l-.142-.025a10.947,10.947,0,0,1-8.411-7.182Z" transform="translate(-339.632 -454.268)" fill="#62dbfb"/>
            <path id="Trazado_104049" data-name="Trazado 104049" d="M351.686,104.163l4.389,6.5h-6.029Z" transform="translate(-344.295 -104.162)" fill="#62dbfb"/>
          </g>
        </g>
      </g>
      <path id="Trazado_104050" data-name="Trazado 104050" d="M414.749,166.713l-1.045-.878.021-.2-.2-2.942-5.9-1.44-9.755,1.121-1.6.519-.363,2.742.021.2-1.045.878a2.335,2.335,0,0,0-.833,1.788v1.354a2.336,2.336,0,0,0,1.878,2.291l.811,2.935a7.69,7.69,0,0,0,5.25,5.329l.248.073H407.4l.248-.073a7.69,7.69,0,0,0,5.249-5.329l.811-2.935a2.338,2.338,0,0,0,1.878-2.291V168.5A2.334,2.334,0,0,0,414.749,166.713Z" transform="translate(-383.293 -150.365)" fill="#fccd7f"/>
      <path id="Trazado_104051" data-name="Trazado 104051" d="M425.652,153.345a.78.78,0,0,1,.475.8l-.3,2.918-.143-.061-.339-.143a21.685,21.685,0,0,0-16.849,0l-.482.2-.3-2.918c0-.027,0-.054,0-.08a.781.781,0,0,1,.479-.72,22.443,22.443,0,0,1,17.455,0Z" transform="translate(-395.398 -141.793)" fill="#fee97d"/>
      <path id="Trazado_104052" data-name="Trazado 104052" d="M469.651,340.089l.915-16.193a1.645,1.645,0,0,0-1.642-1.738h-1.83a1.645,1.645,0,0,0-1.642,1.738l.915,16.193a1.645,1.645,0,0,0,3.284,0Z" transform="translate(-446.554 -292.945)" fill="#fee97d"/>
      <path id="Trazado_104053" data-name="Trazado 104053" d="M469.178,107.009v-1.74a.953.953,0,0,1,.216-.6l.644-.786a.953.953,0,0,0,.216-.6v-.835a.953.953,0,0,0-.953-.953h-3.6a.953.953,0,0,0-.953.953v.835a.953.953,0,0,0,.216.6l.644.786a.953.953,0,0,1,.216.6v1.74a.953.953,0,0,0,.953.953h1.452A.953.953,0,0,0,469.178,107.009Z" transform="translate(-445.929 -97.407)" fill="#ee6161"/>
      <g id="Grupo_54974" data-name="Grupo 54974" transform="translate(0.203 4.384)">
        <path id="Trazado_104054" data-name="Trazado 104054" d="M349.056,499.272h-4.273a10.947,10.947,0,0,0,8.411,7.182l.142.025a.951.951,0,0,0,1.118-.9l.015-.431a10.963,10.963,0,0,1-5.413-5.873Z" transform="translate(-339.834 -454.269)" fill="#01d0fb"/>
        <path id="Trazado_104055" data-name="Trazado 104055" d="M339.468,402.7H343.6v5.5h-4.133Z" transform="translate(-335.125 -368.692)" fill="#01d0fb"/>
        <path id="Trazado_104056" data-name="Trazado 104056" d="M306.76,306.118h-4.037l-1.387,5.5h4.037Z" transform="translate(-301.336 -283.115)" fill="#01d0fb"/>
        <path id="Trazado_104057" data-name="Trazado 104057" d="M331.111,209.54h-4.037l-1.388,5.5h4.038Z" transform="translate(-322.913 -197.538)" fill="#01d0fb"/>
        <path id="Trazado_104058" data-name="Trazado 104058" d="M354.625,108.517l-2.939-4.354-1.64,6.5h4.037Z" transform="translate(-344.498 -104.163)" fill="#01d0fb"/>
      </g>
    </g>
    <path id="Trazado_104059" data-name="Trazado 104059" d="M336.846,92.4,329.493,63.24a1.607,1.607,0,0,0-.824-1.037l-2.051-1.054a26.634,26.634,0,0,0-24.3,0L300.267,62.2a1.607,1.607,0,0,0-.824,1.037L292.09,92.4a2.1,2.1,0,0,0,.883,2.266l3.6,2.362v7.836a11.792,11.792,0,0,0,9.722,11.618l.142.025a1.809,1.809,0,0,0,2.127-1.719l.5-14.4a12.1,12.1,0,0,0,2.5.85l.284,5.018a2.5,2.5,0,0,0,5,0l.031-.549a.858.858,0,1,0-1.714-.1l-.031.549a.787.787,0,0,1-1.571,0l-.32-5.667v0l-.595-10.524a.787.787,0,0,1,.785-.831h1.83a.787.787,0,0,1,.785.831l-.595,10.523v0l-.083,1.461a.858.858,0,1,0,1.714.1l.046-.812a12.009,12.009,0,0,0,2.75-.974l.5,14.519A1.809,1.809,0,0,0,322.5,116.5l.142-.025a11.792,11.792,0,0,0,9.722-11.618V97.024l3.6-2.362a2.1,2.1,0,0,0,.883-2.266Zm-19.093-2.33c0-.073,0-.146,0-.218a8.6,8.6,0,0,0,1.729-.789l.155,4.505a9.988,9.988,0,0,1-2.136.923ZM328.3,65.521l.9,3.572h-3.312Zm-3.445,9.073a.864.864,0,0,0-.138.012l-.518-.435.271-2.667a1.653,1.653,0,0,0,0-.308l.26-.385h4.9l.954,3.784h-5.733Zm1.052,1.716h5.114l.954,3.784h-6.341a3.174,3.174,0,0,0,.4-1.539V77.2A3.2,3.2,0,0,0,325.906,76.31Zm-2.594,7.7.608-2.2h8.486l.954,3.784H322.7a8.656,8.656,0,0,0,.611-1.585Zm-1.6,19.8h8.937v1.05a10.1,10.1,0,0,1-.377,2.734h-8.43Zm8.937-1.716h-9l-.13-3.784h9.127Zm-9.491-14.348q.208-.211.4-.436h12.236l.954,3.784H321.272Zm6.4-24.187-3.99,5.913h0l-.206.3q-.907-.377-1.839-.675l2.234-7.378q1.058.425,2.083.95Zm-18.487,5.055L306.8,61.142a24.864,24.864,0,0,1,4.137-.957l.241,2.862a1.8,1.8,0,0,0-.34,1.052v.835a1.816,1.816,0,0,0,.41,1.148l.644.786a.1.1,0,0,1,.021.06v1.2A23.291,23.291,0,0,0,309.065,68.615Zm4.568.053v-1.74a1.816,1.816,0,0,0-.41-1.148l-.644-.786a.1.1,0,0,1-.021-.06V64.1a.1.1,0,0,1,.1-.1h3.6a.1.1,0,0,1,.1.1v.834a.1.1,0,0,1-.022.06l-.644.786a1.817,1.817,0,0,0-.41,1.148v1.74a.1.1,0,0,1-.1.1h-1.452a.1.1,0,0,1-.1-.1Zm3.358-1.74a.1.1,0,0,1,.022-.06l.644-.786a1.815,1.815,0,0,0,.41-1.148V64.1a1.8,1.8,0,0,0-.314-1.017l.244-2.9a24.86,24.86,0,0,1,4.137.957l-2.27,7.5a23.256,23.256,0,0,0-2.873-.5ZM316.29,60l-.193,2.285h-3.258L312.646,60A25.006,25.006,0,0,1,316.29,60ZM303.1,62.676q1.023-.526,2.083-.95l2.223,7.345q-.939.3-1.853.671l-.181-.268h0l-3.99-5.913ZM310.925,89.8a2.49,2.49,0,0,0,0,.267l.25,4.422a9.867,9.867,0,0,1-1.883-.782l.158-4.583a8.613,8.613,0,0,0,1.475.676Zm-12.636,15.063v-1.05h8.937l-.13,3.784h-8.43a10.105,10.105,0,0,1-.376-2.734Zm0-2.766V98.311h9.127l-.13,3.784ZM296.53,81.81H304.9l.608,2.2a8.662,8.662,0,0,0,.611,1.585H295.576Zm.433-1.716.954-3.784h5a3.194,3.194,0,0,0-.127.891v1.353a3.174,3.174,0,0,0,.4,1.539h-6.226ZM299.3,70.81h4.9l.164.243a1.653,1.653,0,0,0-.017.451l.271,2.667-.506.425-.036,0H298.35Zm1.334-5.289,2.411,3.572h-3.312Zm-6.723,27.706a.381.381,0,0,1-.16-.412v0h4.929a.858.858,0,0,0,0-1.716h-4.5l.954-3.784h12.121q.244.284.512.545l-.112,3.239h-5.323a.858.858,0,1,0,0,1.716h5.264l-.131,3.784h-9.186v-.033a.858.858,0,0,0-.387-.717Zm12.9,21.569a.09.09,0,0,1-.075.019l-.142-.025a10.074,10.074,0,0,1-7.275-5.479h7.713l-.187,5.416A.089.089,0,0,1,306.814,114.8Zm2.312-16.3.1-2.905a11.888,11.888,0,0,0,2.051.707l.178,3.153a10.08,10.08,0,0,1-2.329-.955Zm6.128-11.071h-1.83a2.513,2.513,0,0,0-1.819.784l-.008.009a6.827,6.827,0,0,1-2.317-1.31.866.866,0,0,0-.135-.12,6.811,6.811,0,0,1-1.981-3.234l-.812-2.935a.858.858,0,0,0-.659-.613,1.482,1.482,0,0,1-1.188-1.449V77.2a1.474,1.474,0,0,1,.527-1.132l1.044-.877a.856.856,0,0,0,.206-.256l.038-.016a20.9,20.9,0,0,1,9.881-1.557.858.858,0,1,0,.147-1.71A22.626,22.626,0,0,0,306.242,73.1l-.174-1.717a21.549,21.549,0,0,1,6.258-1.574,1.808,1.808,0,0,0,1.4.667h1.452a1.809,1.809,0,0,0,1.4-.66,21.552,21.552,0,0,1,6.178,1.566L322.58,73.1a22.678,22.678,0,0,0-2.429-.789.858.858,0,1,0-.437,1.66,20.907,20.907,0,0,1,2.788.948l.038.016a.855.855,0,0,0,.206.256l1.044.877a1.474,1.474,0,0,1,.527,1.132v1.353A1.482,1.482,0,0,1,323.129,80a.858.858,0,0,0-.659.613l-.812,2.935a6.788,6.788,0,0,1-4.545,4.7l-.04-.045a2.513,2.513,0,0,0-1.819-.784Zm1.969,12.027L317.4,96.3a12.062,12.062,0,0,0,2.3-.827l.1,2.874a9.972,9.972,0,0,1-2.582,1.1Zm5.116,15.342-.142.025a.091.091,0,0,1-.075-.019.089.089,0,0,1-.035-.069l-.187-5.416h7.713A10.074,10.074,0,0,1,322.339,114.79Zm12.682-21.562-3.986,2.616a.858.858,0,0,0-.387.717v.033h-9.186l-.13-3.784h13.849v0a.381.381,0,0,1-.16.412Z" transform="translate(0)"/>
  </g>
</svg>
