<svg xmlns="http://www.w3.org/2000/svg" width="47.683" height="55.019" viewBox="0 0 47.683 55.019">
  <g id="Grupo_54924" data-name="Grupo 54924" transform="translate(0)">
    <path id="Trazado_103854" data-name="Trazado 103854" d="M269.841,174.181v-39.43A2.751,2.751,0,0,0,267.09,132h-18.34A2.751,2.751,0,0,0,246,134.751v39.43Zm0,0" transform="translate(-245.083 -131.083)" fill="#86bc40"/>
    <path id="Trazado_103855" data-name="Trazado 103855" d="M269.841,362.253a2.751,2.751,0,0,0-2.751-2.751h-18.34A2.751,2.751,0,0,0,246,362.253v-5.5A2.751,2.751,0,0,1,248.751,354h18.34a2.751,2.751,0,0,1,2.751,2.751Zm0,0" transform="translate(-245.083 -319.155)" fill="#7ba23f"/>
    <path id="Trazado_103856" data-name="Trazado 103856" d="M248.751,390h18.34a2.751,2.751,0,1,1,0,5.5h-18.34a2.751,2.751,0,0,1,0-5.5Zm0,0" transform="translate(-245.083 -349.653)" fill="#6e903d"/>
    <path id="Trazado_103857" data-name="Trazado 103857" d="M432,216h9.17l8.253,8.253v32.094H432Zm0,0" transform="translate(-402.657 -202.245)" fill="#0093b9"/>
    <rect id="Rectángulo_5139" data-name="Rectángulo 5139" width="20.619" height="6.014" transform="translate(25.543 48.202)" fill="#fdc01e"/>
    <rect id="Rectángulo_5140" data-name="Rectángulo 5140" width="7.732" height="34.366" transform="translate(26.402 13.836)" fill="#0085aa"/>
    <rect id="Rectángulo_5141" data-name="Rectángulo 5141" width="7.732" height="6.014" transform="translate(26.402 48.202)" fill="#f9ab23"/>
    <path id="Trazado_103858" data-name="Trazado 103858" d="M492,216v8.253h8.253Zm0,0" transform="translate(-453.487 -202.245)" fill="#0085aa"/>
    <path id="Trazado_103859" data-name="Trazado 103859" d="M317.841,223.1V182.751A2.751,2.751,0,0,0,315.09,180h-18.34A2.751,2.751,0,0,0,294,182.751V223.1Zm0,0" transform="translate(-285.747 -171.747)" fill="#0093b9"/>
    <path id="Trazado_103860" data-name="Trazado 103860" d="M317.841,416.253a2.751,2.751,0,0,0-2.751-2.751h-18.34A2.751,2.751,0,0,0,294,416.253v-5.5A2.751,2.751,0,0,1,296.751,408h18.34a2.751,2.751,0,0,1,2.751,2.751Zm0,0" transform="translate(-285.747 -364.902)" fill="#fdc01e"/>
    <path id="Trazado_103861" data-name="Trazado 103861" d="M296.751,444h18.34a2.751,2.751,0,0,1,0,5.5h-18.34a2.751,2.751,0,0,1,0-5.5Zm0,0" transform="translate(-285.747 -395.4)" fill="#f79726"/>
    <path id="Trazado_103862" data-name="Trazado 103862" d="M328.078,188.023l-8.253-8.253a.917.917,0,0,0-.648-.269h-5.5v-1.834A3.672,3.672,0,0,0,310.007,174h-18.34A3.672,3.672,0,0,0,288,177.668v40.347a3.672,3.672,0,0,0,3.668,3.668H327.43a.917.917,0,0,0,.917-.917V188.672a.917.917,0,0,0-.269-.648Zm-7.984-5.391,5.122,5.122h-5.122Zm-28.426-6.8h18.34a1.836,1.836,0,0,1,1.834,1.834v31.671a3.639,3.639,0,0,0-1.834-.494h-18.34a3.639,3.639,0,0,0-1.834.494V177.668a1.836,1.836,0,0,1,1.834-1.834Zm0,34.845h18.34a1.836,1.836,0,0,1,1.834,1.834v2.328a3.639,3.639,0,0,0-1.834-.494h-18.34a3.639,3.639,0,0,0-1.834.494v-2.328a1.836,1.836,0,0,1,1.834-1.834Zm0,9.17a1.834,1.834,0,0,1,0-3.668h18.34a1.834,1.834,0,1,1,0,3.668Zm21.514,0a3.643,3.643,0,0,0,.493-1.834V181.336h4.585v7.336a.917.917,0,0,0,.917.917h7.336v24.759h-11v1.834h11v3.668Zm0,0" transform="translate(-280.664 -166.664)"/>
    <path id="Trazado_103863" data-name="Trazado 103863" d="M241.834,160.422V129.668a1.836,1.836,0,0,1,1.834-1.834h18.34a1.836,1.836,0,0,1,1.834,1.834V131.5h1.834v-1.834A3.672,3.672,0,0,0,262.007,126h-18.34A3.672,3.672,0,0,0,240,129.668V169.1a3.672,3.672,0,0,0,3.668,3.668H245.5v-1.834h-1.834a1.834,1.834,0,0,1,0-3.668H245.5V165.43h-1.834a3.639,3.639,0,0,0-1.834.494V163.6a1.836,1.836,0,0,1,1.834-1.834H245.5v-1.834h-1.834a3.639,3.639,0,0,0-1.834.494Zm0,0" transform="translate(-240 -126)"/>
  </g>
</svg>
