<svg xmlns="http://www.w3.org/2000/svg" xmlns:xlink="http://www.w3.org/1999/xlink" width="55" height="56" viewBox="0 0 55 56">
  <defs>
    <clipPath id="clip-path">
      <rect id="SVGID" width="55" height="56" transform="translate(0 -0.237)" fill="none"/>
    </clipPath>
  </defs>
  <g id="Grupo_54927" data-name="Grupo 54927" transform="translate(0 0.237)">
    <path id="Trazado_103864" data-name="Trazado 103864" d="M571.859,22.9a4.614,4.614,0,0,1-2.016,3.815,49.933,49.933,0,0,1-33.069,8.421l-.017,0a4.615,4.615,0,0,1-4.144-4.248v-.016a49.943,49.943,0,0,1,9.241-32.85,4.614,4.614,0,0,1,5.769-1.456l.185.089A49.928,49.928,0,0,1,571.357,20.8l.085.186a4.61,4.61,0,0,1,.417,1.916Zm0,0" transform="translate(-517.812 19.899)" fill="#fdc01e"/>
    <path id="Trazado_103865" data-name="Trazado 103865" d="M618.032,109.5a6.151,6.151,0,1,1,1.857-4.328,6.152,6.152,0,0,1-1.857,4.328Zm0,0" transform="translate(-581.443 -67.229)" fill="#f79726"/>
    <path id="Trazado_103866" data-name="Trazado 103866" d="M560.494,2.308a51.824,51.824,0,0,1-13.789,18.125l-.014.011a6.45,6.45,0,0,1-8.292,0l-.011-.009q-.806-.677-1.583-1.386a49.91,49.91,0,0,1,8.717-21.03,4.614,4.614,0,0,1,5.769-1.456l.185.089a49.98,49.98,0,0,1,9.018,5.656Zm0,0" transform="translate(-521.482 19.899)" fill="#f9ab23"/>
    <g id="Grupo_54926" data-name="Grupo 54926" transform="translate(0 0)">
      <g id="Grupo_54925" data-name="Grupo 54925" transform="translate(0 0)" clip-path="url(#clip-path)">
        <path id="Trazado_103867" data-name="Trazado 103867" d="M614.753,99.025a51.6,51.6,0,0,1-6.977,7.579,6.152,6.152,0,0,1,6.977-7.579Zm0,0" transform="translate(-581.446 -67.228)" fill="#e8732d"/>
        <path id="Trazado_103868" data-name="Trazado 103868" d="M442.837-92.4A49.923,49.923,0,0,0,459.9-62.845l.013.011a4.614,4.614,0,0,0,5.934,0l.013-.011A49.924,49.924,0,0,0,482.921-92.4a4.616,4.616,0,0,0-2.986-5.147l-.193-.069a49.931,49.931,0,0,0-33.728,0l-.193.069a4.614,4.614,0,0,0-2.986,5.147Zm0,0" transform="translate(-441.814 101.772)" fill="#e5483e"/>
        <path id="Trazado_103869" data-name="Trazado 103869" d="M546.418-28.844a6.153,6.153,0,0,1-6.153,6.152,6.152,6.152,0,0,1-6.153-6.152A6.152,6.152,0,0,1,540.266-35a6.153,6.153,0,0,1,6.153,6.153Zm0,0" transform="translate(-519.201 46.24)" fill="#d33430"/>
        <path id="Trazado_103870" data-name="Trazado 103870" d="M457.786-65.874a5.522,5.522,0,0,1-3.557-1.3l-.011-.01a50.929,50.929,0,0,1-17.377-30.1l.9-.159-.9.159a5.519,5.519,0,0,1,3.579-6.169l.193-.069a50.965,50.965,0,0,1,34.347,0l.193.069a5.518,5.518,0,0,1,3.578,6.169,50.928,50.928,0,0,1-17.375,30.1l-.014.011a5.519,5.519,0,0,1-3.556,1.3Zm0-38.789a49.013,49.013,0,0,0-16.554,2.873l-.193.069a3.688,3.688,0,0,0-2.392,4.123A49.088,49.088,0,0,0,455.4-68.586l.012.009a3.692,3.692,0,0,0,4.756,0l.014-.012A49.087,49.087,0,0,0,476.925-97.6a3.688,3.688,0,0,0-2.392-4.123l-.193-.069a49.013,49.013,0,0,0-16.554-2.874Zm0,0" transform="translate(-436.721 106.812)"/>
        <path id="Trazado_103871" data-name="Trazado 103871" d="M535.182-26.858a7.07,7.07,0,0,1-6.532-4.364,7.071,7.071,0,0,1,1.532-7.7,7.07,7.07,0,0,1,7.7-1.533,7.071,7.071,0,0,1,4.364,6.531,7.078,7.078,0,0,1-7.07,7.069Zm0-12.305a5.235,5.235,0,0,0-4.837,3.232,5.234,5.234,0,0,0,1.135,5.705,5.234,5.234,0,0,0,5.705,1.135,5.235,5.235,0,0,0,3.232-4.837,5.241,5.241,0,0,0-5.236-5.236Zm0,0" transform="translate(-514.118 51.323)"/>
        <path id="Trazado_103872" data-name="Trazado 103872" d="M536.626,70.459q-2.51,0-5.026-.25h-.015a5.524,5.524,0,0,1-4.969-5.092V65.1a50.973,50.973,0,0,1,.366-10.945l1.816.258a49.077,49.077,0,0,0-.352,10.551v.017a3.692,3.692,0,0,0,3.32,3.4h.015a49.091,49.091,0,0,0,32.464-8.266,3.688,3.688,0,0,0,1.281-4.591l-.085-.186a49.3,49.3,0,0,0-13.461-17.5l1.165-1.417a51.129,51.129,0,0,1,13.964,18.156l.085.186a5.518,5.518,0,0,1-1.916,6.869,50.942,50.942,0,0,1-28.65,8.826Zm0,0" transform="translate(-512.73 -14.263)"/>
      </g>
    </g>
    <path id="Trazado_103873" data-name="Trazado 103873" d="M611.349,109.336h-.09a7.077,7.077,0,0,1-6.5-4.491l1.708-.668a5.236,5.236,0,1,0,6.63-6.845l.613-1.729a7.071,7.071,0,0,1-2.365,13.733Zm0,0" transform="translate(-579.053 -64.401)"/>
  </g>
</svg>
