<svg xmlns="http://www.w3.org/2000/svg" width="34.647" height="62.469" viewBox="0 0 34.647 62.469">
  <g id="Grupo_55007" data-name="Grupo 55007" transform="translate(-479.547 -100)">
    <path id="Trazado_104121" data-name="Trazado 104121" d="M659,107.5h-4.8a1.2,1.2,0,0,0-1.2,1.2v15.024h7.2V108.7a1.2,1.2,0,0,0-1.2-1.2Zm0,0" transform="translate(-152.294 -6.585)" fill="#f6cb43"/>
    <path id="Trazado_104122" data-name="Trazado 104122" d="M685.946,108.713v15.019h-2.418V108.713a1.209,1.209,0,0,0-1.209-1.209h2.418a1.209,1.209,0,0,1,1.209,1.209Zm0,0" transform="translate(-178.033 -6.588)" fill="#fab03c"/>
    <path id="Trazado_104123" data-name="Trazado 104123" d="M659,107.5h-4.8a1.2,1.2,0,0,0-1.2,1.2v3.383a3.49,3.49,0,0,0,3.49,3.49h.223a3.49,3.49,0,0,0,3.491-3.49V108.7a1.2,1.2,0,0,0-1.2-1.2Zm0,0" transform="translate(-152.294 -6.585)" fill="#c1bab8"/>
    <path id="Trazado_104124" data-name="Trazado 104124" d="M685.946,108.713v3.362a3.5,3.5,0,0,1-2.418,3.333v-6.695a1.209,1.209,0,0,0-1.209-1.209h2.418a1.209,1.209,0,0,1,1.209,1.209Zm0,0" transform="translate(-178.033 -6.588)" fill="#b7a6a3"/>
    <path id="Trazado_104125" data-name="Trazado 104125" d="M537.026,107.5h-4.8a1.2,1.2,0,0,0-1.2,1.2v15.024h7.2V108.7a1.2,1.2,0,0,0-1.2-1.2Zm0,0" transform="translate(-45.199 -6.585)" fill="#f6cb43"/>
    <path id="Trazado_104126" data-name="Trazado 104126" d="M563.97,108.713v15.019h-2.418V108.713a1.209,1.209,0,0,0-1.209-1.209h2.418a1.209,1.209,0,0,1,1.209,1.209Zm0,0" transform="translate(-70.939 -6.588)" fill="#fab03c"/>
    <path id="Trazado_104127" data-name="Trazado 104127" d="M537.026,107.5h-4.8a1.2,1.2,0,0,0-1.2,1.2v3.383a3.49,3.49,0,0,0,3.49,3.49h.223a3.49,3.49,0,0,0,3.49-3.49V108.7a1.2,1.2,0,0,0-1.2-1.2Zm0,0" transform="translate(-45.199 -6.585)" fill="#c1bab8"/>
    <path id="Trazado_104128" data-name="Trazado 104128" d="M563.97,108.713v3.362a3.5,3.5,0,0,1-2.418,3.333v-6.695a1.209,1.209,0,0,0-1.209-1.209h2.418a1.209,1.209,0,0,1,1.209,1.209Zm0,0" transform="translate(-70.939 -6.588)" fill="#b7a6a3"/>
    <path id="Trazado_104129" data-name="Trazado 104129" d="M523.61,246.105l-.6,10.084h-24.59l-.6-10.084a1.247,1.247,0,0,0-.181-.575l-1.39-2.27a6.332,6.332,0,0,1-.932-3.306V232.39a3.726,3.726,0,0,1,3.726-3.726h23.349a3.726,3.726,0,0,1,3.726,3.726v7.565a6.328,6.328,0,0,1-.932,3.306l-1.39,2.27a1.248,1.248,0,0,0-.181.575Zm0,0" transform="translate(-13.842 -112.966)" fill="#cf8671"/>
    <path id="Trazado_104130" data-name="Trazado 104130" d="M705.83,232.386v7.565a6.32,6.32,0,0,1-.932,3.305l-1.39,2.27a1.257,1.257,0,0,0-.181.575l-.6,10.084h-2.1l.6-10.084a1.245,1.245,0,0,1,.181-.575l1.389-2.27a6.32,6.32,0,0,0,.932-3.305v-7.565A3.725,3.725,0,0,0,700,228.66h2.1a3.726,3.726,0,0,1,3.726,3.726Zm0,0" transform="translate(-193.559 -112.962)" fill="#a86552"/>
    <path id="Trazado_104131" data-name="Trazado 104131" d="M543.879,421.75l-.238,3.967h-24.59l-.238-3.967Zm0,0" transform="translate(-34.475 -282.493)" fill="#f6cb43"/>
    <path id="Trazado_104132" data-name="Trazado 104132" d="M707.43,421.75l-.236,3.967h-2.1l.237-3.967Zm0,0" transform="translate(-198.028 -282.493)" fill="#fab03c"/>
    <path id="Trazado_104133" data-name="Trazado 104133" d="M517.085,448.514a1.2,1.2,0,0,0-1.184-.987H491.01a1.2,1.2,0,0,0-1.184.987l-2.779,15.174a2.99,2.99,0,0,0,2.991,2.991,3.573,3.573,0,0,0,3.573-3.573v.095a3.478,3.478,0,0,0,3.478,3.478h.187a2.9,2.9,0,0,0,2.9-2.9v-.58a3.478,3.478,0,0,0,3.478,3.478h.187a2.9,2.9,0,0,0,2.9-2.9v-.58a3.478,3.478,0,0,0,3.478,3.478h.187a2.9,2.9,0,0,0,2.9-2.9v-.675a3.573,3.573,0,0,0,3.573,3.573,2.99,2.99,0,0,0,2.991-2.991Zm0,0" transform="translate(-6.585 -305.125)" fill="#fc4830"/>
    <path id="Trazado_104134" data-name="Trazado 104134" d="M547.407,447.527h-6.563V463.2a3.478,3.478,0,0,0,3.478,3.478h.187a2.9,2.9,0,0,0,2.9-2.9Zm0,0" transform="translate(-53.818 -305.125)" fill="#e81610"/>
    <path id="Trazado_104135" data-name="Trazado 104135" d="M601.2,447.527h-6.563V463.2a3.478,3.478,0,0,0,3.478,3.478h.187a2.9,2.9,0,0,0,2.9-2.9Zm0,0" transform="translate(-101.048 -305.125)" fill="#fc4830"/>
    <path id="Trazado_104136" data-name="Trazado 104136" d="M654.994,447.527H648.43V463.2a3.478,3.478,0,0,0,3.478,3.478h.187a2.9,2.9,0,0,0,2.9-2.9Zm0,0" transform="translate(-148.278 -305.125)" fill="#e81610"/>
    <path id="Trazado_104137" data-name="Trazado 104137" d="M675.821,134.928h.014a.915.915,0,1,0,0-1.83h-.014a.915.915,0,1,0,0,1.83Zm0,0" transform="translate(-171.523 -29.06)"/>
    <path id="Trazado_104138" data-name="Trazado 104138" d="M553.845,134.928h.014a.915.915,0,1,0,0-1.83h-.014a.915.915,0,1,0,0,1.83Zm0,0" transform="translate(-64.43 -29.06)"/>
    <path id="Trazado_104139" data-name="Trazado 104139" d="M722.481,564.5h-.007a.915.915,0,0,0-.007,1.83h.023a.915.915,0,0,0,.007-1.83Zm0,0" transform="translate(-212.484 -407.827)"/>
    <path id="Trazado_104140" data-name="Trazado 104140" d="M667.914,564.5h-.022a.915.915,0,0,0-.007,1.83h.022a.915.915,0,0,0,.007-1.83Zm0,0" transform="translate(-164.562 -407.827)"/>
    <path id="Trazado_104141" data-name="Trazado 104141" d="M614.91,564.5h-.022a.915.915,0,0,0-.007,1.83h.022a.915.915,0,0,0,.007-1.83Zm0,0" transform="translate(-118.025 -407.827)"/>
    <path id="Trazado_104142" data-name="Trazado 104142" d="M561.9,564.5h-.022a.915.915,0,0,0-.007,1.83h.023a.915.915,0,0,0,.007-1.83Zm0,0" transform="translate(-71.484 -407.827)"/>
    <path id="Trazado_104143" data-name="Trazado 104143" d="M507.32,564.5H507.3a.915.915,0,0,0-.007,1.83h.022a.915.915,0,0,0,.007-1.83Zm0,0" transform="translate(-23.562 -407.827)"/>
    <path id="Trazado_104144" data-name="Trazado 104144" d="M514.18,158.4l-1.234-6.734a.915.915,0,0,0-1.8.33l1.217,6.645a2.078,2.078,0,0,1-2.074,2,2.661,2.661,0,0,1-2.658-2.658V143.317h1.685a.289.289,0,0,1,.284.237l.8,4.341a.915.915,0,0,0,1.8-.33l-.8-4.341a2.115,2.115,0,0,0-1.224-1.554l.506-8.476a.33.33,0,0,1,.048-.152l1.39-2.27a7.239,7.239,0,0,0,1.066-3.783v-7.565a4.646,4.646,0,0,0-4.357-4.632v-.884a.915.915,0,1,0-1.83,0v.874h-1.8v-.871a.915.915,0,1,0-1.83,0v.871h-1.747v-5.711a4.38,4.38,0,0,0,2.575.835h.223a4.38,4.38,0,0,0,2.576-.835v.852a.915.915,0,1,0,1.83,0v-7.805A2.121,2.121,0,0,0,506.71,100h-4.8a2.122,2.122,0,0,0-2.107,1.9c-.007.071-.011,12.881-.011,12.881h-5.849s0-12.81-.011-12.881a2.122,2.122,0,0,0-2.108-1.9h-4.8a2.121,2.121,0,0,0-2.119,2.118v12.674a4.646,4.646,0,0,0-4.357,4.631v7.565a7.242,7.242,0,0,0,1.066,3.784l1.39,2.27a.328.328,0,0,1,.047.152l.507,8.476a2.116,2.116,0,0,0-1.225,1.554l-2.78,15.174a.914.914,0,0,0-.015.165,3.91,3.91,0,0,0,3.906,3.906A4.485,4.485,0,0,0,487,160.725a4.389,4.389,0,0,0,3.5,1.743h.187a3.81,3.81,0,0,0,3.05-1.527,4.385,4.385,0,0,0,3.327,1.527h.187a3.81,3.81,0,0,0,3.05-1.527,4.384,4.384,0,0,0,3.326,1.527h.187a3.809,3.809,0,0,0,3.074-1.558,4.48,4.48,0,0,0,3.4,1.558,3.91,3.91,0,0,0,3.905-3.906.9.9,0,0,0-.015-.164ZM506.71,101.83a.289.289,0,0,1,.288.288V105.5a2.578,2.578,0,0,1-2.575,2.575H504.2a2.578,2.578,0,0,1-2.575-2.575v-3.383a.289.289,0,0,1,.289-.288Zm-16.366,12.953v-.871a.915.915,0,1,0-1.83,0v.871h-1.771v-5.711a4.381,4.381,0,0,0,2.575.835h.223a4.38,4.38,0,0,0,2.575-.835v5.711Zm-3.6-12.665a.289.289,0,0,1,.288-.288h4.8a.289.289,0,0,1,.289.288V105.5a2.578,2.578,0,0,1-2.576,2.575h-.223a2.578,2.578,0,0,1-2.575-2.575Zm-4.357,24.87v-1.909a4.6,4.6,0,0,0,4.308,2.994h4.479a4.622,4.622,0,0,0,4.493-3.624.915.915,0,1,0-1.789-.387,2.782,2.782,0,0,1-2.7,2.181h-4.479a2.77,2.77,0,0,1-2.611-1.852l-1.7-4.84v-.127a2.813,2.813,0,0,1,2.81-2.81h23.349a2.814,2.814,0,0,1,2.81,2.81v.127l-1.7,4.84a2.771,2.771,0,0,1-2.612,1.852H502.57a2.783,2.783,0,0,1-2.7-2.181.915.915,0,0,0-1.789.387,4.624,4.624,0,0,0,4.493,3.624h4.478a4.6,4.6,0,0,0,4.308-2.994v1.909a5.415,5.415,0,0,1-.8,2.828l-1.39,2.27a2.166,2.166,0,0,0-.314,1l-.314,5.257H497.793V137.1h1.582a2.827,2.827,0,0,0,2.824-2.823.915.915,0,0,0-1.83,0,.994.994,0,0,1-.994.993h-1.582v-2.333h1.582a2.827,2.827,0,0,0,2.824-2.824.915.915,0,0,0-1.83,0,1,1,0,0,1-.994.994h-1.582v-.639a.915.915,0,0,0-1.83,0v.639h-1.6a1,1,0,0,1-.994-.994.915.915,0,1,0-1.83,0,2.827,2.827,0,0,0,2.824,2.824h1.6v2.333h-1.6a1,1,0,0,1-.994-.993.915.915,0,1,0-1.83,0,2.827,2.827,0,0,0,2.824,2.823h1.6v1.247h-4.42a.915.915,0,1,0,0,1.83h16.889l-.079,1.314H485.389l-.079-1.314h2.248a.915.915,0,1,0,0-1.83H485.2l-.314-5.257a2.166,2.166,0,0,0-.314-1l-1.39-2.27a5.414,5.414,0,0,1-.8-2.828Zm1.067,33.65a2.078,2.078,0,0,1-2.074-2l2.763-15.086a.289.289,0,0,1,.284-.236h1.685v14.664a2.661,2.661,0,0,1-2.658,2.658Zm7.238,0H490.5a2.566,2.566,0,0,1-2.563-2.563V143.317h2.1v2.816a.915.915,0,1,0,1.83,0v-2.816h.807v15.339a1.985,1.985,0,0,1-1.983,1.983Zm6.564,0h-.187a2.566,2.566,0,0,1-2.563-2.563V143.317h1.459v2.816a.915.915,0,0,0,1.83,0v-2.816h1.445v15.339a1.986,1.986,0,0,1-1.983,1.983Zm6.563,0h-.187a2.566,2.566,0,0,1-2.563-2.563V143.317h.889v2.816a.915.915,0,1,0,1.83,0v-2.816H505.8v15.339a1.985,1.985,0,0,1-1.983,1.983Zm0,0"/>
  </g>
</svg>
